<svg width="16" height="16" xmlns="http://www.w3.org/2000/svg" viewBox="0 0 16 16" shape-rendering="geometricPrecision"><defs><mask id="a"><rect fill="#fff" width="100%" height="100%"/><path d="M17.514 2.67l-.862-.55L16.65-1h-2.866v.558c-1.334-.3-2.758.103-3.723 1.067-1.568 1.57-1.553 4.14.036 5.732.78.777 1.81 1.205 2.9 1.205 1.072 0 2.078-.415 2.832-1.168C16.585 5.64 17 4.63 17 3.557V2.67h.514zm-3.373.888c0 .22-.057.54-.332.813-.443.444-1.23.427-1.69-.034-.475-.475-.49-1.234-.036-1.69.01-.01.02-.02.033-.03v.922h2.026v.02z"/></mask></defs><path d="M13.114 2.537h2.538V0h-.868v1.105c-1.204-.927-2.924-.863-4.016.227-1.187 1.188-1.162 3.12.035 4.317 1.2 1.197 3.13 1.223 4.32.036.584-.584.878-1.357.877-2.128h-.86c0 .558-.207 1.103-.626 1.522-.843.842-2.23.836-3.104-.036-.87-.872-.877-2.26-.035-3.105.73-.728 1.86-.82 2.72-.27h-.982v.867z" fill="#cb1800"/><g mask="url(#a)"><path d="M4.27 11.728l4.867-2.562L11.7 4.3 6.832 6.863 4.27 11.728zm2.96-4.47c.417-.417 1.094-.417 1.51 0 .42.42.42 1.096 0 1.513-.417.42-1.094.42-1.51 0-.42-.417-.42-1.094 0-1.51z"/><path d="M8 1.01c-3.86 0-6.99 3.13-6.99 6.993 0 3.858 3.13 6.985 6.99 6.986 3.86-.003 6.988-3.13 6.99-6.987C14.99 4.14 11.86 1.01 8 1.01zm1.145 12.445L8 12.31l-1.145 1.145c-2.16-.454-3.857-2.152-4.31-4.31L3.69 8 2.546 6.855C3 4.695 4.696 3 6.856 2.545L8 3.69l1.145-1.145c2.158.453 3.855 2.15 4.31 4.31L12.31 8l1.146 1.146c-.453 2.158-2.15 3.856-4.31 4.31z"/></g></svg>