<?xml version="1.0"?><!DOCTYPE svg PUBLIC "-//W3C//DTD SVG 1.1//EN" "http://www.w3.org/Graphics/SVG/1.1/DTD/svg11.dtd"><svg xmlns="http://www.w3.org/2000/svg" viewBox="0 0 16 16" shape-rendering="geometricPrecision" fill="#000"><defs><mask id="refresh-path"><rect fill="#fff" width="100%" height="100%"/><path d="M17.514,2.671l-0.862-0.552L16.65-1h-2.866v0.558c-1.334-0.3-2.758,0.103-3.723,1.067 c-1.569,1.569-1.554,4.141,0.035,5.732c0.779,0.777,1.809,1.205,2.901,1.205c1.071,0,2.077-0.415,2.831-1.168 C16.585,5.639,17.001,4.631,17,3.557l0-0.886H17.514z M14.141,3.558c0,0.22-0.058,0.539-0.333,0.813 c-0.443,0.443-1.23,0.426-1.69-0.035c-0.475-0.475-0.49-1.234-0.036-1.689c0.011-0.011,0.021-0.022,0.033-0.031l0,0.922h2.026 V3.558z" fill="#000"/></mask></defs><path display="inline" d="M13.114,2.537h2.538L15.651,0h-0.867v1.105 c-1.204-0.927-2.924-0.863-4.016,0.227C9.581,2.52,9.606,4.451,10.803,5.649c1.201,1.198,3.131,1.224,4.319,0.037 C15.707,5.102,16.001,4.329,16,3.558l-0.859,0.001c-0.001,0.557-0.208,1.102-0.627,1.521c-0.843,0.842-2.231,0.836-3.104-0.036 c-0.871-0.872-0.877-2.26-0.035-3.105c0.729-0.727,1.86-0.818,2.721-0.268h-0.983L13.114,2.537z" fill="#cb1800"/><g mask="url(#refresh-path)"><path d="M12.421,2.295H3.568c-1.395,0-2.527,1.133-2.529,2.528V9.76c0.002,1.395,1.134,2.527,2.529,2.529h0.196 c-0.097,0.402-0.325,0.845-0.828,1.304L1.368,15l2.084-0.319c2.36-0.374,3.82-1.796,4.344-2.392h4.625 c1.397-0.002,2.527-1.135,2.529-2.529V4.823C14.948,3.428,13.818,2.295,12.421,2.295z M13.693,9.76 c0,0.696-0.577,1.272-1.272,1.274H7.188L7,11.284c-0.033,0.05-0.784,1.016-2.124,1.657c0.153-0.422,0.211-0.832,0.207-1.188 c0-0.023,0-0.062-0.001-0.108l-0.018-0.61H3.568c-0.695-0.002-1.272-0.578-1.272-1.274V4.823c0-0.698,0.577-1.272,1.272-1.273 h8.853c0.696,0.002,1.272,0.575,1.272,1.273V9.76z M4.849,6.242c-0.638,0-1.155,0.518-1.155,1.156 c0,0.637,0.517,1.155,1.155,1.155c0.638,0,1.156-0.519,1.156-1.155C6.005,6.76,5.487,6.242,4.849,6.242z M7.995,6.242 c-0.638,0-1.157,0.518-1.157,1.156c0,0.637,0.52,1.155,1.157,1.155c0.637,0,1.155-0.519,1.155-1.155 C9.15,6.76,8.632,6.242,7.995,6.242z M11.14,6.242c-0.637,0-1.156,0.518-1.156,1.156c0,0.637,0.519,1.155,1.156,1.155 c0.639,0,1.155-0.519,1.155-1.155C12.295,6.76,11.778,6.242,11.14,6.242z"/></g></svg>
