<?xml version="1.0"?><!DOCTYPE svg PUBLIC "-//W3C//DTD SVG 1.1//EN" "http://www.w3.org/Graphics/SVG/1.1/DTD/svg11.dtd"><svg width="16px" height="16px" xmlns="http://www.w3.org/2000/svg" viewBox="0 0 16 16" shape-rendering="geometricPrecision" fill="#000"><defs><mask id="refresh-path"><rect fill="#fff" width="100%" height="100%"/><path d="M17.514,2.671l-0.862-0.552L16.65-1h-2.866v0.558c-1.334-0.3-2.758,0.103-3.723,1.067 c-1.569,1.569-1.554,4.141,0.035,5.732c0.779,0.777,1.809,1.205,2.901,1.205c1.071,0,2.077-0.415,2.831-1.168 C16.585,5.639,17.001,4.631,17,3.557l0-0.886H17.514z M14.141,3.558c0,0.22-0.058,0.539-0.333,0.813 c-0.443,0.443-1.23,0.426-1.69-0.035c-0.475-0.475-0.49-1.234-0.036-1.689c0.011-0.011,0.021-0.022,0.033-0.031l0,0.922h2.026 V3.558z" fill="#000"/></mask></defs><path display="inline" d="M13.114,2.537h2.538L15.651,0h-0.867v1.105 c-1.204-0.927-2.924-0.863-4.016,0.227C9.581,2.52,9.606,4.451,10.803,5.649c1.201,1.198,3.131,1.224,4.319,0.037 C15.707,5.102,16.001,4.329,16,3.558l-0.859,0.001c-0.001,0.557-0.208,1.102-0.627,1.521c-0.843,0.842-2.231,0.836-3.104-0.036 c-0.871-0.872-0.877-2.26-0.035-3.105c0.729-0.727,1.86-0.818,2.721-0.268h-0.983L13.114,2.537z" fill="#cb1800"/><g mask="url(#refresh-path)"><path d="M1.059,3.199v2.777c0,0.59,0.481,1.07,1.07,1.07h2.768c0.052,0.069,0.866,1.123,2.333,1.35 C6.714,7.935,6.6,7.431,6.612,7.047h0.499c0.588,0,1.069-0.48,1.069-1.07V3.199c0-0.588-0.481-1.07-1.069-1.07H2.129 C1.54,2.129,1.059,2.611,1.059,3.199z M2.333,4.625h4.509v0.629H2.333V4.625z M2.333,3.322h4.509v0.63H2.333V3.322z"/><g><path d="M13.15,6.007c0-1.177-0.954-2.13-2.129-2.13c-1.18,0-2.131,0.953-2.131,2.13c0,1.178,0.951,2.13,2.131,2.13 C12.196,8.137,13.15,7.185,13.15,6.007z M6.987,11.201v2.669h8.067v-2.669c0-1.129-0.918-2.053-2.047-2.053H9.041 C7.913,9.148,6.987,10.072,6.987,11.201z"/></g></g></svg>