<?xml version="1.0"?><!DOCTYPE svg PUBLIC "-//W3C//DTD SVG 1.1//EN" "http://www.w3.org/Graphics/SVG/1.1/DTD/svg11.dtd"><svg width="16px" height="16px" xmlns="http://www.w3.org/2000/svg" viewBox="0 0 16 16" shape-rendering="geometricPrecision" fill="#000"><defs><mask id="refresh-path"><rect fill="#fff" width="100%" height="100%"/><path d="M17.514,2.671l-0.862-0.552L16.65-1h-2.866v0.558c-1.334-0.3-2.758,0.103-3.723,1.067 c-1.569,1.569-1.554,4.141,0.035,5.732c0.779,0.777,1.809,1.205,2.901,1.205c1.071,0,2.077-0.415,2.831-1.168 C16.585,5.639,17.001,4.631,17,3.557l0-0.886H17.514z M14.141,3.558c0,0.22-0.058,0.539-0.333,0.813 c-0.443,0.443-1.23,0.426-1.69-0.035c-0.475-0.475-0.49-1.234-0.036-1.689c0.011-0.011,0.021-0.022,0.033-0.031l0,0.922h2.026 V3.558z" fill="#000"/></mask></defs><path display="inline" d="M13.114,2.537h2.538L15.651,0h-0.867v1.105 c-1.204-0.927-2.924-0.863-4.016,0.227C9.581,2.52,9.606,4.451,10.803,5.649c1.201,1.198,3.131,1.224,4.319,0.037 C15.707,5.102,16.001,4.329,16,3.558l-0.859,0.001c-0.001,0.557-0.208,1.102-0.627,1.521c-0.843,0.842-2.231,0.836-3.104-0.036 c-0.871-0.872-0.877-2.26-0.035-3.105c0.729-0.727,1.86-0.818,2.721-0.268h-0.983L13.114,2.537z" fill="#cb1800"/><g mask="url(#refresh-path)"><path d="M8.004,1.011c-3.862,0-6.993,3.132-6.993,6.997c0.002,3.861,3.131,6.989,6.993,6.991 c3.863-0.002,6.995-3.13,6.995-6.991C14.999,4.143,11.867,1.011,8.004,1.011z M8.004,13.586c-3.08-0.008-5.572-2.499-5.578-5.578 c0.006-3.084,2.498-5.576,5.578-5.582c3.082,0.006,5.573,2.498,5.58,5.582C13.577,11.087,11.085,13.578,8.004,13.586z"/><g><path d="M3.904,8.345H4.63c0,0-0.023-0.2-0.023-0.353c0-0.127,0.023-0.373,0.023-0.373H3.904V6.72h0.877 c0.503-1.755,2.07-3.006,3.998-3.006c0.62,0,1.158,0.152,1.158,0.152L9.574,5.234c0,0-0.396-0.117-0.83-0.117 c-1.11,0-1.975,0.62-2.35,1.602h2.911L9.119,7.619H6.186c0,0-0.025,0.176-0.025,0.352c0,0.129,0.036,0.374,0.036,0.374h2.781 L8.803,9.233H6.465c0.362,0.993,1.263,1.637,2.338,1.637c0.607,0,1.124-0.176,1.124-0.176l0.268,1.379 c0,0-0.61,0.223-1.415,0.223c-1.999,0-3.52-1.25-3.998-3.062H3.904V8.345z"/></g></g></svg>