<svg width="16" height="16" xmlns="http://www.w3.org/2000/svg" viewBox="0 0 16 16" shape-rendering="geometricPrecision"><defs><mask id="a"><rect fill="#fff" width="100%" height="100%"/><path d="M17.514 2.67l-.862-.55L16.65-1h-2.866v.558c-1.334-.3-2.758.103-3.723 1.067-1.568 1.57-1.553 4.14.036 5.732.78.777 1.81 1.205 2.9 1.205 1.072 0 2.078-.415 2.832-1.168C16.585 5.64 17 4.63 17 3.557V2.67h.514zm-3.373.888c0 .22-.057.54-.332.813-.443.444-1.23.427-1.69-.034-.475-.475-.49-1.234-.036-1.69.01-.01.02-.02.033-.03v.922h2.026v.02z"/></mask></defs><path d="M13.114 2.537h2.538V0h-.868v1.105c-1.204-.927-2.924-.863-4.016.227-1.187 1.188-1.162 3.12.035 4.317 1.2 1.197 3.13 1.223 4.32.036.584-.584.878-1.357.877-2.128h-.86c0 .558-.207 1.103-.626 1.522-.843.842-2.23.836-3.104-.036-.87-.872-.877-2.26-.035-3.105.73-.728 1.86-.82 2.72-.27h-.982v.867z" fill="#cb1800"/><path d="M11.985 3.584H2.12C.952 3.584 0 4.538 0 5.704v5.502c0 1.166.953 2.12 2.12 2.12h.987c.023.76-.2 1.757-1.224 2.673 2.905-.452 4.517-2.538 4.62-2.675h5.482c1.166 0 2.12-.953 2.12-2.12V5.704c0-1.165-.954-2.12-2.12-2.12zm-.404 6.188H2.65V8.528h8.93v1.244zm0-2.578H2.65V5.948h8.93v1.246zm2.306-5.506H4.02c-.83 0-1.543.487-1.892 1.183.287-.144.604-.23.946-.23h9.867c1.166 0 2.12.95 2.12 2.116v5.505c0 .336-.087.65-.226.934.69-.35 1.17-1.06 1.17-1.883V3.808c0-1.165-.952-2.12-2.118-2.12z" mask="url(#a)"/></svg>