<svg width="16" height="16" xmlns="http://www.w3.org/2000/svg" viewBox="0 0 16 16" shape-rendering="geometricPrecision"><defs><mask id="a"><rect fill="#fff" width="100%" height="100%"/><path d="M17.514 2.67l-.862-.55L16.65-1h-2.866v.558c-1.334-.3-2.758.103-3.723 1.067-1.568 1.57-1.553 4.14.036 5.732.78.777 1.81 1.205 2.9 1.205 1.072 0 2.078-.415 2.832-1.168C16.585 5.64 17 4.63 17 3.557V2.67h.514zm-3.373.888c0 .22-.057.54-.332.813-.443.444-1.23.427-1.69-.034-.475-.475-.49-1.234-.036-1.69.01-.01.02-.02.033-.03v.922h2.026v.02z"/></mask></defs><path d="M13.114 2.537h2.538V0h-.868v1.105c-1.204-.927-2.924-.863-4.016.227-1.187 1.188-1.162 3.12.035 4.317 1.2 1.197 3.13 1.223 4.32.036.584-.584.878-1.357.877-2.128h-.86c0 .558-.207 1.103-.626 1.522-.843.842-2.23.836-3.104-.036-.87-.872-.877-2.26-.035-3.105.73-.728 1.86-.82 2.72-.27h-.982v.867z" fill="#cb1800"/><g mask="url(#a)"><ellipse cx="13.096" cy="4.259" rx="1.101" ry="1.091"/><path d="M13.367 6.868c-.318 0-.614.095-.862.255-.127-.98-.962-1.74-1.983-1.74-1.11 0-2.01.89-2.01 1.992 0 1.1.9 1.99 2.01 1.99.507 0 .964-.192 1.318-.5.186.667.796 1.16 1.527 1.16.88 0 1.592-.707 1.592-1.578-.002-.872-.714-1.58-1.593-1.58z"/><path d="M10.202 10.016c-1.332-.157-2.365-1.28-2.365-2.64 0-1.072.64-1.994 1.56-2.415L8.91 1.908l-5.074.795.284 1.785L1.2 5.61l3.28 8.382 4.79-1.844-.442-1.126 1.497-.235-.123-.77z"/></g></svg>