<svg width="16" height="16" xmlns="http://www.w3.org/2000/svg" viewBox="0 0 16 16" shape-rendering="geometricPrecision"><defs><mask id="a"><rect fill="#fff" width="100%" height="100%"/><path d="M17.514 2.67l-.862-.55L16.65-1h-2.866v.558c-1.334-.3-2.758.103-3.723 1.067-1.568 1.57-1.553 4.14.036 5.732.78.777 1.81 1.205 2.9 1.205 1.072 0 2.078-.415 2.832-1.168C16.585 5.64 17 4.63 17 3.557V2.67h.514zm-3.373.888c0 .22-.057.54-.332.813-.443.444-1.23.427-1.69-.034-.475-.475-.49-1.234-.036-1.69.01-.01.02-.02.033-.03v.922h2.026v.02z"/></mask></defs><path d="M13.114 2.537h2.538V0h-.868v1.105c-1.204-.927-2.924-.863-4.016.227-1.187 1.188-1.162 3.12.035 4.317 1.2 1.197 3.13 1.223 4.32.036.584-.584.878-1.357.877-2.128h-.86c0 .558-.207 1.103-.626 1.522-.843.842-2.23.836-3.104-.036-.87-.872-.877-2.26-.035-3.105.73-.728 1.86-.82 2.72-.27h-.982v.867z" fill="#cb1800"/><g mask="url(#a)"><path d="M14.818 5.818c-.4-2.076-3.738-2.21-5.54-2.21H6.704c-1.8 0-5.08.296-5.514 2.184l-.11.735-.02.54h1.847C3.673 6.483 4.92 5.864 5.81 5.54c.436-.426 1.138-.576 1.696-.576H8.53c.578 0 1.32.088 1.753.58.877.327 2.1.944 2.853 1.524h1.8l.005-.517-.122-.732z"/><path d="M14.082 10.512c0-.623-.497-2.442-.497-2.442-.235-.777-3.503-2.342-4.193-2.342H6.7c-.69 0-4.017 1.565-4.252 2.342 0 0-.497 1.82-.497 2.442 0 .488-.003 1.445-.003 1.445H14.085s-.003-.957-.003-1.445zM8 10.935c-1.16 0-2.102-.94-2.102-2.102S6.838 6.73 8 6.73c1.16 0 2.102.94 2.102 2.102 0 1.16-.94 2.103-2.102 2.103z"/></g></svg>