<svg width="16" height="16" xmlns="http://www.w3.org/2000/svg" viewBox="0 0 16 16" shape-rendering="geometricPrecision"><defs><mask id="a"><rect fill="#fff" width="100%" height="100%"/><path d="M17.514 2.67l-.862-.55L16.65-1h-2.866v.558c-1.334-.3-2.758.103-3.723 1.067-1.568 1.57-1.553 4.14.036 5.732.78.777 1.81 1.205 2.9 1.205 1.072 0 2.078-.415 2.832-1.168C16.585 5.64 17 4.63 17 3.557V2.67h.514zm-3.373.888c0 .22-.057.54-.332.813-.443.444-1.23.427-1.69-.034-.475-.475-.49-1.234-.036-1.69.01-.01.02-.02.033-.03v.922h2.026v.02z"/></mask></defs><path d="M13.114 2.537h2.538V0h-.868v1.105c-1.204-.927-2.924-.863-4.016.227-1.187 1.188-1.162 3.12.035 4.317 1.2 1.197 3.13 1.223 4.32.036.584-.584.878-1.357.877-2.128h-.86c0 .558-.207 1.103-.626 1.522-.843.842-2.23.836-3.104-.036-.87-.872-.877-2.26-.035-3.105.73-.728 1.86-.82 2.72-.27h-.982v.867z" fill="#cb1800"/><g mask="url(#a)"><path d="M6.55 6.983c1.628 0 2.94-1.314 2.94-2.94S8.18 1.106 6.55 1.106c-1.622 0-2.938 1.314-2.938 2.94s1.317 2.938 2.94 2.938zM9.366 13.378l-.402-3.99.41-1c-.03 0-.06-.008-.09-.008H3.81C2.253 8.38.986 9.655.986 11.212v3.684h11.133v-3.684c0-.05-.013-.1-.016-.152l-2.736 2.318z"/><path d="M14.93 2.83c.246-.632-.06-1.35-.69-1.597-.63-.256-1.346.05-1.604.68l-.368.918 2.292.92.37-.92zm-5.117 9.446l1.04-.887-1.17-.468.13 1.354zM9.54 9.642l2.292.92L14.31 4.38l-2.293-.918-2.476 6.18z"/></g></svg>