<svg width="16" height="16" xmlns="http://www.w3.org/2000/svg" viewBox="0 0 16 16" shape-rendering="geometricPrecision"><defs><mask id="a"><rect fill="#fff" width="100%" height="100%"/><path d="M17.514 2.67l-.862-.55L16.65-1h-2.866v.558c-1.334-.3-2.758.103-3.723 1.067-1.568 1.57-1.553 4.14.036 5.732.78.777 1.81 1.205 2.9 1.205 1.072 0 2.078-.415 2.832-1.168C16.585 5.64 17 4.63 17 3.557V2.67h.514zm-3.373.888c0 .22-.057.54-.332.813-.443.444-1.23.427-1.69-.034-.475-.475-.49-1.234-.036-1.69.01-.01.02-.02.033-.03v.922h2.026v.02z"/></mask></defs><path d="M13.114 2.537h2.538V0h-.868v1.105c-1.204-.927-2.924-.863-4.016.227-1.187 1.188-1.162 3.12.035 4.317 1.2 1.197 3.13 1.223 4.32.036.584-.584.878-1.357.877-2.128h-.86c0 .558-.207 1.103-.626 1.522-.843.842-2.23.836-3.104-.036-.87-.872-.877-2.26-.035-3.105.73-.728 1.86-.82 2.72-.27h-.982v.867z" fill="#cb1800"/><g mask="url(#a)"><path d="M13.826 1.99L8.8 1.996 1 9.794l5.038 5.038 7.8-7.8-.012-5.042zm-2.484 4c-.828 0-1.5-.672-1.5-1.5 0-.83.672-1.5 1.5-1.5s1.5.67 1.5 1.5-.672 1.5-1.5 1.5z"/><path d="M2.342 9.668L7.94 4.07l3.823 3.822-5.598 5.6z"/><path d="M3.873 9.85l4.263-4.263.72.718L4.59 10.57zM5.226 11.204L9.49 6.94l.717.72-4.263 4.262z"/></g></svg>