<svg width="16" height="16" xmlns="http://www.w3.org/2000/svg" viewBox="0 0 16 16" shape-rendering="geometricPrecision"><defs><mask id="a"><rect fill="#fff" width="100%" height="100%"/><path d="M17.514 2.67l-.862-.55L16.65-1h-2.866v.558c-1.334-.3-2.758.103-3.723 1.067-1.568 1.57-1.553 4.14.036 5.732.78.777 1.81 1.205 2.9 1.205 1.072 0 2.078-.415 2.832-1.168C16.585 5.64 17 4.63 17 3.557V2.67h.514zm-3.373.888c0 .22-.057.54-.332.813-.443.444-1.23.427-1.69-.034-.475-.475-.49-1.234-.036-1.69.01-.01.02-.02.033-.03v.922h2.026v.02z"/></mask></defs><path d="M13.114 2.537h2.538V0h-.868v1.105c-1.204-.927-2.924-.863-4.016.227-1.187 1.188-1.162 3.12.035 4.317 1.2 1.197 3.13 1.223 4.32.036.584-.584.878-1.357.877-2.128h-.86c0 .558-.207 1.103-.626 1.522-.843.842-2.23.836-3.104-.036-.87-.872-.877-2.26-.035-3.105.73-.728 1.86-.82 2.72-.27h-.982v.867z" fill="#cb1800"/><path mask="url(#a)" d="M8 1.042c-3.843 0-6.958 3.115-6.958 6.96 0 3.842 3.116 6.955 6.96 6.956 3.842 0 6.955-3.114 6.957-6.955-.002-3.846-3.116-6.96-6.96-6.96zm3.606 6.876c0 .354-.065.69-.16 1.014h2.02c-.134.778-.424 1.502-.843 2.134l-1.45-1.45c-.33.635-.835 1.154-1.457 1.503l1.44 1.44c-.633.438-1.36.748-2.147.894v-2.032c-.347.107-.707.182-1.088.182-.352 0-.684-.064-1.006-.156v1.996c-.776-.155-1.493-.474-2.116-.915l1.38-1.38c-.627-.34-1.14-.853-1.48-1.48l-1.35 1.35c-.405-.622-.686-1.33-.815-2.09h1.863c-.094-.322-.16-.658-.16-1.012 0-.378.075-.736.18-1.08H2.576c.156-.728.455-1.402.866-1.994l1.28 1.28c.35-.62.87-1.126 1.502-1.457l-1.29-1.29c.59-.392 1.26-.675 1.982-.818v1.83c.322-.09.654-.155 1.006-.155.38 0 .74.075 1.087.182v-1.87c.73.135 1.41.412 2.01.803L9.672 4.695c.627.342 1.138.854 1.478 1.48L12.528 4.8c.426.602.737 1.29.897 2.038h-1.997c.106.344.18.702.18 1.08z"/></svg>