<svg width="16" height="16" xmlns="http://www.w3.org/2000/svg" viewBox="0 0 16 16" shape-rendering="geometricPrecision"><defs><mask id="a"><rect fill="#fff" width="100%" height="100%"/><path d="M17.514 2.67l-.862-.55L16.65-1h-2.866v.558c-1.334-.3-2.758.103-3.723 1.067-1.568 1.57-1.553 4.14.036 5.732.78.777 1.81 1.205 2.9 1.205 1.072 0 2.078-.415 2.832-1.168C16.585 5.64 17 4.63 17 3.557V2.67h.514zm-3.373.888c0 .22-.057.54-.332.813-.443.444-1.23.427-1.69-.034-.475-.475-.49-1.234-.036-1.69.01-.01.02-.02.033-.03v.922h2.026v.02z"/></mask></defs><path d="M13.114 2.537h2.538V0h-.868v1.105c-1.204-.927-2.924-.863-4.016.227-1.187 1.188-1.162 3.12.035 4.317 1.2 1.197 3.13 1.223 4.32.036.584-.584.878-1.357.877-2.128h-.86c0 .558-.207 1.103-.626 1.522-.843.842-2.23.836-3.104-.036-.87-.872-.877-2.26-.035-3.105.73-.728 1.86-.82 2.72-.27h-.982v.867z" fill="#cb1800"/><path mask="url(#a)" d="M14.9 4.223l-2.144-.193c-.665-1.14-1.984-1.804-3.36-1.566-1.334.23-2.334 1.247-2.614 2.49-.1.53-.1 1.292-.557 2.092-1.626.367-3.325.2-3.325.2s.273 1.135 2.174 2.048C3.354 11.6 1.014 12 1.014 12s1 .982 3.196.724c.803-.095 1.504-.457 1.826-.646l-2.27 1.408s1.384.422 4.326-.488c3.76-1.162 4.873-4.78 4.845-6.05l.016-.04 2.035-.852-2.093-.433 2.005-1.4zm-3.993 1.45c-.297 0-.54-.32-.54-.718 0-.397.243-.718.54-.718.298 0 .54.32.54.718 0 .397-.242.72-.54.72z"/></svg>