<svg width="16" height="16" xmlns="http://www.w3.org/2000/svg" viewBox="0 0 16 16" shape-rendering="geometricPrecision" fill="#00962d"><defs><mask id="a"><rect fill="#fff" width="100%" height="100%"/><path fill="#000" d="M14.5 1.716L13-.37l-1.5 2.086-1.983-2.76-.836.01 1.89 6.812h4.86l1.883-6.792-.84-.013z"/></mask></defs><path fill="#FCC70A" d="M14.858 5.028H11.14L10 .914l.748 1.043.75 1.045.75-1.045L13 .914l.75 1.043.75 1.045.75-1.045L16 .914"/><g mask="url(#a)"><path d="M1.06 3.2v2.776c0 .59.48 1.07 1.07 1.07h2.767c.052.07.866 1.123 2.333 1.35-.516-.46-.63-.965-.618-1.35h.5c.587 0 1.068-.48 1.068-1.07V3.2c0-.59-.48-1.07-1.07-1.07H2.13c-.59 0-1.07.48-1.07 1.07zm1.273 1.425h4.51v.63h-4.51v-.63zm0-1.303h4.51v.63h-4.51v-.63zM13.15 6.007c0-1.177-.954-2.13-2.13-2.13-1.18 0-2.13.953-2.13 2.13 0 1.178.95 2.13 2.13 2.13 1.176 0 2.13-.952 2.13-2.13zM6.987 11.2v2.67h8.067V11.2c0-1.128-.918-2.052-2.047-2.052H9.04c-1.127 0-2.053.924-2.053 2.053z"/></g></svg>