<svg width="16" height="16" xmlns="http://www.w3.org/2000/svg" viewBox="0 0 16 16" shape-rendering="geometricPrecision" fill="#00962d"><defs><mask id="a"><rect fill="#fff" width="100%" height="100%"/><path fill="#000" d="M14.5 1.716L13-.37l-1.5 2.086-1.983-2.76-.836.01 1.89 6.812h4.86l1.883-6.792-.84-.013z"/></mask></defs><path fill="#FCC70A" d="M14.858 5.028H11.14L10 .914l.748 1.043.75 1.045.75-1.045L13 .914l.75 1.043.75 1.045.75-1.045L16 .914"/><g mask="url(#a)"><path d="M6.655 8.12c0 .522-.208.993-.54 1.346h3.925c-.332-.353-.54-.823-.54-1.345 0-.667.337-1.258.85-1.612-.282-.34-.702-.56-1.174-.56H6.974c-.472 0-.89.22-1.17.56.514.353.85.943.85 1.613z"/><circle cx="8.077" cy="3.606" r="1.587"/><circle cx="4.691" cy="8.122" r="1.587"/><path d="M5.79 10.462H3.587c-.84 0-1.525.69-1.525 1.53v1.988H7.32v-1.988c0-.84-.69-1.53-1.53-1.53z"/><circle cx="11.464" cy="8.121" r="1.588"/><path d="M12.562 10.462H10.36c-.84 0-1.525.69-1.525 1.53v1.988h5.258v-1.988c0-.84-.69-1.53-1.53-1.53z"/></g></svg>