<svg width="16" height="16" xmlns="http://www.w3.org/2000/svg" viewBox="0 0 16 16" shape-rendering="geometricPrecision" fill="#00962d"><defs><mask id="a"><rect fill="#fff" width="100%" height="100%"/><path fill="#000" d="M14.5 1.716L13-.37l-1.5 2.086-1.983-2.76-.836.01 1.89 6.812h4.86l1.883-6.792-.84-.013z"/></mask></defs><path fill="#FCC70A" d="M14.858 5.028H11.14L10 .914l.748 1.043.75 1.045.75-1.045L13 .914l.75 1.043.75 1.045.75-1.045L16 .914"/><path d="M3.36 0v1.056h10.328v12.842h1.072V0H3.36zM1.24 16h11.4V2.102H1.24V16zM6.956 3.726c1.467 0 2.65 1.188 2.65 2.65 0 1.47-1.184 2.654-2.65 2.654-1.464 0-2.653-1.184-2.653-2.653 0-1.463 1.19-2.65 2.653-2.65zm-4.51 8.458c0-1.263 1.028-2.295 2.29-2.295H9.17c1.262 0 2.296 1.03 2.296 2.294v2.98h-9.02v-2.98z" mask="url(#a)"/></svg>