<svg width="16" height="16" xmlns="http://www.w3.org/2000/svg" viewBox="0 0 16 16" shape-rendering="geometricPrecision" fill="#00962d"><defs><mask id="a"><rect fill="#fff" width="100%" height="100%"/><path fill="#000" d="M14.5 1.716L13-.37l-1.5 2.086-1.983-2.76-.836.01 1.89 6.812h4.86l1.883-6.792-.84-.013z"/></mask></defs><path fill="#FCC70A" d="M14.858 5.028H11.14L10 .914l.748 1.043.75 1.045.75-1.045L13 .914l.75 1.043.75 1.045.75-1.045L16 .914"/><g mask="url(#a)"><path d="M14.818 5.818c-.4-2.076-3.738-2.21-5.54-2.21H6.704c-1.8 0-5.08.296-5.514 2.184l-.11.735-.02.54h1.847C3.673 6.483 4.92 5.864 5.81 5.54c.436-.426 1.138-.576 1.696-.576H8.53c.578 0 1.32.088 1.753.58.877.327 2.1.944 2.853 1.524h1.8l.005-.517-.122-.732z"/><path d="M14.082 10.512c0-.623-.497-2.442-.497-2.442-.235-.777-3.503-2.342-4.193-2.342H6.7c-.69 0-4.017 1.565-4.252 2.342 0 0-.497 1.82-.497 2.442 0 .488-.003 1.445-.003 1.445H14.085s-.003-.957-.003-1.445zM8 10.935c-1.16 0-2.102-.94-2.102-2.102S6.838 6.73 8 6.73c1.16 0 2.102.94 2.102 2.102 0 1.16-.94 2.103-2.102 2.103z"/></g></svg>