<svg width="16" height="16" xmlns="http://www.w3.org/2000/svg" viewBox="0 0 16 16" shape-rendering="geometricPrecision" fill="#cb1800"><defs><mask id="a"><rect fill="#fff" width="100%" height="100%"/><path fill="#000" d="M14.934-.397l-2.04 2.036L10.86-.398l-2.472 2.47 4.51 4.51 4.508-4.51z"/></mask></defs><path d="M12.895 3.052l-2.037-2.035L9.8 2.073l3.097 3.096 3.093-3.097-1.057-1.056"/><g mask="url(#a)"><path d="M0 5.12l3.176 3.182L0 11.48l1.65 1.65L6.48 8.3 1.65 3.473M7.144.605V14.7H8.21V1.67l4.058.003-2.67.764V16l6.4-1.832V1.674H16V.604H7.144zM15 13.47l-4.4 1.282V3.188L15 1.906V13.47z"/></g></svg>