<svg width="16" height="16" xmlns="http://www.w3.org/2000/svg" viewBox="0 0 16 16" shape-rendering="geometricPrecision" fill="#cb1800"><defs><mask id="a"><rect fill="#fff" width="100%" height="100%"/><path fill="#000" d="M14.934-.397l-2.04 2.036L10.86-.398l-2.472 2.47 4.51 4.51 4.508-4.51z"/></mask></defs><path d="M12.895 3.052l-2.037-2.035L9.8 2.073l3.097 3.096 3.093-3.097-1.057-1.056"/><path d="M2.13 11.885V7.242l2.655 2.654 3.757-3.758 1.98 1.98 3.566-3.564-.92-.92-2.645 2.642-1.06-1.06.01-.008-.92-.92-3.77 3.765L2.14 5.41l-.01.01V3.74H1.038v9.242l.797-.002v.002h13.13v-1.095" mask="url(#a)"/></svg>