<?xml version="1.0"?><!DOCTYPE svg PUBLIC "-//W3C//DTD SVG 1.1//EN" "http://www.w3.org/Graphics/SVG/1.1/DTD/svg11.dtd"><svg width="16px" height="16px" xmlns="http://www.w3.org/2000/svg" viewBox="0 0 16 16" shape-rendering="geometricPrecision" fill="#cb1800"><defs><mask id="move_down-path"><rect fill="#fff" width="100%" height="100%"/><polygon points="14.934,-0.397 12.895,1.639 10.858,-0.397 8.386,2.073 12.897,6.583 17.404,2.073 " fill="#000"/></mask></defs><polygon points="12.895,3.052 10.858,1.017 9.8,2.073 12.897,5.169 15.99,2.073 14.933,1.017 " fill="#cb1800"/><g mask="url(#move_down-path)"><g><g><path d="M12.127,5.803L9.186,8.742c0.373,0.336,0.612,0.818,0.612,1.359c0,1.015-0.822,1.838-1.837,1.838 s-1.837-0.823-1.837-1.838c0-0.561,0.256-1.056,0.652-1.393L3.834,5.765C2.688,6.857,1.97,8.394,1.97,10.102 c0,3.309,2.682,5.991,5.991,5.991c3.309,0,5.991-2.683,5.991-5.991C13.951,8.413,13.25,6.891,12.127,5.803z"/></g><path d="M4.004,0L1.929,2.076l6.068,6.073l6.075-6.073L11.998,0L8.001,3.995L4.004,0z"/></g></g></svg>