<?xml version="1.0"?><!DOCTYPE svg PUBLIC "-//W3C//DTD SVG 1.1//EN" "http://www.w3.org/Graphics/SVG/1.1/DTD/svg11.dtd"><svg width="16px" height="16px" xmlns="http://www.w3.org/2000/svg" viewBox="0 0 16 16" shape-rendering="geometricPrecision" fill="#cb1800"><defs><mask id="move_down-path"><rect fill="#fff" width="100%" height="100%"/><polygon points="14.934,-0.397 12.895,1.639 10.858,-0.397 8.386,2.073 12.897,6.583 17.404,2.073 " fill="#000"/></mask></defs><polygon points="12.895,3.052 10.858,1.017 9.8,2.073 12.897,5.169 15.99,2.073 14.933,1.017 " fill="#cb1800"/><g mask="url(#move_down-path)"><g><path d="M14.818,5.818c-0.4-2.076-3.738-2.209-5.541-2.209H6.705c-1.801,0-5.08,0.295-5.514,2.183L1.08,6.527l-0.021,0.54h1.848 C3.673,6.483,4.921,5.864,5.81,5.54c0.436-0.426,1.138-0.576,1.696-0.576H8.53c0.578,0,1.321,0.088,1.753,0.581 c0.877,0.326,2.1,0.943,2.853,1.523h1.799l0.006-0.517L14.818,5.818z"/><path d="M14.082,10.512c0-0.623-0.497-2.442-0.497-2.442c-0.235-0.777-3.503-2.342-4.193-2.342H6.7 c-0.689,0-4.017,1.565-4.252,2.342c0,0-0.497,1.819-0.497,2.442c0,0.488-0.004,1.445-0.004,1.445h4.22h3.698h4.22 C14.085,11.957,14.082,11,14.082,10.512z M8,10.935c-1.161,0-2.102-0.941-2.102-2.102C5.898,7.671,6.839,6.73,8,6.73 c1.161,0,2.102,0.941,2.102,2.102C10.102,9.993,9.161,10.935,8,10.935z"/></g></g></svg>