<svg width="16" height="16" xmlns="http://www.w3.org/2000/svg" viewBox="0 0 16 16" shape-rendering="geometricPrecision" fill="#6e6e6e"><defs><mask id="a"><rect fill="#fff" width="100%" height="100%"/><path d="M17.514 2.67l-.862-.55L16.65-1h-2.866v.558c-1.334-.3-2.758.103-3.723 1.067-1.568 1.57-1.553 4.14.036 5.732.78.777 1.81 1.205 2.9 1.205 1.072 0 2.078-.415 2.832-1.168C16.585 5.64 17 4.63 17 3.557V2.67h.514zm-3.373.888c0 .22-.057.54-.332.813-.443.444-1.23.427-1.69-.034-.475-.475-.49-1.234-.036-1.69.01-.01.02-.02.033-.03v.922h2.026v.02z" fill="#000"/></mask></defs><path d="M13.114 2.537h2.538V0h-.868v1.105c-1.204-.927-2.924-.863-4.016.227-1.187 1.188-1.162 3.12.035 4.317 1.2 1.197 3.13 1.223 4.32.036.584-.584.878-1.357.877-2.128h-.86c0 .558-.207 1.103-.626 1.522-.843.842-2.23.836-3.104-.036-.87-.872-.877-2.26-.035-3.105.73-.728 1.86-.82 2.72-.27h-.982v.867z" fill="#cb1800"/><path d="M12.42 2.295H3.57c-1.395 0-2.527 1.133-2.53 2.528V9.76c.003 1.395 1.135 2.527 2.53 2.53h.196c-.097.4-.325.844-.828 1.303L1.368 15l2.084-.32c2.36-.373 3.82-1.795 4.344-2.39h4.625c1.398-.003 2.528-1.136 2.53-2.53V4.823c-.002-1.395-1.132-2.528-2.53-2.528zm1.273 7.465c0 .696-.577 1.272-1.272 1.274H7.19l-.188.25c-.033.05-.784 1.016-2.124 1.657.153-.42.21-.83.207-1.187v-.108l-.02-.61H3.57c-.695-.002-1.272-.578-1.272-1.274V4.824c0-.698.577-1.272 1.272-1.273h8.853c.697.002 1.273.575 1.273 1.273V9.76zM4.85 6.242c-.64 0-1.156.518-1.156 1.156 0 .637.517 1.155 1.155 1.155.637 0 1.155-.52 1.155-1.155 0-.638-.518-1.156-1.156-1.156zm3.145 0c-.638 0-1.157.518-1.157 1.156 0 .637.52 1.155 1.157 1.155s1.155-.52 1.155-1.155c0-.638-.518-1.156-1.155-1.156zm3.145 0c-.637 0-1.156.518-1.156 1.156 0 .637.52 1.155 1.156 1.155.64 0 1.155-.52 1.155-1.155 0-.638-.517-1.156-1.155-1.156z" mask="url(#a)"/></svg>