<svg width="16" height="16" xmlns="http://www.w3.org/2000/svg" viewBox="0 0 16 16" shape-rendering="geometricPrecision" fill="#6e6e6e"><defs><mask id="a"><rect fill="#fff" width="100%" height="100%"/><path d="M17.514 2.67l-.862-.55L16.65-1h-2.866v.558c-1.334-.3-2.758.103-3.723 1.067-1.568 1.57-1.553 4.14.036 5.732.78.777 1.81 1.205 2.9 1.205 1.072 0 2.078-.415 2.832-1.168C16.585 5.64 17 4.63 17 3.557V2.67h.514zm-3.373.888c0 .22-.057.54-.332.813-.443.444-1.23.427-1.69-.034-.475-.475-.49-1.234-.036-1.69.01-.01.02-.02.033-.03v.922h2.026v.02z" fill="#000"/></mask></defs><path d="M13.114 2.537h2.538V0h-.868v1.105c-1.204-.927-2.924-.863-4.016.227-1.187 1.188-1.162 3.12.035 4.317 1.2 1.197 3.13 1.223 4.32.036.584-.584.878-1.357.877-2.128h-.86c0 .558-.207 1.103-.626 1.522-.843.842-2.23.836-3.104-.036-.87-.872-.877-2.26-.035-3.105.73-.728 1.86-.82 2.72-.27h-.982v.867z" fill="#cb1800"/><g mask="url(#a)"><path d="M8.004 1.01C4.142 1.01 1.01 4.144 1.01 8.01c.003 3.86 3.132 6.99 6.994 6.99C11.867 15 15 11.87 15 8.01c0-3.865-3.133-6.997-6.996-6.997zm0 12.576c-3.08-.008-5.572-2.5-5.578-5.578.006-3.084 2.498-5.576 5.578-5.582 3.082.006 5.573 2.498 5.58 5.582-.007 3.08-2.5 5.57-5.58 5.578z"/><path d="M3.904 8.345h.726s-.023-.2-.023-.353c0-.127.023-.373.023-.373h-.726v-.9h.877c.504-1.755 2.07-3.006 4-3.006.62 0 1.157.152 1.157.152l-.363 1.368s-.396-.117-.83-.117c-1.11 0-1.975.62-2.35 1.602h2.91l-.185.9H6.185s-.025.175-.025.35c0 .13.037.375.037.375h2.78l-.174.888H6.465c.362.993 1.263 1.637 2.338 1.637.607 0 1.124-.176 1.124-.176l.268 1.38s-.61.222-1.415.222c-2 0-3.52-1.25-3.998-3.062h-.878v-.89z"/></g></svg>