<svg width="16" height="16" xmlns="http://www.w3.org/2000/svg" viewBox="0 0 16 16" shape-rendering="geometricPrecision" fill="#6e6e6e"><defs><mask id="a"><rect fill="#fff" width="100%" height="100%"/><path d="M17.514 2.67l-.862-.55L16.65-1h-2.866v.558c-1.334-.3-2.758.103-3.723 1.067-1.568 1.57-1.553 4.14.036 5.732.78.777 1.81 1.205 2.9 1.205 1.072 0 2.078-.415 2.832-1.168C16.585 5.64 17 4.63 17 3.557V2.67h.514zm-3.373.888c0 .22-.057.54-.332.813-.443.444-1.23.427-1.69-.034-.475-.475-.49-1.234-.036-1.69.01-.01.02-.02.033-.03v.922h2.026v.02z" fill="#000"/></mask></defs><path d="M13.114 2.537h2.538V0h-.868v1.105c-1.204-.927-2.924-.863-4.016.227-1.187 1.188-1.162 3.12.035 4.317 1.2 1.197 3.13 1.223 4.32.036.584-.584.878-1.357.877-2.128h-.86c0 .558-.207 1.103-.626 1.522-.843.842-2.23.836-3.104-.036-.87-.872-.877-2.26-.035-3.105.73-.728 1.86-.82 2.72-.27h-.982v.867z" fill="#cb1800"/><g mask="url(#a)"><path d="M6.394 4.686h.844v.844h-.844zM7.238 5.53h.844v.843h-.844zM6.394 6.373h.844v.845h-.844zM7.238 7.218h.844v.844h-.844zM6.394 8.06h.844v.845h-.844zM7.238 8.905h.844v.844h-.844zM6.394 9.75h.844v.844h-.844zM6.394 11.437h.844v.844h-.844zM6.394 13.126h.844v.844h-.844zM6.374 2.18h1.71v1.66h-1.71z"/><path d="M6.886 5.904c.31-.81.31-.81.535-1.403.125-.325.003-.704-.307-.89-.31-.186-.703-.115-.932.15L5.196 4.89c-.037.045-.072.09-.103.143-.283.475-.13 1.088.345 1.373.474.284 1.09.128 1.373-.345.03-.05.056-.105.076-.16zm-.36-1.316c-.192-.115-.253-.364-.138-.557.115-.19.363-.253.555-.137.192.115.255.362.14.556-.115.19-.364.25-.556.138z"/><path d="M7.238 3.84h.844v.846h-.844zM10.055 14.302l2.54-2.338h-2.54"/><path d="M2.595 1.016v13.97h6.008v-4.47h4.802v-9.5H2.595zm9.44 8.027h-4.79v4.6H3.916V2.32h8.116v6.725z"/></g></svg>