<svg width="16" height="16" xmlns="http://www.w3.org/2000/svg" viewBox="0 0 16 16" shape-rendering="geometricPrecision" fill="#6e6e6e"><defs><mask id="a"><rect fill="#fff" width="100%" height="100%"/><path d="M17.514 2.67l-.862-.55L16.65-1h-2.866v.558c-1.334-.3-2.758.103-3.723 1.067-1.568 1.57-1.553 4.14.036 5.732.78.777 1.81 1.205 2.9 1.205 1.072 0 2.078-.415 2.832-1.168C16.585 5.64 17 4.63 17 3.557V2.67h.514zm-3.373.888c0 .22-.057.54-.332.813-.443.444-1.23.427-1.69-.034-.475-.475-.49-1.234-.036-1.69.01-.01.02-.02.033-.03v.922h2.026v.02z" fill="#000"/></mask></defs><path d="M13.114 2.537h2.538V0h-.868v1.105c-1.204-.927-2.924-.863-4.016.227-1.187 1.188-1.162 3.12.035 4.317 1.2 1.197 3.13 1.223 4.32.036.584-.584.878-1.357.877-2.128h-.86c0 .558-.207 1.103-.626 1.522-.843.842-2.23.836-3.104-.036-.87-.872-.877-2.26-.035-3.105.73-.728 1.86-.82 2.72-.27h-.982v.867z" fill="#cb1800"/><g mask="url(#a)"><path d="M14.186 9.847c0 .756-.626 1.38-1.38 1.384h-5.68l-.205.272c-.035.055-.852 1.103-2.305 1.798.166-.458.23-.9.225-1.29 0-.026 0-.065-.002-.118l-.018-.662H3.195c-.755-.003-1.38-.628-1.38-1.384V4.49c0-.76.625-1.383 1.38-1.385h9.61c.755.002 1.38.625 1.38 1.384v5.357z"/><path d="M12.455 2.215h-8.91C2.14 2.215 1.002 3.355 1 4.76v4.968c.002 1.402 1.142 2.543 2.545 2.544h.198c-.097.406-.327.85-.833 1.312L1.333 15l2.097-.32c2.375-.377 3.844-1.81 4.372-2.408h4.654C13.86 12.272 15 11.13 15 9.728V4.76c-.002-1.405-1.14-2.545-2.545-2.545zm1.28 7.513c0 .7-.58 1.28-1.28 1.28H7.19l-.19.254c-.033.05-.79 1.02-2.137 1.666.153-.425.21-.836.208-1.194v-.11l-.018-.614H3.545c-.7 0-1.28-.58-1.28-1.28V4.76c0-.703.58-1.28 1.28-1.282h8.91c.7.002 1.28.58 1.28 1.282v4.968z"/></g></svg>