<svg width="16" height="16" xmlns="http://www.w3.org/2000/svg" viewBox="0 0 16 16" shape-rendering="geometricPrecision" fill="#6e6e6e"><defs><mask id="a"><rect fill="#fff" width="100%" height="100%"/><path d="M17.514 2.67l-.862-.55L16.65-1h-2.866v.558c-1.334-.3-2.758.103-3.723 1.067-1.568 1.57-1.553 4.14.036 5.732.78.777 1.81 1.205 2.9 1.205 1.072 0 2.078-.415 2.832-1.168C16.585 5.64 17 4.63 17 3.557V2.67h.514zm-3.373.888c0 .22-.057.54-.332.813-.443.444-1.23.427-1.69-.034-.475-.475-.49-1.234-.036-1.69.01-.01.02-.02.033-.03v.922h2.026v.02z" fill="#000"/></mask></defs><path d="M13.114 2.537h2.538V0h-.868v1.105c-1.204-.927-2.924-.863-4.016.227-1.187 1.188-1.162 3.12.035 4.317 1.2 1.197 3.13 1.223 4.32.036.584-.584.878-1.357.877-2.128h-.86c0 .558-.207 1.103-.626 1.522-.843.842-2.23.836-3.104-.036-.87-.872-.877-2.26-.035-3.105.73-.728 1.86-.82 2.72-.27h-.982v.867z" fill="#cb1800"/><g mask="url(#a)"><path d="M15.002 12.385H.998v.83h.85l.65.804h11.08l.65-.806H15M7.325 8.637c-.804-.537-1.6-.875-2.117-.797l-1.04-.862c.15-.19.124-.472-.064-.625-.192-.16-.475-.13-.633.058-.106.132-.122.305-.062.45-.157-.028-.324.018-.432.15-.157.19-.13.472.06.63.184.153.45.13.61-.04l1.027.848c-.004.52.49 1.252 1.173 1.976.87.922 1.854 1.393 2.524.582.65-.785.03-1.656-1.045-2.37z"/><path d="M9.77 8.43c1.32 0 2.398.926 2.398 2.064 0 1.14-1.075 2.066-2.397 2.066-2.07 0-5.646-.486-6.204-1.09-.01-.027-.013-.084.042-.197.224-.478 1.062-1.12 2.175-1.375.304-.067.607-.103.904-.103.062 0 .124.002.186.005l.552.027.33-.444c.445-.598 1.2-.953 2.016-.953m0-1.036c-1.186 0-2.23.545-2.846 1.37-.077 0-.157-.004-.237-.004-.365 0-.747.043-1.134.13-1.89.43-3.495 1.896-2.902 3.07.706 1.396 6.388 1.636 7.122 1.636 1.897 0 3.432-1.39 3.432-3.102 0-1.713-1.537-3.1-3.433-3.1zM8.25 6.97l-.377-.36c.03-.028.732-.82-.033-2.096-.817-1.364-.023-2.487.012-2.534l.42.3c-.026.038-.626.905.01 1.967.973 1.624.01 2.677-.033 2.722z"/><path d="M7.214 6.97l-.377-.36c.03-.028.733-.82-.033-2.094-.816-1.366-.022-2.49.013-2.536l.42.3c-.027.038-.625.905.01 1.967.973 1.624.008 2.677-.033 2.722zM9.284 6.97l-.376-.36c.027-.028.73-.82-.033-2.097-.817-1.363-.023-2.486.012-2.533l.418.3c-.026.038-.623.905.013 1.967.973 1.624.008 2.677-.034 2.722z"/></g></svg>