<svg width="16" height="16" xmlns="http://www.w3.org/2000/svg" viewBox="0 0 16 16" shape-rendering="geometricPrecision" fill="#6e6e6e"><defs><mask id="a"><rect fill="#fff" width="100%" height="100%"/><path d="M17.514 2.67l-.862-.55L16.65-1h-2.866v.558c-1.334-.3-2.758.103-3.723 1.067-1.568 1.57-1.553 4.14.036 5.732.78.777 1.81 1.205 2.9 1.205 1.072 0 2.078-.415 2.832-1.168C16.585 5.64 17 4.63 17 3.557V2.67h.514zm-3.373.888c0 .22-.057.54-.332.813-.443.444-1.23.427-1.69-.034-.475-.475-.49-1.234-.036-1.69.01-.01.02-.02.033-.03v.922h2.026v.02z" fill="#000"/></mask></defs><path d="M13.114 2.537h2.538V0h-.868v1.105c-1.204-.927-2.924-.863-4.016.227-1.187 1.188-1.162 3.12.035 4.317 1.2 1.197 3.13 1.223 4.32.036.584-.584.878-1.357.877-2.128h-.86c0 .558-.207 1.103-.626 1.522-.843.842-2.23.836-3.104-.036-.87-.872-.877-2.26-.035-3.105.73-.728 1.86-.82 2.72-.27h-.982v.867z" fill="#cb1800"/><path d="M1.98 7.695c0-2.574 2.087-4.66 4.662-4.66v-1.98c-3.665 0-6.64 2.976-6.64 6.64V7.7h1.977v-.003zm6.33 4.157c1.376 0 2.493-1.118 2.493-2.494 0-1.377-1.117-2.492-2.492-2.492V9.36H5.815c.002 1.375 1.12 2.492 2.497 2.492zm0-9.134v1.978c2.573 0 4.662 2.087 4.662 4.662 0 2.576-2.09 4.663-4.66 4.663-2.576 0-4.665-2.085-4.666-4.66H1.668C1.67 13.027 4.645 16 8.31 16c3.663 0 6.64-2.973 6.64-6.64-.002-3.665-2.976-6.64-6.64-6.64z" mask="url(#a)"/></svg>