<?xml version="1.0"?><!DOCTYPE svg PUBLIC "-//W3C//DTD SVG 1.1//EN" "http://www.w3.org/Graphics/SVG/1.1/DTD/svg11.dtd"><svg width="16px" height="16px" xmlns="http://www.w3.org/2000/svg" viewBox="0 0 16 16" shape-rendering="geometricPrecision" fill="#6e6e6e"><defs><mask id="refresh-path"><rect fill="#fff" width="100%" height="100%"/><path d="M17.514,2.671l-0.862-0.552L16.65-1h-2.866v0.558c-1.334-0.3-2.758,0.103-3.723,1.067 c-1.569,1.569-1.554,4.141,0.035,5.732c0.779,0.777,1.809,1.205,2.901,1.205c1.071,0,2.077-0.415,2.831-1.168 C16.585,5.639,17.001,4.631,17,3.557l0-0.886H17.514z M14.141,3.558c0,0.22-0.058,0.539-0.333,0.813 c-0.443,0.443-1.23,0.426-1.69-0.035c-0.475-0.475-0.49-1.234-0.036-1.689c0.011-0.011,0.021-0.022,0.033-0.031l0,0.922h2.026 V3.558z" fill="#000"/></mask></defs><path display="inline" d="M13.114,2.537h2.538L15.651,0h-0.867v1.105 c-1.204-0.927-2.924-0.863-4.016,0.227C9.581,2.52,9.606,4.451,10.803,5.649c1.201,1.198,3.131,1.224,4.319,0.037 C15.707,5.102,16.001,4.329,16,3.558l-0.859,0.001c-0.001,0.557-0.208,1.102-0.627,1.521c-0.843,0.842-2.231,0.836-3.104-0.036 c-0.871-0.872-0.877-2.26-0.035-3.105c0.729-0.727,1.86-0.818,2.721-0.268h-0.983L13.114,2.537z" fill="#cb1800"/><g mask="url(#refresh-path)"><path d="M11.348,7.312c0.788,0.008,1.464,0.478,1.779,1.146V4.747H9.053c0.633-0.329,1.073-0.974,1.081-1.737 c0.011-1.1-0.87-2-1.97-2.011c-1.1-0.011-2.001,0.872-2.012,1.971C6.143,3.745,6.585,4.411,7.229,4.747H2.873v10.254h2.951 c-0.644-0.336-1.085-1.013-1.077-1.788c0.011-1.101,0.912-1.982,2.011-1.972c1.1,0.011,1.982,0.912,1.971,2.013 c-0.008,0.763-0.449,1.419-1.083,1.747h5.481v-4.845c-0.323,0.679-1.02,1.146-1.82,1.137c-1.101-0.01-1.983-0.91-1.972-2.01 C9.346,8.183,10.248,7.301,11.348,7.312z"/></g></svg>