<svg width="16" height="16" xmlns="http://www.w3.org/2000/svg" viewBox="0 0 16 16" shape-rendering="geometricPrecision" fill="#6e6e6e"><defs><mask id="a"><rect fill="#fff" width="100%" height="100%"/><path d="M17.514 2.67l-.862-.55L16.65-1h-2.866v.558c-1.334-.3-2.758.103-3.723 1.067-1.568 1.57-1.553 4.14.036 5.732.78.777 1.81 1.205 2.9 1.205 1.072 0 2.078-.415 2.832-1.168C16.585 5.64 17 4.63 17 3.557V2.67h.514zm-3.373.888c0 .22-.057.54-.332.813-.443.444-1.23.427-1.69-.034-.475-.475-.49-1.234-.036-1.69.01-.01.02-.02.033-.03v.922h2.026v.02z" fill="#000"/></mask></defs><path d="M13.114 2.537h2.538V0h-.868v1.105c-1.204-.927-2.924-.863-4.016.227-1.187 1.188-1.162 3.12.035 4.317 1.2 1.197 3.13 1.223 4.32.036.584-.584.878-1.357.877-2.128h-.86c0 .558-.207 1.103-.626 1.522-.843.842-2.23.836-3.104-.036-.87-.872-.877-2.26-.035-3.105.73-.728 1.86-.82 2.72-.27h-.982v.867z" fill="#cb1800"/><path mask="url(#a)" d="M13.053 8.004c.064-.324.1-.657.1-1 0-2.86-2.317-5.18-5.18-5.18-2.856 0-5.177 2.32-5.177 5.178h1.54C4.34 4.995 5.97 3.365 7.975 3.365c2.01 0 3.64 1.63 3.64 3.64 0 .35-.066.68-.158 1h-1.82c.177-.294.285-.634.285-1 0-1.075-.872-1.947-1.946-1.947S6.03 5.93 6.03 7.004c0 .367.107.707.284 1H.958v5.482h14.084V8.004h-1.99zm-1.676 2.74H4.622v-1.46h6.755v1.46z"/></svg>