<?xml version="1.0"?><!DOCTYPE svg PUBLIC "-//W3C//DTD SVG 1.1//EN" "http://www.w3.org/Graphics/SVG/1.1/DTD/svg11.dtd"><svg xmlns="http://www.w3.org/2000/svg" viewBox="0 0 16 16" shape-rendering="geometricPrecision" fill="#6e6e6e"><defs><mask id="pause-path"><rect fill="#fff" width="100%" height="100%"/><polygon points="13.135,-1 12.45,-1 9.585,-1 9.585,6.956 12.45,6.956 13.135,6.956 16,6.956 16,-1 " fill="#000"/></mask></defs><g fill="#cb1800"><g><rect x="10.585" y="0" width="1.55" height="5.956"/></g><g><rect x="13.45" y="0" width="1.55" height="5.956"/></g></g><g mask="url(#pause-path)"><g><g><g><g><path d="M1.001,8.003c0-3.868,3.134-7.002,7-7.002l0,0V1.71v0.707c-3.083,0.006-5.578,2.5-5.584,5.586l0,0 c0.007,3.08,2.501,5.574,5.584,5.58l0,0c3.083-0.006,5.576-2.5,5.583-5.58l0,0c-0.006-3.086-2.5-5.58-5.583-5.586l0,0V1.71 V1.001c3.865,0,6.998,3.134,6.998,7.002l0,0c-0.001,3.863-3.133,6.994-6.998,6.996l0,0C4.135,14.997,1.001,11.866,1.001,8.003 L1.001,8.003z"/></g></g></g><polygon points="8.463,8.001 5.542,10.923 7.059,12.437 11.497,7.997 7.06,3.563 5.542,5.08"/></g></g></svg>
