<?xml version="1.0"?><!DOCTYPE svg PUBLIC "-//W3C//DTD SVG 1.1//EN" "http://www.w3.org/Graphics/SVG/1.1/DTD/svg11.dtd"><svg xmlns="http://www.w3.org/2000/svg" viewBox="0 0 16 16" shape-rendering="geometricPrecision" fill="#6e6e6e"><defs><mask id="pause-path"><rect fill="#fff" width="100%" height="100%"/><polygon points="13.135,-1 12.45,-1 9.585,-1 9.585,6.956 12.45,6.956 13.135,6.956 16,6.956 16,-1 " fill="#000"/></mask></defs><g fill="#cb1800"><g><rect x="10.585" y="0" width="1.55" height="5.956"/></g><g><rect x="13.45" y="0" width="1.55" height="5.956"/></g></g><g mask="url(#pause-path)"><g><path d="M4.974,12.78h6.022c0.786,0,1.423-0.637,1.423-1.423V3.912c0-0.786-0.15-1.238-0.921-1.423 c-0.496-0.122-1.537-0.415-2.913-0.486V1.604h1.066c0.162,0,0.294-0.132,0.294-0.294c0-0.163-0.132-0.294-0.294-0.294H6.318 c-0.162,0-0.294,0.132-0.294,0.294c0,0.162,0.132,0.294,0.294,0.294h1.066v0.391C5.628,2.041,5.132,2.289,4.472,2.489 C3.72,2.717,3.551,3.126,3.551,3.912v7.445C3.551,12.143,4.188,12.78,4.974,12.78z M5.882,11.412 c-0.337,0-0.604-0.253-0.65-0.577c-0.033,0.004-0.065,0.01-0.099,0.01c-0.447,0-0.81-0.363-0.81-0.81s0.363-0.81,0.81-0.81 s0.81,0.363,0.81,0.81c0,0.018-0.004,0.034-0.005,0.052c0.342,0.03,0.613,0.308,0.613,0.657 C6.55,11.112,6.251,11.412,5.882,11.412z M10.77,10.844c-0.037,0-0.072-0.005-0.107-0.01c-0.046,0.324-0.313,0.577-0.65,0.577 c-0.369,0-0.668-0.299-0.668-0.668c0-0.349,0.271-0.627,0.612-0.657c-0.001-0.015-0.005-0.029-0.005-0.044 c-0.004-0.447,0.355-0.813,0.803-0.818c0.447-0.004,0.813,0.355,0.817,0.803C11.577,10.474,11.218,10.84,10.77,10.844z M4.303,4.826c0-0.786,0.164-1.212,0.921-1.423C5.805,3.242,6.793,3.08,8.028,3.08c1.074,0,2.122,0.182,2.704,0.324 c0.764,0.186,0.921,0.637,0.921,1.423l-0.019,0.06c0.008,0.061,0.019,0.121,0.019,0.183l-0.182,1.618 c0,0.786-0.164,1.212-0.921,1.423C9.969,8.273,9.163,8.435,7.928,8.435c-1.074,0-1.909-0.182-2.491-0.324 C4.673,7.925,4.516,7.473,4.516,6.688L4.303,5.069c0-0.063,0.011-0.123,0.019-0.183L4.303,4.826z"/><polygon points="3.463,14.94 6.011,14.94 6.011,13.113 4.969,13.113"/><polygon points="11.031,13.113 9.989,13.113 9.989,14.94 12.537,14.94"/></g></g></svg>
