<?xml version="1.0"?><!DOCTYPE svg PUBLIC "-//W3C//DTD SVG 1.1//EN" "http://www.w3.org/Graphics/SVG/1.1/DTD/svg11.dtd"><svg width="16px" height="16px" xmlns="http://www.w3.org/2000/svg" viewBox="0 0 16 16" shape-rendering="geometricPrecision" fill="#6e6e6e"><defs><mask id="pause-path"><rect fill="#fff" width="100%" height="100%"/><polygon points="13.135,-1 12.45,-1 9.585,-1 9.585,6.956 12.45,6.956 13.135,6.956 16,6.956 16,-1 " fill="#000"/></mask></defs><g fill="#cb1800"><g><rect x="10.585" y="0" width="1.55" height="5.956"/></g><g><rect x="13.45" y="0" width="1.55" height="5.956"/></g></g><g mask="url(#pause-path)"><g><path d="M6.867,9.283c1.382,0,2.497-1.115,2.497-2.495c0-1.378-1.114-2.494-2.497-2.494c-1.377,0-2.496,1.116-2.496,2.494 C4.372,8.168,5.49,9.283,6.867,9.283z M9.186,10.469H4.541c-1.323,0-2.398,1.082-2.398,2.404V16h9.45v-3.127 C11.593,11.551,10.509,10.469,9.186,10.469z"/></g><path d="M7.641,0v1.125c1.349,0,2.564,0.545,3.448,1.428c0.883,0.885,1.428,2.1,1.428,3.449h1.125 C13.642,2.688,10.956,0.001,7.641,0z M7.641,2.025v1.122c1.575,0.004,2.849,1.279,2.852,2.855h1.125 C11.618,3.805,9.837,2.025,7.641,2.025z"/></g></svg>