<svg width="16" height="16" xmlns="http://www.w3.org/2000/svg" viewBox="0 0 16 16" shape-rendering="geometricPrecision" fill="#cb1800"><defs><mask id="a"><rect fill="#fff" width="100%" height="100%"/><path d="M13.848-1.1L12.05.695l.287.287c-1.812.575-3.107 2.263-3.107 4.254v.987h2.626v-.988c0-.49.19-.954.538-1.302l.03-.03 1.425 1.42 3.21-3.212L13.85-1.1z" fill="#000"/></mask></defs><path d="M13.848-.04l-.736.735.82.82H13.7l-.157.01c-1.978.083-3.563 1.713-3.563 3.71v.237h1.126v-.237c0-.69.27-1.343.76-1.833s1.14-.76 1.832-.76h.3l-.886.888.735.734L16 2.11 13.848-.04z"/><path d="M14.085 1.94c2.48 2.476 2.478 6.488.002 8.964-2.15 2.153-5.458 2.432-7.916.847h-.008v2.126l-.013.014H4.02v2.123H.012V12h.01l-.002-.006L3.594 8.42c-.73-2.204-.226-4.73 1.528-6.48 2.476-2.477 6.488-2.477 8.963 0zm-3.928 3.927c.78.78 2.043.78 2.824.002.78-.78.78-2.044 0-2.824-.78-.78-2.04-.78-2.822 0-.78.78-.78 2.044 0 2.82z" mask="url(#a)"/></svg>