<svg width="16" height="16" xmlns="http://www.w3.org/2000/svg" viewBox="0 0 16 16" shape-rendering="geometricPrecision" fill="#cb1800"><defs><mask id="a"><rect fill="#fff" width="100%" height="100%"/><path d="M13.848-1.1L12.05.695l.287.287c-1.812.575-3.107 2.263-3.107 4.254v.987h2.626v-.988c0-.49.19-.954.538-1.302l.03-.03 1.425 1.42 3.21-3.212L13.85-1.1z" fill="#000"/></mask></defs><path d="M13.848-.04l-.736.735.82.82H13.7l-.157.01c-1.978.083-3.563 1.713-3.563 3.71v.237h1.126v-.237c0-.69.27-1.343.76-1.833s1.14-.76 1.832-.76h.3l-.886.888.735.734L16 2.11 13.848-.04z"/><g mask="url(#a)"><path d="M1 8.003C1 4.135 4.136 1 8 1V2.418c-3.082.006-5.577 2.5-5.583 5.586.007 3.08 2.5 5.574 5.584 5.58 3.084-.006 5.577-2.5 5.584-5.58-.006-3.086-2.5-5.58-5.583-5.586V1c3.866 0 7 3.135 7 7.003-.002 3.863-3.134 6.994-7 6.996-3.865-.003-7-3.134-7-6.997z"/><path d="M8.463 8l-2.92 2.923 1.516 1.514 4.437-4.44L7.06 3.563 5.542 5.08"/></g></svg>