<?xml version="1.0"?><!DOCTYPE svg PUBLIC "-//W3C//DTD SVG 1.1//EN" "http://www.w3.org/Graphics/SVG/1.1/DTD/svg11.dtd"><svg xmlns="http://www.w3.org/2000/svg" viewBox="0 0 16 16" shape-rendering="geometricPrecision" fill="#abb7ce"><defs><mask id="accept-path"><rect fill="#fff" width="100%" height="100%"/><polygon points="14.671,-1.414 11.443,1.813 9.753,0.123 7.012,2.866 11.445,7.299 17.414,1.329 " fill="#000"/></mask></defs><polygon points="16,1.33 14.671,0 11.443,3.228 9.753,1.539 8.426,2.867 11.445,5.886 " fill="#cb1800"/><g mask="url(#accept-path)"><polygon points="0,5.121 3.176,8.302 0,11.479 1.651,13.131 6.48,8.298 1.651,3.473"/><path d="M7.144,0.605v14.096h1.067V1.671l4.057,0.002l-2.67,0.764v13.562l6.399-1.831V1.674H16V0.605H7.144z M15,13.47l-4.4,1.282V3.188L15,1.906V13.47z"/></g></svg>
