<?xml version="1.0"?><!DOCTYPE svg PUBLIC "-//W3C//DTD SVG 1.1//EN" "http://www.w3.org/Graphics/SVG/1.1/DTD/svg11.dtd"><svg width="16px" height="16px" xmlns="http://www.w3.org/2000/svg" viewBox="0 0 16 16" shape-rendering="geometricPrecision" fill="#abb7ce"><defs><mask id="accept-path"><rect fill="#fff" width="100%" height="100%"/><polygon points="14.671,-1.414 11.443,1.813 9.753,0.123 7.012,2.866 11.445,7.299 17.414,1.329 " fill="#000"/></mask></defs><polygon points="16,1.33 14.671,0 11.443,3.228 9.753,1.539 8.426,2.867 11.445,5.886 " fill="#cb1800"/><g mask="url(#accept-path)"><g><g><path d="M8,1.011c-3.859,0-6.989,3.13-6.989,6.991c0,3.857,3.129,6.986,6.989,6.986c3.859,0,6.989-3.129,6.989-6.986 C14.989,4.141,11.859,1.011,8,1.011z M10.732,11.246L9.047,12.93L4.116,7.997l4.93-4.928l1.686,1.686L7.486,8L10.732,11.246z"/></g></g></g></svg>