<?xml version="1.0"?><!DOCTYPE svg PUBLIC "-//W3C//DTD SVG 1.1//EN" "http://www.w3.org/Graphics/SVG/1.1/DTD/svg11.dtd"><svg width="16px" height="16px" xmlns="http://www.w3.org/2000/svg" viewBox="0 0 16 16" shape-rendering="geometricPrecision" fill="#abb7ce"><defs><mask id="accept-path"><rect fill="#fff" width="100%" height="100%"/><polygon points="14.671,-1.414 11.443,1.813 9.753,0.123 7.012,2.866 11.445,7.299 17.414,1.329 " fill="#000"/></mask></defs><polygon points="16,1.33 14.671,0 11.443,3.228 9.753,1.539 8.426,2.867 11.445,5.886 " fill="#cb1800"/><g mask="url(#accept-path)"><path d="M11.348,7.312c0.788,0.008,1.464,0.478,1.779,1.146V4.747H9.053c0.633-0.329,1.073-0.974,1.081-1.737 c0.011-1.1-0.87-2-1.97-2.011c-1.1-0.011-2.001,0.872-2.012,1.971C6.143,3.745,6.585,4.411,7.229,4.747H2.873v10.254h2.951 c-0.644-0.336-1.085-1.013-1.077-1.788c0.011-1.101,0.912-1.982,2.011-1.972c1.1,0.011,1.982,0.912,1.971,2.013 c-0.008,0.763-0.449,1.419-1.083,1.747h5.481v-4.845c-0.323,0.679-1.02,1.146-1.82,1.137c-1.101-0.01-1.983-0.91-1.972-2.01 C9.346,8.183,10.248,7.301,11.348,7.312z"/></g></svg>