<?xml version="1.0"?><!DOCTYPE svg PUBLIC "-//W3C//DTD SVG 1.1//EN" "http://www.w3.org/Graphics/SVG/1.1/DTD/svg11.dtd"><svg xmlns="http://www.w3.org/2000/svg" viewBox="0 0 16 16" shape-rendering="geometricPrecision" fill="#fff"><defs><mask id="move_up-path"><rect fill="#fff" width="100%" height="100%"/><polygon points="12.892,-0.396 8.385,4.114 10.856,6.585 12.894,4.549 14.931,6.584 17.404,4.114 " fill="#000"/></mask></defs><polygon points="12.894,3.136 14.931,5.171 15.989,4.114 12.892,1.018 9.799,4.114 10.856,5.171 " fill="#cb1800"/><g mask="url(#move_up-path)"><g><path d="M8.036,3.658c1.012,0,1.83-0.822,1.83-1.828C9.866,0.818,9.048,0,8.036,0S6.204,0.818,6.204,1.83 C6.204,2.836,7.024,3.658,8.036,3.658z M9.841,14.187V5.531H4.36v1.361h1.797v7.295H4.354V16h7.291v-1.813H9.841z"/></g></g></svg>
