<svg width="16" height="16" xmlns="http://www.w3.org/2000/svg" viewBox="0 0 16 16" shape-rendering="geometricPrecision" fill="#fff"><defs><mask id="a"><rect width="100%" height="100%"/><path fill="#000" d="M12.892-.396l-4.507 4.51 2.47 2.47 2.04-2.035 2.036 2.034 2.474-2.47z"/></mask></defs><path fill="#cb1800" d="M12.894 3.136L14.93 5.17l1.06-1.056-3.098-3.096L9.8 4.114l1.056 1.057"/><g mask="url(#a)"><path d="M12.99 8.003c0 2.754-2.234 4.99-4.99 4.99-2.757 0-4.99-2.236-4.99-4.99C3.006 5.246 5.24 3.01 7.997 3.01V.893C4.073.895.89 4.08.89 8.003c0 3.92 3.183 7.104 7.107 7.104 3.92 0 7.107-3.184 7.107-7.104H12.99z"/><path d="M8.94 7.062l.002 3.916h2.035l-.002-5.956-5.95.002-.002 2.035"/></g></svg>