<svg width="16" height="16" xmlns="http://www.w3.org/2000/svg" viewBox="0 0 16 16" shape-rendering="geometricPrecision" fill="#fff"><defs><mask id="a"><rect width="100%" height="100%"/><path fill="#000" d="M12.892-.396l-4.507 4.51 2.47 2.47 2.04-2.035 2.036 2.034 2.474-2.47z"/></mask></defs><path fill="#cb1800" d="M12.894 3.136L14.93 5.17l1.06-1.056-3.098-3.096L9.8 4.114l1.056 1.057"/><path d="M8.41 6.155l6.188.002-.002-6.185h-2.114l-.002 2.695C9.548.404 5.354.555 2.69 3.217c-2.895 2.895-2.832 7.604.086 10.53 2.93 2.918 7.635 2.98 10.533.09 1.424-1.426 2.14-3.31 2.137-5.19h-2.094c0 1.356-.507 2.69-1.525 3.71-2.058 2.05-5.443 2.036-7.572-.09C2.13 10.14 2.12 6.754 4.17 4.698 5.943 2.923 8.71 2.7 10.803 4.04H8.41v2.113z" mask="url(#a)"/></svg>