<svg width="16" height="16" xmlns="http://www.w3.org/2000/svg" viewBox="0 0 16 16" shape-rendering="geometricPrecision" fill="#fff"><defs><mask id="a"><rect width="100%" height="100%"/><path fill="#000" d="M12.892-.396l-4.507 4.51 2.47 2.47 2.04-2.035 2.036 2.034 2.474-2.47z"/></mask></defs><path fill="#cb1800" d="M12.894 3.136L14.93 5.17l1.06-1.056-3.098-3.096L9.8 4.114l1.056 1.057"/><g mask="url(#a)"><path d="M0 8.59h7.405V16H0zM8.555 8.59V16H16V8.59H8.555zm6.297 5.206l-1.063 1.06-1.51-1.503-1.512 1.504-1.064-1.06 1.51-1.503-1.51-1.504 1.064-1.06 1.51 1.506 1.51-1.505 1.064 1.062-1.51 1.502 1.51 1.502z"/><g><path d="M4.276.073v7.41h7.368V.073H4.276zm3.076 6.05L4.96 3.716l1.05-1.06 1.34 1.347 2.56-2.572 1.053 1.06-3.61 3.63z"/></g></g></svg>