<svg width="16" height="16" xmlns="http://www.w3.org/2000/svg" viewBox="0 0 16 16" shape-rendering="geometricPrecision" fill="#fff"><defs><mask id="a"><rect width="100%" height="100%"/><path fill="#000" d="M12.892-.396l-4.507 4.51 2.47 2.47 2.04-2.035 2.036 2.034 2.474-2.47z"/></mask></defs><path fill="#cb1800" d="M12.894 3.136L14.93 5.17l1.06-1.056-3.098-3.096L9.8 4.114l1.056 1.057"/><g mask="url(#a)"><path d="M1.53.555h4.392v4.392H1.53zM9.948 1.278v2.918H7.032V1.278h2.916m.74-.74H6.292v4.394h4.394V.54zM14.73 1.278v2.918h-2.916V1.278h2.916m.738-.74h-4.392v4.394h4.392V.54zM5.185 6.063v2.914H2.27V6.063h2.915m.737-.74H1.53v4.394h4.392V5.323zM6.293 5.31h4.394v4.393H6.293zM11.077 5.31h4.392v4.393h-4.393zM1.53 10.007h4.392V14.4H1.53zM6.293 9.99h4.394v4.395H6.293zM14.73 10.73v2.917h-2.916V10.73h2.916m.738-.74h-4.392v4.395h4.392V9.99z"/></g></svg>