<svg width="16" height="16" xmlns="http://www.w3.org/2000/svg" viewBox="0 0 16 16" shape-rendering="geometricPrecision" fill="#6e6e6e"><defs><mask id="a"><rect fill="#fff" width="100%" height="100%"/><path d="M16.45 1.534c.092-.364-.003-.77-.287-1.066l-.58-.58c-.286-.288-.692-.384-1.065-.29-.194-.328-.552-.55-.962-.552h-.82c-.41 0-.77.223-.963.554-.38-.106-.813.038-1.062.288l-.575.58c-.29.286-.386.697-.292 1.066-.33.194-.55.553-.55.962v.82c0 .41.22.767.548.96-.023.094-.034.19-.034.286.002.263.14.595.325.78l.58.582c.25.248.68.393 1.063.287.194.333.555.556.963.556h.82c.298 0 .588-.12.796-.333.06-.06.112-.134.158-.216.098.025.2.03.3.036.26-.004.588-.144.77-.328l.57-.572c.216-.21.338-.503.336-.803 0-.085-.016-.178-.042-.27.333-.194.556-.553.556-.965v-.82c0-.41-.22-.767-.55-.96z" fill="#000"/></mask></defs><path d="M15.884 2.38h-.177v-.004c-.212.008-.415-.118-.5-.325-.085-.206-.03-.438.123-.585l.126-.126c.044-.045.044-.12 0-.166l-.58-.58c-.045-.046-.118-.046-.165 0l-.124.126c-.147.152-.378.21-.586.12-.206-.086-.332-.288-.326-.5V.163c0-.065-.053-.117-.118-.117h-.82c-.062 0-.116.053-.115.117V.34c.006.213-.118.415-.325.502-.208.086-.44.03-.585-.122l-.126-.126c-.045-.045-.12-.045-.165 0l-.58.58c-.044.046-.044.12 0 .165l.124.126c.154.148.21.38.124.586-.086.207-.29.333-.5.325l-.178.003c-.065 0-.117.053-.117.117v.82c0 .064.052.117.117.117h.178l-.002.002c.212-.008.415.118.5.325.086.21.03.44-.122.586l-.125.128c-.045.044-.045.12 0 .163l.578.58c.045.046.12.046.165 0l.127-.124c.146-.153.377-.208.585-.123.207.088.33.29.326.502l.003.177h-.002c.002.065.054.116.117.116h.82c.064 0 .117-.05.117-.117V5.47c-.006-.212.12-.414.326-.502.208-.085.44-.03.586.123l.124.126c.046.045.12.045.165 0l.58-.58c.046-.046.046-.12 0-.164l-.125-.13c-.153-.146-.208-.377-.122-.585.085-.206.288-.332.5-.324l.176-.004c.063 0 .116-.053.116-.117v-.82c0-.064-.053-.116-.116-.116zm-2.738 1.53c-.553 0-1-.45-1-1.004s.447-1.005 1-1.005c.553 0 1.002.45 1.002 1.006S13.7 3.91 13.146 3.91z" fill="#cb1800"/><g mask="url(#a)"><path d="M15.63 6.403c-.384-.15-.654-.524-.654-.96 0-.435.27-.81.655-.96l.316-.133.002.003c.115-.05.168-.182.12-.296v-.002-.002l-.24-.58-.367-.888c-.01-.027-.038-.038-.057-.058-.062-.065-.148-.102-.236-.065l-.317.132c-.375.167-.83.095-1.14-.216-.306-.307-.377-.763-.213-1.142L13.63.92c.045-.115-.01-.246-.123-.295L12.04.017c-.115-.048-.247.005-.293.122l-.135.316c-.15.383-.522.654-.957.654-.434 0-.807-.27-.956-.653l-.135-.32c-.05-.114-.18-.167-.295-.12l-1.466.61c-.115.047-.17.178-.123.294l.13.32c.168.375.096.83-.212 1.14-.308.308-.762.378-1.14.215v.002l-.316-.135c-.114-.045-.248.01-.295.124L5.24 4.054c-.048.116.01.25.122.297l.317.135c.38.15.653.523.653.96 0 .436-.272.81-.654.956l-.317.14c-.114.043-.17.177-.123.292l.608 1.47c.047.114.18.17.293.122l.32-.13c.376-.167.83-.097 1.137.213.31.31.38.763.214 1.142h.003l-.13.317c-.047.115.005.248.12.295l1.466.61c.114.047.246-.01.293-.123l.134-.318c.15-.384.52-.654.956-.656.436.002.808.274.957.653l.135.32c.048.114.18.17.294.12l1.465-.608c.114-.047.17-.18.122-.295l-.132-.317c-.163-.38-.092-.832.215-1.143.31-.31.763-.38 1.138-.216h.002l.314.134c.116.048.25-.008.295-.122l.607-1.47c.048-.115-.007-.25-.12-.296l-.316-.133zm-4.23.84c-.993.413-2.13-.06-2.542-1.055-.41-.993.06-2.134 1.053-2.544.993-.41 2.13.062 2.54 1.054.413.995-.06 2.133-1.05 2.546zM7.722 11.283h-.24v-.003c-.288.01-.563-.16-.68-.44-.116-.282-.04-.596.167-.796l.17-.17c.06-.06.06-.163 0-.225l-.786-.788c-.06-.062-.16-.062-.223 0l-.17.17c-.198.207-.512.284-.794.166-.28-.118-.45-.392-.442-.68l-.002-.24c0-.088-.07-.158-.158-.16h-1.11c-.087 0-.16.072-.16.16v.24c.007.29-.16.563-.442.68-.28.117-.595.04-.792-.166l-.17-.17c-.063-.062-.162-.062-.224 0l-.785.787c-.06.06-.06.16 0 .222l.168.172c.21.2.284.514.168.795-.117.28-.392.45-.677.44l-.242.004c-.088 0-.16.07-.16.16v1.112c0 .087.072.158.16.158h.24v.002c.287-.01.562.16.678.44.116.283.042.597-.167.795v.002l-.17.172c-.06.06-.06.163 0 .222l.785.787c.062.062.16.062.223 0l.172-.168c.198-.21.51-.283.793-.167.28.118.45.393.442.68l.003.24h-.003c0 .09.072.16.158.16h1.112c.087 0 .16-.07.16-.16H4.72l.002-.24c-.007-.287.162-.56.442-.68.282-.116.596-.04.794.167l.17.17c.06.062.162.062.222 0l.786-.787c.062-.06.062-.16 0-.22l-.168-.176c-.207-.2-.283-.513-.166-.795.116-.28.39-.45.678-.44l.24-.006c.087 0 .158-.07.158-.156V11.44c0-.087-.07-.157-.158-.157zM4.01 13.36c-.75 0-1.36-.608-1.36-1.36 0-.753.608-1.364 1.36-1.364.75 0 1.36.61 1.36 1.363 0 .752-.61 1.36-1.36 1.36z"/></g></svg>