<svg width="16" height="16" xmlns="http://www.w3.org/2000/svg" viewBox="0 0 16 16" shape-rendering="geometricPrecision" fill="#6e6e6e"><defs><mask id="a"><rect fill="#fff" width="100%" height="100%"/><path d="M16.45 1.534c.092-.364-.003-.77-.287-1.066l-.58-.58c-.286-.288-.692-.384-1.065-.29-.194-.328-.552-.55-.962-.552h-.82c-.41 0-.77.223-.963.554-.38-.106-.813.038-1.062.288l-.575.58c-.29.286-.386.697-.292 1.066-.33.194-.55.553-.55.962v.82c0 .41.22.767.548.96-.023.094-.034.19-.034.286.002.263.14.595.325.78l.58.582c.25.248.68.393 1.063.287.194.333.555.556.963.556h.82c.298 0 .588-.12.796-.333.06-.06.112-.134.158-.216.098.025.2.03.3.036.26-.004.588-.144.77-.328l.57-.572c.216-.21.338-.503.336-.803 0-.085-.016-.178-.042-.27.333-.194.556-.553.556-.965v-.82c0-.41-.22-.767-.55-.96z" fill="#000"/></mask></defs><path d="M15.884 2.38h-.177v-.004c-.212.008-.415-.118-.5-.325-.085-.206-.03-.438.123-.585l.126-.126c.044-.045.044-.12 0-.166l-.58-.58c-.045-.046-.118-.046-.165 0l-.124.126c-.147.152-.378.21-.586.12-.206-.086-.332-.288-.326-.5V.163c0-.065-.053-.117-.118-.117h-.82c-.062 0-.116.053-.115.117V.34c.006.213-.118.415-.325.502-.208.086-.44.03-.585-.122l-.126-.126c-.045-.045-.12-.045-.165 0l-.58.58c-.044.046-.044.12 0 .165l.124.126c.154.148.21.38.124.586-.086.207-.29.333-.5.325l-.178.003c-.065 0-.117.053-.117.117v.82c0 .064.052.117.117.117h.178l-.002.002c.212-.008.415.118.5.325.086.21.03.44-.122.586l-.125.128c-.045.044-.045.12 0 .163l.578.58c.045.046.12.046.165 0l.127-.124c.146-.153.377-.208.585-.123.207.088.33.29.326.502l.003.177h-.002c.002.065.054.116.117.116h.82c.064 0 .117-.05.117-.117V5.47c-.006-.212.12-.414.326-.502.208-.085.44-.03.586.123l.124.126c.046.045.12.045.165 0l.58-.58c.046-.046.046-.12 0-.164l-.125-.13c-.153-.146-.208-.377-.122-.585.085-.206.288-.332.5-.324l.176-.004c.063 0 .116-.053.116-.117v-.82c0-.064-.053-.116-.116-.116zm-2.738 1.53c-.553 0-1-.45-1-1.004s.447-1.005 1-1.005c.553 0 1.002.45 1.002 1.006S13.7 3.91 13.146 3.91z" fill="#cb1800"/><g mask="url(#a)"><path d="M4.974 12.78h6.022c.786 0 1.423-.637 1.423-1.423V3.912c0-.786-.15-1.238-.922-1.423-.496-.123-1.537-.416-2.913-.487v-.4H9.65c.163 0 .295-.13.295-.293 0-.163-.132-.294-.294-.294H6.32c-.162 0-.294.132-.294.294 0 .162.132.294.294.294h1.066v.39c-1.756.047-2.252.295-2.912.495-.752.227-.92.636-.92 1.422v7.445c0 .786.636 1.423 1.422 1.423zm.908-1.368c-.337 0-.604-.253-.65-.577-.033.004-.065.01-.1.01-.446 0-.81-.363-.81-.81s.364-.81.81-.81.81.363.81.81c0 .018-.003.034-.004.052.342.03.613.308.613.657 0 .368-.3.668-.668.668zm4.888-.568c-.037 0-.072-.005-.107-.01-.046.324-.313.577-.65.577-.37 0-.668-.298-.668-.667 0-.35.27-.627.612-.657 0-.015-.005-.03-.005-.044-.004-.447.355-.813.803-.818.447-.004.813.355.817.803.005.447-.354.813-.802.817zM4.303 4.826c0-.786.164-1.212.92-1.423.582-.16 1.57-.323 2.805-.323 1.074 0 2.122.182 2.704.324.764.186.92.637.92 1.423l-.018.06c.008.06.02.12.02.183l-.183 1.618c0 .786-.163 1.212-.92 1.423-.58.163-1.387.325-2.622.325-1.074 0-1.91-.182-2.49-.324-.765-.185-.922-.637-.922-1.422l-.213-1.62c0-.062.01-.122.02-.182l-.02-.06zM3.463 14.94H6.01v-1.827H4.97M11.03 13.113H9.99v1.827h2.547"/></g></svg>