<svg width="16" height="16" xmlns="http://www.w3.org/2000/svg" viewBox="0 0 16 16" shape-rendering="geometricPrecision" fill="#6e6e6e"><defs><mask id="a"><rect fill="#fff" width="100%" height="100%"/><path d="M16.45 1.534c.092-.364-.003-.77-.287-1.066l-.58-.58c-.286-.288-.692-.384-1.065-.29-.194-.328-.552-.55-.962-.552h-.82c-.41 0-.77.223-.963.554-.38-.106-.813.038-1.062.288l-.575.58c-.29.286-.386.697-.292 1.066-.33.194-.55.553-.55.962v.82c0 .41.22.767.548.96-.023.094-.034.19-.034.286.002.263.14.595.325.78l.58.582c.25.248.68.393 1.063.287.194.333.555.556.963.556h.82c.298 0 .588-.12.796-.333.06-.06.112-.134.158-.216.098.025.2.03.3.036.26-.004.588-.144.77-.328l.57-.572c.216-.21.338-.503.336-.803 0-.085-.016-.178-.042-.27.333-.194.556-.553.556-.965v-.82c0-.41-.22-.767-.55-.96z" fill="#000"/></mask></defs><path d="M15.884 2.38h-.177v-.004c-.212.008-.415-.118-.5-.325-.085-.206-.03-.438.123-.585l.126-.126c.044-.045.044-.12 0-.166l-.58-.58c-.045-.046-.118-.046-.165 0l-.124.126c-.147.152-.378.21-.586.12-.206-.086-.332-.288-.326-.5V.163c0-.065-.053-.117-.118-.117h-.82c-.062 0-.116.053-.115.117V.34c.006.213-.118.415-.325.502-.208.086-.44.03-.585-.122l-.126-.126c-.045-.045-.12-.045-.165 0l-.58.58c-.044.046-.044.12 0 .165l.124.126c.154.148.21.38.124.586-.086.207-.29.333-.5.325l-.178.003c-.065 0-.117.053-.117.117v.82c0 .064.052.117.117.117h.178l-.002.002c.212-.008.415.118.5.325.086.21.03.44-.122.586l-.125.128c-.045.044-.045.12 0 .163l.578.58c.045.046.12.046.165 0l.127-.124c.146-.153.377-.208.585-.123.207.088.33.29.326.502l.003.177h-.002c.002.065.054.116.117.116h.82c.064 0 .117-.05.117-.117V5.47c-.006-.212.12-.414.326-.502.208-.085.44-.03.586.123l.124.126c.046.045.12.045.165 0l.58-.58c.046-.046.046-.12 0-.164l-.125-.13c-.153-.146-.208-.377-.122-.585.085-.206.288-.332.5-.324l.176-.004c.063 0 .116-.053.116-.117v-.82c0-.064-.053-.116-.116-.116zm-2.738 1.53c-.553 0-1-.45-1-1.004s.447-1.005 1-1.005c.553 0 1.002.45 1.002 1.006S13.7 3.91 13.146 3.91z" fill="#cb1800"/><path d="M8 .97C4.116.97.97 4.117.97 8.003c0 3.88 3.147 7.025 7.03 7.027 3.882-.002 7.03-3.146 7.03-7.027C15.03 4.116 11.882.97 8 .97zm-.083 11.554h-.01c-.664 0-1.122-.496-1.122-1.16 0-.686.47-1.156 1.132-1.156.688 0 1.136.47 1.147 1.156 0 .664-.458 1.16-1.147 1.16zm1.543-4.75c-.472.52-.663 1.02-.65 1.594v.23H7.116l-.012-.333c-.038-.65.177-1.312.75-1.988.41-.497.742-.905.742-1.34 0-.444-.293-.737-.93-.763-.423 0-.932.152-1.262.38L5.97 4.17c.472-.27 1.223-.524 2.127-.524 1.68 0 2.446.93 2.446 1.986 0 .97-.597 1.605-1.083 2.142z" mask="url(#a)"/></svg>