<svg width="16" height="16" xmlns="http://www.w3.org/2000/svg" viewBox="0 0 16 16" shape-rendering="geometricPrecision" fill="#ffad00"><defs><mask id="a"><rect fill="#fff" width="100%" height="100%"/><path d="M12.997.858c-1.845 0-3.446 1.04-4.253 2.563.808 1.524 2.408 2.563 4.253 2.563 1.844 0 3.444-1.04 4.253-2.562C16.44 1.898 14.84.86 12.997.86z" fill="#000"/></mask></defs><path d="M12.997 1.61c-1.303 0-2.433.734-3.003 1.81.57 1.076 1.7 1.81 3.003 1.81 1.302 0 2.432-.733 3.003-1.81-.57-1.075-1.7-1.81-3.003-1.81zm0 3.397c-.877 0-1.588-.71-1.588-1.586 0-.876.71-1.587 1.586-1.587.877 0 1.588.71 1.588 1.588 0 .877-.71 1.587-1.588 1.587z" fill="#cb1800"/><path mask="url(#a)" d="M14.49 13.12L14.48 0H4.033c-1.376.003-2.498.62-2.52 1.987-.004.025-.004.53 0 .535v.003c0 .04.008.076.01.117h-.01v10.826C1.515 14.865 2.65 16 4.045 16h8.386l-.038-1.69-.01-11.344h-8.35c-.495 0-1.68-.048-1.68-.98v-.092C2.405 1.01 3.538.842 4.033.842h9.594v12.28h.864zM7.82 4.303c.62 0 1.12.502 1.12 1.122 0 .616-.5 1.12-1.12 1.12-.62 0-1.123-.504-1.123-1.12 0-.62.502-1.122 1.122-1.122zM5.56 12.996h1.105v-4.47h-1.1v-.834h3.358v5.304h1.106v1.11H5.563v-1.11z"/></svg>