<svg width="16" height="16" xmlns="http://www.w3.org/2000/svg" viewBox="0 0 16 16" shape-rendering="geometricPrecision" fill="#24437c"><defs><mask id="a"><rect fill="#fff" width="100%" height="100%"/><path fill="#000" d="M14.934-.397l-2.04 2.036L10.86-.398l-2.472 2.47 4.51 4.51 4.508-4.51z"/></mask></defs><path fill="#cb1800" d="M12.895 3.052l-2.037-2.035L9.8 2.073l3.097 3.096 3.093-3.097-1.057-1.056"/><path mask="url(#a)" d="M0 0v16h16V0H0zm15 7.876h-1.652L12.064 5.25l-1.32 2.626h-1.1l-.215.59-1.4-4.26-1.868 7.418L4.268 1H15v6.876zM4.22 1L2.13 7.876H1V1h3.22zM1 8.876h1.87l1.127-3.7L5.75 15H1V8.876zM6.36 15l1.797-7.203L9.38 11.52l.963-2.644h1.017l.69-1.375.673 1.376H15V15H6.36z"/></svg>