<?xml version="1.0"?><!DOCTYPE svg PUBLIC "-//W3C//DTD SVG 1.1//EN" "http://www.w3.org/Graphics/SVG/1.1/DTD/svg11.dtd"><svg width="16px" height="16px" xmlns="http://www.w3.org/2000/svg" viewBox="0 0 16 16" shape-rendering="geometricPrecision" fill="#24437c"><defs><mask id="move_down-path"><rect fill="#fff" width="100%" height="100%"/><polygon points="14.934,-0.397 12.895,1.639 10.858,-0.397 8.386,2.073 12.897,6.583 17.404,2.073 " fill="#000"/></mask></defs><polygon points="12.895,3.052 10.858,1.017 9.8,2.073 12.897,5.169 15.99,2.073 14.933,1.017 " fill="#cb1800"/><g mask="url(#move_down-path)"><path d="M8.009,4.685C7.018,2.1,1.759,2.214,2.008,6.335c0.087,1.41,1.178,2.589,2.687,3.96 c2.26,2.058,3.315,2.755,3.315,2.755s1.051-0.697,3.314-2.755c1.505-1.371,2.599-2.55,2.683-3.96C14.254,2.214,9,2.1,8.009,4.685z"/></g></svg>