<?xml version="1.0"?><!DOCTYPE svg PUBLIC "-//W3C//DTD SVG 1.1//EN" "http://www.w3.org/Graphics/SVG/1.1/DTD/svg11.dtd"><svg xmlns="http://www.w3.org/2000/svg" viewBox="0 0 16 16" shape-rendering="geometricPrecision" fill="#24437c"><defs><mask id="move_down-path"><rect fill="#fff" width="100%" height="100%"/><polygon points="14.934,-0.397 12.895,1.639 10.858,-0.397 8.386,2.073 12.897,6.583 17.404,2.073 " fill="#000"/></mask></defs><polygon points="12.895,3.052 10.858,1.017 9.8,2.073 12.897,5.169 15.99,2.073 14.933,1.017 " fill="#cb1800"/><g mask="url(#move_down-path)"><g><path d="M8.036,3.658c1.012,0,1.83-0.822,1.83-1.828C9.866,0.818,9.048,0,8.036,0S6.204,0.818,6.204,1.83 C6.204,2.836,7.024,3.658,8.036,3.658z M9.841,14.187V5.531H4.36v1.361h1.797v7.295H4.354V16h7.291v-1.813H9.841z"/></g></g></svg>
