<svg width="16" height="16" xmlns="http://www.w3.org/2000/svg" viewBox="0 0 16 16" shape-rendering="geometricPrecision" fill="#24437c"><defs><mask id="a"><rect fill="#fff" width="100%" height="100%"/><path fill="#000" d="M14.934-.397l-2.04 2.036L10.86-.398l-2.472 2.47 4.51 4.51 4.508-4.51z"/></mask></defs><path fill="#cb1800" d="M12.895 3.052l-2.037-2.035L9.8 2.073l3.097 3.096 3.093-3.097-1.057-1.056"/><path d="M5.583 11.08V9.383L4.325 11.08h1.258zm5.244-6.118c.454 0 .82-.368.82-.82V1.876c0-.45-.366-.818-.82-.818-.453 0-.818.37-.818.818v2.266c-.002.452.363.82.817.82zm-5.653 0c.452 0 .818-.368.818-.82V1.876c0-.45-.366-.818-.818-.818-.455 0-.818.37-.818.818v2.266c0 .452.363.82.818.82zm7.483-1.274v.55c0 1.008-.822 1.83-1.83 1.83-1.015 0-1.83-.822-1.83-1.83v-.55H7.004v.55c0 1.008-.823 1.83-1.83 1.83-1.015 0-1.83-.822-1.83-1.83v-.55h-1.87V15h13.052V3.688h-1.87zm-5.132 8.464c-.144.098-.324.132-.544.134h-.09v.59c0 .224-.047.42-.175.56-.117.132-.287.2-.47.2h-.01c-.183.004-.357-.07-.476-.205-.127-.14-.178-.334-.178-.555v-.59H3.73c-.275 0-.507-.062-.674-.21-.162-.147-.24-.355-.24-.585 0-.07.012-.138.036-.205.023-.066.058-.13.1-.196.04-.062.08-.12.122-.175l.148-.197L5.34 7.885c.143-.19.26-.33.36-.427.115-.11.268-.17.428-.168.23-.002.438.07.573.227.136.157.19.37.19.624v2.94h.018c.22 0 .403.028.558.098.192.084.28.29.275.51.007.184-.067.363-.215.464zm4.747 1.2c-.125.132-.306.187-.506.186H8.814c-.223 0-.424-.068-.567-.21-.138-.135-.216-.312-.214-.5 0-.135.046-.277.122-.446.077-.17.163-.31.266-.418.356-.37.68-.688.968-.952.287-.265.492-.438.626-.53.212-.15.386-.3.522-.443.134-.148.235-.295.306-.44.067-.147.1-.286.1-.416 0-.147-.034-.27-.1-.38-.07-.11-.156-.194-.274-.255-.117-.064-.242-.096-.384-.097-.304.005-.514.12-.696.39-.006.006-.058.12-.117.292-.064.19-.14.343-.236.46-.11.135-.284.202-.467.2-.167 0-.327-.06-.44-.177-.123-.12-.18-.29-.178-.47-.002-.207.045-.42.135-.636.09-.22.226-.418.403-.594.18-.18.407-.32.675-.428.274-.108.59-.16.944-.16.422 0 .792.064 1.107.204.203.095.386.223.54.39.154.162.275.35.36.563.086.213.13.438.13.668 0 .356-.09.688-.27.98-.17.28-.344.504-.53.672-.174.157-.46.398-.863.728-.396.323-.668.576-.807.745l-.002.003h1.78c.225 0 .42.045.57.16.144.11.225.284.224.47.002.166-.06.323-.172.44z" mask="url(#a)"/></svg>