<svg width="16" height="16" xmlns="http://www.w3.org/2000/svg" viewBox="0 0 16 16" shape-rendering="geometricPrecision" fill="#24437c"><defs><mask id="a"><rect fill="#fff" width="100%" height="100%"/><path fill="#000" d="M14.934-.397l-2.04 2.036L10.86-.398l-2.472 2.47 4.51 4.51 4.508-4.51z"/></mask></defs><path fill="#cb1800" d="M12.895 3.052l-2.037-2.035L9.8 2.073l3.097 3.096 3.093-3.097-1.057-1.056"/><path mask="url(#a)" d="M14.307 9.69c.143-.537.227-1.1.227-1.682 0-3.604-2.922-6.525-6.525-6.525-.582 0-1.143.084-1.68.227-.536-.373-1.187-.592-1.89-.592-1.835 0-3.322 1.486-3.322 3.322 0 .7.22 1.353.592 1.89-.143.536-.226 1.097-.226 1.68 0 3.603 2.922 6.524 6.525 6.524.582 0 1.144-.084 1.682-.23.532.364 1.175.577 1.868.577 1.835 0 3.322-1.487 3.322-3.32 0-.694-.212-1.336-.575-1.87zm-3.332 1.3c-.144.315-.354.59-.63.83-.275.24-.61.43-1.002.57-.392.14-.837.208-1.333.208-.596 0-1.17-.11-1.72-.338-.55-.224-1.04-.544-1.464-.96l.908-1.07c.316.297.677.54 1.083.725.406.186.817.277 1.232.277.495 0 .877-.104 1.144-.31.266-.21.4-.483.4-.827 0-.182-.035-.334-.103-.46-.066-.126-.16-.24-.282-.333-.123-.094-.27-.182-.44-.264-.172-.082-.357-.162-.556-.242l-1.205-.53c-.216-.09-.433-.202-.65-.34-.217-.134-.41-.296-.576-.486-.165-.19-.3-.41-.405-.664-.104-.254-.156-.54-.156-.867 0-.353.074-.68.223-.984.15-.3.354-.566.616-.79.26-.227.572-.4.933-.527.36-.128.76-.19 1.192-.19.524 0 1.024.1 1.503.304.478.203.89.477 1.232.818l-.812 1.002c-.28-.234-.576-.42-.887-.555-.31-.136-.656-.204-1.035-.204-.424 0-.76.092-1.01.277-.247.184-.372.442-.372.766 0 .17.04.315.116.438.075.122.18.23.31.325.13.096.282.182.454.258.17.08.347.15.528.226l1.192.5c.262.11.503.234.724.38.222.144.41.312.57.5.157.19.28.41.365.657.085.248.128.535.128.86 0 .36-.07.7-.215 1.016z"/></svg>