<?xml version="1.0"?><!DOCTYPE svg PUBLIC "-//W3C//DTD SVG 1.1//EN" "http://www.w3.org/Graphics/SVG/1.1/DTD/svg11.dtd"><svg width="16px" height="16px" xmlns="http://www.w3.org/2000/svg" viewBox="0 0 16 16" shape-rendering="geometricPrecision" fill="#24437c"><defs><mask id="move_down-path"><rect fill="#fff" width="100%" height="100%"/><polygon points="14.934,-0.397 12.895,1.639 10.858,-0.397 8.386,2.073 12.897,6.583 17.404,2.073 " fill="#000"/></mask></defs><polygon points="12.895,3.052 10.858,1.017 9.8,2.073 12.897,5.169 15.99,2.073 14.933,1.017 " fill="#cb1800"/><g mask="url(#move_down-path)"><path d="M13.826,1.99L8.799,1.996L1,9.794l5.038,5.038l7.799-7.799L13.826,1.99z M11.342,5.99 c-0.828,0-1.5-0.672-1.5-1.5c0-0.829,0.672-1.5,1.5-1.5c0.828,0,1.5,0.671,1.5,1.5C12.842,5.319,12.17,5.99,11.342,5.99z"/><rect x="3.094" y="6.077" transform="matrix(0.7071 -0.7071 0.7071 0.7071 -4.1425 7.5587)" width="7.917" height="5.406"/><rect x="3.349" y="7.57" transform="matrix(0.7071 -0.7071 0.7071 0.7071 -3.8478 6.8655)" width="6.029" height="1.016"/><rect x="4.702" y="8.923" transform="matrix(0.7071 -0.7071 0.7071 0.7071 -4.4084 8.2189)" width="6.029" height="1.016"/></g></svg>