<svg width="16" height="16" xmlns="http://www.w3.org/2000/svg" viewBox="0 0 16 16" shape-rendering="geometricPrecision" fill="#24437c"><defs><mask id="a"><rect fill="#fff" width="100%" height="100%"/><path fill="#000" d="M14.934-.397l-2.04 2.036L10.86-.398l-2.472 2.47 4.51 4.51 4.508-4.51z"/></mask></defs><path fill="#cb1800" d="M12.895 3.052l-2.037-2.035L9.8 2.073l3.097 3.096 3.093-3.097-1.057-1.056"/><path d="M9.76 2.438V1.03H6.24v1.408H2.717v1.917h10.565V2.438H9.76zM3.66 14.97h8.646V5.388H3.66v9.582zm6.164-8.075h1.016v6.567H9.824V6.895zm-2.35 0H8.49v6.567H7.475V6.895zm-2.35 0h1.017v6.567H5.126V6.895z" mask="url(#a)"/></svg>