<?xml version="1.0"?><!DOCTYPE svg PUBLIC "-//W3C//DTD SVG 1.1//EN" "http://www.w3.org/Graphics/SVG/1.1/DTD/svg11.dtd"><svg width="16px" height="16px" xmlns="http://www.w3.org/2000/svg" viewBox="0 0 16 16" shape-rendering="geometricPrecision" fill="#24437c"><defs><mask id="pause-path"><rect fill="#fff" width="100%" height="100%"/><polygon points="13.135,-1 12.45,-1 9.585,-1 9.585,6.956 12.45,6.956 13.135,6.956 16,6.956 16,-1 " fill="#000"/></mask></defs><g fill="#cb1800"><g><rect x="10.585" y="0" width="1.55" height="5.956"/></g><g><rect x="13.45" y="0" width="1.55" height="5.956"/></g></g><path mask="url(#pause-path)" d="M0,0v16h16V0H0z M15,7.876h-1.652l-1.284-2.625l-1.32,2.625h-1.1l-0.215,0.59L8.03,4.205l-1.868,7.419 L4.268,1H15V7.876z M4.22,1L2.129,7.876H1V1H4.22z M1,8.876h1.87l1.127-3.701L5.751,15H1V8.876z M6.36,15l1.797-7.203l1.222,3.722 l0.964-2.643h1.017l0.691-1.375l0.672,1.375H15V15H6.36z"/></svg>