<svg width="16" height="16" xmlns="http://www.w3.org/2000/svg" viewBox="0 0 16 16" shape-rendering="geometricPrecision" fill="#24437c"><defs><mask id="a"><rect fill="#fff" width="100%" height="100%"/><path fill="#000" d="M13.135-1H9.585v7.956H16V-1z"/></mask></defs><g fill="#cb1800"><path d="M10.585 0h1.55v5.956h-1.55zM13.45 0H15v5.956h-1.55z"/></g><g mask="url(#a)"><path d="M7.045 11.946h.995v.995h-.995zM9.036 13.936h1.991v-.995h-.995v-.994h-.994M10.03 7.964v.997H8.04v-.996h1.991V6.97h-.994v-.995H7.045v.995H6.05v1.99h.995v.996h.995v.995h1.991v-.994h.996v.995h1.991v-.994h-.995V6.97h-.994v.994"/><path d="M10.03 10.95h.996v.996h-.995zM1.075 6.97h.995v.994h-.995z"/><path d="M3.065 5.975H6.05v-1.99h.995V2.99H6.05V1H1.075v4.974h.995v.996h.995v-.995zm-.995-3.98h2.985V4.98H2.07V1.995zM12.02 14.93h.996v-.994h.995v-.995h-.994v-.994h-.995M13.016 10.95h.995v.996h-.994zM14.01 7.964h.996v.997h-.995zM3.065 11.946h.995v.995h-.995z"/><path d="M6.05 10.95v-.994H4.06V8.96h.995V6.97H4.06v.994h-.995v1.992h-1.99V14.93H6.05v-.994h.995v-.995H6.05v-1.99zm-3.98 2.986V10.95h2.985v2.986H2.07zM3.065 2.99h.995v.995h-.995zM12.02 2.99h.996v.995h-.995z"/><path d="M14.01 1h-3.979v.995H8.04V4.98h.996V2.99h.995v3.98h.996v-.995h3.981V1h-.995zm0 3.98h-2.984V1.995h2.985V4.98z"/></g></svg>