<svg width="16" height="16" xmlns="http://www.w3.org/2000/svg" viewBox="0 0 16 16" shape-rendering="geometricPrecision" fill="#24437c"><defs><mask id="a"><rect fill="#fff" width="100%" height="100%"/><path fill="#000" d="M13.135-1H9.585v7.956H16V-1z"/></mask></defs><g fill="#cb1800"><path d="M10.585 0h1.55v5.956h-1.55zM13.45 0H15v5.956h-1.55z"/></g><g mask="url(#a)"><path d="M10.868 4.2c.26-.306.227-.766-.08-1.026-.303-.264-.76-.23-1.026.072l-.382.442 1.105.956.383-.444zM6.19 8.498l.752-.296-.563-.485-.19.78zm.355-1.526l1.104.956 2.572-2.98-1.104-.955-2.573 2.98zM4.985 3.037H7.22v.745H4.986zM4.985 4.528H7.22v.745H4.986zM10.055 14.302l2.54-2.338h-2.54"/><path d="M2.595 1.016v13.97h6.008v-4.47h4.802v-9.5H2.595zm9.44 8.027h-4.79v4.6H3.916V2.32h8.116v6.725z"/></g></svg>