<?xml version="1.0"?><!DOCTYPE svg PUBLIC "-//W3C//DTD SVG 1.1//EN" "http://www.w3.org/Graphics/SVG/1.1/DTD/svg11.dtd"><svg xmlns="http://www.w3.org/2000/svg" viewBox="0 0 16 16" shape-rendering="geometricPrecision" fill="#24437c"><defs><mask id="pause-path"><rect fill="#fff" width="100%" height="100%"/><polygon points="13.135,-1 12.45,-1 9.585,-1 9.585,6.956 12.45,6.956 13.135,6.956 16,6.956 16,-1 " fill="#000"/></mask></defs><g fill="#cb1800"><g><rect x="10.585" y="0" width="1.55" height="5.956"/></g><g><rect x="13.45" y="0" width="1.55" height="5.956"/></g></g><g mask="url(#pause-path)"><polygon points="2.131,11.885 2.131,7.242 4.785,9.896 8.542,6.138 10.522,8.119 14.088,4.554 13.168,3.635 10.523,6.276 9.463,5.217 9.472,5.208 8.552,4.288 4.784,8.053 2.14,5.411 2.131,5.421 2.131,3.738 1.037,3.738 1.037,12.98 1.834,12.978 1.834,12.98 14.963,12.98 14.963,11.885"/></g></svg>
