<svg width="16" height="16" xmlns="http://www.w3.org/2000/svg" viewBox="0 0 16 16" shape-rendering="geometricPrecision" fill="#24437c"><defs><mask id="a"><rect fill="#fff" width="100%" height="100%"/><path fill="#000" d="M13.135-1H9.585v7.956H16V-1z"/></mask></defs><g fill="#cb1800"><path d="M10.585 0h1.55v5.956h-1.55zM13.45 0H15v5.956h-1.55z"/></g><g mask="url(#a)"><path d="M1.81 0v16h12.38V0H1.81zm11.34 14.96H2.794V1.01H13.15v13.95z"/><path d="M8.067 4.602c.76 0 1.374-.616 1.374-1.373S8.83 1.856 8.068 1.856c-.757 0-1.372.616-1.372 1.372 0 .756.615 1.372 1.372 1.372zm1.354 7.896v-6.49H5.313v1.02H6.66v5.47H5.307v1.36h5.467v-1.36H9.42z"/></g></svg>