<svg width="16" height="16" xmlns="http://www.w3.org/2000/svg" viewBox="0 0 16 16" shape-rendering="geometricPrecision" fill="#24437c"><defs><mask id="a"><rect fill="#fff" width="100%" height="100%"/><path fill="#000" d="M13.135-1H9.585v7.956H16V-1z"/></mask></defs><g fill="#cb1800"><path d="M10.585 0h1.55v5.956h-1.55zM13.45 0H15v5.956h-1.55z"/></g><path d="M5.687 5.66c0-1.278 1.036-2.31 2.313-2.31 1.276 0 2.312 1.032 2.312 2.31v1.15h1.414V5.66c0-2.058-1.668-3.726-3.726-3.726-2.06 0-3.728 1.67-3.728 3.727v1.15h1.414V5.66zM3.062 7.793V15h9.876V7.79H3.062zm5.808 4.802c0 .48-.388.867-.867.867-.48 0-.872-.388-.872-.866v-2.396c0-.478.392-.867.87-.867.482 0 .87.39.87.868v2.396z" mask="url(#a)"/></svg>