<?xml version="1.0"?><!DOCTYPE svg PUBLIC "-//W3C//DTD SVG 1.1//EN" "http://www.w3.org/Graphics/SVG/1.1/DTD/svg11.dtd"><svg xmlns="http://www.w3.org/2000/svg" viewBox="0 0 16 16" shape-rendering="geometricPrecision" fill="#24437c"><defs><mask id="pause-path"><rect fill="#fff" width="100%" height="100%"/><polygon points="13.135,-1 12.45,-1 9.585,-1 9.585,6.956 12.45,6.956 13.135,6.956 16,6.956 16,-1 " fill="#000"/></mask></defs><g fill="#cb1800"><g><rect x="10.585" y="0" width="1.55" height="5.956"/></g><g><rect x="13.45" y="0" width="1.55" height="5.956"/></g></g><g mask="url(#pause-path)"><path d="M9.759,2.438V1.03H6.24v1.408H2.717v1.917h10.565V2.438H9.759z M3.661,14.97h8.645V5.388H3.661V14.97z M9.824,6.895h1.016v6.567H9.824V6.895z M7.474,6.895h1.017v6.567H7.474V6.895z M5.125,6.895h1.016v6.567H5.125V6.895z"/></g></svg>
