<svg width="16" height="16" xmlns="http://www.w3.org/2000/svg" viewBox="0 0 16 16" shape-rendering="geometricPrecision" fill="#24437c"><defs><mask id="a"><rect fill="#fff" width="100%" height="100%"/><path fill="#000" d="M13.135-1H9.585v7.956H16V-1z"/></mask></defs><g fill="#cb1800"><path d="M10.585 0h1.55v5.956h-1.55zM13.45 0H15v5.956h-1.55z"/></g><path mask="url(#a)" d="M4.212 1.067c1.07 0 1.604.865 1.604 1.832 0 1.12.03 2.547.03 2.547h5.504c1.123 0 1.922.62 1.922 1.56 0 1.124-.687 1.686-1.81 1.686H5.876v1s.5 1.994 2.123 1.994h3.462c.874 0 1.623.58 1.623 1.58 0 .997-.518 1.665-1.592 1.665H7.82c-3.145 0-5.095-1.23-5.095-4.738V3.042c.002-1.218.49-1.975 1.487-1.975z"/></svg>