<svg width="16" height="16" xmlns="http://www.w3.org/2000/svg" viewBox="0 0 16 16" shape-rendering="geometricPrecision" fill="#6e6e6e"><defs><mask id="a"><rect fill="#fff" width="100%" height="100%"/><path fill="#000" d="M14.5 1.716L13-.37l-1.5 2.086-1.983-2.76-.836.01 1.89 6.812h4.86l1.883-6.792-.84-.013z"/></mask></defs><path fill="#FCC70A" d="M14.858 5.028H11.14L10 .914l.748 1.043.75 1.045.75-1.045L13 .914l.75 1.043.75 1.045.75-1.045L16 .914"/><path mask="url(#a)" d="M0 0v16h16V0H0zm15 7.876h-1.652L12.064 5.25l-1.32 2.626h-1.1l-.215.59-1.4-4.26-1.868 7.418L4.268 1H15v6.876zM4.22 1L2.13 7.876H1V1h3.22zM1 8.876h1.87l1.127-3.7L5.75 15H1V8.876zM6.36 15l1.797-7.203L9.38 11.52l.963-2.644h1.017l.69-1.375.673 1.376H15V15H6.36z"/></svg>