<svg width="16" height="16" xmlns="http://www.w3.org/2000/svg" viewBox="0 0 16 16" shape-rendering="geometricPrecision" fill="#6e6e6e"><defs><mask id="a"><rect fill="#fff" width="100%" height="100%"/><path fill="#000" d="M14.5 1.716L13-.37l-1.5 2.086-1.983-2.76-.836.01 1.89 6.812h4.86l1.883-6.792-.84-.013z"/></mask></defs><path fill="#FCC70A" d="M14.858 5.028H11.14L10 .914l.748 1.043.75 1.045.75-1.045L13 .914l.75 1.043.75 1.045.75-1.045L16 .914"/><path d="M12.694 4.022c-.014 0-.026.005-.04.006v-.73c0-.715-.58-1.295-1.297-1.295H4.63c-.717 0-1.298.58-1.298 1.296v.726c-.01 0-.017-.004-.026-.004-.254 0-.46.152-.46.34V5.56c0 .188.207.34.46.34.01 0 .017-.004.026-.005V13.053h.002v.946h1.4v-.946h6.52v.946h1.4v-1.77h-.008V7.825c0-.022.007-.042.007-.064V5.895c.015 0 .027.006.04.006.255 0 .46-.152.46-.34V4.363c0-.188-.206-.34-.46-.34zm-7.18 7.81H4.96c-.358 0-.648-.29-.648-.647 0-.357.29-.647.647-.647h.554c.357 0 .647.29.647.647 0 .357-.29.647-.646.647zm5.357 0h-.554c-.357 0-.647-.29-.647-.647 0-.357.29-.647.646-.647h.555c.36 0 .648.29.648.647 0 .357-.29.647-.647.647zm.935-3.935c0 .646-.49 1.17-1.093 1.17H5.275c-.604 0-1.093-.524-1.093-1.17V4.104c0-.646.49-1.17 1.093-1.17h5.437c.604 0 1.093.524 1.093 1.17v3.793z" mask="url(#a)"/></svg>