<svg width="16" height="16" xmlns="http://www.w3.org/2000/svg" viewBox="0 0 16 16" shape-rendering="geometricPrecision" fill="#6e6e6e"><defs><mask id="a"><rect fill="#fff" width="100%" height="100%"/><path fill="#000" d="M14.5 1.716L13-.37l-1.5 2.086-1.983-2.76-.836.01 1.89 6.812h4.86l1.883-6.792-.84-.013z"/></mask></defs><path fill="#FCC70A" d="M14.858 5.028H11.14L10 .914l.748 1.043.75 1.045.75-1.045L13 .914l.75 1.043.75 1.045.75-1.045L16 .914"/><path d="M5.687 5.66c0-1.278 1.036-2.31 2.313-2.31 1.276 0 2.312 1.032 2.312 2.31v1.15h1.414V5.66c0-2.058-1.668-3.726-3.726-3.726-2.06 0-3.728 1.67-3.728 3.727v1.15h1.414V5.66zM3.062 7.793V15h9.876V7.79H3.062zm5.808 4.802c0 .48-.388.867-.867.867-.48 0-.872-.388-.872-.866v-2.396c0-.478.392-.867.87-.867.482 0 .87.39.87.868v2.396z" mask="url(#a)"/></svg>