<svg width="16" height="16" xmlns="http://www.w3.org/2000/svg" viewBox="0 0 16 16" shape-rendering="geometricPrecision" fill="#6e6e6e"><defs><mask id="a"><rect fill="#fff" width="100%" height="100%"/><path fill="#000" d="M14.5 1.716L13-.37l-1.5 2.086-1.983-2.76-.836.01 1.89 6.812h4.86l1.883-6.792-.84-.013z"/></mask></defs><path fill="#FCC70A" d="M14.858 5.028H11.14L10 .914l.748 1.043.75 1.045.75-1.045L13 .914l.75 1.043.75 1.045.75-1.045L16 .914"/><path mask="url(#a)" d="M8.04 1.977c-3.315 0-6 2.687-6 6s2.686 6 6 6c3.313 0 6-2.687 6-6 0-3.314-2.687-6-6-6zm.373 6.606l-1.75-.33-.568 2.07-.708-1.678-1.685 1.377.748-2.044-1.816-.12L4.4 6.645 3.518 5.1l1.75.33.57-2.07.705 1.68L8.23 3.662l-.75 2.043 1.816.12L7.53 7.037l.883 1.546z"/></svg>