<svg width="16" height="16" xmlns="http://www.w3.org/2000/svg" viewBox="0 0 16 16" shape-rendering="geometricPrecision" fill="#6e6e6e"><defs><mask id="a"><rect fill="#fff" width="100%" height="100%"/><path fill="#000" d="M14.5 1.716L13-.37l-1.5 2.086-1.983-2.76-.836.01 1.89 6.812h4.86l1.883-6.792-.84-.013z"/></mask></defs><path fill="#FCC70A" d="M14.858 5.028H11.14L10 .914l.748 1.043.75 1.045.75-1.045L13 .914l.75 1.043.75 1.045.75-1.045L16 .914"/><g mask="url(#a)"><path d="M6.55 6.983c1.628 0 2.94-1.314 2.94-2.94S8.18 1.106 6.55 1.106c-1.622 0-2.938 1.314-2.938 2.94s1.317 2.938 2.94 2.938zM9.366 13.378l-.402-3.99.41-1c-.03 0-.06-.008-.09-.008H3.81C2.253 8.38.986 9.655.986 11.212v3.684h11.133v-3.684c0-.05-.013-.1-.016-.152l-2.736 2.318z"/><path d="M14.93 2.83c.246-.632-.06-1.35-.69-1.597-.63-.256-1.346.05-1.604.68l-.368.918 2.292.92.37-.92zm-5.117 9.446l1.04-.887-1.17-.468.13 1.354zM9.54 9.642l2.292.92L14.31 4.38l-2.293-.918-2.476 6.18z"/></g></svg>