<svg width="16" height="16" xmlns="http://www.w3.org/2000/svg" viewBox="0 0 16 16" shape-rendering="geometricPrecision" fill="#6e6e6e"><defs><mask id="a"><rect fill="#fff" width="100%" height="100%"/><path fill="#000" d="M14.5 1.716L13-.37l-1.5 2.086-1.983-2.76-.836.01 1.89 6.812h4.86l1.883-6.792-.84-.013z"/></mask></defs><path fill="#FCC70A" d="M14.858 5.028H11.14L10 .914l.748 1.043.75 1.045.75-1.045L13 .914l.75 1.043.75 1.045.75-1.045L16 .914"/><path d="M1.02 1.02v2.617c3.138 0 5.965 1.267 8.022 3.32 2.054 2.06 3.32 4.885 3.32 8.02h2.618C14.978 7.27 8.73 1.023 1.02 1.02zm0 4.71V8.34c3.665.008 6.63 2.973 6.636 6.637h2.616c0-5.11-4.142-9.25-9.25-9.25zM2.9 11.22c-1.04 0-1.88.84-1.88 1.877 0 1.038.842 1.88 1.88 1.88 1.038 0 1.878-.842 1.878-1.88 0-1.04-.84-1.878-1.878-1.878z" mask="url(#a)"/></svg>