<svg width="16" height="16" xmlns="http://www.w3.org/2000/svg" viewBox="0 0 16 16" shape-rendering="geometricPrecision"><defs><mask id="a"><rect fill="#fff" width="100%" height="100%"/><path d="M12.997.858c-1.845 0-3.446 1.04-4.253 2.563.808 1.524 2.408 2.563 4.253 2.563 1.844 0 3.444-1.04 4.253-2.562C16.44 1.898 14.84.86 12.997.86z"/></mask></defs><path d="M12.97 1.607c-1.314 0-2.453.74-3.028 1.825.575 1.085 1.715 1.825 3.03 1.825 1.313 0 2.452-.74 3.028-1.825-.576-1.084-1.716-1.825-3.03-1.825z" fill="#cb1800"/><path mask="url(#a)" d="M12.377 4.153c.106-.264.167-.55.167-.85 0-1.256-1.015-2.27-2.27-2.27-1.066 0-1.955.738-2.197 1.732C7.857 1.757 6.96 1 5.883 1c-1.242 0-2.25 1.01-2.25 2.25 0 .28.06.546.15.79-1.492.955-2.447 2.488-2.447 4.504C1.336 12.108 4.318 15 8 15c3.68 0 6.663-2.892 6.663-6.456 0-1.94-.887-3.432-2.286-4.39zm-4.42-.912c1.12 0 2.03 1.144 2.03 2.554 0 1.408-.91 2.55-2.03 2.55-1.12 0-2.028-1.142-2.028-2.55-.002-1.41.906-2.553 2.028-2.553zm.196 10.413c-4.655 0-4.948-4.637-4.948-4.637s2.093.635 4.792.635c2.976 0 5.086-.65 5.087-.65 0 0-.71 4.653-4.93 4.653z"/></svg>