<svg width="16" height="16" xmlns="http://www.w3.org/2000/svg" viewBox="0 0 16 16" shape-rendering="geometricPrecision"><defs><mask id="a"><rect fill="#fff" width="100%" height="100%"/><path d="M12.997.858c-1.845 0-3.446 1.04-4.253 2.563.808 1.524 2.408 2.563 4.253 2.563 1.844 0 3.444-1.04 4.253-2.562C16.44 1.898 14.84.86 12.997.86z"/></mask></defs><path d="M12.97 1.607c-1.314 0-2.453.74-3.028 1.825.575 1.085 1.715 1.825 3.03 1.825 1.313 0 2.452-.74 3.028-1.825-.576-1.084-1.716-1.825-3.03-1.825z" fill="#cb1800"/><path d="M8 1.01c-3.86 0-6.99 3.13-6.99 6.992 0 3.857 3.13 6.986 6.99 6.986 3.86 0 6.99-3.13 6.99-6.986 0-3.86-3.13-6.99-6.99-6.99zm2.732 10.236L9.047 12.93l-4.93-4.933 4.93-4.928 1.685 1.685L7.486 8l3.246 3.246z" mask="url(#a)"/></svg>