<svg width="16" height="16" xmlns="http://www.w3.org/2000/svg" viewBox="0 0 16 16" shape-rendering="geometricPrecision" fill="#24437c"><defs><mask id="a"><rect fill="#fff" width="100%" height="100%"/><path d="M16.45 1.534c.092-.364-.003-.77-.287-1.066l-.58-.58c-.286-.288-.692-.384-1.065-.29-.194-.328-.552-.55-.962-.552h-.82c-.41 0-.77.223-.963.554-.38-.106-.813.038-1.062.288l-.575.58c-.29.286-.386.697-.292 1.066-.33.194-.55.553-.55.962v.82c0 .41.22.767.548.96-.023.094-.034.19-.034.286.002.263.14.595.325.78l.58.582c.25.248.68.393 1.063.287.194.333.555.556.963.556h.82c.298 0 .588-.12.796-.333.06-.06.112-.134.158-.216.098.025.2.03.3.036.26-.004.588-.144.77-.328l.57-.572c.216-.21.338-.503.336-.803 0-.085-.016-.178-.042-.27.333-.194.556-.553.556-.965v-.82c0-.41-.22-.767-.55-.96z" fill="#000"/></mask></defs><path d="M15.884 2.38h-.177v-.004c-.212.008-.415-.118-.5-.325-.085-.206-.03-.438.123-.585l.126-.126c.044-.045.044-.12 0-.166l-.58-.58c-.045-.046-.118-.046-.165 0l-.124.126c-.147.152-.378.21-.586.12-.206-.086-.332-.288-.326-.5V.163c0-.065-.053-.117-.118-.117h-.82c-.062 0-.116.053-.115.117V.34c.006.213-.118.415-.325.502-.208.086-.44.03-.585-.122l-.126-.126c-.045-.045-.12-.045-.165 0l-.58.58c-.044.046-.044.12 0 .165l.124.126c.154.148.21.38.124.586-.086.207-.29.333-.5.325l-.178.003c-.065 0-.117.053-.117.117v.82c0 .064.052.117.117.117h.178l-.002.002c.212-.008.415.118.5.325.086.21.03.44-.122.586l-.125.128c-.045.044-.045.12 0 .163l.578.58c.045.046.12.046.165 0l.127-.124c.146-.153.377-.208.585-.123.207.088.33.29.326.502l.003.177h-.002c.002.065.054.116.117.116h.82c.064 0 .117-.05.117-.117V5.47c-.006-.212.12-.414.326-.502.208-.085.44-.03.586.123l.124.126c.046.045.12.045.165 0l.58-.58c.046-.046.046-.12 0-.164l-.125-.13c-.153-.146-.208-.377-.122-.585.085-.206.288-.332.5-.324l.176-.004c.063 0 .116-.053.116-.117v-.82c0-.064-.053-.116-.116-.116zm-2.738 1.53c-.553 0-1-.45-1-1.004s.447-1.005 1-1.005c.553 0 1.002.45 1.002 1.006S13.7 3.91 13.146 3.91z" fill="#cb1800"/><g mask="url(#a)"><path d="M6.35 5.582c.47-.322 1.037-.51 1.65-.51.612 0 1.18.19 1.65.51l1.472-1.47c-.856-.688-1.94-1.1-3.122-1.1s-2.266.412-3.122 1.1L6.35 5.58zM5.583 6.35l-1.47-1.472C3.422 5.733 3.01 6.818 3.01 8s.414 2.267 1.1 3.12l1.472-1.47c-.32-.47-.51-1.037-.51-1.65s.19-1.18.51-1.65z"/><g><path d="M10.418 9.65l1.47 1.47c.687-.854 1.1-1.938 1.1-3.12 0-1.182-.413-2.267-1.1-3.122l-1.472 1.47c.324.47.512 1.04.512 1.652s-.188 1.18-.51 1.65zM9.65 10.418c-.47.32-1.037.51-1.65.51s-1.18-.19-1.65-.51l-1.472 1.47c.855.688 1.94 1.1 3.122 1.1s2.267-.412 3.122-1.1l-1.47-1.47z"/></g><g><path d="M7.934 14.81c-1.06 0-2.058-.417-2.814-1.173L2.364 10.88C.824 9.343.8 6.863 2.31 5.354L5.353 2.31c.72-.723 1.684-1.12 2.713-1.12 1.058 0 2.058.416 2.814 1.172l2.757 2.756c.744.744 1.16 1.728 1.173 2.77.012 1.046-.386 2.025-1.118 2.758l-3.045 3.045c-.72.722-1.685 1.12-2.713 1.12zm.133-12.62c-.762 0-1.475.293-2.006.825L3.017 6.06c-1.12 1.12-1.095 2.964.054 4.114l2.756 2.756c1.113 1.113 3.028 1.14 4.113.055l3.044-3.045c.54-.54.834-1.265.825-2.04-.01-.778-.322-1.515-.88-2.073L10.173 3.07c-.568-.567-1.316-.88-2.107-.88z"/></g></g></svg>