<svg width="16" height="16" xmlns="http://www.w3.org/2000/svg" viewBox="0 0 16 16" shape-rendering="geometricPrecision" fill="#6e6e6e"><defs><mask id="a"><rect fill="#fff" width="100%" height="100%"/><path fill="#000" d="M12.892-.396l-4.507 4.51 2.47 2.47 2.04-2.035 2.036 2.034 2.474-2.47z"/></mask></defs><path fill="#cb1800" d="M12.894 3.136L14.93 5.17l1.06-1.056-3.098-3.096L9.8 4.114l1.056 1.057"/><path mask="url(#a)" d="M0 0v16h16V0H0zm15 7.876h-1.652L12.064 5.25l-1.32 2.626h-1.1l-.215.59-1.4-4.26-1.868 7.418L4.268 1H15v6.876zM4.22 1L2.13 7.876H1V1h3.22zM1 8.876h1.87l1.127-3.7L5.75 15H1V8.876zM6.36 15l1.797-7.203L9.38 11.52l.963-2.644h1.017l.69-1.375.673 1.376H15V15H6.36z"/></svg>