<svg width="16" height="16" xmlns="http://www.w3.org/2000/svg" viewBox="0 0 16 16" shape-rendering="geometricPrecision" fill="#6e6e6e"><defs><mask id="a"><rect fill="#fff" width="100%" height="100%"/><path fill="#000" d="M12.892-.396l-4.507 4.51 2.47 2.47 2.04-2.035 2.036 2.034 2.474-2.47z"/></mask></defs><path fill="#cb1800" d="M12.894 3.136L14.93 5.17l1.06-1.056-3.098-3.096L9.8 4.114l1.056 1.057"/><path mask="url(#a)" d="M14.49 13.12L14.48 0H4.033c-1.376.003-2.498.62-2.52 1.987-.004.025-.004.53 0 .535v.003c0 .04.008.076.01.117h-.01v10.826C1.515 14.865 2.65 16 4.045 16h8.386l-.038-1.69-.01-11.344h-8.35c-.495 0-1.68-.048-1.68-.98v-.092C2.405 1.01 3.538.842 4.033.842h9.594v12.28h.864zM7.82 4.303c.62 0 1.12.502 1.12 1.122 0 .616-.5 1.12-1.12 1.12-.62 0-1.123-.504-1.123-1.12 0-.62.502-1.122 1.122-1.122zM5.56 12.996h1.105v-4.47h-1.1v-.834h3.358v5.304h1.106v1.11H5.563v-1.11z"/></svg>