<svg width="16" height="16" xmlns="http://www.w3.org/2000/svg" viewBox="0 0 16 16" shape-rendering="geometricPrecision" fill="#6e6e6e"><defs><mask id="a"><rect fill="#fff" width="100%" height="100%"/><path fill="#000" d="M12.892-.396l-4.507 4.51 2.47 2.47 2.04-2.035 2.036 2.034 2.474-2.47z"/></mask></defs><path fill="#cb1800" d="M12.894 3.136L14.93 5.17l1.06-1.056-3.098-3.096L9.8 4.114l1.056 1.057"/><g mask="url(#a)"><path d="M13.658 5.408h-3.342c-1.136 0-1.853.64-2.163 1.518h5.392v.002l.008-.002c.27 0 .482.48.482 1.066 0 .588-.213 1.064-.482 1.064H8.146c.307.888 1.026 1.535 2.17 1.535h3.343C15.222 10.593 16 9.386 16 8c.002-1.385-.775-2.592-2.342-2.592zM2.454 9.074v-.002l-.006.002c-.268 0-.484-.48-.484-1.066 0-.588.217-1.064.484-1.064h5.406c-.308-.888-1.026-1.536-2.17-1.536H2.342C.78 5.408 0 6.615 0 8c-.002 1.385.777 2.592 2.342 2.592h3.342c1.135 0 1.852-.64 2.162-1.518H2.454z"/><path d="M11.162 7.2H4.85c-.498 0-.902.36-.902.8 0 .44.404.797.902.797h6.312c.498 0 .9-.357.9-.797 0-.44-.402-.8-.9-.8z"/></g></svg>