<svg width="16" height="16" xmlns="http://www.w3.org/2000/svg" viewBox="0 0 16 16" shape-rendering="geometricPrecision" fill="#6e6e6e"><defs><mask id="a"><rect fill="#fff" width="100%" height="100%"/><path fill="#000" d="M12.892-.396l-4.507 4.51 2.47 2.47 2.04-2.035 2.036 2.034 2.474-2.47z"/></mask></defs><path fill="#cb1800" d="M12.894 3.136L14.93 5.17l1.06-1.056-3.098-3.096L9.8 4.114l1.056 1.057"/><path d="M8 1.01c-3.86 0-6.99 3.13-6.99 6.992 0 3.857 3.13 6.986 6.99 6.986 3.86 0 6.99-3.13 6.99-6.986 0-3.86-3.13-6.99-6.99-6.99zm2.732 10.236L9.047 12.93l-4.93-4.933 4.93-4.928 1.685 1.685L7.486 8l3.246 3.246z" mask="url(#a)"/></svg>