<?xml version="1.0"?><!DOCTYPE svg PUBLIC "-//W3C//DTD SVG 1.1//EN" "http://www.w3.org/Graphics/SVG/1.1/DTD/svg11.dtd"><svg xmlns="http://www.w3.org/2000/svg" viewBox="0 0 16 16" shape-rendering="geometricPrecision" fill="#6e6e6e"><defs><mask id="move_up-path"><rect fill="#fff" width="100%" height="100%"/><polygon points="12.892,-0.396 8.385,4.114 10.856,6.585 12.894,4.549 14.931,6.584 17.404,4.114 " fill="#000"/></mask></defs><polygon points="12.894,3.136 14.931,5.171 15.989,4.114 12.892,1.018 9.799,4.114 10.856,5.171 " fill="#cb1800"/><g mask="url(#move_up-path)"><g><path d="M9.341,5.662c0-1.279,1.036-2.313,2.314-2.313c1.276,0,2.312,1.034,2.312,2.313v1.148h1.413V5.662 c0-2.06-1.668-3.728-3.725-3.728c-2.06,0-3.728,1.669-3.728,3.728v1.148h1.413V5.662z M0.62,7.792v7.207h9.875V7.792H0.62z M6.426,12.594c0,0.479-0.388,0.867-0.867,0.867c-0.481,0-0.871-0.389-0.871-0.867v-2.396c0-0.478,0.39-0.866,0.868-0.866 c0.482,0,0.87,0.389,0.87,0.866V12.594z"/></g></g></svg>
