<svg width="16" height="16" xmlns="http://www.w3.org/2000/svg" viewBox="0 0 16 16" shape-rendering="geometricPrecision" fill="#6e6e6e"><defs><mask id="a"><rect fill="#fff" width="100%" height="100%"/><path fill="#000" d="M12.892-.396l-4.507 4.51 2.47 2.47 2.04-2.035 2.036 2.034 2.474-2.47z"/></mask></defs><path fill="#cb1800" d="M12.894 3.136L14.93 5.17l1.06-1.056-3.098-3.096L9.8 4.114l1.056 1.057"/><path d="M15.61 3.74c-.907 1.864-2.394 2.55-3.39 2.804.568 1.092.975 2.484 1.15 4.04 1.175-.792 3.57-2.96 2.24-6.845zm-15.22 0C-.938 7.623 1.455 9.79 2.63 10.584c.175-1.557.58-2.95 1.148-4.04-.994-.255-2.48-.94-3.388-2.806zM8 4.086c-2.366 0-4.285 3.66-4.285 8.174h8.57c0-4.513-1.918-8.173-4.284-8.173z" mask="url(#a)"/></svg>