<svg width="16" height="16" xmlns="http://www.w3.org/2000/svg" viewBox="0 0 16 16" shape-rendering="geometricPrecision" fill="#fff"><defs><mask id="a"><rect width="100%" height="100%"/><path d="M16.45 1.534c.092-.364-.003-.77-.287-1.066l-.58-.58c-.286-.288-.692-.384-1.065-.29-.194-.328-.552-.55-.962-.552h-.82c-.41 0-.77.223-.963.554-.38-.106-.813.038-1.062.288l-.575.58c-.29.286-.386.697-.292 1.066-.33.194-.55.553-.55.962v.82c0 .41.22.767.548.96-.023.094-.034.19-.034.286.002.263.14.595.325.78l.58.582c.25.248.68.393 1.063.287.194.333.555.556.963.556h.82c.298 0 .588-.12.796-.333.06-.06.112-.134.158-.216.098.025.2.03.3.036.26-.004.588-.144.77-.328l.57-.572c.216-.21.338-.503.336-.803 0-.085-.016-.178-.042-.27.333-.194.556-.553.556-.965v-.82c0-.41-.22-.767-.55-.96z" fill="#000"/></mask></defs><path d="M15.884 2.38h-.177v-.004c-.212.008-.415-.118-.5-.325-.085-.206-.03-.438.123-.585l.126-.126c.044-.045.044-.12 0-.166l-.58-.58c-.045-.046-.118-.046-.165 0l-.124.126c-.147.152-.378.21-.586.12-.206-.086-.332-.288-.326-.5V.163c0-.065-.053-.117-.118-.117h-.82c-.062 0-.116.053-.115.117V.34c.006.213-.118.415-.325.502-.208.086-.44.03-.585-.122l-.126-.126c-.045-.045-.12-.045-.165 0l-.58.58c-.044.046-.044.12 0 .165l.124.126c.154.148.21.38.124.586-.086.207-.29.333-.5.325l-.178.003c-.065 0-.117.053-.117.117v.82c0 .064.052.117.117.117h.178l-.002.002c.212-.008.415.118.5.325.086.21.03.44-.122.586l-.125.128c-.045.044-.045.12 0 .163l.578.58c.045.046.12.046.165 0l.127-.124c.146-.153.377-.208.585-.123.207.088.33.29.326.502l.003.177h-.002c.002.065.054.116.117.116h.82c.064 0 .117-.05.117-.117V5.47c-.006-.212.12-.414.326-.502.208-.085.44-.03.586.123l.124.126c.046.045.12.045.165 0l.58-.58c.046-.046.046-.12 0-.164l-.125-.13c-.153-.146-.208-.377-.122-.585.085-.206.288-.332.5-.324l.176-.004c.063 0 .116-.053.116-.117v-.82c0-.064-.053-.116-.116-.116zm-2.738 1.53c-.553 0-1-.45-1-1.004s.447-1.005 1-1.005c.553 0 1.002.45 1.002 1.006S13.7 3.91 13.146 3.91z" fill="#cb1800"/><g mask="url(#a)"><path d="M14.358 9.706c.144-.543.228-1.11.228-1.697 0-3.634-2.945-6.58-6.578-6.58-.586 0-1.15.087-1.69.23-.542-.378-1.198-.6-1.907-.6-1.85 0-3.348 1.5-3.348 3.35 0 .71.222 1.366.597 1.907-.145.54-.228 1.106-.228 1.692 0 3.632 2.945 6.577 6.578 6.577.587 0 1.154-.084 1.696-.23.537.366 1.185.58 1.883.58 1.85 0 3.35-1.5 3.35-3.35-.002-.697-.216-1.346-.582-1.88zm-2.77 4.207c-.468 0-.92-.14-1.306-.402l-.388-.263-.453.12c-.483.13-.966.194-1.432.194-3.062 0-5.552-2.49-5.552-5.552 0-.465.065-.947.193-1.428l.12-.46-.27-.387c-.27-.39-.413-.847-.413-1.322 0-1.28 1.042-2.323 2.324-2.323.476 0 .933.145 1.323.414l.39.272.458-.123c.483-.128.964-.192 1.43-.192 3.06 0 5.55 2.49 5.55 5.55 0 .468-.064.95-.193 1.433l-.12.454.264.39c.264.386.403.837.403 1.306 0 1.28-1.043 2.323-2.325 2.323z"/><path d="M10.72 8.46c-.16-.19-.352-.36-.575-.506-.222-.144-.466-.27-.73-.38l-1.2-.507c-.183-.074-.36-.146-.533-.224-.173-.078-.325-.164-.458-.26-.132-.096-.237-.205-.314-.328-.077-.123-.116-.272-.116-.443 0-.326.125-.584.375-.772.25-.188.59-.28 1.017-.28.382 0 .73.07 1.043.206.314.135.613.322.896.56l.818-1.01c-.346-.347-.76-.622-1.242-.827-.483-.207-.988-.308-1.515-.308-.437 0-.838.065-1.202.19-.364.128-.678.306-.942.532-.264.227-.47.495-.62.8-.15.304-.226.634-.226.99 0 .327.052.618.157.872.105.256.24.48.41.67.168.19.36.354.58.49.218.137.437.252.655.342l1.214.533c.2.083.387.163.56.247.172.08.32.17.444.264.122.097.218.21.286.337.068.127.103.28.103.465 0 .346-.134.623-.402.832-.27.21-.653.312-1.154.312-.417 0-.832-.092-1.24-.28-.41-.185-.775-.43-1.093-.728l-.915 1.078c.428.418.92.742 1.475.97.555.228 1.133.34 1.734.34.5 0 .95-.07 1.345-.212.396-.14.733-.33 1.01-.572.278-.24.49-.52.636-.84.147-.318.22-.66.22-1.023 0-.33-.044-.618-.13-.868-.088-.25-.212-.47-.37-.662z"/></g></svg>