<svg width="16" height="16" xmlns="http://www.w3.org/2000/svg" viewBox="0 0 16 16" shape-rendering="geometricPrecision" fill="#fff"><defs><mask id="a"><rect width="100%" height="100%"/><path d="M16.45 1.534c.092-.364-.003-.77-.287-1.066l-.58-.58c-.286-.288-.692-.384-1.065-.29-.194-.328-.552-.55-.962-.552h-.82c-.41 0-.77.223-.963.554-.38-.106-.813.038-1.062.288l-.575.58c-.29.286-.386.697-.292 1.066-.33.194-.55.553-.55.962v.82c0 .41.22.767.548.96-.023.094-.034.19-.034.286.002.263.14.595.325.78l.58.582c.25.248.68.393 1.063.287.194.333.555.556.963.556h.82c.298 0 .588-.12.796-.333.06-.06.112-.134.158-.216.098.025.2.03.3.036.26-.004.588-.144.77-.328l.57-.572c.216-.21.338-.503.336-.803 0-.085-.016-.178-.042-.27.333-.194.556-.553.556-.965v-.82c0-.41-.22-.767-.55-.96z" fill="#000"/></mask></defs><path d="M15.884 2.38h-.177v-.004c-.212.008-.415-.118-.5-.325-.085-.206-.03-.438.123-.585l.126-.126c.044-.045.044-.12 0-.166l-.58-.58c-.045-.046-.118-.046-.165 0l-.124.126c-.147.152-.378.21-.586.12-.206-.086-.332-.288-.326-.5V.163c0-.065-.053-.117-.118-.117h-.82c-.062 0-.116.053-.115.117V.34c.006.213-.118.415-.325.502-.208.086-.44.03-.585-.122l-.126-.126c-.045-.045-.12-.045-.165 0l-.58.58c-.044.046-.044.12 0 .165l.124.126c.154.148.21.38.124.586-.086.207-.29.333-.5.325l-.178.003c-.065 0-.117.053-.117.117v.82c0 .064.052.117.117.117h.178l-.002.002c.212-.008.415.118.5.325.086.21.03.44-.122.586l-.125.128c-.045.044-.045.12 0 .163l.578.58c.045.046.12.046.165 0l.127-.124c.146-.153.377-.208.585-.123.207.088.33.29.326.502l.003.177h-.002c.002.065.054.116.117.116h.82c.064 0 .117-.05.117-.117V5.47c-.006-.212.12-.414.326-.502.208-.085.44-.03.586.123l.124.126c.046.045.12.045.165 0l.58-.58c.046-.046.046-.12 0-.164l-.125-.13c-.153-.146-.208-.377-.122-.585.085-.206.288-.332.5-.324l.176-.004c.063 0 .116-.053.116-.117v-.82c0-.064-.053-.116-.116-.116zm-2.738 1.53c-.553 0-1-.45-1-1.004s.447-1.005 1-1.005c.553 0 1.002.45 1.002 1.006S13.7 3.91 13.146 3.91z" fill="#cb1800"/><g mask="url(#a)"><path d="M13.1 6.144c0-1.174-.952-2.124-2.124-2.124-1.176 0-2.125.95-2.125 2.124 0 1.175.95 2.124 2.126 2.124 1.172 0 2.124-.95 2.124-2.124zm-6.147 5.18v2.66h8.045v-2.66c0-1.126-.915-2.047-2.042-2.047H9.002c-1.127 0-2.05.92-2.05 2.047zM7.077 2.02h-4.97c-.587 0-1.067.48-1.067 1.067v2.77c0 .588.48 1.067 1.067 1.067h2.76c.053.07.865 1.12 2.328 1.347-.515-.46-.628-.962-.616-1.345h.497c.586 0 1.066-.48 1.066-1.066V3.086c0-.587-.48-1.067-1.066-1.067zM4.325 6.293H4.32c-.27 0-.458-.203-.458-.474 0-.28.192-.474.462-.474.28 0 .464.192.468.473 0 .27-.187.473-.467.473zm.63-1.94c-.193.214-.27.417-.266.65v.094h-.692l-.006-.135c-.015-.265.072-.535.307-.81.166-.203.3-.37.3-.547 0-.182-.12-.302-.38-.312-.17 0-.38.062-.513.156l-.177-.566c.192-.11.5-.214.868-.214.685 0 .997.38.997.812 0 .394-.243.654-.44.872z"/></g></svg>