<?xml version="1.0"?><!DOCTYPE svg PUBLIC "-//W3C//DTD SVG 1.1//EN" "http://www.w3.org/Graphics/SVG/1.1/DTD/svg11.dtd"><svg xmlns="http://www.w3.org/2000/svg" viewBox="0 0 16 16" shape-rendering="geometricPrecision" fill="#fff"><defs><mask id="pause-path"><rect fill="#fff" width="100%" height="100%"/><polygon points="13.135,-1 12.45,-1 9.585,-1 9.585,6.956 12.45,6.956 13.135,6.956 16,6.956 16,-1 " fill="#000"/></mask></defs><g fill="#cb1800"><g><rect x="10.585" y="0" width="1.55" height="5.956"/></g><g><rect x="13.45" y="0" width="1.55" height="5.956"/></g></g><g mask="url(#pause-path)"><path d="M12.694,4.022c-0.014,0-0.026,0.005-0.04,0.006V3.299c0-0.716-0.581-1.296-1.297-1.296H4.629 c-0.716,0-1.297,0.58-1.297,1.296v0.727c-0.009,0-0.017-0.004-0.026-0.004c-0.254,0-0.459,0.152-0.459,0.339V5.56 c0,0.188,0.206,0.339,0.459,0.339c0.009,0,0.017-0.003,0.026-0.004v1.866v5.291h0.002v0.946h1.4v-0.946h6.519v0.946h1.4v-1.77 h-0.007V7.825c0.001-0.022,0.007-0.042,0.007-0.064V5.894C12.668,5.895,12.68,5.9,12.694,5.9c0.254,0,0.459-0.152,0.459-0.339 V4.362C13.153,4.174,12.947,4.022,12.694,4.022z M5.514,11.832H4.959c-0.357,0-0.647-0.29-0.647-0.647 c0-0.357,0.29-0.647,0.647-0.647h0.555c0.357,0,0.647,0.29,0.647,0.647C6.161,11.542,5.871,11.832,5.514,11.832z M10.871,11.832 h-0.555c-0.357,0-0.647-0.29-0.647-0.647c0-0.357,0.29-0.647,0.647-0.647h0.555c0.358,0,0.647,0.29,0.647,0.647 C11.518,11.542,11.228,11.832,10.871,11.832z M11.805,7.897c0,0.646-0.49,1.169-1.093,1.169H5.275 c-0.604,0-1.093-0.523-1.093-1.169V4.104c0-0.646,0.49-1.169,1.093-1.169h5.437c0.604,0,1.093,0.523,1.093,1.169V7.897z"/></g></svg>
