<svg width="16" height="16" xmlns="http://www.w3.org/2000/svg" viewBox="0 0 16 16" shape-rendering="geometricPrecision" fill="#fff"><defs><mask id="a"><rect width="100%" height="100%"/><path fill="#000" d="M13.135-1H9.585v7.956H16V-1z"/></mask></defs><g fill="#cb1800"><path d="M10.585 0h1.55v5.956h-1.55zM13.45 0H15v5.956h-1.55z"/></g><g mask="url(#a)"><path d="M8.182 3.18l-.815-1.924h-3.78L2.77 3.18H1.65v.948l13.327-.01.018 9.284.933-.978V3.18"/><path d="M.072 4.756V14h14.28V4.756H.07zM13.25 12.93H1.04v-7h12.21v7z"/><path d="M4.628 7.063L3.38 8.31l3.65 3.652 3.65-3.65-1.245-1.25L7.03 9.466"/></g></svg>