<?xml version="1.0"?><!DOCTYPE svg PUBLIC "-//W3C//DTD SVG 1.1//EN" "http://www.w3.org/Graphics/SVG/1.1/DTD/svg11.dtd"><svg width="16px" height="16px" xmlns="http://www.w3.org/2000/svg" viewBox="0 0 16 16" shape-rendering="geometricPrecision" fill="#fff"><defs><mask id="pause-path"><rect fill="#fff" width="100%" height="100%"/><polygon points="13.135,-1 12.45,-1 9.585,-1 9.585,6.956 12.45,6.956 13.135,6.956 16,6.956 16,-1 " fill="#000"/></mask></defs><g fill="#cb1800"><g><rect x="10.585" y="0" width="1.55" height="5.956"/></g><g><rect x="13.45" y="0" width="1.55" height="5.956"/></g></g><g mask="url(#pause-path)"><g><polygon points="13.237,5.237 11.446,7.028 7.999,3.583 4.551,7.028 2.762,5.237 8.002,0"/><path d="M0,8v6.929h16V8H0z M14.413,13.495H1.588v-4.06h12.825V13.495z M12.026,11.978c0.519,0,0.939-0.416,0.939-0.93 c0-0.515-0.42-0.931-0.939-0.931c-0.521,0-0.941,0.416-0.941,0.931C11.085,11.561,11.505,11.978,12.026,11.978z"/></g></g></svg>