<?xml version="1.0"?><!DOCTYPE svg PUBLIC "-//W3C//DTD SVG 1.1//EN" "http://www.w3.org/Graphics/SVG/1.1/DTD/svg11.dtd"><svg width="16px" height="16px" xmlns="http://www.w3.org/2000/svg" viewBox="0 0 16 16" shape-rendering="geometricPrecision" fill="#fff"><defs><mask id="remove-path"><rect fill="#fff" width="100%" height="100%"/><rect x="8.986" y="1.143" width="8.014" height="3.565" fill="#000"/></mask></defs><g fill="#cb1800"><rect x="9.986" y="2.143" width="6.014" height="1.565"/></g><path mask="url(#remove-path)" d="M14.49,13.121L14.479,0H4.034C2.658,0.003,1.536,0.619,1.513,1.987c-0.003,0.025-0.003,0.529,0,0.535 v0.003c0,0.04,0.009,0.076,0.011,0.117H1.515v10.826C1.515,14.865,2.648,16,4.044,16h8.386l-0.038-1.689L12.383,2.966h-8.35 c-0.496,0-1.68-0.048-1.68-0.979V1.893c0.051-0.885,1.184-1.052,1.68-1.052h9.593v12.279H14.49z M4.525,5.765h5.506v1.247H4.525 V5.765z M4.525,8.347h5.506V9.59H4.525V8.347z"/></svg>