<?xml version="1.0"?><!DOCTYPE svg PUBLIC "-//W3C//DTD SVG 1.1//EN" "http://www.w3.org/Graphics/SVG/1.1/DTD/svg11.dtd"><svg width="16px" height="16px" xmlns="http://www.w3.org/2000/svg" viewBox="0 0 16 16" shape-rendering="geometricPrecision" fill="#fff"><defs><mask id="remove-path"><rect fill="#fff" width="100%" height="100%"/><rect x="8.986" y="1.143" width="8.014" height="3.565" fill="#000"/></mask></defs><g fill="#cb1800"><rect x="9.986" y="2.143" width="6.014" height="1.565"/></g><g mask="url(#remove-path)"><g><g><g><path d="M8,3.181c-3.471,0-6.48,1.953-8,4.82c1.52,2.865,4.529,4.818,8,4.818c3.469,0,6.479-1.953,8-4.818 C14.479,5.134,11.469,3.181,8,3.181z M7.998,12.228c-2.334,0-4.229-1.893-4.229-4.227c0-2.336,1.895-4.229,4.229-4.229 c2.336,0,4.23,1.893,4.23,4.229C12.229,10.335,10.334,12.228,7.998,12.228z"/></g></g></g><polygon points="11.792,6.774 10.446,5.429 7.178,8.696 5.468,6.987 4.124,8.331 7.18,11.386"/></g></svg>