<svg width="16" height="16" xmlns="http://www.w3.org/2000/svg" viewBox="0 0 16 16" shape-rendering="geometricPrecision" fill="#24437c"><defs><mask id="a"><rect fill="#fff" width="100%" height="100%"/><path fill="#000" d="M19.08 1.436h-4.915L12.65-3.238l-1.52 4.674H6.217l3.975 2.886-1.516 4.673 3.972-2.888 3.972 2.89-1.516-4.675z"/></mask></defs><path fill="#cb1800" d="M13.928 3.94L16 2.435h-2.56L12.647 0l-.79 2.435H9.294l2.072 1.505-.79 2.437 2.07-1.506 2.072 1.507"/><path d="M12.933 2.584H3.067c-1.166 0-2.12.953-2.12 2.12v5.503c0 1.164.954 2.12 2.12 2.12h.987c.023.76-.2 1.757-1.224 2.673 2.905-.45 4.518-2.537 4.62-2.674h5.482c1.166 0 2.12-.955 2.12-2.12V4.704c0-1.166-.953-2.12-2.12-2.12zM4.495 8.746c-.71 0-1.288-.578-1.288-1.29 0-.71.577-1.286 1.288-1.286.71 0 1.288.576 1.288 1.287 0 .71-.577 1.29-1.288 1.29zm3.505 0c-.71 0-1.29-.578-1.29-1.29 0-.71.58-1.286 1.29-1.286.71 0 1.287.576 1.287 1.287 0 .71-.576 1.29-1.287 1.29zm3.505 0c-.71 0-1.288-.578-1.288-1.29 0-.71.577-1.286 1.288-1.286.71 0 1.288.576 1.288 1.287 0 .71-.577 1.29-1.288 1.29z" mask="url(#a)"/></svg>