<?xml version="1.0"?><!DOCTYPE svg PUBLIC "-//W3C//DTD SVG 1.1//EN" "http://www.w3.org/Graphics/SVG/1.1/DTD/svg11.dtd"><svg width="16px" height="16px" xmlns="http://www.w3.org/2000/svg" viewBox="0 0 16 16" shape-rendering="geometricPrecision" fill="#24437c"><defs><mask id="new-path"><rect fill="#fff" width="100%" height="100%"/><polygon points="19.079,1.436 14.165,1.436 12.649,-3.238 11.13,1.436 6.217,1.436 10.192,4.322 8.676,8.995 12.648,6.107 16.62,8.996 15.104,4.322 " fill="#000"/></mask></defs><polygon points="13.928,3.94 16,2.435 13.439,2.435 12.648,0 11.857,2.435 9.295,2.435 11.367,3.94 10.577,6.377 12.648,4.871 14.719,6.377 " fill="#cb1800"/><g mask="url(#new-path)"><g><path d="M11.246,9.283c1.382,0,2.497-1.115,2.497-2.495c0-1.378-1.114-2.494-2.497-2.494c-1.377,0-2.496,1.116-2.496,2.494 C8.75,8.168,9.869,9.283,11.246,9.283z M0.005,12.873V16h5.081v-3.128c0.002-0.914,0.335-1.743,0.869-2.403H2.403 C1.081,10.469,0.005,11.551,0.005,12.873z M13.564,10.469H8.919c-1.323,0-2.398,1.082-2.398,2.404V16h9.45v-3.127 C15.971,11.551,14.887,10.469,13.564,10.469z M4.729,4.294c-1.377,0-2.495,1.116-2.495,2.494c0,1.38,1.118,2.495,2.495,2.495 c1.381,0,2.496-1.115,2.496-2.495C7.225,5.41,6.111,4.294,4.729,4.294z"/></g></g></svg>