<?xml version="1.0"?><!DOCTYPE svg PUBLIC "-//W3C//DTD SVG 1.1//EN" "http://www.w3.org/Graphics/SVG/1.1/DTD/svg11.dtd"><svg width="16px" height="16px" xmlns="http://www.w3.org/2000/svg" viewBox="0 0 16 16" shape-rendering="geometricPrecision" fill="#24437c"><defs><mask id="new-path"><rect fill="#fff" width="100%" height="100%"/><polygon points="19.079,1.436 14.165,1.436 12.649,-3.238 11.13,1.436 6.217,1.436 10.192,4.322 8.676,8.995 12.648,6.107 16.62,8.996 15.104,4.322 " fill="#000"/></mask></defs><polygon points="13.928,3.94 16,2.435 13.439,2.435 12.648,0 11.857,2.435 9.295,2.435 11.367,3.94 10.577,6.377 12.648,4.871 14.719,6.377 " fill="#cb1800"/><g mask="url(#new-path)"><g><path d="M11.636,3.477h-9.03c-1.423,0-2.578,1.117-2.579,2.494v4.865c0.001,1.373,1.156,2.49,2.579,2.492h0.199 c-0.098,0.396-0.33,0.832-0.844,1.285L0.363,16l2.125-0.314c2.408-0.369,3.896-1.771,4.432-2.357h4.717 c1.425-0.002,2.578-1.119,2.579-2.492V5.971C14.214,4.594,13.061,3.477,11.636,3.477z M12.934,10.836 c0,0.686-0.588,1.254-1.298,1.256H6.299l-0.191,0.246c-0.034,0.049-0.801,1.002-2.167,1.633c0.155-0.416,0.215-0.818,0.211-1.17 c0-0.025,0-0.062-0.002-0.109l-0.018-0.6H2.606c-0.71-0.002-1.298-0.57-1.298-1.256V5.971c0-0.689,0.588-1.256,1.298-1.258h9.03 c0.71,0.002,1.298,0.568,1.298,1.258V10.836z"/><path d="M13.854,1.607H3.987c-0.828,0-1.542,0.488-1.891,1.184c0.287-0.144,0.604-0.232,0.946-0.232h9.866 c1.166,0,2.119,0.951,2.119,2.117v5.504c0,0.336-0.087,0.65-0.226,0.934c0.69-0.35,1.172-1.059,1.172-1.883V3.727 C15.973,2.562,15.019,1.607,13.854,1.607z"/><rect x="2.601" y="8.631" width="8.93" height="1.244"/><rect x="2.601" y="6.051" width="8.93" height="1.246"/></g></g></svg>