<svg width="16" height="16" xmlns="http://www.w3.org/2000/svg" viewBox="0 0 16 16" shape-rendering="geometricPrecision" fill="#24437c"><defs><mask id="a"><rect fill="#fff" width="100%" height="100%"/><path fill="#000" d="M19.08 1.436h-4.915L12.65-3.238l-1.52 4.674H6.217l3.975 2.886-1.516 4.673 3.972-2.888 3.972 2.89-1.516-4.675z"/></mask></defs><path fill="#cb1800" d="M13.928 3.94L16 2.435h-2.56L12.647 0l-.79 2.435H9.294l2.072 1.505-.79 2.437 2.07-1.506 2.072 1.507"/><g mask="url(#a)"><path d="M1 8.003C1 4.135 4.136 1 8 1V2.418c-3.082.006-5.577 2.5-5.583 5.586.007 3.08 2.5 5.574 5.584 5.58 3.084-.006 5.577-2.5 5.584-5.58-.006-3.086-2.5-5.58-5.583-5.586V1c3.866 0 7 3.135 7 7.003-.002 3.863-3.134 6.994-7 6.996-3.865-.003-7-3.134-7-6.997z"/><path d="M8.463 8l-2.92 2.923 1.516 1.514 4.437-4.44L7.06 3.563 5.542 5.08"/></g></svg>