<svg width="16" height="16" xmlns="http://www.w3.org/2000/svg" viewBox="0 0 16 16" shape-rendering="geometricPrecision" fill="#24437c"><defs><mask id="a"><rect fill="#fff" width="100%" height="100%"/><path fill="#000" d="M19.08 1.436h-4.915L12.65-3.238l-1.52 4.674H6.217l3.975 2.886-1.516 4.673 3.972-2.888 3.972 2.89-1.516-4.675z"/></mask></defs><path fill="#cb1800" d="M13.928 3.94L16 2.435h-2.56L12.647 0l-.79 2.435H9.294l2.072 1.505-.79 2.437 2.07-1.506 2.072 1.507"/><g mask="url(#a)"><path d="M12.99 8.003c0 2.754-2.234 4.99-4.99 4.99-2.757 0-4.99-2.236-4.99-4.99C3.006 5.246 5.24 3.01 7.997 3.01V.893C4.073.895.89 4.08.89 8.003c0 3.92 3.183 7.104 7.107 7.104 3.92 0 7.107-3.184 7.107-7.104H12.99z"/><path d="M8.94 7.062l.002 3.916h2.035l-.002-5.956-5.95.002-.002 2.035"/></g></svg>