<?xml version="1.0"?><!DOCTYPE svg PUBLIC "-//W3C//DTD SVG 1.1//EN" "http://www.w3.org/Graphics/SVG/1.1/DTD/svg11.dtd"><svg xmlns="http://www.w3.org/2000/svg" viewBox="0 0 16 16" shape-rendering="geometricPrecision" fill="#24437c"><defs><mask id="new-path"><rect fill="#fff" width="100%" height="100%"/><polygon points="19.079,1.436 14.165,1.436 12.649,-3.238 11.13,1.436 6.217,1.436 10.192,4.322 8.676,8.995 12.648,6.107 16.62,8.996 15.104,4.322 " fill="#000"/></mask></defs><polygon points="13.928,3.94 16,2.435 13.439,2.435 12.648,0 11.857,2.435 9.295,2.435 11.367,3.94 10.577,6.377 12.648,4.871 14.719,6.377 " fill="#cb1800"/><g mask="url(#new-path)"><path d="M8.41,6.155l6.188,0.002l-0.002-6.185l-2.114,0L12.48,2.667c-2.932-2.263-7.126-2.112-9.79,0.55 c-2.895,2.895-2.832,7.604,0.086,10.53c2.929,2.918,7.635,2.981,10.533,0.09c1.425-1.426,2.141-3.311,2.138-5.191l-2.094,0.002 c0,1.355-0.507,2.689-1.525,3.709c-2.058,2.05-5.443,2.036-7.572-0.089C2.131,10.14,2.119,6.753,4.169,4.696 c1.775-1.772,4.54-1.994,6.635-0.654L8.41,4.043V6.155z"/></g></svg>
