<svg width="16" height="16" xmlns="http://www.w3.org/2000/svg" viewBox="0 0 16 16" shape-rendering="geometricPrecision" fill="#24437c"><defs><mask id="a"><rect fill="#fff" width="100%" height="100%"/><path fill="#000" d="M19.08 1.436h-4.915L12.65-3.238l-1.52 4.674H6.217l3.975 2.886-1.516 4.673 3.972-2.888 3.972 2.89-1.516-4.675z"/></mask></defs><path fill="#cb1800" d="M13.928 3.94L16 2.435h-2.56L12.647 0l-.79 2.435H9.294l2.072 1.505-.79 2.437 2.07-1.506 2.072 1.507"/><path d="M15.432 12.94l-3.595-3.593-.356-.356c1.228-2.3.902-5.214-1.038-7.156-2.378-2.374-6.23-2.374-8.61.003-2.375 2.378-2.373 6.23.003 8.605 1.94 1.94 4.855 2.267 7.158 1.037l3.952 3.95c.686.688 1.8.688 2.486 0 .69-.686.69-1.8.002-2.49zM3.104 9.17c-1.672-1.673-1.676-4.39 0-6.062 1.675-1.68 4.39-1.677 6.065-.005 1.675 1.677 1.673 4.39 0 6.066-1.677 1.675-4.392 1.675-6.066 0z" mask="url(#a)"/></svg>