<svg width="16" height="16" xmlns="http://www.w3.org/2000/svg" viewBox="0 0 16 16" shape-rendering="geometricPrecision" fill="#24437c"><defs><mask id="a"><rect fill="#fff" width="100%" height="100%"/><path fill="#000" d="M19.08 1.436h-4.915L12.65-3.238l-1.52 4.674H6.217l3.975 2.886-1.516 4.673 3.972-2.888 3.972 2.89-1.516-4.675z"/></mask></defs><path fill="#cb1800" d="M13.928 3.94L16 2.435h-2.56L12.647 0l-.79 2.435H9.294l2.072 1.505-.79 2.437 2.07-1.506 2.072 1.507"/><g mask="url(#a)"><path d="M8 5.2c1.547 0 2.8 1.254 2.8 2.802 0 1.537-1.24 2.783-2.776 2.796v1.4c2.31-.012 4.177-1.887 4.177-4.196 0-2.32-1.88-4.2-4.2-4.2S3.8 5.68 3.8 8v.01h1.4L5.197 8C5.198 6.454 6.453 5.2 8 5.2zM8 .998c-3.867 0-7 3.135-7 7.004v.01h1.4V8C2.4 4.907 4.907 2.4 8 2.4c3.094 0 5.602 2.507 5.602 5.602 0 3.083-2.495 5.586-5.577 5.6V15c3.855-.014 6.978-3.143 6.978-7 0-3.87-3.136-7.004-7.003-7.004z"/><circle cx="4.598" cy="11.221" r="2.106"/></g></svg>