<?xml version="1.0"?><!DOCTYPE svg PUBLIC "-//W3C//DTD SVG 1.1//EN" "http://www.w3.org/Graphics/SVG/1.1/DTD/svg11.dtd"><svg width="16px" height="16px" xmlns="http://www.w3.org/2000/svg" viewBox="0 0 16 16" shape-rendering="geometricPrecision" fill="#24437c"><defs><mask id="new-path"><rect fill="#fff" width="100%" height="100%"/><polygon points="19.079,1.436 14.165,1.436 12.649,-3.238 11.13,1.436 6.217,1.436 10.192,4.322 8.676,8.995 12.648,6.107 16.62,8.996 15.104,4.322 " fill="#000"/></mask></defs><polygon points="13.928,3.94 16,2.435 13.439,2.435 12.648,0 11.857,2.435 9.295,2.435 11.367,3.94 10.577,6.377 12.648,4.871 14.719,6.377 " fill="#cb1800"/><g mask="url(#new-path)"><path d="M13.997,2.942v9.965H2.958V2.942H13.997 M14.997,1.942H1.958v11.965h13.039V1.942L14.997,1.942z"/><rect x="1.958" y="4.06" width="13.054" height="1.064"/><rect x="5.871" y="4.06" width="1.064" height="9.576"/><rect x="10.102" y="4.06" width="1.064" height="9.576"/><rect x="3.985" y="5.89" width="1.106" height="1.106"/><rect x="3.985" y="10.89" width="1.106" height="1.106"/><rect x="7.932" y="8.849" width="1.106" height="1.106"/><rect x="7.932" y="6.996" width="1.106" height="1.106"/><rect x="11.942" y="9.955" width="1.106" height="1.106"/><rect x="11.942" y="8" width="1.106" height="1.106"/></g></svg>