<?xml version="1.0"?><!DOCTYPE svg PUBLIC "-//W3C//DTD SVG 1.1//EN" "http://www.w3.org/Graphics/SVG/1.1/DTD/svg11.dtd"><svg xmlns="http://www.w3.org/2000/svg" viewBox="0 0 16 16" shape-rendering="geometricPrecision" fill="#24437c"><defs><mask id="new-path"><rect fill="#fff" width="100%" height="100%"/><polygon points="19.079,1.436 14.165,1.436 12.649,-3.238 11.13,1.436 6.217,1.436 10.192,4.322 8.676,8.995 12.648,6.107 16.62,8.996 15.104,4.322 " fill="#000"/></mask></defs><polygon points="13.928,3.94 16,2.435 13.439,2.435 12.648,0 11.857,2.435 9.295,2.435 11.367,3.94 10.577,6.377 12.648,4.871 14.719,6.377 " fill="#cb1800"/><path mask="url(#new-path)" d="M14.9,4.223l-2.144-0.193c-0.665-1.139-1.984-1.804-3.359-1.566C8.062,2.695,7.062,3.711,6.782,4.955 c-0.099,0.53-0.099,1.291-0.557,2.091C4.599,7.413,2.9,7.246,2.9,7.246s0.273,1.135,2.174,2.048 c-1.721,2.305-4.06,2.705-4.06,2.705s1.001,0.983,3.196,0.725c0.803-0.095,1.504-0.457,1.826-0.646l-2.271,1.408 c0,0,1.385,0.422,4.327-0.488c3.759-1.162,4.873-4.779,4.845-6.051c0.006-0.013,0.01-0.025,0.016-0.039l2.035-0.852l-2.093-0.433 L14.9,4.223z M10.907,5.674c-0.297,0-0.539-0.322-0.539-0.719c0-0.397,0.242-0.718,0.539-0.718c0.298,0,0.539,0.321,0.539,0.718 C11.446,5.352,11.205,5.674,10.907,5.674z"/></svg>
