<svg width="16" height="16" xmlns="http://www.w3.org/2000/svg" viewBox="0 0 16 16" shape-rendering="geometricPrecision" fill="#24437c"><defs><mask id="a"><rect fill="#fff" width="100%" height="100%"/><path fill="#000" d="M19.08 1.436h-4.915L12.65-3.238l-1.52 4.674H6.217l3.975 2.886-1.516 4.673 3.972-2.888 3.972 2.89-1.516-4.675z"/></mask></defs><path fill="#cb1800" d="M13.928 3.94L16 2.435h-2.56L12.647 0l-.79 2.435H9.294l2.072 1.505-.79 2.437 2.07-1.506 2.072 1.507"/><path mask="url(#a)" d="M7.993 3.184C4.525 3.184 1.518 5.136 0 8c1.518 2.864 4.525 4.815 7.993 4.815 3.466 0 6.472-1.95 7.993-4.814-1.52-2.864-4.527-4.816-7.993-4.816zm-.82 8.2L4.12 8.33l1.343-1.343 1.71 1.708 3.264-3.265 1.345 1.344-4.61 4.61z"/></svg>