<?xml version="1.0"?><!DOCTYPE svg PUBLIC "-//W3C//DTD SVG 1.1//EN" "http://www.w3.org/Graphics/SVG/1.1/DTD/svg11.dtd"><svg xmlns="http://www.w3.org/2000/svg" viewBox="0 0 16 16" shape-rendering="geometricPrecision" fill="#24437c"><defs><mask id="new-path"><rect fill="#fff" width="100%" height="100%"/><polygon points="19.079,1.436 14.165,1.436 12.649,-3.238 11.13,1.436 6.217,1.436 10.192,4.322 8.676,8.995 12.648,6.107 16.62,8.996 15.104,4.322 " fill="#000"/></mask></defs><polygon points="13.928,3.94 16,2.435 13.439,2.435 12.648,0 11.857,2.435 9.295,2.435 11.367,3.94 10.577,6.377 12.648,4.871 14.719,6.377 " fill="#cb1800"/><g mask="url(#new-path)"><g><g><g><path d="M8,3.181c-3.471,0-6.48,1.953-8,4.82c1.52,2.865,4.529,4.818,8,4.818c3.469,0,6.479-1.953,8-4.818 C14.479,5.134,11.469,3.181,8,3.181z M7.998,12.228c-2.334,0-4.229-1.893-4.229-4.227c0-2.336,1.895-4.229,4.229-4.229 c2.336,0,4.23,1.893,4.23,4.229C12.229,10.335,10.334,12.228,7.998,12.228z"/></g></g></g></g></svg>
