<svg width="16" height="16" xmlns="http://www.w3.org/2000/svg" viewBox="0 0 16 16" shape-rendering="geometricPrecision" fill="#24437c"><defs><mask id="a"><rect fill="#fff" width="100%" height="100%"/><path fill="#000" d="M19.08 1.436h-4.915L12.65-3.238l-1.52 4.674H6.217l3.975 2.886-1.516 4.673 3.972-2.888 3.972 2.89-1.516-4.675z"/></mask></defs><path fill="#cb1800" d="M13.928 3.94L16 2.435h-2.56L12.647 0l-.79 2.435H9.294l2.072 1.505-.79 2.437 2.07-1.506 2.072 1.507"/><path d="M12.5 3.976H3.562c-.86 0-1.556.697-1.556 1.556v4.906c0 .86.697 1.556 1.556 1.556H12.5c.86 0 1.556-.697 1.556-1.556V5.532c0-.86-.697-1.556-1.556-1.556zM6.936 10.2V5.937L9.75 8.068 6.936 10.2z" mask="url(#a)"/></svg>