<svg width="16" height="16" xmlns="http://www.w3.org/2000/svg" viewBox="0 0 16 16" shape-rendering="geometricPrecision"><defs><mask id="a"><rect fill="#fff" width="100%" height="100%"/><path d="M16.383 1.058l-2.47-2.473-4.51 4.512 4.51 4.506 2.47-2.47-2.035-2.038z"/></mask></defs><path fill="#cb1800" d="M12.935 3.095l2.035-2.037L13.913 0l-3.096 3.097 3.096 3.092 1.057-1.057"/><g mask="url(#a)"><circle cx="11.279" cy="12.205" r=".769"/><circle cx="11.279" cy="7.938" r=".769"/><path d="M2.042.948V14.93h11.94V.947H2.04zm10.812 12.854H3.17v-3.138h9.683v3.138zm0-4.323H3.17V6.396h9.683V9.48zM3.17 5.212V2.077h9.683v3.136H3.17z"/><circle cx="11.279" cy="3.672" r=".769"/></g></svg>