<svg width="16" height="16" xmlns="http://www.w3.org/2000/svg" viewBox="0 0 16 16" shape-rendering="geometricPrecision"><defs><mask id="a"><rect fill="#fff" width="100%" height="100%"/><path d="M16.383 1.058l-2.47-2.473-4.51 4.512 4.51 4.506 2.47-2.47-2.035-2.038z"/></mask></defs><path fill="#cb1800" d="M12.935 3.095l2.035-2.037L13.913 0l-3.096 3.097 3.096 3.092 1.057-1.057"/><g mask="url(#a)"><path d="M11.17 3.472L9.52 5.124l3.175 3.178-3.176 3.18 1.65 1.65L16 8.304M0 1.67V14.17l6.4 1.83V2.436L3.728 1.67h4.06V14.7h1.067V.605H0V1.67zm1 .236l4.4 1.282v11.564L1 13.47V1.906z"/></g></svg>