<svg width="16" height="16" xmlns="http://www.w3.org/2000/svg" viewBox="0 0 16 16" shape-rendering="geometricPrecision"><defs><mask id="a"><rect fill="#fff" width="100%" height="100%"/><path d="M16.383 1.058l-2.47-2.473-4.51 4.512 4.51 4.506 2.47-2.47-2.035-2.038z"/></mask></defs><path fill="#cb1800" d="M12.935 3.095l2.035-2.037L13.913 0l-3.096 3.097 3.096 3.092 1.057-1.057"/><g mask="url(#a)"><path d="M13.237 5.237l-1.79 1.79-3.448-3.444-3.45 3.445-1.788-1.79L8.002 0M0 8v6.93h16V8H0zm14.413 5.495H1.588v-4.06h12.825v4.06zm-2.387-1.517c.52 0 .94-.416.94-.93 0-.515-.42-.93-.94-.93s-.94.415-.94.93c0 .513.42.93.94.93z"/></g></svg>