<?xml version="1.0"?><!DOCTYPE svg PUBLIC "-//W3C//DTD SVG 1.1//EN" "http://www.w3.org/Graphics/SVG/1.1/DTD/svg11.dtd"><svg width="16px" height="16px" xmlns="http://www.w3.org/2000/svg" viewBox="0 0 16 16" shape-rendering="geometricPrecision" fill="#ffad00"><defs><mask id="decline-path"><rect fill="#fff" width="100%" height="100%"/><polygon points="17.414,1.215 14.79,-1.414 13.066,0.308 11.344,-1.414 8.717,1.213 10.439,2.934 8.715,4.656 11.345,7.284 13.067,5.562 14.789,7.285 17.414,4.655 15.693,2.935 " fill="#000"/></mask></defs><g fill="#cb1800"><polygon points="16,4.656 14.278,2.935 16,1.214 14.789,0.001 13.066,1.722 11.344,0.001 10.132,1.213 11.854,2.934 10.13,4.656 11.345,5.87 13.067,4.147 14.789,5.87 "/></g><path mask="url(#decline-path)" d="M0,0v16h16V0H0z M15,7.876h-1.652l-1.284-2.625l-1.32,2.625h-1.1l-0.215,0.59L8.03,4.205l-1.868,7.419 L4.268,1H15V7.876z M4.22,1L2.129,7.876H1V1H4.22z M1,8.876h1.87l1.127-3.701L5.751,15H1V8.876z M6.36,15l1.797-7.203l1.222,3.722 l0.964-2.643h1.017l0.691-1.375l0.672,1.375H15V15H6.36z"/></svg>