<svg width="16" height="16" xmlns="http://www.w3.org/2000/svg" viewBox="0 0 16 16" shape-rendering="geometricPrecision" fill="#ffad00"><defs><mask id="a"><rect fill="#fff" width="100%" height="100%"/><path fill="#000" d="M17.414 1.215l-2.624-2.63L13.066.31l-1.722-1.722-2.627 2.627 1.722 1.72-1.725 1.723 2.63 2.628 1.722-1.722 1.722 1.723 2.624-2.63-1.72-1.72z"/></mask></defs><path d="M16 4.656l-1.722-1.72L16 1.213 14.79 0l-1.724 1.722-1.722-1.72-1.212 1.21 1.722 1.722-1.724 1.722 1.215 1.214 1.722-1.723L14.79 5.87" fill="#cb1800"/><g mask="url(#a)"><path d="M8 3.007L.7 5.59l3.153 1.7 4-1.688.663.303L4.52 7.65 8 9.525l7.3-3.933M3.336 7.813l-1.692.602 1.447.78.246.132"/><path d="M12.66 7.813L8 10.325 4.997 8.708v1.514l3 1.617 4.693-2.53 1.666-.895M3.9 12.542l.607.45v-5.33L3.9 7.297"/></g></svg>