<svg width="16" height="16" xmlns="http://www.w3.org/2000/svg" viewBox="0 0 16 16" shape-rendering="geometricPrecision" fill="#ffad00"><defs><mask id="a"><rect fill="#fff" width="100%" height="100%"/><path fill="#000" d="M17.414 1.215l-2.624-2.63L13.066.31l-1.722-1.722-2.627 2.627 1.722 1.72-1.725 1.723 2.63 2.628 1.722-1.722 1.722 1.723 2.624-2.63-1.72-1.72z"/></mask></defs><path d="M16 4.656l-1.722-1.72L16 1.213 14.79 0l-1.724 1.722-1.722-1.72-1.212 1.21 1.722 1.722-1.724 1.722 1.215 1.214 1.722-1.723L14.79 5.87" fill="#cb1800"/><path mask="url(#a)" d="M10.28 0L8.324 1.954l2.182 2.183h-.623l-.416.02C4.21 4.38 0 8.713 0 14.02v.63h2.994v-.63c0-1.84.717-3.57 2.017-4.872 1.303-1.3 3.034-2.018 4.874-2.018h.796L8.324 9.486l1.954 1.953L16 5.717 10.28 0z"/></svg>