<?xml version="1.0"?><!DOCTYPE svg PUBLIC "-//W3C//DTD SVG 1.1//EN" "http://www.w3.org/Graphics/SVG/1.1/DTD/svg11.dtd"><svg width="16px" height="16px" xmlns="http://www.w3.org/2000/svg" viewBox="0 0 16 16" shape-rendering="geometricPrecision" fill="#ffad00"><defs><mask id="decline-path"><rect fill="#fff" width="100%" height="100%"/><polygon points="17.414,1.215 14.79,-1.414 13.066,0.308 11.344,-1.414 8.717,1.213 10.439,2.934 8.715,4.656 11.345,7.284 13.067,5.562 14.789,7.285 17.414,4.655 15.693,2.935 " fill="#000"/></mask></defs><g fill="#cb1800"><polygon points="16,4.656 14.278,2.935 16,1.214 14.789,0.001 13.066,1.722 11.344,0.001 10.132,1.213 11.854,2.934 10.13,4.656 11.345,5.87 13.067,4.147 14.789,5.87 "/></g><path mask="url(#decline-path)" d="M10.28,0L8.324,1.954l2.182,2.183H9.883L9.467,4.158C4.211,4.38,0,8.712,0,14.02v0.63h2.994v-0.63 c0-1.839,0.717-3.569,2.017-4.872c1.302-1.301,3.033-2.018,4.873-2.018h0.629V7.129h0.167L8.324,9.487l1.954,1.953L16,5.717 L10.28,0z"/></svg>