<svg width="16" height="16" xmlns="http://www.w3.org/2000/svg" viewBox="0 0 16 16" shape-rendering="geometricPrecision" fill="#ffad00"><defs><mask id="a"><rect fill="#fff" width="100%" height="100%"/><path fill="#000" d="M17.414 1.215l-2.624-2.63L13.066.31l-1.722-1.722-2.627 2.627 1.722 1.72-1.725 1.723 2.63 2.628 1.722-1.722 1.722 1.723 2.624-2.63-1.72-1.72z"/></mask></defs><path d="M16 4.656l-1.722-1.72L16 1.213 14.79 0l-1.724 1.722-1.722-1.72-1.212 1.21 1.722 1.722-1.724 1.722 1.215 1.214 1.722-1.723L14.79 5.87" fill="#cb1800"/><g mask="url(#a)"><path d="M10.055 14.302l2.54-2.338h-2.54"/><path d="M2.595 1.016v13.97h6.008v-4.47h4.802v-9.5H2.595zm9.44 8.027h-4.79v4.6H3.916V2.32h8.116v6.725z"/><path fill-rule="evenodd" clip-rule="evenodd" d="M9.795 6.744c.643.512 1.164.3 1.088.2-.23-.297-.683-.297-1.088-.2zm.834-.288c-.645-.218-1.502 0-1.47.026-.43-.213-1.014-.523-1.334-1.54-.537-1.706 0-2.256.035-1.19l.11.724s.37-.903.13-1.562c-.208-.574-.81-.488-.846.573-.02.585.12 1.464.186 1.6 0 0-.558 1.642-1.384 2.932-.8 1.25-.85.83-.656.412.23-.496.624-.757.755-.964 0 0-.61.048-1.083.86-.3.514-.335 1.79.94.406.254-.275.614-.852.778-1.195 0 0 .742-.325 2.514-.67 0 0 .478.35 1.098.493.77.177 1.562-.454.227-.907zm-3.626.54l.645-1.48c.426.908 1.032 1.093 1.032 1.093-.263.033-1.678.387-1.678.387z"/></g></svg>