<svg width="16" height="16" xmlns="http://www.w3.org/2000/svg" viewBox="0 0 16 16" shape-rendering="geometricPrecision" fill="#ffad00"><defs><mask id="a"><rect fill="#fff" width="100%" height="100%"/><path fill="#000" d="M17.414 1.215l-2.624-2.63L13.066.31l-1.722-1.722-2.627 2.627 1.722 1.72-1.725 1.723 2.63 2.628 1.722-1.722 1.722 1.723 2.624-2.63-1.72-1.72z"/></mask></defs><path d="M16 4.656l-1.722-1.72L16 1.213 14.79 0l-1.724 1.722-1.722-1.72-1.212 1.21 1.722 1.722-1.724 1.722 1.215 1.214 1.722-1.723L14.79 5.87" fill="#cb1800"/><path d="M2.13 11.885V7.242l2.655 2.654 3.757-3.758 1.98 1.98 3.566-3.564-.92-.92-2.645 2.642-1.06-1.06.01-.008-.92-.92-3.77 3.765L2.14 5.41l-.01.01V3.74H1.038v9.242l.797-.002v.002h13.13v-1.095" mask="url(#a)"/></svg>