<svg width="16" height="16" xmlns="http://www.w3.org/2000/svg" viewBox="0 0 16 16" shape-rendering="geometricPrecision" fill="#ffad00"><defs><mask id="a"><rect fill="#fff" width="100%" height="100%"/><path fill="#000" d="M17.414 1.215l-2.624-2.63L13.066.31l-1.722-1.722-2.627 2.627 1.722 1.72-1.725 1.723 2.63 2.628 1.722-1.722 1.722 1.723 2.624-2.63-1.72-1.72z"/></mask></defs><path d="M16 4.656l-1.722-1.72L16 1.213 14.79 0l-1.724 1.722-1.722-1.72-1.212 1.21 1.722 1.722-1.724 1.722 1.215 1.214 1.722-1.723L14.79 5.87" fill="#cb1800"/><g mask="url(#a)"><path d="M12.127 5.803l-2.94 2.94c.372.335.61.817.61 1.358 0 1.016-.82 1.84-1.836 1.84s-1.836-.824-1.836-1.84c0-.56.256-1.055.652-1.392L3.834 5.765C2.688 6.857 1.97 8.395 1.97 10.102c0 3.31 2.682 5.99 5.99 5.99 3.31 0 5.992-2.682 5.992-5.99 0-1.69-.702-3.21-1.825-4.3z"/><path d="M4.004 0L1.93 2.076 7.996 8.15l6.075-6.074L11.998 0 8 3.995 4.005 0z"/></g></svg>