<?xml version="1.0"?><!DOCTYPE svg PUBLIC "-//W3C//DTD SVG 1.1//EN" "http://www.w3.org/Graphics/SVG/1.1/DTD/svg11.dtd"><svg xmlns="http://www.w3.org/2000/svg" viewBox="0 0 16 16" shape-rendering="geometricPrecision" fill="#ffad00"><defs><mask id="decline-path"><rect fill="#fff" width="100%" height="100%"/><polygon points="17.414,1.215 14.79,-1.414 13.066,0.308 11.344,-1.414 8.717,1.213 10.439,2.934 8.715,4.656 11.345,7.284 13.067,5.562 14.789,7.285 17.414,4.655 15.693,2.935 " fill="#000"/></mask></defs><g fill="#cb1800"><polygon points="16,4.656 14.278,2.935 16,1.214 14.789,0.001 13.066,1.722 11.344,0.001 10.132,1.213 11.854,2.934 10.13,4.656 11.345,5.87 13.067,4.147 14.789,5.87 "/></g><g mask="url(#decline-path)"><path d="M8.41,6.155l6.188,0.002l-0.002-6.185l-2.114,0L12.48,2.667c-2.932-2.263-7.126-2.112-9.79,0.55 c-2.895,2.895-2.832,7.604,0.086,10.53c2.929,2.918,7.635,2.981,10.533,0.09c1.425-1.426,2.141-3.311,2.138-5.191l-2.094,0.002 c0,1.355-0.507,2.689-1.525,3.709c-2.058,2.05-5.443,2.036-7.572-0.089C2.131,10.14,2.119,6.753,4.169,4.696 c1.775-1.772,4.54-1.994,6.635-0.654L8.41,4.043V6.155z"/></g></svg>
