<svg width="16" height="16" xmlns="http://www.w3.org/2000/svg" viewBox="0 0 16 16" shape-rendering="geometricPrecision" fill="#ffad00"><defs><mask id="a"><rect fill="#fff" width="100%" height="100%"/><path fill="#000" d="M17.414 1.215l-2.624-2.63L13.066.31l-1.722-1.722-2.627 2.627 1.722 1.72-1.725 1.723 2.63 2.628 1.722-1.722 1.722 1.723 2.624-2.63-1.72-1.72z"/></mask></defs><path d="M16 4.656l-1.722-1.72L16 1.213 14.79 0l-1.724 1.722-1.722-1.72-1.212 1.21 1.722 1.722-1.724 1.722 1.215 1.214 1.722-1.723L14.79 5.87" fill="#cb1800"/><g mask="url(#a)"><path d="M0 8.59h7.405V16H0zM8.555 8.59V16H16V8.59H8.555zm6.297 5.206l-1.063 1.06-1.51-1.503-1.512 1.504-1.064-1.06 1.51-1.503-1.51-1.504 1.064-1.06 1.51 1.506 1.51-1.505 1.064 1.062-1.51 1.502 1.51 1.502z"/><g><path d="M4.276.073v7.41h7.368V.073H4.276zm3.076 6.05L4.96 3.716l1.05-1.06 1.34 1.347 2.56-2.572 1.053 1.06-3.61 3.63z"/></g></g></svg>