<svg width="16" height="16" xmlns="http://www.w3.org/2000/svg" viewBox="0 0 16 16" shape-rendering="geometricPrecision" fill="#ffad00"><defs><mask id="a"><rect fill="#fff" width="100%" height="100%"/><path fill="#000" d="M17.414 1.215l-2.624-2.63L13.066.31l-1.722-1.722-2.627 2.627 1.722 1.72-1.725 1.723 2.63 2.628 1.722-1.722 1.722 1.723 2.624-2.63-1.72-1.72z"/></mask></defs><path d="M16 4.656l-1.722-1.72L16 1.213 14.79 0l-1.724 1.722-1.722-1.72-1.212 1.21 1.722 1.722-1.724 1.722 1.215 1.214 1.722-1.723L14.79 5.87" fill="#cb1800"/><g mask="url(#a)"><path d="M6.55 6.983c1.628 0 2.94-1.314 2.94-2.94S8.18 1.106 6.55 1.106c-1.622 0-2.938 1.314-2.938 2.94s1.317 2.938 2.94 2.938zM9.366 13.378l-.402-3.99.41-1c-.03 0-.06-.008-.09-.008H3.81C2.253 8.38.986 9.655.986 11.212v3.684h11.133v-3.684c0-.05-.013-.1-.016-.152l-2.736 2.318z"/><path d="M14.93 2.83c.246-.632-.06-1.35-.69-1.597-.63-.256-1.346.05-1.604.68l-.368.918 2.292.92.37-.92zm-5.117 9.446l1.04-.887-1.17-.468.13 1.354zM9.54 9.642l2.292.92L14.31 4.38l-2.293-.918-2.476 6.18z"/></g></svg>