<?xml version="1.0"?><!DOCTYPE svg PUBLIC "-//W3C//DTD SVG 1.1//EN" "http://www.w3.org/Graphics/SVG/1.1/DTD/svg11.dtd"><svg width="16px" height="16px" xmlns="http://www.w3.org/2000/svg" viewBox="0 0 16 16" shape-rendering="geometricPrecision" fill="#00962d"><defs><mask id="decline-path"><rect fill="#fff" width="100%" height="100%"/><polygon points="17.414,1.215 14.79,-1.414 13.066,0.308 11.344,-1.414 8.717,1.213 10.439,2.934 8.715,4.656 11.345,7.284 13.067,5.562 14.789,7.285 17.414,4.655 15.693,2.935 " fill="#000"/></mask></defs><g fill="#cb1800"><polygon points="16,4.656 14.278,2.935 16,1.214 14.789,0.001 13.066,1.722 11.344,0.001 10.132,1.213 11.854,2.934 10.13,4.656 11.345,5.87 13.067,4.147 14.789,5.87 "/></g><g mask="url(#decline-path)"><path d="M15.064,12.939l-0.117-4.781c0.019-0.081,0.023-0.198,0.023-0.367c0-0.663,0-0.966,0-0.966 c0-0.724,0.061-3.199,0.061-4.044s-0.725-0.181-1.026,0.905c-0.302,1.087-0.785,4.527,0.06,4.588 c0.057,0.004,0.101,0.008,0.151,0.013l-0.11,4.652H15.064z"/><path d="M3.276,5.169c0-0.613-0.209-2.736-0.418-2.736c-0.209,0-0.077,2.736-0.229,2.736 c-0.153,0-0.287-2.693-0.458-2.693h-0.01c-0.171,0-0.305,2.693-0.457,2.693S1.685,2.433,1.476,2.433 c-0.21,0-0.419,2.123-0.419,2.736c0,0.557,0.238,1.02,0.753,1.101l-0.123,6.67h0.958l-0.126-6.67 C3.036,6.19,3.276,5.728,3.276,5.169z"/><path d="M8.27,3.085c-2.63,0-4.762,2.132-4.762,4.763c0,2.63,2.132,4.762,4.762,4.762 c2.631,0,4.763-2.132,4.763-4.762C13.033,5.217,10.901,3.085,8.27,3.085z M8.27,11.181c-1.841,0-3.333-1.492-3.333-3.333 c0-1.842,1.492-3.335,3.333-3.335c1.841,0,3.334,1.493,3.334,3.335C11.604,9.688,10.111,11.181,8.27,11.181z"/></g></svg>