<svg width="16" height="16" xmlns="http://www.w3.org/2000/svg" viewBox="0 0 16 16" shape-rendering="geometricPrecision" fill="#00962d"><defs><mask id="a"><rect fill="#fff" width="100%" height="100%"/><path fill="#000" d="M17.414 1.215l-2.624-2.63L13.066.31l-1.722-1.722-2.627 2.627 1.722 1.72-1.725 1.723 2.63 2.628 1.722-1.722 1.722 1.723 2.624-2.63-1.72-1.72z"/></mask></defs><path d="M16 4.656l-1.722-1.72L16 1.213 14.79 0l-1.724 1.722-1.722-1.72-1.212 1.21 1.722 1.722-1.724 1.722 1.215 1.214 1.722-1.723L14.79 5.87" fill="#cb1800"/><path d="M2.99 14.88l11.857-4.524L11.87 7l-8.88 7.88zM0 1.472V16l1.618-1.436v-4.98h5.61l4.74-4.205 4.028 4.538.004-.002V1.473H0zm8.056 6.19H1.618V6.268h6.438V7.66zm6.327-2.845H1.618V3.426h12.765v1.392z" mask="url(#a)"/></svg>