<svg width="16" height="16" xmlns="http://www.w3.org/2000/svg" viewBox="0 0 16 16" shape-rendering="geometricPrecision" fill="#00962d"><defs><mask id="a"><rect fill="#fff" width="100%" height="100%"/><path fill="#000" d="M17.414 1.215l-2.624-2.63L13.066.31l-1.722-1.722-2.627 2.627 1.722 1.72-1.725 1.723 2.63 2.628 1.722-1.722 1.722 1.723 2.624-2.63-1.72-1.72z"/></mask></defs><path d="M16 4.656l-1.722-1.72L16 1.213 14.79 0l-1.724 1.722-1.722-1.72-1.212 1.21 1.722 1.722-1.724 1.722 1.215 1.214 1.722-1.723L14.79 5.87" fill="#cb1800"/><path d="M8 .97C4.116.97.97 4.117.97 8.003c0 3.88 3.147 7.025 7.03 7.027 3.882-.002 7.03-3.146 7.03-7.027C15.03 4.116 11.882.97 8 .97zm-.083 11.554h-.01c-.664 0-1.122-.496-1.122-1.16 0-.686.47-1.156 1.132-1.156.688 0 1.136.47 1.147 1.156 0 .664-.458 1.16-1.147 1.16zm1.543-4.75c-.472.52-.663 1.02-.65 1.594v.23H7.116l-.012-.333c-.038-.65.177-1.312.75-1.988.41-.497.742-.905.742-1.34 0-.444-.293-.737-.93-.763-.423 0-.932.152-1.262.38L5.97 4.17c.472-.27 1.223-.524 2.127-.524 1.68 0 2.446.93 2.446 1.986 0 .97-.597 1.605-1.083 2.142z" mask="url(#a)"/></svg>