<svg width="16" height="16" xmlns="http://www.w3.org/2000/svg" viewBox="0 0 16 16" shape-rendering="geometricPrecision" fill="#00962d"><defs><mask id="a"><rect fill="#fff" width="100%" height="100%"/><path fill="#000" d="M17.414 1.215l-2.624-2.63L13.066.31l-1.722-1.722-2.627 2.627 1.722 1.72-1.725 1.723 2.63 2.628 1.722-1.722 1.722 1.723 2.624-2.63-1.72-1.72z"/></mask></defs><path d="M16 4.656l-1.722-1.72L16 1.213 14.79 0l-1.724 1.722-1.722-1.72-1.212 1.21 1.722 1.722-1.724 1.722 1.215 1.214 1.722-1.723L14.79 5.87" fill="#cb1800"/><path d="M8 .97C4.116.97.97 4.117.97 8.003c0 3.88 3.147 7.025 7.03 7.027 3.882-.002 7.03-3.146 7.03-7.027C15.03 4.116 11.882.97 8 .97zm0 12.638c-3.097-.006-5.602-2.512-5.608-5.605.006-3.1 2.51-5.606 5.607-5.61 3.097.005 5.602 2.51 5.608 5.61-.006 3.094-2.51 5.6-5.61 5.605zm-.083-3.4c-.662 0-1.132.47-1.132 1.156 0 .664.458 1.16 1.12 1.16h.013c.688 0 1.147-.496 1.147-1.16-.01-.685-.46-1.156-1.148-1.156zm.18-6.563c-.904 0-1.656.256-2.127.523l.434 1.387c.33-.23.84-.38 1.262-.38.637.024.93.317.93.763 0 .434-.333.842-.74 1.338-.575.676-.79 1.338-.75 1.988l.01.332h1.695v-.228c-.012-.574.18-1.074.65-1.594.486-.537 1.083-1.174 1.083-2.143 0-1.055-.765-1.985-2.446-1.985z" mask="url(#a)"/></svg>