<?xml version="1.0"?><!DOCTYPE svg PUBLIC "-//W3C//DTD SVG 1.1//EN" "http://www.w3.org/Graphics/SVG/1.1/DTD/svg11.dtd"><svg xmlns="http://www.w3.org/2000/svg" viewBox="0 0 16 16" shape-rendering="geometricPrecision" fill="#00962d"><defs><mask id="decline-path"><rect fill="#fff" width="100%" height="100%"/><polygon points="17.414,1.215 14.79,-1.414 13.066,0.308 11.344,-1.414 8.717,1.213 10.439,2.934 8.715,4.656 11.345,7.284 13.067,5.562 14.789,7.285 17.414,4.655 15.693,2.935 " fill="#000"/></mask></defs><g fill="#cb1800"><polygon points="16,4.656 14.278,2.935 16,1.214 14.789,0.001 13.066,1.722 11.344,0.001 10.132,1.213 11.854,2.934 10.13,4.656 11.345,5.87 13.067,4.147 14.789,5.87 "/></g><g mask="url(#decline-path)"><path d="M14.9,9.115c-0.443-1.083-0.024-2.207-0.592-2.207c-0.113,0-0.265,0.044-0.47,0.142 c-1.239,0.59-1.475,0.708-1.475,0.708s-2.065-0.59-2.36-1.18C9.806,6.182,9.554,5.573,9.089,5.573 c-0.228,0-0.506,0.146-0.855,0.533c-1.062,1.18-4.012,1.829-5.487,2.419c-1.475,0.59-1.922,1.664-1.652,2.36 c0.413,1.062,1.71,1.074,1.71,1.074h11.859C14.664,11.959,15.236,9.936,14.9,9.115z M8.967,6.877 c0.01,0.02,0.019,0.039,0.027,0.055l0.059,0.121c0.28,0.561,1.046,1.059,2.268,1.486L9.448,9.577L7.997,7.631 C8.369,7.407,8.7,7.159,8.967,6.877z M9.108,10.897H8.109L6.369,8.4c0.228-0.088,0.452-0.18,0.67-0.277L9.108,10.897z M2.085,10.501c-0.035-0.111,0.132-0.62,1.056-0.99c0.362-0.145,0.853-0.304,1.373-0.472C4.783,8.952,5.057,8.863,5.333,8.77 l1.482,2.127H2.823C2.761,10.893,2.221,10.851,2.085,10.501z M13.822,10.897h-3.389l-0.344-0.461l3.562-1.973 c0.041,0.325,0.114,0.681,0.265,1.05C13.983,9.71,13.938,10.28,13.822,10.897z"/></g></svg>
