<svg width="16" height="16" xmlns="http://www.w3.org/2000/svg" viewBox="0 0 16 16" shape-rendering="geometricPrecision" fill="#00962d"><defs><mask id="a"><rect fill="#fff" width="100%" height="100%"/><path fill="#000" d="M17.414 1.215l-2.624-2.63L13.066.31l-1.722-1.722-2.627 2.627 1.722 1.72-1.725 1.723 2.63 2.628 1.722-1.722 1.722 1.723 2.624-2.63-1.72-1.72z"/></mask></defs><path d="M16 4.656l-1.722-1.72L16 1.213 14.79 0l-1.724 1.722-1.722-1.72-1.212 1.21 1.722 1.722-1.724 1.722 1.215 1.214 1.722-1.723L14.79 5.87" fill="#cb1800"/><path d="M15.235 11.444L9.643 5.85c.315-1.55-.127-3.22-1.327-4.418C6.996.114 5.122-.27 3.456.23l3.35 3.353L3.56 6.828.21 3.475c-.5 1.667-.113 3.54 1.2 4.86 1.2 1.2 2.87 1.64 4.417 1.33l5.59 5.587c.987.986 2.634.934 3.692-.124 1.052-1.052 1.106-2.705.125-3.684z" mask="url(#a)"/></svg>