<?xml version="1.0" encoding="utf-8"?>
<!-- Generator: Adobe Illustrator 14.0.0, SVG Export Plug-In . SVG Version: 6.00 Build 43363)  -->
<!DOCTYPE svg PUBLIC "-//W3C//DTD SVG 1.1//EN" "http://www.w3.org/Graphics/SVG/1.1/DTD/svg11.dtd">
<svg version="1.1" xmlns="http://www.w3.org/2000/svg" xmlns:xlink="http://www.w3.org/1999/xlink" x="0px" y="0px" width="32px"
	 height="32px" viewBox="0 0 32 32" enable-background="new 0 0 32 32" xml:space="preserve">
<g id="Icons">
	<g id="Home" display="none">
		<g display="inline">
			<polygon fill="#ABB7CE" points="15.998,6 3.015,19.368 5.132,19.368 5.132,32 12.264,32 12.264,22.122 19.734,22.122 19.734,32 
				26.869,32 26.869,19.368 28.985,19.368 			"/>
		</g>
	</g>
	<g id="Veranstaltungen" display="none">
		<path display="inline" fill="#ABB7CE" d="M16.031,5.968c-7.183,0-13.014,5.83-13.016,13.011h3.876
			c0.001-5.043,4.094-9.138,9.14-9.138c5.048,0,9.143,4.096,9.143,9.141c0,5.046-4.094,9.141-9.14,9.142V32
			c7.186-0.002,13.012-5.834,13.012-13.018C29.046,11.799,23.219,5.968,16.031,5.968z M20.921,18.982
			c0-2.698-2.191-4.888-4.89-4.888c-2.7,0-4.887,2.19-4.887,4.888c0,2.698,2.187,4.891,4.887,4.891
			C18.729,23.873,20.921,21.681,20.921,18.982z"/>
	</g>
	<g id="Einrichtungen" display="none">
		<path display="inline" fill="#ABB7CE" d="M26.678,14.542H31L16.047,5.986L1.096,14.542h4.321V29.54H3.328V32h25.443v-2.46h-2.093
			V14.542z M22.13,29.54h-3.806V14.542h3.806V29.54z M9.966,14.542h3.808V29.54H9.966V14.542z"/>
	</g>
	<g id="Community" display="none">
		<g display="inline">
			<path fill="#ABB7CE" d="M21.541,18.645c2.337,0,4.221-1.885,4.221-4.217c0-2.331-1.884-4.217-4.221-4.217
				c-2.328,0-4.219,1.886-4.219,4.217C17.322,16.76,19.213,18.645,21.541,18.645z M2.539,24.715V30h8.589v-5.288
				c0.003-1.546,0.566-2.946,1.468-4.062H6.592C4.357,20.649,2.539,22.479,2.539,24.715z M25.461,20.649h-7.854
				c-2.236,0-4.054,1.83-4.054,4.065V30h15.976v-5.285C29.529,22.479,27.697,20.649,25.461,20.649z M10.524,10.21
				c-2.327,0-4.217,1.886-4.217,4.217c0,2.333,1.89,4.217,4.217,4.217c2.336,0,4.219-1.885,4.219-4.217
				C14.744,12.097,12.86,10.21,10.524,10.21z"/>
		</g>
	</g>
	<g id="Nachrichten" display="none">
		<g display="inline">
			<path fill="#ABB7CE" d="M4,15.278V28h23.019V15.234l-11.541,9.091L4,15.278z M4,12.027v0.031l11.478,9.092l11.541-9.08v-0.043H4z
				"/>
		</g>
	</g>
	<g id="Profil" display="none">
		<path fill="#ABB7CE" d="M6.406,7.958V31h18.9V7.958H6.406z M15.881,10.65c2.433,0,4.396,1.97,4.396,4.397
			c0,2.433-1.963,4.397-4.396,4.397c-2.426,0-4.397-1.964-4.397-4.397C11.484,12.621,13.456,10.65,15.881,10.65z M23.358,29.613
			H8.407v-4.941c0-2.092,1.702-3.804,3.794-3.804h7.353c2.089,0,3.805,1.712,3.805,3.804V29.613z"/>
	</g>
	<g id="Planer" display="none">
		<path display="inline" fill="#ABB7CE" d="M11.557,23.756v-3.133l-2.32,3.133H11.557z M21.238,12.462
			c0.838,0,1.514-0.679,1.514-1.512V6.767c0-0.83-0.676-1.51-1.514-1.51c-0.836,0-1.511,0.68-1.511,1.51v4.184
			C19.728,11.783,20.402,12.462,21.238,12.462z M10.804,12.462c0.835,0,1.511-0.679,1.511-1.512V6.767c0-0.83-0.676-1.51-1.511-1.51
			c-0.839,0-1.511,0.68-1.511,1.51v4.184C9.293,11.783,9.965,12.462,10.804,12.462z M24.616,10.111v1.012
			c0,1.862-1.518,3.378-3.378,3.378c-1.873,0-3.379-1.517-3.379-3.378v-1.012h-3.678v1.012c0,1.862-1.519,3.378-3.378,3.378
			c-1.872,0-3.38-1.517-3.38-3.378v-1.012h-3.45v20.882h24.094V10.111H24.616z M15.144,25.735c-0.266,0.181-0.6,0.245-1.005,0.247
			h-0.166v1.087c0,0.417-0.088,0.776-0.324,1.036c-0.217,0.244-0.529,0.371-0.864,0.371h-0.02c-0.339,0.005-0.662-0.129-0.881-0.379
			c-0.232-0.264-0.327-0.619-0.327-1.028v-1.087h-3.42c-0.507,0-0.935-0.115-1.243-0.391c-0.3-0.268-0.445-0.653-0.444-1.077
			c0-0.128,0.023-0.255,0.068-0.38c0.043-0.122,0.105-0.241,0.185-0.361c0.071-0.112,0.146-0.219,0.225-0.322
			c0.072-0.1,0.167-0.219,0.272-0.363l3.911-5.23c0.263-0.352,0.479-0.61,0.666-0.786c0.212-0.204,0.494-0.314,0.789-0.311
			c0.425-0.003,0.807,0.129,1.058,0.419c0.25,0.289,0.35,0.684,0.351,1.152l-0.001,5.425h0.033c0.403,0,0.745,0.054,1.029,0.181
			c0.354,0.155,0.519,0.538,0.509,0.939C15.552,25.221,15.417,25.549,15.144,25.735z M23.906,27.953
			c-0.23,0.241-0.563,0.341-0.934,0.339h-5.45c-0.411,0-0.782-0.124-1.047-0.388c-0.254-0.247-0.398-0.575-0.395-0.924
			c0.001-0.248,0.084-0.51,0.225-0.822c0.142-0.312,0.301-0.57,0.491-0.771c0.655-0.682,1.251-1.268,1.783-1.758
			c0.53-0.488,0.909-0.809,1.155-0.979c0.392-0.277,0.713-0.553,0.966-0.82c0.248-0.271,0.436-0.541,0.562-0.811
			c0.125-0.272,0.184-0.527,0.184-0.769c0-0.271-0.062-0.495-0.184-0.697c-0.127-0.207-0.287-0.36-0.504-0.475
			c-0.218-0.116-0.449-0.173-0.711-0.175c-0.559,0.008-0.946,0.222-1.283,0.723c-0.01,0.01-0.105,0.222-0.215,0.539
			c-0.122,0.352-0.263,0.633-0.439,0.849c-0.201,0.251-0.521,0.374-0.859,0.368c-0.309,0.004-0.604-0.109-0.815-0.326
			c-0.225-0.222-0.327-0.533-0.325-0.865c-0.001-0.383,0.085-0.775,0.249-1.174c0.168-0.404,0.418-0.771,0.746-1.097
			c0.333-0.331,0.751-0.593,1.246-0.789c0.507-0.201,1.087-0.297,1.742-0.297c0.779,0,1.462,0.121,2.045,0.378
			c0.376,0.174,0.711,0.412,0.996,0.716c0.286,0.302,0.508,0.65,0.666,1.044c0.158,0.395,0.238,0.809,0.238,1.232
			c0,0.658-0.166,1.27-0.496,1.812c-0.312,0.516-0.635,0.93-0.979,1.239c-0.321,0.289-0.852,0.733-1.593,1.341
			c-0.733,0.598-1.236,1.064-1.491,1.377c-0.001,0.002-0.003,0.003-0.004,0.005h3.282c0.417,0,0.779,0.083,1.055,0.297
			c0.266,0.203,0.416,0.524,0.411,0.867C24.228,27.447,24.115,27.737,23.906,27.953z"/>
	</g>
	<g id="Lupe" display="none">
		<path display="inline" fill="#ABB7CE" d="M28.175,27.089l-5.877-5.875l-0.582-0.583c2.007-3.76,1.473-8.522-1.697-11.697
			C16.131,5.053,9.834,5.053,5.947,8.938C2.062,12.823,2.068,19.12,5.951,23.003c3.169,3.17,7.936,3.707,11.7,1.694l6.459,6.46
			c1.122,1.123,2.943,1.123,4.063,0.002C29.3,30.032,29.3,28.212,28.175,27.089z M8.025,20.924
			c-2.735-2.734-2.739-7.174,0.002-9.909c2.736-2.744,7.172-2.741,9.912-0.006c2.739,2.741,2.737,7.178,0.001,9.915
			C15.199,23.661,10.761,23.661,8.025,20.924z"/>
	</g>
	<g id="Tools" display="none">
		<path display="inline" fill="#ABB7CE" d="M26.288,23.562l-7.975-7.979c0.449-2.208-0.181-4.589-1.893-6.299
			c-1.88-1.88-4.555-2.429-6.929-1.715l4.775,4.782L9.639,16.98l-4.775-4.783c-0.714,2.376-0.163,5.05,1.709,6.931
			c1.711,1.712,4.093,2.339,6.301,1.895l7.972,7.971c1.407,1.405,3.758,1.33,5.266-0.178C27.611,27.316,27.688,24.958,26.288,23.562
			z"/>
	</g>
	<g id="Admin" display="none">
		<path display="inline" fill="#ABB7CE" d="M24.484,10.513c3.434,3.43,3.432,8.985,0.003,12.415
			c-2.978,2.979-7.559,3.365-10.962,1.17h-0.011v2.945l-0.019,0.018h-2.945V30H5v-5.557h0.016L5.01,24.436l4.948-4.947
			c-1.013-3.053-0.312-6.546,2.116-8.974C15.503,7.084,21.059,7.084,24.484,10.513z M19.047,15.953
			c1.08,1.08,2.829,1.078,3.909,0.001c1.08-1.081,1.08-2.83-0.001-3.91c-1.079-1.078-2.825-1.078-3.907,0
			C17.969,13.124,17.969,14.875,19.047,15.953z"/>
	</g>
	<g id="Admin_Variante" display="none">
		<g display="inline">
			<g>
				<g>
					<path fill="#ABB7CE" d="M28.801,16.756l-0.517-0.22c-0.627-0.244-1.067-0.854-1.067-1.565c0-0.713,0.44-1.32,1.067-1.565
						l0.515-0.218l0,0l0.002,0.004c0.188-0.081,0.275-0.296,0.199-0.482l-0.002-0.004c0,0,0-0.001,0-0.002l-0.191-0.463
						l-0.799-1.932c-0.02-0.047-0.048-0.088-0.083-0.122c-0.102-0.102-0.258-0.138-0.398-0.079l0.001,0.002h-0.001l-0.518,0.21
						c-0.613,0.272-1.354,0.154-1.858-0.35c-0.501-0.502-0.617-1.247-0.35-1.863l0.216-0.519c0.076-0.186-0.013-0.401-0.199-0.479
						l-2.395-0.993c-0.188-0.08-0.402,0.008-0.478,0.198l-0.221,0.516c-0.244,0.626-0.852,1.069-1.562,1.069
						c-0.708,0-1.317-0.443-1.56-1.067l-0.22-0.52c-0.079-0.186-0.294-0.273-0.481-0.197l-2.394,0.995
						c-0.188,0.077-0.278,0.292-0.2,0.482l0.213,0.517c0.272,0.615,0.155,1.358-0.347,1.863c-0.503,0.502-1.243,0.618-1.858,0.35
						v0.004l-0.519-0.22c-0.186-0.075-0.404,0.015-0.481,0.203l-0.992,2.395c-0.077,0.19,0.016,0.405,0.201,0.484l0.518,0.218
						c0.624,0.243,1.067,0.852,1.066,1.567c0,0.71-0.444,1.319-1.066,1.561l-0.516,0.225c-0.188,0.075-0.276,0.291-0.201,0.479
						l0.992,2.398c0.077,0.188,0.294,0.279,0.479,0.199l0.521-0.213c0.613-0.272,1.353-0.155,1.854,0.349
						c0.504,0.505,0.622,1.247,0.349,1.863h0.004l-0.215,0.521c-0.076,0.188,0.011,0.402,0.198,0.48l2.394,0.994
						c0.188,0.076,0.402-0.014,0.479-0.2l0.22-0.518c0.244-0.626,0.85-1.068,1.56-1.07c0.712,0.002,1.319,0.447,1.562,1.067
						l0.221,0.521c0.077,0.188,0.292,0.276,0.479,0.199l2.394-0.994c0.187-0.077,0.276-0.292,0.198-0.48l-0.216-0.52h0.002
						c-0.268-0.616-0.151-1.358,0.35-1.863c0.505-0.504,1.245-0.621,1.856-0.352h0.004l0.514,0.216
						c0.189,0.078,0.406-0.011,0.481-0.199l0.992-2.401C29.076,17.049,28.987,16.831,28.801,16.756z M21.378,17.908
						c-1.619,0.673-3.477-0.098-4.147-1.722c-0.667-1.62,0.101-3.483,1.719-4.154c1.618-0.671,3.476,0.1,4.145,1.721
						C23.766,15.378,22.994,17.236,21.378,17.908z"/>
				</g>
			</g>
			<g>
				<g>
					<path fill="#ABB7CE" d="M15.376,24.502h-0.392v-0.004c-0.469,0.014-0.917-0.263-1.106-0.722
						c-0.191-0.46-0.068-0.972,0.27-1.298l0.277-0.278c0.1-0.1,0.1-0.265,0-0.365l-1.281-1.283c-0.101-0.103-0.265-0.103-0.365,0
						L12.5,20.828c-0.323,0.339-0.834,0.463-1.295,0.27c-0.458-0.19-0.733-0.639-0.722-1.107l-0.004-0.395
						c0-0.143-0.116-0.257-0.257-0.258H8.409c-0.14,0-0.258,0.115-0.256,0.257L8.151,19.99c0.011,0.469-0.263,0.917-0.722,1.107
						c-0.459,0.191-0.97,0.067-1.293-0.27H6.134L5.856,20.55c-0.102-0.101-0.263-0.101-0.364,0l-1.28,1.284
						c-0.101,0.099-0.101,0.264,0,0.363l0.272,0.281c0.341,0.326,0.462,0.838,0.273,1.298c-0.19,0.459-0.639,0.735-1.105,0.722
						l-0.394,0.005C3.116,24.503,3,24.619,3,24.762v1.818c0,0.141,0.116,0.258,0.259,0.256h0.394L3.651,26.84
						c0.468-0.014,0.917,0.265,1.107,0.723c0.189,0.46,0.068,0.971-0.271,1.295v0.002l-0.278,0.279
						c-0.099,0.099-0.099,0.267,0,0.363l1.282,1.284c0.1,0.102,0.262,0.102,0.364,0l0.281-0.274
						c0.323-0.341,0.834-0.464,1.293-0.272c0.458,0.191,0.733,0.641,0.722,1.11l0.005,0.393H8.153C8.155,31.886,8.27,32,8.409,32
						h1.815c0.143,0,0.259-0.114,0.259-0.258H10.48l0.004-0.393c-0.012-0.47,0.264-0.917,0.722-1.11
						c0.46-0.189,0.972-0.066,1.295,0.272l0.277,0.276c0.101,0.102,0.265,0.102,0.364,0l1.282-1.284
						c0.102-0.099,0.102-0.262,0-0.361l-0.275-0.283c-0.338-0.326-0.461-0.837-0.27-1.297c0.189-0.458,0.637-0.736,1.106-0.723
						l0.392-0.006c0.142,0,0.257-0.116,0.257-0.258v-1.817C15.633,24.616,15.519,24.502,15.376,24.502z M9.316,27.895
						c-1.225,0-2.218-0.997-2.218-2.226c0-1.228,0.994-2.225,2.218-2.225c1.226,0,2.22,0.997,2.22,2.225
						C11.536,26.897,10.542,27.895,9.316,27.895z"/>
				</g>
			</g>
		</g>
	</g>
	<g id="Resourcen" display="none">
		<g display="inline">
			<g>
				<rect x="3.036" y="19.922" fill="#ABB7CE" width="12.074" height="12.078"/>
				<g>
					<g>
						<path fill="#ABB7CE" d="M16.983,19.922V32h12.136V19.922H16.983z M27.246,28.408l-1.732,1.729l-2.462-2.452l-2.463,2.453
							l-1.733-1.728l2.462-2.45l-2.461-2.451l1.731-1.726l2.464,2.452l2.462-2.452l1.733,1.729l-2.463,2.449L27.246,28.408z"/>
					</g>
				</g>
			</g>
			<g>
				<g>
					<path fill="#ABB7CE" d="M10.008,6.039v12.078H22.02V6.039H10.008z M15.022,15.898l-3.899-3.919l1.714-1.726l2.181,2.193
						l4.17-4.192l1.718,1.727L15.022,15.898z"/>
				</g>
			</g>
		</g>
	</g>
	<g>
		<rect x="3" y="10" fill="#ABB7CE" width="26" height="2"/>
		<path fill="#ABB7CE" d="M3,30h26V13H3V30z M21,16.725h6V23h-6V16.725z M6,15h5.622v4H17v8h-6v-5.89H6V15z"/>
	</g>
</g>
<g id="Zusätze" display="none">
	<g id="Neu" display="inline">
		<polygon fill="#CB1800" points="28.91,5.878 32,3.633 28.18,3.633 27,0 25.819,3.633 22,3.633 25.09,5.878 23.91,9.511 27,7.266 
			30.09,9.511 		"/>
	</g>
</g>
<g id="Messageboxen" display="none">
	<g id="Info" display="inline">
		<g>
			<g>
				<g>
					<g>
						<g>
							<path fill="#557ED6" d="M16.031,0C7.178,0,0,7.178,0,16.035c0,8.85,7.178,16.027,16.031,16.027
								c8.854,0,16.031-7.178,16.031-16.027C32.062,7.178,24.885,0,16.031,0z"/>
						</g>
					</g>
				</g>
			</g>
		</g>
		<g>
			<path fill="#FFFFFF" d="M16.088,8.213c1.638,0,2.963-1.335,2.963-2.961c0-1.642-1.325-2.965-2.963-2.965
				c-1.636,0-2.967,1.323-2.967,2.965C13.121,6.878,14.452,8.213,16.088,8.213z M19.012,25.264V11.247h-8.877v2.202h2.912v11.815
				h-2.92v2.938h11.809v-2.938H19.012z"/>
		</g>
	</g>
	<g id="Error">
		<g display="inline">
			<g>
				<g>
					<g>
						<g>
							<path fill="#D43333" d="M15.984,0.031C7.157,0.031,0,7.188,0,16.02C0,24.843,7.157,32,15.984,32s15.984-7.157,15.984-15.98
								C31.969,7.188,24.812,0.031,15.984,0.031z"/>
						</g>
					</g>
				</g>
			</g>
		</g>
		<g display="inline">
			<path fill="#FFFFFF" d="M15.967,27.941c-1.844,0-3.099-1.358-3.099-3.167c0-1.846,1.288-3.167,3.132-3.167
				c1.85,0,3.069,1.321,3.099,3.167c0,1.809-1.214,3.167-3.099,3.167H15.967z M14.016,19.863l-0.8-15.773h5.539l-0.769,15.773
				H14.016z"/>
		</g>
	</g>
	<g id="Exception">
		<g display="inline">
			<g>
				<g>
					<g>
						<g>
							<path fill="#D43333" d="M15.984,0C7.157,0,0,7.157,0,15.988c0,8.823,7.157,15.98,15.984,15.98s15.984-7.157,15.984-15.98
								C31.969,7.157,24.812,0,15.984,0z"/>
						</g>
					</g>
				</g>
			</g>
		</g>
		<g display="inline">
			<polygon fill="#FFFFFF" points="25.304,21.448 19.836,15.986 25.304,10.519 21.456,6.666 15.984,12.133 10.521,6.666 
				6.673,10.517 12.137,15.98 6.666,21.45 10.521,25.304 15.992,19.834 21.456,25.302 			"/>
		</g>
	</g>
	<g id="Success">
		<g display="inline">
			<g>
				<g>
					<g>
						<g>
							<path fill="#629756" d="M15.984,0C7.157,0,0,7.157,0,15.988c0,8.823,7.157,15.98,15.984,15.98s15.984-7.157,15.984-15.98
								C31.969,7.157,24.812,0,15.984,0z"/>
						</g>
					</g>
				</g>
			</g>
		</g>
		<polygon display="inline" fill="#FFFFFF" points="26.983,11.301 23.124,7.438 13.748,16.815 8.839,11.91 4.985,15.766 
			13.752,24.53 		"/>
	</g>
	<g id="Question">
		<g display="inline">
			<g>
				<g>
					<g>
						<g>
							<path fill="#DFA438" d="M15.984,0C7.157,0,0,7.157,0,15.988c0,8.823,7.157,15.98,15.984,15.98s15.984-7.157,15.984-15.98
								C31.969,7.157,24.812,0,15.984,0z"/>
						</g>
					</g>
				</g>
			</g>
		</g>
		<path display="inline" fill="#FFFFFF" d="M15.075,21.686c-1.778,0-3.044,1.267-3.044,3.114c0,1.779,1.233,3.114,3.013,3.114h0.031
			c1.85,0,3.083-1.335,3.083-3.114C18.129,22.952,16.925,21.686,15.075,21.686z M15.557,4.057c-2.429,0-4.449,0.685-5.715,1.407
			l1.165,3.729c0.886-0.619,2.257-1.026,3.389-1.026c1.713,0.066,2.5,0.854,2.5,2.057c0,1.161-0.894,2.257-1.99,3.59
			c-1.542,1.815-2.119,3.595-2.018,5.339l0.033,0.892h4.553v-0.61c-0.031-1.542,0.478-2.88,1.746-4.285
			c1.303-1.438,2.907-3.147,2.907-5.752C22.127,6.556,20.072,4.057,15.557,4.057z"/>
	</g>
</g>
</svg>
