<svg width="16" height="16" xmlns="http://www.w3.org/2000/svg" viewBox="0 0 16 16" shape-rendering="geometricPrecision"><defs><mask id="a"><rect fill="#fff" width="100%" height="100%"/><path d="M14.782 1.217V-1h-3.564v2.217H9V4.78h2.218V7h3.564V4.78H17V1.217z"/></mask></defs><path fill="#cb1800" d="M16 2.217h-2.218V0h-1.564v2.217H10V3.78h2.218V6h1.564V3.78H16"/><g mask="url(#a)"><path d="M8 1.06c-3.832 0-6.938 3.108-6.938 6.942 0 3.83 3.106 6.934 6.94 6.936 3.83-.002 6.935-3.106 6.936-6.936 0-3.833-3.105-6.94-6.937-6.94zm0 12.474c-3.056-.006-5.528-2.478-5.535-5.53C2.472 4.943 4.945 2.47 8 2.465c3.057.006 5.53 2.48 5.535 5.537-.006 3.054-2.478 5.525-5.534 5.53z"/><path d="M6.978 3.327v4.305l-2.666 1.55 1.055 1.847 3.718-2.16h.022l-.003-5.542"/></g></svg>