<svg width="16" height="16" xmlns="http://www.w3.org/2000/svg" viewBox="0 0 16 16" shape-rendering="geometricPrecision"><defs><mask id="a"><rect fill="#fff" width="100%" height="100%"/><path d="M14.782 1.217V-1h-3.564v2.217H9V4.78h2.218V7h3.564V4.78H17V1.217z"/></mask></defs><path fill="#cb1800" d="M16 2.217h-2.218V0h-1.564v2.217H10V3.78h2.218V6h1.564V3.78H16"/><g mask="url(#a)"><path d="M8.182 3.18l-.815-1.924h-3.78L2.77 3.18H1.65v.948l13.327-.01.018 9.284.933-.978V3.18"/><path d="M.072 4.756V14h14.28V4.756H.07zM13.25 12.93H1.04v-7h12.21v7z"/><path d="M4.628 7.063L3.38 8.31l3.65 3.652 3.65-3.65-1.245-1.25L7.03 9.466"/></g></svg>