<svg width="16" height="16" xmlns="http://www.w3.org/2000/svg" viewBox="0 0 16 16" shape-rendering="geometricPrecision"><defs><mask id="a"><rect fill="#fff" width="100%" height="100%"/><path d="M14.782 1.217V-1h-3.564v2.217H9V4.78h2.218V7h3.564V4.78H17V1.217z"/></mask></defs><path fill="#cb1800" d="M16 2.217h-2.218V0h-1.564v2.217H10V3.78h2.218V6h1.564V3.78H16"/><path d="M8.032 4.168c.888 0 1.605-.72 1.605-1.603C9.637 1.677 8.92.96 8.032.96c-.888 0-1.606.718-1.606 1.605 0 .882.718 1.603 1.606 1.603zm1.583 9.235v-7.59H4.807v1.193h1.576v6.397h-1.58v1.59h6.394v-1.59H9.615z" mask="url(#a)"/></svg>