<svg width="16" height="16" xmlns="http://www.w3.org/2000/svg" viewBox="0 0 16 16" shape-rendering="geometricPrecision"><defs><mask id="a"><rect fill="#fff" width="100%" height="100%"/><path d="M14.782 1.217V-1h-3.564v2.217H9V4.78h2.218V7h3.564V4.78H17V1.217z"/></mask></defs><path fill="#cb1800" d="M16 2.217h-2.218V0h-1.564v2.217H10V3.78h2.218V6h1.564V3.78H16"/><path d="M8.036 3.658c1.012 0 1.83-.822 1.83-1.828C9.866.818 9.048 0 8.036 0S6.204.818 6.204 1.83c0 1.006.82 1.828 1.832 1.828zm1.805 10.53V5.53H4.36v1.362h1.797v7.295H4.354V16h7.29v-1.813H9.842z" mask="url(#a)"/></svg>