<svg width="16" height="16" xmlns="http://www.w3.org/2000/svg" viewBox="0 0 16 16" shape-rendering="geometricPrecision"><defs><mask id="a"><rect fill="#fff" width="100%" height="100%"/><path d="M14.782 1.217V-1h-3.564v2.217H9V4.78h2.218V7h3.564V4.78H17V1.217z"/></mask></defs><path fill="#cb1800" d="M16 2.217h-2.218V0h-1.564v2.217H10V3.78h2.218V6h1.564V3.78H16"/><path d="M13.03 11.953s-.89 0-1.015-.806c-.187-1.197-.66-4.542-.66-4.542h-.008c-.233-1.326-1.228-2.38-2.52-2.704 0-.02.01-.038.01-.06 0-.47-.38-.85-.85-.85s-.853.38-.853.85c0 .025.012.045.014.07-1.28.33-2.264 1.378-2.495 2.696h-.007s-.5 3.352-.663 4.557c-.106.79-1.014.79-1.014.79v1.032h2.133c.2.598.756 1.03 1.42 1.03s1.222-.433 1.42-1.03h5.087v-1.032z" mask="url(#a)"/></svg>