<?xml version="1.0"?><!DOCTYPE svg PUBLIC "-//W3C//DTD SVG 1.1//EN" "http://www.w3.org/Graphics/SVG/1.1/DTD/svg11.dtd"><svg width="16px" height="16px" xmlns="http://www.w3.org/2000/svg" viewBox="0 0 16 16" shape-rendering="geometricPrecision" fill="#000"><defs><mask id="add-path"><rect fill="#fff" width="100%" height="100%"/><polygon points="14.782,1.217 14.782,-1 11.218,-1 11.218,1.217 9,1.217 9,4.78 11.218,4.78 11.218,7.001 14.782,7.001 14.782,4.78 17,4.78 17,1.217 " fill="#000"/></mask></defs><polygon points="16,2.217 13.782,2.217 13.782,0 12.218,0 12.218,2.217 10,2.217 10,3.78 12.218,3.78 12.218,6.001 13.782,6.001 13.782,3.78 16,3.78 " fill="#cb1800"/><g mask="url(#add-path)"><g><g><rect x="-0.001" y="8.59" width="7.406" height="7.41"/><g><g><path d="M8.555,8.59V16H16V8.59H8.555z M14.852,13.796l-1.063,1.061l-1.51-1.504l-1.511,1.504l-1.064-1.06l1.511-1.503 l-1.51-1.504l1.063-1.059l1.511,1.505l1.51-1.505l1.063,1.061l-1.511,1.502L14.852,13.796z"/></g></g></g><g><g><path d="M4.276,0.073v7.41h7.368v-7.41H4.276z M7.352,6.122L4.96,3.717l1.051-1.059L7.35,4.004l2.559-2.572l1.054,1.06 L7.352,6.122z"/></g></g></g></g></svg>