<svg width="16" height="16" xmlns="http://www.w3.org/2000/svg" viewBox="0 0 16 16" shape-rendering="geometricPrecision"><defs><mask id="a"><rect fill="#fff" width="100%" height="100%"/><path d="M14.782 1.217V-1h-3.564v2.217H9V4.78h2.218V7h3.564V4.78H17V1.217z"/></mask></defs><path fill="#cb1800" d="M16 2.217h-2.218V0h-1.564v2.217H10V3.78h2.218V6h1.564V3.78H16"/><path d="M11.23 3.39c.004-.045.01-.09.01-.137 0-1.79-1.45-3.24-3.24-3.24-1.392 0-2.572.874-3.032 2.103l1.31.4c.287-.667.95-1.135 1.723-1.135 1.034 0 1.872.84 1.872 1.873 0 .527-.22 1.002-.57 1.342-.584.62-1.028.62-2.174 1.236-1.828.983-2.273 2.51-2.37 3.413v6.745h6.483v-12.6h-.01v.002zm-.81 10.615L9.4 15.028l-1.453-1.453-1.452 1.454-1.023-1.025 1.453-1.453-1.452-1.45 1.022-1.023 1.45 1.45L9.4 10.08l1.02 1.02-1.453 1.452 1.452 1.453z" mask="url(#a)"/></svg>