<svg width="16" height="16" xmlns="http://www.w3.org/2000/svg" viewBox="0 0 16 16" shape-rendering="geometricPrecision" fill="#ffad00"><defs><mask id="a"><rect fill="#fff" width="100%" height="100%"/><path d="M12.997.858c-1.845 0-3.446 1.04-4.253 2.563.808 1.524 2.408 2.563 4.253 2.563 1.844 0 3.444-1.04 4.253-2.562C16.44 1.898 14.84.86 12.997.86z" fill="#000"/></mask></defs><path d="M12.97 1.607c-1.314 0-2.453.74-3.028 1.825.575 1.085 1.715 1.825 3.03 1.825 1.313 0 2.452-.74 3.028-1.825-.576-1.084-1.716-1.825-3.03-1.825z" fill="#cb1800"/><path d="M14.814 2.33L12.486 0 8 4.484 3.51 0 1.186 2.33l6.818 6.813 6.81-6.812zM8 11.34L3.51 6.854l-2.325 2.33L8.003 16l6.81-6.814-2.327-2.33L8 11.34z" mask="url(#a)"/></svg>