<svg width="16" height="16" xmlns="http://www.w3.org/2000/svg" viewBox="0 0 16 16" shape-rendering="geometricPrecision" fill="#ffad00"><defs><mask id="a"><rect fill="#fff" width="100%" height="100%"/><path d="M12.997.858c-1.845 0-3.446 1.04-4.253 2.563.808 1.524 2.408 2.563 4.253 2.563 1.844 0 3.444-1.04 4.253-2.562C16.44 1.898 14.84.86 12.997.86z" fill="#000"/></mask></defs><path d="M12.97 1.607c-1.314 0-2.453.74-3.028 1.825.575 1.085 1.715 1.825 3.03 1.825 1.313 0 2.452-.74 3.028-1.825-.576-1.084-1.716-1.825-3.03-1.825z" fill="#cb1800"/><path d="M5.97 12.85l1.54-.58-1.132-1.008-.407 1.587zm4.752-7.578v-2.87H0V15.94H10.72V9.75l3.57-4.01-2.222-1.983-1.348 1.515zM9.618 6.514L6.74 9.748l2.22 1.983.658-.738v3.843H1.1V3.505h8.518v3.01zm5.884-4.373c-.61-.546-1.546-.492-2.096.114l-.792.89 2.222 1.984.796-.893h-.002c.538-.614.482-1.55-.128-2.094zM6.456 7.634H2.533v1.103h3.923V7.633zM4.863 5.29h-2.33v1.103h2.33V5.29z" mask="url(#a)"/></svg>