<svg width="16" height="16" xmlns="http://www.w3.org/2000/svg" viewBox="0 0 16 16" shape-rendering="geometricPrecision" fill="#ffad00"><defs><mask id="a"><rect fill="#fff" width="100%" height="100%"/><path d="M12.997.858c-1.845 0-3.446 1.04-4.253 2.563.808 1.524 2.408 2.563 4.253 2.563 1.844 0 3.444-1.04 4.253-2.562C16.44 1.898 14.84.86 12.997.86z" fill="#000"/></mask></defs><path d="M12.97 1.607c-1.314 0-2.453.74-3.028 1.825.575 1.085 1.715 1.825 3.03 1.825 1.313 0 2.452-.74 3.028-1.825-.576-1.084-1.716-1.825-3.03-1.825z" fill="#cb1800"/><path d="M8 .97C4.116.97.97 4.117.97 8.003c0 3.88 3.147 7.025 7.03 7.027 3.882-.002 7.03-3.146 7.03-7.027C15.03 4.116 11.882.97 8 .97zm-.083 11.554h-.01c-.664 0-1.122-.496-1.122-1.16 0-.686.47-1.156 1.132-1.156.688 0 1.136.47 1.147 1.156 0 .664-.458 1.16-1.147 1.16zm1.543-4.75c-.472.52-.663 1.02-.65 1.594v.23H7.116l-.012-.333c-.038-.65.177-1.312.75-1.988.41-.497.742-.905.742-1.34 0-.444-.293-.737-.93-.763-.423 0-.932.152-1.262.38L5.97 4.17c.472-.27 1.223-.524 2.127-.524 1.68 0 2.446.93 2.446 1.986 0 .97-.597 1.605-1.083 2.142z" mask="url(#a)"/></svg>