<svg width="16" height="16" xmlns="http://www.w3.org/2000/svg" viewBox="0 0 16 16" shape-rendering="geometricPrecision" fill="#ffad00"><defs><mask id="a"><rect fill="#fff" width="100%" height="100%"/><path d="M12.997.858c-1.845 0-3.446 1.04-4.253 2.563.808 1.524 2.408 2.563 4.253 2.563 1.844 0 3.444-1.04 4.253-2.562C16.44 1.898 14.84.86 12.997.86z" fill="#000"/></mask></defs><path d="M12.97 1.607c-1.314 0-2.453.74-3.028 1.825.575 1.085 1.715 1.825 3.03 1.825 1.313 0 2.452-.74 3.028-1.825-.576-1.084-1.716-1.825-3.03-1.825z" fill="#cb1800"/><g mask="url(#a)"><path d="M14.358 9.706c.144-.543.228-1.11.228-1.697 0-3.634-2.945-6.58-6.578-6.58-.586 0-1.15.087-1.69.23-.542-.378-1.198-.6-1.907-.6-1.85 0-3.348 1.5-3.348 3.35 0 .71.222 1.366.597 1.907-.145.54-.228 1.106-.228 1.692 0 3.632 2.945 6.577 6.578 6.577.587 0 1.154-.084 1.696-.23.537.366 1.185.58 1.883.58 1.85 0 3.35-1.5 3.35-3.35-.002-.697-.216-1.346-.582-1.88zm-2.77 4.207c-.468 0-.92-.14-1.306-.402l-.388-.263-.453.12c-.483.13-.966.194-1.432.194-3.062 0-5.552-2.49-5.552-5.552 0-.465.065-.947.193-1.428l.12-.46-.27-.387c-.27-.39-.413-.847-.413-1.322 0-1.28 1.042-2.323 2.324-2.323.476 0 .933.145 1.323.414l.39.272.458-.123c.483-.128.964-.192 1.43-.192 3.06 0 5.55 2.49 5.55 5.55 0 .468-.064.95-.193 1.433l-.12.454.264.39c.264.386.403.837.403 1.306 0 1.28-1.043 2.323-2.325 2.323z"/><path d="M10.72 8.46c-.16-.19-.352-.36-.575-.506-.222-.144-.466-.27-.73-.38l-1.2-.507c-.183-.074-.36-.146-.533-.224-.173-.078-.325-.164-.458-.26-.132-.096-.237-.205-.314-.328-.077-.123-.116-.272-.116-.443 0-.326.125-.584.375-.772.25-.188.59-.28 1.017-.28.382 0 .73.07 1.043.206.314.135.613.322.896.56l.818-1.01c-.346-.347-.76-.622-1.242-.827-.483-.207-.988-.308-1.515-.308-.437 0-.838.065-1.202.19-.364.128-.678.306-.942.532-.264.227-.47.495-.62.8-.15.304-.226.634-.226.99 0 .327.052.618.157.872.105.256.24.48.41.67.168.19.36.354.58.49.218.137.437.252.655.342l1.214.533c.2.083.387.163.56.247.172.08.32.17.444.264.122.097.218.21.286.337.068.127.103.28.103.465 0 .346-.134.623-.402.832-.27.21-.653.312-1.154.312-.417 0-.832-.092-1.24-.28-.41-.185-.775-.43-1.093-.728l-.915 1.078c.428.418.92.742 1.475.97.555.228 1.133.34 1.734.34.5 0 .95-.07 1.345-.212.396-.14.733-.33 1.01-.572.278-.24.49-.52.636-.84.147-.318.22-.66.22-1.023 0-.33-.044-.618-.13-.868-.088-.25-.212-.47-.37-.662z"/></g></svg>