<svg width="16" height="16" xmlns="http://www.w3.org/2000/svg" viewBox="0 0 16 16" shape-rendering="geometricPrecision" fill="#ffad00"><defs><mask id="a"><rect fill="#fff" width="100%" height="100%"/><path d="M12.997.858c-1.845 0-3.446 1.04-4.253 2.563.808 1.524 2.408 2.563 4.253 2.563 1.844 0 3.444-1.04 4.253-2.562C16.44 1.898 14.84.86 12.997.86z" fill="#000"/></mask></defs><path d="M12.97 1.607c-1.314 0-2.453.74-3.028 1.825.575 1.085 1.715 1.825 3.03 1.825 1.313 0 2.452-.74 3.028-1.825-.576-1.084-1.716-1.825-3.03-1.825z" fill="#cb1800"/><path d="M13.078 2.394C11.292.612 8.42.628 6.634 2.404l-5.05 5.052.904.902 5.05-5.05c1.29-1.29 3.354-1.297 4.64-.01 1.28 1.283 1.283 3.364 0 4.65l-5.05 5.05c-.882.88-2.305.89-3.187.008-.877-.882-.877-2.312 0-3.194L8.364 5.39c.488-.483 1.254-.484 1.733-.007.478.478.476 1.255-.002 1.734L5.67 11.542l.9.9 4.424-4.423c.976-.978.98-2.563.003-3.54-.978-.972-2.543-.962-3.52-.002h-.003L3.04 8.907c-1.38 1.38-1.378 3.62 0 5 1.38 1.376 3.61 1.365 4.99-.01l5.05-5.05c1.785-1.785 1.78-4.672-.002-6.454z" mask="url(#a)"/></svg>