<svg width="16" height="16" xmlns="http://www.w3.org/2000/svg" viewBox="0 0 16 16" shape-rendering="geometricPrecision" fill="#ffad00"><defs><mask id="a"><rect fill="#fff" width="100%" height="100%"/><path d="M12.997.858c-1.845 0-3.446 1.04-4.253 2.563.808 1.524 2.408 2.563 4.253 2.563 1.844 0 3.444-1.04 4.253-2.562C16.44 1.898 14.84.86 12.997.86z" fill="#000"/></mask></defs><path d="M12.97 1.607c-1.314 0-2.453.74-3.028 1.825.575 1.085 1.715 1.825 3.03 1.825 1.313 0 2.452-.74 3.028-1.825-.576-1.084-1.716-1.825-3.03-1.825z" fill="#cb1800"/><g mask="url(#a)"><path d="M8 3.18C4.53 3.18 1.52 5.135 0 8c1.52 2.866 4.53 4.82 8 4.82 3.47 0 6.48-1.954 8-4.82-1.52-2.866-4.53-4.82-8-4.82zm-.002 9.048c-2.334 0-4.23-1.893-4.23-4.227 0-2.335 1.896-4.228 4.23-4.228 2.336 0 4.23 1.893 4.23 4.23 0 2.333-1.894 4.226-4.23 4.226z"/><path d="M11.792 6.774L10.446 5.43 7.178 8.695l-1.71-1.71-1.344 1.345 3.056 3.056"/></g></svg>