<svg width="16" height="16" xmlns="http://www.w3.org/2000/svg" viewBox="0 0 16 16" shape-rendering="geometricPrecision" fill="#00962d"><defs><mask id="a"><rect fill="#fff" width="100%" height="100%"/><path d="M17.514 2.67l-.862-.55L16.65-1h-2.866v.558c-1.334-.3-2.758.103-3.723 1.067-1.568 1.57-1.553 4.14.036 5.732.78.777 1.81 1.205 2.9 1.205 1.072 0 2.078-.415 2.832-1.168C16.585 5.64 17 4.63 17 3.557V2.67h.514zm-3.373.888c0 .22-.057.54-.332.813-.443.444-1.23.427-1.69-.034-.475-.475-.49-1.234-.036-1.69.01-.01.02-.02.033-.03v.922h2.026v.02z" fill="#000"/></mask></defs><path d="M13.114 2.537h2.538V0h-.868v1.105c-1.204-.927-2.924-.863-4.016.227-1.187 1.188-1.162 3.12.035 4.317 1.2 1.197 3.13 1.223 4.32.036.584-.584.878-1.357.877-2.128h-.86c0 .558-.207 1.103-.626 1.522-.843.842-2.23.836-3.104-.036-.87-.872-.877-2.26-.035-3.105.73-.728 1.86-.82 2.72-.27h-.982v.867z" fill="#cb1800"/><g mask="url(#a)"><path d="M9.284 2.017c-.438 0-.546.125-.735.747l-2.88 9.274c-.168.554-.277.904-.277 1.108 0 .544.408.78.725.78.437 0 .546-.124.734-.746L9.73 3.907c.17-.555.277-.906.277-1.108 0-.546-.405-.783-.723-.783zM4.523 3.425c.132-.414-.12-.725-.362-.826-.332-.14-.445-.08-.74.334L.583 6.854c-.193.27-.315.452-.397.598-.025.037-.045.076-.063.12-.005.01-.02.03-.022.038-.005.018 0 .032-.006.05-.014.052-.02.105-.02.165 0 .06.006.115.02.168.005.017 0 .03.006.047.003.01.017.027.02.038.02.045.04.084.066.122.082.147.203.327.396.598l2.834 3.92c.296.412.41.474.742.336.243-.102.494-.413.362-.828-.05-.152-.22-.387-.482-.756L1.405 7.825 4.04 4.182c.264-.37.433-.603.483-.757zM15.988 7.825c0-.06-.006-.114-.02-.168-.004-.017 0-.03-.005-.047-.003-.01-.017-.027-.02-.038-.02-.044-.04-.083-.065-.12-.082-.146-.203-.328-.397-.6l-2.834-3.918c-.296-.414-.41-.475-.742-.336-.243.102-.495.412-.362.826.05.154.22.39.48.758l2.638 3.643-2.637 3.645c-.263.368-.432.604-.48.756-.134.415.118.727.36.828.334.138.447.076.743-.337l2.835-3.92c.193-.27.314-.448.396-.596.027-.037.048-.078.066-.123.004-.01.017-.027.02-.037.005-.017 0-.03.005-.045.015-.054.022-.11.02-.17z"/></g></svg>