<svg width="16" height="16" xmlns="http://www.w3.org/2000/svg" viewBox="0 0 16 16" shape-rendering="geometricPrecision" fill="#00962d"><defs><mask id="a"><rect fill="#fff" width="100%" height="100%"/><path d="M17.514 2.67l-.862-.55L16.65-1h-2.866v.558c-1.334-.3-2.758.103-3.723 1.067-1.568 1.57-1.553 4.14.036 5.732.78.777 1.81 1.205 2.9 1.205 1.072 0 2.078-.415 2.832-1.168C16.585 5.64 17 4.63 17 3.557V2.67h.514zm-3.373.888c0 .22-.057.54-.332.813-.443.444-1.23.427-1.69-.034-.475-.475-.49-1.234-.036-1.69.01-.01.02-.02.033-.03v.922h2.026v.02z" fill="#000"/></mask></defs><path d="M13.114 2.537h2.538V0h-.868v1.105c-1.204-.927-2.924-.863-4.016.227-1.187 1.188-1.162 3.12.035 4.317 1.2 1.197 3.13 1.223 4.32.036.584-.584.878-1.357.877-2.128h-.86c0 .558-.207 1.103-.626 1.522-.843.842-2.23.836-3.104-.036-.87-.872-.877-2.26-.035-3.105.73-.728 1.86-.82 2.72-.27h-.982v.867z" fill="#cb1800"/><g mask="url(#a)"><path d="M12.127 5.803l-2.94 2.94c.372.335.61.817.61 1.358 0 1.016-.82 1.84-1.836 1.84s-1.836-.824-1.836-1.84c0-.56.256-1.055.652-1.392L3.834 5.765C2.688 6.857 1.97 8.395 1.97 10.102c0 3.31 2.682 5.99 5.99 5.99 3.31 0 5.992-2.682 5.992-5.99 0-1.69-.702-3.21-1.825-4.3z"/><path d="M4.004 0L1.93 2.076 7.996 8.15l6.075-6.074L11.998 0 8 3.995 4.005 0z"/></g></svg>