<svg width="16" height="16" xmlns="http://www.w3.org/2000/svg" viewBox="0 0 16 16" shape-rendering="geometricPrecision" fill="#00962d"><defs><mask id="a"><rect fill="#fff" width="100%" height="100%"/><path d="M17.514 2.67l-.862-.55L16.65-1h-2.866v.558c-1.334-.3-2.758.103-3.723 1.067-1.568 1.57-1.553 4.14.036 5.732.78.777 1.81 1.205 2.9 1.205 1.072 0 2.078-.415 2.832-1.168C16.585 5.64 17 4.63 17 3.557V2.67h.514zm-3.373.888c0 .22-.057.54-.332.813-.443.444-1.23.427-1.69-.034-.475-.475-.49-1.234-.036-1.69.01-.01.02-.02.033-.03v.922h2.026v.02z" fill="#000"/></mask></defs><path d="M13.114 2.537h2.538V0h-.868v1.105c-1.204-.927-2.924-.863-4.016.227-1.187 1.188-1.162 3.12.035 4.317 1.2 1.197 3.13 1.223 4.32.036.584-.584.878-1.357.877-2.128h-.86c0 .558-.207 1.103-.626 1.522-.843.842-2.23.836-3.104-.036-.87-.872-.877-2.26-.035-3.105.73-.728 1.86-.82 2.72-.27h-.982v.867z" fill="#cb1800"/><g mask="url(#a)"><path d="M14.49 13.12L14.48 0H4.033C2.658 0 1.536.617 1.514 1.985c-.004.025-.004.53 0 .535v.004c0 .04.008.076.01.117h-.01v10.827c0 1.396 1.134 2.53 2.53 2.53h8.386l-.038-1.688-.01-11.345h-8.35c-.495 0-1.68-.048-1.68-.978v-.094C2.405 1.008 3.538.84 4.033.84h9.594v12.28h.864zM4.01 3.966h7.35l.005 10.992L4.85 15c-1.395 0-2.528-1.135-2.528-2.53 0 0-.005-9.457-.002-9.482h.01c0 .93 1.185.978 1.68.978z"/><path d="M4.525 5.764h5.506V7.01H4.526zM4.525 8.346h5.506V9.59H4.526z"/></g></svg>