<svg width="16" height="16" xmlns="http://www.w3.org/2000/svg" viewBox="0 0 16 16" shape-rendering="geometricPrecision" fill="#00962d"><defs><mask id="a"><rect fill="#fff" width="100%" height="100%"/><path d="M17.514 2.67l-.862-.55L16.65-1h-2.866v.558c-1.334-.3-2.758.103-3.723 1.067-1.568 1.57-1.553 4.14.036 5.732.78.777 1.81 1.205 2.9 1.205 1.072 0 2.078-.415 2.832-1.168C16.585 5.64 17 4.63 17 3.557V2.67h.514zm-3.373.888c0 .22-.057.54-.332.813-.443.444-1.23.427-1.69-.034-.475-.475-.49-1.234-.036-1.69.01-.01.02-.02.033-.03v.922h2.026v.02z" fill="#000"/></mask></defs><path d="M13.114 2.537h2.538V0h-.868v1.105c-1.204-.927-2.924-.863-4.016.227-1.187 1.188-1.162 3.12.035 4.317 1.2 1.197 3.13 1.223 4.32.036.584-.584.878-1.357.877-2.128h-.86c0 .558-.207 1.103-.626 1.522-.843.842-2.23.836-3.104-.036-.87-.872-.877-2.26-.035-3.105.73-.728 1.86-.82 2.72-.27h-.982v.867z" fill="#cb1800"/><path d="M11.236 3.388c0-.045.005-.09.005-.137C11.24 1.46 9.79.01 8 .01 6.607.01 5.43.883 4.966 2.11l1.312.402c.283-.668.946-1.137 1.72-1.137 1.032 0 1.872.838 1.872 1.873 0 .525-.222 1.002-.572 1.342-.582.624-1.028.624-2.172 1.24-1.83.98-2.275 2.51-2.37 3.413v6.746h6.484V3.39h-.006zM7.892 15.046h-.01c-.53 0-.9-.4-.9-.932 0-.555.378-.934.91-.934.556 0 .913.38.923.934 0 .53-.368.932-.923.932zm1.24-3.82c-.38.418-.532.818-.52 1.28v.185H7.247l-.01-.267c-.03-.523.145-1.055.605-1.598.327-.398.594-.73.594-1.074 0-.358-.235-.595-.748-.614-.34 0-.75.123-1.016.307l-.35-1.116c.38-.215.985-.42 1.712-.42 1.354 0 1.967.746 1.967 1.598 0 .78-.483 1.29-.87 1.72z" mask="url(#a)"/></svg>