<svg width="16" height="16" xmlns="http://www.w3.org/2000/svg" viewBox="0 0 16 16" shape-rendering="geometricPrecision" fill="#00962d"><defs><mask id="a"><rect fill="#fff" width="100%" height="100%"/><path d="M17.514 2.67l-.862-.55L16.65-1h-2.866v.558c-1.334-.3-2.758.103-3.723 1.067-1.568 1.57-1.553 4.14.036 5.732.78.777 1.81 1.205 2.9 1.205 1.072 0 2.078-.415 2.832-1.168C16.585 5.64 17 4.63 17 3.557V2.67h.514zm-3.373.888c0 .22-.057.54-.332.813-.443.444-1.23.427-1.69-.034-.475-.475-.49-1.234-.036-1.69.01-.01.02-.02.033-.03v.922h2.026v.02z" fill="#000"/></mask></defs><path d="M13.114 2.537h2.538V0h-.868v1.105c-1.204-.927-2.924-.863-4.016.227-1.187 1.188-1.162 3.12.035 4.317 1.2 1.197 3.13 1.223 4.32.036.584-.584.878-1.357.877-2.128h-.86c0 .558-.207 1.103-.626 1.522-.843.842-2.23.836-3.104-.036-.87-.872-.877-2.26-.035-3.105.73-.728 1.86-.82 2.72-.27h-.982v.867z" fill="#cb1800"/><g mask="url(#a)"><path d="M13.997 2.942v9.965H2.957V2.942h11.04m1-1H1.957v11.965h13.04V1.942z"/><path d="M1.958 4.06h13.054v1.065H1.958z"/><path d="M5.87 4.06h1.065v9.577H5.87zM10.102 4.06h1.064v9.577h-1.064zM3.985 5.89H5.09v1.106H3.986zM3.985 10.89H5.09v1.106H3.986zM7.932 8.85h1.106v1.105H7.932zM7.932 6.996h1.106v1.106H7.932zM11.942 9.955h1.106v1.106h-1.106zM11.942 8h1.106v1.106h-1.106z"/></g></svg>