<svg width="16" height="16" xmlns="http://www.w3.org/2000/svg" viewBox="0 0 16 16" shape-rendering="geometricPrecision"><defs><mask id="a"><rect fill="#fff" width="100%" height="100%"/><path d="M16.45 1.534c.092-.364-.003-.77-.287-1.066l-.58-.58c-.286-.288-.692-.384-1.065-.29-.194-.328-.552-.55-.962-.552h-.82c-.41 0-.77.223-.963.554-.38-.106-.813.038-1.062.288l-.575.58c-.29.286-.386.697-.292 1.066-.33.194-.55.553-.55.962v.82c0 .41.22.767.548.96-.023.094-.034.19-.034.286.002.263.14.595.325.78l.58.582c.25.248.68.393 1.063.287.194.333.555.556.963.556h.82c.298 0 .588-.12.796-.333.06-.06.112-.134.158-.216.098.025.2.03.3.036.26-.004.588-.144.77-.328l.57-.572c.216-.21.338-.503.336-.803 0-.085-.016-.178-.042-.27.333-.194.556-.553.556-.965v-.82c0-.41-.22-.767-.55-.96z"/></mask></defs><path d="M15.884 2.38h-.177v-.004c-.212.008-.415-.118-.5-.325-.085-.206-.03-.438.123-.585l.126-.126c.044-.045.044-.12 0-.166l-.58-.58c-.045-.046-.118-.046-.165 0l-.124.126c-.147.152-.378.21-.586.12-.206-.086-.332-.288-.326-.5V.163c0-.065-.053-.117-.118-.117h-.82c-.062 0-.116.053-.115.117V.34c.006.213-.118.415-.325.502-.208.086-.44.03-.585-.122l-.126-.126c-.045-.045-.12-.045-.165 0l-.58.58c-.044.046-.044.12 0 .165l.124.126c.154.148.21.38.124.586-.086.207-.29.333-.5.325l-.178.003c-.065 0-.117.053-.117.117v.82c0 .064.052.117.117.117h.178l-.002.002c.212-.008.415.118.5.325.086.21.03.44-.122.586l-.125.128c-.045.044-.045.12 0 .163l.578.58c.045.046.12.046.165 0l.127-.124c.146-.153.377-.208.585-.123.207.088.33.29.326.502l.003.177h-.002c.002.065.054.116.117.116h.82c.064 0 .117-.05.117-.117V5.47c-.006-.212.12-.414.326-.502.208-.085.44-.03.586.123l.124.126c.046.045.12.045.165 0l.58-.58c.046-.046.046-.12 0-.164l-.125-.13c-.153-.146-.208-.377-.122-.585.085-.206.288-.332.5-.324l.176-.004c.063 0 .116-.053.116-.117v-.82c0-.064-.053-.116-.116-.116zm-2.738 1.53c-.553 0-1-.45-1-1.004s.447-1.005 1-1.005c.553 0 1.002.45 1.002 1.006S13.7 3.91 13.146 3.91z" fill="#cb1800"/><g mask="url(#a)"><path d="M9.284 2.017c-.438 0-.546.125-.735.747l-2.88 9.274c-.168.554-.277.904-.277 1.108 0 .544.408.78.725.78.437 0 .546-.124.734-.746L9.73 3.907c.17-.555.277-.906.277-1.108 0-.546-.405-.783-.723-.783zM4.523 3.425c.132-.414-.12-.725-.362-.826-.332-.14-.445-.08-.74.334L.583 6.854c-.193.27-.315.452-.397.598-.025.037-.045.076-.063.12-.005.01-.02.03-.022.038-.005.018 0 .032-.006.05-.014.052-.02.105-.02.165 0 .06.006.115.02.168.005.017 0 .03.006.047.003.01.017.027.02.038.02.045.04.084.066.122.082.147.203.327.396.598l2.834 3.92c.296.412.41.474.742.336.243-.102.494-.413.362-.828-.05-.152-.22-.387-.482-.756L1.405 7.825 4.04 4.182c.264-.37.433-.603.483-.757zM15.988 7.825c0-.06-.006-.114-.02-.168-.004-.017 0-.03-.005-.047-.003-.01-.017-.027-.02-.038-.02-.044-.04-.083-.065-.12-.082-.146-.203-.328-.397-.6l-2.834-3.918c-.296-.414-.41-.475-.742-.336-.243.102-.495.412-.362.826.05.154.22.39.48.758l2.638 3.643-2.637 3.645c-.263.368-.432.604-.48.756-.134.415.118.727.36.828.334.138.447.076.743-.337l2.835-3.92c.193-.27.314-.448.396-.596.027-.037.048-.078.066-.123.004-.01.017-.027.02-.037.005-.017 0-.03.005-.045.015-.054.022-.11.02-.17z"/></g></svg>