<svg width="16" height="16" xmlns="http://www.w3.org/2000/svg" viewBox="0 0 16 16" shape-rendering="geometricPrecision" fill="#24437c"><defs><mask id="a"><rect fill="#fff" width="100%" height="100%"/><path fill="#000" d="M14.782 1.217V-1h-3.564v2.217H9V4.78h2.218V7h3.564V4.78H17V1.217z"/></mask></defs><path fill="#cb1800" d="M16 2.217h-2.218V0h-1.564v2.217H10V3.78h2.218V6h1.564V3.78H16"/><g mask="url(#a)"><path d="M13.237 5.237l-1.79 1.79-3.448-3.444-3.45 3.445-1.788-1.79L8.002 0M1.04 8.334v6.636H15V8.334H1.04zM12.2 12.248c-.6 0-1.08-.484-1.08-1.082s.48-1.08 1.08-1.08c.596 0 1.08.482 1.08 1.08s-.484 1.082-1.08 1.082z"/></g></svg>