<svg width="16" height="16" xmlns="http://www.w3.org/2000/svg" viewBox="0 0 16 16" shape-rendering="geometricPrecision" fill="#fff"><defs><mask id="a"><rect width="100%" height="100%"/><path fill="#000" d="M14.67-1.414l-3.227 3.227-1.69-1.69-2.74 2.743L11.444 7.3l5.97-5.97z"/></mask></defs><path fill="#cb1800" d="M16 1.33L14.67 0l-3.227 3.228-1.69-1.69-1.327 1.33 3.02 3.018"/><path d="M11.805 2.414c.356-.906-.084-1.934-.99-2.293-.905-.363-1.93.075-2.3.977l-.53 1.317 3.292 1.32.53-1.32h-.002zM4.463 15.97l1.49-1.272-1.675-.668.185 1.94zm-.39-3.78l3.288 1.318 3.555-8.87-3.29-1.317-3.553 8.87z" mask="url(#a)"/></svg>