<svg width="16" height="16" xmlns="http://www.w3.org/2000/svg" viewBox="0 0 16 16" shape-rendering="geometricPrecision" fill="#fff"><defs><mask id="a"><rect width="100%" height="100%"/><path fill="#000" d="M14.67-1.414l-3.227 3.227-1.69-1.69-2.74 2.743L11.444 7.3l5.97-5.97z"/></mask></defs><path fill="#cb1800" d="M16 1.33L14.67 0l-3.227 3.228-1.69-1.69-1.327 1.33 3.02 3.018"/><path d="M8 .973c-3.865 0-6.997 3.133-6.997 7 0 3.862 3.132 6.992 6.996 6.994 3.864-.002 6.997-3.132 6.997-6.994 0-3.868-3.133-7-6.998-7zm1.026 2.663L8.74 9.48H7.27l-.296-5.844h2.052zm-1.02 8.837h-.013c-.683 0-1.147-.5-1.147-1.172 0-.684.477-1.174 1.16-1.174.686 0 1.138.49 1.148 1.175 0 .672-.45 1.173-1.15 1.173z" mask="url(#a)"/></svg>