<svg width="16" height="16" xmlns="http://www.w3.org/2000/svg" viewBox="0 0 16 16" shape-rendering="geometricPrecision" fill="#fff"><defs><mask id="a"><rect width="100%" height="100%"/><path fill="#000" d="M14.67-1.414l-3.227 3.227-1.69-1.69-2.74 2.743L11.444 7.3l5.97-5.97z"/></mask></defs><path fill="#cb1800" d="M16 1.33L14.67 0l-3.227 3.228-1.69-1.69-1.327 1.33 3.02 3.018"/><g mask="url(#a)"><path d="M10.055 14.302l2.54-2.338h-2.54"/><path d="M2.595 1.016v13.97h6.008v-4.47h4.802v-9.5H2.595zm9.44 8.027h-4.79v4.6H3.916V2.32h8.116v6.725z"/><g><path d="M8.146 6.207H7.17v1.91h-.99V3.043h1.967c1.048 0 1.675.72 1.675 1.582 0 .863-.628 1.583-1.676 1.583zm-.05-2.28H7.17v1.39h.926c.45 0 .734-.278.734-.692 0-.414-.284-.7-.733-.7z"/></g></g></svg>