<?xml version="1.0"?><!DOCTYPE svg PUBLIC "-//W3C//DTD SVG 1.1//EN" "http://www.w3.org/Graphics/SVG/1.1/DTD/svg11.dtd"><svg xmlns="http://www.w3.org/2000/svg" viewBox="0 0 16 16" shape-rendering="geometricPrecision" fill="#fff"><defs><mask id="accept-path"><rect fill="#fff" width="100%" height="100%"/><polygon points="14.671,-1.414 11.443,1.813 9.753,0.123 7.012,2.866 11.445,7.299 17.414,1.329 " fill="#000"/></mask></defs><polygon points="16,1.33 14.671,0 11.443,3.228 9.753,1.539 8.426,2.867 11.445,5.886 " fill="#cb1800"/><g mask="url(#accept-path)"><path d="M6.136,14.063l7.86-6.878l-3.255-1.741L6.136,14.063z M0,4.568l4.147,11.214l0.838-1.57l-1.421-3.844 l4.331-1.602l2.457-4.6l4.406,2.352l0.003-0.003l-2.411-6.517L0,4.568z M7.985,7.046l-4.97,1.838L2.618,7.81l4.97-1.839 L7.985,7.046z M12.058,3.044L2.204,6.688L1.806,5.614l9.854-3.646L12.058,3.044z"/></g></svg>
