<svg width="16" height="16" xmlns="http://www.w3.org/2000/svg" viewBox="0 0 16 16" shape-rendering="geometricPrecision" fill="#fff"><defs><mask id="a"><rect width="100%" height="100%"/><path fill="#000" d="M14.67-1.414l-3.227 3.227-1.69-1.69-2.74 2.743L11.444 7.3l5.97-5.97z"/></mask></defs><path fill="#cb1800" d="M16 1.33L14.67 0l-3.227 3.228-1.69-1.69-1.327 1.33 3.02 3.018"/><g mask="url(#a)"><path d="M8 .97C4.116.97.97 4.117.97 8.003c0 3.88 3.147 7.025 7.03 7.027 3.882-.002 7.03-3.146 7.03-7.027C15.03 4.116 11.882.97 8 .97zm0 12.638c-3.097-.006-5.602-2.512-5.608-5.605.006-3.1 2.51-5.606 5.607-5.61 3.097.005 5.602 2.51 5.608 5.61-.006 3.094-2.51 5.6-5.61 5.605z"/><path d="M8 11.927c-2.17-.004-3.922-1.76-3.927-3.925C4.077 5.832 5.83 4.077 8 4.072c2.168.005 3.92 1.76 3.926 3.93-.004 2.166-1.758 3.92-3.927 3.925z"/></g></svg>