<?xml version="1.0"?><!DOCTYPE svg PUBLIC "-//W3C//DTD SVG 1.1//EN" "http://www.w3.org/Graphics/SVG/1.1/DTD/svg11.dtd"><svg xmlns="http://www.w3.org/2000/svg" viewBox="0 0 16 16" shape-rendering="geometricPrecision" fill="#fff"><defs><mask id="accept-path"><rect fill="#fff" width="100%" height="100%"/><polygon points="14.671,-1.414 11.443,1.813 9.753,0.123 7.012,2.866 11.445,7.299 17.414,1.329 " fill="#000"/></mask></defs><polygon points="16,1.33 14.671,0 11.443,3.228 9.753,1.539 8.426,2.867 11.445,5.886 " fill="#cb1800"/><path mask="url(#accept-path)" d="M9.985,2L8.271,3.713l1.912,1.914H9.637L9.273,5.645c-4.608,0.196-8.3,3.993-8.3,8.646v0.553h2.624v-0.553 c0-1.611,0.628-3.128,1.768-4.271c1.142-1.14,2.659-1.768,4.272-1.768h0.552V8.25h0.147l-2.065,2.068l1.713,1.711L15,7.012L9.985,2 z"/></svg>
