<svg width="16" height="16" xmlns="http://www.w3.org/2000/svg" viewBox="0 0 16 16" shape-rendering="geometricPrecision" fill="#fff"><defs><mask id="a"><rect width="100%" height="100%"/><path fill="#000" d="M14.67-1.414l-3.227 3.227-1.69-1.69-2.74 2.743L11.444 7.3l5.97-5.97z"/></mask></defs><path fill="#cb1800" d="M16 1.33L14.67 0l-3.227 3.228-1.69-1.69-1.327 1.33 3.02 3.018"/><path mask="url(#a)" d="M4.212 1.067c1.07 0 1.604.865 1.604 1.832 0 1.12.03 2.547.03 2.547h5.504c1.123 0 1.922.62 1.922 1.56 0 1.124-.687 1.686-1.81 1.686H5.876v1s.5 1.994 2.123 1.994h3.462c.874 0 1.623.58 1.623 1.58 0 .997-.518 1.665-1.592 1.665H7.82c-3.145 0-5.095-1.23-5.095-4.738V3.042c.002-1.218.49-1.975 1.487-1.975z"/></svg>