<?xml version="1.0"?><!DOCTYPE svg PUBLIC "-//W3C//DTD SVG 1.1//EN" "http://www.w3.org/Graphics/SVG/1.1/DTD/svg11.dtd"><svg xmlns="http://www.w3.org/2000/svg" viewBox="0 0 16 16" shape-rendering="geometricPrecision" fill="#fff"><defs><mask id="accept-path"><rect fill="#fff" width="100%" height="100%"/><polygon points="14.671,-1.414 11.443,1.813 9.753,0.123 7.012,2.866 11.445,7.299 17.414,1.329 " fill="#000"/></mask></defs><polygon points="16,1.33 14.671,0 11.443,3.228 9.753,1.539 8.426,2.867 11.445,5.886 " fill="#cb1800"/><g mask="url(#accept-path)"><g><polygon points="13.237,5.237 11.446,7.028 7.999,3.583 4.551,7.028 2.762,5.237 8.002,0"/><path d="M0,8v6.929h16V8H0z M14.413,13.495H1.588v-4.06h12.825V13.495z M12.026,11.978c0.519,0,0.939-0.416,0.939-0.93 c0-0.515-0.42-0.931-0.939-0.931c-0.521,0-0.941,0.416-0.941,0.931C11.085,11.561,11.505,11.978,12.026,11.978z"/></g></g></svg>
