<?xml version="1.0"?><!DOCTYPE svg PUBLIC "-//W3C//DTD SVG 1.1//EN" "http://www.w3.org/Graphics/SVG/1.1/DTD/svg11.dtd"><svg width="16px" height="16px" xmlns="http://www.w3.org/2000/svg" viewBox="0 0 16 16" shape-rendering="geometricPrecision" fill="#fff"><defs><mask id="accept-path"><rect fill="#fff" width="100%" height="100%"/><polygon points="14.671,-1.414 11.443,1.813 9.753,0.123 7.012,2.866 11.445,7.299 17.414,1.329 " fill="#000"/></mask></defs><polygon points="16,1.33 14.671,0 11.443,3.228 9.753,1.539 8.426,2.867 11.445,5.886 " fill="#cb1800"/><g mask="url(#accept-path)"><g><path d="M15.609,3.739c-0.906,1.865-2.393,2.551-3.389,2.805c0.568,1.092,0.975,2.484,1.15,4.041 C14.545,9.792,16.939,7.624,15.609,3.739z M0.39,3.739c-1.328,3.885,1.065,6.053,2.241,6.846c0.174-1.557,0.58-2.949,1.147-4.041 C2.784,6.29,1.297,5.604,0.39,3.739z M8.001,4.087c-2.367,0-4.286,3.66-4.286,8.174h8.57C12.285,7.747,10.367,4.087,8.001,4.087z"/></g></g></svg>