<?xml version="1.0"?><!DOCTYPE svg PUBLIC "-//W3C//DTD SVG 1.1//EN" "http://www.w3.org/Graphics/SVG/1.1/DTD/svg11.dtd"><svg xmlns="http://www.w3.org/2000/svg" viewBox="0 0 16 16" shape-rendering="geometricPrecision" fill="#6e6e6e"><defs><mask id="remove-path"><rect fill="#fff" width="100%" height="100%"/><rect x="8.986" y="1.143" width="8.014" height="3.565" fill="#000"/></mask></defs><g fill="#cb1800"><rect x="9.986" y="2.143" width="6.014" height="1.565"/></g><g mask="url(#remove-path)"><path d="M11.031,9.168H9.307v0.744h1.724V9.168z M7.068,6.992l0.973-2.429L5.5,3.544L4.12,6.992H0.892v9.007 h14.216V6.992H7.068z M7.505,15.005H1.882V7.982h1.84l-0.966,2.413l2.54,1.019l1.375-3.432h0.834V15.005z M14.117,15.005h-5.62 V7.982h5.62V15.005z M12.858,10.506H9.307v0.745h3.551V10.506z M8.731,2.843H8.73c0.275-0.7-0.065-1.493-0.764-1.771 c-0.7-0.281-1.492,0.058-1.778,0.755L5.78,2.843l2.542,1.022L8.731,2.843z M3.058,13.316l1.152-0.983l-1.295-0.517L3.058,13.316z"/></g></svg>
