<?xml version="1.0"?><!DOCTYPE svg PUBLIC "-//W3C//DTD SVG 1.1//EN" "http://www.w3.org/Graphics/SVG/1.1/DTD/svg11.dtd"><svg xmlns="http://www.w3.org/2000/svg" viewBox="0 0 16 16" shape-rendering="geometricPrecision" fill="#6e6e6e"><defs><mask id="remove-path"><rect fill="#fff" width="100%" height="100%"/><rect x="8.986" y="1.143" width="8.014" height="3.565" fill="#000"/></mask></defs><g fill="#cb1800"><rect x="9.986" y="2.143" width="6.014" height="1.565"/></g><g mask="url(#remove-path)"><g><g><path d="M12.99,8.003c0,2.754-2.234,4.989-4.989,4.99c-2.758-0.001-4.992-2.236-4.992-4.99C3.007,5.246,5.241,3.01,7.998,3.01 L7.997,0.893C4.074,0.895,0.892,4.079,0.892,8.002c0,3.921,3.183,7.105,7.107,7.105c3.922,0.001,7.108-3.184,7.108-7.104H12.99z"/></g></g><polygon points="8.941,7.062 8.942,10.978 10.977,10.978 10.975,5.022 5.024,5.024 5.023,7.059"/></g></svg>
