<?xml version="1.0"?><!DOCTYPE svg PUBLIC "-//W3C//DTD SVG 1.1//EN" "http://www.w3.org/Graphics/SVG/1.1/DTD/svg11.dtd"><svg xmlns="http://www.w3.org/2000/svg" viewBox="0 0 16 16" shape-rendering="geometricPrecision" fill="#00962d"><defs><mask id="new-path"><rect fill="#fff" width="100%" height="100%"/><polygon points="19.079,1.436 14.165,1.436 12.649,-3.238 11.13,1.436 6.217,1.436 10.192,4.322 8.676,8.995 12.648,6.107 16.62,8.996 15.104,4.322 " fill="#000"/></mask></defs><polygon points="13.928,3.94 16,2.435 13.439,2.435 12.648,0 11.857,2.435 9.295,2.435 11.367,3.94 10.577,6.377 12.648,4.871 14.719,6.377 " fill="#cb1800"/><g mask="url(#new-path)"><circle cx="11.279" cy="12.205" r="0.769"/><circle cx="11.279" cy="7.938" r="0.769"/><path d="M2.042,0.948v4.265v1.185v3.082v1.185v4.265h11.939v-4.265V9.479V6.397V5.213V0.948H2.042z M12.854,13.802H3.171v-3.138h9.682V13.802z M12.854,9.479H3.171V6.397h9.682V9.479z M3.171,5.213V2.077h9.682v3.136H3.171z"/><circle cx="11.279" cy="3.672" r="0.769"/></g></svg>
