<svg width="16" height="16" xmlns="http://www.w3.org/2000/svg" viewBox="0 0 16 16" shape-rendering="geometricPrecision" fill="#00962d"><defs><mask id="a"><rect fill="#fff" width="100%" height="100%"/><path fill="#000" d="M19.08 1.436h-4.915L12.65-3.238l-1.52 4.674H6.217l3.975 2.886-1.516 4.673 3.972-2.888 3.972 2.89-1.516-4.675z"/></mask></defs><path fill="#cb1800" d="M13.928 3.94L16 2.435h-2.56L12.647 0l-.79 2.435H9.294l2.072 1.505-.79 2.437 2.07-1.506 2.072 1.507"/><path d="M3.176 8.302L0 11.48l1.65 1.65 4.83-4.833-4.83-4.825L0 5.122 3.176 8.3zM16 .605H7.144V14.7H8.21V1.67l4.058.003-2.67.764V16l6.4-1.832V1.674H16V.604z" mask="url(#a)"/></svg>