<?xml version="1.0"?><!DOCTYPE svg PUBLIC "-//W3C//DTD SVG 1.1//EN" "http://www.w3.org/Graphics/SVG/1.1/DTD/svg11.dtd"><svg width="16px" height="16px" xmlns="http://www.w3.org/2000/svg" viewBox="0 0 16 16" shape-rendering="geometricPrecision" fill="#00962d"><defs><mask id="new-path"><rect fill="#fff" width="100%" height="100%"/><polygon points="19.079,1.436 14.165,1.436 12.649,-3.238 11.13,1.436 6.217,1.436 10.192,4.322 8.676,8.995 12.648,6.107 16.62,8.996 15.104,4.322 " fill="#000"/></mask></defs><polygon points="13.928,3.94 16,2.435 13.439,2.435 12.648,0 11.857,2.435 9.295,2.435 11.367,3.94 10.577,6.377 12.648,4.871 14.719,6.377 " fill="#cb1800"/><g mask="url(#new-path)"><g><polygon points="10.055,14.302 12.595,11.964 10.055,11.964"/><path d="M2.595,1.016v13.969h6.008v-4.468h4.802V1.016H2.595z M12.034,9.043h-4.79v4.601H3.917V2.318h8.116V9.043z"/></g><path fill-rule="evenodd" clip-rule="evenodd" d="M9.795,6.744c0.643,0.512,1.164,0.299,1.088,0.201 C10.653,6.647,10.2,6.647,9.795,6.744z M10.629,6.456C9.985,6.238,9.128,6.455,9.161,6.482C8.729,6.269,8.146,5.959,7.826,4.941 c-0.537-1.705,0-2.255,0.035-1.189l0.108,0.724c0,0,0.371-0.903,0.131-1.562C7.892,2.34,7.29,2.426,7.254,3.487 C7.234,4.072,7.375,4.951,7.44,5.088c0,0-0.558,1.641-1.384,2.931C5.255,9.271,5.206,8.849,5.4,8.432 c0.231-0.496,0.624-0.757,0.755-0.964c0,0-0.609,0.048-1.083,0.86c-0.299,0.514-0.335,1.79,0.941,0.406 c0.253-0.275,0.613-0.852,0.777-1.195c0,0,0.742-0.324,2.514-0.668c0,0,0.478,0.349,1.098,0.492 C11.172,7.54,11.964,6.909,10.629,6.456z M7.004,6.997l0.645-1.482c0.427,0.909,1.033,1.094,1.033,1.094 C8.419,6.643,7.004,6.997,7.004,6.997z"/></g></svg>