<?xml version="1.0"?><!DOCTYPE svg PUBLIC "-//W3C//DTD SVG 1.1//EN" "http://www.w3.org/Graphics/SVG/1.1/DTD/svg11.dtd"><svg xmlns="http://www.w3.org/2000/svg" viewBox="0 0 16 16" shape-rendering="geometricPrecision" fill="#00962d"><defs><mask id="new-path"><rect fill="#fff" width="100%" height="100%"/><polygon points="19.079,1.436 14.165,1.436 12.649,-3.238 11.13,1.436 6.217,1.436 10.192,4.322 8.676,8.995 12.648,6.107 16.62,8.996 15.104,4.322 " fill="#000"/></mask></defs><polygon points="13.928,3.94 16,2.435 13.439,2.435 12.648,0 11.857,2.435 9.295,2.435 11.367,3.94 10.577,6.377 12.648,4.871 14.719,6.377 " fill="#cb1800"/><g mask="url(#new-path)"><g><path d="M7.271,8.729H1.03V8.73c0,3.443,2.795,6.239,6.238,6.239h0.002V8.729z"/><path d="M8.83,0.928c-3.442,0-6.237,2.793-6.238,6.236H4.45c0.001-2.417,1.962-4.379,4.38-4.379c2.42,0,4.382,1.963,4.382,4.38 c0,2.42-1.96,4.381-4.378,4.383v1.857c3.443-0.002,6.235-2.797,6.235-6.24C15.068,3.723,12.276,0.928,8.83,0.928z M11.174,7.165 c0-1.292-1.051-2.342-2.344-2.342c-1.293,0-2.341,1.049-2.342,2.341h2.346v2.345C10.125,9.508,11.174,8.458,11.174,7.165z"/></g></g></svg>
