<?xml version="1.0"?><!DOCTYPE svg PUBLIC "-//W3C//DTD SVG 1.1//EN" "http://www.w3.org/Graphics/SVG/1.1/DTD/svg11.dtd"><svg xmlns="http://www.w3.org/2000/svg" viewBox="0 0 16 16" shape-rendering="geometricPrecision" fill="#00962d"><defs><mask id="new-path"><rect fill="#fff" width="100%" height="100%"/><polygon points="19.079,1.436 14.165,1.436 12.649,-3.238 11.13,1.436 6.217,1.436 10.192,4.322 8.676,8.995 12.648,6.107 16.62,8.996 15.104,4.322 " fill="#000"/></mask></defs><polygon points="13.928,3.94 16,2.435 13.439,2.435 12.648,0 11.857,2.435 9.295,2.435 11.367,3.94 10.577,6.377 12.648,4.871 14.719,6.377 " fill="#cb1800"/><g mask="url(#new-path)"><path d="M2.021,8.002c0,3.234,2.582,5.877,5.792,5.976V8.104L2.423,5.85C2.156,6.538,2.021,7.261,2.021,8.002z"/><path d="M5.608,2.526c-1.006,0.442-1.886,1.166-2.516,2.07l4.456,2.731L5.608,2.526z"/><path d="M8,2.022c-0.343,0-0.693,0.031-1.044,0.095l1.355,5.788l0.786,5.967c2.8-0.521,4.881-3.001,4.881-5.87 C13.979,4.704,11.297,2.022,8,2.022z"/></g></svg>
