<svg width="16" height="16" xmlns="http://www.w3.org/2000/svg" viewBox="0 0 16 16" shape-rendering="geometricPrecision" fill="#6e6e6e"><defs><mask id="a"><rect fill="#fff" width="100%" height="100%"/><path fill="#000" d="M14.67-1.414l-3.227 3.227-1.69-1.69-2.74 2.743L11.444 7.3l5.97-5.97z"/></mask></defs><path fill="#cb1800" d="M16 1.33L14.67 0l-3.227 3.228-1.69-1.69-1.327 1.33 3.02 3.018"/><path mask="url(#a)" d="M14.49 13.12L14.478 0H4.033c-1.376.003-2.498.62-2.52 1.987-.003.025-.003.53 0 .535v.003c0 .04.01.076.01.117h-.008v10.826c0 1.397 1.132 2.532 2.53 2.532h8.384l-.038-1.69-.01-11.344h-8.35c-.495 0-1.68-.048-1.68-.98v-.093C2.405 1.008 3.538.84 4.033.84h9.594v12.28h.864zM7.678 4.505c1.19 0 2.15.96 2.15 2.146 0 1.188-.96 2.148-2.15 2.148-1.186 0-2.148-.96-2.148-2.148 0-1.185.962-2.146 2.148-2.146zM4.09 11.89c0-1.138.926-2.07 2.065-2.07h3c1.14 0 2.073.933 2.073 2.07v2.692H4.09V11.89z"/></svg>