<?xml version="1.0"?><!DOCTYPE svg PUBLIC "-//W3C//DTD SVG 1.1//EN" "http://www.w3.org/Graphics/SVG/1.1/DTD/svg11.dtd"><svg width="16px" height="16px" xmlns="http://www.w3.org/2000/svg" viewBox="0 0 16 16" shape-rendering="geometricPrecision" fill="#6e6e6e"><defs><mask id="accept-path"><rect fill="#fff" width="100%" height="100%"/><polygon points="14.671,-1.414 11.443,1.813 9.753,0.123 7.012,2.866 11.445,7.299 17.414,1.329 " fill="#000"/></mask></defs><polygon points="16,1.33 14.671,0 11.443,3.228 9.753,1.539 8.426,2.867 11.445,5.886 " fill="#cb1800"/><g mask="url(#accept-path)"><path d="M8.009,4.685C7.018,2.1,1.759,2.214,2.008,6.335c0.087,1.41,1.178,2.589,2.687,3.96 c2.26,2.058,3.315,2.755,3.315,2.755s1.051-0.697,3.314-2.755c1.505-1.371,2.599-2.55,2.683-3.96C14.254,2.214,9,2.1,8.009,4.685z"/></g></svg>