<?xml version="1.0"?><!DOCTYPE svg PUBLIC "-//W3C//DTD SVG 1.1//EN" "http://www.w3.org/Graphics/SVG/1.1/DTD/svg11.dtd"><svg width="16px" height="16px" xmlns="http://www.w3.org/2000/svg" viewBox="0 0 16 16" shape-rendering="geometricPrecision" fill="#6e6e6e"><defs><mask id="accept-path"><rect fill="#fff" width="100%" height="100%"/><polygon points="14.671,-1.414 11.443,1.813 9.753,0.123 7.012,2.866 11.445,7.299 17.414,1.329 " fill="#000"/></mask></defs><polygon points="16,1.33 14.671,0 11.443,3.228 9.753,1.539 8.426,2.867 11.445,5.886 " fill="#cb1800"/><g mask="url(#accept-path)"><path d="M9.759,2.438V1.03H6.24v1.408H2.717v1.917h10.565V2.438H9.759z M3.661,14.97h8.645V5.388H3.661V14.97z M9.824,6.895h1.016v6.567H9.824V6.895z M7.474,6.895h1.017v6.567H7.474V6.895z M5.125,6.895h1.016v6.567H5.125V6.895z"/></g></svg>