<?xml version="1.0"?><!DOCTYPE svg PUBLIC "-//W3C//DTD SVG 1.1//EN" "http://www.w3.org/Graphics/SVG/1.1/DTD/svg11.dtd"><svg xmlns="http://www.w3.org/2000/svg" viewBox="0 0 16 16" shape-rendering="geometricPrecision" fill="#cb1800"><g><path d="M1.935,1.982V14h3.031V1.982H1.935z M3.451,12.028c-0.511,0-0.924-0.413-0.924-0.923 c0-0.512,0.413-0.925,0.924-0.925c0.51,0,0.923,0.413,0.923,0.925C4.374,11.615,3.96,12.028,3.451,12.028z"/><path d="M5.993,1.982V14h3.029V1.982H5.993z M7.508,12.028c-0.511,0-0.924-0.412-0.924-0.922 c0-0.512,0.413-0.923,0.924-0.923c0.51,0,0.922,0.411,0.922,0.923C8.431,11.616,8.018,12.028,7.508,12.028z"/><path d="M10.001,1.982V14h3.076V1.982H10.001z M11.54,11.999c-0.519,0-0.938-0.419-0.938-0.937 c0-0.52,0.419-0.938,0.938-0.938c0.518,0,0.937,0.419,0.937,0.938C12.476,11.58,12.057,11.999,11.54,11.999z"/></g></svg>
