<svg width="16" height="16" xmlns="http://www.w3.org/2000/svg" viewBox="0 0 16 16" shape-rendering="geometricPrecision" fill="#cb1800"><path d="M8.004 1.01C4.142 1.01 1.01 4.144 1.01 8.01c.003 3.86 3.132 6.99 6.994 6.99C11.867 15 15 11.87 15 8.01c0-3.865-3.133-6.997-6.996-6.997zm0 12.576c-3.08-.008-5.572-2.5-5.578-5.578.006-3.084 2.498-5.576 5.578-5.582 3.082.006 5.573 2.498 5.58 5.582-.007 3.08-2.5 5.57-5.58 5.578z"/><path d="M3.904 8.345h.726s-.023-.2-.023-.353c0-.127.023-.373.023-.373h-.726v-.9h.877c.504-1.755 2.07-3.006 4-3.006.62 0 1.157.152 1.157.152l-.363 1.368s-.396-.117-.83-.117c-1.11 0-1.975.62-2.35 1.602h2.91l-.185.9H6.185s-.025.175-.025.35c0 .13.037.375.037.375h2.78l-.174.888H6.465c.362.993 1.263 1.637 2.338 1.637.607 0 1.124-.176 1.124-.176l.268 1.38s-.61.222-1.415.222c-2 0-3.52-1.25-3.998-3.062h-.878v-.89z"/></svg>