<svg width="16" height="16" xmlns="http://www.w3.org/2000/svg" viewBox="0 0 16 16" shape-rendering="geometricPrecision" fill="#cb1800"><path d="M6.394 4.686h.844v.844h-.844zM7.238 5.53h.844v.843h-.844zM6.394 6.373h.844v.845h-.844zM7.238 7.218h.844v.844h-.844zM6.394 8.06h.844v.845h-.844zM7.238 8.905h.844v.844h-.844zM6.394 9.75h.844v.844h-.844zM6.394 11.437h.844v.844h-.844zM6.394 13.126h.844v.844h-.844zM6.374 2.18h1.71v1.66h-1.71z"/><path d="M6.886 5.904c.31-.81.31-.81.535-1.403.125-.325.003-.704-.307-.89-.31-.186-.703-.115-.932.15L5.196 4.89c-.037.045-.072.09-.103.143-.283.475-.13 1.088.345 1.373.474.284 1.09.128 1.373-.345.03-.05.056-.105.076-.16zm-.36-1.316c-.192-.115-.253-.364-.138-.557.115-.19.363-.253.555-.137.192.115.255.362.14.556-.115.19-.364.25-.556.138z"/><path d="M7.238 3.84h.844v.846h-.844zM10.055 14.302l2.54-2.338h-2.54"/><path d="M2.595 1.016v13.97h6.008v-4.47h4.802v-9.5H2.595zm9.44 8.027h-4.79v4.6H3.916V2.32h8.116v6.725z"/></svg>