<?xml version="1.0"?><!DOCTYPE svg PUBLIC "-//W3C//DTD SVG 1.1//EN" "http://www.w3.org/Graphics/SVG/1.1/DTD/svg11.dtd"><svg width="16px" height="16px" xmlns="http://www.w3.org/2000/svg" viewBox="0 0 16 16" shape-rendering="geometricPrecision" fill="#cb1800"><g><path d="M8,1.001c-3.866,0-6.999,3.135-6.999,7.003C1.003,11.867,4.134,14.999,8,15.001 c3.867-0.002,7.001-3.134,7.001-6.997C15.001,4.136,11.867,1.001,8,1.001z M8.127,3.28c0.554,0,1,0.458,1,1.025 c0,0.562-0.446,1.021-1,1.021c-0.553,0-1.001-0.459-1.001-1.021C7.126,3.738,7.574,3.28,8.127,3.28z M10.101,12.228H6.115v-1.015 h0.986V7.136H6.118V6.375h2.996v4.839h0.987V12.228z"/></g></svg>