<svg width="16" height="16" xmlns="http://www.w3.org/2000/svg" viewBox="0 0 16 16" shape-rendering="geometricPrecision" fill="#24437c"><defs><mask id="a"><rect fill="#fff" width="100%" height="100%"/><path fill="#000" d="M17.414 1.215l-2.624-2.63L13.066.31l-1.722-1.722-2.627 2.627 1.722 1.72-1.725 1.723 2.63 2.628 1.722-1.722 1.722 1.723 2.624-2.63-1.72-1.72z"/></mask></defs><path d="M16 4.656l-1.722-1.72L16 1.213 14.79 0l-1.724 1.722-1.722-1.72-1.212 1.21 1.722 1.722-1.724 1.722 1.215 1.214 1.722-1.723L14.79 5.87" fill="#cb1800"/><path mask="url(#a)" d="M14.55 13.12L14.54 0H4.093c-1.376.003-2.498.62-2.52 1.987-.004.025-.004.53 0 .535v.003c0 .04.008.076.01.117h-.01v10.826C1.575 14.865 2.71 16 4.105 16h8.386l-.038-1.69-.01-11.344h-8.35c-.495 0-1.68-.048-1.68-.98v-.093C2.465 1.008 3.598.84 4.093.84h9.594v12.28h.864zm-2.9-2.23v1.745H6.376V10.89c0-.74.6-1.343 1.34-1.343h2.593c.738 0 1.343.603 1.343 1.342zM9.014 6.1c.77 0 1.395.624 1.395 1.394 0 .77-.623 1.393-1.395 1.393-.77 0-1.393-.623-1.393-1.393S8.243 6.1 9.013 6.1zm-3.638 0c.77 0 1.394.624 1.394 1.394 0 .77-.624 1.393-1.395 1.393-.77 0-1.393-.623-1.393-1.393S4.606 6.1 5.375 6.1zm-2.637 4.79c0-.74.6-1.343 1.34-1.343H6.06c-.3.37-.484.832-.485 1.342v1.745H2.738V10.89z"/></svg>