<svg width="16" height="16" xmlns="http://www.w3.org/2000/svg" viewBox="0 0 16 16" shape-rendering="geometricPrecision" fill="#24437c"><defs><mask id="a"><rect fill="#fff" width="100%" height="100%"/><path fill="#000" d="M17.414 1.215l-2.624-2.63L13.066.31l-1.722-1.722-2.627 2.627 1.722 1.72-1.725 1.723 2.63 2.628 1.722-1.722 1.722 1.723 2.624-2.63-1.72-1.72z"/></mask></defs><path d="M16 4.656l-1.722-1.72L16 1.213 14.79 0l-1.724 1.722-1.722-1.72-1.212 1.21 1.722 1.722-1.724 1.722 1.215 1.214 1.722-1.723L14.79 5.87" fill="#cb1800"/><g mask="url(#a)"><path d="M9.284 2.017c-.438 0-.546.125-.735.747l-2.88 9.274c-.168.554-.277.904-.277 1.108 0 .544.408.78.725.78.437 0 .546-.124.734-.746L9.73 3.907c.17-.555.277-.906.277-1.108 0-.546-.405-.783-.723-.783zM4.523 3.425c.132-.414-.12-.725-.362-.826-.332-.14-.445-.08-.74.334L.583 6.854c-.193.27-.315.452-.397.598-.025.037-.045.076-.063.12-.005.01-.02.03-.022.038-.005.018 0 .032-.006.05-.014.052-.02.105-.02.165 0 .06.006.115.02.168.005.017 0 .03.006.047.003.01.017.027.02.038.02.045.04.084.066.122.082.147.203.327.396.598l2.834 3.92c.296.412.41.474.742.336.243-.102.494-.413.362-.828-.05-.152-.22-.387-.482-.756L1.405 7.825 4.04 4.182c.264-.37.433-.603.483-.757zM15.988 7.825c0-.06-.006-.114-.02-.168-.004-.017 0-.03-.005-.047-.003-.01-.017-.027-.02-.038-.02-.044-.04-.083-.065-.12-.082-.146-.203-.328-.397-.6l-2.834-3.918c-.296-.414-.41-.475-.742-.336-.243.102-.495.412-.362.826.05.154.22.39.48.758l2.638 3.643-2.637 3.645c-.263.368-.432.604-.48.756-.134.415.118.727.36.828.334.138.447.076.743-.337l2.835-3.92c.193-.27.314-.448.396-.596.027-.037.048-.078.066-.123.004-.01.017-.027.02-.037.005-.017 0-.03.005-.045.015-.054.022-.11.02-.17z"/></g></svg>