<?xml version="1.0"?><!DOCTYPE svg PUBLIC "-//W3C//DTD SVG 1.1//EN" "http://www.w3.org/Graphics/SVG/1.1/DTD/svg11.dtd"><svg xmlns="http://www.w3.org/2000/svg" viewBox="0 0 16 16" shape-rendering="geometricPrecision" fill="#24437c"><defs><mask id="decline-path"><rect fill="#fff" width="100%" height="100%"/><polygon points="17.414,1.215 14.79,-1.414 13.066,0.308 11.344,-1.414 8.717,1.213 10.439,2.934 8.715,4.656 11.345,7.284 13.067,5.562 14.789,7.285 17.414,4.655 15.693,2.935 " fill="#000"/></mask></defs><g fill="#cb1800"><polygon points="16,4.656 14.278,2.935 16,1.214 14.789,0.001 13.066,1.722 11.344,0.001 10.132,1.213 11.854,2.934 10.13,4.656 11.345,5.87 13.067,4.147 14.789,5.87 "/></g><g mask="url(#decline-path)"><g><path d="M11.246,9.283c1.382,0,2.497-1.115,2.497-2.495c0-1.378-1.114-2.494-2.497-2.494c-1.377,0-2.496,1.116-2.496,2.494 C8.75,8.168,9.869,9.283,11.246,9.283z M0.005,12.873V16h5.081v-3.128c0.002-0.914,0.335-1.743,0.869-2.403H2.403 C1.081,10.469,0.005,11.551,0.005,12.873z M13.564,10.469H8.919c-1.323,0-2.398,1.082-2.398,2.404V16h9.45v-3.127 C15.971,11.551,14.887,10.469,13.564,10.469z M4.729,4.294c-1.377,0-2.495,1.116-2.495,2.494c0,1.38,1.118,2.495,2.495,2.495 c1.381,0,2.496-1.115,2.496-2.495C7.225,5.41,6.111,4.294,4.729,4.294z"/></g></g></svg>
