<svg width="16" height="16" xmlns="http://www.w3.org/2000/svg" viewBox="0 0 16 16" shape-rendering="geometricPrecision" fill="#24437c"><defs><mask id="a"><rect fill="#fff" width="100%" height="100%"/><path fill="#000" d="M17.414 1.215l-2.624-2.63L13.066.31l-1.722-1.722-2.627 2.627 1.722 1.72-1.725 1.723 2.63 2.628 1.722-1.722 1.722 1.723 2.624-2.63-1.72-1.72z"/></mask></defs><path d="M16 4.656l-1.722-1.72L16 1.213 14.79 0l-1.724 1.722-1.722-1.72-1.212 1.21 1.722 1.722-1.724 1.722 1.215 1.214 1.722-1.723L14.79 5.87" fill="#cb1800"/><path mask="url(#a)" d="M14.49 13.12L14.478 0H4.033c-1.376.003-2.498.62-2.52 1.987-.003.025-.003.53 0 .535v.003c0 .04.01.076.01.117h-.008v10.826c0 1.397 1.132 2.532 2.53 2.532h8.384l-.038-1.69-.01-11.344h-8.35c-.495 0-1.68-.048-1.68-.98v-.093C2.405 1.008 3.538.84 4.033.84h9.594v12.28h.864zM7.678 4.505c1.19 0 2.15.96 2.15 2.146 0 1.188-.96 2.148-2.15 2.148-1.186 0-2.148-.96-2.148-2.148 0-1.185.962-2.146 2.148-2.146zM4.09 11.89c0-1.138.926-2.07 2.065-2.07h3c1.14 0 2.073.933 2.073 2.07v2.692H4.09V11.89z"/></svg>