<svg width="16" height="16" xmlns="http://www.w3.org/2000/svg" viewBox="0 0 16 16" shape-rendering="geometricPrecision" fill="#24437c"><defs><mask id="a"><rect fill="#fff" width="100%" height="100%"/><path fill="#000" d="M17.414 1.215l-2.624-2.63L13.066.31l-1.722-1.722-2.627 2.627 1.722 1.72-1.725 1.723 2.63 2.628 1.722-1.722 1.722 1.723 2.624-2.63-1.72-1.72z"/></mask></defs><path d="M16 4.656l-1.722-1.72L16 1.213 14.79 0l-1.724 1.722-1.722-1.72-1.212 1.21 1.722 1.722-1.724 1.722 1.215 1.214 1.722-1.723L14.79 5.87" fill="#cb1800"/><g mask="url(#a)"><ellipse cx="13.096" cy="4.259" rx="1.101" ry="1.091"/><path d="M13.367 6.868c-.318 0-.614.095-.862.255-.127-.98-.962-1.74-1.983-1.74-1.11 0-2.01.89-2.01 1.992 0 1.1.9 1.99 2.01 1.99.507 0 .964-.192 1.318-.5.186.667.796 1.16 1.527 1.16.88 0 1.592-.707 1.592-1.578-.002-.872-.714-1.58-1.593-1.58z"/><path d="M10.202 10.016c-1.332-.157-2.365-1.28-2.365-2.64 0-1.072.64-1.994 1.56-2.415L8.91 1.908l-5.074.795.284 1.785L1.2 5.61l3.28 8.382 4.79-1.844-.442-1.126 1.497-.235-.123-.77z"/></g></svg>