<svg width="16" height="16" xmlns="http://www.w3.org/2000/svg" viewBox="0 0 16 16" shape-rendering="geometricPrecision" fill="#24437c"><defs><mask id="a"><rect fill="#fff" width="100%" height="100%"/><path fill="#000" d="M17.414 1.215l-2.624-2.63L13.066.31l-1.722-1.722-2.627 2.627 1.722 1.72-1.725 1.723 2.63 2.628 1.722-1.722 1.722 1.723 2.624-2.63-1.72-1.72z"/></mask></defs><path d="M16 4.656l-1.722-1.72L16 1.213 14.79 0l-1.724 1.722-1.722-1.72-1.212 1.21 1.722 1.722-1.724 1.722 1.215 1.214 1.722-1.723L14.79 5.87" fill="#cb1800"/><path d="M6.136 14.063l7.86-6.878-3.255-1.74-4.604 8.618zM0 4.568l4.147 11.214.838-1.57-1.42-3.844 4.33-1.602 2.457-4.6 4.406 2.352.003-.003-2.41-6.517L0 4.568zm7.985 2.478l-4.97 1.838-.397-1.074 4.97-1.84.397 1.076zm4.073-4.002L2.204 6.688l-.398-1.074 9.854-3.646.398 1.076z" mask="url(#a)"/></svg>