<?xml version="1.0"?><!DOCTYPE svg PUBLIC "-//W3C//DTD SVG 1.1//EN" "http://www.w3.org/Graphics/SVG/1.1/DTD/svg11.dtd"><svg width="16px" height="16px" xmlns="http://www.w3.org/2000/svg" viewBox="0 0 16 16" shape-rendering="geometricPrecision" fill="#24437c"><defs><mask id="decline-path"><rect fill="#fff" width="100%" height="100%"/><polygon points="17.414,1.215 14.79,-1.414 13.066,0.308 11.344,-1.414 8.717,1.213 10.439,2.934 8.715,4.656 11.345,7.284 13.067,5.562 14.789,7.285 17.414,4.655 15.693,2.935 " fill="#000"/></mask></defs><g fill="#cb1800"><polygon points="16,4.656 14.278,2.935 16,1.214 14.789,0.001 13.066,1.722 11.344,0.001 10.132,1.213 11.854,2.934 10.13,4.656 11.345,5.87 13.067,4.147 14.789,5.87 "/></g><g mask="url(#decline-path)"><g><g><path d="M2.138,11.963c0.624,0,1.128-0.506,1.128-1.13c0-0.622-0.504-1.128-1.128-1.128c-0.623,0-1.13,0.506-1.13,1.128 C1.008,11.457,1.515,11.963,2.138,11.963z M3.187,12.499H1.085C0.486,12.499,0,12.989,0,13.587v1.414h4.276v-1.414 C4.276,12.989,3.786,12.499,3.187,12.499z"/></g><g><path d="M13.862,11.963c0.626,0,1.13-0.506,1.13-1.13c0-0.622-0.504-1.128-1.13-1.128c-0.623,0-1.128,0.506-1.128,1.128 C12.734,11.457,13.239,11.963,13.862,11.963z M14.911,12.499H12.81c-0.599,0-1.086,0.49-1.086,1.088v1.414H16v-1.414 C16,12.989,15.509,12.499,14.911,12.499z"/></g><g><path d="M8.018,2.257c0.624,0,1.128-0.505,1.128-1.129S8.642,0,8.018,0c-0.624,0-1.13,0.504-1.13,1.128S7.394,2.257,8.018,2.257 z M9.067,2.794H6.965c-0.599,0-1.085,0.489-1.085,1.088v1.413h4.276V3.882C10.156,3.283,9.666,2.794,9.067,2.794z"/></g></g><polygon points="8.528,6.989 8.528,5.985 7.508,5.985 7.508,6.989 1.984,6.989 1.984,7.586 1.984,8.001 1.984,8.973 3.041,8.973 3.041,8.001 13.013,8.001 13.013,8.973 13.958,8.973 13.958,8.001 13.958,7.586 13.958,6.989"/></g></svg>