<?xml version="1.0"?><!DOCTYPE svg PUBLIC "-//W3C//DTD SVG 1.1//EN" "http://www.w3.org/Graphics/SVG/1.1/DTD/svg11.dtd"><svg xmlns="http://www.w3.org/2000/svg" viewBox="0 0 16 16" shape-rendering="geometricPrecision" fill="#24437c"><defs><mask id="decline-path"><rect fill="#fff" width="100%" height="100%"/><polygon points="17.414,1.215 14.79,-1.414 13.066,0.308 11.344,-1.414 8.717,1.213 10.439,2.934 8.715,4.656 11.345,7.284 13.067,5.562 14.789,7.285 17.414,4.655 15.693,2.935 " fill="#000"/></mask></defs><g fill="#cb1800"><polygon points="16,4.656 14.278,2.935 16,1.214 14.789,0.001 13.066,1.722 11.344,0.001 10.132,1.213 11.854,2.934 10.13,4.656 11.345,5.87 13.067,4.147 14.789,5.87 "/></g><g mask="url(#decline-path)"><path d="M11.236,3.388c0.001-0.045,0.005-0.09,0.005-0.137c0-1.791-1.451-3.242-3.242-3.242 c-1.391,0-2.57,0.875-3.032,2.103l1.312,0.402c0.284-0.668,0.947-1.137,1.72-1.137c1.033,0,1.873,0.838,1.873,1.873 c0,0.525-0.222,1.002-0.572,1.342C8.718,5.216,8.272,5.216,7.128,5.831c-1.83,0.981-2.275,2.51-2.371,3.414v6.746h6.485V3.388 H11.236z M7.892,15.046h-0.01c-0.531,0-0.9-0.4-0.9-0.932c0-0.555,0.378-0.934,0.911-0.934c0.555,0,0.912,0.379,0.922,0.934 C8.814,14.645,8.447,15.046,7.892,15.046z M9.132,11.226c-0.379,0.418-0.532,0.818-0.521,1.279v0.186H7.248l-0.009-0.268 c-0.031-0.523,0.144-1.055,0.604-1.598c0.327-0.398,0.594-0.729,0.594-1.074c0-0.359-0.235-0.596-0.748-0.615 c-0.338,0-0.748,0.123-1.015,0.307L6.325,8.327c0.38-0.215,0.984-0.42,1.711-0.42c1.354,0,1.967,0.746,1.967,1.598 C10.002,10.284,9.52,10.794,9.132,11.226z"/></g></svg>
