<?xml version="1.0"?><!DOCTYPE svg PUBLIC "-//W3C//DTD SVG 1.1//EN" "http://www.w3.org/Graphics/SVG/1.1/DTD/svg11.dtd"><svg width="16px" height="16px" xmlns="http://www.w3.org/2000/svg" viewBox="0 0 16 16" shape-rendering="geometricPrecision" fill="#24437c"><defs><mask id="decline-path"><rect fill="#fff" width="100%" height="100%"/><polygon points="17.414,1.215 14.79,-1.414 13.066,0.308 11.344,-1.414 8.717,1.213 10.439,2.934 8.715,4.656 11.345,7.284 13.067,5.562 14.789,7.285 17.414,4.655 15.693,2.935 " fill="#000"/></mask></defs><g fill="#cb1800"><polygon points="16,4.656 14.278,2.935 16,1.214 14.789,0.001 13.066,1.722 11.344,0.001 10.132,1.213 11.854,2.934 10.13,4.656 11.345,5.87 13.067,4.147 14.789,5.87 "/></g><g mask="url(#decline-path)"><path d="M1.021,1.02v2.617c3.137,0,5.964,1.267,8.021,3.32c2.054,2.059,3.32,4.885,3.321,8.021h2.617 C14.978,7.27,8.73,1.022,1.021,1.02z M1.021,5.729v2.613c3.664,0.008,6.628,2.973,6.635,6.637h2.616 C10.271,9.87,6.13,5.729,1.021,5.729z M2.9,11.222c-1.039,0-1.879,0.84-1.879,1.877c0,1.039,0.841,1.881,1.879,1.881 c1.038,0,1.878-0.842,1.878-1.881C4.779,12.061,3.938,11.222,2.9,11.222z"/></g></svg>