<?xml version="1.0"?><!DOCTYPE svg PUBLIC "-//W3C//DTD SVG 1.1//EN" "http://www.w3.org/Graphics/SVG/1.1/DTD/svg11.dtd"><svg width="16px" height="16px" xmlns="http://www.w3.org/2000/svg" viewBox="0 0 16 16" shape-rendering="geometricPrecision" fill="#24437c"><defs><mask id="decline-path"><rect fill="#fff" width="100%" height="100%"/><polygon points="17.414,1.215 14.79,-1.414 13.066,0.308 11.344,-1.414 8.717,1.213 10.439,2.934 8.715,4.656 11.345,7.284 13.067,5.562 14.789,7.285 17.414,4.655 15.693,2.935 " fill="#000"/></mask></defs><g fill="#cb1800"><polygon points="16,4.656 14.278,2.935 16,1.214 14.789,0.001 13.066,1.722 11.344,0.001 10.132,1.213 11.854,2.934 10.13,4.656 11.345,5.87 13.067,4.147 14.789,5.87 "/></g><g mask="url(#decline-path)"><path d="M5.583,11.08V9.383L4.325,11.08H5.583z M10.827,4.962c0.454,0,0.82-0.368,0.82-0.82V1.876 c0-0.449-0.366-0.818-0.82-0.818c-0.453,0-0.818,0.369-0.818,0.818v2.266C10.008,4.594,10.373,4.962,10.827,4.962z M5.174,4.962 c0.452,0,0.818-0.368,0.818-0.82V1.876c0-0.449-0.366-0.818-0.818-0.818c-0.455,0-0.818,0.369-0.818,0.818v2.266 C4.356,4.594,4.719,4.962,5.174,4.962z M12.657,3.688v0.549c0,1.009-0.822,1.83-1.83,1.83c-1.015,0-1.83-0.821-1.83-1.83V3.688 H7.004v0.549c0,1.009-0.823,1.83-1.83,1.83c-1.015,0-1.831-0.821-1.831-1.83V3.688H1.474V15h13.052V3.688H12.657z M7.525,12.152 c-0.144,0.098-0.324,0.132-0.544,0.134h-0.09v0.589c0,0.225-0.048,0.42-0.176,0.561c-0.117,0.132-0.287,0.201-0.469,0.201H6.236 c-0.184,0.003-0.358-0.07-0.477-0.206c-0.126-0.142-0.177-0.335-0.177-0.556v-0.589H3.73c-0.275,0-0.507-0.063-0.674-0.212 c-0.162-0.146-0.241-0.354-0.241-0.584c0-0.069,0.013-0.138,0.037-0.205c0.023-0.066,0.058-0.131,0.101-0.196 c0.038-0.061,0.079-0.119,0.121-0.174c0.039-0.054,0.091-0.119,0.148-0.197L5.34,7.885c0.143-0.19,0.26-0.331,0.36-0.427 c0.115-0.11,0.268-0.17,0.428-0.168c0.23-0.002,0.438,0.07,0.573,0.227c0.135,0.157,0.189,0.37,0.19,0.624l-0.001,2.94h0.018 c0.219,0,0.403,0.027,0.558,0.097c0.192,0.084,0.281,0.291,0.275,0.509C7.747,11.872,7.673,12.051,7.525,12.152z M12.272,13.353 c-0.125,0.131-0.306,0.186-0.506,0.185H8.814c-0.223,0-0.424-0.068-0.567-0.211c-0.138-0.134-0.216-0.311-0.214-0.499 c0.001-0.135,0.046-0.277,0.122-0.446c0.077-0.17,0.163-0.309,0.266-0.418c0.355-0.369,0.678-0.688,0.967-0.952 c0.287-0.265,0.492-0.438,0.626-0.53c0.212-0.149,0.386-0.299,0.522-0.443c0.134-0.147,0.235-0.294,0.306-0.44 c0.067-0.146,0.099-0.285,0.099-0.415c0-0.147-0.033-0.269-0.099-0.379c-0.07-0.112-0.156-0.195-0.274-0.256 c-0.117-0.063-0.242-0.095-0.384-0.096c-0.304,0.005-0.514,0.12-0.696,0.391C9.482,8.849,9.43,8.963,9.371,9.135 c-0.065,0.19-0.142,0.343-0.237,0.46C9.024,9.73,8.85,9.797,8.667,9.794C8.5,9.796,8.34,9.734,8.226,9.618 c-0.122-0.121-0.178-0.29-0.177-0.47c-0.001-0.207,0.046-0.42,0.136-0.636c0.09-0.219,0.226-0.418,0.403-0.594 c0.181-0.18,0.407-0.321,0.675-0.428c0.274-0.108,0.59-0.161,0.944-0.161c0.422,0,0.792,0.065,1.107,0.205 c0.203,0.095,0.386,0.223,0.54,0.389c0.154,0.163,0.275,0.352,0.36,0.564c0.086,0.213,0.129,0.438,0.129,0.668 c0,0.356-0.09,0.688-0.268,0.981c-0.17,0.279-0.345,0.503-0.531,0.671c-0.174,0.157-0.461,0.398-0.863,0.728 c-0.397,0.323-0.669,0.576-0.808,0.745c0,0.001-0.001,0.001-0.002,0.003h1.778c0.226,0,0.422,0.045,0.571,0.161 c0.144,0.109,0.225,0.283,0.224,0.47C12.446,13.079,12.385,13.236,12.272,13.353z"/></g></svg>