<?xml version="1.0"?><!DOCTYPE svg PUBLIC "-//W3C//DTD SVG 1.1//EN" "http://www.w3.org/Graphics/SVG/1.1/DTD/svg11.dtd"><svg xmlns="http://www.w3.org/2000/svg" viewBox="0 0 16 16" shape-rendering="geometricPrecision" fill="#24437c"><defs><mask id="decline-path"><rect fill="#fff" width="100%" height="100%"/><polygon points="17.414,1.215 14.79,-1.414 13.066,0.308 11.344,-1.414 8.717,1.213 10.439,2.934 8.715,4.656 11.345,7.284 13.067,5.562 14.789,7.285 17.414,4.655 15.693,2.935 " fill="#000"/></mask></defs><g fill="#cb1800"><polygon points="16,4.656 14.278,2.935 16,1.214 14.789,0.001 13.066,1.722 11.344,0.001 10.132,1.213 11.854,2.934 10.13,4.656 11.345,5.87 13.067,4.147 14.789,5.87 "/></g><g mask="url(#decline-path)"><path d="M2.021,8.002c0,3.234,2.582,5.877,5.792,5.976V8.104L2.423,5.85C2.156,6.538,2.021,7.261,2.021,8.002z"/><path d="M5.608,2.526c-1.006,0.442-1.886,1.166-2.516,2.07l4.456,2.731L5.608,2.526z"/><path d="M8,2.022c-0.343,0-0.693,0.031-1.044,0.095l1.355,5.788l0.786,5.967c2.8-0.521,4.881-3.001,4.881-5.87 C13.979,4.704,11.297,2.022,8,2.022z"/></g></svg>
