<svg width="16" height="16" xmlns="http://www.w3.org/2000/svg" viewBox="0 0 16 16" shape-rendering="geometricPrecision" fill="#fff"><defs><mask id="a"><rect width="100%" height="100%"/><path d="M12.997.858c-1.845 0-3.446 1.04-4.253 2.563.808 1.524 2.408 2.563 4.253 2.563 1.844 0 3.444-1.04 4.253-2.562C16.44 1.898 14.84.86 12.997.86z" fill="#000"/></mask></defs><path d="M12.997 1.61c-1.303 0-2.433.734-3.003 1.81.57 1.076 1.7 1.81 3.003 1.81 1.302 0 2.432-.733 3.003-1.81-.57-1.075-1.7-1.81-3.003-1.81zm0 3.397c-.877 0-1.588-.71-1.588-1.586 0-.876.71-1.587 1.586-1.587.877 0 1.588.71 1.588 1.588 0 .877-.71 1.587-1.588 1.587z" fill="#cb1800"/><path d="M12.933 2.584H3.067c-1.166 0-2.12.953-2.12 2.12v5.503c0 1.164.954 2.12 2.12 2.12h.987c.023.76-.2 1.757-1.224 2.673 2.905-.45 4.518-2.537 4.62-2.674h5.482c1.166 0 2.12-.955 2.12-2.12V4.704c0-1.166-.953-2.12-2.12-2.12zM4.495 8.746c-.71 0-1.288-.578-1.288-1.29 0-.71.577-1.286 1.288-1.286.71 0 1.288.576 1.288 1.287 0 .71-.577 1.29-1.288 1.29zm3.505 0c-.71 0-1.29-.578-1.29-1.29 0-.71.58-1.286 1.29-1.286.71 0 1.287.576 1.287 1.287 0 .71-.576 1.29-1.287 1.29zm3.505 0c-.71 0-1.288-.578-1.288-1.29 0-.71.577-1.286 1.288-1.286.71 0 1.288.576 1.288 1.287 0 .71-.577 1.29-1.288 1.29z" mask="url(#a)"/></svg>