<svg width="16" height="16" xmlns="http://www.w3.org/2000/svg" viewBox="0 0 16 16" shape-rendering="geometricPrecision" fill="#fff"><defs><mask id="a"><rect width="100%" height="100%"/><path d="M12.997.858c-1.845 0-3.446 1.04-4.253 2.563.808 1.524 2.408 2.563 4.253 2.563 1.844 0 3.444-1.04 4.253-2.562C16.44 1.898 14.84.86 12.997.86z" fill="#000"/></mask></defs><path d="M12.997 1.61c-1.303 0-2.433.734-3.003 1.81.57 1.076 1.7 1.81 3.003 1.81 1.302 0 2.432-.733 3.003-1.81-.57-1.075-1.7-1.81-3.003-1.81zm0 3.397c-.877 0-1.588-.71-1.588-1.586 0-.876.71-1.587 1.586-1.587.877 0 1.588.71 1.588 1.588 0 .877-.71 1.587-1.588 1.587z" fill="#cb1800"/><path d="M14.625 6.406c-.28-.844-3.277.058-5.172.453-.673.14.552-1.62 1.235-2.89.398-.743-.03-1-2.375-1.032C5.97 2.906 1.49 4.244 1.063 7.5c-.44 3.344 2.624 6.03 7.593 5.344 5.95-.823 6.164-5.853 5.97-6.438zm-12.11.453c0-.51.414-.923.923-.923.51 0 .922.413.922.922 0 .508-.413.92-.922.92-.51 0-.922-.41-.922-.92zm1.376 4.003c-.57 0-1.03-.462-1.03-1.03 0-.57.462-1.032 1.03-1.032.57 0 1.032.463 1.032 1.032 0 .57-.462 1.03-1.03 1.03zM4.923 5.03c0-.413.336-.75.75-.75s.75.337.75.75c0 .415-.336.75-.75.75s-.75-.335-.75-.75zm2.328 7c-.644.073-1.226-.39-1.3-1.034-.074-.644.39-1.226 1.033-1.3.644-.074 1.226.39 1.3 1.033.073.644-.39 1.225-1.033 1.3zm3.246-.564c-.644.074-1.226-.39-1.3-1.033-.074-.644.39-1.226 1.033-1.3.643-.074 1.225.39 1.3 1.033.072.644-.39 1.226-1.034 1.3zm2.146-2.242c-.44.05-.837-.266-.888-.706-.05-.44.266-.837.706-.888.44-.05.838.266.888.706.05.44-.266.837-.706.888z" mask="url(#a)"/></svg>