<?xml version="1.0"?><!DOCTYPE svg PUBLIC "-//W3C//DTD SVG 1.1//EN" "http://www.w3.org/Graphics/SVG/1.1/DTD/svg11.dtd"><svg width="16px" height="16px" xmlns="http://www.w3.org/2000/svg" viewBox="0 0 16 16" shape-rendering="geometricPrecision" fill="#abb7ce"><defs><mask id="move_right-path"><rect fill="#fff" width="100%" height="100%"/><polygon points="11.875,-1.414 9.405,1.056 11.44,3.095 9.405,5.132 11.875,7.604 16.385,3.093 " fill="#000"/></mask></defs><polygon points="11.875,0 10.818,1.057 12.853,3.095 10.818,5.132 11.875,6.189 14.97,3.093 " fill="#cb1800"/><g mask="url(#move_right-path)"><path d="M10.868,4.2c0.26-0.306,0.227-0.766-0.079-1.026c-0.304-0.264-0.761-0.23-1.027,0.072l0,0L9.38,3.688 l1.105,0.956L10.868,4.2L10.868,4.2z M6.191,8.498l0.751-0.296L6.379,7.717L6.191,8.498z M6.545,6.972l1.104,0.956l2.573-2.981 L9.118,3.993L6.545,6.972z"/><rect x="4.985" y="3.037" width="2.236" height="0.745"/><rect x="4.985" y="4.528" width="2.236" height="0.745"/><g><polygon points="10.055,14.302 12.595,11.964 10.055,11.964"/><path d="M2.595,1.016v13.969h6.008v-4.468h4.802V1.016H2.595z M12.034,9.043h-4.79v4.601H3.917V2.318h8.116V9.043z"/></g></g></svg>