<?xml version="1.0"?><!DOCTYPE svg PUBLIC "-//W3C//DTD SVG 1.1//EN" "http://www.w3.org/Graphics/SVG/1.1/DTD/svg11.dtd"><svg xmlns="http://www.w3.org/2000/svg" viewBox="0 0 16 16" shape-rendering="geometricPrecision" fill="#abb7ce"><defs><mask id="move_right-path"><rect fill="#fff" width="100%" height="100%"/><polygon points="11.875,-1.414 9.405,1.056 11.44,3.095 9.405,5.132 11.875,7.604 16.385,3.093 " fill="#000"/></mask></defs><polygon points="11.875,0 10.818,1.057 12.853,3.095 10.818,5.132 11.875,6.189 14.97,3.093 " fill="#cb1800"/><g mask="url(#move_right-path)"><g><path d="M8.036,3.658c1.012,0,1.83-0.822,1.83-1.828C9.866,0.818,9.048,0,8.036,0S6.204,0.818,6.204,1.83 C6.204,2.836,7.024,3.658,8.036,3.658z M9.841,14.187V5.531H4.36v1.361h1.797v7.295H4.354V16h7.291v-1.813H9.841z"/></g></g></svg>
