<svg width="16" height="16" xmlns="http://www.w3.org/2000/svg" viewBox="0 0 16 16" shape-rendering="geometricPrecision" fill="#00962d"><defs><mask id="a"><rect fill="#fff" width="100%" height="100%"/><path fill="#000" d="M14.67-1.414l-3.227 3.227-1.69-1.69-2.74 2.743L11.444 7.3l5.97-5.97z"/></mask></defs><path fill="#cb1800" d="M16 1.33L14.67 0l-3.227 3.228-1.69-1.69-1.327 1.33 3.02 3.018"/><path d="M2.13 11.885V7.242l2.655 2.654 3.757-3.758 1.98 1.98 3.566-3.564-.92-.92-2.645 2.642-1.06-1.06.01-.008-.92-.92-3.77 3.765L2.14 5.41l-.01.01V3.74H1.038v9.242l.797-.002v.002h13.13v-1.095" mask="url(#a)"/></svg>