<?xml version="1.0"?><!DOCTYPE svg PUBLIC "-//W3C//DTD SVG 1.1//EN" "http://www.w3.org/Graphics/SVG/1.1/DTD/svg11.dtd"><svg width="16px" height="16px" xmlns="http://www.w3.org/2000/svg" viewBox="0 0 16 16" shape-rendering="geometricPrecision" fill="#00962d"><defs><mask id="accept-path"><rect fill="#fff" width="100%" height="100%"/><polygon points="14.671,-1.414 11.443,1.813 9.753,0.123 7.012,2.866 11.445,7.299 17.414,1.329 " fill="#000"/></mask></defs><polygon points="16,1.33 14.671,0 11.443,3.228 9.753,1.539 8.426,2.867 11.445,5.886 " fill="#cb1800"/><g mask="url(#accept-path)"><g><path d="M8.032,4.168c0.888,0,1.605-0.721,1.605-1.603c0-0.888-0.718-1.605-1.605-1.605c-0.888,0-1.606,0.718-1.606,1.605 C6.425,3.447,7.144,4.168,8.032,4.168z M9.615,13.403V5.812H4.807v1.194h1.576v6.397H4.802v1.591h6.395v-1.591H9.615z"/></g></g></svg>