<?xml version="1.0"?><!DOCTYPE svg PUBLIC "-//W3C//DTD SVG 1.1//EN" "http://www.w3.org/Graphics/SVG/1.1/DTD/svg11.dtd"><svg width="16px" height="16px" xmlns="http://www.w3.org/2000/svg" viewBox="0 0 16 16" shape-rendering="geometricPrecision" fill="#00962d"><defs><mask id="accept-path"><rect fill="#fff" width="100%" height="100%"/><polygon points="14.671,-1.414 11.443,1.813 9.753,0.123 7.012,2.866 11.445,7.299 17.414,1.329 " fill="#000"/></mask></defs><polygon points="16,1.33 14.671,0 11.443,3.228 9.753,1.539 8.426,2.867 11.445,5.886 " fill="#cb1800"/><g mask="url(#accept-path)"><path d="M8.291,3.837H6.674v3.414h1.711c0.636,0,1.125-0.149,1.469-0.449c0.344-0.3,0.516-0.728,0.516-1.285 C10.369,4.397,9.677,3.837,8.291,3.837z"/><path d="M8,0C3.582,0,0,3.582,0,8s3.582,8,8,8c4.418,0,8-3.582,8-8S12.418,0,8,0z M11.51,7.243 c-0.317,0.489-0.753,0.845-1.305,1.066C9.653,8.531,8.861,8.642,7.83,8.642H6.674v4.734h-1.57V2.446h3.461 c1.042,0,1.872,0.281,2.492,0.844s0.93,1.317,0.93,2.266C11.986,6.191,11.827,6.754,11.51,7.243z"/></g></svg>