<?xml version="1.0"?><!DOCTYPE svg PUBLIC "-//W3C//DTD SVG 1.1//EN" "http://www.w3.org/Graphics/SVG/1.1/DTD/svg11.dtd"><svg width="16px" height="16px" xmlns="http://www.w3.org/2000/svg" viewBox="0 0 16 16" shape-rendering="geometricPrecision" fill="#00962d"><defs><mask id="accept-path"><rect fill="#fff" width="100%" height="100%"/><polygon points="14.671,-1.414 11.443,1.813 9.753,0.123 7.012,2.866 11.445,7.299 17.414,1.329 " fill="#000"/></mask></defs><polygon points="16,1.33 14.671,0 11.443,3.228 9.753,1.539 8.426,2.867 11.445,5.886 " fill="#cb1800"/><g mask="url(#accept-path)"><path d="M11.231,3.39c0.003-0.045,0.008-0.09,0.008-0.137c0-1.789-1.45-3.241-3.24-3.241 c-1.391,0-2.571,0.875-3.031,2.104l1.31,0.401c0.287-0.668,0.951-1.136,1.723-1.136c1.033,0,1.871,0.839,1.871,1.872 c0,0.527-0.221,1.002-0.57,1.342C8.718,5.216,8.274,5.216,7.128,5.831C5.3,6.813,4.855,8.341,4.758,9.243v6.745h6.483V3.388 h-0.011V3.39z M10.419,14.005l-1.02,1.023l-1.452-1.453l-1.452,1.454l-1.023-1.024l1.453-1.453l-1.452-1.451l1.022-1.022 l1.451,1.452l1.453-1.452l1.02,1.022l-1.452,1.451L10.419,14.005z"/></g></svg>