<svg width="16" height="16" xmlns="http://www.w3.org/2000/svg" viewBox="0 0 16 16" shape-rendering="geometricPrecision" fill="#24437c"><defs><mask id="a"><rect fill="#fff" width="100%" height="100%"/><path d="M12.997.858c-1.845 0-3.446 1.04-4.253 2.563.808 1.524 2.408 2.563 4.253 2.563 1.844 0 3.444-1.04 4.253-2.562C16.44 1.898 14.84.86 12.997.86z" fill="#000"/></mask></defs><path d="M12.997 1.61c-1.303 0-2.433.734-3.003 1.81.57 1.076 1.7 1.81 3.003 1.81 1.302 0 2.432-.733 3.003-1.81-.57-1.075-1.7-1.81-3.003-1.81zm0 3.397c-.877 0-1.588-.71-1.588-1.586 0-.876.71-1.587 1.586-1.587.877 0 1.588.71 1.588 1.588 0 .877-.71 1.587-1.588 1.587z" fill="#cb1800"/><g mask="url(#a)"><path d="M9.284 2.017c-.438 0-.546.125-.735.747l-2.88 9.274c-.168.554-.277.904-.277 1.108 0 .544.408.78.725.78.437 0 .546-.124.734-.746L9.73 3.907c.17-.555.277-.906.277-1.108 0-.546-.405-.783-.723-.783zM4.523 3.425c.132-.414-.12-.725-.362-.826-.332-.14-.445-.08-.74.334L.583 6.854c-.193.27-.315.452-.397.598-.025.037-.045.076-.063.12-.005.01-.02.03-.022.038-.005.018 0 .032-.006.05-.014.052-.02.105-.02.165 0 .06.006.115.02.168.005.017 0 .03.006.047.003.01.017.027.02.038.02.045.04.084.066.122.082.147.203.327.396.598l2.834 3.92c.296.412.41.474.742.336.243-.102.494-.413.362-.828-.05-.152-.22-.387-.482-.756L1.405 7.825 4.04 4.182c.264-.37.433-.603.483-.757zM15.988 7.825c0-.06-.006-.114-.02-.168-.004-.017 0-.03-.005-.047-.003-.01-.017-.027-.02-.038-.02-.044-.04-.083-.065-.12-.082-.146-.203-.328-.397-.6l-2.834-3.918c-.296-.414-.41-.475-.742-.336-.243.102-.495.412-.362.826.05.154.22.39.48.758l2.638 3.643-2.637 3.645c-.263.368-.432.604-.48.756-.134.415.118.727.36.828.334.138.447.076.743-.337l2.835-3.92c.193-.27.314-.448.396-.596.027-.037.048-.078.066-.123.004-.01.017-.027.02-.037.005-.017 0-.03.005-.045.015-.054.022-.11.02-.17z"/></g></svg>