<svg width="16" height="16" xmlns="http://www.w3.org/2000/svg" viewBox="0 0 16 16" shape-rendering="geometricPrecision" fill="#24437c"><defs><mask id="a"><rect fill="#fff" width="100%" height="100%"/><path d="M12.997.858c-1.845 0-3.446 1.04-4.253 2.563.808 1.524 2.408 2.563 4.253 2.563 1.844 0 3.444-1.04 4.253-2.562C16.44 1.898 14.84.86 12.997.86z" fill="#000"/></mask></defs><path d="M12.997 1.61c-1.303 0-2.433.734-3.003 1.81.57 1.076 1.7 1.81 3.003 1.81 1.302 0 2.432-.733 3.003-1.81-.57-1.075-1.7-1.81-3.003-1.81zm0 3.397c-.877 0-1.588-.71-1.588-1.586 0-.876.71-1.587 1.586-1.587.877 0 1.588.71 1.588 1.588 0 .877-.71 1.587-1.588 1.587z" fill="#cb1800"/><g mask="url(#a)"><path d="M1.06 3.2v2.776c0 .59.48 1.07 1.07 1.07h2.767c.052.07.866 1.123 2.333 1.35-.516-.46-.63-.965-.618-1.35h.5c.587 0 1.068-.48 1.068-1.07V3.2c0-.59-.48-1.07-1.07-1.07H2.13c-.59 0-1.07.48-1.07 1.07zm1.273 1.425h4.51v.63h-4.51v-.63zm0-1.303h4.51v.63h-4.51v-.63zM13.15 6.007c0-1.177-.954-2.13-2.13-2.13-1.18 0-2.13.953-2.13 2.13 0 1.178.95 2.13 2.13 2.13 1.176 0 2.13-.952 2.13-2.13zM6.987 11.2v2.67h8.067V11.2c0-1.128-.918-2.052-2.047-2.052H9.04c-1.127 0-2.053.924-2.053 2.053z"/></g></svg>