<svg width="16" height="16" xmlns="http://www.w3.org/2000/svg" viewBox="0 0 16 16" shape-rendering="geometricPrecision" fill="#24437c"><defs><mask id="a"><rect fill="#fff" width="100%" height="100%"/><path d="M12.997.858c-1.845 0-3.446 1.04-4.253 2.563.808 1.524 2.408 2.563 4.253 2.563 1.844 0 3.444-1.04 4.253-2.562C16.44 1.898 14.84.86 12.997.86z" fill="#000"/></mask></defs><path d="M12.997 1.61c-1.303 0-2.433.734-3.003 1.81.57 1.076 1.7 1.81 3.003 1.81 1.302 0 2.432-.733 3.003-1.81-.57-1.075-1.7-1.81-3.003-1.81zm0 3.397c-.877 0-1.588-.71-1.588-1.586 0-.876.71-1.587 1.586-1.587.877 0 1.588.71 1.588 1.588 0 .877-.71 1.587-1.588 1.587z" fill="#cb1800"/><path mask="url(#a)" d="M14.49 13.12L14.478 0H4.033c-1.376.003-2.498.62-2.52 1.987-.003.025-.003.53 0 .535v.003c0 .04.01.076.01.117h-.008v10.826c0 1.397 1.132 2.532 2.53 2.532h8.384l-.038-1.69-.01-11.344h-8.35c-.495 0-1.68-.048-1.68-.98v-.093C2.405 1.008 3.538.84 4.033.84h9.594v12.28h.864zM7.678 4.505c1.19 0 2.15.96 2.15 2.146 0 1.188-.96 2.148-2.15 2.148-1.186 0-2.148-.96-2.148-2.148 0-1.185.962-2.146 2.148-2.146zM4.09 11.89c0-1.138.926-2.07 2.065-2.07h3c1.14 0 2.073.933 2.073 2.07v2.692H4.09V11.89z"/></svg>