<svg width="16" height="16" xmlns="http://www.w3.org/2000/svg" viewBox="0 0 16 16" shape-rendering="geometricPrecision" fill="#24437c"><defs><mask id="a"><rect fill="#fff" width="100%" height="100%"/><path d="M12.997.858c-1.845 0-3.446 1.04-4.253 2.563.808 1.524 2.408 2.563 4.253 2.563 1.844 0 3.444-1.04 4.253-2.562C16.44 1.898 14.84.86 12.997.86z" fill="#000"/></mask></defs><path d="M12.997 1.61c-1.303 0-2.433.734-3.003 1.81.57 1.076 1.7 1.81 3.003 1.81 1.302 0 2.432-.733 3.003-1.81-.57-1.075-1.7-1.81-3.003-1.81zm0 3.397c-.877 0-1.588-.71-1.588-1.586 0-.876.71-1.587 1.586-1.587.877 0 1.588.71 1.588 1.588 0 .877-.71 1.587-1.588 1.587z" fill="#cb1800"/><path d="M8 .973c-3.865 0-6.997 3.133-6.997 7 0 3.862 3.132 6.992 6.996 6.994 3.864-.002 6.997-3.132 6.997-6.994 0-3.868-3.133-7-6.998-7zm0 12.58c-3.083-.007-5.576-2.5-5.582-5.58.006-3.085 2.5-5.58 5.58-5.585 3.083.006 5.577 2.5 5.583 5.585-.006 3.08-2.5 5.573-5.58 5.58zm.005-3.427c-.683 0-1.16.49-1.16 1.175 0 .672.464 1.173 1.147 1.173h.013c.698 0 1.148-.5 1.148-1.172-.01-.684-.462-1.174-1.148-1.174zm.736-.646l.287-5.845H6.974L7.27 9.48h1.47z" mask="url(#a)"/></svg>