<svg width="16" height="16" xmlns="http://www.w3.org/2000/svg" viewBox="0 0 16 16" shape-rendering="geometricPrecision" fill="#24437c"><defs><mask id="a"><rect fill="#fff" width="100%" height="100%"/><path d="M12.997.858c-1.845 0-3.446 1.04-4.253 2.563.808 1.524 2.408 2.563 4.253 2.563 1.844 0 3.444-1.04 4.253-2.562C16.44 1.898 14.84.86 12.997.86z" fill="#000"/></mask></defs><path d="M12.997 1.61c-1.303 0-2.433.734-3.003 1.81.57 1.076 1.7 1.81 3.003 1.81 1.302 0 2.432-.733 3.003-1.81-.57-1.075-1.7-1.81-3.003-1.81zm0 3.397c-.877 0-1.588-.71-1.588-1.586 0-.876.71-1.587 1.586-1.587.877 0 1.588.71 1.588 1.588 0 .877-.71 1.587-1.588 1.587z" fill="#cb1800"/><g mask="url(#a)"><path d="M10.56 10.525l-1.328-.154-1.106.753-1.104-.752-.046.006L8.35 15.33l1.664-1.83 2.382.71-1.3-4.69"/><path d="M12.17 5.086l.282-1.182-.996-.698-.298-1.178-1.207-.155L9.14.97 8 1.39 6.86.97l-.81.903-1.207.155-.3 1.178-.995.698.283 1.182-.557 1.08.8.916.008 1.215 1.135.44.572 1.073 1.21-.14 1.002.685 1.005-.686 1.208.138.57-1.072 1.135-.44.008-1.215.8-.914-.557-1.08zM8 9.56c-2.154 0-3.9-1.744-3.9-3.897C4.1 3.51 5.847 1.765 8 1.765c2.153 0 3.898 1.744 3.898 3.897s-1.745 3.9-3.9 3.9z"/><circle cx="8.03" cy="5.662" r="3.142"/><path d="M5.486 10.51l-.63-1.18-.034-.014-1.092 4.96 2.53-.907 1.337 1.316-1.186-4.282"/></g></svg>