<svg width="16" height="16" xmlns="http://www.w3.org/2000/svg" viewBox="0 0 16 16" shape-rendering="geometricPrecision" fill="#6e6e6e"><defs><mask id="a"><rect fill="#fff" width="100%" height="100%"/><path fill="#000" d="M19.08 1.436h-4.915L12.65-3.238l-1.52 4.674H6.217l3.975 2.886-1.516 4.673 3.972-2.888 3.972 2.89-1.516-4.675z"/></mask></defs><path fill="#cb1800" d="M13.928 3.94L16 2.435h-2.56L12.647 0l-.79 2.435H9.294l2.072 1.505-.79 2.437 2.07-1.506 2.072 1.507"/><g mask="url(#a)"><path d="M4.27 11.728l4.867-2.562L11.7 4.3 6.832 6.863 4.27 11.728zm2.96-4.47c.417-.417 1.094-.417 1.51 0 .42.42.42 1.096 0 1.513-.417.42-1.094.42-1.51 0-.42-.417-.42-1.094 0-1.51z"/><path d="M8 1.01c-3.86 0-6.99 3.13-6.99 6.993 0 3.858 3.13 6.985 6.99 6.986 3.86-.003 6.988-3.13 6.99-6.987C14.99 4.14 11.86 1.01 8 1.01zm1.145 12.445L8 12.31l-1.145 1.145c-2.16-.454-3.857-2.152-4.31-4.31L3.69 8 2.546 6.855C3 4.695 4.696 3 6.856 2.545L8 3.69l1.145-1.145c2.158.453 3.855 2.15 4.31 4.31L12.31 8l1.146 1.146c-.453 2.158-2.15 3.856-4.31 4.31z"/></g></svg>