<?xml version="1.0"?><!DOCTYPE svg PUBLIC "-//W3C//DTD SVG 1.1//EN" "http://www.w3.org/Graphics/SVG/1.1/DTD/svg11.dtd"><svg xmlns="http://www.w3.org/2000/svg" viewBox="0 0 16 16" shape-rendering="geometricPrecision" fill="#6e6e6e"><defs><mask id="new-path"><rect fill="#fff" width="100%" height="100%"/><polygon points="19.079,1.436 14.165,1.436 12.649,-3.238 11.13,1.436 6.217,1.436 10.192,4.322 8.676,8.995 12.648,6.107 16.62,8.996 15.104,4.322 " fill="#000"/></mask></defs><polygon points="13.928,3.94 16,2.435 13.439,2.435 12.648,0 11.857,2.435 9.295,2.435 11.367,3.94 10.577,6.377 12.648,4.871 14.719,6.377 " fill="#cb1800"/><g mask="url(#new-path)"><path d="M12.421,2.295H3.568c-1.395,0-2.527,1.133-2.529,2.528V9.76c0.002,1.395,1.134,2.527,2.529,2.529h0.196 c-0.097,0.402-0.325,0.845-0.828,1.304L1.368,15l2.084-0.319c2.36-0.374,3.82-1.796,4.344-2.392h4.625 c1.397-0.002,2.527-1.135,2.529-2.529V4.823C14.948,3.428,13.818,2.295,12.421,2.295z M13.693,9.76 c0,0.696-0.577,1.272-1.272,1.274H7.188L7,11.284c-0.033,0.05-0.784,1.016-2.124,1.657c0.153-0.422,0.211-0.832,0.207-1.188 c0-0.023,0-0.062-0.001-0.108l-0.018-0.61H3.568c-0.695-0.002-1.272-0.578-1.272-1.274V4.823c0-0.698,0.577-1.272,1.272-1.273 h8.853c0.696,0.002,1.272,0.575,1.272,1.273V9.76z M4.849,6.242c-0.638,0-1.155,0.518-1.155,1.156 c0,0.637,0.517,1.155,1.155,1.155c0.638,0,1.156-0.519,1.156-1.155C6.005,6.76,5.487,6.242,4.849,6.242z M7.995,6.242 c-0.638,0-1.157,0.518-1.157,1.156c0,0.637,0.52,1.155,1.157,1.155c0.637,0,1.155-0.519,1.155-1.155 C9.15,6.76,8.632,6.242,7.995,6.242z M11.14,6.242c-0.637,0-1.156,0.518-1.156,1.156c0,0.637,0.519,1.155,1.156,1.155 c0.639,0,1.155-0.519,1.155-1.155C12.295,6.76,11.778,6.242,11.14,6.242z"/></g></svg>
