<?xml version="1.0"?><!DOCTYPE svg PUBLIC "-//W3C//DTD SVG 1.1//EN" "http://www.w3.org/Graphics/SVG/1.1/DTD/svg11.dtd"><svg width="16px" height="16px" xmlns="http://www.w3.org/2000/svg" viewBox="0 0 16 16" shape-rendering="geometricPrecision" fill="#6e6e6e"><defs><mask id="new-path"><rect fill="#fff" width="100%" height="100%"/><polygon points="19.079,1.436 14.165,1.436 12.649,-3.238 11.13,1.436 6.217,1.436 10.192,4.322 8.676,8.995 12.648,6.107 16.62,8.996 15.104,4.322 " fill="#000"/></mask></defs><polygon points="13.928,3.94 16,2.435 13.439,2.435 12.648,0 11.857,2.435 9.295,2.435 11.367,3.94 10.577,6.377 12.648,4.871 14.719,6.377 " fill="#cb1800"/><g mask="url(#new-path)"><path d="M11.805,2.414c0.356-0.906-0.084-1.934-0.99-2.293C9.91-0.243,8.885,0.195,8.515,1.097l0,0L7.986,2.414 l3.291,1.321l0.531-1.321H11.805z M4.463,15.971l1.491-1.273l-1.676-0.668L4.463,15.971z M4.072,12.189l3.289,1.319l3.554-8.869 l-3.29-1.318L4.072,12.189z"/></g></svg>