<svg width="16" height="16" xmlns="http://www.w3.org/2000/svg" viewBox="0 0 16 16" shape-rendering="geometricPrecision" fill="#6e6e6e"><defs><mask id="a"><rect fill="#fff" width="100%" height="100%"/><path fill="#000" d="M19.08 1.436h-4.915L12.65-3.238l-1.52 4.674H6.217l3.975 2.886-1.516 4.673 3.972-2.888 3.972 2.89-1.516-4.675z"/></mask></defs><path fill="#cb1800" d="M13.928 3.94L16 2.435h-2.56L12.647 0l-.79 2.435H9.294l2.072 1.505-.79 2.437 2.07-1.506 2.072 1.507"/><g mask="url(#a)"><path d="M2.764 2.068l1.79-1.79L8 3.723 11.45.277l1.79 1.79-5.24 5.24M1.04 8.334v6.636H15V8.334H1.04zM12.2 12.248c-.6 0-1.08-.484-1.08-1.082s.48-1.08 1.08-1.08c.596 0 1.08.482 1.08 1.08s-.484 1.082-1.08 1.082z"/></g></svg>