<svg width="16" height="16" xmlns="http://www.w3.org/2000/svg" viewBox="0 0 16 16" shape-rendering="geometricPrecision" fill="#6e6e6e"><defs><mask id="a"><rect fill="#fff" width="100%" height="100%"/><path fill="#000" d="M19.08 1.436h-4.915L12.65-3.238l-1.52 4.674H6.217l3.975 2.886-1.516 4.673 3.972-2.888 3.972 2.89-1.516-4.675z"/></mask></defs><path fill="#cb1800" d="M13.928 3.94L16 2.435h-2.56L12.647 0l-.79 2.435H9.294l2.072 1.505-.79 2.437 2.07-1.506 2.072 1.507"/><path d="M8.032 4.168c.888 0 1.605-.72 1.605-1.603C9.637 1.677 8.92.96 8.032.96c-.888 0-1.606.718-1.606 1.605 0 .882.718 1.603 1.606 1.603zm1.583 9.235v-7.59H4.807v1.193h1.576v6.397h-1.58v1.59h6.394v-1.59H9.615z" mask="url(#a)"/></svg>