<svg width="16" height="16" xmlns="http://www.w3.org/2000/svg" viewBox="0 0 16 16" shape-rendering="geometricPrecision" fill="#6e6e6e"><defs><mask id="a"><rect fill="#fff" width="100%" height="100%"/><path fill="#000" d="M19.08 1.436h-4.915L12.65-3.238l-1.52 4.674H6.217l3.975 2.886-1.516 4.673 3.972-2.888 3.972 2.89-1.516-4.675z"/></mask></defs><path fill="#cb1800" d="M13.928 3.94L16 2.435h-2.56L12.647 0l-.79 2.435H9.294l2.072 1.505-.79 2.437 2.07-1.506 2.072 1.507"/><g mask="url(#a)"><path d="M12.127 5.803l-2.94 2.94c.372.335.61.817.61 1.358 0 1.016-.82 1.84-1.836 1.84s-1.836-.824-1.836-1.84c0-.56.256-1.055.652-1.392L3.834 5.765C2.688 6.857 1.97 8.395 1.97 10.102c0 3.31 2.682 5.99 5.99 5.99 3.31 0 5.992-2.682 5.992-5.99 0-1.69-.702-3.21-1.825-4.3z"/><path d="M4.004 0L1.93 2.076 7.996 8.15l6.075-6.074L11.998 0 8 3.995 4.005 0z"/></g></svg>