<svg width="16" height="16" xmlns="http://www.w3.org/2000/svg" viewBox="0 0 16 16" shape-rendering="geometricPrecision" fill="#6e6e6e"><defs><mask id="a"><rect fill="#fff" width="100%" height="100%"/><path fill="#000" d="M19.08 1.436h-4.915L12.65-3.238l-1.52 4.674H6.217l3.975 2.886-1.516 4.673 3.972-2.888 3.972 2.89-1.516-4.675z"/></mask></defs><path fill="#cb1800" d="M13.928 3.94L16 2.435h-2.56L12.647 0l-.79 2.435H9.294l2.072 1.505-.79 2.437 2.07-1.506 2.072 1.507"/><g mask="url(#a)"><path d="M14.186 9.847c0 .756-.626 1.38-1.38 1.384h-5.68l-.205.272c-.035.055-.852 1.103-2.305 1.798.166-.458.23-.9.225-1.29 0-.026 0-.065-.002-.118l-.018-.662H3.195c-.755-.003-1.38-.628-1.38-1.384V4.49c0-.76.625-1.383 1.38-1.385h9.61c.755.002 1.38.625 1.38 1.384v5.357z"/><path d="M12.455 2.215h-8.91C2.14 2.215 1.002 3.355 1 4.76v4.968c.002 1.402 1.142 2.543 2.545 2.544h.198c-.097.406-.327.85-.833 1.312L1.333 15l2.097-.32c2.375-.377 3.844-1.81 4.372-2.408h4.654C13.86 12.272 15 11.13 15 9.728V4.76c-.002-1.405-1.14-2.545-2.545-2.545zm1.28 7.513c0 .7-.58 1.28-1.28 1.28H7.19l-.19.254c-.033.05-.79 1.02-2.137 1.666.153-.425.21-.836.208-1.194v-.11l-.018-.614H3.545c-.7 0-1.28-.58-1.28-1.28V4.76c0-.703.58-1.28 1.28-1.282h8.91c.7.002 1.28.58 1.28 1.282v4.968z"/></g></svg>