<?xml version="1.0"?><!DOCTYPE svg PUBLIC "-//W3C//DTD SVG 1.1//EN" "http://www.w3.org/Graphics/SVG/1.1/DTD/svg11.dtd"><svg xmlns="http://www.w3.org/2000/svg" viewBox="0 0 16 16" shape-rendering="geometricPrecision" fill="#6e6e6e"><defs><mask id="new-path"><rect fill="#fff" width="100%" height="100%"/><polygon points="19.079,1.436 14.165,1.436 12.649,-3.238 11.13,1.436 6.217,1.436 10.192,4.322 8.676,8.995 12.648,6.107 16.62,8.996 15.104,4.322 " fill="#000"/></mask></defs><polygon points="13.928,3.94 16,2.435 13.439,2.435 12.648,0 11.857,2.435 9.295,2.435 11.367,3.94 10.577,6.377 12.648,4.871 14.719,6.377 " fill="#cb1800"/><g mask="url(#new-path)"><g><g><path d="M12.99,8.003c0,2.754-2.234,4.989-4.989,4.99c-2.758-0.001-4.992-2.236-4.992-4.99C3.007,5.246,5.241,3.01,7.998,3.01 L7.997,0.893C4.074,0.895,0.892,4.079,0.892,8.002c0,3.921,3.183,7.105,7.107,7.105c3.922,0.001,7.108-3.184,7.108-7.104H12.99z"/></g></g><polygon points="8.941,7.062 8.942,10.978 10.977,10.978 10.975,5.022 5.024,5.024 5.023,7.059"/></g></svg>
