<svg width="16" height="16" xmlns="http://www.w3.org/2000/svg" viewBox="0 0 16 16" shape-rendering="geometricPrecision" fill="#6e6e6e"><defs><mask id="a"><rect fill="#fff" width="100%" height="100%"/><path fill="#000" d="M19.08 1.436h-4.915L12.65-3.238l-1.52 4.674H6.217l3.975 2.886-1.516 4.673 3.972-2.888 3.972 2.89-1.516-4.675z"/></mask></defs><path fill="#cb1800" d="M13.928 3.94L16 2.435h-2.56L12.647 0l-.79 2.435H9.294l2.072 1.505-.79 2.437 2.07-1.506 2.072 1.507"/><g mask="url(#a)"><path d="M4.974 12.78h6.022c.786 0 1.423-.637 1.423-1.423V3.912c0-.786-.15-1.238-.922-1.423-.496-.123-1.537-.416-2.913-.487v-.4H9.65c.163 0 .295-.13.295-.293 0-.163-.132-.294-.294-.294H6.32c-.162 0-.294.132-.294.294 0 .162.132.294.294.294h1.066v.39c-1.756.047-2.252.295-2.912.495-.752.227-.92.636-.92 1.422v7.445c0 .786.636 1.423 1.422 1.423zm.908-1.368c-.337 0-.604-.253-.65-.577-.033.004-.065.01-.1.01-.446 0-.81-.363-.81-.81s.364-.81.81-.81.81.363.81.81c0 .018-.003.034-.004.052.342.03.613.308.613.657 0 .368-.3.668-.668.668zm4.888-.568c-.037 0-.072-.005-.107-.01-.046.324-.313.577-.65.577-.37 0-.668-.298-.668-.667 0-.35.27-.627.612-.657 0-.015-.005-.03-.005-.044-.004-.447.355-.813.803-.818.447-.004.813.355.817.803.005.447-.354.813-.802.817zM4.303 4.826c0-.786.164-1.212.92-1.423.582-.16 1.57-.323 2.805-.323 1.074 0 2.122.182 2.704.324.764.186.92.637.92 1.423l-.018.06c.008.06.02.12.02.183l-.183 1.618c0 .786-.163 1.212-.92 1.423-.58.163-1.387.325-2.622.325-1.074 0-1.91-.182-2.49-.324-.765-.185-.922-.637-.922-1.422l-.213-1.62c0-.062.01-.122.02-.182l-.02-.06zM3.463 14.94H6.01v-1.827H4.97M11.03 13.113H9.99v1.827h2.547"/></g></svg>