<?xml version="1.0"?><!DOCTYPE svg PUBLIC "-//W3C//DTD SVG 1.1//EN" "http://www.w3.org/Graphics/SVG/1.1/DTD/svg11.dtd"><svg xmlns="http://www.w3.org/2000/svg" viewBox="0 0 16 16" shape-rendering="geometricPrecision" fill="#6e6e6e"><defs><mask id="new-path"><rect fill="#fff" width="100%" height="100%"/><polygon points="19.079,1.436 14.165,1.436 12.649,-3.238 11.13,1.436 6.217,1.436 10.192,4.322 8.676,8.995 12.648,6.107 16.62,8.996 15.104,4.322 " fill="#000"/></mask></defs><polygon points="13.928,3.94 16,2.435 13.439,2.435 12.648,0 11.857,2.435 9.295,2.435 11.367,3.94 10.577,6.377 12.648,4.871 14.719,6.377 " fill="#cb1800"/><g mask="url(#new-path)"><g><polygon points="13.237,5.237 11.446,7.028 7.999,3.583 4.551,7.028 2.762,5.237 8.002,0"/><path d="M0,8v6.929h16V8H0z M14.413,13.495H1.588v-4.06h12.825V13.495z M12.026,11.978c0.519,0,0.939-0.416,0.939-0.93 c0-0.515-0.42-0.931-0.939-0.931c-0.521,0-0.941,0.416-0.941,0.931C11.085,11.561,11.505,11.978,12.026,11.978z"/></g></g></svg>
