<svg width="16" height="16" xmlns="http://www.w3.org/2000/svg" viewBox="0 0 16 16" shape-rendering="geometricPrecision" fill="#cb1800"><defs><mask id="a"><rect fill="#fff" width="100%" height="100%"/><path fill="#000" d="M17.414 1.215l-2.624-2.63L13.066.31l-1.722-1.722-2.627 2.627 1.722 1.72-1.725 1.723 2.63 2.628 1.722-1.722 1.722 1.723 2.624-2.63-1.72-1.72z"/></mask></defs><path d="M16 4.656l-1.722-1.72L16 1.213 14.79 0l-1.724 1.722-1.722-1.72-1.212 1.21 1.722 1.722-1.724 1.722 1.215 1.214 1.722-1.723L14.79 5.87"/><g mask="url(#a)"><path d="M0 5.12l3.176 3.182L0 11.48l1.65 1.65L6.48 8.3 1.65 3.473M7.144.605V14.7H8.21V1.67l4.058.003-2.67.764V16l6.4-1.832V1.674H16V.604H7.144zM15 13.47l-4.4 1.282V3.188L15 1.906V13.47z"/></g></svg>