<svg width="16" height="16" xmlns="http://www.w3.org/2000/svg" viewBox="0 0 16 16" shape-rendering="geometricPrecision" fill="#cb1800"><defs><mask id="a"><rect fill="#fff" width="100%" height="100%"/><path fill="#000" d="M17.414 1.215l-2.624-2.63L13.066.31l-1.722-1.722-2.627 2.627 1.722 1.72-1.725 1.723 2.63 2.628 1.722-1.722 1.722 1.723 2.624-2.63-1.72-1.72z"/></mask></defs><path d="M16 4.656l-1.722-1.72L16 1.213 14.79 0l-1.724 1.722-1.722-1.72-1.212 1.21 1.722 1.722-1.724 1.722 1.215 1.214 1.722-1.723L14.79 5.87"/><path d="M8.01 4.685c-.992-2.585-6.25-2.47-6.002 1.65.087 1.41 1.178 2.59 2.687 3.96 2.26 2.058 3.315 2.755 3.315 2.755s1.05-.697 3.314-2.755c1.505-1.37 2.6-2.55 2.683-3.96C14.254 2.215 9 2.1 8.01 4.685z" mask="url(#a)"/></svg>