<svg width="16" height="16" xmlns="http://www.w3.org/2000/svg" viewBox="0 0 16 16" shape-rendering="geometricPrecision" fill="#cb1800"><defs><mask id="a"><rect fill="#fff" width="100%" height="100%"/><path fill="#000" d="M17.414 1.215l-2.624-2.63L13.066.31l-1.722-1.722-2.627 2.627 1.722 1.72-1.725 1.723 2.63 2.628 1.722-1.722 1.722 1.723 2.624-2.63-1.72-1.72z"/></mask></defs><path d="M16 4.656l-1.722-1.72L16 1.213 14.79 0l-1.724 1.722-1.722-1.72-1.212 1.21 1.722 1.722-1.724 1.722 1.215 1.214 1.722-1.723L14.79 5.87"/><g mask="url(#a)"><path d="M3.032-.012v1.056h10.33v9.226h1.072V-.012M8.98 15.293l2.525-2.325H8.98"/><path d="M1.566 15.97h5.97v-4.44h4.774V2.088H1.566V15.97zM2.94 3.326h8.116v6.725h-4.79v4.602H2.94V3.326z"/></g></svg>