<?xml version="1.0"?><!DOCTYPE svg PUBLIC "-//W3C//DTD SVG 1.1//EN" "http://www.w3.org/Graphics/SVG/1.1/DTD/svg11.dtd"><svg width="16px" height="16px" xmlns="http://www.w3.org/2000/svg" viewBox="0 0 16 16" shape-rendering="geometricPrecision" fill="#cb1800"><defs><mask id="decline-path"><rect fill="#fff" width="100%" height="100%"/><polygon points="17.414,1.215 14.79,-1.414 13.066,0.308 11.344,-1.414 8.717,1.213 10.439,2.934 8.715,4.656 11.345,7.284 13.067,5.562 14.789,7.285 17.414,4.655 15.693,2.935 " fill="#000"/></mask></defs><g fill="#cb1800"><polygon points="16,4.656 14.278,2.935 16,1.214 14.789,0.001 13.066,1.722 11.344,0.001 10.132,1.213 11.854,2.934 10.13,4.656 11.345,5.87 13.067,4.147 14.789,5.87 "/></g><g mask="url(#decline-path)"><g><g><g><g><path d="M13.658,5.408h-3.342C9.18,5.409,8.463,6.048,8.153,6.926h5.392v0.002c0.004,0,0.006-0.002,0.008-0.002 c0.27,0,0.482,0.479,0.482,1.066c0,0.588-0.213,1.064-0.482,1.064H8.146c0.307,0.888,1.026,1.535,2.171,1.535h3.342 C15.223,10.592,16,9.385,16,8C16.002,6.615,15.225,5.408,13.658,5.408z"/></g></g><g><g><path d="M2.454,9.074V9.072c-0.002,0-0.004,0.002-0.006,0.002c-0.268,0-0.484-0.479-0.484-1.066 c0-0.588,0.217-1.064,0.484-1.064h5.406C7.546,6.056,6.828,5.408,5.684,5.408H2.342C0.78,5.408,0,6.615,0,8 c-0.002,1.385,0.777,2.592,2.342,2.592h3.342c1.135-0.001,1.852-0.64,2.162-1.518H2.454z"/></g></g></g><path d="M11.162,7.201H4.85C4.352,7.201,3.948,7.561,3.948,8c0,0.439,0.404,0.797,0.902,0.797h6.312c0.498,0,0.9-0.357,0.9-0.797 C12.062,7.561,11.66,7.201,11.162,7.201z"/></g></g></svg>