<?xml version="1.0"?><!DOCTYPE svg PUBLIC "-//W3C//DTD SVG 1.1//EN" "http://www.w3.org/Graphics/SVG/1.1/DTD/svg11.dtd"><svg xmlns="http://www.w3.org/2000/svg" viewBox="0 0 16 16" shape-rendering="geometricPrecision" fill="#cb1800"><defs><mask id="decline-path"><rect fill="#fff" width="100%" height="100%"/><polygon points="17.414,1.215 14.79,-1.414 13.066,0.308 11.344,-1.414 8.717,1.213 10.439,2.934 8.715,4.656 11.345,7.284 13.067,5.562 14.789,7.285 17.414,4.655 15.693,2.935 " fill="#000"/></mask></defs><g fill="#cb1800"><polygon points="16,4.656 14.278,2.935 16,1.214 14.789,0.001 13.066,1.722 11.344,0.001 10.132,1.213 11.854,2.934 10.13,4.656 11.345,5.87 13.067,4.147 14.789,5.87 "/></g><g mask="url(#decline-path)"><path d="M14.49,13.12L14.479-0.001H4.034C2.658,0.002,1.536,0.618,1.513,1.986c-0.003,0.025-0.003,0.529,0,0.535 v0.003c0,0.04,0.009,0.076,0.011,0.117H1.515v10.826c0,1.396,1.133,2.531,2.529,2.531h8.386l-0.038-1.689L12.383,2.965h-8.35 c-0.496,0-1.68-0.048-1.68-0.978V1.893c0.051-0.885,1.184-1.052,1.68-1.052h9.593V13.12H14.49z M4.011,3.966h7.35l0.004,10.992 L4.851,15c-1.396,0-2.529-1.135-2.529-2.531c0,0-0.005-9.456-0.002-9.481h0.011C2.331,3.918,3.515,3.966,4.011,3.966z"/><rect x="4.525" y="5.764" width="5.506" height="1.247"/><rect x="4.525" y="8.346" width="5.506" height="1.243"/></g></svg>
