<?xml version="1.0"?><!DOCTYPE svg PUBLIC "-//W3C//DTD SVG 1.1//EN" "http://www.w3.org/Graphics/SVG/1.1/DTD/svg11.dtd"><svg width="16px" height="16px" xmlns="http://www.w3.org/2000/svg" viewBox="0 0 16 16" shape-rendering="geometricPrecision" fill="#cb1800"><defs><mask id="decline-path"><rect fill="#fff" width="100%" height="100%"/><polygon points="17.414,1.215 14.79,-1.414 13.066,0.308 11.344,-1.414 8.717,1.213 10.439,2.934 8.715,4.656 11.345,7.284 13.067,5.562 14.789,7.285 17.414,4.655 15.693,2.935 " fill="#000"/></mask></defs><g fill="#cb1800"><polygon points="16,4.656 14.278,2.935 16,1.214 14.789,0.001 13.066,1.722 11.344,0.001 10.132,1.213 11.854,2.934 10.13,4.656 11.345,5.87 13.067,4.147 14.789,5.87 "/></g><g mask="url(#decline-path)"><g><path d="M9.341,5.662c0-1.279,1.036-2.313,2.314-2.313c1.276,0,2.312,1.034,2.312,2.313v1.148h1.413V5.662 c0-2.06-1.668-3.728-3.725-3.728c-2.06,0-3.728,1.669-3.728,3.728v1.148h1.413V5.662z M0.62,7.792v7.207h9.875V7.792H0.62z M6.426,12.594c0,0.479-0.388,0.867-0.867,0.867c-0.481,0-0.871-0.389-0.871-0.867v-2.396c0-0.478,0.39-0.866,0.868-0.866 c0.482,0,0.87,0.389,0.87,0.866V12.594z"/></g></g></svg>