<?xml version="1.0"?><!DOCTYPE svg PUBLIC "-//W3C//DTD SVG 1.1//EN" "http://www.w3.org/Graphics/SVG/1.1/DTD/svg11.dtd"><svg width="16px" height="16px" xmlns="http://www.w3.org/2000/svg" viewBox="0 0 16 16" shape-rendering="geometricPrecision" fill="#cb1800"><defs><mask id="decline-path"><rect fill="#fff" width="100%" height="100%"/><polygon points="17.414,1.215 14.79,-1.414 13.066,0.308 11.344,-1.414 8.717,1.213 10.439,2.934 8.715,4.656 11.345,7.284 13.067,5.562 14.789,7.285 17.414,4.655 15.693,2.935 " fill="#000"/></mask></defs><g fill="#cb1800"><polygon points="16,4.656 14.278,2.935 16,1.214 14.789,0.001 13.066,1.722 11.344,0.001 10.132,1.213 11.854,2.934 10.13,4.656 11.345,5.87 13.067,4.147 14.789,5.87 "/></g><g mask="url(#decline-path)"><g><path d="M14.818,5.818c-0.4-2.076-3.738-2.209-5.541-2.209H6.705c-1.801,0-5.08,0.295-5.514,2.183L1.08,6.527l-0.021,0.54h1.848 C3.673,6.483,4.921,5.864,5.81,5.54c0.436-0.426,1.138-0.576,1.696-0.576H8.53c0.578,0,1.321,0.088,1.753,0.581 c0.877,0.326,2.1,0.943,2.853,1.523h1.799l0.006-0.517L14.818,5.818z"/><path d="M14.082,10.512c0-0.623-0.497-2.442-0.497-2.442c-0.235-0.777-3.503-2.342-4.193-2.342H6.7 c-0.689,0-4.017,1.565-4.252,2.342c0,0-0.497,1.819-0.497,2.442c0,0.488-0.004,1.445-0.004,1.445h4.22h3.698h4.22 C14.085,11.957,14.082,11,14.082,10.512z M8,10.935c-1.161,0-2.102-0.941-2.102-2.102C5.898,7.671,6.839,6.73,8,6.73 c1.161,0,2.102,0.941,2.102,2.102C10.102,9.993,9.161,10.935,8,10.935z"/></g></g></svg>