<?xml version="1.0"?><!DOCTYPE svg PUBLIC "-//W3C//DTD SVG 1.1//EN" "http://www.w3.org/Graphics/SVG/1.1/DTD/svg11.dtd"><svg xmlns="http://www.w3.org/2000/svg" viewBox="0 0 16 16" shape-rendering="geometricPrecision" fill="#cb1800"><defs><mask id="decline-path"><rect fill="#fff" width="100%" height="100%"/><polygon points="17.414,1.215 14.79,-1.414 13.066,0.308 11.344,-1.414 8.717,1.213 10.439,2.934 8.715,4.656 11.345,7.284 13.067,5.562 14.789,7.285 17.414,4.655 15.693,2.935 " fill="#000"/></mask></defs><g fill="#cb1800"><polygon points="16,4.656 14.278,2.935 16,1.214 14.789,0.001 13.066,1.722 11.344,0.001 10.132,1.213 11.854,2.934 10.13,4.656 11.345,5.87 13.067,4.147 14.789,5.87 "/></g><path mask="url(#decline-path)" d="M4.212,1.067c1.069,0,1.604,0.865,1.604,1.832c0,1.122,0.03,2.548,0.03,2.548s4.381,0,5.504,0 c1.123,0,1.922,0.621,1.922,1.56c0,1.124-0.687,1.686-1.811,1.686c-1.123,0-5.584,0-5.584,0s0,0,0,0.999S6.378,11.687,8,11.687 c1.748,0,2.589,0,3.462,0c0.874,0,1.623,0.581,1.623,1.579c0,0.998-0.518,1.666-1.592,1.666c-1.372,0-1.427,0-3.673,0 c-3.145,0-5.095-1.23-5.095-4.738c0-3.371,0-5.53,0-7.152C2.727,1.824,3.215,1.067,4.212,1.067z"/></svg>
