<svg width="16" height="16" xmlns="http://www.w3.org/2000/svg" viewBox="0 0 16 16" shape-rendering="geometricPrecision" fill="#cb1800"><defs><mask id="a"><rect fill="#fff" width="100%" height="100%"/><path fill="#000" d="M17.414 1.215l-2.624-2.63L13.066.31l-1.722-1.722-2.627 2.627 1.722 1.72-1.725 1.723 2.63 2.628 1.722-1.722 1.722 1.723 2.624-2.63-1.72-1.72z"/></mask></defs><path d="M16 4.656l-1.722-1.72L16 1.213 14.79 0l-1.724 1.722-1.722-1.72-1.212 1.21 1.722 1.722-1.724 1.722 1.215 1.214 1.722-1.723L14.79 5.87"/><path d="M10.692 3.736H7.596v8.984h3.096V3.736zm-4.29 4.826H3.306v4.158h3.098V8.562zm5.485-2.11v6.27h3.096V6.45h-3.096zM2.115 5.73H1.017V15l.8-.002V15h13.166v-1.1H2.113l.002-8.17z" mask="url(#a)"/></svg>