<svg width="16" height="16" xmlns="http://www.w3.org/2000/svg" viewBox="0 0 16 16" shape-rendering="geometricPrecision" fill="#fff"><defs><mask id="a"><rect width="100%" height="100%"/><path fill="#000" d="M16.383 1.058l-2.47-2.473-4.51 4.512 4.51 4.506 2.47-2.47-2.035-2.038z"/></mask></defs><path fill="#cb1800" d="M12.935 3.095l2.035-2.037L13.913 0l-3.096 3.097 3.096 3.092 1.057-1.057"/><path d="M11.985 3.584H2.12C.952 3.584 0 4.538 0 5.704v5.502c0 1.166.953 2.12 2.12 2.12h.987c.023.76-.2 1.757-1.224 2.673 2.905-.452 4.517-2.538 4.62-2.675h5.482c1.166 0 2.12-.953 2.12-2.12V5.704c0-1.165-.954-2.12-2.12-2.12zm-.404 6.188H2.65V8.528h8.93v1.244zm0-2.578H2.65V5.948h8.93v1.246zm2.306-5.506H4.02c-.83 0-1.543.487-1.892 1.183.287-.144.604-.23.946-.23h9.867c1.166 0 2.12.95 2.12 2.116v5.505c0 .336-.087.65-.226.934.69-.35 1.17-1.06 1.17-1.883V3.808c0-1.165-.952-2.12-2.118-2.12z" mask="url(#a)"/></svg>