<?xml version="1.0"?><!DOCTYPE svg PUBLIC "-//W3C//DTD SVG 1.1//EN" "http://www.w3.org/Graphics/SVG/1.1/DTD/svg11.dtd"><svg width="16px" height="16px" xmlns="http://www.w3.org/2000/svg" viewBox="0 0 16 16" shape-rendering="geometricPrecision" fill="#fff"><defs><mask id="move_left-path"><rect fill="#fff" width="100%" height="100%"/><polygon points="16.383,1.058 13.913,-1.415 9.403,3.097 13.914,7.603 16.383,5.134 14.348,3.095 " fill="#000"/></mask></defs><polygon points="12.935,3.095 14.97,1.058 13.913,0 10.817,3.097 13.913,6.189 14.97,5.133 " fill="#cb1800"/><g mask="url(#move_left-path)"><circle cx="3.535" cy="5.213" r="1.794"/><path d="M4.351,7.858H2.712c-0.951,0-1.725,0.779-1.725,1.73v2.246h5.093V9.589 C6.081,8.638,5.301,7.858,4.351,7.858z"/><circle cx="12.465" cy="7.338" r="1.794"/><path d="M13.282,9.983h-1.639c-0.951,0-1.724,0.779-1.724,1.729v2.248h5.093v-2.248 C15.012,10.763,14.233,9.983,13.282,9.983z"/><circle cx="7.504" cy="3.228" r="1.794"/><path d="M10.05,9.851V7.603c0-0.949-0.778-1.729-1.73-1.729H6.682c-0.928,0-1.68,0.74-1.717,1.66 C5.853,7.8,6.506,8.614,6.506,9.589v0.262H10.05z"/></g></svg>