<?xml version="1.0"?><!DOCTYPE svg PUBLIC "-//W3C//DTD SVG 1.1//EN" "http://www.w3.org/Graphics/SVG/1.1/DTD/svg11.dtd"><svg xmlns="http://www.w3.org/2000/svg" viewBox="0 0 16 16" shape-rendering="geometricPrecision" fill="#fff"><defs><mask id="move_left-path"><rect fill="#fff" width="100%" height="100%"/><polygon points="16.383,1.058 13.913,-1.415 9.403,3.097 13.914,7.603 16.383,5.134 14.348,3.095 " fill="#000"/></mask></defs><polygon points="12.935,3.095 14.97,1.058 13.913,0 10.817,3.097 13.913,6.189 14.97,5.133 " fill="#cb1800"/><g mask="url(#move_left-path)"><path d="M1.811-0.001v16h12.378v-16H1.811z M13.151,14.961H2.793V1.011h10.357V14.961z"/><path d="M8.067,4.602c0.761,0,1.374-0.616,1.374-1.373c0-0.756-0.613-1.372-1.374-1.372 c-0.757,0-1.372,0.616-1.372,1.372C6.695,3.986,7.31,4.602,8.067,4.602z M9.421,12.498v-6.49H5.312v1.02H6.66v5.471H5.307v1.359 h5.467v-1.359H9.421z"/></g></svg>
