<svg width="16" height="16" xmlns="http://www.w3.org/2000/svg" viewBox="0 0 16 16" shape-rendering="geometricPrecision" fill="#fff"><defs><mask id="a"><rect width="100%" height="100%"/><path fill="#000" d="M16.383 1.058l-2.47-2.473-4.51 4.512 4.51 4.506 2.47-2.47-2.035-2.038z"/></mask></defs><path fill="#cb1800" d="M12.935 3.095l2.035-2.037L13.913 0l-3.096 3.097 3.096 3.092 1.057-1.057"/><path d="M6.136 14.063l7.86-6.878-3.255-1.74-4.604 8.618zM0 4.568l4.147 11.214.838-1.57-1.42-3.844 4.33-1.602 2.457-4.6 4.406 2.352.003-.003-2.41-6.517L0 4.568zm7.985 2.478l-4.97 1.838-.397-1.074 4.97-1.84.397 1.076zm4.073-4.002L2.204 6.688l-.398-1.074 9.854-3.646.398 1.076z" mask="url(#a)"/></svg>