<svg width="16" height="16" xmlns="http://www.w3.org/2000/svg" viewBox="0 0 16 16" shape-rendering="geometricPrecision" fill="#fff"><defs><mask id="a"><rect width="100%" height="100%"/><path fill="#000" d="M16.383 1.058l-2.47-2.473-4.51 4.512 4.51 4.506 2.47-2.47-2.035-2.038z"/></mask></defs><path fill="#cb1800" d="M12.935 3.095l2.035-2.037L13.913 0l-3.096 3.097 3.096 3.092 1.057-1.057"/><path d="M15.432 12.94l-3.595-3.593-.356-.356c1.228-2.3.902-5.214-1.038-7.156-2.378-2.374-6.23-2.374-8.61.003-2.375 2.378-2.373 6.23.003 8.605 1.94 1.94 4.855 2.267 7.158 1.037l3.952 3.95c.686.688 1.8.688 2.486 0 .69-.686.69-1.8.002-2.49zM3.104 9.17c-1.672-1.673-1.676-4.39 0-6.062 1.675-1.68 4.39-1.677 6.065-.005 1.675 1.677 1.673 4.39 0 6.066-1.677 1.675-4.392 1.675-6.066 0z" mask="url(#a)"/></svg>