<?xml version="1.0"?><!DOCTYPE svg PUBLIC "-//W3C//DTD SVG 1.1//EN" "http://www.w3.org/Graphics/SVG/1.1/DTD/svg11.dtd"><svg xmlns="http://www.w3.org/2000/svg" viewBox="0 0 16 16" shape-rendering="geometricPrecision" fill="#fff"><defs><mask id="move_left-path"><rect fill="#fff" width="100%" height="100%"/><polygon points="16.383,1.058 13.913,-1.415 9.403,3.097 13.914,7.603 16.383,5.134 14.348,3.095 " fill="#000"/></mask></defs><polygon points="12.935,3.095 14.97,1.058 13.913,0 10.817,3.097 13.913,6.189 14.97,5.133 " fill="#cb1800"/><g mask="url(#move_left-path)"><path d="M12.5,3.976H3.562c-0.859,0-1.556,0.697-1.556,1.556v4.906c0,0.859,0.697,1.556,1.556,1.556H12.5 c0.859,0,1.556-0.697,1.556-1.556V5.532C14.056,4.673,13.359,3.976,12.5,3.976z M6.936,10.201l0.001-4.265L9.75,8.068 L6.936,10.201z"/></g></svg>
