<svg width="16" height="16" xmlns="http://www.w3.org/2000/svg" viewBox="0 0 16 16" shape-rendering="geometricPrecision" fill="#cb1800"><defs><mask id="a"><rect fill="#fff" width="100%" height="100%"/><path fill="#000" d="M19.08 1.436h-4.915L12.65-3.238l-1.52 4.674H6.217l3.975 2.886-1.516 4.673 3.972-2.888 3.972 2.89-1.516-4.675z"/></mask></defs><path d="M13.928 3.94L16 2.435h-2.56L12.647 0l-.79 2.435H9.294l2.072 1.505-.79 2.437 2.07-1.506 2.072 1.507"/><g mask="url(#a)"><circle cx="11.279" cy="12.205" r=".769"/><circle cx="11.279" cy="7.938" r=".769"/><path d="M2.042.948V14.93h11.94V.947H2.04zm10.812 12.854H3.17v-3.138h9.683v3.138zm0-4.323H3.17V6.396h9.683V9.48zM3.17 5.212V2.077h9.683v3.136H3.17z"/><circle cx="11.279" cy="3.672" r=".769"/></g></svg>