<svg width="16" height="16" xmlns="http://www.w3.org/2000/svg" viewBox="0 0 16 16" shape-rendering="geometricPrecision" fill="#cb1800"><defs><mask id="a"><rect fill="#fff" width="100%" height="100%"/><path fill="#000" d="M19.08 1.436h-4.915L12.65-3.238l-1.52 4.674H6.217l3.975 2.886-1.516 4.673 3.972-2.888 3.972 2.89-1.516-4.675z"/></mask></defs><path d="M13.928 3.94L16 2.435h-2.56L12.647 0l-.79 2.435H9.294l2.072 1.505-.79 2.437 2.07-1.506 2.072 1.507"/><path d="M2.33 1.186L0 3.514 4.485 8 0 12.488l2.33 2.326 6.813-6.818-6.812-6.81zM11.34 8l-4.485 4.488 2.33 2.326L16 7.996l-6.814-6.81-2.332 2.328L11.34 8z" mask="url(#a)"/></svg>