<svg width="16" height="16" xmlns="http://www.w3.org/2000/svg" viewBox="0 0 16 16" shape-rendering="geometricPrecision" fill="#cb1800"><defs><mask id="a"><rect fill="#fff" width="100%" height="100%"/><path fill="#000" d="M19.08 1.436h-4.915L12.65-3.238l-1.52 4.674H6.217l3.975 2.886-1.516 4.673 3.972-2.888 3.972 2.89-1.516-4.675z"/></mask></defs><path d="M13.928 3.94L16 2.435h-2.56L12.647 0l-.79 2.435H9.294l2.072 1.505-.79 2.437 2.07-1.506 2.072 1.507"/><g mask="url(#a)"><path d="M3.032-.012v1.056h10.33v9.226h1.072V-.012M8.98 15.293l2.525-2.325H8.98"/><path d="M1.566 15.97h5.97v-4.44h4.774V2.088H1.566V15.97zM2.94 3.326h8.116v6.725h-4.79v4.602H2.94V3.326z"/></g></svg>