<svg width="16" height="16" xmlns="http://www.w3.org/2000/svg" viewBox="0 0 16 16" shape-rendering="geometricPrecision" fill="#cb1800"><defs><mask id="a"><rect fill="#fff" width="100%" height="100%"/><path fill="#000" d="M19.08 1.436h-4.915L12.65-3.238l-1.52 4.674H6.217l3.975 2.886-1.516 4.673 3.972-2.888 3.972 2.89-1.516-4.675z"/></mask></defs><path d="M13.928 3.94L16 2.435h-2.56L12.647 0l-.79 2.435H9.294l2.072 1.505-.79 2.437 2.07-1.506 2.072 1.507"/><g mask="url(#a)"><path d="M1.81 0v16h12.38V0H1.81zm11.34 14.96H2.794V1.01H13.15v13.95z"/><path d="M8.067 4.602c.76 0 1.374-.616 1.374-1.373S8.83 1.856 8.068 1.856c-.757 0-1.372.616-1.372 1.372 0 .756.615 1.372 1.372 1.372zm1.354 7.896v-6.49H5.313v1.02H6.66v5.47H5.307v1.36h5.467v-1.36H9.42z"/></g></svg>