<svg width="16" height="16" xmlns="http://www.w3.org/2000/svg" viewBox="0 0 16 16" shape-rendering="geometricPrecision" fill="#cb1800"><defs><mask id="a"><rect fill="#fff" width="100%" height="100%"/><path fill="#000" d="M19.08 1.436h-4.915L12.65-3.238l-1.52 4.674H6.217l3.975 2.886-1.516 4.673 3.972-2.888 3.972 2.89-1.516-4.675z"/></mask></defs><path d="M13.928 3.94L16 2.435h-2.56L12.647 0l-.79 2.435H9.294l2.072 1.505-.79 2.437 2.07-1.506 2.072 1.507"/><path mask="url(#a)" d="M14.49 13.12L14.48 0H4.033c-1.376.003-2.498.62-2.52 1.987-.004.025-.004.53 0 .535v.003c0 .04.008.076.01.117h-.01v10.826C1.515 14.865 2.65 16 4.045 16h8.386l-.038-1.69-.01-11.344h-8.35c-.495 0-1.68-.048-1.68-.98v-.093C2.405 1.008 3.538.84 4.033.84h9.594v12.28h.864zM4.525 5.766h5.506v1.247H4.526V5.765zm0 2.582h5.506V9.59H4.526V8.347z"/></svg>