<svg width="16" height="16" xmlns="http://www.w3.org/2000/svg" viewBox="0 0 16 16" shape-rendering="geometricPrecision" fill="#cb1800"><defs><mask id="a"><rect fill="#fff" width="100%" height="100%"/><path fill="#000" d="M19.08 1.436h-4.915L12.65-3.238l-1.52 4.674H6.217l3.975 2.886-1.516 4.673 3.972-2.888 3.972 2.89-1.516-4.675z"/></mask></defs><path d="M13.928 3.94L16 2.435h-2.56L12.647 0l-.79 2.435H9.294l2.072 1.505-.79 2.437 2.07-1.506 2.072 1.507"/><g mask="url(#a)"><path d="M14.48 9.852V8.65h-2.567V1.63H6.6L3.895 4.124V8.65H1.57v1.2H.965v4.52H15.035V9.85h-.556zM6.644 2.73v1.403H5.12L6.646 2.73zM4.635 5h2.88V2.32h3.604V10.7H4.634V5zm8.237 6.546c-.393 0-.71-.32-.71-.71 0-.395.317-.712.71-.712.392 0 .71.317.71.71 0 .393-.318.712-.71.712z"/><path d="M5.624 5.738h4.57v.866h-4.57zM5.624 7.363h4.57v.866h-4.57z"/></g></svg>