<svg width="16" height="16" xmlns="http://www.w3.org/2000/svg" viewBox="0 0 16 16" shape-rendering="geometricPrecision" fill="#cb1800"><defs><mask id="a"><rect fill="#fff" width="100%" height="100%"/><path fill="#000" d="M19.08 1.436h-4.915L12.65-3.238l-1.52 4.674H6.217l3.975 2.886-1.516 4.673 3.972-2.888 3.972 2.89-1.516-4.675z"/></mask></defs><path d="M13.928 3.94L16 2.435h-2.56L12.647 0l-.79 2.435H9.294l2.072 1.505-.79 2.437 2.07-1.506 2.072 1.507"/><path d="M1.02 1.02v2.617c3.138 0 5.965 1.267 8.022 3.32 2.054 2.06 3.32 4.885 3.32 8.02h2.618C14.978 7.27 8.73 1.023 1.02 1.02zm0 4.71V8.34c3.665.008 6.63 2.973 6.636 6.637h2.616c0-5.11-4.142-9.25-9.25-9.25zM2.9 11.22c-1.04 0-1.88.84-1.88 1.877 0 1.038.842 1.88 1.88 1.88 1.038 0 1.878-.842 1.878-1.88 0-1.04-.84-1.878-1.878-1.878z" mask="url(#a)"/></svg>