<svg width="16" height="16" xmlns="http://www.w3.org/2000/svg" viewBox="0 0 16 16" shape-rendering="geometricPrecision" fill="#cb1800"><defs><mask id="a"><rect fill="#fff" width="100%" height="100%"/><path fill="#000" d="M19.08 1.436h-4.915L12.65-3.238l-1.52 4.674H6.217l3.975 2.886-1.516 4.673 3.972-2.888 3.972 2.89-1.516-4.675z"/></mask></defs><path d="M13.928 3.94L16 2.435h-2.56L12.647 0l-.79 2.435H9.294l2.072 1.505-.79 2.437 2.07-1.506 2.072 1.507"/><path d="M13.078 2.394C11.292.612 8.42.628 6.634 2.404l-5.05 5.052.904.902 5.05-5.05c1.29-1.29 3.354-1.297 4.64-.01 1.28 1.283 1.283 3.364 0 4.65l-5.05 5.05c-.882.88-2.305.89-3.187.008-.877-.882-.877-2.312 0-3.194L8.364 5.39c.488-.483 1.254-.484 1.733-.007.478.478.476 1.255-.002 1.734L5.67 11.542l.9.9 4.424-4.423c.976-.978.98-2.563.003-3.54-.978-.972-2.543-.962-3.52-.002h-.003L3.04 8.907c-1.38 1.38-1.378 3.62 0 5 1.38 1.376 3.61 1.365 4.99-.01l5.05-5.05c1.785-1.785 1.78-4.672-.002-6.454z" mask="url(#a)"/></svg>