<svg width="16" height="16" xmlns="http://www.w3.org/2000/svg" viewBox="0 0 16 16" shape-rendering="geometricPrecision" fill="#cb1800"><defs><mask id="a"><rect fill="#fff" width="100%" height="100%"/><path fill="#000" d="M19.08 1.436h-4.915L12.65-3.238l-1.52 4.674H6.217l3.975 2.886-1.516 4.673 3.972-2.888 3.972 2.89-1.516-4.675z"/></mask></defs><path d="M13.928 3.94L16 2.435h-2.56L12.647 0l-.79 2.435H9.294l2.072 1.505-.79 2.437 2.07-1.506 2.072 1.507"/><path d="M10.692 3.736H7.596v8.984h3.096V3.736zm-4.29 4.826H3.306v4.158h3.098V8.562zm5.485-2.11v6.27h3.096V6.45h-3.096zM2.115 5.73H1.017V15l.8-.002V15h13.166v-1.1H2.113l.002-8.17z" mask="url(#a)"/></svg>