<?xml version="1.0"?><!DOCTYPE svg PUBLIC "-//W3C//DTD SVG 1.1//EN" "http://www.w3.org/Graphics/SVG/1.1/DTD/svg11.dtd"><svg width="16px" height="16px" xmlns="http://www.w3.org/2000/svg" viewBox="0 0 16 16" shape-rendering="geometricPrecision" fill="#cb1800"><defs><mask id="new-path"><rect fill="#fff" width="100%" height="100%"/><polygon points="19.079,1.436 14.165,1.436 12.649,-3.238 11.13,1.436 6.217,1.436 10.192,4.322 8.676,8.995 12.648,6.107 16.62,8.996 15.104,4.322 " fill="#000"/></mask></defs><polygon points="13.928,3.94 16,2.435 13.439,2.435 12.648,0 11.857,2.435 9.295,2.435 11.367,3.94 10.577,6.377 12.648,4.871 14.719,6.377 " fill="#cb1800"/><g mask="url(#new-path)"><rect x="-1.198" y="7.294" transform="matrix(0.7074 -0.7068 0.7068 0.7074 -3.3129 7.9954)" width="18.398" height="1.409"/><polygon points="7.59,3.71 7.59,5.831 9.714,3.71"/><polygon points="3.289,8.548 3.289,10.126 4.871,8.548"/><polygon points="6.394,12.106 5.784,12.716 6.394,12.716"/><polygon points="10.694,12.716 10.694,7.81 7.59,10.911 7.59,12.716"/><polygon points="3.499,15.001 14.995,15.001 14.995,13.899 4.6,13.899"/><polygon points="11.892,6.612 11.892,12.716 14.995,12.716 14.995,6.435 12.07,6.435"/><polygon points="2.095,11.317 2.096,5.708 0.995,5.708 0.995,12.849 0.997,12.415"/><polygon points="0.995,15.001 1.796,14.999 1.796,15.001 1.991,15.001 0.995,14.005"/></g></svg>