<svg width="16" height="16" xmlns="http://www.w3.org/2000/svg" viewBox="0 0 16 16" shape-rendering="geometricPrecision" fill="#fff"><defs><mask id="a"><rect width="100%" height="100%"/><path d="M12.997.858c-1.845 0-3.446 1.04-4.253 2.563.808 1.524 2.408 2.563 4.253 2.563 1.844 0 3.444-1.04 4.253-2.562C16.44 1.898 14.84.86 12.997.86z" fill="#000"/></mask></defs><path d="M12.97 1.607c-1.314 0-2.453.74-3.028 1.825.575 1.085 1.715 1.825 3.03 1.825 1.313 0 2.452-.74 3.028-1.825-.576-1.084-1.716-1.825-3.03-1.825z" fill="#cb1800"/><g mask="url(#a)"><path d="M11.636 3.477h-9.03C1.183 3.477.028 4.594.026 5.97v4.866c.002 1.373 1.157 2.49 2.58 2.492h.2c-.1.396-.33.832-.845 1.285L.364 16l2.125-.314c2.408-.37 3.896-1.77 4.432-2.357h4.717c1.425-.003 2.578-1.12 2.58-2.493V5.97c-.003-1.376-1.156-2.493-2.58-2.493zm1.298 7.36c0 .685-.588 1.253-1.298 1.255H6.3l-.192.246c-.034.05-.8 1.002-2.167 1.633.156-.415.216-.817.212-1.17 0-.024 0-.06-.002-.108l-.018-.6H2.606c-.71-.002-1.298-.57-1.298-1.256V5.97c0-.688.588-1.255 1.298-1.257h9.03c.71.002 1.298.568 1.298 1.258v4.866z"/><path d="M13.854 1.607H3.987c-.828 0-1.542.488-1.89 1.184.286-.143.603-.23.945-.23h9.866c1.166 0 2.12.95 2.12 2.116v5.504c0 .336-.088.65-.227.934.69-.35 1.173-1.06 1.173-1.883V3.728c0-1.165-.954-2.12-2.12-2.12z"/><path d="M2.6 8.63h8.93v1.245H2.6zM2.6 6.05h8.93v1.247H2.6z"/></g></svg>