<svg width="16" height="16" xmlns="http://www.w3.org/2000/svg" viewBox="0 0 16 16" shape-rendering="geometricPrecision" fill="#fff"><defs><mask id="a"><rect width="100%" height="100%"/><path d="M12.997.858c-1.845 0-3.446 1.04-4.253 2.563.808 1.524 2.408 2.563 4.253 2.563 1.844 0 3.444-1.04 4.253-2.562C16.44 1.898 14.84.86 12.997.86z" fill="#000"/></mask></defs><path d="M12.97 1.607c-1.314 0-2.453.74-3.028 1.825.575 1.085 1.715 1.825 3.03 1.825 1.313 0 2.452-.74 3.028-1.825-.576-1.084-1.716-1.825-3.03-1.825z" fill="#cb1800"/><g mask="url(#a)"><path d="M12.127 5.803l-2.94 2.94c.372.335.61.817.61 1.358 0 1.016-.82 1.84-1.836 1.84s-1.836-.824-1.836-1.84c0-.56.256-1.055.652-1.392L3.834 5.765C2.688 6.857 1.97 8.395 1.97 10.102c0 3.31 2.682 5.99 5.99 5.99 3.31 0 5.992-2.682 5.992-5.99 0-1.69-.702-3.21-1.825-4.3z"/><path d="M4.004 0L1.93 2.076 7.996 8.15l6.075-6.074L11.998 0 8 3.995 4.005 0z"/></g></svg>