<svg width="16" height="16" xmlns="http://www.w3.org/2000/svg" viewBox="0 0 16 16" shape-rendering="geometricPrecision" fill="#fff"><defs><mask id="a"><rect width="100%" height="100%"/><path d="M12.997.858c-1.845 0-3.446 1.04-4.253 2.563.808 1.524 2.408 2.563 4.253 2.563 1.844 0 3.444-1.04 4.253-2.562C16.44 1.898 14.84.86 12.997.86z" fill="#000"/></mask></defs><path d="M12.97 1.607c-1.314 0-2.453.74-3.028 1.825.575 1.085 1.715 1.825 3.03 1.825 1.313 0 2.452-.74 3.028-1.825-.576-1.084-1.716-1.825-3.03-1.825z" fill="#cb1800"/><path d="M9.34 5.662c0-1.28 1.037-2.313 2.315-2.313 1.276 0 2.312 1.033 2.312 2.312V6.81h1.413V5.662c0-2.06-1.668-3.728-3.725-3.728-2.06 0-3.728 1.67-3.728 3.728V6.81H9.34V5.662zM.62 7.792V15h9.875V7.79H.62zm5.806 4.802c0 .48-.388.867-.867.867-.482 0-.872-.388-.872-.866v-2.396c0-.478.39-.866.868-.866.482 0 .87.39.87.866v2.396z" mask="url(#a)"/></svg>