<svg width="16" height="16" xmlns="http://www.w3.org/2000/svg" viewBox="0 0 16 16" shape-rendering="geometricPrecision" fill="#fff"><defs><mask id="a"><rect width="100%" height="100%"/><path d="M12.997.858c-1.845 0-3.446 1.04-4.253 2.563.808 1.524 2.408 2.563 4.253 2.563 1.844 0 3.444-1.04 4.253-2.562C16.44 1.898 14.84.86 12.997.86z" fill="#000"/></mask></defs><path d="M12.97 1.607c-1.314 0-2.453.74-3.028 1.825.575 1.085 1.715 1.825 3.03 1.825 1.313 0 2.452-.74 3.028-1.825-.576-1.084-1.716-1.825-3.03-1.825z" fill="#cb1800"/><g mask="url(#a)"><path d="M15.064 12.94l-.117-4.782c.02-.08.023-.198.023-.367v-.965c0-.724.06-3.2.06-4.044s-.724-.18-1.025.906c-.302 1.087-.785 4.527.06 4.588l.15.013-.11 4.652h.96zM3.276 5.17c0-.614-.21-2.737-.418-2.737-.21 0-.077 2.736-.23 2.736-.152 0-.286-2.694-.457-2.694h-.01c-.17 0-.304 2.693-.456 2.693s-.02-2.737-.228-2.737c-.21 0-.42 2.123-.42 2.736 0 .556.24 1.02.754 1.1l-.123 6.67h.958L2.52 6.27c.516-.08.756-.542.756-1.1zM8.27 3.085c-2.63 0-4.762 2.132-4.762 4.763 0 2.63 2.132 4.762 4.762 4.762 2.63 0 4.763-2.132 4.763-4.762 0-2.63-2.132-4.763-4.763-4.763zm0 8.096c-1.84 0-3.333-1.49-3.333-3.332 0-1.842 1.492-3.335 3.333-3.335 1.84 0 3.334 1.493 3.334 3.335 0 1.84-1.493 3.333-3.334 3.333z"/></g></svg>