<svg width="16" height="16" xmlns="http://www.w3.org/2000/svg" viewBox="0 0 16 16" shape-rendering="geometricPrecision" fill="#fff"><defs><mask id="a"><rect width="100%" height="100%"/><path d="M12.997.858c-1.845 0-3.446 1.04-4.253 2.563.808 1.524 2.408 2.563 4.253 2.563 1.844 0 3.444-1.04 4.253-2.562C16.44 1.898 14.84.86 12.997.86z" fill="#000"/></mask></defs><path d="M12.97 1.607c-1.314 0-2.453.74-3.028 1.825.575 1.085 1.715 1.825 3.03 1.825 1.313 0 2.452-.74 3.028-1.825-.576-1.084-1.716-1.825-3.03-1.825z" fill="#cb1800"/><path d="M1.98 7.695c0-2.574 2.087-4.66 4.662-4.66v-1.98c-3.665 0-6.64 2.976-6.64 6.64V7.7h1.977v-.003zm6.33 4.157c1.376 0 2.493-1.118 2.493-2.494 0-1.377-1.117-2.492-2.492-2.492V9.36H5.815c.002 1.375 1.12 2.492 2.497 2.492zm0-9.134v1.978c2.573 0 4.662 2.087 4.662 4.662 0 2.576-2.09 4.663-4.66 4.663-2.576 0-4.665-2.085-4.666-4.66H1.668C1.67 13.027 4.645 16 8.31 16c3.663 0 6.64-2.973 6.64-6.64-.002-3.665-2.976-6.64-6.64-6.64z" mask="url(#a)"/></svg>