<svg width="16" height="16" xmlns="http://www.w3.org/2000/svg" viewBox="0 0 16 16" shape-rendering="geometricPrecision" fill="#fff"><defs><mask id="a"><rect width="100%" height="100%"/><path d="M12.997.858c-1.845 0-3.446 1.04-4.253 2.563.808 1.524 2.408 2.563 4.253 2.563 1.844 0 3.444-1.04 4.253-2.562C16.44 1.898 14.84.86 12.997.86z" fill="#000"/></mask></defs><path d="M12.97 1.607c-1.314 0-2.453.74-3.028 1.825.575 1.085 1.715 1.825 3.03 1.825 1.313 0 2.452-.74 3.028-1.825-.576-1.084-1.716-1.825-3.03-1.825z" fill="#cb1800"/><path d="M13.03 11.953s-.89 0-1.015-.806c-.187-1.197-.66-4.542-.66-4.542h-.008c-.233-1.326-1.228-2.38-2.52-2.704 0-.02.01-.038.01-.06 0-.47-.38-.85-.85-.85s-.853.38-.853.85c0 .025.012.045.014.07-1.28.33-2.264 1.378-2.495 2.696h-.007s-.5 3.352-.663 4.557c-.106.79-1.014.79-1.014.79v1.032h2.133c.2.598.756 1.03 1.42 1.03s1.222-.433 1.42-1.03h5.087v-1.032z" mask="url(#a)"/></svg>