<svg width="16" height="16" xmlns="http://www.w3.org/2000/svg" viewBox="0 0 16 16" shape-rendering="geometricPrecision" fill="#fff"><defs><mask id="a"><rect width="100%" height="100%"/><path d="M12.997.858c-1.845 0-3.446 1.04-4.253 2.563.808 1.524 2.408 2.563 4.253 2.563 1.844 0 3.444-1.04 4.253-2.562C16.44 1.898 14.84.86 12.997.86z" fill="#000"/></mask></defs><path d="M12.97 1.607c-1.314 0-2.453.74-3.028 1.825.575 1.085 1.715 1.825 3.03 1.825 1.313 0 2.452-.74 3.028-1.825-.576-1.084-1.716-1.825-3.03-1.825z" fill="#cb1800"/><path d="M3.36 0v1.056h10.328v12.842h1.072V0H3.36zM1.24 16h11.4V2.102H1.24V16zM6.956 3.726c1.467 0 2.65 1.188 2.65 2.65 0 1.47-1.184 2.654-2.65 2.654-1.464 0-2.653-1.184-2.653-2.653 0-1.463 1.19-2.65 2.653-2.65zm-4.51 8.458c0-1.263 1.028-2.295 2.29-2.295H9.17c1.262 0 2.296 1.03 2.296 2.294v2.98h-9.02v-2.98z" mask="url(#a)"/></svg>