<svg width="16" height="16" xmlns="http://www.w3.org/2000/svg" viewBox="0 0 16 16" shape-rendering="geometricPrecision" fill="#fff"><defs><mask id="a"><rect width="100%" height="100%"/><path d="M12.997.858c-1.845 0-3.446 1.04-4.253 2.563.808 1.524 2.408 2.563 4.253 2.563 1.844 0 3.444-1.04 4.253-2.562C16.44 1.898 14.84.86 12.997.86z" fill="#000"/></mask></defs><path d="M12.97 1.607c-1.314 0-2.453.74-3.028 1.825.575 1.085 1.715 1.825 3.03 1.825 1.313 0 2.452-.74 3.028-1.825-.576-1.084-1.716-1.825-3.03-1.825z" fill="#cb1800"/><g mask="url(#a)"><path d="M.995 14.002L14.01.998l.996.997L1.99 15zM7.59 3.71v2.12l2.124-2.12M3.29 8.548v1.578l1.58-1.578M6.394 12.106l-.61.61h.61M10.694 12.716V7.81l-3.104 3.1v1.806M3.5 15h11.495v-1.1H4.6M11.892 6.612v6.104h3.103v-6.28H12.07M2.095 11.317v-5.61h-1.1v7.142l.002-.435"/><path d="M.995 15h.996l-.995-.995"/></g></svg>