<svg width="16" height="16" xmlns="http://www.w3.org/2000/svg" viewBox="0 0 16 16" shape-rendering="geometricPrecision" fill="#6e6e6e"><defs><mask id="a"><rect fill="#fff" width="100%" height="100%"/><path fill="#000" d="M14.934-.397l-2.04 2.036L10.86-.398l-2.472 2.47 4.51 4.51 4.508-4.51z"/></mask></defs><path fill="#cb1800" d="M12.895 3.052l-2.037-2.035L9.8 2.073l3.097 3.096 3.093-3.097-1.057-1.056"/><path d="M5.687 5.66c0-1.278 1.036-2.31 2.313-2.31 1.276 0 2.312 1.032 2.312 2.31v1.15h1.414V5.66c0-2.058-1.668-3.726-3.726-3.726-2.06 0-3.728 1.67-3.728 3.727v1.15h1.414V5.66zM3.062 7.793V15h9.876V7.79H3.062zm5.808 4.802c0 .48-.388.867-.867.867-.48 0-.872-.388-.872-.866v-2.396c0-.478.392-.867.87-.867.482 0 .87.39.87.868v2.396z" mask="url(#a)"/></svg>