<svg width="16" height="16" xmlns="http://www.w3.org/2000/svg" viewBox="0 0 16 16" shape-rendering="geometricPrecision" fill="#6e6e6e"><defs><mask id="a"><rect fill="#fff" width="100%" height="100%"/><path fill="#000" d="M14.934-.397l-2.04 2.036L10.86-.398l-2.472 2.47 4.51 4.51 4.508-4.51z"/></mask></defs><path fill="#cb1800" d="M12.895 3.052l-2.037-2.035L9.8 2.073l3.097 3.096 3.093-3.097-1.057-1.056"/><g mask="url(#a)"><path d="M14.48 9.852V8.65h-2.567V1.63H6.6L3.895 4.124V8.65H1.57v1.2H.965v4.52H15.035V9.85h-.556zM6.644 2.73v1.403H5.12L6.646 2.73zM4.635 5h2.88V2.32h3.604V10.7H4.634V5zm8.237 6.546c-.393 0-.71-.32-.71-.71 0-.395.317-.712.71-.712.392 0 .71.317.71.71 0 .393-.318.712-.71.712z"/><path d="M5.624 5.738h4.57v.866h-4.57zM5.624 7.363h4.57v.866h-4.57z"/></g></svg>