<?xml version="1.0"?><!DOCTYPE svg PUBLIC "-//W3C//DTD SVG 1.1//EN" "http://www.w3.org/Graphics/SVG/1.1/DTD/svg11.dtd"><svg width="16px" height="16px" xmlns="http://www.w3.org/2000/svg" viewBox="0 0 16 16" shape-rendering="geometricPrecision" fill="#6e6e6e"><defs><mask id="move_down-path"><rect fill="#fff" width="100%" height="100%"/><polygon points="14.934,-0.397 12.895,1.639 10.858,-0.397 8.386,2.073 12.897,6.583 17.404,2.073 " fill="#000"/></mask></defs><polygon points="12.895,3.052 10.858,1.017 9.8,2.073 12.897,5.169 15.99,2.073 14.933,1.017 " fill="#cb1800"/><g mask="url(#move_down-path)"><g><g><rect x="-0.001" y="8.59" width="7.406" height="7.41"/><g><g><path d="M8.555,8.59V16H16V8.59H8.555z M14.852,13.796l-1.063,1.061l-1.51-1.504l-1.511,1.504l-1.064-1.06l1.511-1.503 l-1.51-1.504l1.063-1.059l1.511,1.505l1.51-1.505l1.063,1.061l-1.511,1.502L14.852,13.796z"/></g></g></g><g><g><path d="M4.276,0.073v7.41h7.368v-7.41H4.276z M7.352,6.122L4.96,3.717l1.051-1.059L7.35,4.004l2.559-2.572l1.054,1.06 L7.352,6.122z"/></g></g></g></g></svg>