<?xml version="1.0"?><!DOCTYPE svg PUBLIC "-//W3C//DTD SVG 1.1//EN" "http://www.w3.org/Graphics/SVG/1.1/DTD/svg11.dtd"><svg xmlns="http://www.w3.org/2000/svg" viewBox="0 0 16 16" shape-rendering="geometricPrecision" fill="#6e6e6e"><defs><mask id="move_down-path"><rect fill="#fff" width="100%" height="100%"/><polygon points="14.934,-0.397 12.895,1.639 10.858,-0.397 8.386,2.073 12.897,6.583 17.404,2.073 " fill="#000"/></mask></defs><polygon points="12.895,3.052 10.858,1.017 9.8,2.073 12.897,5.169 15.99,2.073 14.933,1.017 " fill="#cb1800"/><g mask="url(#move_down-path)"><path d="M11.236,3.388c0.001-0.045,0.005-0.09,0.005-0.137c0-1.791-1.451-3.242-3.242-3.242 c-1.391,0-2.57,0.875-3.032,2.103l1.312,0.402c0.284-0.668,0.947-1.137,1.72-1.137c1.033,0,1.873,0.838,1.873,1.873 c0,0.525-0.222,1.002-0.572,1.342C8.718,5.216,8.272,5.216,7.128,5.831c-1.83,0.981-2.275,2.51-2.371,3.414v6.746h6.485V3.388 H11.236z M7.892,15.046h-0.01c-0.531,0-0.9-0.4-0.9-0.932c0-0.555,0.378-0.934,0.911-0.934c0.555,0,0.912,0.379,0.922,0.934 C8.814,14.645,8.447,15.046,7.892,15.046z M9.132,11.226c-0.379,0.418-0.532,0.818-0.521,1.279v0.186H7.248l-0.009-0.268 c-0.031-0.523,0.144-1.055,0.604-1.598c0.327-0.398,0.594-0.729,0.594-1.074c0-0.359-0.235-0.596-0.748-0.615 c-0.338,0-0.748,0.123-1.015,0.307L6.325,8.327c0.38-0.215,0.984-0.42,1.711-0.42c1.354,0,1.967,0.746,1.967,1.598 C10.002,10.284,9.52,10.794,9.132,11.226z"/></g></svg>
