<svg width="16" height="16" xmlns="http://www.w3.org/2000/svg" viewBox="0 0 16 16" shape-rendering="geometricPrecision" fill="#6e6e6e"><defs><mask id="a"><rect fill="#fff" width="100%" height="100%"/><path fill="#000" d="M14.934-.397l-2.04 2.036L10.86-.398l-2.472 2.47 4.51 4.51 4.508-4.51z"/></mask></defs><path fill="#cb1800" d="M12.895 3.052l-2.037-2.035L9.8 2.073l3.097 3.096 3.093-3.097-1.057-1.056"/><path d="M1.02 1.02v2.617c3.138 0 5.965 1.267 8.022 3.32 2.054 2.06 3.32 4.885 3.32 8.02h2.618C14.978 7.27 8.73 1.023 1.02 1.02zm0 4.71V8.34c3.665.008 6.63 2.973 6.636 6.637h2.616c0-5.11-4.142-9.25-9.25-9.25zM2.9 11.22c-1.04 0-1.88.84-1.88 1.877 0 1.038.842 1.88 1.88 1.88 1.038 0 1.878-.842 1.878-1.88 0-1.04-.84-1.878-1.878-1.878z" mask="url(#a)"/></svg>