<svg width="16" height="16" xmlns="http://www.w3.org/2000/svg" viewBox="0 0 16 16" shape-rendering="geometricPrecision" fill="#6e6e6e"><defs><mask id="a"><rect fill="#fff" width="100%" height="100%"/><path fill="#000" d="M14.934-.397l-2.04 2.036L10.86-.398l-2.472 2.47 4.51 4.51 4.508-4.51z"/></mask></defs><path fill="#cb1800" d="M12.895 3.052l-2.037-2.035L9.8 2.073l3.097 3.096 3.093-3.097-1.057-1.056"/><path mask="url(#a)" d="M14.9 4.223l-2.144-.193c-.665-1.14-1.984-1.804-3.36-1.566-1.334.23-2.334 1.247-2.614 2.49-.1.53-.1 1.292-.557 2.092-1.626.367-3.325.2-3.325.2s.273 1.135 2.174 2.048C3.354 11.6 1.014 12 1.014 12s1 .982 3.196.724c.803-.095 1.504-.457 1.826-.646l-2.27 1.408s1.384.422 4.326-.488c3.76-1.162 4.873-4.78 4.845-6.05l.016-.04 2.035-.852-2.093-.433 2.005-1.4zm-3.993 1.45c-.297 0-.54-.32-.54-.718 0-.397.243-.718.54-.718.298 0 .54.32.54.718 0 .397-.242.72-.54.72z"/></svg>