<?xml version="1.0" encoding="UTF-8" standalone="no"?>
<!-- Created with Inkscape (http://www.inkscape.org/) -->

<svg
   xmlns:dc="http://purl.org/dc/elements/1.1/"
   xmlns:cc="http://creativecommons.org/ns#"
   xmlns:rdf="http://www.w3.org/1999/02/22-rdf-syntax-ns#"
   xmlns:svg="http://www.w3.org/2000/svg"
   xmlns="http://www.w3.org/2000/svg"
   xmlns:sodipodi="http://sodipodi.sourceforge.net/DTD/sodipodi-0.dtd"
   xmlns:inkscape="http://www.inkscape.org/namespaces/inkscape"
   width="386.51431"
   height="420.84409"
   id="svg2"
   version="1.1"
   inkscape:version="0.48.2 r9819"
   sodipodi:docname="blubber_icon.svg">
  <defs
     id="defs4" />
  <sodipodi:namedview
     id="base"
     pagecolor="#ffffff"
     bordercolor="#666666"
     borderopacity="1.0"
     inkscape:pageopacity="0.0"
     inkscape:pageshadow="2"
     inkscape:zoom="0.35"
     inkscape:cx="193.25714"
     inkscape:cy="193.11674"
     inkscape:document-units="px"
     inkscape:current-layer="layer1"
     showgrid="false"
     inkscape:window-width="794"
     inkscape:window-height="751"
     inkscape:window-x="146"
     inkscape:window-y="75"
     inkscape:window-maximized="0"
     fit-margin-top="0"
     fit-margin-left="0"
     fit-margin-right="0"
     fit-margin-bottom="0" />
  <metadata
     id="metadata7">
    <rdf:RDF>
      <cc:Work
         rdf:about="">
        <dc:format>image/svg+xml</dc:format>
        <dc:type
           rdf:resource="http://purl.org/dc/dcmitype/StillImage" />
        <dc:title />
      </cc:Work>
    </rdf:RDF>
  </metadata>
  <g
     inkscape:label="Ebene 1"
     inkscape:groupmode="layer"
     id="layer1"
     transform="translate(-156.74286,-266.2038)">
    <path
       sodipodi:type="arc"
       style="fill:#000000;fill-opacity:1;fill-rule:nonzero;stroke:#ffffff;stroke-width:0.80000001;stroke-linecap:round;stroke-linejoin:round;stroke-miterlimit:4;stroke-opacity:0.4807692;stroke-dasharray:none"
       id="path2985"
       sodipodi:cx="344.28571"
       sodipodi:cy="500.93362"
       sodipodi:rx="112.85714"
       sodipodi:ry="142.85715"
       d="m 457.14285,500.93362 c 0,78.89783 -50.52787,142.85715 -112.85714,142.85715 -62.32928,0 -112.85714,-63.95932 -112.85714,-142.85715 0,-78.89782 50.52786,-142.85714 112.85714,-142.85714 62.32927,0 112.85714,63.95932 112.85714,142.85714 z"
       transform="matrix(1.2820105,0,0,1,-114.23672,0)" />
    <path
       sodipodi:type="arc"
       style="fill:#000000;fill-opacity:1;fill-rule:nonzero;stroke:#ffffff;stroke-width:0.80000001;stroke-linecap:round;stroke-linejoin:round;stroke-miterlimit:4;stroke-opacity:0.4807692;stroke-dasharray:none"
       id="path2987"
       sodipodi:cx="490"
       sodipodi:cy="326.64789"
       sodipodi:rx="50"
       sodipodi:ry="60"
       d="m 540,326.64789 c 0,33.13708 -22.38576,60 -50,60 -27.61424,0 -50,-26.86292 -50,-60 0,-33.13709 22.38576,-60 50,-60 27.61424,0 50,26.86291 50,60 z"
       transform="matrix(1.2325714,0,0,1,-125.58857,0)" />
    <path
       sodipodi:type="arc"
       style="fill:#000000;fill-opacity:1;fill-rule:nonzero;stroke:#ffffff;stroke-width:0.80000001;stroke-linecap:round;stroke-linejoin:round;stroke-miterlimit:4;stroke-opacity:0.4807692;stroke-dasharray:none"
       id="path2989"
       sodipodi:cx="255.71428"
       sodipodi:cy="333.79074"
       sodipodi:rx="18.571428"
       sodipodi:ry="21.428572"
       d="m 274.28571,333.79074 c 0,11.83467 -8.31471,21.42857 -18.57143,21.42857 -10.25672,0 -18.57143,-9.5939 -18.57143,-21.42857 0,-11.83467 8.31471,-21.42857 18.57143,-21.42857 10.25672,0 18.57143,9.5939 18.57143,21.42857 z"
       transform="matrix(1.1604828,0,0,1,-44.018142,0)" />
    <path
       sodipodi:type="arc"
       style="fill:#000000;fill-opacity:1;fill-rule:nonzero;stroke:#ffffff;stroke-width:0.80000001;stroke-linecap:round;stroke-linejoin:round;stroke-miterlimit:4;stroke-opacity:0.4807692;stroke-dasharray:none"
       id="path2991"
       sodipodi:cx="445.71429"
       sodipodi:cy="672.36218"
       sodipodi:rx="14.285714"
       sodipodi:ry="14.285714"
       d="m 460.00001,672.36218 c 0,7.88978 -6.39593,14.28572 -14.28572,14.28572 -7.88978,0 -14.28571,-6.39594 -14.28571,-14.28572 0,-7.88978 6.39593,-14.28571 14.28571,-14.28571 7.88979,0 14.28572,6.39593 14.28572,14.28571 z" />
    <path
       sodipodi:type="arc"
       style="fill:#000000;fill-opacity:1;fill-rule:nonzero;stroke:#ffffff;stroke-width:0.80000001;stroke-linecap:round;stroke-linejoin:round;stroke-miterlimit:4;stroke-opacity:0.4807692;stroke-dasharray:none"
       id="path2993"
       sodipodi:cx="521.42859"
       sodipodi:cy="573.79077"
       sodipodi:rx="21.428572"
       sodipodi:ry="21.428572"
       d="m 542.85716,573.79077 c 0,11.83467 -9.5939,21.42857 -21.42857,21.42857 -11.83467,0 -21.42857,-9.5939 -21.42857,-21.42857 0,-11.83467 9.5939,-21.42857 21.42857,-21.42857 11.83467,0 21.42857,9.5939 21.42857,21.42857 z" />
    <path
       sodipodi:type="arc"
       style="fill:#000000;fill-opacity:1;fill-rule:nonzero;stroke:#ffffff;stroke-width:0.80000001;stroke-linecap:round;stroke-linejoin:round;stroke-miterlimit:4;stroke-opacity:0.4807692;stroke-dasharray:none"
       id="path2995"
       sodipodi:cx="222.85715"
       sodipodi:cy="619.50507"
       sodipodi:rx="25.714285"
       sodipodi:ry="27.142857"
       d="m 248.57143,619.50507 c 0,14.99058 -11.51268,27.14285 -25.71428,27.14285 -14.20161,0 -25.71429,-12.15227 -25.71429,-27.14285 0,-14.99059 11.51268,-27.14286 25.71429,-27.14286 14.2016,0 25.71428,12.15227 25.71428,27.14286 z"
       transform="translate(-40,17.142857)" />
  </g>
</svg>
