<?xml version="1.0" encoding="UTF-8" standalone="no"?>
<!-- Created with Inkscape (http://www.inkscape.org/) -->

<svg
   xmlns:dc="http://purl.org/dc/elements/1.1/"
   xmlns:cc="http://creativecommons.org/ns#"
   xmlns:rdf="http://www.w3.org/1999/02/22-rdf-syntax-ns#"
   xmlns:svg="http://www.w3.org/2000/svg"
   xmlns="http://www.w3.org/2000/svg"
   xmlns:sodipodi="http://sodipodi.sourceforge.net/DTD/sodipodi-0.dtd"
   xmlns:inkscape="http://www.inkscape.org/namespaces/inkscape"
   width="600"
   height="600"
   id="svg2"
   version="1.1"
   inkscape:version="0.48.4 r9939"
   sodipodi:docname="public.svg">
  <defs
     id="defs4" />
  <sodipodi:namedview
     id="base"
     pagecolor="#ffffff"
     bordercolor="#666666"
     borderopacity="1.0"
     inkscape:pageopacity="0.0"
     inkscape:pageshadow="2"
     inkscape:zoom="0.34"
     inkscape:cx="-295.58824"
     inkscape:cy="516.63866"
     inkscape:document-units="px"
     inkscape:current-layer="layer1"
     showgrid="false"
     width="600px"
     inkscape:window-width="1108"
     inkscape:window-height="644"
     inkscape:window-x="96"
     inkscape:window-y="245"
     inkscape:window-maximized="0" />
  <metadata
     id="metadata7">
    <rdf:RDF>
      <cc:Work
         rdf:about="">
        <dc:format>image/svg+xml</dc:format>
        <dc:type
           rdf:resource="http://purl.org/dc/dcmitype/StillImage" />
        <dc:title></dc:title>
      </cc:Work>
    </rdf:RDF>
  </metadata>
  <g
     inkscape:label="Ebene 1"
     inkscape:groupmode="layer"
     id="layer1"
     transform="translate(0,-452.36213)">
    <path
       style="fill:#24427b;fill-opacity:1"
       d="M 246.22835,1046.1509 C 135.80192,1028.359 39.209142,937.95909 9.4876354,824.58849 -43.75622,621.49358 135.22614,423.65858 343.11885,455.81516 493.92051,479.14098 600,601.44216 600,751.97859 c 0,149.04323 -105.08939,271.12611 -253.6477,294.66351 -48.65123,7.7082 -49.25172,7.7053 -100.12395,-0.4914 z m 136.61747,-50.10025 c 93.4463,-32.39497 161.96685,-114.40283 174.5398,-208.8953 4.42418,-33.24955 4.01294,-34.72405 -7.12919,-25.56706 -6.50335,5.34458 -14.05504,15.70903 -16.78169,23.03212 -4.2479,11.40895 -6.88882,8.9769 -18.45074,-16.99181 -11.71116,-26.30363 -17.17514,-31.23501 -41.36968,-37.33649 -20.78565,-5.24186 -27.22392,-5.08556 -25.31151,0.6145 1.4106,4.20446 8.06746,7.65714 14.79309,7.67262 19.5905,0.0451 18.93034,14.16726 -1.31377,28.10071 -35.14443,24.189 -34.98679,24.21365 -49.19064,-7.68892 -18.20382,-40.88676 -22.65819,-38.64545 -6.10733,3.07302 7.28896,18.3724 13.25247,34.89103 13.25247,36.70807 0,1.81703 5.81001,0.2144 12.91115,-3.5614 7.101,-3.7758 14.51613,-6.8651 16.47781,-6.8651 7.30506,0 -5.2209,23.82889 -22.00872,41.86844 -9.88047,10.61721 -16.6269,24.90645 -15.65545,33.15885 2.15107,18.27425 -52.46752,77.50342 -71.47034,77.50342 -16.86171,0 -33.57064,-30.91894 -32.78816,-60.67281 0.32154,-12.22336 -2.68791,-30.43113 -6.68747,-40.46169 -6.49623,-16.29151 -10.62678,-18.23736 -38.71308,-18.23736 -42.70659,0 -62.33863,-18.04377 -62.33863,-57.29529 0,-22.23133 4.42948,-33.46847 20.24885,-51.3692 12.06558,-13.65304 17.46079,-24.62501 13.34988,-27.14923 -12.8794,-7.90844 -7.79904,-29.98052 6.90078,-29.98052 10.5123,0 12.84223,-2.99693 9.7808,-12.58045 -5.10158,-15.9695 37.89486,-44.19751 63.28953,-41.55098 21.81691,2.27365 47.03486,-21.33104 29.80647,-27.89947 -6.04041,-2.30293 -8.63093,-7.45258 -5.93176,-11.79171 3.07467,-4.94272 1.86713,-5.9074 -3.36944,-2.69192 -4.48883,2.75625 -6.63336,8.96775 -4.76565,13.80335 1.8677,4.83558 -1.41972,12.74054 -7.30534,17.56655 -8.42573,6.90886 -11.2982,7.01195 -13.50937,0.48486 -1.54445,-4.55933 -8.56528,-8.2897 -15.60191,-8.2897 -15.69206,0 -16.12751,-5.24314 -1.74666,-21.03107 9.47193,-10.39861 21.90035,-12.12778 87.16808,-12.12778 83.36405,0 87.6333,-3.487 36.05948,-29.45238 -45.84013,-23.07874 -105.72278,-32.45358 -152.75223,-23.91394 -49.95401,9.07066 -125.72948,45.37983 -115.63534,55.40869 11.17085,11.09861 8.70811,27.78504 -6.06063,41.06413 -7.34243,6.60184 -13.34988,16.01726 -13.34988,20.92316 0,4.90588 -4.50559,8.91981 -10.01241,8.91981 -6.22994,0 -10.01241,-6.26334 -10.01241,-16.57943 0,-21.008 -8.582777,-21.24136 -19.735768,-0.53658 -5.73695,10.65025 -7.10736,26.20874 -4.07698,46.28616 4.35753,28.87015 3.45001,31.21578 -19.98778,51.66134 -24.29302,21.19161 -24.51737,21.85373 -21.22255,62.63468 2.99632,37.08635 5.72023,43.30171 27.18228,62.02376 13.11874,11.44391 25.52827,26.05361 27.57672,32.46601 2.048481,6.41238 14.159768,16.60292 26.913998,22.64566 21.56484,10.21706 22.69997,12.26607 16.20209,29.24628 -3.8431,10.04272 -10.108,20.17562 -13.92202,22.51758 -9.18208,5.63812 30.11115,35.01516 70.68561,52.8471 59.59707,26.19217 126.92731,29.17307 187.17564,8.28674 z m 30.25588,-94.15292 c 0,-13.69897 17.81792,-31.74242 24.64622,-24.95826 5.19713,5.16348 -11.26587,37.40977 -19.09923,37.40977 -3.05075,0 -5.54699,-5.60318 -5.54699,-12.45151 z M 239.55341,589.5308 c -8.72633,-5.48236 -8.45962,-7.81198 2.0766,-18.13582 11.60963,-11.37554 12.47014,-11.33479 21.69317,1.02703 7.55909,10.13173 7.82751,13.99309 1.26065,18.13582 -10.63006,6.70607 -12.86786,6.61425 -25.03042,-1.02703 z m 127.44087,117.50418 c 21.0995,2.81173 26.0826,1.40842 26.0826,-7.34506 0,-6.30777 -5.42952,-10.82085 -13.01809,-10.82085 -7.16009,0 -16.07995,-5.22253 -19.8219,-11.60561 -3.77585,-6.44082 -6.89395,-7.91647 -7.00659,-3.31588 -0.35286,14.40985 -13.62229,8.97178 -20.22773,-8.28971 -3.48948,-9.11868 -9.79049,-16.57942 -14.00207,-16.57942 -5.41613,0 -5.18616,2.95848 0.78604,10.10792 12.44551,14.89902 2.06678,20.45358 -12.96455,6.93839 -15.32309,-13.77753 -33.65835,-9.66788 -46.25167,10.3668 -8.64716,13.7567 -8.17069,14.13552 12.59019,10.0102 17.84569,-3.54604 24.39161,-1.2707 37.849,13.15613 11.07107,11.86863 18.44975,15.27961 23.08682,10.6725 3.74836,-3.72416 18.55242,-5.2071 32.89795,-3.29541 z m 89.24383,-29.77152 c -2.75912,-6.38307 -5.22589,-16.48905 -5.48192,-22.45773 -0.26871,-6.26329 -4.25673,-9.40674 -9.43121,-7.43393 -4.93113,1.88001 -7.2911,7.75363 -5.24455,13.05248 2.04656,5.29884 3.72102,13.86663 3.72102,19.03953 0,5.17289 4.82703,9.40526 10.72661,9.40526 7.67686,0 9.30035,-3.29963 5.71005,-11.60561 z M 413.1017,663.40648 c 0,-7.80374 -33.05758,-21.93729 -40.54975,-17.33678 -15.43758,9.47917 -5.3633,22.90406 17.18753,22.90406 12.8492,0 23.36222,-2.50528 23.36222,-5.56728 z"
       id="path2996"
       inkscape:connector-curvature="0" />
  </g>
</svg>
