<svg width="16" height="16" xmlns="http://www.w3.org/2000/svg" viewBox="0 0 16 16" shape-rendering="geometricPrecision" fill="#cb1800"><defs><mask id="a"><rect fill="#fff" width="100%" height="100%"/><path d="M12.997.858c-1.845 0-3.446 1.04-4.253 2.563.808 1.524 2.408 2.563 4.253 2.563 1.844 0 3.444-1.04 4.253-2.562C16.44 1.898 14.84.86 12.997.86z" fill="#000"/></mask></defs><path d="M12.997 1.61c-1.303 0-2.433.734-3.003 1.81.57 1.076 1.7 1.81 3.003 1.81 1.302 0 2.432-.733 3.003-1.81-.57-1.075-1.7-1.81-3.003-1.81zm0 3.397c-.877 0-1.588-.71-1.588-1.586 0-.876.71-1.587 1.586-1.587.877 0 1.588.71 1.588 1.588 0 .877-.71 1.587-1.588 1.587z"/><g mask="url(#a)"><path d="M14.48 9.852V8.65h-2.567V1.63H6.6L3.895 4.124V8.65H1.57v1.2H.965v4.52H15.035V9.85h-.556zM6.644 2.73v1.403H5.12L6.646 2.73zM4.635 5h2.88V2.32h3.604V10.7H4.634V5zm8.237 6.546c-.393 0-.71-.32-.71-.71 0-.395.317-.712.71-.712.392 0 .71.317.71.71 0 .393-.318.712-.71.712z"/><path d="M5.624 5.738h4.57v.866h-4.57zM5.624 7.363h4.57v.866h-4.57z"/></g></svg>