<svg width="16" height="16" xmlns="http://www.w3.org/2000/svg" viewBox="0 0 16 16" shape-rendering="geometricPrecision" fill="#cb1800"><defs><mask id="a"><rect fill="#fff" width="100%" height="100%"/><path d="M12.997.858c-1.845 0-3.446 1.04-4.253 2.563.808 1.524 2.408 2.563 4.253 2.563 1.844 0 3.444-1.04 4.253-2.562C16.44 1.898 14.84.86 12.997.86z" fill="#000"/></mask></defs><path d="M12.997 1.61c-1.303 0-2.433.734-3.003 1.81.57 1.076 1.7 1.81 3.003 1.81 1.302 0 2.432-.733 3.003-1.81-.57-1.075-1.7-1.81-3.003-1.81zm0 3.397c-.877 0-1.588-.71-1.588-1.586 0-.876.71-1.587 1.586-1.587.877 0 1.588.71 1.588 1.588 0 .877-.71 1.587-1.588 1.587z"/><g mask="url(#a)"><path d="M0 8.59h7.405V16H0zM8.555 8.59V16H16V8.59H8.555zm6.297 5.206l-1.063 1.06-1.51-1.503-1.512 1.504-1.064-1.06 1.51-1.503-1.51-1.504 1.064-1.06 1.51 1.506 1.51-1.505 1.064 1.062-1.51 1.502 1.51 1.502z"/><g><path d="M4.276.073v7.41h7.368V.073H4.276zm3.076 6.05L4.96 3.716l1.05-1.06 1.34 1.347 2.56-2.572 1.053 1.06-3.61 3.63z"/></g></g></svg>