<svg width="16" height="16" xmlns="http://www.w3.org/2000/svg" viewBox="0 0 16 16" shape-rendering="geometricPrecision" fill="#cb1800"><defs><mask id="a"><rect fill="#fff" width="100%" height="100%"/><path d="M12.997.858c-1.845 0-3.446 1.04-4.253 2.563.808 1.524 2.408 2.563 4.253 2.563 1.844 0 3.444-1.04 4.253-2.562C16.44 1.898 14.84.86 12.997.86z" fill="#000"/></mask></defs><path d="M12.997 1.61c-1.303 0-2.433.734-3.003 1.81.57 1.076 1.7 1.81 3.003 1.81 1.302 0 2.432-.733 3.003-1.81-.57-1.075-1.7-1.81-3.003-1.81zm0 3.397c-.877 0-1.588-.71-1.588-1.586 0-.876.71-1.587 1.586-1.587.877 0 1.588.71 1.588 1.588 0 .877-.71 1.587-1.588 1.587z"/><path d="M1.02 1.02v2.617c3.138 0 5.965 1.267 8.022 3.32 2.054 2.06 3.32 4.885 3.32 8.02h2.618C14.978 7.27 8.73 1.023 1.02 1.02zm0 4.71V8.34c3.665.008 6.63 2.973 6.636 6.637h2.616c0-5.11-4.142-9.25-9.25-9.25zM2.9 11.22c-1.04 0-1.88.84-1.88 1.877 0 1.038.842 1.88 1.88 1.88 1.038 0 1.878-.842 1.878-1.88 0-1.04-.84-1.878-1.878-1.878z" mask="url(#a)"/></svg>