<svg width="16" height="16" xmlns="http://www.w3.org/2000/svg" viewBox="0 0 16 16" shape-rendering="geometricPrecision" fill="#cb1800"><defs><mask id="a"><rect fill="#fff" width="100%" height="100%"/><path d="M12.997.858c-1.845 0-3.446 1.04-4.253 2.563.808 1.524 2.408 2.563 4.253 2.563 1.844 0 3.444-1.04 4.253-2.562C16.44 1.898 14.84.86 12.997.86z" fill="#000"/></mask></defs><path d="M12.997 1.61c-1.303 0-2.433.734-3.003 1.81.57 1.076 1.7 1.81 3.003 1.81 1.302 0 2.432-.733 3.003-1.81-.57-1.075-1.7-1.81-3.003-1.81zm0 3.397c-.877 0-1.588-.71-1.588-1.586 0-.876.71-1.587 1.586-1.587.877 0 1.588.71 1.588 1.588 0 .877-.71 1.587-1.588 1.587z"/><g mask="url(#a)"><path d="M1.53.555h4.392v4.392H1.53zM9.948 1.278v2.918H7.032V1.278h2.916m.74-.74H6.292v4.394h4.394V.54zM14.73 1.278v2.918h-2.916V1.278h2.916m.738-.74h-4.392v4.394h4.392V.54zM5.185 6.063v2.914H2.27V6.063h2.915m.737-.74H1.53v4.394h4.392V5.323zM6.293 5.31h4.394v4.393H6.293zM11.077 5.31h4.392v4.393h-4.393zM1.53 10.007h4.392V14.4H1.53zM6.293 9.99h4.394v4.395H6.293zM14.73 10.73v2.917h-2.916V10.73h2.916m.738-.74h-4.392v4.395h4.392V9.99z"/></g></svg>