<?xml version="1.0"?><!DOCTYPE svg PUBLIC "-//W3C//DTD SVG 1.1//EN" "http://www.w3.org/Graphics/SVG/1.1/DTD/svg11.dtd"><svg xmlns="http://www.w3.org/2000/svg" viewBox="0 0 16 16" shape-rendering="geometricPrecision" fill="#000"><defs><mask id="remove-path"><rect fill="#fff" width="100%" height="100%"/><rect x="8.986" y="1.143" width="8.014" height="3.565" fill="#000"/></mask></defs><g fill="#cb1800"><rect x="9.986" y="2.143" width="6.014" height="1.565"/></g><g mask="url(#remove-path)"><path d="M8.001,1.061c-3.833,0-6.939,3.107-6.939,6.941c0,3.829,3.106,6.934,6.939,6.936 c3.832-0.002,6.936-3.106,6.937-6.936C14.938,4.169,11.833,1.061,8.001,1.061z M8.001,13.534 c-3.057-0.006-5.529-2.478-5.536-5.531c0.007-3.059,2.479-5.531,5.536-5.537c3.056,0.006,5.528,2.479,5.534,5.537 C13.529,11.057,11.057,13.528,8.001,13.534z"/><polygon points="6.978,3.327 6.978,7.632 4.312,9.183 5.367,11.029 9.085,8.87 9.107,8.87 9.104,3.328"/></g></svg>
