<?xml version="1.0"?><!DOCTYPE svg PUBLIC "-//W3C//DTD SVG 1.1//EN" "http://www.w3.org/Graphics/SVG/1.1/DTD/svg11.dtd"><svg width="16px" height="16px" xmlns="http://www.w3.org/2000/svg" viewBox="0 0 16 16" shape-rendering="geometricPrecision" fill="#000"><defs><mask id="remove-path"><rect fill="#fff" width="100%" height="100%"/><rect x="8.986" y="1.143" width="8.014" height="3.565" fill="#000"/></mask></defs><g fill="#cb1800"><rect x="9.986" y="2.143" width="6.014" height="1.565"/></g><g mask="url(#remove-path)"><g><path d="M7.271,8.729H1.03V8.73c0,3.443,2.795,6.239,6.238,6.239h0.002V8.729z"/><path d="M8.83,0.928c-3.442,0-6.237,2.793-6.238,6.236H4.45c0.001-2.417,1.962-4.379,4.38-4.379c2.42,0,4.382,1.963,4.382,4.38 c0,2.42-1.96,4.381-4.378,4.383v1.857c3.443-0.002,6.235-2.797,6.235-6.24C15.068,3.723,12.276,0.928,8.83,0.928z M11.174,7.165 c0-1.292-1.051-2.342-2.344-2.342c-1.293,0-2.341,1.049-2.342,2.341h2.346v2.345C10.125,9.508,11.174,8.458,11.174,7.165z"/></g></g></svg>