<?xml version="1.0"?><!DOCTYPE svg PUBLIC "-//W3C//DTD SVG 1.1//EN" "http://www.w3.org/Graphics/SVG/1.1/DTD/svg11.dtd"><svg width="16px" height="16px" xmlns="http://www.w3.org/2000/svg" viewBox="0 0 16 16" shape-rendering="geometricPrecision" fill="#000"><defs><mask id="remove-path"><rect fill="#fff" width="100%" height="100%"/><rect x="8.986" y="1.143" width="8.014" height="3.565" fill="#000"/></mask></defs><g fill="#cb1800"><rect x="9.986" y="2.143" width="6.014" height="1.565"/></g><g mask="url(#remove-path)"><path d="M2.021,8.002c0,3.234,2.582,5.877,5.792,5.976V8.104L2.423,5.85C2.156,6.538,2.021,7.261,2.021,8.002z"/><path d="M5.608,2.526c-1.006,0.442-1.886,1.166-2.516,2.07l4.456,2.731L5.608,2.526z"/><path d="M8,2.022c-0.343,0-0.693,0.031-1.044,0.095l1.355,5.788l0.786,5.967c2.8-0.521,4.881-3.001,4.881-5.87 C13.979,4.704,11.297,2.022,8,2.022z"/></g></svg>