<?xml version="1.0"?><!DOCTYPE svg PUBLIC "-//W3C//DTD SVG 1.1//EN" "http://www.w3.org/Graphics/SVG/1.1/DTD/svg11.dtd"><svg width="16px" height="16px" xmlns="http://www.w3.org/2000/svg" viewBox="0 0 16 16" shape-rendering="geometricPrecision" fill="#000"><defs><mask id="move_up-path"><rect fill="#fff" width="100%" height="100%"/><polygon points="12.892,-0.396 8.385,4.114 10.856,6.585 12.894,4.549 14.931,6.584 17.404,4.114 " fill="#000"/></mask></defs><polygon points="12.894,3.136 14.931,5.171 15.989,4.114 12.892,1.018 9.799,4.114 10.856,5.171 " fill="#cb1800"/><g mask="url(#move_up-path)"><g><polygon points="7.999,3.007 0.701,5.591 3.853,7.29 7.853,5.602 8.516,5.905 4.52,7.651 7.999,9.524 15.299,5.591"/><g><polygon points="3.336,7.813 1.644,8.415 3.091,9.194 3.336,9.327"/><polygon points="12.661,7.813 7.999,10.325 4.998,8.708 4.998,10.222 7.999,11.839 12.691,9.31 14.356,8.415"/></g><polygon points="3.899,12.542 4.507,12.993 4.507,7.663 3.899,7.296"/></g></g></svg>