<svg width="16" height="16" xmlns="http://www.w3.org/2000/svg" viewBox="0 0 16 16" shape-rendering="geometricPrecision"><defs><mask id="a"><rect fill="#fff" width="100%" height="100%"/><path d="M12.892-.396l-4.507 4.51 2.47 2.47 2.04-2.035 2.036 2.034 2.474-2.47z"/></mask></defs><path fill="#cb1800" d="M12.894 3.136L14.93 5.17l1.06-1.056-3.098-3.096L9.8 4.114l1.056 1.057"/><g mask="url(#a)"><path d="M2.764 2.068l1.79-1.79L8 3.723 11.45.277l1.79 1.79-5.24 5.24M1.04 8.334v6.636H15V8.334H1.04zM12.2 12.248c-.6 0-1.08-.484-1.08-1.082s.48-1.08 1.08-1.08c.596 0 1.08.482 1.08 1.08s-.484 1.082-1.08 1.082z"/></g></svg>