<svg width="16" height="16" xmlns="http://www.w3.org/2000/svg" viewBox="0 0 16 16" shape-rendering="geometricPrecision"><defs><mask id="a"><rect fill="#fff" width="100%" height="100%"/><path d="M12.892-.396l-4.507 4.51 2.47 2.47 2.04-2.035 2.036 2.034 2.474-2.47z"/></mask></defs><path fill="#cb1800" d="M12.894 3.136L14.93 5.17l1.06-1.056-3.098-3.096L9.8 4.114l1.056 1.057"/><path mask="url(#a)" d="M12.377 4.153c.106-.264.167-.55.167-.85 0-1.256-1.015-2.27-2.27-2.27-1.066 0-1.955.738-2.197 1.732C7.857 1.757 6.96 1 5.883 1c-1.242 0-2.25 1.01-2.25 2.25 0 .28.06.546.15.79-1.492.955-2.447 2.488-2.447 4.504C1.336 12.108 4.318 15 8 15c3.68 0 6.663-2.892 6.663-6.456 0-1.94-.887-3.432-2.286-4.39zm-4.42-.912c1.12 0 2.03 1.144 2.03 2.554 0 1.408-.91 2.55-2.03 2.55-1.12 0-2.028-1.142-2.028-2.55-.002-1.41.906-2.553 2.028-2.553zm.196 10.413c-4.655 0-4.948-4.637-4.948-4.637s2.093.635 4.792.635c2.976 0 5.086-.65 5.087-.65 0 0-.71 4.653-4.93 4.653z"/></svg>