<?xml version="1.0"?><!DOCTYPE svg PUBLIC "-//W3C//DTD SVG 1.1//EN" "http://www.w3.org/Graphics/SVG/1.1/DTD/svg11.dtd"><svg xmlns="http://www.w3.org/2000/svg" viewBox="0 0 16 16" shape-rendering="geometricPrecision" fill="#000"><defs><mask id="move_up-path"><rect fill="#fff" width="100%" height="100%"/><polygon points="12.892,-0.396 8.385,4.114 10.856,6.585 12.894,4.549 14.931,6.584 17.404,4.114 " fill="#000"/></mask></defs><polygon points="12.894,3.136 14.931,5.171 15.989,4.114 12.892,1.018 9.799,4.114 10.856,5.171 " fill="#cb1800"/><g mask="url(#move_up-path)"><path d="M11.985,3.584H2.119C0.953,3.584,0,4.538,0,5.703v5.503c0,1.166,0.953,2.119,2.119,2.119h0.988 c0.023,0.76-0.201,1.758-1.224,2.674c2.905-0.451,4.517-2.537,4.621-2.674h5.481c1.166,0,2.119-0.953,2.119-2.119V5.703 C14.104,4.538,13.151,3.584,11.985,3.584z M11.581,9.772h-8.93V8.528h8.93V9.772z M11.581,7.194h-8.93V5.948h8.93V7.194z M13.886,1.688H4.019c-0.829,0-1.542,0.487-1.891,1.183c0.287-0.145,0.604-0.232,0.946-0.232h9.867 c1.165,0,2.119,0.952,2.119,2.117v5.505c0,0.335-0.087,0.649-0.226,0.933c0.691-0.35,1.171-1.059,1.171-1.883V3.807 C16.005,2.642,15.052,1.688,13.886,1.688z"/></g></svg>
