<svg width="16" height="16" xmlns="http://www.w3.org/2000/svg" viewBox="0 0 16 16" shape-rendering="geometricPrecision"><defs><mask id="a"><rect fill="#fff" width="100%" height="100%"/><path d="M12.892-.396l-4.507 4.51 2.47 2.47 2.04-2.035 2.036 2.034 2.474-2.47z"/></mask></defs><path fill="#cb1800" d="M12.894 3.136L14.93 5.17l1.06-1.056-3.098-3.096L9.8 4.114l1.056 1.057"/><path mask="url(#a)" d="M4.212 1.067c1.07 0 1.604.865 1.604 1.832 0 1.12.03 2.547.03 2.547h5.504c1.123 0 1.922.62 1.922 1.56 0 1.124-.687 1.686-1.81 1.686H5.876v1s.5 1.994 2.123 1.994h3.462c.874 0 1.623.58 1.623 1.58 0 .997-.518 1.665-1.592 1.665H7.82c-3.145 0-5.095-1.23-5.095-4.738V3.042c.002-1.218.49-1.975 1.487-1.975z"/></svg>