<svg width="16" height="16" xmlns="http://www.w3.org/2000/svg" viewBox="0 0 16 16" shape-rendering="geometricPrecision"><defs><mask id="a"><rect fill="#fff" width="100%" height="100%"/><path d="M12.892-.396l-4.507 4.51 2.47 2.47 2.04-2.035 2.036 2.034 2.474-2.47z"/></mask></defs><path fill="#cb1800" d="M12.894 3.136L14.93 5.17l1.06-1.056-3.098-3.096L9.8 4.114l1.056 1.057"/><g mask="url(#a)"><path d="M13.237 5.237l-1.79 1.79-3.448-3.444-3.45 3.445-1.788-1.79L8.002 0M0 8v6.93h16V8H0zm14.413 5.495H1.588v-4.06h12.825v4.06zm-2.387-1.517c.52 0 .94-.416.94-.93 0-.515-.42-.93-.94-.93s-.94.415-.94.93c0 .513.42.93.94.93z"/></g></svg>