<svg width="16" height="16" xmlns="http://www.w3.org/2000/svg" viewBox="0 0 16 16" shape-rendering="geometricPrecision"><defs><mask id="a"><rect fill="#fff" width="100%" height="100%"/><path d="M12.892-.396l-4.507 4.51 2.47 2.47 2.04-2.035 2.036 2.034 2.474-2.47z"/></mask></defs><path fill="#cb1800" d="M12.894 3.136L14.93 5.17l1.06-1.056-3.098-3.096L9.8 4.114l1.056 1.057"/><path mask="url(#a)" d="M7.993 3.184C4.525 3.184 1.518 5.136 0 8c1.518 2.864 4.525 4.815 7.993 4.815 3.466 0 6.472-1.95 7.993-4.814-1.52-2.864-4.527-4.816-7.993-4.816zm-.82 8.2L4.12 8.33l1.343-1.343 1.71 1.708 3.264-3.265 1.345 1.344-4.61 4.61z"/></svg>