<svg width="16" height="16" xmlns="http://www.w3.org/2000/svg" viewBox="0 0 16 16" shape-rendering="geometricPrecision" fill="#ffad00"><defs><mask id="a"><rect fill="#fff" width="100%" height="100%"/><path fill="#000" d="M14.934-.397l-2.04 2.036L10.86-.398l-2.472 2.47 4.51 4.51 4.508-4.51z"/></mask></defs><path fill="#cb1800" d="M12.895 3.052l-2.037-2.035L9.8 2.073l3.097 3.096 3.093-3.097-1.057-1.056"/><path d="M7.975 1.052c-3.85 0-6.973 3.124-6.975 6.97h2.077c0-2.7 2.193-4.896 4.897-4.896 2.705 0 4.9 2.195 4.9 4.897 0 2.706-2.195 4.9-4.9 4.9V15c3.852 0 6.974-3.126 6.974-6.977 0-3.847-3.122-6.97-6.973-6.97zm2.62 6.97c0-1.443-1.175-2.616-2.62-2.616s-2.62 1.173-2.62 2.617c0 1.446 1.173 2.622 2.62 2.622s2.62-1.175 2.62-2.622z" mask="url(#a)"/></svg>