<?xml version="1.0"?><!DOCTYPE svg PUBLIC "-//W3C//DTD SVG 1.1//EN" "http://www.w3.org/Graphics/SVG/1.1/DTD/svg11.dtd"><svg xmlns="http://www.w3.org/2000/svg" viewBox="0 0 16 16" shape-rendering="geometricPrecision" fill="#ffad00"><defs><mask id="move_down-path"><rect fill="#fff" width="100%" height="100%"/><polygon points="14.934,-0.397 12.895,1.639 10.858,-0.397 8.386,2.073 12.897,6.583 17.404,2.073 " fill="#000"/></mask></defs><polygon points="12.895,3.052 10.858,1.017 9.8,2.073 12.897,5.169 15.99,2.073 14.933,1.017 " fill="#cb1800"/><path mask="url(#move_down-path)" d="M7.993,3.184C4.525,3.184,1.518,5.136,0,8.001 c1.518,2.863,4.525,4.814,7.993,4.814c3.466,0,6.472-1.951,7.993-4.814C14.465,5.136,11.459,3.184,7.993,3.184z M7.173,11.383 L4.121,8.331l1.342-1.344l1.709,1.708l3.265-3.265l1.345,1.344L7.173,11.383z"/></svg>
