<svg width="16" height="16" xmlns="http://www.w3.org/2000/svg" viewBox="0 0 16 16" shape-rendering="geometricPrecision" fill="#ffad00"><defs><mask id="a"><rect fill="#fff" width="100%" height="100%"/><path fill="#000" d="M14.934-.397l-2.04 2.036L10.86-.398l-2.472 2.47 4.51 4.51 4.508-4.51z"/></mask></defs><path fill="#cb1800" d="M12.895 3.052l-2.037-2.035L9.8 2.073l3.097 3.096 3.093-3.097-1.057-1.056"/><path d="M12.5 3.976H3.562c-.86 0-1.556.697-1.556 1.556v4.906c0 .86.697 1.556 1.556 1.556H12.5c.86 0 1.556-.697 1.556-1.556V5.532c0-.86-.697-1.556-1.556-1.556zM6.936 10.2V5.937L9.75 8.068 6.936 10.2z" mask="url(#a)"/></svg>