<svg width="16" height="16" xmlns="http://www.w3.org/2000/svg" viewBox="0 0 16 16" shape-rendering="geometricPrecision" fill="#6e6e6e"><defs><mask id="a"><rect fill="#fff" width="100%" height="100%"/><path fill="#000" d="M14.782 1.217V-1h-3.564v2.217H9V4.78h2.218V7h3.564V4.78H17V1.217z"/></mask></defs><path fill="#cb1800" d="M16 2.217h-2.218V0h-1.564v2.217H10V3.78h2.218V6h1.564V3.78H16"/><path d="M8 1C4.134 1 1 4.137 1 8.005 1.004 11.867 4.135 15 8 15c3.867 0 7-3.133 7-6.996C15 4.136 11.868 1 8 1zm0 12.585c-3.083-.006-5.577-2.5-5.583-5.58.006-3.087 2.5-5.582 5.583-5.588 3.084.006 5.578 2.5 5.585 5.587-.007 3.08-2.5 5.575-5.585 5.58zm4.055-7.312L10.63 4.85 7.176 8.304l-1.81-1.806-1.42 1.42 3.232 3.23 4.878-4.875z" mask="url(#a)"/></svg>