<?xml version="1.0"?><!DOCTYPE svg PUBLIC "-//W3C//DTD SVG 1.1//EN" "http://www.w3.org/Graphics/SVG/1.1/DTD/svg11.dtd"><svg width="16px" height="16px" xmlns="http://www.w3.org/2000/svg" viewBox="0 0 16 16" shape-rendering="geometricPrecision" fill="#6e6e6e"><defs><mask id="add-path"><rect fill="#fff" width="100%" height="100%"/><polygon points="14.782,1.217 14.782,-1 11.218,-1 11.218,1.217 9,1.217 9,4.78 11.218,4.78 11.218,7.001 14.782,7.001 14.782,4.78 17,4.78 17,1.217 " fill="#000"/></mask></defs><polygon points="16,2.217 13.782,2.217 13.782,0 12.218,0 12.218,2.217 10,2.217 10,3.78 12.218,3.78 12.218,6.001 13.782,6.001 13.782,3.78 16,3.78 " fill="#cb1800"/><g mask="url(#add-path)"><path d="M13.031,11.953c0,0-0.891,0-1.016-0.806c-0.187-1.197-0.661-4.542-0.661-4.542h-0.007 c-0.233-1.326-1.228-2.38-2.521-2.704c0.002-0.021,0.012-0.039,0.012-0.06c0-0.47-0.381-0.852-0.852-0.852 c-0.47,0-0.852,0.381-0.852,0.852c0,0.024,0.012,0.044,0.014,0.068C5.869,4.24,4.884,5.288,4.653,6.606H4.646 c0,0-0.501,3.352-0.663,4.557c-0.106,0.791-1.014,0.791-1.014,0.791v1.031h2.134c0.199,0.598,0.756,1.031,1.42,1.031 s1.222-0.434,1.42-1.031h5.087V11.953z"/></g></svg>