<svg width="16" height="16" xmlns="http://www.w3.org/2000/svg" viewBox="0 0 16 16" shape-rendering="geometricPrecision" fill="#6e6e6e"><defs><mask id="a"><rect fill="#fff" width="100%" height="100%"/><path fill="#000" d="M14.782 1.217V-1h-3.564v2.217H9V4.78h2.218V7h3.564V4.78H17V1.217z"/></mask></defs><path fill="#cb1800" d="M16 2.217h-2.218V0h-1.564v2.217H10V3.78h2.218V6h1.564V3.78H16"/><g mask="url(#a)"><path d="M12.243 5.062l-1.58 1.578-3.04-3.038-3.04 3.038-1.577-1.578 4.62-4.62M2.02 9.705V16h11.148V9.684l-5.59 4.497L2.02 9.706zm0-1.607v.016l5.56 4.5 5.588-4.495v-.022H2.02z"/></g></svg>