<svg width="16" height="16" xmlns="http://www.w3.org/2000/svg" viewBox="0 0 16 16" shape-rendering="geometricPrecision" fill="#6e6e6e"><defs><mask id="a"><rect fill="#fff" width="100%" height="100%"/><path fill="#000" d="M14.782 1.217V-1h-3.564v2.217H9V4.78h2.218V7h3.564V4.78H17V1.217z"/></mask></defs><path fill="#cb1800" d="M16 2.217h-2.218V0h-1.564v2.217H10V3.78h2.218V6h1.564V3.78H16"/><g mask="url(#a)"><path d="M14.48 9.852V8.65h-2.567V1.63H6.6L3.895 4.124V8.65H1.57v1.2H.965v4.52H15.035V9.85h-.556zM6.644 2.73v1.403H5.12L6.646 2.73zM4.635 5h2.88V2.32h3.604V10.7H4.634V5zm8.237 6.546c-.393 0-.71-.32-.71-.71 0-.395.317-.712.71-.712.392 0 .71.317.71.71 0 .393-.318.712-.71.712z"/><path d="M5.624 5.738h4.57v.866h-4.57zM5.624 7.363h4.57v.866h-4.57z"/></g></svg>