<svg width="16" height="16" xmlns="http://www.w3.org/2000/svg" viewBox="0 0 16 16" shape-rendering="geometricPrecision" fill="#6e6e6e"><defs><mask id="a"><rect fill="#fff" width="100%" height="100%"/><path fill="#000" d="M14.782 1.217V-1h-3.564v2.217H9V4.78h2.218V7h3.564V4.78H17V1.217z"/></mask></defs><path fill="#cb1800" d="M16 2.217h-2.218V0h-1.564v2.217H10V3.78h2.218V6h1.564V3.78H16"/><g mask="url(#a)"><path d="M0 8.59h7.405V16H0zM8.555 8.59V16H16V8.59H8.555zm6.297 5.206l-1.063 1.06-1.51-1.503-1.512 1.504-1.064-1.06 1.51-1.503-1.51-1.504 1.064-1.06 1.51 1.506 1.51-1.505 1.064 1.062-1.51 1.502 1.51 1.502z"/><g><path d="M4.276.073v7.41h7.368V.073H4.276zm3.076 6.05L4.96 3.716l1.05-1.06 1.34 1.347 2.56-2.572 1.053 1.06-3.61 3.63z"/></g></g></svg>