<svg width="16" height="16" xmlns="http://www.w3.org/2000/svg" viewBox="0 0 16 16" shape-rendering="geometricPrecision" fill="#6e6e6e"><defs><mask id="a"><rect fill="#fff" width="100%" height="100%"/><path fill="#000" d="M14.782 1.217V-1h-3.564v2.217H9V4.78h2.218V7h3.564V4.78H17V1.217z"/></mask></defs><path fill="#cb1800" d="M16 2.217h-2.218V0h-1.564v2.217H10V3.78h2.218V6h1.564V3.78H16"/><path d="M15.235 11.444L9.643 5.85c.315-1.55-.127-3.22-1.327-4.418C6.996.114 5.122-.27 3.456.23l3.35 3.353L3.56 6.828.21 3.475c-.5 1.667-.113 3.54 1.2 4.86 1.2 1.2 2.87 1.64 4.417 1.33l5.59 5.587c.987.986 2.634.934 3.692-.124 1.052-1.052 1.106-2.705.125-3.684z" mask="url(#a)"/></svg>