<svg width="16" height="16" xmlns="http://www.w3.org/2000/svg" viewBox="0 0 16 16" shape-rendering="geometricPrecision" fill="#6e6e6e"><defs><mask id="a"><rect fill="#fff" width="100%" height="100%"/><path fill="#000" d="M14.782 1.217V-1h-3.564v2.217H9V4.78h2.218V7h3.564V4.78H17V1.217z"/></mask></defs><path fill="#cb1800" d="M16 2.217h-2.218V0h-1.564v2.217H10V3.78h2.218V6h1.564V3.78H16"/><g mask="url(#a)"><path d="M8 3.18C4.53 3.18 1.52 5.135 0 8c1.52 2.866 4.53 4.82 8 4.82 3.47 0 6.48-1.954 8-4.82-1.52-2.866-4.53-4.82-8-4.82zm-.002 9.048c-2.334 0-4.23-1.893-4.23-4.227 0-2.335 1.896-4.228 4.23-4.228 2.336 0 4.23 1.893 4.23 4.23 0 2.333-1.894 4.226-4.23 4.226z"/><circle cx="8.011" cy="8.096" r="2.165"/></g></svg>