<?xml version="1.0"?><!DOCTYPE svg PUBLIC "-//W3C//DTD SVG 1.1//EN" "http://www.w3.org/Graphics/SVG/1.1/DTD/svg11.dtd"><svg width="16px" height="16px" xmlns="http://www.w3.org/2000/svg" viewBox="0 0 16 16" shape-rendering="geometricPrecision" fill="#000"><defs><mask id="accept-path"><rect fill="#fff" width="100%" height="100%"/><polygon points="14.671,-1.414 11.443,1.813 9.753,0.123 7.012,2.866 11.445,7.299 17.414,1.329 " fill="#000"/></mask></defs><polygon points="16,1.33 14.671,0 11.443,3.228 9.753,1.539 8.426,2.867 11.445,5.886 " fill="#cb1800"/><g mask="url(#accept-path)"><path d="M1.935,1.982V14h3.031V1.982H1.935z M3.451,12.028c-0.511,0-0.924-0.413-0.924-0.923 c0-0.512,0.413-0.925,0.924-0.925c0.51,0,0.923,0.413,0.923,0.925C4.374,11.615,3.96,12.028,3.451,12.028z"/><path d="M5.993,1.982V14h3.029V1.982H5.993z M7.508,12.028c-0.511,0-0.924-0.412-0.924-0.922 c0-0.512,0.413-0.923,0.924-0.923c0.51,0,0.922,0.411,0.922,0.923C8.431,11.616,8.018,12.028,7.508,12.028z"/><path d="M10.001,1.982V14h3.076V1.982H10.001z M11.54,11.999c-0.519,0-0.938-0.419-0.938-0.937 c0-0.52,0.419-0.938,0.938-0.938c0.518,0,0.937,0.419,0.937,0.938C12.476,11.58,12.057,11.999,11.54,11.999z"/></g></svg>