<svg width="16" height="16" xmlns="http://www.w3.org/2000/svg" viewBox="0 0 16 16" shape-rendering="geometricPrecision"><defs><mask id="a"><rect fill="#fff" width="100%" height="100%"/><path d="M14.67-1.414l-3.227 3.227-1.69-1.69-2.74 2.743L11.444 7.3l5.97-5.97z"/></mask></defs><path fill="#cb1800" d="M16 1.33L14.67 0l-3.227 3.228-1.69-1.69-1.327 1.33 3.02 3.018"/><g mask="url(#a)"><path d="M2.764 2.068l1.79-1.79L8 3.723 11.45.277l1.79 1.79-5.24 5.24M1.04 8.334v6.636H15V8.334H1.04zM12.2 12.248c-.6 0-1.08-.484-1.08-1.082s.48-1.08 1.08-1.08c.596 0 1.08.482 1.08 1.08s-.484 1.082-1.08 1.082z"/></g></svg>