<?xml version="1.0"?><!DOCTYPE svg PUBLIC "-//W3C//DTD SVG 1.1//EN" "http://www.w3.org/Graphics/SVG/1.1/DTD/svg11.dtd"><svg width="16px" height="16px" xmlns="http://www.w3.org/2000/svg" viewBox="0 0 16 16" shape-rendering="geometricPrecision" fill="#000"><defs><mask id="accept-path"><rect fill="#fff" width="100%" height="100%"/><polygon points="14.671,-1.414 11.443,1.813 9.753,0.123 7.012,2.866 11.445,7.299 17.414,1.329 " fill="#000"/></mask></defs><polygon points="16,1.33 14.671,0 11.443,3.228 9.753,1.539 8.426,2.867 11.445,5.886 " fill="#cb1800"/><path mask="url(#accept-path)" d="M8.255,6.028c0,0,0,0,0-0.806c0-1.318,0.144-1.61,1.711-1.61c0.561,0,1.648,0,2.025,0L12,0.994 c-0.893,0-2.135,0-3.438,0c-1.913,0-2.85,1.02-2.85,2.983c0,0.544,0,1.247,0,2.051c-0.354,0-1.16,0-1.483,0v2.617 c0.431,0,0.96,0,1.483,0c0,1.741,0,4.496,0,6.284l2.497,0.006c0.007-3.073,0.021-6.29,0.021-6.29s2.375,0,3.75,0l0.012-2.617 C10.615,6.028,8.255,6.028,8.255,6.028z"/></svg>