<svg width="16" height="16" xmlns="http://www.w3.org/2000/svg" viewBox="0 0 16 16" shape-rendering="geometricPrecision"><defs><mask id="a"><rect fill="#fff" width="100%" height="100%"/><path d="M14.67-1.414l-3.227 3.227-1.69-1.69-2.74 2.743L11.444 7.3l5.97-5.97z"/></mask></defs><path fill="#cb1800" d="M16 1.33L14.67 0l-3.227 3.228-1.69-1.69-1.327 1.33 3.02 3.018"/><path d="M8.01 4.685c-.992-2.585-6.25-2.47-6.002 1.65.087 1.41 1.178 2.59 2.687 3.96 2.26 2.058 3.315 2.755 3.315 2.755s1.05-.697 3.314-2.755c1.505-1.37 2.6-2.55 2.683-3.96C14.254 2.215 9 2.1 8.01 4.685z" mask="url(#a)"/></svg>