<svg width="16" height="16" xmlns="http://www.w3.org/2000/svg" viewBox="0 0 16 16" shape-rendering="geometricPrecision"><defs><mask id="a"><rect fill="#fff" width="100%" height="100%"/><path d="M14.67-1.414l-3.227 3.227-1.69-1.69-2.74 2.743L11.444 7.3l5.97-5.97z"/></mask></defs><path fill="#cb1800" d="M16 1.33L14.67 0l-3.227 3.228-1.69-1.69-1.327 1.33 3.02 3.018"/><g mask="url(#a)"><path d="M6.867 9.283c1.382 0 2.497-1.115 2.497-2.495 0-1.378-1.114-2.494-2.497-2.494-1.377 0-2.496 1.116-2.496 2.494.002 1.38 1.12 2.495 2.497 2.495zm2.32 1.186H4.54c-1.322 0-2.397 1.08-2.397 2.403V16h9.45v-3.127c0-1.322-1.084-2.404-2.407-2.404zM7.64 0v1.125c1.35 0 2.565.545 3.45 1.428.882.885 1.427 2.1 1.427 3.45h1.125c0-3.315-2.686-6.002-6-6.003zm0 2.025v1.122c1.576.004 2.85 1.28 2.853 2.855h1.125c0-2.197-1.78-3.977-3.977-3.977z"/></g></svg>