<svg width="16" height="16" xmlns="http://www.w3.org/2000/svg" viewBox="0 0 16 16" shape-rendering="geometricPrecision"><defs><mask id="a"><rect fill="#fff" width="100%" height="100%"/><path d="M14.67-1.414l-3.227 3.227-1.69-1.69-2.74 2.743L11.444 7.3l5.97-5.97z"/></mask></defs><path fill="#cb1800" d="M16 1.33L14.67 0l-3.227 3.228-1.69-1.69-1.327 1.33 3.02 3.018"/><path d="M2.27.963v13.97h11.46V.964H2.27zm5.746 1.633c1.475 0 2.665 1.194 2.665 2.665 0 1.478-1.19 2.667-2.664 2.667-1.47 0-2.667-1.19-2.667-2.666 0-1.47 1.195-2.664 2.666-2.664zm4.533 11.497H3.483v-2.996c0-1.268 1.032-2.306 2.3-2.306h4.458c1.268 0 2.308 1.04 2.308 2.307v2.996z" mask="url(#a)"/></svg>