<?xml version="1.0"?><!DOCTYPE svg PUBLIC "-//W3C//DTD SVG 1.1//EN" "http://www.w3.org/Graphics/SVG/1.1/DTD/svg11.dtd"><svg xmlns="http://www.w3.org/2000/svg" viewBox="0 0 16 16" shape-rendering="geometricPrecision" fill="#000"><defs><mask id="accept-path"><rect fill="#fff" width="100%" height="100%"/><polygon points="14.671,-1.414 11.443,1.813 9.753,0.123 7.012,2.866 11.445,7.299 17.414,1.329 " fill="#000"/></mask></defs><polygon points="16,1.33 14.671,0 11.443,3.228 9.753,1.539 8.426,2.867 11.445,5.886 " fill="#cb1800"/><g mask="url(#accept-path)"><g><g><path d="M6.551,6.983c1.627,0,2.94-1.314,2.94-2.939s-1.313-2.939-2.94-2.939c-1.623,0-2.939,1.314-2.939,2.939 S4.929,6.983,6.551,6.983z"/><path d="M9.366,13.378l-0.402-3.99l0.409-1c-0.03,0-0.059-0.008-0.089-0.008H3.811c-1.559,0-2.826,1.275-2.826,2.832v3.684 h11.133v-3.684c0-0.051-0.013-0.1-0.016-0.152L9.366,13.378z"/></g><path d="M14.929,2.831c0.247-0.633-0.059-1.35-0.69-1.598c-0.63-0.256-1.345,0.051-1.603,0.68l0,0l-0.368,0.918l2.292,0.92 l0.371-0.92H14.929z M9.813,12.276l1.039-0.887l-1.168-0.467L9.813,12.276z M9.541,9.642l2.291,0.92l2.477-6.182l-2.292-0.918 L9.541,9.642z"/></g></g></svg>
