<?xml version="1.0"?><!DOCTYPE svg PUBLIC "-//W3C//DTD SVG 1.1//EN" "http://www.w3.org/Graphics/SVG/1.1/DTD/svg11.dtd"><svg xmlns="http://www.w3.org/2000/svg" viewBox="0 0 16 16" shape-rendering="geometricPrecision" fill="#000"><defs><mask id="accept-path"><rect fill="#fff" width="100%" height="100%"/><polygon points="14.671,-1.414 11.443,1.813 9.753,0.123 7.012,2.866 11.445,7.299 17.414,1.329 " fill="#000"/></mask></defs><polygon points="16,1.33 14.671,0 11.443,3.228 9.753,1.539 8.426,2.867 11.445,5.886 " fill="#cb1800"/><g mask="url(#accept-path)"><g><g><g><path d="M8,3.181c-3.471,0-6.48,1.953-8,4.82c1.52,2.865,4.529,4.818,8,4.818c3.469,0,6.479-1.953,8-4.818 C14.479,5.134,11.469,3.181,8,3.181z M7.998,12.228c-2.334,0-4.229-1.893-4.229-4.227c0-2.336,1.895-4.229,4.229-4.229 c2.336,0,4.23,1.893,4.23,4.229C12.229,10.335,10.334,12.228,7.998,12.228z"/></g></g></g></g></svg>
