<?xml version="1.0"?><!DOCTYPE svg PUBLIC "-//W3C//DTD SVG 1.1//EN" "http://www.w3.org/Graphics/SVG/1.1/DTD/svg11.dtd"><svg width="16px" height="16px" xmlns="http://www.w3.org/2000/svg" viewBox="0 0 16 16" shape-rendering="geometricPrecision" fill="#abb7ce"><defs><mask id="add-path"><rect fill="#fff" width="100%" height="100%"/><polygon points="14.782,1.217 14.782,-1 11.218,-1 11.218,1.217 9,1.217 9,4.78 11.218,4.78 11.218,7.001 14.782,7.001 14.782,4.78 17,4.78 17,1.217 " fill="#000"/></mask></defs><polygon points="16,2.217 13.782,2.217 13.782,0 12.218,0 12.218,2.217 10,2.217 10,3.78 12.218,3.78 12.218,6.001 13.782,6.001 13.782,3.78 16,3.78 " fill="#cb1800"/><g mask="url(#add-path)"><path d="M7.999,1C4.133,1,1,4.135,1,8.003C1.002,11.866,4.133,14.998,7.999,15C11.866,14.998,15,11.866,15,8.003 C15,4.135,11.866,1,7.999,1z M7.999,13.584c-3.083-0.006-5.577-2.5-5.583-5.581c0.006-3.086,2.5-5.581,5.583-5.587 c3.084,0.006,5.578,2.501,5.585,5.587C13.577,11.084,11.083,13.578,7.999,13.584z M11.422,10.054L9.366,7.999l2.057-2.057 l-1.448-1.45L7.917,6.55L5.86,4.493L4.412,5.941l2.057,2.056L4.41,10.055l1.451,1.45l2.058-2.058l2.056,2.057L11.422,10.054z"/></g></svg>