<?xml version="1.0"?><!DOCTYPE svg PUBLIC "-//W3C//DTD SVG 1.1//EN" "http://www.w3.org/Graphics/SVG/1.1/DTD/svg11.dtd"><svg width="16px" height="16px" xmlns="http://www.w3.org/2000/svg" viewBox="0 0 16 16" shape-rendering="geometricPrecision" fill="#abb7ce"><defs><mask id="add-path"><rect fill="#fff" width="100%" height="100%"/><polygon points="14.782,1.217 14.782,-1 11.218,-1 11.218,1.217 9,1.217 9,4.78 11.218,4.78 11.218,7.001 14.782,7.001 14.782,4.78 17,4.78 17,1.217 " fill="#000"/></mask></defs><polygon points="16,2.217 13.782,2.217 13.782,0 12.218,0 12.218,2.217 10,2.217 10,3.78 12.218,3.78 12.218,6.001 13.782,6.001 13.782,3.78 16,3.78 " fill="#cb1800"/><g mask="url(#add-path)"><path d="M8.291,3.837H6.674v3.414h1.711c0.636,0,1.125-0.149,1.469-0.449c0.344-0.3,0.516-0.728,0.516-1.285 C10.369,4.397,9.677,3.837,8.291,3.837z"/><path d="M8,0C3.582,0,0,3.582,0,8s3.582,8,8,8c4.418,0,8-3.582,8-8S12.418,0,8,0z M11.51,7.243 c-0.317,0.489-0.753,0.845-1.305,1.066C9.653,8.531,8.861,8.642,7.83,8.642H6.674v4.734h-1.57V2.446h3.461 c1.042,0,1.872,0.281,2.492,0.844s0.93,1.317,0.93,2.266C11.986,6.191,11.827,6.754,11.51,7.243z"/></g></svg>