<?xml version="1.0"?><!DOCTYPE svg PUBLIC "-//W3C//DTD SVG 1.1//EN" "http://www.w3.org/Graphics/SVG/1.1/DTD/svg11.dtd"><svg width="16px" height="16px" xmlns="http://www.w3.org/2000/svg" viewBox="0 0 16 16" shape-rendering="geometricPrecision" fill="#000"><defs><mask id="new-path"><rect fill="#fff" width="100%" height="100%"/><polygon points="19.079,1.436 14.165,1.436 12.649,-3.238 11.13,1.436 6.217,1.436 10.192,4.322 8.676,8.995 12.648,6.107 16.62,8.996 15.104,4.322 " fill="#000"/></mask></defs><polygon points="13.928,3.94 16,2.435 13.439,2.435 12.648,0 11.857,2.435 9.295,2.435 11.367,3.94 10.577,6.377 12.648,4.871 14.719,6.377 " fill="#cb1800"/><g mask="url(#new-path)"><path d="M11.031,9.168H9.307v0.744h1.724V9.168z M7.068,6.992l0.973-2.429L5.5,3.544L4.12,6.992H0.892v9.007 h14.216V6.992H7.068z M7.505,15.005H1.882V7.982h1.84l-0.966,2.413l2.54,1.019l1.375-3.432h0.834V15.005z M14.117,15.005h-5.62 V7.982h5.62V15.005z M12.858,10.506H9.307v0.745h3.551V10.506z M8.731,2.843H8.73c0.275-0.7-0.065-1.493-0.764-1.771 c-0.7-0.281-1.492,0.058-1.778,0.755L5.78,2.843l2.542,1.022L8.731,2.843z M3.058,13.316l1.152-0.983l-1.295-0.517L3.058,13.316z"/></g></svg>