<svg width="16" height="16" xmlns="http://www.w3.org/2000/svg" viewBox="0 0 16 16" shape-rendering="geometricPrecision"><defs><mask id="a"><rect fill="#fff" width="100%" height="100%"/><path d="M19.08 1.436h-4.915L12.65-3.238l-1.52 4.674H6.217l3.975 2.886-1.516 4.673 3.972-2.888 3.972 2.89-1.516-4.675z"/></mask></defs><path fill="#cb1800" d="M13.928 3.94L16 2.435h-2.56L12.647 0l-.79 2.435H9.294l2.072 1.505-.79 2.437 2.07-1.506 2.072 1.507"/><path d="M11.03 9.168H9.308v.744h1.724v-.744zM7.07 6.992l.973-2.43L5.5 3.545 4.12 6.992H.892V16h14.216V6.99h-8.04zm.437 8.013H1.882V7.982h1.84l-.966 2.413 2.54 1.02L6.67 7.98h.835v7.023zm6.612 0h-5.62V7.982h5.62v7.023zm-1.26-4.5h-3.55v.746h3.55v-.744zM8.732 2.844c.275-.7-.065-1.493-.764-1.77-.7-.282-1.492.057-1.778.754L5.78 2.843l2.542 1.022.41-1.022zM3.06 13.316l1.152-.983-1.295-.517.143 1.5z" mask="url(#a)"/></svg>