<svg width="16" height="16" xmlns="http://www.w3.org/2000/svg" viewBox="0 0 16 16" shape-rendering="geometricPrecision"><defs><mask id="a"><rect fill="#fff" width="100%" height="100%"/><path d="M19.08 1.436h-4.915L12.65-3.238l-1.52 4.674H6.217l3.975 2.886-1.516 4.673 3.972-2.888 3.972 2.89-1.516-4.675z"/></mask></defs><path fill="#cb1800" d="M13.928 3.94L16 2.435h-2.56L12.647 0l-.79 2.435H9.294l2.072 1.505-.79 2.437 2.07-1.506 2.072 1.507"/><g mask="url(#a)"><path d="M3.01 2.578L4.59 1l3.038 3.038L10.668 1l1.578 1.578-4.62 4.62M2.02 9.705V16h11.148V9.684l-5.59 4.497L2.02 9.706zm0-1.607v.016l5.56 4.5 5.588-4.495v-.022H2.02z"/></g></svg>