<svg width="16" height="16" xmlns="http://www.w3.org/2000/svg" viewBox="0 0 16 16" shape-rendering="geometricPrecision"><defs><mask id="a"><rect fill="#fff" width="100%" height="100%"/><path d="M19.08 1.436h-4.915L12.65-3.238l-1.52 4.674H6.217l3.975 2.886-1.516 4.673 3.972-2.888 3.972 2.89-1.516-4.675z"/></mask></defs><path fill="#cb1800" d="M13.928 3.94L16 2.435h-2.56L12.647 0l-.79 2.435H9.294l2.072 1.505-.79 2.437 2.07-1.506 2.072 1.507"/><path d="M13.684 5.576h2.312L7.998 1 0 5.576h2.312V13.6H1.194v1.315h13.61V13.6h-1.12V5.575zM11.252 13.6H9.215V5.575h2.036V13.6zM4.745 5.575h2.037V13.6H4.745V5.575z" mask="url(#a)"/></svg>