<svg width="16" height="16" xmlns="http://www.w3.org/2000/svg" viewBox="0 0 16 16" shape-rendering="geometricPrecision"><defs><mask id="a"><rect fill="#fff" width="100%" height="100%"/><path d="M19.08 1.436h-4.915L12.65-3.238l-1.52 4.674H6.217l3.975 2.886-1.516 4.673 3.972-2.888 3.972 2.89-1.516-4.675z"/></mask></defs><path fill="#cb1800" d="M13.928 3.94L16 2.435h-2.56L12.647 0l-.79 2.435H9.294l2.072 1.505-.79 2.437 2.07-1.506 2.072 1.507"/><path d="M1.98 7.695c0-2.574 2.087-4.66 4.662-4.66v-1.98c-3.665 0-6.64 2.976-6.64 6.64V7.7h1.977v-.003zm6.33 4.157c1.376 0 2.493-1.118 2.493-2.494 0-1.377-1.117-2.492-2.492-2.492V9.36H5.815c.002 1.375 1.12 2.492 2.497 2.492zm0-9.134v1.978c2.573 0 4.662 2.087 4.662 4.662 0 2.576-2.09 4.663-4.66 4.663-2.576 0-4.665-2.085-4.666-4.66H1.668C1.67 13.027 4.645 16 8.31 16c3.663 0 6.64-2.973 6.64-6.64-.002-3.665-2.976-6.64-6.64-6.64z" mask="url(#a)"/></svg>