<svg width="16" height="16" xmlns="http://www.w3.org/2000/svg" viewBox="0 0 16 16" shape-rendering="geometricPrecision"><defs><mask id="a"><rect fill="#fff" width="100%" height="100%"/><path d="M19.08 1.436h-4.915L12.65-3.238l-1.52 4.674H6.217l3.975 2.886-1.516 4.673 3.972-2.888 3.972 2.89-1.516-4.675z"/></mask></defs><path fill="#cb1800" d="M13.928 3.94L16 2.435h-2.56L12.647 0l-.79 2.435H9.294l2.072 1.505-.79 2.437 2.07-1.506 2.072 1.507"/><g mask="url(#a)"><ellipse cx="13.096" cy="4.259" rx="1.101" ry="1.091"/><path d="M13.367 6.868c-.318 0-.614.095-.862.255-.127-.98-.962-1.74-1.983-1.74-1.11 0-2.01.89-2.01 1.992 0 1.1.9 1.99 2.01 1.99.507 0 .964-.192 1.318-.5.186.667.796 1.16 1.527 1.16.88 0 1.592-.707 1.592-1.578-.002-.872-.714-1.58-1.593-1.58z"/><path d="M10.202 10.016c-1.332-.157-2.365-1.28-2.365-2.64 0-1.072.64-1.994 1.56-2.415L8.91 1.908l-5.074.795.284 1.785L1.2 5.61l3.28 8.382 4.79-1.844-.442-1.126 1.497-.235-.123-.77z"/></g></svg>