<?xml version="1.0"?><!DOCTYPE svg PUBLIC "-//W3C//DTD SVG 1.1//EN" "http://www.w3.org/Graphics/SVG/1.1/DTD/svg11.dtd"><svg xmlns="http://www.w3.org/2000/svg" viewBox="0 0 16 16" shape-rendering="geometricPrecision" fill="#000"><defs><mask id="new-path"><rect fill="#fff" width="100%" height="100%"/><polygon points="19.079,1.436 14.165,1.436 12.649,-3.238 11.13,1.436 6.217,1.436 10.192,4.322 8.676,8.995 12.648,6.107 16.62,8.996 15.104,4.322 " fill="#000"/></mask></defs><polygon points="13.928,3.94 16,2.435 13.439,2.435 12.648,0 11.857,2.435 9.295,2.435 11.367,3.94 10.577,6.377 12.648,4.871 14.719,6.377 " fill="#cb1800"/><path mask="url(#new-path)" d="M8.001,1.042c-3.844,0-6.959,3.115-6.959,6.961c0,3.841,3.116,6.954,6.959,6.955 c3.843-0.001,6.956-3.114,6.958-6.955C14.958,4.157,11.844,1.042,8.001,1.042z M11.606,7.918c0,0.354-0.065,0.69-0.159,1.014h2.018 c-0.133,0.778-0.423,1.502-0.842,2.134l-1.449-1.449c-0.331,0.634-0.836,1.153-1.458,1.502l1.44,1.44 c-0.633,0.439-1.361,0.749-2.147,0.895v-2.032c-0.346,0.107-0.706,0.182-1.087,0.182c-0.352,0-0.684-0.064-1.006-0.156v1.996 c-0.776-0.155-1.493-0.474-2.116-0.915l1.38-1.38c-0.627-0.34-1.141-0.852-1.481-1.479L3.35,11.019 c-0.405-0.621-0.686-1.328-0.815-2.088h1.863C4.304,8.608,4.239,8.272,4.239,7.918c0-0.378,0.074-0.736,0.179-1.079H2.576 C2.732,6.11,3.031,5.436,3.442,4.844l1.281,1.28c0.349-0.621,0.869-1.126,1.501-1.457l-1.29-1.29 c0.591-0.392,1.261-0.675,1.982-0.818v1.832c0.322-0.092,0.654-0.156,1.006-0.156c0.381,0,0.741,0.075,1.087,0.182V2.547 c0.73,0.135,1.41,0.412,2.01,0.803L9.673,4.695c0.627,0.342,1.138,0.854,1.478,1.481l1.376-1.376 c0.426,0.602,0.737,1.291,0.897,2.038h-1.997C11.533,7.182,11.606,7.54,11.606,7.918z"/></svg>
