<svg width="16" height="16" xmlns="http://www.w3.org/2000/svg" viewBox="0 0 16 16" shape-rendering="geometricPrecision" fill="#24437c"><defs><mask id="a"><rect fill="#fff" width="100%" height="100%"/><path fill="#000" d="M16.383 1.058l-2.47-2.473-4.51 4.512 4.51 4.506 2.47-2.47-2.035-2.038z"/></mask></defs><path fill="#cb1800" d="M12.935 3.095l2.035-2.037L13.913 0l-3.096 3.097 3.096 3.092 1.057-1.057"/><path mask="url(#a)" d="M8.255 6.028v-.806c0-1.318.144-1.61 1.71-1.61h2.026L12 .994H8.562c-1.913 0-2.85 1.02-2.85 2.983v2.05H4.23v2.618H5.71v6.284l2.497.005c.006-3.073.02-6.29.02-6.29h3.75l.012-2.617H8.255z"/></svg>