<?xml version="1.0"?><!DOCTYPE svg PUBLIC "-//W3C//DTD SVG 1.1//EN" "http://www.w3.org/Graphics/SVG/1.1/DTD/svg11.dtd"><svg xmlns="http://www.w3.org/2000/svg" viewBox="0 0 16 16" shape-rendering="geometricPrecision" fill="#24437c"><defs><mask id="move_left-path"><rect fill="#fff" width="100%" height="100%"/><polygon points="16.383,1.058 13.913,-1.415 9.403,3.097 13.914,7.603 16.383,5.134 14.348,3.095 " fill="#000"/></mask></defs><polygon points="12.935,3.095 14.97,1.058 13.913,0 10.817,3.097 13.913,6.189 14.97,5.133 " fill="#cb1800"/><path mask="url(#move_left-path)" d="M8.255,6.028c0,0,0,0,0-0.806c0-1.318,0.144-1.61,1.711-1.61c0.561,0,1.648,0,2.025,0L12,0.994 c-0.893,0-2.135,0-3.438,0c-1.913,0-2.85,1.02-2.85,2.983c0,0.544,0,1.247,0,2.051c-0.354,0-1.16,0-1.483,0v2.617 c0.431,0,0.96,0,1.483,0c0,1.741,0,4.496,0,6.284l2.497,0.006c0.007-3.073,0.021-6.29,0.021-6.29s2.375,0,3.75,0l0.012-2.617 C10.615,6.028,8.255,6.028,8.255,6.028z"/></svg>
