<svg width="16" height="16" xmlns="http://www.w3.org/2000/svg" viewBox="0 0 16 16" shape-rendering="geometricPrecision" fill="#24437c"><defs><mask id="a"><rect fill="#fff" width="100%" height="100%"/><path fill="#000" d="M16.383 1.058l-2.47-2.473-4.51 4.512 4.51 4.506 2.47-2.47-2.035-2.038z"/></mask></defs><path fill="#cb1800" d="M12.935 3.095l2.035-2.037L13.913 0l-3.096 3.097 3.096 3.092 1.057-1.057"/><path d="M8.01 4.685c-.992-2.585-6.25-2.47-6.002 1.65.087 1.41 1.178 2.59 2.687 3.96 2.26 2.058 3.315 2.755 3.315 2.755s1.05-.697 3.314-2.755c1.505-1.37 2.6-2.55 2.683-3.96C14.254 2.215 9 2.1 8.01 4.685z" mask="url(#a)"/></svg>