<svg width="16" height="16" xmlns="http://www.w3.org/2000/svg" viewBox="0 0 16 16" shape-rendering="geometricPrecision" fill="#24437c"><defs><mask id="a"><rect fill="#fff" width="100%" height="100%"/><path fill="#000" d="M16.383 1.058l-2.47-2.473-4.51 4.512 4.51 4.506 2.47-2.47-2.035-2.038z"/></mask></defs><path fill="#cb1800" d="M12.935 3.095l2.035-2.037L13.913 0l-3.096 3.097 3.096 3.092 1.057-1.057"/><path d="M2.13 11.885V7.242l2.655 2.654 3.757-3.758 1.98 1.98 3.566-3.564-.92-.92-2.645 2.642-1.06-1.06.01-.008-.92-.92-3.77 3.765L2.14 5.41l-.01.01V3.74H1.038v9.242l.797-.002v.002h13.13v-1.095" mask="url(#a)"/></svg>