<?xml version="1.0"?><!DOCTYPE svg PUBLIC "-//W3C//DTD SVG 1.1//EN" "http://www.w3.org/Graphics/SVG/1.1/DTD/svg11.dtd"><svg xmlns="http://www.w3.org/2000/svg" viewBox="0 0 16 16" shape-rendering="geometricPrecision" fill="#24437c"><defs><mask id="move_left-path"><rect fill="#fff" width="100%" height="100%"/><polygon points="16.383,1.058 13.913,-1.415 9.403,3.097 13.914,7.603 16.383,5.134 14.348,3.095 " fill="#000"/></mask></defs><polygon points="12.935,3.095 14.97,1.058 13.913,0 10.817,3.097 13.913,6.189 14.97,5.133 " fill="#cb1800"/><g mask="url(#move_left-path)"><polygon points="2.131,11.885 2.131,7.242 4.785,9.896 8.542,6.138 10.522,8.119 14.088,4.554 13.168,3.635 10.523,6.276 9.463,5.217 9.472,5.208 8.552,4.288 4.784,8.053 2.14,5.411 2.131,5.421 2.131,3.738 1.037,3.738 1.037,12.98 1.834,12.978 1.834,12.98 14.963,12.98 14.963,11.885"/></g></svg>
