<?xml version="1.0"?><!DOCTYPE svg PUBLIC "-//W3C//DTD SVG 1.1//EN" "http://www.w3.org/Graphics/SVG/1.1/DTD/svg11.dtd"><svg xmlns="http://www.w3.org/2000/svg" viewBox="0 0 16 16" shape-rendering="geometricPrecision" fill="#24437c"><defs><mask id="move_left-path"><rect fill="#fff" width="100%" height="100%"/><polygon points="16.383,1.058 13.913,-1.415 9.403,3.097 13.914,7.603 16.383,5.134 14.348,3.095 " fill="#000"/></mask></defs><polygon points="12.935,3.095 14.97,1.058 13.913,0 10.817,3.097 13.913,6.189 14.97,5.133 " fill="#cb1800"/><g mask="url(#move_left-path)"><path d="M1.021,1.02v2.617c3.137,0,5.964,1.267,8.021,3.32c2.054,2.059,3.32,4.885,3.321,8.021h2.617 C14.978,7.27,8.73,1.022,1.021,1.02z M1.021,5.729v2.613c3.664,0.008,6.628,2.973,6.635,6.637h2.616 C10.271,9.87,6.13,5.729,1.021,5.729z M2.9,11.222c-1.039,0-1.879,0.84-1.879,1.877c0,1.039,0.841,1.881,1.879,1.881 c1.038,0,1.878-0.842,1.878-1.881C4.779,12.061,3.938,11.222,2.9,11.222z"/></g></svg>
