<svg width="16" height="16" xmlns="http://www.w3.org/2000/svg" viewBox="0 0 16 16" shape-rendering="geometricPrecision" fill="#24437c"><defs><mask id="a"><rect fill="#fff" width="100%" height="100%"/><path fill="#000" d="M16.383 1.058l-2.47-2.473-4.51 4.512 4.51 4.506 2.47-2.47-2.035-2.038z"/></mask></defs><path fill="#cb1800" d="M12.935 3.095l2.035-2.037L13.913 0l-3.096 3.097 3.096 3.092 1.057-1.057"/><g mask="url(#a)"><path d="M8 3.18C4.53 3.18 1.52 5.135 0 8c1.52 2.866 4.53 4.82 8 4.82 3.47 0 6.48-1.954 8-4.82-1.52-2.866-4.53-4.82-8-4.82zm-.002 9.048c-2.334 0-4.23-1.893-4.23-4.227 0-2.335 1.896-4.228 4.23-4.228 2.336 0 4.23 1.893 4.23 4.23 0 2.333-1.894 4.226-4.23 4.226z"/><path d="M11.792 6.774L10.446 5.43 7.178 8.695l-1.71-1.71-1.344 1.345 3.056 3.056"/></g></svg>