<?xml version="1.0"?><!DOCTYPE svg PUBLIC "-//W3C//DTD SVG 1.1//EN" "http://www.w3.org/Graphics/SVG/1.1/DTD/svg11.dtd"><svg width="16px" height="16px" xmlns="http://www.w3.org/2000/svg" viewBox="0 0 16 16" shape-rendering="geometricPrecision" fill="#6e6e6e"><defs><mask id="move_right-path"><rect fill="#fff" width="100%" height="100%"/><polygon points="11.875,-1.414 9.405,1.056 11.44,3.095 9.405,5.132 11.875,7.604 16.385,3.093 " fill="#000"/></mask></defs><polygon points="11.875,0 10.818,1.057 12.853,3.095 10.818,5.132 11.875,6.189 14.97,3.093 " fill="#cb1800"/><g mask="url(#move_right-path)"><g><g><g><g><path d="M13.658,5.408h-3.342C9.18,5.409,8.463,6.048,8.153,6.926h5.392v0.002c0.004,0,0.006-0.002,0.008-0.002 c0.27,0,0.482,0.479,0.482,1.066c0,0.588-0.213,1.064-0.482,1.064H8.146c0.307,0.888,1.026,1.535,2.171,1.535h3.342 C15.223,10.592,16,9.385,16,8C16.002,6.615,15.225,5.408,13.658,5.408z"/></g></g><g><g><path d="M2.454,9.074V9.072c-0.002,0-0.004,0.002-0.006,0.002c-0.268,0-0.484-0.479-0.484-1.066 c0-0.588,0.217-1.064,0.484-1.064h5.406C7.546,6.056,6.828,5.408,5.684,5.408H2.342C0.78,5.408,0,6.615,0,8 c-0.002,1.385,0.777,2.592,2.342,2.592h3.342c1.135-0.001,1.852-0.64,2.162-1.518H2.454z"/></g></g></g><path d="M11.162,7.201H4.85C4.352,7.201,3.948,7.561,3.948,8c0,0.439,0.404,0.797,0.902,0.797h6.312c0.498,0,0.9-0.357,0.9-0.797 C12.062,7.561,11.66,7.201,11.162,7.201z"/></g></g></svg>