<?xml version="1.0"?><!DOCTYPE svg PUBLIC "-//W3C//DTD SVG 1.1//EN" "http://www.w3.org/Graphics/SVG/1.1/DTD/svg11.dtd"><svg xmlns="http://www.w3.org/2000/svg" viewBox="0 0 16 16" shape-rendering="geometricPrecision" fill="#6e6e6e"><defs><mask id="move_right-path"><rect fill="#fff" width="100%" height="100%"/><polygon points="11.875,-1.414 9.405,1.056 11.44,3.095 9.405,5.132 11.875,7.604 16.385,3.093 " fill="#000"/></mask></defs><polygon points="11.875,0 10.818,1.057 12.853,3.095 10.818,5.132 11.875,6.189 14.97,3.093 " fill="#cb1800"/><g mask="url(#move_right-path)"><g><path d="M8.032,4.168c0.888,0,1.605-0.721,1.605-1.603c0-0.888-0.718-1.605-1.605-1.605c-0.888,0-1.606,0.718-1.606,1.605 C6.425,3.447,7.144,4.168,8.032,4.168z M9.615,13.403V5.812H4.807v1.194h1.576v6.397H4.802v1.591h6.395v-1.591H9.615z"/></g></g></svg>
