<svg width="16" height="16" xmlns="http://www.w3.org/2000/svg" viewBox="0 0 16 16" shape-rendering="geometricPrecision" fill="#6e6e6e"><defs><mask id="a"><rect fill="#fff" width="100%" height="100%"/><path fill="#000" d="M11.875-1.414l-2.47 2.47 2.035 2.04L9.405 5.13l2.47 2.472 4.51-4.51z"/></mask></defs><path fill="#cb1800" d="M11.875 0l-1.057 1.057 2.035 2.038-2.035 2.037 1.057 1.057 3.095-3.097"/><path mask="url(#a)" d="M8.04 1.977c-3.315 0-6 2.687-6 6s2.686 6 6 6c3.313 0 6-2.687 6-6 0-3.314-2.687-6-6-6zm.373 6.606l-1.75-.33-.568 2.07-.708-1.678-1.685 1.377.748-2.044-1.816-.12L4.4 6.645 3.518 5.1l1.75.33.57-2.07.705 1.68L8.23 3.662l-.75 2.043 1.816.12L7.53 7.037l.883 1.546z"/></svg>