<svg width="16" height="16" xmlns="http://www.w3.org/2000/svg" viewBox="0 0 16 16" shape-rendering="geometricPrecision" fill="#6e6e6e"><defs><mask id="a"><rect fill="#fff" width="100%" height="100%"/><path fill="#000" d="M11.875-1.414l-2.47 2.47 2.035 2.04L9.405 5.13l2.47 2.472 4.51-4.51z"/></mask></defs><path fill="#cb1800" d="M11.875 0l-1.057 1.057 2.035 2.038-2.035 2.037 1.057 1.057 3.095-3.097"/><g mask="url(#a)"><path d="M8 3.18C4.53 3.18 1.52 5.135 0 8c1.52 2.866 4.53 4.82 8 4.82 3.47 0 6.48-1.954 8-4.82-1.52-2.866-4.53-4.82-8-4.82zm-.002 9.048c-2.334 0-4.23-1.893-4.23-4.227 0-2.335 1.896-4.228 4.23-4.228 2.336 0 4.23 1.893 4.23 4.23 0 2.333-1.894 4.226-4.23 4.226z"/><path d="M11.792 6.774L10.446 5.43 7.178 8.695l-1.71-1.71-1.344 1.345 3.056 3.056"/></g></svg>