<svg width="16" height="16" xmlns="http://www.w3.org/2000/svg" viewBox="0 0 16 16" shape-rendering="geometricPrecision" fill="#6e6e6e"><defs><mask id="a"><rect fill="#fff" width="100%" height="100%"/><path fill="#000" d="M11.875-1.414l-2.47 2.47 2.035 2.04L9.405 5.13l2.47 2.472 4.51-4.51z"/></mask></defs><path fill="#cb1800" d="M11.875 0l-1.057 1.057 2.035 2.038-2.035 2.037 1.057 1.057 3.095-3.097"/><path d="M12.5 3.976H3.562c-.86 0-1.556.697-1.556 1.556v4.906c0 .86.697 1.556 1.556 1.556H12.5c.86 0 1.556-.697 1.556-1.556V5.532c0-.86-.697-1.556-1.556-1.556zM6.936 10.2V5.937L9.75 8.068 6.936 10.2z" mask="url(#a)"/></svg>