<?xml version="1.0"?><!DOCTYPE svg PUBLIC "-//W3C//DTD SVG 1.1//EN" "http://www.w3.org/Graphics/SVG/1.1/DTD/svg11.dtd"><svg xmlns="http://www.w3.org/2000/svg" viewBox="0 0 16 16" shape-rendering="geometricPrecision" fill="#cb1800"><defs><mask id="accept-path"><rect fill="#fff" width="100%" height="100%"/><polygon points="14.671,-1.414 11.443,1.813 9.753,0.123 7.012,2.866 11.445,7.299 17.414,1.329 " fill="#000"/></mask></defs><polygon points="16,1.33 14.671,0 11.443,3.228 9.753,1.539 8.426,2.867 11.445,5.886 " fill="#cb1800"/><g mask="url(#accept-path)"><path d="M5.971,12.849l1.54-0.579l-1.133-1.008L5.971,12.849z M10.722,5.272V2.403H-0.001V15.94h10.723V9.75 l3.569-4.011L12.07,3.757L10.722,5.272z M9.618,6.514L6.74,9.748l2.221,1.983l0.657-0.739v3.843H1.1V3.505h8.518V6.514z M15.502,2.141c-0.611-0.547-1.546-0.493-2.096,0.113l-0.792,0.889l2.222,1.985l0.796-0.893l-0.002-0.001 C16.168,3.621,16.112,2.684,15.502,2.141z M6.456,7.633H2.533v1.103h3.923V7.633z M4.863,5.291h-2.33v1.102h2.33V5.291z"/></g></svg>
