<?xml version="1.0"?><!DOCTYPE svg PUBLIC "-//W3C//DTD SVG 1.1//EN" "http://www.w3.org/Graphics/SVG/1.1/DTD/svg11.dtd"><svg xmlns="http://www.w3.org/2000/svg" viewBox="0 0 16 16" shape-rendering="geometricPrecision" fill="#cb1800"><defs><mask id="accept-path"><rect fill="#fff" width="100%" height="100%"/><polygon points="14.671,-1.414 11.443,1.813 9.753,0.123 7.012,2.866 11.445,7.299 17.414,1.329 " fill="#000"/></mask></defs><polygon points="16,1.33 14.671,0 11.443,3.228 9.753,1.539 8.426,2.867 11.445,5.886 " fill="#cb1800"/><g mask="url(#accept-path)"><path d="M1.811-0.001v16h12.378v-16H1.811z M13.151,14.961H2.793V1.011h10.357V14.961z"/><path d="M8.067,4.602c0.761,0,1.374-0.616,1.374-1.373c0-0.756-0.613-1.372-1.374-1.372 c-0.757,0-1.372,0.616-1.372,1.372C6.695,3.986,7.31,4.602,8.067,4.602z M9.421,12.498v-6.49H5.312v1.02H6.66v5.471H5.307v1.359 h5.467v-1.359H9.421z"/></g></svg>
