<?xml version="1.0"?><!DOCTYPE svg PUBLIC "-//W3C//DTD SVG 1.1//EN" "http://www.w3.org/Graphics/SVG/1.1/DTD/svg11.dtd"><svg width="16px" height="16px" xmlns="http://www.w3.org/2000/svg" viewBox="0 0 16 16" shape-rendering="geometricPrecision" fill="#cb1800"><defs><mask id="accept-path"><rect fill="#fff" width="100%" height="100%"/><polygon points="14.671,-1.414 11.443,1.813 9.753,0.123 7.012,2.866 11.445,7.299 17.414,1.329 " fill="#000"/></mask></defs><polygon points="16,1.33 14.671,0 11.443,3.228 9.753,1.539 8.426,2.867 11.445,5.886 " fill="#cb1800"/><g mask="url(#accept-path)"><rect x="-1.198" y="7.294" transform="matrix(0.7074 -0.7068 0.7068 0.7074 -3.3129 7.9954)" width="18.398" height="1.409"/><polygon points="7.59,3.71 7.59,5.831 9.714,3.71"/><polygon points="3.289,8.548 3.289,10.126 4.871,8.548"/><polygon points="6.394,12.106 5.784,12.716 6.394,12.716"/><polygon points="10.694,12.716 10.694,7.81 7.59,10.911 7.59,12.716"/><polygon points="3.499,15.001 14.995,15.001 14.995,13.899 4.6,13.899"/><polygon points="11.892,6.612 11.892,12.716 14.995,12.716 14.995,6.435 12.07,6.435"/><polygon points="2.095,11.317 2.096,5.708 0.995,5.708 0.995,12.849 0.997,12.415"/><polygon points="0.995,15.001 1.796,14.999 1.796,15.001 1.991,15.001 0.995,14.005"/></g></svg>