<svg width="16" height="16" xmlns="http://www.w3.org/2000/svg" viewBox="0 0 16 16" shape-rendering="geometricPrecision" fill="#cb1800"><defs><mask id="a"><rect fill="#fff" width="100%" height="100%"/><path fill="#000" d="M14.67-1.414l-3.227 3.227-1.69-1.69-2.74 2.743L11.444 7.3l5.97-5.97z"/></mask></defs><path d="M16 1.33L14.67 0l-3.227 3.228-1.69-1.69-1.327 1.33 3.02 3.018"/><path d="M15.61 3.74c-.907 1.864-2.394 2.55-3.39 2.804.568 1.092.975 2.484 1.15 4.04 1.175-.792 3.57-2.96 2.24-6.845zm-15.22 0C-.938 7.623 1.455 9.79 2.63 10.584c.175-1.557.58-2.95 1.148-4.04-.994-.255-2.48-.94-3.388-2.806zM8 4.086c-2.366 0-4.285 3.66-4.285 8.174h8.57c0-4.513-1.918-8.173-4.284-8.173z" mask="url(#a)"/></svg>