<svg width="16" height="16" xmlns="http://www.w3.org/2000/svg" viewBox="0 0 16 16" shape-rendering="geometricPrecision" fill="#cb1800"><defs><mask id="a"><rect fill="#fff" width="100%" height="100%"/><path fill="#000" d="M14.67-1.414l-3.227 3.227-1.69-1.69-2.74 2.743L11.444 7.3l5.97-5.97z"/></mask></defs><path d="M16 1.33L14.67 0l-3.227 3.228-1.69-1.69-1.327 1.33 3.02 3.018"/><path d="M12.5 3.976H3.562c-.86 0-1.556.697-1.556 1.556v4.906c0 .86.697 1.556 1.556 1.556H12.5c.86 0 1.556-.697 1.556-1.556V5.532c0-.86-.697-1.556-1.556-1.556zM6.936 10.2V5.937L9.75 8.068 6.936 10.2z" mask="url(#a)"/></svg>