<svg width="16" height="16" xmlns="http://www.w3.org/2000/svg" viewBox="0 0 16 16" shape-rendering="geometricPrecision" fill="#24437c"><defs><mask id="a"><rect fill="#fff" width="100%" height="100%"/><path d="M12.997.858c-1.845 0-3.446 1.04-4.253 2.563.808 1.524 2.408 2.563 4.253 2.563 1.844 0 3.444-1.04 4.253-2.562C16.44 1.898 14.84.86 12.997.86z" fill="#000"/></mask></defs><path d="M12.97 1.607c-1.314 0-2.453.74-3.028 1.825.575 1.085 1.715 1.825 3.03 1.825 1.313 0 2.452-.74 3.028-1.825-.576-1.084-1.716-1.825-3.03-1.825z" fill="#cb1800"/><g mask="url(#a)"><path d="M1.935 1.982V14h3.03V1.982h-3.03zM3.45 12.028c-.51 0-.923-.413-.923-.923 0-.512.413-.925.924-.925.51 0 .924.413.924.925 0 .51-.414.923-.923.923zM5.993 1.982V14h3.03V1.982h-3.03zm1.515 10.046c-.51 0-.924-.412-.924-.922 0-.512.413-.923.924-.923.51 0 .922.41.922.923 0 .51-.412.922-.922.922zM10 1.982V14h3.077V1.982H10zM11.54 12c-.52 0-.938-.42-.938-.938 0-.52.42-.938.938-.938s.937.42.937.938-.42.937-.937.937z"/></g></svg>