<svg width="16" height="16" xmlns="http://www.w3.org/2000/svg" viewBox="0 0 16 16" shape-rendering="geometricPrecision" fill="#24437c"><defs><mask id="a"><rect fill="#fff" width="100%" height="100%"/><path d="M12.997.858c-1.845 0-3.446 1.04-4.253 2.563.808 1.524 2.408 2.563 4.253 2.563 1.844 0 3.444-1.04 4.253-2.562C16.44 1.898 14.84.86 12.997.86z" fill="#000"/></mask></defs><path d="M12.97 1.607c-1.314 0-2.453.74-3.028 1.825.575 1.085 1.715 1.825 3.03 1.825 1.313 0 2.452-.74 3.028-1.825-.576-1.084-1.716-1.825-3.03-1.825z" fill="#cb1800"/><path d="M8 .973c-3.865 0-6.997 3.133-6.997 7 0 3.862 3.132 6.992 6.996 6.994 3.864-.002 6.997-3.132 6.997-6.994 0-3.868-3.133-7-6.998-7zm1.026 2.663L8.74 9.48H7.27l-.296-5.844h2.052zm-1.02 8.837h-.013c-.683 0-1.147-.5-1.147-1.172 0-.684.477-1.174 1.16-1.174.686 0 1.138.49 1.148 1.175 0 .672-.45 1.173-1.15 1.173z" mask="url(#a)"/></svg>