<svg width="16" height="16" xmlns="http://www.w3.org/2000/svg" viewBox="0 0 16 16" shape-rendering="geometricPrecision" fill="#24437c"><defs><mask id="a"><rect fill="#fff" width="100%" height="100%"/><path d="M12.997.858c-1.845 0-3.446 1.04-4.253 2.563.808 1.524 2.408 2.563 4.253 2.563 1.844 0 3.444-1.04 4.253-2.562C16.44 1.898 14.84.86 12.997.86z" fill="#000"/></mask></defs><path d="M12.97 1.607c-1.314 0-2.453.74-3.028 1.825.575 1.085 1.715 1.825 3.03 1.825 1.313 0 2.452-.74 3.028-1.825-.576-1.084-1.716-1.825-3.03-1.825z" fill="#cb1800"/><g mask="url(#a)"><path d="M1.53.555h4.392v4.392H1.53zM9.948 1.278v2.918H7.032V1.278h2.916m.74-.74H6.292v4.394h4.394V.54zM14.73 1.278v2.918h-2.916V1.278h2.916m.738-.74h-4.392v4.394h4.392V.54zM5.185 6.063v2.914H2.27V6.063h2.915m.737-.74H1.53v4.394h4.392V5.323zM6.293 5.31h4.394v4.393H6.293zM11.077 5.31h4.392v4.393h-4.393zM1.53 10.007h4.392V14.4H1.53zM6.293 9.99h4.394v4.395H6.293zM14.73 10.73v2.917h-2.916V10.73h2.916m.738-.74h-4.392v4.395h4.392V9.99z"/></g></svg>