<svg width="16" height="16" xmlns="http://www.w3.org/2000/svg" viewBox="0 0 16 16" shape-rendering="geometricPrecision"><defs><mask id="a"><rect fill="#fff" width="100%" height="100%"/><path d="M11.875-1.414l-2.47 2.47 2.035 2.04L9.405 5.13l2.47 2.472 4.51-4.51z"/></mask></defs><path fill="#cb1800" d="M11.875 0l-1.057 1.057 2.035 2.038-2.035 2.037 1.057 1.057 3.095-3.097"/><g mask="url(#a)"><path d="M8 3.007L.7 5.59l3.153 1.7 4-1.688.663.303L4.52 7.65 8 9.525l7.3-3.933M3.336 7.813l-1.692.602 1.447.78.246.132"/><path d="M12.66 7.813L8 10.325 4.997 8.708v1.514l3 1.617 4.693-2.53 1.666-.895M3.9 12.542l.607.45v-5.33L3.9 7.297"/></g></svg>