<?xml version="1.0"?><!DOCTYPE svg PUBLIC "-//W3C//DTD SVG 1.1//EN" "http://www.w3.org/Graphics/SVG/1.1/DTD/svg11.dtd"><svg xmlns="http://www.w3.org/2000/svg" viewBox="0 0 16 16" shape-rendering="geometricPrecision" fill="#000"><defs><mask id="move_right-path"><rect fill="#fff" width="100%" height="100%"/><polygon points="11.875,-1.414 9.405,1.056 11.44,3.095 9.405,5.132 11.875,7.604 16.385,3.093 " fill="#000"/></mask></defs><polygon points="11.875,0 10.818,1.057 12.853,3.095 10.818,5.132 11.875,6.189 14.97,3.093 " fill="#cb1800"/><path mask="url(#move_right-path)" d="M10.28,0L8.324,1.954l2.182,2.183H9.883L9.467,4.158C4.211,4.38,0,8.712,0,14.02v0.63h2.994v-0.63 c0-1.839,0.717-3.569,2.017-4.872c1.302-1.301,3.033-2.018,4.873-2.018h0.629V7.129h0.167L8.324,9.487l1.954,1.953L16,5.717 L10.28,0z"/></svg>
