<svg width="16" height="16" xmlns="http://www.w3.org/2000/svg" viewBox="0 0 16 16" shape-rendering="geometricPrecision"><defs><mask id="a"><rect fill="#fff" width="100%" height="100%"/><path d="M11.875-1.414l-2.47 2.47 2.035 2.04L9.405 5.13l2.47 2.472 4.51-4.51z"/></mask></defs><path fill="#cb1800" d="M11.875 0l-1.057 1.057 2.035 2.038-2.035 2.037 1.057 1.057 3.095-3.097"/><g mask="url(#a)"><path d="M12.99 8.003c0 2.754-2.234 4.99-4.99 4.99-2.757 0-4.99-2.236-4.99-4.99C3.006 5.246 5.24 3.01 7.997 3.01V.893C4.073.895.89 4.08.89 8.003c0 3.92 3.183 7.104 7.107 7.104 3.92 0 7.107-3.184 7.107-7.104H12.99z"/><path d="M8.94 7.062l.002 3.916h2.035l-.002-5.956-5.95.002-.002 2.035"/></g></svg>