<?xml version="1.0"?><!DOCTYPE svg PUBLIC "-//W3C//DTD SVG 1.1//EN" "http://www.w3.org/Graphics/SVG/1.1/DTD/svg11.dtd"><svg xmlns="http://www.w3.org/2000/svg" viewBox="0 0 16 16" shape-rendering="geometricPrecision" fill="#000"><defs><mask id="move_right-path"><rect fill="#fff" width="100%" height="100%"/><polygon points="11.875,-1.414 9.405,1.056 11.44,3.095 9.405,5.132 11.875,7.604 16.385,3.093 " fill="#000"/></mask></defs><polygon points="11.875,0 10.818,1.057 12.853,3.095 10.818,5.132 11.875,6.189 14.97,3.093 " fill="#cb1800"/><g mask="url(#move_right-path)"><g><path d="M2.271,0.963v13.971H13.73V0.963H2.271z M8.016,2.596c1.475,0,2.665,1.194,2.665,2.665c0,1.477-1.19,2.666-2.665,2.666 c-1.471,0-2.667-1.189-2.667-2.666C5.349,3.79,6.545,2.596,8.016,2.596z M12.549,14.093H3.484v-2.996 c0-1.268,1.032-2.306,2.301-2.306h4.457c1.268,0,2.308,1.038,2.308,2.306V14.093z"/></g></g></svg>
