<svg width="16" height="16" xmlns="http://www.w3.org/2000/svg" viewBox="0 0 16 16" shape-rendering="geometricPrecision"><defs><mask id="a"><rect fill="#fff" width="100%" height="100%"/><path d="M11.875-1.414l-2.47 2.47 2.035 2.04L9.405 5.13l2.47 2.472 4.51-4.51z"/></mask></defs><path fill="#cb1800" d="M11.875 0l-1.057 1.057 2.035 2.038-2.035 2.037 1.057 1.057 3.095-3.097"/><path d="M15.432 12.94l-3.595-3.593-.356-.356c1.228-2.3.902-5.214-1.038-7.156-2.378-2.374-6.23-2.374-8.61.003-2.375 2.378-2.373 6.23.003 8.605 1.94 1.94 4.855 2.267 7.158 1.037l3.952 3.95c.686.688 1.8.688 2.486 0 .69-.686.69-1.8.002-2.49zM3.104 9.17c-1.672-1.673-1.676-4.39 0-6.062 1.675-1.68 4.39-1.677 6.065-.005 1.675 1.677 1.673 4.39 0 6.066-1.677 1.675-4.392 1.675-6.066 0z" mask="url(#a)"/></svg>