<?xml version="1.0"?><!DOCTYPE svg PUBLIC "-//W3C//DTD SVG 1.1//EN" "http://www.w3.org/Graphics/SVG/1.1/DTD/svg11.dtd"><svg width="16px" height="16px" xmlns="http://www.w3.org/2000/svg" viewBox="0 0 16 16" shape-rendering="geometricPrecision" fill="#000"><defs><mask id="move_right-path"><rect fill="#fff" width="100%" height="100%"/><polygon points="11.875,-1.414 9.405,1.056 11.44,3.095 9.405,5.132 11.875,7.604 16.385,3.093 " fill="#000"/></mask></defs><polygon points="11.875,0 10.818,1.057 12.853,3.095 10.818,5.132 11.875,6.189 14.97,3.093 " fill="#cb1800"/><g mask="url(#move_right-path)"><path d="M13.997,2.942v9.965H2.958V2.942H13.997 M14.997,1.942H1.958v11.965h13.039V1.942L14.997,1.942z"/><rect x="1.958" y="4.06" width="13.054" height="1.064"/><rect x="5.871" y="4.06" width="1.064" height="9.576"/><rect x="10.102" y="4.06" width="1.064" height="9.576"/><rect x="3.985" y="5.89" width="1.106" height="1.106"/><rect x="3.985" y="10.89" width="1.106" height="1.106"/><rect x="7.932" y="8.849" width="1.106" height="1.106"/><rect x="7.932" y="6.996" width="1.106" height="1.106"/><rect x="11.942" y="9.955" width="1.106" height="1.106"/><rect x="11.942" y="8" width="1.106" height="1.106"/></g></svg>