<svg width="16" height="16" xmlns="http://www.w3.org/2000/svg" viewBox="0 0 16 16" shape-rendering="geometricPrecision" fill="#24437c"><defs><mask id="a"><rect fill="#fff" width="100%" height="100%"/><path d="M13.848-1.1L12.05.695l.287.287c-1.812.575-3.107 2.263-3.107 4.254v.987h2.626v-.988c0-.49.19-.954.538-1.302l.03-.03 1.425 1.42 3.21-3.212L13.85-1.1z" fill="#000"/></mask></defs><path d="M13.848-.04l-.736.735.82.82H13.7l-.157.01c-1.978.083-3.563 1.713-3.563 3.71v.237h1.126v-.237c0-.69.27-1.343.76-1.833s1.14-.76 1.832-.76h.3l-.886.888.735.734L16 2.11 13.848-.04z" fill="#cb1800"/><path d="M11.985 3.584H2.12C.952 3.584 0 4.538 0 5.704v5.502c0 1.166.953 2.12 2.12 2.12h.987c.023.76-.2 1.757-1.224 2.673 2.905-.452 4.517-2.538 4.62-2.675h5.482c1.166 0 2.12-.953 2.12-2.12V5.704c0-1.165-.954-2.12-2.12-2.12zm-.404 6.188H2.65V8.528h8.93v1.244zm0-2.578H2.65V5.948h8.93v1.246zm2.306-5.506H4.02c-.83 0-1.543.487-1.892 1.183.287-.144.604-.23.946-.23h9.867c1.166 0 2.12.95 2.12 2.116v5.505c0 .336-.087.65-.226.934.69-.35 1.17-1.06 1.17-1.883V3.808c0-1.165-.952-2.12-2.118-2.12z" mask="url(#a)"/></svg>