<svg width="16" height="16" xmlns="http://www.w3.org/2000/svg" viewBox="0 0 16 16" shape-rendering="geometricPrecision" fill="#24437c"><defs><mask id="a"><rect fill="#fff" width="100%" height="100%"/><path d="M13.848-1.1L12.05.695l.287.287c-1.812.575-3.107 2.263-3.107 4.254v.987h2.626v-.988c0-.49.19-.954.538-1.302l.03-.03 1.425 1.42 3.21-3.212L13.85-1.1z" fill="#000"/></mask></defs><path d="M13.848-.04l-.736.735.82.82H13.7l-.157.01c-1.978.083-3.563 1.713-3.563 3.71v.237h1.126v-.237c0-.69.27-1.343.76-1.833s1.14-.76 1.832-.76h.3l-.886.888.735.734L16 2.11 13.848-.04z" fill="#cb1800"/><g mask="url(#a)"><path d="M14.186 9.847c0 .756-.626 1.38-1.38 1.384h-5.68l-.205.272c-.035.055-.852 1.103-2.305 1.798.166-.458.23-.9.225-1.29 0-.026 0-.065-.002-.118l-.018-.662H3.195c-.755-.003-1.38-.628-1.38-1.384V4.49c0-.76.625-1.383 1.38-1.385h9.61c.755.002 1.38.625 1.38 1.384v5.357z"/><path d="M12.455 2.215h-8.91C2.14 2.215 1.002 3.355 1 4.76v4.968c.002 1.402 1.142 2.543 2.545 2.544h.198c-.097.406-.327.85-.833 1.312L1.333 15l2.097-.32c2.375-.377 3.844-1.81 4.372-2.408h4.654C13.86 12.272 15 11.13 15 9.728V4.76c-.002-1.405-1.14-2.545-2.545-2.545zm1.28 7.513c0 .7-.58 1.28-1.28 1.28H7.19l-.19.254c-.033.05-.79 1.02-2.137 1.666.153-.425.21-.836.208-1.194v-.11l-.018-.614H3.545c-.7 0-1.28-.58-1.28-1.28V4.76c0-.703.58-1.28 1.28-1.282h8.91c.7.002 1.28.58 1.28 1.282v4.968z"/></g></svg>