<svg width="16" height="16" xmlns="http://www.w3.org/2000/svg" viewBox="0 0 16 16" shape-rendering="geometricPrecision" fill="#24437c"><defs><mask id="a"><rect fill="#fff" width="100%" height="100%"/><path d="M13.848-1.1L12.05.695l.287.287c-1.812.575-3.107 2.263-3.107 4.254v.987h2.626v-.988c0-.49.19-.954.538-1.302l.03-.03 1.425 1.42 3.21-3.212L13.85-1.1z" fill="#000"/></mask></defs><path d="M13.848-.04l-.736.735.82.82H13.7l-.157.01c-1.978.083-3.563 1.713-3.563 3.71v.237h1.126v-.237c0-.69.27-1.343.76-1.833s1.14-.76 1.832-.76h.3l-.886.888.735.734L16 2.11 13.848-.04z" fill="#cb1800"/><path d="M7.468 11.335c-1.04 0-1.782.742-1.782 1.824 0 1.04.722 1.82 1.763 1.82h.02c1.082 0 1.804-.78 1.804-1.82-.02-1.083-.723-1.825-1.806-1.825zm.28-10.317c-1.42 0-2.603.4-3.344.822l.68 2.182c.52-.36 1.323-.6 1.984-.6 1.002.04 1.463.5 1.463 1.203 0 .68-.52 1.32-1.16 2.102-.902 1.063-1.243 2.106-1.182 3.126l.02.52h2.664v-.36c-.02-.9.28-1.682 1.02-2.504.763-.84 1.703-1.843 1.703-3.366 0-1.663-1.2-3.126-3.846-3.126z" mask="url(#a)"/></svg>