<svg width="16" height="16" xmlns="http://www.w3.org/2000/svg" viewBox="0 0 16 16" shape-rendering="geometricPrecision" fill="#24437c"><defs><mask id="a"><rect fill="#fff" width="100%" height="100%"/><path d="M13.848-1.1L12.05.695l.287.287c-1.812.575-3.107 2.263-3.107 4.254v.987h2.626v-.988c0-.49.19-.954.538-1.302l.03-.03 1.425 1.42 3.21-3.212L13.85-1.1z" fill="#000"/></mask></defs><path d="M13.848-.04l-.736.735.82.82H13.7l-.157.01c-1.978.083-3.563 1.713-3.563 3.71v.237h1.126v-.237c0-.69.27-1.343.76-1.833s1.14-.76 1.832-.76h.3l-.886.888.735.734L16 2.11 13.848-.04z" fill="#cb1800"/><path mask="url(#a)" d="M13.053 8.004c.064-.324.1-.657.1-1 0-2.86-2.317-5.18-5.18-5.18-2.856 0-5.177 2.32-5.177 5.178h1.54C4.34 4.995 5.97 3.365 7.975 3.365c2.01 0 3.64 1.63 3.64 3.64 0 .35-.066.68-.158 1h-1.82c.177-.294.285-.634.285-1 0-1.075-.872-1.947-1.946-1.947S6.03 5.93 6.03 7.004c0 .367.107.707.284 1H.958v5.482h14.084V8.004h-1.99zm-1.676 2.74H4.622v-1.46h6.755v1.46z"/></svg>