<svg width="16" height="16" xmlns="http://www.w3.org/2000/svg" viewBox="0 0 16 16" shape-rendering="geometricPrecision" fill="#24437c"><defs><mask id="a"><rect fill="#fff" width="100%" height="100%"/><path d="M13.848-1.1L12.05.695l.287.287c-1.812.575-3.107 2.263-3.107 4.254v.987h2.626v-.988c0-.49.19-.954.538-1.302l.03-.03 1.425 1.42 3.21-3.212L13.85-1.1z" fill="#000"/></mask></defs><path d="M13.848-.04l-.736.735.82.82H13.7l-.157.01c-1.978.083-3.563 1.713-3.563 3.71v.237h1.126v-.237c0-.69.27-1.343.76-1.833s1.14-.76 1.832-.76h.3l-.886.888.735.734L16 2.11 13.848-.04z" fill="#cb1800"/><g mask="url(#a)"><path d="M14.94 10.55c-.202-.565-.823-.86-1.388-.66l-2.98 1.023L6.58 9.29l2.545-.34c.584-.073.998-.605.924-1.19-.075-.583-.607-.997-1.19-.924l-5.797.73c-.163.022-.31.082-.44.165-.16.065-.296.193-.36.367l-.054.14c-.015.036-.03.07-.04.107l-1.132 3.018c-.07.19-.044.39.054.552.264.58 1.506 1.4 2.652 1.83l2.754.512c.192.03.363.04.538.03.17.026.35.016.524-.046l.448-.154.376-.116c1.504-.48 3.18-1.067 3.81-1.314.008-.003.012-.008.02-.01l2.066-.71c.565-.2.86-.82.66-1.386z"/><path d="M8.568 1.7C6.023 1.7 3.96 3.76 3.96 6.306c0 .18.013.358.033.534l.925-.116c-.02-.15-.032-.304-.032-.46 0-2.035 1.65-3.685 3.684-3.685 2.034 0 3.684 1.648 3.684 3.683 0 1.594-1.015 2.948-2.432 3.46l.83.523.62-.213c1.152-.838 1.905-2.192 1.905-3.726 0-2.545-2.064-4.608-4.61-4.608z"/></g></svg>