<svg width="16" height="16" xmlns="http://www.w3.org/2000/svg" viewBox="0 0 16 16" shape-rendering="geometricPrecision"><defs><mask id="a"><rect fill="#fff" width="100%" height="100%"/><path d="M13.848-1.1L12.05.695l.287.287c-1.812.575-3.107 2.263-3.107 4.254v.987h2.626v-.988c0-.49.19-.954.538-1.302l.03-.03 1.425 1.42 3.21-3.212L13.85-1.1z"/></mask></defs><path d="M13.848-.04l-.736.735.82.82H13.7l-.157.01c-1.978.083-3.563 1.713-3.563 3.71v.237h1.126v-.237c0-.69.27-1.343.76-1.833s1.14-.76 1.832-.76h.3l-.886.888.735.734L16 2.11 13.848-.04z" fill="#cb1800"/><g mask="url(#a)"><circle cx="11.279" cy="12.205" r=".769"/><circle cx="11.279" cy="7.938" r=".769"/><path d="M2.042.948V14.93h11.94V.947H2.04zm10.812 12.854H3.17v-3.138h9.683v3.138zm0-4.323H3.17V6.396h9.683V9.48zM3.17 5.212V2.077h9.683v3.136H3.17z"/><circle cx="11.279" cy="3.672" r=".769"/></g></svg>