<svg width="16" height="16" xmlns="http://www.w3.org/2000/svg" viewBox="0 0 16 16" shape-rendering="geometricPrecision"><defs><mask id="a"><rect fill="#fff" width="100%" height="100%"/><path d="M13.848-1.1L12.05.695l.287.287c-1.812.575-3.107 2.263-3.107 4.254v.987h2.626v-.988c0-.49.19-.954.538-1.302l.03-.03 1.425 1.42 3.21-3.212L13.85-1.1z"/></mask></defs><path d="M13.848-.04l-.736.735.82.82H13.7l-.157.01c-1.978.083-3.563 1.713-3.563 3.71v.237h1.126v-.237c0-.69.27-1.343.76-1.833s1.14-.76 1.832-.76h.3l-.886.888.735.734L16 2.11 13.848-.04z" fill="#cb1800"/><g mask="url(#a)"><path d="M1.935 1.982V14h3.03V1.982h-3.03zM3.45 12.028c-.51 0-.923-.413-.923-.923 0-.512.413-.925.924-.925.51 0 .924.413.924.925 0 .51-.414.923-.923.923zM5.993 1.982V14h3.03V1.982h-3.03zm1.515 10.046c-.51 0-.924-.412-.924-.922 0-.512.413-.923.924-.923.51 0 .922.41.922.923 0 .51-.412.922-.922.922zM10 1.982V14h3.077V1.982H10zM11.54 12c-.52 0-.938-.42-.938-.938 0-.52.42-.938.938-.938s.937.42.937.938-.42.937-.937.937z"/></g></svg>