<svg width="16" height="16" xmlns="http://www.w3.org/2000/svg" viewBox="0 0 16 16" shape-rendering="geometricPrecision"><defs><mask id="a"><rect fill="#fff" width="100%" height="100%"/><path d="M13.848-1.1L12.05.695l.287.287c-1.812.575-3.107 2.263-3.107 4.254v.987h2.626v-.988c0-.49.19-.954.538-1.302l.03-.03 1.425 1.42 3.21-3.212L13.85-1.1z"/></mask></defs><path d="M13.848-.04l-.736.735.82.82H13.7l-.157.01c-1.978.083-3.563 1.713-3.563 3.71v.237h1.126v-.237c0-.69.27-1.343.76-1.833s1.14-.76 1.832-.76h.3l-.886.888.735.734L16 2.11 13.848-.04z" fill="#cb1800"/><g mask="url(#a)"><path d="M1.06 3.2v2.776c0 .59.48 1.07 1.07 1.07h2.767c.052.07.866 1.123 2.333 1.35-.516-.46-.63-.965-.618-1.35h.5c.587 0 1.068-.48 1.068-1.07V3.2c0-.59-.48-1.07-1.07-1.07H2.13c-.59 0-1.07.48-1.07 1.07zm1.273 1.425h4.51v.63h-4.51v-.63zm0-1.303h4.51v.63h-4.51v-.63zM13.15 6.007c0-1.177-.954-2.13-2.13-2.13-1.18 0-2.13.953-2.13 2.13 0 1.178.95 2.13 2.13 2.13 1.176 0 2.13-.952 2.13-2.13zM6.987 11.2v2.67h8.067V11.2c0-1.128-.918-2.052-2.047-2.052H9.04c-1.127 0-2.053.924-2.053 2.053z"/></g></svg>