<svg width="16" height="16" xmlns="http://www.w3.org/2000/svg" viewBox="0 0 16 16" shape-rendering="geometricPrecision"><defs><mask id="a"><rect fill="#fff" width="100%" height="100%"/><path d="M13.848-1.1L12.05.695l.287.287c-1.812.575-3.107 2.263-3.107 4.254v.987h2.626v-.988c0-.49.19-.954.538-1.302l.03-.03 1.425 1.42 3.21-3.212L13.85-1.1z"/></mask></defs><path d="M13.848-.04l-.736.735.82.82H13.7l-.157.01c-1.978.083-3.563 1.713-3.563 3.71v.237h1.126v-.237c0-.69.27-1.343.76-1.833s1.14-.76 1.832-.76h.3l-.886.888.735.734L16 2.11 13.848-.04z" fill="#cb1800"/><g mask="url(#a)"><path d="M8 5.2c1.547 0 2.8 1.254 2.8 2.802 0 1.537-1.24 2.783-2.776 2.796v1.4c2.31-.012 4.177-1.887 4.177-4.196 0-2.32-1.88-4.2-4.2-4.2S3.8 5.68 3.8 8v.01h1.4L5.197 8C5.198 6.454 6.453 5.2 8 5.2zM8 .998c-3.867 0-7 3.135-7 7.004v.01h1.4V8C2.4 4.907 4.907 2.4 8 2.4c3.094 0 5.602 2.507 5.602 5.602 0 3.083-2.495 5.586-5.577 5.6V15c3.855-.014 6.978-3.143 6.978-7 0-3.87-3.136-7.004-7.003-7.004z"/><circle cx="4.598" cy="11.221" r="2.106"/></g></svg>