<svg width="16" height="16" xmlns="http://www.w3.org/2000/svg" viewBox="0 0 16 16" shape-rendering="geometricPrecision"><defs><mask id="a"><rect fill="#fff" width="100%" height="100%"/><path d="M13.848-1.1L12.05.695l.287.287c-1.812.575-3.107 2.263-3.107 4.254v.987h2.626v-.988c0-.49.19-.954.538-1.302l.03-.03 1.425 1.42 3.21-3.212L13.85-1.1z"/></mask></defs><path d="M13.848-.04l-.736.735.82.82H13.7l-.157.01c-1.978.083-3.563 1.713-3.563 3.71v.237h1.126v-.237c0-.69.27-1.343.76-1.833s1.14-.76 1.832-.76h.3l-.886.888.735.734L16 2.11 13.848-.04z" fill="#cb1800"/><g mask="url(#a)"><path d="M13.997 2.942v9.965H2.957V2.942h11.04m1-1H1.957v11.965h13.04V1.942z"/><path d="M1.958 4.06h13.054v1.065H1.958z"/><path d="M5.87 4.06h1.065v9.577H5.87zM10.102 4.06h1.064v9.577h-1.064zM3.985 5.89H5.09v1.106H3.986zM3.985 10.89H5.09v1.106H3.986zM7.932 8.85h1.106v1.105H7.932zM7.932 6.996h1.106v1.106H7.932zM11.942 9.955h1.106v1.106h-1.106zM11.942 8h1.106v1.106h-1.106z"/></g></svg>