<svg width="16" height="16" xmlns="http://www.w3.org/2000/svg" viewBox="0 0 16 16" shape-rendering="geometricPrecision" fill="#00962d"><defs><mask id="a"><rect fill="#fff" width="100%" height="100%"/><path d="M16.45 1.534c.092-.364-.003-.77-.287-1.066l-.58-.58c-.286-.288-.692-.384-1.065-.29-.194-.328-.552-.55-.962-.552h-.82c-.41 0-.77.223-.963.554-.38-.106-.813.038-1.062.288l-.575.58c-.29.286-.386.697-.292 1.066-.33.194-.55.553-.55.962v.82c0 .41.22.767.548.96-.023.094-.034.19-.034.286.002.263.14.595.325.78l.58.582c.25.248.68.393 1.063.287.194.333.555.556.963.556h.82c.298 0 .588-.12.796-.333.06-.06.112-.134.158-.216.098.025.2.03.3.036.26-.004.588-.144.77-.328l.57-.572c.216-.21.338-.503.336-.803 0-.085-.016-.178-.042-.27.333-.194.556-.553.556-.965v-.82c0-.41-.22-.767-.55-.96z" fill="#000"/></mask></defs><path d="M15.884 2.38h-.177v-.004c-.212.008-.415-.118-.5-.325-.085-.206-.03-.438.123-.585l.126-.126c.044-.045.044-.12 0-.166l-.58-.58c-.045-.046-.118-.046-.165 0l-.124.126c-.147.152-.378.21-.586.12-.206-.086-.332-.288-.326-.5V.163c0-.065-.053-.117-.118-.117h-.82c-.062 0-.116.053-.115.117V.34c.006.213-.118.415-.325.502-.208.086-.44.03-.585-.122l-.126-.126c-.045-.045-.12-.045-.165 0l-.58.58c-.044.046-.044.12 0 .165l.124.126c.154.148.21.38.124.586-.086.207-.29.333-.5.325l-.178.003c-.065 0-.117.053-.117.117v.82c0 .064.052.117.117.117h.178l-.002.002c.212-.008.415.118.5.325.086.21.03.44-.122.586l-.125.128c-.045.044-.045.12 0 .163l.578.58c.045.046.12.046.165 0l.127-.124c.146-.153.377-.208.585-.123.207.088.33.29.326.502l.003.177h-.002c.002.065.054.116.117.116h.82c.064 0 .117-.05.117-.117V5.47c-.006-.212.12-.414.326-.502.208-.085.44-.03.586.123l.124.126c.046.045.12.045.165 0l.58-.58c.046-.046.046-.12 0-.164l-.125-.13c-.153-.146-.208-.377-.122-.585.085-.206.288-.332.5-.324l.176-.004c.063 0 .116-.053.116-.117v-.82c0-.064-.053-.116-.116-.116zm-2.738 1.53c-.553 0-1-.45-1-1.004s.447-1.005 1-1.005c.553 0 1.002.45 1.002 1.006S13.7 3.91 13.146 3.91z" fill="#cb1800"/><g mask="url(#a)"><path d="M15.002 12.385H.998v.83h.85l.65.804h11.08l.65-.806H15M7.325 8.637c-.804-.537-1.6-.875-2.117-.797l-1.04-.862c.15-.19.124-.472-.064-.625-.192-.16-.475-.13-.633.058-.106.132-.122.305-.062.45-.157-.028-.324.018-.432.15-.157.19-.13.472.06.63.184.153.45.13.61-.04l1.027.848c-.004.52.49 1.252 1.173 1.976.87.922 1.854 1.393 2.524.582.65-.785.03-1.656-1.045-2.37z"/><path d="M9.77 8.43c1.32 0 2.398.926 2.398 2.064 0 1.14-1.075 2.066-2.397 2.066-2.07 0-5.646-.486-6.204-1.09-.01-.027-.013-.084.042-.197.224-.478 1.062-1.12 2.175-1.375.304-.067.607-.103.904-.103.062 0 .124.002.186.005l.552.027.33-.444c.445-.598 1.2-.953 2.016-.953m0-1.036c-1.186 0-2.23.545-2.846 1.37-.077 0-.157-.004-.237-.004-.365 0-.747.043-1.134.13-1.89.43-3.495 1.896-2.902 3.07.706 1.396 6.388 1.636 7.122 1.636 1.897 0 3.432-1.39 3.432-3.102 0-1.713-1.537-3.1-3.433-3.1zM8.25 6.97l-.377-.36c.03-.028.732-.82-.033-2.096-.817-1.364-.023-2.487.012-2.534l.42.3c-.026.038-.626.905.01 1.967.973 1.624.01 2.677-.033 2.722z"/><path d="M7.214 6.97l-.377-.36c.03-.028.733-.82-.033-2.094-.816-1.366-.022-2.49.013-2.536l.42.3c-.027.038-.625.905.01 1.967.973 1.624.008 2.677-.033 2.722zM9.284 6.97l-.376-.36c.027-.028.73-.82-.033-2.097-.817-1.363-.023-2.486.012-2.533l.418.3c-.026.038-.623.905.013 1.967.973 1.624.008 2.677-.034 2.722z"/></g></svg>