<svg width="16" height="16" xmlns="http://www.w3.org/2000/svg" viewBox="0 0 16 16" shape-rendering="geometricPrecision" fill="#00962d"><defs><mask id="a"><rect fill="#fff" width="100%" height="100%"/><path d="M16.45 1.534c.092-.364-.003-.77-.287-1.066l-.58-.58c-.286-.288-.692-.384-1.065-.29-.194-.328-.552-.55-.962-.552h-.82c-.41 0-.77.223-.963.554-.38-.106-.813.038-1.062.288l-.575.58c-.29.286-.386.697-.292 1.066-.33.194-.55.553-.55.962v.82c0 .41.22.767.548.96-.023.094-.034.19-.034.286.002.263.14.595.325.78l.58.582c.25.248.68.393 1.063.287.194.333.555.556.963.556h.82c.298 0 .588-.12.796-.333.06-.06.112-.134.158-.216.098.025.2.03.3.036.26-.004.588-.144.77-.328l.57-.572c.216-.21.338-.503.336-.803 0-.085-.016-.178-.042-.27.333-.194.556-.553.556-.965v-.82c0-.41-.22-.767-.55-.96z" fill="#000"/></mask></defs><path d="M15.884 2.38h-.177v-.004c-.212.008-.415-.118-.5-.325-.085-.206-.03-.438.123-.585l.126-.126c.044-.045.044-.12 0-.166l-.58-.58c-.045-.046-.118-.046-.165 0l-.124.126c-.147.152-.378.21-.586.12-.206-.086-.332-.288-.326-.5V.163c0-.065-.053-.117-.118-.117h-.82c-.062 0-.116.053-.115.117V.34c.006.213-.118.415-.325.502-.208.086-.44.03-.585-.122l-.126-.126c-.045-.045-.12-.045-.165 0l-.58.58c-.044.046-.044.12 0 .165l.124.126c.154.148.21.38.124.586-.086.207-.29.333-.5.325l-.178.003c-.065 0-.117.053-.117.117v.82c0 .064.052.117.117.117h.178l-.002.002c.212-.008.415.118.5.325.086.21.03.44-.122.586l-.125.128c-.045.044-.045.12 0 .163l.578.58c.045.046.12.046.165 0l.127-.124c.146-.153.377-.208.585-.123.207.088.33.29.326.502l.003.177h-.002c.002.065.054.116.117.116h.82c.064 0 .117-.05.117-.117V5.47c-.006-.212.12-.414.326-.502.208-.085.44-.03.586.123l.124.126c.046.045.12.045.165 0l.58-.58c.046-.046.046-.12 0-.164l-.125-.13c-.153-.146-.208-.377-.122-.585.085-.206.288-.332.5-.324l.176-.004c.063 0 .116-.053.116-.117v-.82c0-.064-.053-.116-.116-.116zm-2.738 1.53c-.553 0-1-.45-1-1.004s.447-1.005 1-1.005c.553 0 1.002.45 1.002 1.006S13.7 3.91 13.146 3.91z" fill="#cb1800"/><path d="M5.583 11.08V9.383L4.325 11.08h1.258zm5.244-6.118c.454 0 .82-.368.82-.82V1.876c0-.45-.366-.818-.82-.818-.453 0-.818.37-.818.818v2.266c-.002.452.363.82.817.82zm-5.653 0c.452 0 .818-.368.818-.82V1.876c0-.45-.366-.818-.818-.818-.455 0-.818.37-.818.818v2.266c0 .452.363.82.818.82zm7.483-1.274v.55c0 1.008-.822 1.83-1.83 1.83-1.015 0-1.83-.822-1.83-1.83v-.55H7.004v.55c0 1.008-.823 1.83-1.83 1.83-1.015 0-1.83-.822-1.83-1.83v-.55h-1.87V15h13.052V3.688h-1.87zm-5.132 8.464c-.144.098-.324.132-.544.134h-.09v.59c0 .224-.047.42-.175.56-.117.132-.287.2-.47.2h-.01c-.183.004-.357-.07-.476-.205-.127-.14-.178-.334-.178-.555v-.59H3.73c-.275 0-.507-.062-.674-.21-.162-.147-.24-.355-.24-.585 0-.07.012-.138.036-.205.023-.066.058-.13.1-.196.04-.062.08-.12.122-.175l.148-.197L5.34 7.885c.143-.19.26-.33.36-.427.115-.11.268-.17.428-.168.23-.002.438.07.573.227.136.157.19.37.19.624v2.94h.018c.22 0 .403.028.558.098.192.084.28.29.275.51.007.184-.067.363-.215.464zm4.747 1.2c-.125.132-.306.187-.506.186H8.814c-.223 0-.424-.068-.567-.21-.138-.135-.216-.312-.214-.5 0-.135.046-.277.122-.446.077-.17.163-.31.266-.418.356-.37.68-.688.968-.952.287-.265.492-.438.626-.53.212-.15.386-.3.522-.443.134-.148.235-.295.306-.44.067-.147.1-.286.1-.416 0-.147-.034-.27-.1-.38-.07-.11-.156-.194-.274-.255-.117-.064-.242-.096-.384-.097-.304.005-.514.12-.696.39-.006.006-.058.12-.117.292-.064.19-.14.343-.236.46-.11.135-.284.202-.467.2-.167 0-.327-.06-.44-.177-.123-.12-.18-.29-.178-.47-.002-.207.045-.42.135-.636.09-.22.226-.418.403-.594.18-.18.407-.32.675-.428.274-.108.59-.16.944-.16.422 0 .792.064 1.107.204.203.095.386.223.54.39.154.162.275.35.36.563.086.213.13.438.13.668 0 .356-.09.688-.27.98-.17.28-.344.504-.53.672-.174.157-.46.398-.863.728-.396.323-.668.576-.807.745l-.002.003h1.78c.225 0 .42.045.57.16.144.11.225.284.224.47.002.166-.06.323-.172.44z" mask="url(#a)"/></svg>