<svg width="16" height="16" xmlns="http://www.w3.org/2000/svg" viewBox="0 0 16 16" shape-rendering="geometricPrecision" fill="#cb1800"><defs><mask id="a"><rect fill="#fff" width="100%" height="100%"/><path fill="#000" d="M14.782 1.217V-1h-3.564v2.217H9V4.78h2.218V7h3.564V4.78H17V1.217z"/></mask></defs><path d="M16 2.217h-2.218V0h-1.564v2.217H10V3.78h2.218V6h1.564V3.78H16"/><path d="M11.246 9.283c1.382 0 2.497-1.115 2.497-2.495 0-1.378-1.114-2.494-2.497-2.494-1.377 0-2.496 1.116-2.496 2.494 0 1.38 1.12 2.495 2.496 2.495zm-11.24 3.59V16h5.08v-3.128c.002-.914.335-1.743.87-2.403H2.402c-1.322 0-2.398 1.08-2.398 2.403zm13.558-2.404H8.92c-1.324 0-2.4 1.08-2.4 2.403V16h9.45v-3.127c0-1.322-1.083-2.404-2.406-2.404zM4.73 4.293c-1.378 0-2.496 1.116-2.496 2.494 0 1.38 1.118 2.495 2.495 2.495 1.38 0 2.495-1.115 2.495-2.495 0-1.378-1.114-2.494-2.496-2.494z" mask="url(#a)"/></svg>