<svg width="16" height="16" xmlns="http://www.w3.org/2000/svg" viewBox="0 0 16 16" shape-rendering="geometricPrecision" fill="#cb1800"><defs><mask id="a"><rect fill="#fff" width="100%" height="100%"/><path fill="#000" d="M14.782 1.217V-1h-3.564v2.217H9V4.78h2.218V7h3.564V4.78H17V1.217z"/></mask></defs><path d="M16 2.217h-2.218V0h-1.564v2.217H10V3.78h2.218V6h1.564V3.78H16"/><path mask="url(#a)" d="M8.255 6.028v-.806c0-1.318.144-1.61 1.71-1.61h2.026L12 .994H8.562c-1.913 0-2.85 1.02-2.85 2.983v2.05H4.23v2.618H5.71v6.284l2.497.005c.006-3.073.02-6.29.02-6.29h3.75l.012-2.617H8.255z"/></svg>