<?xml version="1.0"?><!DOCTYPE svg PUBLIC "-//W3C//DTD SVG 1.1//EN" "http://www.w3.org/Graphics/SVG/1.1/DTD/svg11.dtd"><svg width="16px" height="16px" xmlns="http://www.w3.org/2000/svg" viewBox="0 0 16 16" shape-rendering="geometricPrecision" fill="#cb1800"><defs><mask id="add-path"><rect fill="#fff" width="100%" height="100%"/><polygon points="14.782,1.217 14.782,-1 11.218,-1 11.218,1.217 9,1.217 9,4.78 11.218,4.78 11.218,7.001 14.782,7.001 14.782,4.78 17,4.78 17,1.217 " fill="#000"/></mask></defs><polygon points="16,2.217 13.782,2.217 13.782,0 12.218,0 12.218,2.217 10,2.217 10,3.78 12.218,3.78 12.218,6.001 13.782,6.001 13.782,3.78 16,3.78 " fill="#cb1800"/><g mask="url(#add-path)"><g><path d="M2.271,0.963v13.971H13.73V0.963H2.271z M8.016,2.596c1.475,0,2.665,1.194,2.665,2.665c0,1.477-1.19,2.666-2.665,2.666 c-1.471,0-2.667-1.189-2.667-2.666C5.349,3.79,6.545,2.596,8.016,2.596z M12.549,14.093H3.484v-2.996 c0-1.268,1.032-2.306,2.301-2.306h4.457c1.268,0,2.308,1.038,2.308,2.306V14.093z"/></g></g></svg>