<?xml version="1.0"?><!DOCTYPE svg PUBLIC "-//W3C//DTD SVG 1.1//EN" "http://www.w3.org/Graphics/SVG/1.1/DTD/svg11.dtd"><svg width="16px" height="16px" xmlns="http://www.w3.org/2000/svg" viewBox="0 0 16 16" shape-rendering="geometricPrecision" fill="#cb1800"><defs><mask id="add-path"><rect fill="#fff" width="100%" height="100%"/><polygon points="14.782,1.217 14.782,-1 11.218,-1 11.218,1.217 9,1.217 9,4.78 11.218,4.78 11.218,7.001 14.782,7.001 14.782,4.78 17,4.78 17,1.217 " fill="#000"/></mask></defs><polygon points="16,2.217 13.782,2.217 13.782,0 12.218,0 12.218,2.217 10,2.217 10,3.78 12.218,3.78 12.218,6.001 13.782,6.001 13.782,3.78 16,3.78 " fill="#cb1800"/><g mask="url(#add-path)"><path d="M13.997,2.942v9.965H2.958V2.942H13.997 M14.997,1.942H1.958v11.965h13.039V1.942L14.997,1.942z"/><rect x="1.958" y="4.06" width="13.054" height="1.064"/><rect x="5.871" y="4.06" width="1.064" height="9.576"/><rect x="10.102" y="4.06" width="1.064" height="9.576"/><rect x="3.985" y="5.89" width="1.106" height="1.106"/><rect x="3.985" y="10.89" width="1.106" height="1.106"/><rect x="7.932" y="8.849" width="1.106" height="1.106"/><rect x="7.932" y="6.996" width="1.106" height="1.106"/><rect x="11.942" y="9.955" width="1.106" height="1.106"/><rect x="11.942" y="8" width="1.106" height="1.106"/></g></svg>