<?xml version="1.0"?><!DOCTYPE svg PUBLIC "-//W3C//DTD SVG 1.1//EN" "http://www.w3.org/Graphics/SVG/1.1/DTD/svg11.dtd"><svg xmlns="http://www.w3.org/2000/svg" viewBox="0 0 16 16" shape-rendering="geometricPrecision" fill="#00962d"><defs><mask id="move_down-path"><rect fill="#fff" width="100%" height="100%"/><polygon points="14.934,-0.397 12.895,1.639 10.858,-0.397 8.386,2.073 12.897,6.583 17.404,2.073 " fill="#000"/></mask></defs><polygon points="12.895,3.052 10.858,1.017 9.8,2.073 12.897,5.169 15.99,2.073 14.933,1.017 " fill="#cb1800"/><g mask="url(#move_down-path)"><polygon points="0,5.121 3.176,8.302 0,11.479 1.651,13.131 6.48,8.298 1.651,3.473"/><path d="M7.144,0.605v14.096h1.067V1.671l4.057,0.002l-2.67,0.764v13.562l6.399-1.831V1.674H16V0.605H7.144z M15,13.47l-4.4,1.282V3.188L15,1.906V13.47z"/></g></svg>
