<?xml version="1.0"?><!DOCTYPE svg PUBLIC "-//W3C//DTD SVG 1.1//EN" "http://www.w3.org/Graphics/SVG/1.1/DTD/svg11.dtd"><svg width="16px" height="16px" xmlns="http://www.w3.org/2000/svg" viewBox="0 0 16 16" shape-rendering="geometricPrecision" fill="#00962d"><defs><mask id="move_down-path"><rect fill="#fff" width="100%" height="100%"/><polygon points="14.934,-0.397 12.895,1.639 10.858,-0.397 8.386,2.073 12.897,6.583 17.404,2.073 " fill="#000"/></mask></defs><polygon points="12.895,3.052 10.858,1.017 9.8,2.073 12.897,5.169 15.99,2.073 14.933,1.017 " fill="#cb1800"/><g mask="url(#move_down-path)"><g><g><path d="M8,1.011c-3.859,0-6.989,3.13-6.989,6.991c0,3.857,3.129,6.986,6.989,6.986c3.859,0,6.989-3.129,6.989-6.986 C14.989,4.141,11.859,1.011,8,1.011z M10.732,11.246L9.047,12.93L4.116,7.997l4.93-4.928l1.686,1.686L7.486,8L10.732,11.246z"/></g></g></g></svg>