<?xml version="1.0"?><!DOCTYPE svg PUBLIC "-//W3C//DTD SVG 1.1//EN" "http://www.w3.org/Graphics/SVG/1.1/DTD/svg11.dtd"><svg xmlns="http://www.w3.org/2000/svg" viewBox="0 0 16 16" shape-rendering="geometricPrecision" fill="#00962d"><defs><mask id="move_down-path"><rect fill="#fff" width="100%" height="100%"/><polygon points="14.934,-0.397 12.895,1.639 10.858,-0.397 8.386,2.073 12.897,6.583 17.404,2.073 " fill="#000"/></mask></defs><polygon points="12.895,3.052 10.858,1.017 9.8,2.073 12.897,5.169 15.99,2.073 14.933,1.017 " fill="#cb1800"/><path mask="url(#move_down-path)" d="M4.212,1.067c1.069,0,1.604,0.865,1.604,1.832c0,1.122,0.03,2.548,0.03,2.548s4.381,0,5.504,0 c1.123,0,1.922,0.621,1.922,1.56c0,1.124-0.687,1.686-1.811,1.686c-1.123,0-5.584,0-5.584,0s0,0,0,0.999S6.378,11.687,8,11.687 c1.748,0,2.589,0,3.462,0c0.874,0,1.623,0.581,1.623,1.579c0,0.998-0.518,1.666-1.592,1.666c-1.372,0-1.427,0-3.673,0 c-3.145,0-5.095-1.23-5.095-4.738c0-3.371,0-5.53,0-7.152C2.727,1.824,3.215,1.067,4.212,1.067z"/></svg>
