<svg width="16" height="16" xmlns="http://www.w3.org/2000/svg" viewBox="0 0 16 16" shape-rendering="geometricPrecision" fill="#cb1800"><defs><mask id="a"><rect fill="#fff" width="100%" height="100%"/><path fill="#000" d="M8.986 1.143H17v3.565H8.986z"/></mask></defs><path d="M9.986 2.143H16v1.565H9.986z"/><g mask="url(#a)"><path d="M14.017 5.94c0-3.278-2.658-5.938-5.94-5.938-3.276 0-5.935 2.66-5.935 5.938 0 1.172.345 2.262.932 3.184l-.006-.004.04.06c.047.07.097.14.146.21L8.114 16l4.833-6.665c.03-.046.063-.09.093-.136l.025-.037h-.005c.603-.928.957-2.034.957-3.223zM8.08 10.507c-2.52 0-4.566-2.046-4.566-4.566 0-2.522 2.045-4.565 4.565-4.565 2.522 0 4.566 2.044 4.566 4.566 0 2.52-2.044 4.567-4.567 4.567z"/><circle cx="8.08" cy="5.914" r="2.242"/></g></svg>