<svg width="16" height="16" xmlns="http://www.w3.org/2000/svg" viewBox="0 0 16 16" shape-rendering="geometricPrecision" fill="#cb1800"><defs><mask id="a"><rect fill="#fff" width="100%" height="100%"/><path fill="#000" d="M8.986 1.143H17v3.565H8.986z"/></mask></defs><path d="M9.986 2.143H16v1.565H9.986z"/><path d="M14.9 9.115c-.443-1.083-.024-2.207-.592-2.207-.113 0-.265.044-.47.142-1.24.59-1.475.708-1.475.708s-2.065-.59-2.36-1.18c-.197-.396-.45-1.005-.914-1.005-.23 0-.507.146-.856.533-1.062 1.18-4.012 1.83-5.487 2.42-1.475.59-1.922 1.663-1.652 2.36.413 1.06 1.71 1.073 1.71 1.073h11.86s.57-2.024.235-2.845zM8.967 6.877l.027.055.06.12c.28.562 1.045 1.06 2.267 1.487L9.45 9.576 7.998 7.63c.37-.223.702-.47.97-.753zm.14 4.02H8.11L6.37 8.4c.227-.088.45-.18.67-.277l2.068 2.774zM2.086 10.5c-.035-.11.132-.62 1.056-.99.363-.144.854-.303 1.374-.47.27-.088.543-.177.82-.27l1.48 2.127h-3.99c-.063-.004-.603-.046-.74-.396zm11.737.397h-3.39l-.343-.46 3.56-1.974c.042.325.115.68.266 1.05.067.197.022.767-.094 1.384z" mask="url(#a)"/></svg>