<?xml version="1.0"?><!DOCTYPE svg PUBLIC "-//W3C//DTD SVG 1.1//EN" "http://www.w3.org/Graphics/SVG/1.1/DTD/svg11.dtd"><svg xmlns="http://www.w3.org/2000/svg" viewBox="0 0 16 16" shape-rendering="geometricPrecision" fill="#00962d"><defs><mask id="pause-path"><rect fill="#fff" width="100%" height="100%"/><polygon points="13.135,-1 12.45,-1 9.585,-1 9.585,6.956 12.45,6.956 13.135,6.956 16,6.956 16,-1 " fill="#000"/></mask></defs><g fill="#cb1800"><g><rect x="10.585" y="0" width="1.55" height="5.956"/></g><g><rect x="13.45" y="0" width="1.55" height="5.956"/></g></g><g mask="url(#pause-path)"><g><polygon points="2.764,2.068 4.554,0.277 8.001,3.724 11.448,0.277 13.237,2.068 7.998,7.307"/><path d="M1.041,8.334v6.636h13.958V8.334H1.041z M12.198,12.248c-0.599,0-1.081-0.484-1.081-1.082s0.482-1.08,1.081-1.08 c0.596,0,1.081,0.482,1.081,1.08S12.794,12.248,12.198,12.248z"/></g></g></svg>
