<?xml version="1.0"?><!DOCTYPE svg PUBLIC "-//W3C//DTD SVG 1.1//EN" "http://www.w3.org/Graphics/SVG/1.1/DTD/svg11.dtd"><svg width="16px" height="16px" xmlns="http://www.w3.org/2000/svg" viewBox="0 0 16 16" shape-rendering="geometricPrecision" fill="#00962d"><defs><mask id="pause-path"><rect fill="#fff" width="100%" height="100%"/><polygon points="13.135,-1 12.45,-1 9.585,-1 9.585,6.956 12.45,6.956 13.135,6.956 16,6.956 16,-1 " fill="#000"/></mask></defs><g fill="#cb1800"><g><rect x="10.585" y="0" width="1.55" height="5.956"/></g><g><rect x="13.45" y="0" width="1.55" height="5.956"/></g></g><path mask="url(#pause-path)" d="M10.28,0L8.324,1.954l2.182,2.183H9.883L9.467,4.158C4.211,4.38,0,8.712,0,14.02v0.63h2.994v-0.63 c0-1.839,0.717-3.569,2.017-4.872c1.302-1.301,3.033-2.018,4.873-2.018h0.629V7.129h0.167L8.324,9.487l1.954,1.953L16,5.717 L10.28,0z"/></svg>