<svg width="16" height="16" xmlns="http://www.w3.org/2000/svg" viewBox="0 0 16 16" shape-rendering="geometricPrecision" fill="#00962d"><defs><mask id="a"><rect fill="#fff" width="100%" height="100%"/><path fill="#000" d="M13.135-1H9.585v7.956H16V-1z"/></mask></defs><g fill="#cb1800"><path d="M10.585 0h1.55v5.956h-1.55zM13.45 0H15v5.956h-1.55z"/></g><g mask="url(#a)"><path d="M13.658 5.408h-3.342c-1.136 0-1.853.64-2.163 1.518h5.392v.002l.008-.002c.27 0 .482.48.482 1.066 0 .588-.213 1.064-.482 1.064H8.146c.307.888 1.026 1.535 2.17 1.535h3.343C15.222 10.593 16 9.386 16 8c.002-1.385-.775-2.592-2.342-2.592zM2.454 9.074v-.002l-.006.002c-.268 0-.484-.48-.484-1.066 0-.588.217-1.064.484-1.064h5.406c-.308-.888-1.026-1.536-2.17-1.536H2.342C.78 5.408 0 6.615 0 8c-.002 1.385.777 2.592 2.342 2.592h3.342c1.135 0 1.852-.64 2.162-1.518H2.454z"/><path d="M11.162 7.2H4.85c-.498 0-.902.36-.902.8 0 .44.404.797.902.797h6.312c.498 0 .9-.357.9-.797 0-.44-.402-.8-.9-.8z"/></g></svg>