<svg width="16" height="16" xmlns="http://www.w3.org/2000/svg" viewBox="0 0 16 16" shape-rendering="geometricPrecision" fill="#00962d"><defs><mask id="a"><rect fill="#fff" width="100%" height="100%"/><path fill="#000" d="M13.135-1H9.585v7.956H16V-1z"/></mask></defs><g fill="#cb1800"><path d="M10.585 0h1.55v5.956h-1.55zM13.45 0H15v5.956h-1.55z"/></g><path d="M6.136 14.063l7.86-6.878-3.255-1.74-4.604 8.618zM0 4.568l4.147 11.214.838-1.57-1.42-3.844 4.33-1.602 2.457-4.6 4.406 2.352.003-.003-2.41-6.517L0 4.568zm7.985 2.478l-4.97 1.838-.397-1.074 4.97-1.84.397 1.076zm4.073-4.002L2.204 6.688l-.398-1.074 9.854-3.646.398 1.076z" mask="url(#a)"/></svg>