<?xml version="1.0"?><!DOCTYPE svg PUBLIC "-//W3C//DTD SVG 1.1//EN" "http://www.w3.org/Graphics/SVG/1.1/DTD/svg11.dtd"><svg width="16px" height="16px" xmlns="http://www.w3.org/2000/svg" viewBox="0 0 16 16" shape-rendering="geometricPrecision" fill="#00962d"><defs><mask id="pause-path"><rect fill="#fff" width="100%" height="100%"/><polygon points="13.135,-1 12.45,-1 9.585,-1 9.585,6.956 12.45,6.956 13.135,6.956 16,6.956 16,-1 " fill="#000"/></mask></defs><g fill="#cb1800"><g><rect x="10.585" y="0" width="1.55" height="5.956"/></g><g><rect x="13.45" y="0" width="1.55" height="5.956"/></g></g><g mask="url(#pause-path)"><g><g><g><path d="M8,3.181c-3.471,0-6.48,1.953-8,4.82c1.52,2.865,4.529,4.818,8,4.818c3.469,0,6.479-1.953,8-4.818 C14.479,5.134,11.469,3.181,8,3.181z M7.998,12.228c-2.334,0-4.229-1.893-4.229-4.227c0-2.336,1.895-4.229,4.229-4.229 c2.336,0,4.23,1.893,4.23,4.229C12.229,10.335,10.334,12.228,7.998,12.228z"/></g></g></g><polygon points="11.792,6.774 10.446,5.429 7.178,8.696 5.468,6.987 4.124,8.331 7.18,11.386"/></g></svg>