<?xml version="1.0"?><!DOCTYPE svg PUBLIC "-//W3C//DTD SVG 1.1//EN" "http://www.w3.org/Graphics/SVG/1.1/DTD/svg11.dtd"><svg xmlns="http://www.w3.org/2000/svg" viewBox="0 0 16 16" shape-rendering="geometricPrecision" fill="#fff"><defs><mask id="add-path"><rect fill="#fff" width="100%" height="100%"/><polygon points="14.782,1.217 14.782,-1 11.218,-1 11.218,1.217 9,1.217 9,4.78 11.218,4.78 11.218,7.001 14.782,7.001 14.782,4.78 17,4.78 17,1.217 " fill="#000"/></mask></defs><polygon points="16,2.217 13.782,2.217 13.782,0 12.218,0 12.218,2.217 10,2.217 10,3.78 12.218,3.78 12.218,6.001 13.782,6.001 13.782,3.78 16,3.78 " fill="#cb1800"/><g mask="url(#add-path)"><circle cx="11.279" cy="12.205" r="0.769"/><circle cx="11.279" cy="7.938" r="0.769"/><path d="M2.042,0.948v4.265v1.185v3.082v1.185v4.265h11.939v-4.265V9.479V6.397V5.213V0.948H2.042z M12.854,13.802H3.171v-3.138h9.682V13.802z M12.854,9.479H3.171V6.397h9.682V9.479z M3.171,5.213V2.077h9.682v3.136H3.171z"/><circle cx="11.279" cy="3.672" r="0.769"/></g></svg>
