<?xml version="1.0"?><!DOCTYPE svg PUBLIC "-//W3C//DTD SVG 1.1//EN" "http://www.w3.org/Graphics/SVG/1.1/DTD/svg11.dtd"><svg width="16px" height="16px" xmlns="http://www.w3.org/2000/svg" viewBox="0 0 16 16" shape-rendering="geometricPrecision" fill="#fff"><defs><mask id="add-path"><rect fill="#fff" width="100%" height="100%"/><polygon points="14.782,1.217 14.782,-1 11.218,-1 11.218,1.217 9,1.217 9,4.78 11.218,4.78 11.218,7.001 14.782,7.001 14.782,4.78 17,4.78 17,1.217 " fill="#000"/></mask></defs><polygon points="16,2.217 13.782,2.217 13.782,0 12.218,0 12.218,2.217 10,2.217 10,3.78 12.218,3.78 12.218,6.001 13.782,6.001 13.782,3.78 16,3.78 " fill="#cb1800"/><g mask="url(#add-path)"><path d="M8.001,1.061c-3.833,0-6.939,3.107-6.939,6.941c0,3.829,3.106,6.934,6.939,6.936 c3.832-0.002,6.936-3.106,6.937-6.936C14.938,4.169,11.833,1.061,8.001,1.061z M8.001,13.534 c-3.057-0.006-5.529-2.478-5.536-5.531c0.007-3.059,2.479-5.531,5.536-5.537c3.056,0.006,5.528,2.479,5.534,5.537 C13.529,11.057,11.057,13.528,8.001,13.534z"/><polygon points="6.978,3.327 6.978,7.632 4.312,9.183 5.367,11.029 9.085,8.87 9.107,8.87 9.104,3.328"/></g></svg>