<svg width="16" height="16" xmlns="http://www.w3.org/2000/svg" viewBox="0 0 16 16" shape-rendering="geometricPrecision" fill="#fff"><defs><mask id="a"><rect width="100%" height="100%"/><path fill="#000" d="M14.782 1.217V-1h-3.564v2.217H9V4.78h2.218V7h3.564V4.78H17V1.217z"/></mask></defs><path fill="#cb1800" d="M16 2.217h-2.218V0h-1.564v2.217H10V3.78h2.218V6h1.564V3.78H16"/><g mask="url(#a)"><path d="M1.81 0v16h12.38V0H1.81zm11.34 14.96H2.794V1.01H13.15v13.95z"/><path d="M8.067 4.602c.76 0 1.374-.616 1.374-1.373S8.83 1.856 8.068 1.856c-.757 0-1.372.616-1.372 1.372 0 .756.615 1.372 1.372 1.372zm1.354 7.896v-6.49H5.313v1.02H6.66v5.47H5.307v1.36h5.467v-1.36H9.42z"/></g></svg>