<svg width="16" height="16" xmlns="http://www.w3.org/2000/svg" viewBox="0 0 16 16" shape-rendering="geometricPrecision" fill="#fff"><defs><mask id="a"><rect width="100%" height="100%"/><path fill="#000" d="M14.782 1.217V-1h-3.564v2.217H9V4.78h2.218V7h3.564V4.78H17V1.217z"/></mask></defs><path fill="#cb1800" d="M16 2.217h-2.218V0h-1.564v2.217H10V3.78h2.218V6h1.564V3.78H16"/><path mask="url(#a)" d="M0 0v16h16V0H0zm15 1v6.876H5.412L4.092 5.25 2.808 7.877H1V1h14zM1 15V8.876h2.432L4.104 7.5l1.13 2.22.578-.844H15V15H1z"/></svg>