<?xml version="1.0"?><!DOCTYPE svg PUBLIC "-//W3C//DTD SVG 1.1//EN" "http://www.w3.org/Graphics/SVG/1.1/DTD/svg11.dtd"><svg width="16px" height="16px" xmlns="http://www.w3.org/2000/svg" viewBox="0 0 16 16" shape-rendering="geometricPrecision" fill="#fff"><defs><mask id="add-path"><rect fill="#fff" width="100%" height="100%"/><polygon points="14.782,1.217 14.782,-1 11.218,-1 11.218,1.217 9,1.217 9,4.78 11.218,4.78 11.218,7.001 14.782,7.001 14.782,4.78 17,4.78 17,1.217 " fill="#000"/></mask></defs><polygon points="16,2.217 13.782,2.217 13.782,0 12.218,0 12.218,2.217 10,2.217 10,3.78 12.218,3.78 12.218,6.001 13.782,6.001 13.782,3.78 16,3.78 " fill="#cb1800"/><g mask="url(#add-path)"><path d="M7.999,0.97c-3.882,0-7.029,3.146-7.029,7.033c0.001,3.881,3.147,7.025,7.029,7.027 c3.883-0.002,7.031-3.146,7.031-7.027C15.03,4.116,11.882,0.97,7.999,0.97z M7.917,12.524H7.906c-0.663,0-1.121-0.496-1.121-1.16 c0-0.686,0.471-1.156,1.132-1.156c0.688,0,1.136,0.471,1.147,1.156C9.065,12.028,8.606,12.524,7.917,12.524z M9.46,7.774 c-0.472,0.52-0.663,1.02-0.65,1.594v0.229H7.116L7.104,9.265c-0.038-0.65,0.177-1.312,0.75-1.988 C8.263,6.78,8.596,6.372,8.596,5.938c0-0.445-0.293-0.738-0.93-0.764c-0.423,0-0.932,0.152-1.262,0.381L5.97,4.169 c0.472-0.268,1.223-0.523,2.127-0.523c1.681,0,2.446,0.93,2.446,1.986C10.543,6.601,9.946,7.237,9.46,7.774z"/></g></svg>