<?xml version="1.0"?><!DOCTYPE svg PUBLIC "-//W3C//DTD SVG 1.1//EN" "http://www.w3.org/Graphics/SVG/1.1/DTD/svg11.dtd"><svg xmlns="http://www.w3.org/2000/svg" viewBox="0 0 16 16" shape-rendering="geometricPrecision" fill="#fff"><defs><mask id="add-path"><rect fill="#fff" width="100%" height="100%"/><polygon points="14.782,1.217 14.782,-1 11.218,-1 11.218,1.217 9,1.217 9,4.78 11.218,4.78 11.218,7.001 14.782,7.001 14.782,4.78 17,4.78 17,1.217 " fill="#000"/></mask></defs><polygon points="16,2.217 13.782,2.217 13.782,0 12.218,0 12.218,2.217 10,2.217 10,3.78 12.218,3.78 12.218,6.001 13.782,6.001 13.782,3.78 16,3.78 " fill="#cb1800"/><g mask="url(#add-path)"><path d="M15.235,11.444L9.643,5.85c0.315-1.549-0.127-3.219-1.327-4.418C6.997,0.114,5.122-0.271,3.457,0.23 l3.349,3.353L3.56,6.828L0.211,3.475c-0.5,1.667-0.114,3.541,1.198,4.86c1.2,1.2,2.87,1.64,4.418,1.329l5.59,5.588 c0.987,0.986,2.634,0.934,3.692-0.124C16.162,14.076,16.216,12.423,15.235,11.444z"/></g></svg>
