<?xml version="1.0"?><!DOCTYPE svg PUBLIC "-//W3C//DTD SVG 1.1//EN" "http://www.w3.org/Graphics/SVG/1.1/DTD/svg11.dtd"><svg xmlns="http://www.w3.org/2000/svg" viewBox="0 0 16 16" shape-rendering="geometricPrecision" fill="#ffad00"><g><g><path d="M2.907,3.45H1.954v0.953v7.071v0.954h0.953h11.145h0.954v-0.954V4.405V3.45h-0.954H2.907z M3.713,10.905 c0-0.927,0.263-1.39,0.635-1.39c0.423,0,0.623,0.511,0.623,1.373c0,0.224-0.016,0.417-0.043,0.587H3.756 C3.729,11.311,3.713,11.122,3.713,10.905z M5.877,11.476H5.624c0.033-0.186,0.055-0.384,0.055-0.604 c0-1.094-0.417-1.895-1.314-1.895c-0.869,0-1.359,0.771-1.359,1.934c0,0.203,0.021,0.39,0.054,0.564H2.907v-7.07h2.972 L5.877,11.476L5.877,11.476z M9.914,11.476H6.832v-7.07h3.082V11.476z M14.052,11.476h-3.188v-7.07h3.188V11.476z"/><rect x="0.634" y="5.469" width="0.954" height="5.09"/><rect x="15.413" y="5.469" width="0.952" height="5.09"/><path d="M8.646,8.347H9.31V7.403H9.79V6.87H9.31V4.631H8.48L6.959,6.946v0.457h1.687V8.347z M7.634,6.87V6.86l0.687-1.018 c0.114-0.206,0.211-0.394,0.325-0.629h0.022C8.658,5.437,8.646,5.649,8.646,5.86v1.012H7.634V6.87z"/><path d="M13.746,10.569h-1.521v-0.012l0.32-0.279c0.65-0.602,1.12-1.127,1.12-1.779c0-0.605-0.399-1.125-1.224-1.125 c-0.469,0-0.875,0.164-1.143,0.383l0.205,0.497c0.188-0.142,0.464-0.31,0.796-0.31c0.485,0,0.662,0.293,0.662,0.623 c-0.006,0.492-0.417,0.938-1.291,1.75l-0.441,0.406v0.428h2.517L13.746,10.569L13.746,10.569z"/></g></g></svg>
