<?xml version="1.0"?><!DOCTYPE svg PUBLIC "-//W3C//DTD SVG 1.1//EN" "http://www.w3.org/Graphics/SVG/1.1/DTD/svg11.dtd"><svg xmlns="http://www.w3.org/2000/svg" viewBox="0 0 16 16" shape-rendering="geometricPrecision" fill="#ffad00"><defs><mask id="refresh-path"><rect fill="#fff" width="100%" height="100%"/><path d="M17.514,2.671l-0.862-0.552L16.65-1h-2.866v0.558c-1.334-0.3-2.758,0.103-3.723,1.067 c-1.569,1.569-1.554,4.141,0.035,5.732c0.779,0.777,1.809,1.205,2.901,1.205c1.071,0,2.077-0.415,2.831-1.168 C16.585,5.639,17.001,4.631,17,3.557l0-0.886H17.514z M14.141,3.558c0,0.22-0.058,0.539-0.333,0.813 c-0.443,0.443-1.23,0.426-1.69-0.035c-0.475-0.475-0.49-1.234-0.036-1.689c0.011-0.011,0.021-0.022,0.033-0.031l0,0.922h2.026 V3.558z" fill="#000"/></mask></defs><path display="inline" d="M13.114,2.537h2.538L15.651,0h-0.867v1.105 c-1.204-0.927-2.924-0.863-4.016,0.227C9.581,2.52,9.606,4.451,10.803,5.649c1.201,1.198,3.131,1.224,4.319,0.037 C15.707,5.102,16.001,4.329,16,3.558l-0.859,0.001c-0.001,0.557-0.208,1.102-0.627,1.521c-0.843,0.842-2.231,0.836-3.104-0.036 c-0.871-0.872-0.877-2.26-0.035-3.105c0.729-0.727,1.86-0.818,2.721-0.268h-0.983L13.114,2.537z" fill="#cb1800"/><g mask="url(#refresh-path)"><path d="M9.284,2.017c-0.438,0-0.546,0.125-0.735,0.747L5.67,12.038 c-0.168,0.554-0.277,0.904-0.277,1.108c0,0.544,0.408,0.781,0.725,0.781c0.437,0,0.546-0.125,0.734-0.747L9.73,3.907 c0.169-0.555,0.277-0.906,0.277-1.108C10.008,2.254,9.602,2.017,9.284,2.017z"/><path d="M4.523,3.425C4.655,3.011,4.404,2.7,4.161,2.599C3.828,2.46,3.715,2.52,3.419,2.934 L0.584,6.853C0.391,7.125,0.269,7.306,0.187,7.452C0.162,7.489,0.142,7.528,0.124,7.571C0.119,7.582,0.105,7.601,0.102,7.61 C0.097,7.628,0.101,7.642,0.096,7.659c-0.014,0.053-0.02,0.106-0.019,0.166c0,0.061,0.005,0.115,0.02,0.168 c0.004,0.017,0,0.03,0.005,0.047c0.003,0.01,0.017,0.027,0.021,0.038C0.141,8.123,0.162,8.162,0.188,8.2 C0.27,8.347,0.391,8.527,0.584,8.798l2.834,3.919c0.296,0.413,0.41,0.475,0.742,0.337c0.243-0.102,0.494-0.413,0.362-0.828 c-0.05-0.152-0.219-0.387-0.482-0.756L1.405,7.825l2.636-3.643C4.304,3.813,4.473,3.579,4.523,3.425z"/><path d="M15.988,7.825c0-0.06-0.006-0.114-0.02-0.168c-0.004-0.017,0-0.03-0.005-0.047 c-0.003-0.01-0.017-0.027-0.021-0.038c-0.019-0.044-0.039-0.083-0.064-0.12c-0.082-0.146-0.203-0.328-0.397-0.599l-2.835-3.919 c-0.296-0.414-0.411-0.475-0.742-0.336c-0.243,0.102-0.495,0.412-0.362,0.826c0.05,0.154,0.219,0.389,0.481,0.758l2.637,3.643 l-2.637,3.645c-0.263,0.368-0.432,0.604-0.481,0.756c-0.133,0.415,0.119,0.727,0.362,0.828c0.333,0.138,0.446,0.076,0.742-0.337 l2.835-3.919c0.192-0.27,0.313-0.449,0.395-0.597c0.027-0.038,0.048-0.079,0.066-0.124c0.004-0.011,0.017-0.027,0.02-0.037 c0.005-0.017,0.001-0.029,0.005-0.045C15.982,7.941,15.989,7.886,15.988,7.825z"/></g></svg>
