<?xml version="1.0"?><!DOCTYPE svg PUBLIC "-//W3C//DTD SVG 1.1//EN" "http://www.w3.org/Graphics/SVG/1.1/DTD/svg11.dtd"><svg width="16px" height="16px" xmlns="http://www.w3.org/2000/svg" viewBox="0 0 16 16" shape-rendering="geometricPrecision" fill="#ffad00"><defs><mask id="refresh-path"><rect fill="#fff" width="100%" height="100%"/><path d="M17.514,2.671l-0.862-0.552L16.65-1h-2.866v0.558c-1.334-0.3-2.758,0.103-3.723,1.067 c-1.569,1.569-1.554,4.141,0.035,5.732c0.779,0.777,1.809,1.205,2.901,1.205c1.071,0,2.077-0.415,2.831-1.168 C16.585,5.639,17.001,4.631,17,3.557l0-0.886H17.514z M14.141,3.558c0,0.22-0.058,0.539-0.333,0.813 c-0.443,0.443-1.23,0.426-1.69-0.035c-0.475-0.475-0.49-1.234-0.036-1.689c0.011-0.011,0.021-0.022,0.033-0.031l0,0.922h2.026 V3.558z" fill="#000"/></mask></defs><path display="inline" d="M13.114,2.537h2.538L15.651,0h-0.867v1.105 c-1.204-0.927-2.924-0.863-4.016,0.227C9.581,2.52,9.606,4.451,10.803,5.649c1.201,1.198,3.131,1.224,4.319,0.037 C15.707,5.102,16.001,4.329,16,3.558l-0.859,0.001c-0.001,0.557-0.208,1.102-0.627,1.521c-0.843,0.842-2.231,0.836-3.104-0.036 c-0.871-0.872-0.877-2.26-0.035-3.105c0.729-0.727,1.86-0.818,2.721-0.268h-0.983L13.114,2.537z" fill="#cb1800"/><g mask="url(#refresh-path)"><g><path d="M11.636,3.477h-9.03c-1.423,0-2.578,1.117-2.579,2.494v4.865c0.001,1.373,1.156,2.49,2.579,2.492h0.199 c-0.098,0.396-0.33,0.832-0.844,1.285L0.363,16l2.125-0.314c2.408-0.369,3.896-1.771,4.432-2.357h4.717 c1.425-0.002,2.578-1.119,2.579-2.492V5.971C14.214,4.594,13.061,3.477,11.636,3.477z M12.934,10.836 c0,0.686-0.588,1.254-1.298,1.256H6.299l-0.191,0.246c-0.034,0.049-0.801,1.002-2.167,1.633c0.155-0.416,0.215-0.818,0.211-1.17 c0-0.025,0-0.062-0.002-0.109l-0.018-0.6H2.606c-0.71-0.002-1.298-0.57-1.298-1.256V5.971c0-0.689,0.588-1.256,1.298-1.258h9.03 c0.71,0.002,1.298,0.568,1.298,1.258V10.836z"/><path d="M13.854,1.607H3.987c-0.828,0-1.542,0.488-1.891,1.184c0.287-0.144,0.604-0.232,0.946-0.232h9.866 c1.166,0,2.119,0.951,2.119,2.117v5.504c0,0.336-0.087,0.65-0.226,0.934c0.69-0.35,1.172-1.059,1.172-1.883V3.727 C15.973,2.562,15.019,1.607,13.854,1.607z"/><rect x="2.601" y="8.631" width="8.93" height="1.244"/><rect x="2.601" y="6.051" width="8.93" height="1.246"/></g></g></svg>