<?xml version="1.0"?><!DOCTYPE svg PUBLIC "-//W3C//DTD SVG 1.1//EN" "http://www.w3.org/Graphics/SVG/1.1/DTD/svg11.dtd"><svg width="16px" height="16px" xmlns="http://www.w3.org/2000/svg" viewBox="0 0 16 16" shape-rendering="geometricPrecision" fill="#ffad00"><defs><mask id="refresh-path"><rect fill="#fff" width="100%" height="100%"/><path d="M17.514,2.671l-0.862-0.552L16.65-1h-2.866v0.558c-1.334-0.3-2.758,0.103-3.723,1.067 c-1.569,1.569-1.554,4.141,0.035,5.732c0.779,0.777,1.809,1.205,2.901,1.205c1.071,0,2.077-0.415,2.831-1.168 C16.585,5.639,17.001,4.631,17,3.557l0-0.886H17.514z M14.141,3.558c0,0.22-0.058,0.539-0.333,0.813 c-0.443,0.443-1.23,0.426-1.69-0.035c-0.475-0.475-0.49-1.234-0.036-1.689c0.011-0.011,0.021-0.022,0.033-0.031l0,0.922h2.026 V3.558z" fill="#000"/></mask></defs><path display="inline" d="M13.114,2.537h2.538L15.651,0h-0.867v1.105 c-1.204-0.927-2.924-0.863-4.016,0.227C9.581,2.52,9.606,4.451,10.803,5.649c1.201,1.198,3.131,1.224,4.319,0.037 C15.707,5.102,16.001,4.329,16,3.558l-0.859,0.001c-0.001,0.557-0.208,1.102-0.627,1.521c-0.843,0.842-2.231,0.836-3.104-0.036 c-0.871-0.872-0.877-2.26-0.035-3.105c0.729-0.727,1.86-0.818,2.721-0.268h-0.983L13.114,2.537z" fill="#cb1800"/><g mask="url(#refresh-path)"><path d="M6.655,8.121c0,0.521-0.208,0.992-0.54,1.345h3.925C9.708,9.113,9.5,8.643,9.5,8.121 c0-0.668,0.337-1.259,0.849-1.613c-0.281-0.339-0.701-0.561-1.173-0.561H6.974c-0.472,0-0.889,0.221-1.169,0.56 C6.318,6.861,6.655,7.451,6.655,8.121z"/><circle cx="8.077" cy="3.606" r="1.587"/><circle cx="4.691" cy="8.122" r="1.587"/><path d="M5.79,10.462H3.587c-0.841,0-1.525,0.689-1.525,1.53v1.988H7.32v-1.988 C7.32,11.151,6.631,10.462,5.79,10.462z"/><circle cx="11.464" cy="8.121" r="1.588"/><path d="M12.562,10.462H10.36c-0.841,0-1.525,0.689-1.525,1.53v1.988h5.258v-1.988 C14.093,11.151,13.404,10.462,12.562,10.462z"/></g></svg>