<?xml version="1.0"?><!DOCTYPE svg PUBLIC "-//W3C//DTD SVG 1.1//EN" "http://www.w3.org/Graphics/SVG/1.1/DTD/svg11.dtd"><svg xmlns="http://www.w3.org/2000/svg" viewBox="0 0 16 16" shape-rendering="geometricPrecision" fill="#ffad00"><defs><mask id="refresh-path"><rect fill="#fff" width="100%" height="100%"/><path d="M17.514,2.671l-0.862-0.552L16.65-1h-2.866v0.558c-1.334-0.3-2.758,0.103-3.723,1.067 c-1.569,1.569-1.554,4.141,0.035,5.732c0.779,0.777,1.809,1.205,2.901,1.205c1.071,0,2.077-0.415,2.831-1.168 C16.585,5.639,17.001,4.631,17,3.557l0-0.886H17.514z M14.141,3.558c0,0.22-0.058,0.539-0.333,0.813 c-0.443,0.443-1.23,0.426-1.69-0.035c-0.475-0.475-0.49-1.234-0.036-1.689c0.011-0.011,0.021-0.022,0.033-0.031l0,0.922h2.026 V3.558z" fill="#000"/></mask></defs><path display="inline" d="M13.114,2.537h2.538L15.651,0h-0.867v1.105 c-1.204-0.927-2.924-0.863-4.016,0.227C9.581,2.52,9.606,4.451,10.803,5.649c1.201,1.198,3.131,1.224,4.319,0.037 C15.707,5.102,16.001,4.329,16,3.558l-0.859,0.001c-0.001,0.557-0.208,1.102-0.627,1.521c-0.843,0.842-2.231,0.836-3.104-0.036 c-0.871-0.872-0.877-2.26-0.035-3.105c0.729-0.727,1.86-0.818,2.721-0.268h-0.983L13.114,2.537z" fill="#cb1800"/><g mask="url(#refresh-path)"><path d="M15.064,12.939l-0.117-4.781c0.019-0.081,0.023-0.198,0.023-0.367c0-0.663,0-0.966,0-0.966 c0-0.724,0.061-3.199,0.061-4.044s-0.725-0.181-1.026,0.905c-0.302,1.087-0.785,4.527,0.06,4.588 c0.057,0.004,0.101,0.008,0.151,0.013l-0.11,4.652H15.064z"/><path d="M3.276,5.169c0-0.613-0.209-2.736-0.418-2.736c-0.209,0-0.077,2.736-0.229,2.736 c-0.153,0-0.287-2.693-0.458-2.693h-0.01c-0.171,0-0.305,2.693-0.457,2.693S1.685,2.433,1.476,2.433 c-0.21,0-0.419,2.123-0.419,2.736c0,0.557,0.238,1.02,0.753,1.101l-0.123,6.67h0.958l-0.126-6.67 C3.036,6.19,3.276,5.728,3.276,5.169z"/><path d="M8.27,3.085c-2.63,0-4.762,2.132-4.762,4.763c0,2.63,2.132,4.762,4.762,4.762 c2.631,0,4.763-2.132,4.763-4.762C13.033,5.217,10.901,3.085,8.27,3.085z M8.27,11.181c-1.841,0-3.333-1.492-3.333-3.333 c0-1.842,1.492-3.335,3.333-3.335c1.841,0,3.334,1.493,3.334,3.335C11.604,9.688,10.111,11.181,8.27,11.181z"/></g></svg>
