<svg width="16" height="16" xmlns="http://www.w3.org/2000/svg" viewBox="0 0 16 16" shape-rendering="geometricPrecision" fill="#ffad00"><defs><mask id="a"><rect fill="#fff" width="100%" height="100%"/><path d="M17.514 2.67l-.862-.55L16.65-1h-2.866v.558c-1.334-.3-2.758.103-3.723 1.067-1.568 1.57-1.553 4.14.036 5.732.78.777 1.81 1.205 2.9 1.205 1.072 0 2.078-.415 2.832-1.168C16.585 5.64 17 4.63 17 3.557V2.67h.514zm-3.373.888c0 .22-.057.54-.332.813-.443.444-1.23.427-1.69-.034-.475-.475-.49-1.234-.036-1.69.01-.01.02-.02.033-.03v.922h2.026v.02z" fill="#000"/></mask></defs><path d="M13.114 2.537h2.538V0h-.868v1.105c-1.204-.927-2.924-.863-4.016.227-1.187 1.188-1.162 3.12.035 4.317 1.2 1.197 3.13 1.223 4.32.036.584-.584.878-1.357.877-2.128h-.86c0 .558-.207 1.103-.626 1.522-.843.842-2.23.836-3.104-.036-.87-.872-.877-2.26-.035-3.105.73-.728 1.86-.82 2.72-.27h-.982v.867z" fill="#cb1800"/><g mask="url(#a)"><path d="M4.974 12.78h6.022c.786 0 1.423-.637 1.423-1.423V3.912c0-.786-.15-1.238-.922-1.423-.496-.123-1.537-.416-2.913-.487v-.4H9.65c.163 0 .295-.13.295-.293 0-.163-.132-.294-.294-.294H6.32c-.162 0-.294.132-.294.294 0 .162.132.294.294.294h1.066v.39c-1.756.047-2.252.295-2.912.495-.752.227-.92.636-.92 1.422v7.445c0 .786.636 1.423 1.422 1.423zm.908-1.368c-.337 0-.604-.253-.65-.577-.033.004-.065.01-.1.01-.446 0-.81-.363-.81-.81s.364-.81.81-.81.81.363.81.81c0 .018-.003.034-.004.052.342.03.613.308.613.657 0 .368-.3.668-.668.668zm4.888-.568c-.037 0-.072-.005-.107-.01-.046.324-.313.577-.65.577-.37 0-.668-.298-.668-.667 0-.35.27-.627.612-.657 0-.015-.005-.03-.005-.044-.004-.447.355-.813.803-.818.447-.004.813.355.817.803.005.447-.354.813-.802.817zM4.303 4.826c0-.786.164-1.212.92-1.423.582-.16 1.57-.323 2.805-.323 1.074 0 2.122.182 2.704.324.764.186.92.637.92 1.423l-.018.06c.008.06.02.12.02.183l-.183 1.618c0 .786-.163 1.212-.92 1.423-.58.163-1.387.325-2.622.325-1.074 0-1.91-.182-2.49-.324-.765-.185-.922-.637-.922-1.422l-.213-1.62c0-.062.01-.122.02-.182l-.02-.06zM3.463 14.94H6.01v-1.827H4.97M11.03 13.113H9.99v1.827h2.547"/></g></svg>