<svg width="16" height="16" xmlns="http://www.w3.org/2000/svg" viewBox="0 0 16 16" shape-rendering="geometricPrecision" fill="#ffad00"><defs><mask id="a"><rect fill="#fff" width="100%" height="100%"/><path d="M17.514 2.67l-.862-.55L16.65-1h-2.866v.558c-1.334-.3-2.758.103-3.723 1.067-1.568 1.57-1.553 4.14.036 5.732.78.777 1.81 1.205 2.9 1.205 1.072 0 2.078-.415 2.832-1.168C16.585 5.64 17 4.63 17 3.557V2.67h.514zm-3.373.888c0 .22-.057.54-.332.813-.443.444-1.23.427-1.69-.034-.475-.475-.49-1.234-.036-1.69.01-.01.02-.02.033-.03v.922h2.026v.02z" fill="#000"/></mask></defs><path d="M13.114 2.537h2.538V0h-.868v1.105c-1.204-.927-2.924-.863-4.016.227-1.187 1.188-1.162 3.12.035 4.317 1.2 1.197 3.13 1.223 4.32.036.584-.584.878-1.357.877-2.128h-.86c0 .558-.207 1.103-.626 1.522-.843.842-2.23.836-3.104-.036-.87-.872-.877-2.26-.035-3.105.73-.728 1.86-.82 2.72-.27h-.982v.867z" fill="#cb1800"/><path d="M5.583 11.08V9.383L4.325 11.08h1.258zm5.244-6.118c.454 0 .82-.368.82-.82V1.876c0-.45-.366-.818-.82-.818-.453 0-.818.37-.818.818v2.266c-.002.452.363.82.817.82zm-5.653 0c.452 0 .818-.368.818-.82V1.876c0-.45-.366-.818-.818-.818-.455 0-.818.37-.818.818v2.266c0 .452.363.82.818.82zm7.483-1.274v.55c0 1.008-.822 1.83-1.83 1.83-1.015 0-1.83-.822-1.83-1.83v-.55H7.004v.55c0 1.008-.823 1.83-1.83 1.83-1.015 0-1.83-.822-1.83-1.83v-.55h-1.87V15h13.052V3.688h-1.87zm-5.132 8.464c-.144.098-.324.132-.544.134h-.09v.59c0 .224-.047.42-.175.56-.117.132-.287.2-.47.2h-.01c-.183.004-.357-.07-.476-.205-.127-.14-.178-.334-.178-.555v-.59H3.73c-.275 0-.507-.062-.674-.21-.162-.147-.24-.355-.24-.585 0-.07.012-.138.036-.205.023-.066.058-.13.1-.196.04-.062.08-.12.122-.175l.148-.197L5.34 7.885c.143-.19.26-.33.36-.427.115-.11.268-.17.428-.168.23-.002.438.07.573.227.136.157.19.37.19.624v2.94h.018c.22 0 .403.028.558.098.192.084.28.29.275.51.007.184-.067.363-.215.464zm4.747 1.2c-.125.132-.306.187-.506.186H8.814c-.223 0-.424-.068-.567-.21-.138-.135-.216-.312-.214-.5 0-.135.046-.277.122-.446.077-.17.163-.31.266-.418.356-.37.68-.688.968-.952.287-.265.492-.438.626-.53.212-.15.386-.3.522-.443.134-.148.235-.295.306-.44.067-.147.1-.286.1-.416 0-.147-.034-.27-.1-.38-.07-.11-.156-.194-.274-.255-.117-.064-.242-.096-.384-.097-.304.005-.514.12-.696.39-.006.006-.058.12-.117.292-.064.19-.14.343-.236.46-.11.135-.284.202-.467.2-.167 0-.327-.06-.44-.177-.123-.12-.18-.29-.178-.47-.002-.207.045-.42.135-.636.09-.22.226-.418.403-.594.18-.18.407-.32.675-.428.274-.108.59-.16.944-.16.422 0 .792.064 1.107.204.203.095.386.223.54.39.154.162.275.35.36.563.086.213.13.438.13.668 0 .356-.09.688-.27.98-.17.28-.344.504-.53.672-.174.157-.46.398-.863.728-.396.323-.668.576-.807.745l-.002.003h1.78c.225 0 .42.045.57.16.144.11.225.284.224.47.002.166-.06.323-.172.44z" mask="url(#a)"/></svg>