<svg width="16" height="16" xmlns="http://www.w3.org/2000/svg" viewBox="0 0 16 16" shape-rendering="geometricPrecision" fill="#ffad00"><defs><mask id="a"><rect fill="#fff" width="100%" height="100%"/><path d="M17.514 2.67l-.862-.55L16.65-1h-2.866v.558c-1.334-.3-2.758.103-3.723 1.067-1.568 1.57-1.553 4.14.036 5.732.78.777 1.81 1.205 2.9 1.205 1.072 0 2.078-.415 2.832-1.168C16.585 5.64 17 4.63 17 3.557V2.67h.514zm-3.373.888c0 .22-.057.54-.332.813-.443.444-1.23.427-1.69-.034-.475-.475-.49-1.234-.036-1.69.01-.01.02-.02.033-.03v.922h2.026v.02z" fill="#000"/></mask></defs><path d="M13.114 2.537h2.538V0h-.868v1.105c-1.204-.927-2.924-.863-4.016.227-1.187 1.188-1.162 3.12.035 4.317 1.2 1.197 3.13 1.223 4.32.036.584-.584.878-1.357.877-2.128h-.86c0 .558-.207 1.103-.626 1.522-.843.842-2.23.836-3.104-.036-.87-.872-.877-2.26-.035-3.105.73-.728 1.86-.82 2.72-.27h-.982v.867z" fill="#cb1800"/><path d="M14.9 9.115c-.443-1.083-.024-2.207-.592-2.207-.113 0-.265.044-.47.142-1.24.59-1.475.708-1.475.708s-2.065-.59-2.36-1.18c-.197-.396-.45-1.005-.914-1.005-.23 0-.507.146-.856.533-1.062 1.18-4.012 1.83-5.487 2.42-1.475.59-1.922 1.663-1.652 2.36.413 1.06 1.71 1.073 1.71 1.073h11.86s.57-2.024.235-2.845zM8.967 6.877l.027.055.06.12c.28.562 1.045 1.06 2.267 1.487L9.45 9.576 7.998 7.63c.37-.223.702-.47.97-.753zm.14 4.02H8.11L6.37 8.4c.227-.088.45-.18.67-.277l2.068 2.774zM2.086 10.5c-.035-.11.132-.62 1.056-.99.363-.144.854-.303 1.374-.47.27-.088.543-.177.82-.27l1.48 2.127h-3.99c-.063-.004-.603-.046-.74-.396zm11.737.397h-3.39l-.343-.46 3.56-1.974c.042.325.115.68.266 1.05.067.197.022.767-.094 1.384z" mask="url(#a)"/></svg>