<svg width="16" height="16" xmlns="http://www.w3.org/2000/svg" viewBox="0 0 16 16" shape-rendering="geometricPrecision" fill="#ffad00"><defs><mask id="a"><rect fill="#fff" width="100%" height="100%"/><path d="M17.514 2.67l-.862-.55L16.65-1h-2.866v.558c-1.334-.3-2.758.103-3.723 1.067-1.568 1.57-1.553 4.14.036 5.732.78.777 1.81 1.205 2.9 1.205 1.072 0 2.078-.415 2.832-1.168C16.585 5.64 17 4.63 17 3.557V2.67h.514zm-3.373.888c0 .22-.057.54-.332.813-.443.444-1.23.427-1.69-.034-.475-.475-.49-1.234-.036-1.69.01-.01.02-.02.033-.03v.922h2.026v.02z" fill="#000"/></mask></defs><path d="M13.114 2.537h2.538V0h-.868v1.105c-1.204-.927-2.924-.863-4.016.227-1.187 1.188-1.162 3.12.035 4.317 1.2 1.197 3.13 1.223 4.32.036.584-.584.878-1.357.877-2.128h-.86c0 .558-.207 1.103-.626 1.522-.843.842-2.23.836-3.104-.036-.87-.872-.877-2.26-.035-3.105.73-.728 1.86-.82 2.72-.27h-.982v.867z" fill="#cb1800"/><path d="M13.078 2.394C11.292.612 8.42.628 6.634 2.404l-5.05 5.052.904.902 5.05-5.05c1.29-1.29 3.354-1.297 4.64-.01 1.28 1.283 1.283 3.364 0 4.65l-5.05 5.05c-.882.88-2.305.89-3.187.008-.877-.882-.877-2.312 0-3.194L8.364 5.39c.488-.483 1.254-.484 1.733-.007.478.478.476 1.255-.002 1.734L5.67 11.542l.9.9 4.424-4.423c.976-.978.98-2.563.003-3.54-.978-.972-2.543-.962-3.52-.002h-.003L3.04 8.907c-1.38 1.38-1.378 3.62 0 5 1.38 1.376 3.61 1.365 4.99-.01l5.05-5.05c1.785-1.785 1.78-4.672-.002-6.454z" mask="url(#a)"/></svg>