<svg width="16" height="16" xmlns="http://www.w3.org/2000/svg" viewBox="0 0 16 16" shape-rendering="geometricPrecision" fill="#ffad00"><defs><mask id="a"><rect fill="#fff" width="100%" height="100%"/><path d="M17.514 2.67l-.862-.55L16.65-1h-2.866v.558c-1.334-.3-2.758.103-3.723 1.067-1.568 1.57-1.553 4.14.036 5.732.78.777 1.81 1.205 2.9 1.205 1.072 0 2.078-.415 2.832-1.168C16.585 5.64 17 4.63 17 3.557V2.67h.514zm-3.373.888c0 .22-.057.54-.332.813-.443.444-1.23.427-1.69-.034-.475-.475-.49-1.234-.036-1.69.01-.01.02-.02.033-.03v.922h2.026v.02z" fill="#000"/></mask></defs><path d="M13.114 2.537h2.538V0h-.868v1.105c-1.204-.927-2.924-.863-4.016.227-1.187 1.188-1.162 3.12.035 4.317 1.2 1.197 3.13 1.223 4.32.036.584-.584.878-1.357.877-2.128h-.86c0 .558-.207 1.103-.626 1.522-.843.842-2.23.836-3.104-.036-.87-.872-.877-2.26-.035-3.105.73-.728 1.86-.82 2.72-.27h-.982v.867z" fill="#cb1800"/><g mask="url(#a)"><path d="M8 5.2c1.547 0 2.8 1.254 2.8 2.802 0 1.537-1.24 2.783-2.776 2.796v1.4c2.31-.012 4.177-1.887 4.177-4.196 0-2.32-1.88-4.2-4.2-4.2S3.8 5.68 3.8 8v.01h1.4L5.197 8C5.198 6.454 6.453 5.2 8 5.2zM8 .998c-3.867 0-7 3.135-7 7.004v.01h1.4V8C2.4 4.907 4.907 2.4 8 2.4c3.094 0 5.602 2.507 5.602 5.602 0 3.083-2.495 5.586-5.577 5.6V15c3.855-.014 6.978-3.143 6.978-7 0-3.87-3.136-7.004-7.003-7.004z"/><circle cx="4.598" cy="11.221" r="2.106"/></g></svg>