<?xml version="1.0"?><!DOCTYPE svg PUBLIC "-//W3C//DTD SVG 1.1//EN" "http://www.w3.org/Graphics/SVG/1.1/DTD/svg11.dtd"><svg width="16px" height="16px" xmlns="http://www.w3.org/2000/svg" viewBox="0 0 16 16" shape-rendering="geometricPrecision" fill="#ffad00"><defs><mask id="refresh-path"><rect fill="#fff" width="100%" height="100%"/><path d="M17.514,2.671l-0.862-0.552L16.65-1h-2.866v0.558c-1.334-0.3-2.758,0.103-3.723,1.067 c-1.569,1.569-1.554,4.141,0.035,5.732c0.779,0.777,1.809,1.205,2.901,1.205c1.071,0,2.077-0.415,2.831-1.168 C16.585,5.639,17.001,4.631,17,3.557l0-0.886H17.514z M14.141,3.558c0,0.22-0.058,0.539-0.333,0.813 c-0.443,0.443-1.23,0.426-1.69-0.035c-0.475-0.475-0.49-1.234-0.036-1.689c0.011-0.011,0.021-0.022,0.033-0.031l0,0.922h2.026 V3.558z" fill="#000"/></mask></defs><path display="inline" d="M13.114,2.537h2.538L15.651,0h-0.867v1.105 c-1.204-0.927-2.924-0.863-4.016,0.227C9.581,2.52,9.606,4.451,10.803,5.649c1.201,1.198,3.131,1.224,4.319,0.037 C15.707,5.102,16.001,4.329,16,3.558l-0.859,0.001c-0.001,0.557-0.208,1.102-0.627,1.521c-0.843,0.842-2.231,0.836-3.104-0.036 c-0.871-0.872-0.877-2.26-0.035-3.105c0.729-0.727,1.86-0.818,2.721-0.268h-0.983L13.114,2.537z" fill="#cb1800"/><path mask="url(#refresh-path)" d="M8.001,1.042c-3.844,0-6.959,3.115-6.959,6.961c0,3.841,3.116,6.954,6.959,6.955 c3.843-0.001,6.956-3.114,6.958-6.955C14.958,4.157,11.844,1.042,8.001,1.042z M11.606,7.918c0,0.354-0.065,0.69-0.159,1.014h2.018 c-0.133,0.778-0.423,1.502-0.842,2.134l-1.449-1.449c-0.331,0.634-0.836,1.153-1.458,1.502l1.44,1.44 c-0.633,0.439-1.361,0.749-2.147,0.895v-2.032c-0.346,0.107-0.706,0.182-1.087,0.182c-0.352,0-0.684-0.064-1.006-0.156v1.996 c-0.776-0.155-1.493-0.474-2.116-0.915l1.38-1.38c-0.627-0.34-1.141-0.852-1.481-1.479L3.35,11.019 c-0.405-0.621-0.686-1.328-0.815-2.088h1.863C4.304,8.608,4.239,8.272,4.239,7.918c0-0.378,0.074-0.736,0.179-1.079H2.576 C2.732,6.11,3.031,5.436,3.442,4.844l1.281,1.28c0.349-0.621,0.869-1.126,1.501-1.457l-1.29-1.29 c0.591-0.392,1.261-0.675,1.982-0.818v1.832c0.322-0.092,0.654-0.156,1.006-0.156c0.381,0,0.741,0.075,1.087,0.182V2.547 c0.73,0.135,1.41,0.412,2.01,0.803L9.673,4.695c0.627,0.342,1.138,0.854,1.478,1.481l1.376-1.376 c0.426,0.602,0.737,1.291,0.897,2.038h-1.997C11.533,7.182,11.606,7.54,11.606,7.918z"/></svg>