<?xml version="1.0"?><!DOCTYPE svg PUBLIC "-//W3C//DTD SVG 1.1//EN" "http://www.w3.org/Graphics/SVG/1.1/DTD/svg11.dtd"><svg xmlns="http://www.w3.org/2000/svg" viewBox="0 0 16 16" shape-rendering="geometricPrecision" fill="#ffad00"><defs><mask id="refresh-path"><rect fill="#fff" width="100%" height="100%"/><path d="M17.514,2.671l-0.862-0.552L16.65-1h-2.866v0.558c-1.334-0.3-2.758,0.103-3.723,1.067 c-1.569,1.569-1.554,4.141,0.035,5.732c0.779,0.777,1.809,1.205,2.901,1.205c1.071,0,2.077-0.415,2.831-1.168 C16.585,5.639,17.001,4.631,17,3.557l0-0.886H17.514z M14.141,3.558c0,0.22-0.058,0.539-0.333,0.813 c-0.443,0.443-1.23,0.426-1.69-0.035c-0.475-0.475-0.49-1.234-0.036-1.689c0.011-0.011,0.021-0.022,0.033-0.031l0,0.922h2.026 V3.558z" fill="#000"/></mask></defs><path display="inline" d="M13.114,2.537h2.538L15.651,0h-0.867v1.105 c-1.204-0.927-2.924-0.863-4.016,0.227C9.581,2.52,9.606,4.451,10.803,5.649c1.201,1.198,3.131,1.224,4.319,0.037 C15.707,5.102,16.001,4.329,16,3.558l-0.859,0.001c-0.001,0.557-0.208,1.102-0.627,1.521c-0.843,0.842-2.231,0.836-3.104-0.036 c-0.871-0.872-0.877-2.26-0.035-3.105c0.729-0.727,1.86-0.818,2.721-0.268h-0.983L13.114,2.537z" fill="#cb1800"/><path mask="url(#refresh-path)" d="M14.9,4.223l-2.144-0.193c-0.665-1.139-1.984-1.804-3.359-1.566C8.062,2.695,7.062,3.711,6.782,4.955 c-0.099,0.53-0.099,1.291-0.557,2.091C4.599,7.413,2.9,7.246,2.9,7.246s0.273,1.135,2.174,2.048 c-1.721,2.305-4.06,2.705-4.06,2.705s1.001,0.983,3.196,0.725c0.803-0.095,1.504-0.457,1.826-0.646l-2.271,1.408 c0,0,1.385,0.422,4.327-0.488c3.759-1.162,4.873-4.779,4.845-6.051c0.006-0.013,0.01-0.025,0.016-0.039l2.035-0.852l-2.093-0.433 L14.9,4.223z M10.907,5.674c-0.297,0-0.539-0.322-0.539-0.719c0-0.397,0.242-0.718,0.539-0.718c0.298,0,0.539,0.321,0.539,0.718 C11.446,5.352,11.205,5.674,10.907,5.674z"/></svg>
