<svg width="16" height="16" xmlns="http://www.w3.org/2000/svg" viewBox="0 0 16 16" shape-rendering="geometricPrecision" fill="#6e6e6e"><defs><mask id="a"><rect fill="#fff" width="100%" height="100%"/><path d="M13.848-1.1L12.05.695l.287.287c-1.812.575-3.107 2.263-3.107 4.254v.987h2.626v-.988c0-.49.19-.954.538-1.302l.03-.03 1.425 1.42 3.21-3.212L13.85-1.1z" fill="#000"/></mask></defs><path d="M13.848-.04l-.736.735.82.82H13.7l-.157.01c-1.978.083-3.563 1.713-3.563 3.71v.237h1.126v-.237c0-.69.27-1.343.76-1.833s1.14-.76 1.832-.76h.3l-.886.888.735.734L16 2.11 13.848-.04z" fill="#cb1800"/><path d="M5.687 5.66c0-1.278 1.036-2.31 2.313-2.31 1.276 0 2.312 1.032 2.312 2.31v1.15h1.414V5.66c0-2.058-1.668-3.726-3.726-3.726-2.06 0-3.728 1.67-3.728 3.727v1.15h1.414V5.66zM3.062 7.793V15h9.876V7.79H3.062zm5.808 4.802c0 .48-.388.867-.867.867-.48 0-.872-.388-.872-.866v-2.396c0-.478.392-.867.87-.867.482 0 .87.39.87.868v2.396z" mask="url(#a)"/></svg>