<svg width="16" height="16" xmlns="http://www.w3.org/2000/svg" viewBox="0 0 16 16" shape-rendering="geometricPrecision" fill="#6e6e6e"><defs><mask id="a"><rect fill="#fff" width="100%" height="100%"/><path d="M13.848-1.1L12.05.695l.287.287c-1.812.575-3.107 2.263-3.107 4.254v.987h2.626v-.988c0-.49.19-.954.538-1.302l.03-.03 1.425 1.42 3.21-3.212L13.85-1.1z" fill="#000"/></mask></defs><path d="M13.848-.04l-.736.735.82.82H13.7l-.157.01c-1.978.083-3.563 1.713-3.563 3.71v.237h1.126v-.237c0-.69.27-1.343.76-1.833s1.14-.76 1.832-.76h.3l-.886.888.735.734L16 2.11 13.848-.04z" fill="#cb1800"/><path d="M11.348 7.312c.788.008 1.464.478 1.78 1.146v-3.71H9.052c.633-.33 1.073-.975 1.08-1.738.012-1.1-.87-2-1.97-2.01-1.1-.012-2 .87-2.01 1.97-.01.775.432 1.44 1.076 1.777H2.872V15h2.95c-.643-.335-1.084-1.012-1.076-1.787.01-1.1.912-1.982 2.01-1.972 1.1.012 1.983.913 1.972 2.014-.01.763-.45 1.42-1.084 1.747h5.48v-4.844c-.322.68-1.02 1.146-1.82 1.137-1.1-.01-1.982-.91-1.97-2.01.01-1.1.912-1.982 2.012-1.97z" mask="url(#a)"/></svg>