<svg width="16" height="16" xmlns="http://www.w3.org/2000/svg" viewBox="0 0 16 16" shape-rendering="geometricPrecision" fill="#6e6e6e"><defs><mask id="a"><rect fill="#fff" width="100%" height="100%"/><path d="M13.848-1.1L12.05.695l.287.287c-1.812.575-3.107 2.263-3.107 4.254v.987h2.626v-.988c0-.49.19-.954.538-1.302l.03-.03 1.425 1.42 3.21-3.212L13.85-1.1z" fill="#000"/></mask></defs><path d="M13.848-.04l-.736.735.82.82H13.7l-.157.01c-1.978.083-3.563 1.713-3.563 3.71v.237h1.126v-.237c0-.69.27-1.343.76-1.833s1.14-.76 1.832-.76h.3l-.886.888.735.734L16 2.11 13.848-.04z" fill="#cb1800"/><path mask="url(#a)" d="M4.212 1.067c1.07 0 1.604.865 1.604 1.832 0 1.12.03 2.547.03 2.547h5.504c1.123 0 1.922.62 1.922 1.56 0 1.124-.687 1.686-1.81 1.686H5.876v1s.5 1.994 2.123 1.994h3.462c.874 0 1.623.58 1.623 1.58 0 .997-.518 1.665-1.592 1.665H7.82c-3.145 0-5.095-1.23-5.095-4.738V3.042c.002-1.218.49-1.975 1.487-1.975z"/></svg>