<?xml version="1.0"?><!DOCTYPE svg PUBLIC "-//W3C//DTD SVG 1.1//EN" "http://www.w3.org/Graphics/SVG/1.1/DTD/svg11.dtd"><svg width="16px" height="16px" xmlns="http://www.w3.org/2000/svg" viewBox="0 0 16 16" shape-rendering="geometricPrecision" fill="#abb7ce"><defs><mask id="move_left-path"><rect fill="#fff" width="100%" height="100%"/><polygon points="16.383,1.058 13.913,-1.415 9.403,3.097 13.914,7.603 16.383,5.134 14.348,3.095 " fill="#000"/></mask></defs><polygon points="12.935,3.095 14.97,1.058 13.913,0 10.817,3.097 13.913,6.189 14.97,5.133 " fill="#cb1800"/><g mask="url(#move_left-path)"><path d="M1.059,3.199v2.777c0,0.59,0.481,1.07,1.07,1.07h2.768c0.052,0.069,0.866,1.123,2.333,1.35 C6.714,7.935,6.6,7.431,6.612,7.047h0.499c0.588,0,1.069-0.48,1.069-1.07V3.199c0-0.588-0.481-1.07-1.069-1.07H2.129 C1.54,2.129,1.059,2.611,1.059,3.199z M2.333,4.625h4.509v0.629H2.333V4.625z M2.333,3.322h4.509v0.63H2.333V3.322z"/><g><path d="M13.15,6.007c0-1.177-0.954-2.13-2.129-2.13c-1.18,0-2.131,0.953-2.131,2.13c0,1.178,0.951,2.13,2.131,2.13 C12.196,8.137,13.15,7.185,13.15,6.007z M6.987,11.201v2.669h8.067v-2.669c0-1.129-0.918-2.053-2.047-2.053H9.041 C7.913,9.148,6.987,10.072,6.987,11.201z"/></g></g></svg>