<svg width="16" height="16" xmlns="http://www.w3.org/2000/svg" viewBox="0 0 16 16" shape-rendering="geometricPrecision" fill="#24437c"><defs><mask id="a"><rect fill="#fff" width="100%" height="100%"/><path d="M17.514 2.67l-.862-.55L16.65-1h-2.866v.558c-1.334-.3-2.758.103-3.723 1.067-1.568 1.57-1.553 4.14.036 5.732.78.777 1.81 1.205 2.9 1.205 1.072 0 2.078-.415 2.832-1.168C16.585 5.64 17 4.63 17 3.557V2.67h.514zm-3.373.888c0 .22-.057.54-.332.813-.443.444-1.23.427-1.69-.034-.475-.475-.49-1.234-.036-1.69.01-.01.02-.02.033-.03v.922h2.026v.02z" fill="#000"/></mask></defs><path d="M13.114 2.537h2.538V0h-.868v1.105c-1.204-.927-2.924-.863-4.016.227-1.187 1.188-1.162 3.12.035 4.317 1.2 1.197 3.13 1.223 4.32.036.584-.584.878-1.357.877-2.128h-.86c0 .558-.207 1.103-.626 1.522-.843.842-2.23.836-3.104-.036-.87-.872-.877-2.26-.035-3.105.73-.728 1.86-.82 2.72-.27h-.982v.867z" fill="#cb1800"/><path mask="url(#a)" d="M14.55 13.12L14.54 0H4.093c-1.376.003-2.498.62-2.52 1.987-.004.025-.004.53 0 .535v.003c0 .04.008.076.01.117h-.01v10.826C1.575 14.865 2.71 16 4.105 16h8.386l-.038-1.69-.01-11.344h-8.35c-.495 0-1.68-.048-1.68-.98v-.093C2.465 1.008 3.598.84 4.093.84h9.594v12.28h.864zm-2.9-2.23v1.745H6.376V10.89c0-.74.6-1.343 1.34-1.343h2.593c.738 0 1.343.603 1.343 1.342zM9.014 6.1c.77 0 1.395.624 1.395 1.394 0 .77-.623 1.393-1.395 1.393-.77 0-1.393-.623-1.393-1.393S8.243 6.1 9.013 6.1zm-3.638 0c.77 0 1.394.624 1.394 1.394 0 .77-.624 1.393-1.395 1.393-.77 0-1.393-.623-1.393-1.393S4.606 6.1 5.375 6.1zm-2.637 4.79c0-.74.6-1.343 1.34-1.343H6.06c-.3.37-.484.832-.485 1.342v1.745H2.738V10.89z"/></svg>