<svg width="16" height="16" xmlns="http://www.w3.org/2000/svg" viewBox="0 0 16 16" shape-rendering="geometricPrecision" fill="#24437c"><defs><mask id="a"><rect fill="#fff" width="100%" height="100%"/><path d="M17.514 2.67l-.862-.55L16.65-1h-2.866v.558c-1.334-.3-2.758.103-3.723 1.067-1.568 1.57-1.553 4.14.036 5.732.78.777 1.81 1.205 2.9 1.205 1.072 0 2.078-.415 2.832-1.168C16.585 5.64 17 4.63 17 3.557V2.67h.514zm-3.373.888c0 .22-.057.54-.332.813-.443.444-1.23.427-1.69-.034-.475-.475-.49-1.234-.036-1.69.01-.01.02-.02.033-.03v.922h2.026v.02z" fill="#000"/></mask></defs><path d="M13.114 2.537h2.538V0h-.868v1.105c-1.204-.927-2.924-.863-4.016.227-1.187 1.188-1.162 3.12.035 4.317 1.2 1.197 3.13 1.223 4.32.036.584-.584.878-1.357.877-2.128h-.86c0 .558-.207 1.103-.626 1.522-.843.842-2.23.836-3.104-.036-.87-.872-.877-2.26-.035-3.105.73-.728 1.86-.82 2.72-.27h-.982v.867z" fill="#cb1800"/><path mask="url(#a)" d="M12.377 4.153c.106-.264.167-.55.167-.85 0-1.256-1.015-2.27-2.27-2.27-1.066 0-1.955.738-2.197 1.732C7.857 1.757 6.96 1 5.883 1c-1.242 0-2.25 1.01-2.25 2.25 0 .28.06.546.15.79-1.492.955-2.447 2.488-2.447 4.504C1.336 12.108 4.318 15 8 15c3.68 0 6.663-2.892 6.663-6.456 0-1.94-.887-3.432-2.286-4.39zm-4.42-.912c1.12 0 2.03 1.144 2.03 2.554 0 1.408-.91 2.55-2.03 2.55-1.12 0-2.028-1.142-2.028-2.55-.002-1.41.906-2.553 2.028-2.553zm.196 10.413c-4.655 0-4.948-4.637-4.948-4.637s2.093.635 4.792.635c2.976 0 5.086-.65 5.087-.65 0 0-.71 4.653-4.93 4.653z"/></svg>