<?xml version="1.0"?><!DOCTYPE svg PUBLIC "-//W3C//DTD SVG 1.1//EN" "http://www.w3.org/Graphics/SVG/1.1/DTD/svg11.dtd"><svg width="16px" height="16px" xmlns="http://www.w3.org/2000/svg" viewBox="0 0 16 16" shape-rendering="geometricPrecision" fill="#24437c"><defs><mask id="refresh-path"><rect fill="#fff" width="100%" height="100%"/><path d="M17.514,2.671l-0.862-0.552L16.65-1h-2.866v0.558c-1.334-0.3-2.758,0.103-3.723,1.067 c-1.569,1.569-1.554,4.141,0.035,5.732c0.779,0.777,1.809,1.205,2.901,1.205c1.071,0,2.077-0.415,2.831-1.168 C16.585,5.639,17.001,4.631,17,3.557l0-0.886H17.514z M14.141,3.558c0,0.22-0.058,0.539-0.333,0.813 c-0.443,0.443-1.23,0.426-1.69-0.035c-0.475-0.475-0.49-1.234-0.036-1.689c0.011-0.011,0.021-0.022,0.033-0.031l0,0.922h2.026 V3.558z" fill="#000"/></mask></defs><path display="inline" d="M13.114,2.537h2.538L15.651,0h-0.867v1.105 c-1.204-0.927-2.924-0.863-4.016,0.227C9.581,2.52,9.606,4.451,10.803,5.649c1.201,1.198,3.131,1.224,4.319,0.037 C15.707,5.102,16.001,4.329,16,3.558l-0.859,0.001c-0.001,0.557-0.208,1.102-0.627,1.521c-0.843,0.842-2.231,0.836-3.104-0.036 c-0.871-0.872-0.877-2.26-0.035-3.105c0.729-0.727,1.86-0.818,2.721-0.268h-0.983L13.114,2.537z" fill="#cb1800"/><g mask="url(#refresh-path)"><g><g><g><g><path d="M13.658,5.408h-3.342C9.18,5.409,8.463,6.048,8.153,6.926h5.392v0.002c0.004,0,0.006-0.002,0.008-0.002 c0.27,0,0.482,0.479,0.482,1.066c0,0.588-0.213,1.064-0.482,1.064H8.146c0.307,0.888,1.026,1.535,2.171,1.535h3.342 C15.223,10.592,16,9.385,16,8C16.002,6.615,15.225,5.408,13.658,5.408z"/></g></g><g><g><path d="M2.454,9.074V9.072c-0.002,0-0.004,0.002-0.006,0.002c-0.268,0-0.484-0.479-0.484-1.066 c0-0.588,0.217-1.064,0.484-1.064h5.406C7.546,6.056,6.828,5.408,5.684,5.408H2.342C0.78,5.408,0,6.615,0,8 c-0.002,1.385,0.777,2.592,2.342,2.592h3.342c1.135-0.001,1.852-0.64,2.162-1.518H2.454z"/></g></g></g><path d="M11.162,7.201H4.85C4.352,7.201,3.948,7.561,3.948,8c0,0.439,0.404,0.797,0.902,0.797h6.312c0.498,0,0.9-0.357,0.9-0.797 C12.062,7.561,11.66,7.201,11.162,7.201z"/></g></g></svg>