<?xml version="1.0"?><!DOCTYPE svg PUBLIC "-//W3C//DTD SVG 1.1//EN" "http://www.w3.org/Graphics/SVG/1.1/DTD/svg11.dtd"><svg xmlns="http://www.w3.org/2000/svg" viewBox="0 0 16 16" shape-rendering="geometricPrecision" fill="#24437c"><defs><mask id="refresh-path"><rect fill="#fff" width="100%" height="100%"/><path d="M17.514,2.671l-0.862-0.552L16.65-1h-2.866v0.558c-1.334-0.3-2.758,0.103-3.723,1.067 c-1.569,1.569-1.554,4.141,0.035,5.732c0.779,0.777,1.809,1.205,2.901,1.205c1.071,0,2.077-0.415,2.831-1.168 C16.585,5.639,17.001,4.631,17,3.557l0-0.886H17.514z M14.141,3.558c0,0.22-0.058,0.539-0.333,0.813 c-0.443,0.443-1.23,0.426-1.69-0.035c-0.475-0.475-0.49-1.234-0.036-1.689c0.011-0.011,0.021-0.022,0.033-0.031l0,0.922h2.026 V3.558z" fill="#000"/></mask></defs><path display="inline" d="M13.114,2.537h2.538L15.651,0h-0.867v1.105 c-1.204-0.927-2.924-0.863-4.016,0.227C9.581,2.52,9.606,4.451,10.803,5.649c1.201,1.198,3.131,1.224,4.319,0.037 C15.707,5.102,16.001,4.329,16,3.558l-0.859,0.001c-0.001,0.557-0.208,1.102-0.627,1.521c-0.843,0.842-2.231,0.836-3.104-0.036 c-0.871-0.872-0.877-2.26-0.035-3.105c0.729-0.727,1.86-0.818,2.721-0.268h-0.983L13.114,2.537z" fill="#cb1800"/><g mask="url(#refresh-path)"><path d="M14.186,9.847c0,0.756-0.626,1.381-1.381,1.384h-5.68l-0.204,0.271c-0.036,0.055-0.853,1.103-2.306,1.798 c0.166-0.458,0.229-0.901,0.225-1.289c0-0.027,0-0.066-0.002-0.119L4.82,11.23H3.195c-0.755-0.003-1.381-0.628-1.381-1.384V4.489 c0-0.759,0.626-1.382,1.381-1.384h9.61c0.755,0.002,1.381,0.625,1.381,1.384V9.847z"/><path d="M12.455,2.215H3.545c-1.404,0-2.543,1.14-2.544,2.545v4.968c0.001,1.402,1.141,2.543,2.544,2.544h0.198 c-0.097,0.406-0.327,0.851-0.833,1.312L1.333,15l2.097-0.321c2.375-0.376,3.844-1.808,4.372-2.407h4.654 c1.405-0.001,2.543-1.142,2.544-2.544V4.76C14.998,3.355,13.86,2.215,12.455,2.215z M13.735,9.728c0,0.7-0.58,1.28-1.28,1.281 H7.189L7,11.262c-0.033,0.05-0.79,1.021-2.137,1.666c0.153-0.425,0.211-0.836,0.208-1.194c0-0.025,0-0.062-0.001-0.11 l-0.018-0.614H3.545c-0.7-0.001-1.28-0.581-1.28-1.281V4.76c0-0.703,0.58-1.28,1.28-1.282h8.909c0.7,0.002,1.28,0.579,1.28,1.282 V9.728z"/></g></svg>
