<?xml version="1.0"?><!DOCTYPE svg PUBLIC "-//W3C//DTD SVG 1.1//EN" "http://www.w3.org/Graphics/SVG/1.1/DTD/svg11.dtd"><svg xmlns="http://www.w3.org/2000/svg" viewBox="0 0 16 16" shape-rendering="geometricPrecision" fill="#24437c"><defs><mask id="refresh-path"><rect fill="#fff" width="100%" height="100%"/><path d="M17.514,2.671l-0.862-0.552L16.65-1h-2.866v0.558c-1.334-0.3-2.758,0.103-3.723,1.067 c-1.569,1.569-1.554,4.141,0.035,5.732c0.779,0.777,1.809,1.205,2.901,1.205c1.071,0,2.077-0.415,2.831-1.168 C16.585,5.639,17.001,4.631,17,3.557l0-0.886H17.514z M14.141,3.558c0,0.22-0.058,0.539-0.333,0.813 c-0.443,0.443-1.23,0.426-1.69-0.035c-0.475-0.475-0.49-1.234-0.036-1.689c0.011-0.011,0.021-0.022,0.033-0.031l0,0.922h2.026 V3.558z" fill="#000"/></mask></defs><path display="inline" d="M13.114,2.537h2.538L15.651,0h-0.867v1.105 c-1.204-0.927-2.924-0.863-4.016,0.227C9.581,2.52,9.606,4.451,10.803,5.649c1.201,1.198,3.131,1.224,4.319,0.037 C15.707,5.102,16.001,4.329,16,3.558l-0.859,0.001c-0.001,0.557-0.208,1.102-0.627,1.521c-0.843,0.842-2.231,0.836-3.104-0.036 c-0.871-0.872-0.877-2.26-0.035-3.105c0.729-0.727,1.86-0.818,2.721-0.268h-0.983L13.114,2.537z" fill="#cb1800"/><g mask="url(#refresh-path)"><g><g><path d="M2.138,11.963c0.624,0,1.128-0.506,1.128-1.13c0-0.622-0.504-1.128-1.128-1.128c-0.623,0-1.13,0.506-1.13,1.128 C1.008,11.457,1.515,11.963,2.138,11.963z M3.187,12.499H1.085C0.486,12.499,0,12.989,0,13.587v1.414h4.276v-1.414 C4.276,12.989,3.786,12.499,3.187,12.499z"/></g><g><path d="M13.862,11.963c0.626,0,1.13-0.506,1.13-1.13c0-0.622-0.504-1.128-1.13-1.128c-0.623,0-1.128,0.506-1.128,1.128 C12.734,11.457,13.239,11.963,13.862,11.963z M14.911,12.499H12.81c-0.599,0-1.086,0.49-1.086,1.088v1.414H16v-1.414 C16,12.989,15.509,12.499,14.911,12.499z"/></g><g><path d="M8.018,2.257c0.624,0,1.128-0.505,1.128-1.129S8.642,0,8.018,0c-0.624,0-1.13,0.504-1.13,1.128S7.394,2.257,8.018,2.257 z M9.067,2.794H6.965c-0.599,0-1.085,0.489-1.085,1.088v1.413h4.276V3.882C10.156,3.283,9.666,2.794,9.067,2.794z"/></g></g><polygon points="8.528,6.989 8.528,5.985 7.508,5.985 7.508,6.989 1.984,6.989 1.984,7.586 1.984,8.001 1.984,8.973 3.041,8.973 3.041,8.001 13.013,8.001 13.013,8.973 13.958,8.973 13.958,8.001 13.958,7.586 13.958,6.989"/></g></svg>
