<svg width="16" height="16" xmlns="http://www.w3.org/2000/svg" viewBox="0 0 16 16" shape-rendering="geometricPrecision" fill="#24437c"><defs><mask id="a"><rect fill="#fff" width="100%" height="100%"/><path d="M17.514 2.67l-.862-.55L16.65-1h-2.866v.558c-1.334-.3-2.758.103-3.723 1.067-1.568 1.57-1.553 4.14.036 5.732.78.777 1.81 1.205 2.9 1.205 1.072 0 2.078-.415 2.832-1.168C16.585 5.64 17 4.63 17 3.557V2.67h.514zm-3.373.888c0 .22-.057.54-.332.813-.443.444-1.23.427-1.69-.034-.475-.475-.49-1.234-.036-1.69.01-.01.02-.02.033-.03v.922h2.026v.02z" fill="#000"/></mask></defs><path d="M13.114 2.537h2.538V0h-.868v1.105c-1.204-.927-2.924-.863-4.016.227-1.187 1.188-1.162 3.12.035 4.317 1.2 1.197 3.13 1.223 4.32.036.584-.584.878-1.357.877-2.128h-.86c0 .558-.207 1.103-.626 1.522-.843.842-2.23.836-3.104-.036-.87-.872-.877-2.26-.035-3.105.73-.728 1.86-.82 2.72-.27h-.982v.867z" fill="#cb1800"/><g mask="url(#a)"><path d="M14.94 10.55c-.202-.565-.823-.86-1.388-.66l-2.98 1.023L6.58 9.29l2.545-.34c.584-.073.998-.605.924-1.19-.075-.583-.607-.997-1.19-.924l-5.797.73c-.163.022-.31.082-.44.165-.16.065-.296.193-.36.367l-.054.14c-.015.036-.03.07-.04.107l-1.132 3.018c-.07.19-.044.39.054.552.264.58 1.506 1.4 2.652 1.83l2.754.512c.192.03.363.04.538.03.17.026.35.016.524-.046l.448-.154.376-.116c1.504-.48 3.18-1.067 3.81-1.314.008-.003.012-.008.02-.01l2.066-.71c.565-.2.86-.82.66-1.386z"/><path d="M8.568 1.7C6.023 1.7 3.96 3.76 3.96 6.306c0 .18.013.358.033.534l.925-.116c-.02-.15-.032-.304-.032-.46 0-2.035 1.65-3.685 3.684-3.685 2.034 0 3.684 1.648 3.684 3.683 0 1.594-1.015 2.948-2.432 3.46l.83.523.62-.213c1.152-.838 1.905-2.192 1.905-3.726 0-2.545-2.064-4.608-4.61-4.608z"/></g></svg>