<?xml version="1.0"?><!DOCTYPE svg PUBLIC "-//W3C//DTD SVG 1.1//EN" "http://www.w3.org/Graphics/SVG/1.1/DTD/svg11.dtd"><svg width="16px" height="16px" xmlns="http://www.w3.org/2000/svg" viewBox="0 0 16 16" shape-rendering="geometricPrecision" fill="#fff"><defs><mask id="decline-path"><rect fill="#fff" width="100%" height="100%"/><polygon points="17.414,1.215 14.79,-1.414 13.066,0.308 11.344,-1.414 8.717,1.213 10.439,2.934 8.715,4.656 11.345,7.284 13.067,5.562 14.789,7.285 17.414,4.655 15.693,2.935 " fill="#000"/></mask></defs><g fill="#cb1800"><polygon points="16,4.656 14.278,2.935 16,1.214 14.789,0.001 13.066,1.722 11.344,0.001 10.132,1.213 11.854,2.934 10.13,4.656 11.345,5.87 13.067,4.147 14.789,5.87 "/></g><g mask="url(#decline-path)"><path d="M1.811-0.001v16h12.378v-16H1.811z M13.151,14.961H2.793V1.011h10.357V14.961z"/><path d="M8.067,4.602c0.761,0,1.374-0.616,1.374-1.373c0-0.756-0.613-1.372-1.374-1.372 c-0.757,0-1.372,0.616-1.372,1.372C6.695,3.986,7.31,4.602,8.067,4.602z M9.421,12.498v-6.49H5.312v1.02H6.66v5.471H5.307v1.359 h5.467v-1.359H9.421z"/></g></svg>