<?xml version="1.0"?><!DOCTYPE svg PUBLIC "-//W3C//DTD SVG 1.1//EN" "http://www.w3.org/Graphics/SVG/1.1/DTD/svg11.dtd"><svg xmlns="http://www.w3.org/2000/svg" viewBox="0 0 16 16" shape-rendering="geometricPrecision" fill="#fff"><defs><mask id="decline-path"><rect fill="#fff" width="100%" height="100%"/><polygon points="17.414,1.215 14.79,-1.414 13.066,0.308 11.344,-1.414 8.717,1.213 10.439,2.934 8.715,4.656 11.345,7.284 13.067,5.562 14.789,7.285 17.414,4.655 15.693,2.935 " fill="#000"/></mask></defs><g fill="#cb1800"><polygon points="16,4.656 14.278,2.935 16,1.214 14.789,0.001 13.066,1.722 11.344,0.001 10.132,1.213 11.854,2.934 10.13,4.656 11.345,5.87 13.067,4.147 14.789,5.87 "/></g><g mask="url(#decline-path)"><path d="M3.359,0v1.056h10.329v12.842h1.072V0H3.359z M1.24,16h11.401V2.102H1.24V16z M6.956,3.726 c1.467,0,2.651,1.188,2.651,2.651c0,1.47-1.185,2.653-2.651,2.653c-1.464,0-2.653-1.184-2.653-2.653 C4.302,4.914,5.492,3.726,6.956,3.726z M2.447,12.184c0-1.263,1.027-2.295,2.288-2.295h4.435c1.262,0,2.296,1.032,2.296,2.295 v2.98H2.447V12.184z"/></g></svg>
