<?xml version="1.0"?><!DOCTYPE svg PUBLIC "-//W3C//DTD SVG 1.1//EN" "http://www.w3.org/Graphics/SVG/1.1/DTD/svg11.dtd"><svg xmlns="http://www.w3.org/2000/svg" viewBox="0 0 16 16" shape-rendering="geometricPrecision" fill="#fff"><defs><mask id="decline-path"><rect fill="#fff" width="100%" height="100%"/><polygon points="17.414,1.215 14.79,-1.414 13.066,0.308 11.344,-1.414 8.717,1.213 10.439,2.934 8.715,4.656 11.345,7.284 13.067,5.562 14.789,7.285 17.414,4.655 15.693,2.935 " fill="#000"/></mask></defs><g fill="#cb1800"><polygon points="16,4.656 14.278,2.935 16,1.214 14.789,0.001 13.066,1.722 11.344,0.001 10.132,1.213 11.854,2.934 10.13,4.656 11.345,5.87 13.067,4.147 14.789,5.87 "/></g><path mask="url(#decline-path)" d="M8.001,1.042c-3.844,0-6.959,3.115-6.959,6.961c0,3.841,3.116,6.954,6.959,6.955 c3.843-0.001,6.956-3.114,6.958-6.955C14.958,4.157,11.844,1.042,8.001,1.042z M11.606,7.918c0,0.354-0.065,0.69-0.159,1.014h2.018 c-0.133,0.778-0.423,1.502-0.842,2.134l-1.449-1.449c-0.331,0.634-0.836,1.153-1.458,1.502l1.44,1.44 c-0.633,0.439-1.361,0.749-2.147,0.895v-2.032c-0.346,0.107-0.706,0.182-1.087,0.182c-0.352,0-0.684-0.064-1.006-0.156v1.996 c-0.776-0.155-1.493-0.474-2.116-0.915l1.38-1.38c-0.627-0.34-1.141-0.852-1.481-1.479L3.35,11.019 c-0.405-0.621-0.686-1.328-0.815-2.088h1.863C4.304,8.608,4.239,8.272,4.239,7.918c0-0.378,0.074-0.736,0.179-1.079H2.576 C2.732,6.11,3.031,5.436,3.442,4.844l1.281,1.28c0.349-0.621,0.869-1.126,1.501-1.457l-1.29-1.29 c0.591-0.392,1.261-0.675,1.982-0.818v1.832c0.322-0.092,0.654-0.156,1.006-0.156c0.381,0,0.741,0.075,1.087,0.182V2.547 c0.73,0.135,1.41,0.412,2.01,0.803L9.673,4.695c0.627,0.342,1.138,0.854,1.478,1.481l1.376-1.376 c0.426,0.602,0.737,1.291,0.897,2.038h-1.997C11.533,7.182,11.606,7.54,11.606,7.918z"/></svg>
