<?xml version="1.0"?><!DOCTYPE svg PUBLIC "-//W3C//DTD SVG 1.1//EN" "http://www.w3.org/Graphics/SVG/1.1/DTD/svg11.dtd"><svg width="16px" height="16px" xmlns="http://www.w3.org/2000/svg" viewBox="0 0 16 16" shape-rendering="geometricPrecision" fill="#fff"><defs><mask id="decline-path"><rect fill="#fff" width="100%" height="100%"/><polygon points="17.414,1.215 14.79,-1.414 13.066,0.308 11.344,-1.414 8.717,1.213 10.439,2.934 8.715,4.656 11.345,7.284 13.067,5.562 14.789,7.285 17.414,4.655 15.693,2.935 " fill="#000"/></mask></defs><g fill="#cb1800"><polygon points="16,4.656 14.278,2.935 16,1.214 14.789,0.001 13.066,1.722 11.344,0.001 10.132,1.213 11.854,2.934 10.13,4.656 11.345,5.87 13.067,4.147 14.789,5.87 "/></g><g mask="url(#decline-path)"><path d="M13.997,2.942v9.965H2.958V2.942H13.997 M14.997,1.942H1.958v11.965h13.039V1.942L14.997,1.942z"/><rect x="1.958" y="4.06" width="13.054" height="1.064"/><rect x="5.871" y="4.06" width="1.064" height="9.576"/><rect x="10.102" y="4.06" width="1.064" height="9.576"/><rect x="3.985" y="5.89" width="1.106" height="1.106"/><rect x="3.985" y="10.89" width="1.106" height="1.106"/><rect x="7.932" y="8.849" width="1.106" height="1.106"/><rect x="7.932" y="6.996" width="1.106" height="1.106"/><rect x="11.942" y="9.955" width="1.106" height="1.106"/><rect x="11.942" y="8" width="1.106" height="1.106"/></g></svg>