<svg width="16" height="16" xmlns="http://www.w3.org/2000/svg" viewBox="0 0 16 16" shape-rendering="geometricPrecision" fill="#ffad00"><defs><mask id="a"><rect fill="#fff" width="100%" height="100%"/><path fill="#000" d="M14.782 1.217V-1h-3.564v2.217H9V4.78h2.218V7h3.564V4.78H17V1.217z"/></mask></defs><path fill="#cb1800" d="M16 2.217h-2.218V0h-1.564v2.217H10V3.78h2.218V6h1.564V3.78H16"/><path d="M3.176 8.302L0 11.48l1.65 1.65 4.83-4.833-4.83-4.825L0 5.122 3.176 8.3zM16 .605H7.144V14.7H8.21V1.67l4.058.003-2.67.764V16l6.4-1.832V1.674H16V.604z" mask="url(#a)"/></svg>