<?xml version="1.0"?><!DOCTYPE svg PUBLIC "-//W3C//DTD SVG 1.1//EN" "http://www.w3.org/Graphics/SVG/1.1/DTD/svg11.dtd"><svg xmlns="http://www.w3.org/2000/svg" viewBox="0 0 16 16" shape-rendering="geometricPrecision" fill="#ffad00"><defs><mask id="add-path"><rect fill="#fff" width="100%" height="100%"/><polygon points="14.782,1.217 14.782,-1 11.218,-1 11.218,1.217 9,1.217 9,4.78 11.218,4.78 11.218,7.001 14.782,7.001 14.782,4.78 17,4.78 17,1.217 " fill="#000"/></mask></defs><polygon points="16,2.217 13.782,2.217 13.782,0 12.218,0 12.218,2.217 10,2.217 10,3.78 12.218,3.78 12.218,6.001 13.782,6.001 13.782,3.78 16,3.78 " fill="#cb1800"/><g mask="url(#add-path)"><g><polygon points="2.764,2.068 4.554,0.277 8.001,3.724 11.448,0.277 13.237,2.068 7.998,7.307"/><path d="M1.041,8.334v6.636h13.958V8.334H1.041z M12.198,12.248c-0.599,0-1.081-0.484-1.081-1.082s0.482-1.08,1.081-1.08 c0.596,0,1.081,0.482,1.081,1.08S12.794,12.248,12.198,12.248z"/></g></g></svg>
