<?xml version="1.0"?><!DOCTYPE svg PUBLIC "-//W3C//DTD SVG 1.1//EN" "http://www.w3.org/Graphics/SVG/1.1/DTD/svg11.dtd"><svg xmlns="http://www.w3.org/2000/svg" viewBox="0 0 16 16" shape-rendering="geometricPrecision" fill="#ffad00"><defs><mask id="add-path"><rect fill="#fff" width="100%" height="100%"/><polygon points="14.782,1.217 14.782,-1 11.218,-1 11.218,1.217 9,1.217 9,4.78 11.218,4.78 11.218,7.001 14.782,7.001 14.782,4.78 17,4.78 17,1.217 " fill="#000"/></mask></defs><polygon points="16,2.217 13.782,2.217 13.782,0 12.218,0 12.218,2.217 10,2.217 10,3.78 12.218,3.78 12.218,6.001 13.782,6.001 13.782,3.78 16,3.78 " fill="#cb1800"/><g mask="url(#add-path)"><g><g><path d="M13.1,6.144c0-1.174-0.952-2.124-2.124-2.124c-1.176,0-2.125,0.95-2.125,2.124c0,1.175,0.949,2.124,2.125,2.124 C12.148,8.268,13.1,7.318,13.1,6.144z M6.953,11.324v2.661h8.045v-2.661c0-1.126-0.915-2.047-2.042-2.047H9.002 C7.875,9.277,6.953,10.198,6.953,11.324z"/></g><path d="M7.077,2.02H2.107c-0.587,0-1.067,0.48-1.067,1.067v2.771c0,0.587,0.48,1.066,1.067,1.066h2.761 C4.92,6.994,5.732,8.044,7.195,8.271C6.68,7.811,6.567,7.308,6.579,6.925h0.498c0.586,0,1.066-0.479,1.066-1.066V3.087 C8.143,2.5,7.663,2.02,7.077,2.02z M4.325,6.293H4.319c-0.27,0-0.457-0.203-0.457-0.474c0-0.28,0.192-0.473,0.462-0.473 c0.281,0,0.464,0.192,0.468,0.473C4.793,6.09,4.605,6.293,4.325,6.293z M4.954,4.354c-0.192,0.213-0.27,0.416-0.265,0.65v0.093 H3.998L3.992,4.962C3.977,4.697,4.064,4.427,4.299,4.151c0.167-0.202,0.302-0.369,0.302-0.546c0-0.182-0.12-0.302-0.38-0.312 c-0.171,0-0.38,0.062-0.514,0.156L3.53,2.884c0.192-0.109,0.5-0.214,0.868-0.214c0.685,0,0.997,0.379,0.997,0.812 C5.395,3.876,5.152,4.136,4.954,4.354z"/></g></g></svg>
