<?xml version="1.0"?><!DOCTYPE svg PUBLIC "-//W3C//DTD SVG 1.1//EN" "http://www.w3.org/Graphics/SVG/1.1/DTD/svg11.dtd"><svg width="16px" height="16px" xmlns="http://www.w3.org/2000/svg" viewBox="0 0 16 16" shape-rendering="geometricPrecision" fill="#ffad00"><defs><mask id="move_right-path"><rect fill="#fff" width="100%" height="100%"/><polygon points="11.875,-1.414 9.405,1.056 11.44,3.095 9.405,5.132 11.875,7.604 16.385,3.093 " fill="#000"/></mask></defs><polygon points="11.875,0 10.818,1.057 12.853,3.095 10.818,5.132 11.875,6.189 14.97,3.093 " fill="#cb1800"/><g mask="url(#move_right-path)"><g><path d="M11.246,9.283c1.382,0,2.497-1.115,2.497-2.495c0-1.378-1.114-2.494-2.497-2.494c-1.377,0-2.496,1.116-2.496,2.494 C8.75,8.168,9.869,9.283,11.246,9.283z M0.005,12.873V16h5.081v-3.128c0.002-0.914,0.335-1.743,0.869-2.403H2.403 C1.081,10.469,0.005,11.551,0.005,12.873z M13.564,10.469H8.919c-1.323,0-2.398,1.082-2.398,2.404V16h9.45v-3.127 C15.971,11.551,14.887,10.469,13.564,10.469z M4.729,4.294c-1.377,0-2.495,1.116-2.495,2.494c0,1.38,1.118,2.495,2.495,2.495 c1.381,0,2.496-1.115,2.496-2.495C7.225,5.41,6.111,4.294,4.729,4.294z"/></g></g></svg>