<svg width="16" height="16" xmlns="http://www.w3.org/2000/svg" viewBox="0 0 16 16" shape-rendering="geometricPrecision" fill="#ffad00"><defs><mask id="a"><rect fill="#fff" width="100%" height="100%"/><path fill="#000" d="M11.875-1.414l-2.47 2.47 2.035 2.04L9.405 5.13l2.47 2.472 4.51-4.51z"/></mask></defs><path fill="#cb1800" d="M11.875 0l-1.057 1.057 2.035 2.038-2.035 2.037 1.057 1.057 3.095-3.097"/><g mask="url(#a)"><path d="M11.17 3.472L9.52 5.124l3.175 3.178-3.176 3.18 1.65 1.65L16 8.304M0 1.67V14.17l6.4 1.83V2.436L3.728 1.67h4.06V14.7h1.067V.605H0V1.67zm1 .236l4.4 1.282v11.564L1 13.47V1.906z"/></g></svg>