<svg width="16" height="16" xmlns="http://www.w3.org/2000/svg" viewBox="0 0 16 16" shape-rendering="geometricPrecision" fill="#ffad00"><defs><mask id="a"><rect fill="#fff" width="100%" height="100%"/><path fill="#000" d="M11.875-1.414l-2.47 2.47 2.035 2.04L9.405 5.13l2.47 2.472 4.51-4.51z"/></mask></defs><path fill="#cb1800" d="M11.875 0l-1.057 1.057 2.035 2.038-2.035 2.037 1.057 1.057 3.095-3.097"/><path d="M8.032 4.168c.888 0 1.605-.72 1.605-1.603C9.637 1.677 8.92.96 8.032.96c-.888 0-1.606.718-1.606 1.605 0 .882.718 1.603 1.606 1.603zm1.583 9.235v-7.59H4.807v1.193h1.576v6.397h-1.58v1.59h6.394v-1.59H9.615z" mask="url(#a)"/></svg>