<svg width="16" height="16" xmlns="http://www.w3.org/2000/svg" viewBox="0 0 16 16" shape-rendering="geometricPrecision" fill="#ffad00"><defs><mask id="a"><rect fill="#fff" width="100%" height="100%"/><path fill="#000" d="M11.875-1.414l-2.47 2.47 2.035 2.04L9.405 5.13l2.47 2.472 4.51-4.51z"/></mask></defs><path fill="#cb1800" d="M11.875 0l-1.057 1.057 2.035 2.038-2.035 2.037 1.057 1.057 3.095-3.097"/><g mask="url(#a)"><path d="M14.49 13.12L14.48 0H4.033C2.658 0 1.536.617 1.514 1.985c-.004.025-.004.53 0 .535v.004c0 .04.008.076.01.117h-.01v10.827c0 1.396 1.134 2.53 2.53 2.53h8.386l-.038-1.688-.01-11.345h-8.35c-.495 0-1.68-.048-1.68-.978v-.094C2.405 1.008 3.538.84 4.033.84h9.594v12.28h.864zM4.01 3.966h7.35l.005 10.992L4.85 15c-1.395 0-2.528-1.135-2.528-2.53 0 0-.005-9.457-.002-9.482h.01c0 .93 1.185.978 1.68.978z"/><path d="M4.525 5.764h5.506V7.01H4.526zM4.525 8.346h5.506V9.59H4.526z"/></g></svg>