<svg width="16" height="16" xmlns="http://www.w3.org/2000/svg" viewBox="0 0 16 16" shape-rendering="geometricPrecision" fill="#ffad00"><defs><mask id="a"><rect fill="#fff" width="100%" height="100%"/><path fill="#000" d="M11.875-1.414l-2.47 2.47 2.035 2.04L9.405 5.13l2.47 2.472 4.51-4.51z"/></mask></defs><path fill="#cb1800" d="M11.875 0l-1.057 1.057 2.035 2.038-2.035 2.037 1.057 1.057 3.095-3.097"/><path d="M13.03 11.953s-.89 0-1.015-.806c-.187-1.197-.66-4.542-.66-4.542h-.008c-.233-1.326-1.228-2.38-2.52-2.704 0-.02.01-.038.01-.06 0-.47-.38-.85-.85-.85s-.853.38-.853.85c0 .025.012.045.014.07-1.28.33-2.264 1.378-2.495 2.696h-.007s-.5 3.352-.663 4.557c-.106.79-1.014.79-1.014.79v1.032h2.133c.2.598.756 1.03 1.42 1.03s1.222-.433 1.42-1.03h5.087v-1.032z" mask="url(#a)"/></svg>