<svg width="16" height="16" xmlns="http://www.w3.org/2000/svg" viewBox="0 0 16 16" shape-rendering="geometricPrecision" fill="#ffad00"><defs><mask id="a"><rect fill="#fff" width="100%" height="100%"/><path fill="#000" d="M11.875-1.414l-2.47 2.47 2.035 2.04L9.405 5.13l2.47 2.472 4.51-4.51z"/></mask></defs><path fill="#cb1800" d="M11.875 0l-1.057 1.057 2.035 2.038-2.035 2.037 1.057 1.057 3.095-3.097"/><g mask="url(#a)"><path d="M8.29 3.837H6.675V7.25h1.71c.637 0 1.126-.148 1.47-.448.344-.3.516-.728.516-1.285 0-1.12-.693-1.68-2.08-1.68z"/><path d="M8 0C3.582 0 0 3.582 0 8s3.582 8 8 8 8-3.582 8-8-3.582-8-8-8zm3.51 7.243c-.317.49-.753.845-1.305 1.066-.552.22-1.344.332-2.375.332H6.674v4.734h-1.57V2.446h3.46c1.043 0 1.873.28 2.493.844s.93 1.317.93 2.266c0 .635-.16 1.198-.477 1.687z"/></g></svg>