<svg width="16" height="16" xmlns="http://www.w3.org/2000/svg" viewBox="0 0 16 16" shape-rendering="geometricPrecision" fill="#ffad00"><defs><mask id="a"><rect fill="#fff" width="100%" height="100%"/><path fill="#000" d="M11.875-1.414l-2.47 2.47 2.035 2.04L9.405 5.13l2.47 2.472 4.51-4.51z"/></mask></defs><path fill="#cb1800" d="M11.875 0l-1.057 1.057 2.035 2.038-2.035 2.037 1.057 1.057 3.095-3.097"/><path mask="url(#a)" d="M13.053 8.004c.064-.324.1-.657.1-1 0-2.86-2.317-5.18-5.18-5.18-2.856 0-5.177 2.32-5.177 5.178h1.54C4.34 4.995 5.97 3.365 7.975 3.365c2.01 0 3.64 1.63 3.64 3.64 0 .35-.066.68-.158 1h-1.82c.177-.294.285-.634.285-1 0-1.075-.872-1.947-1.946-1.947S6.03 5.93 6.03 7.004c0 .367.107.707.284 1H.958v5.482h14.084V8.004h-1.99zm-1.676 2.74H4.622v-1.46h6.755v1.46z"/></svg>