<?xml version="1.0"?><!DOCTYPE svg PUBLIC "-//W3C//DTD SVG 1.1//EN" "http://www.w3.org/Graphics/SVG/1.1/DTD/svg11.dtd"><svg width="16px" height="16px" xmlns="http://www.w3.org/2000/svg" viewBox="0 0 16 16" shape-rendering="geometricPrecision" fill="#ffad00"><defs><mask id="move_right-path"><rect fill="#fff" width="100%" height="100%"/><polygon points="11.875,-1.414 9.405,1.056 11.44,3.095 9.405,5.132 11.875,7.604 16.385,3.093 " fill="#000"/></mask></defs><polygon points="11.875,0 10.818,1.057 12.853,3.095 10.818,5.132 11.875,6.189 14.97,3.093 " fill="#cb1800"/><g mask="url(#move_right-path)"><path d="M12.5,3.976H3.562c-0.859,0-1.556,0.697-1.556,1.556v4.906c0,0.859,0.697,1.556,1.556,1.556H12.5 c0.859,0,1.556-0.697,1.556-1.556V5.532C14.056,4.673,13.359,3.976,12.5,3.976z M6.936,10.201l0.001-4.265L9.75,8.068 L6.936,10.201z"/></g></svg>