<svg width="16" height="16" xmlns="http://www.w3.org/2000/svg" viewBox="0 0 16 16" shape-rendering="geometricPrecision" fill="#fff"><defs><mask id="a"><rect width="100%" height="100%"/><path fill="#000" d="M14.5 1.716L13-.37l-1.5 2.086-1.983-2.76-.836.01 1.89 6.812h4.86l1.883-6.792-.84-.013z"/></mask></defs><path fill="#FCC70A" d="M14.858 5.028H11.14L10 .914l.748 1.043.75 1.045.75-1.045L13 .914l.75 1.043.75 1.045.75-1.045L16 .914"/><path d="M14.814 2.33L12.486 0 8 4.484 3.51 0 1.186 2.33l6.818 6.813 6.81-6.812zM8 11.34L3.51 6.854l-2.325 2.33L8.003 16l6.81-6.814-2.327-2.33L8 11.34z" mask="url(#a)"/></svg>