<svg width="16" height="16" xmlns="http://www.w3.org/2000/svg" viewBox="0 0 16 16" shape-rendering="geometricPrecision" fill="#fff"><defs><mask id="a"><rect width="100%" height="100%"/><path fill="#000" d="M14.5 1.716L13-.37l-1.5 2.086-1.983-2.76-.836.01 1.89 6.812h4.86l1.883-6.792-.84-.013z"/></mask></defs><path fill="#FCC70A" d="M14.858 5.028H11.14L10 .914l.748 1.043.75 1.045.75-1.045L13 .914l.75 1.043.75 1.045.75-1.045L16 .914"/><path d="M3.176 8.302L0 11.48l1.65 1.65 4.83-4.833-4.83-4.825L0 5.122 3.176 8.3zM16 .605H7.144V14.7H8.21V1.67l4.058.003-2.67.764V16l6.4-1.832V1.674H16V.604z" mask="url(#a)"/></svg>