<svg width="16" height="16" xmlns="http://www.w3.org/2000/svg" viewBox="0 0 16 16" shape-rendering="geometricPrecision" fill="#fff"><defs><mask id="a"><rect width="100%" height="100%"/><path fill="#000" d="M14.5 1.716L13-.37l-1.5 2.086-1.983-2.76-.836.01 1.89 6.812h4.86l1.883-6.792-.84-.013z"/></mask></defs><path fill="#FCC70A" d="M14.858 5.028H11.14L10 .914l.748 1.043.75 1.045.75-1.045L13 .914l.75 1.043.75 1.045.75-1.045L16 .914"/><path d="M9.34 5.662c0-1.28 1.037-2.313 2.315-2.313 1.276 0 2.312 1.033 2.312 2.312V6.81h1.413V5.662c0-2.06-1.668-3.728-3.725-3.728-2.06 0-3.728 1.67-3.728 3.728V6.81H9.34V5.662zM.62 7.792V15h9.875V7.79H.62zm5.806 4.802c0 .48-.388.867-.867.867-.482 0-.872-.388-.872-.866v-2.396c0-.478.39-.866.868-.866.482 0 .87.39.87.866v2.396z" mask="url(#a)"/></svg>