<svg width="16" height="16" xmlns="http://www.w3.org/2000/svg" viewBox="0 0 16 16" shape-rendering="geometricPrecision" fill="#fff"><defs><mask id="a"><rect width="100%" height="100%"/><path fill="#000" d="M14.5 1.716L13-.37l-1.5 2.086-1.983-2.76-.836.01 1.89 6.812h4.86l1.883-6.792-.84-.013z"/></mask></defs><path fill="#FCC70A" d="M14.858 5.028H11.14L10 .914l.748 1.043.75 1.045.75-1.045L13 .914l.75 1.043.75 1.045.75-1.045L16 .914"/><path d="M7.468 11.335c-1.04 0-1.782.742-1.782 1.824 0 1.04.722 1.82 1.763 1.82h.02c1.082 0 1.804-.78 1.804-1.82-.02-1.083-.723-1.825-1.806-1.825zm.28-10.317c-1.42 0-2.603.4-3.344.822l.68 2.182c.52-.36 1.323-.6 1.984-.6 1.002.04 1.463.5 1.463 1.203 0 .68-.52 1.32-1.16 2.102-.902 1.063-1.243 2.106-1.182 3.126l.02.52h2.664v-.36c-.02-.9.28-1.682 1.02-2.504.763-.84 1.703-1.843 1.703-3.366 0-1.663-1.2-3.126-3.846-3.126z" mask="url(#a)"/></svg>