<?xml version="1.0"?><!DOCTYPE svg PUBLIC "-//W3C//DTD SVG 1.1//EN" "http://www.w3.org/Graphics/SVG/1.1/DTD/svg11.dtd"><svg xmlns="http://www.w3.org/2000/svg" viewBox="0 0 16 16" shape-rendering="geometricPrecision" fill="#00962d"><defs><mask id="move_right-path"><rect fill="#fff" width="100%" height="100%"/><polygon points="11.875,-1.414 9.405,1.056 11.44,3.095 9.405,5.132 11.875,7.604 16.385,3.093 " fill="#000"/></mask></defs><polygon points="11.875,0 10.818,1.057 12.853,3.095 10.818,5.132 11.875,6.189 14.97,3.093 " fill="#cb1800"/><g mask="url(#move_right-path)"><g><polygon points="10.055,14.302 12.595,11.964 10.055,11.964"/><path d="M2.595,1.016v13.969h6.008v-4.468h4.802V1.016H2.595z M12.034,9.043h-4.79v4.601H3.917V2.318h8.116V9.043z"/></g><path fill-rule="evenodd" clip-rule="evenodd" d="M9.795,6.744c0.643,0.512,1.164,0.299,1.088,0.201 C10.653,6.647,10.2,6.647,9.795,6.744z M10.629,6.456C9.985,6.238,9.128,6.455,9.161,6.482C8.729,6.269,8.146,5.959,7.826,4.941 c-0.537-1.705,0-2.255,0.035-1.189l0.108,0.724c0,0,0.371-0.903,0.131-1.562C7.892,2.34,7.29,2.426,7.254,3.487 C7.234,4.072,7.375,4.951,7.44,5.088c0,0-0.558,1.641-1.384,2.931C5.255,9.271,5.206,8.849,5.4,8.432 c0.231-0.496,0.624-0.757,0.755-0.964c0,0-0.609,0.048-1.083,0.86c-0.299,0.514-0.335,1.79,0.941,0.406 c0.253-0.275,0.613-0.852,0.777-1.195c0,0,0.742-0.324,2.514-0.668c0,0,0.478,0.349,1.098,0.492 C11.172,7.54,11.964,6.909,10.629,6.456z M7.004,6.997l0.645-1.482c0.427,0.909,1.033,1.094,1.033,1.094 C8.419,6.643,7.004,6.997,7.004,6.997z"/></g></svg>
