<?xml version="1.0"?><!DOCTYPE svg PUBLIC "-//W3C//DTD SVG 1.1//EN" "http://www.w3.org/Graphics/SVG/1.1/DTD/svg11.dtd"><svg xmlns="http://www.w3.org/2000/svg" viewBox="0 0 16 16" shape-rendering="geometricPrecision" fill="#00962d"><defs><mask id="move_right-path"><rect fill="#fff" width="100%" height="100%"/><polygon points="11.875,-1.414 9.405,1.056 11.44,3.095 9.405,5.132 11.875,7.604 16.385,3.093 " fill="#000"/></mask></defs><polygon points="11.875,0 10.818,1.057 12.853,3.095 10.818,5.132 11.875,6.189 14.97,3.093 " fill="#cb1800"/><g mask="url(#move_right-path)"><rect x="-1.198" y="7.294" transform="matrix(0.7074 -0.7068 0.7068 0.7074 -3.3129 7.9954)" width="18.398" height="1.409"/><polygon points="7.59,3.71 7.59,5.831 9.714,3.71"/><polygon points="3.289,8.548 3.289,10.126 4.871,8.548"/><polygon points="6.394,12.106 5.784,12.716 6.394,12.716"/><polygon points="10.694,12.716 10.694,7.81 7.59,10.911 7.59,12.716"/><polygon points="3.499,15.001 14.995,15.001 14.995,13.899 4.6,13.899"/><polygon points="11.892,6.612 11.892,12.716 14.995,12.716 14.995,6.435 12.07,6.435"/><polygon points="2.095,11.317 2.096,5.708 0.995,5.708 0.995,12.849 0.997,12.415"/><polygon points="0.995,15.001 1.796,14.999 1.796,15.001 1.991,15.001 0.995,14.005"/></g></svg>
