<svg width="16" height="16" xmlns="http://www.w3.org/2000/svg" viewBox="0 0 16 16" shape-rendering="geometricPrecision" fill="#fff"><defs><mask id="a"><rect width="100%" height="100%"/><path d="M13.848-1.1L12.05.695l.287.287c-1.812.575-3.107 2.263-3.107 4.254v.987h2.626v-.988c0-.49.19-.954.538-1.302l.03-.03 1.425 1.42 3.21-3.212L13.85-1.1z" fill="#000"/></mask></defs><path d="M13.848-.04l-.736.735.82.82H13.7l-.157.01c-1.978.083-3.563 1.713-3.563 3.71v.237h1.126v-.237c0-.69.27-1.343.76-1.833s1.14-.76 1.832-.76h.3l-.886.888.735.734L16 2.11 13.848-.04z" fill="#cb1800"/><path d="M12.42 2.295H3.57c-1.395 0-2.527 1.133-2.53 2.528V9.76c.003 1.395 1.135 2.527 2.53 2.53h.196c-.097.4-.325.844-.828 1.303L1.368 15l2.084-.32c2.36-.373 3.82-1.795 4.344-2.39h4.625c1.398-.003 2.528-1.136 2.53-2.53V4.823c-.002-1.395-1.132-2.528-2.53-2.528zm1.273 7.465c0 .696-.577 1.272-1.272 1.274H7.19l-.188.25c-.033.05-.784 1.016-2.124 1.657.153-.42.21-.83.207-1.187v-.108l-.02-.61H3.57c-.695-.002-1.272-.578-1.272-1.274V4.824c0-.698.577-1.272 1.272-1.273h8.853c.697.002 1.273.575 1.273 1.273V9.76zM4.85 6.242c-.64 0-1.156.518-1.156 1.156 0 .637.517 1.155 1.155 1.155.637 0 1.155-.52 1.155-1.155 0-.638-.518-1.156-1.156-1.156zm3.145 0c-.638 0-1.157.518-1.157 1.156 0 .637.52 1.155 1.157 1.155s1.155-.52 1.155-1.155c0-.638-.518-1.156-1.155-1.156zm3.145 0c-.637 0-1.156.518-1.156 1.156 0 .637.52 1.155 1.156 1.155.64 0 1.155-.52 1.155-1.155 0-.638-.517-1.156-1.155-1.156z" mask="url(#a)"/></svg>