<svg width="16" height="16" xmlns="http://www.w3.org/2000/svg" viewBox="0 0 16 16" shape-rendering="geometricPrecision" fill="#fff"><defs><mask id="a"><rect width="100%" height="100%"/><path d="M13.848-1.1L12.05.695l.287.287c-1.812.575-3.107 2.263-3.107 4.254v.987h2.626v-.988c0-.49.19-.954.538-1.302l.03-.03 1.425 1.42 3.21-3.212L13.85-1.1z" fill="#000"/></mask></defs><path d="M13.848-.04l-.736.735.82.82H13.7l-.157.01c-1.978.083-3.563 1.713-3.563 3.71v.237h1.126v-.237c0-.69.27-1.343.76-1.833s1.14-.76 1.832-.76h.3l-.886.888.735.734L16 2.11 13.848-.04z" fill="#cb1800"/><path d="M11.805 2.414c.356-.906-.084-1.934-.99-2.293-.905-.363-1.93.075-2.3.977l-.53 1.317 3.292 1.32.53-1.32h-.002zM4.463 15.97l1.49-1.272-1.675-.668.185 1.94zm-.39-3.78l3.288 1.318 3.555-8.87-3.29-1.317-3.553 8.87z" mask="url(#a)"/></svg>