<svg width="16" height="16" xmlns="http://www.w3.org/2000/svg" viewBox="0 0 16 16" shape-rendering="geometricPrecision" fill="#fff"><defs><mask id="a"><rect width="100%" height="100%"/><path d="M13.848-1.1L12.05.695l.287.287c-1.812.575-3.107 2.263-3.107 4.254v.987h2.626v-.988c0-.49.19-.954.538-1.302l.03-.03 1.425 1.42 3.21-3.212L13.85-1.1z" fill="#000"/></mask></defs><path d="M13.848-.04l-.736.735.82.82H13.7l-.157.01c-1.978.083-3.563 1.713-3.563 3.71v.237h1.126v-.237c0-.69.27-1.343.76-1.833s1.14-.76 1.832-.76h.3l-.886.888.735.734L16 2.11 13.848-.04z" fill="#cb1800"/><path d="M5.97 12.85l1.54-.58-1.132-1.008-.407 1.587zm4.752-7.578v-2.87H0V15.94H10.72V9.75l3.57-4.01-2.222-1.983-1.348 1.515zM9.618 6.514L6.74 9.748l2.22 1.983.658-.738v3.843H1.1V3.505h8.518v3.01zm5.884-4.373c-.61-.546-1.546-.492-2.096.114l-.792.89 2.222 1.984.796-.893h-.002c.538-.614.482-1.55-.128-2.094zM6.456 7.634H2.533v1.103h3.923V7.633zM4.863 5.29h-2.33v1.103h2.33V5.29z" mask="url(#a)"/></svg>