<svg width="16" height="16" xmlns="http://www.w3.org/2000/svg" viewBox="0 0 16 16" shape-rendering="geometricPrecision" fill="#fff"><defs><mask id="a"><rect width="100%" height="100%"/><path d="M13.848-1.1L12.05.695l.287.287c-1.812.575-3.107 2.263-3.107 4.254v.987h2.626v-.988c0-.49.19-.954.538-1.302l.03-.03 1.425 1.42 3.21-3.212L13.85-1.1z" fill="#000"/></mask></defs><path d="M13.848-.04l-.736.735.82.82H13.7l-.157.01c-1.978.083-3.563 1.713-3.563 3.71v.237h1.126v-.237c0-.69.27-1.343.76-1.833s1.14-.76 1.832-.76h.3l-.886.888.735.734L16 2.11 13.848-.04z" fill="#cb1800"/><g mask="url(#a)"><path d="M7.27 8.73H1.03c0 3.443 2.795 6.24 6.238 6.24h.002V8.73z"/><path d="M8.83.928c-3.442 0-6.237 2.793-6.238 6.236H4.45c0-2.417 1.962-4.38 4.38-4.38 2.42 0 4.382 1.964 4.382 4.38 0 2.42-1.96 4.382-4.378 4.384v1.857c3.443-.002 6.235-2.797 6.235-6.24C15.067 3.723 12.275.928 8.83.928zm2.344 6.237c0-1.292-1.05-2.342-2.344-2.342-1.293 0-2.34 1.05-2.342 2.34h2.346V9.51c1.29-.002 2.34-1.052 2.34-2.345z"/></g></svg>