<svg width="16" height="16" xmlns="http://www.w3.org/2000/svg" viewBox="0 0 16 16" shape-rendering="geometricPrecision" fill="#fff"><defs><mask id="a"><rect width="100%" height="100%"/><path d="M13.848-1.1L12.05.695l.287.287c-1.812.575-3.107 2.263-3.107 4.254v.987h2.626v-.988c0-.49.19-.954.538-1.302l.03-.03 1.425 1.42 3.21-3.212L13.85-1.1z" fill="#000"/></mask></defs><path d="M13.848-.04l-.736.735.82.82H13.7l-.157.01c-1.978.083-3.563 1.713-3.563 3.71v.237h1.126v-.237c0-.69.27-1.343.76-1.833s1.14-.76 1.832-.76h.3l-.886.888.735.734L16 2.11 13.848-.04z" fill="#cb1800"/><path d="M9.34 5.662c0-1.28 1.037-2.313 2.315-2.313 1.276 0 2.312 1.033 2.312 2.312V6.81h1.413V5.662c0-2.06-1.668-3.728-3.725-3.728-2.06 0-3.728 1.67-3.728 3.728V6.81H9.34V5.662zM.62 7.792V15h9.875V7.79H.62zm5.806 4.802c0 .48-.388.867-.867.867-.482 0-.872-.388-.872-.866v-2.396c0-.478.39-.866.868-.866.482 0 .87.39.87.866v2.396z" mask="url(#a)"/></svg>