<svg width="16" height="16" xmlns="http://www.w3.org/2000/svg" viewBox="0 0 16 16" shape-rendering="geometricPrecision" fill="#fff"><defs><mask id="a"><rect width="100%" height="100%"/><path d="M13.848-1.1L12.05.695l.287.287c-1.812.575-3.107 2.263-3.107 4.254v.987h2.626v-.988c0-.49.19-.954.538-1.302l.03-.03 1.425 1.42 3.21-3.212L13.85-1.1z" fill="#000"/></mask></defs><path d="M13.848-.04l-.736.735.82.82H13.7l-.157.01c-1.978.083-3.563 1.713-3.563 3.71v.237h1.126v-.237c0-.69.27-1.343.76-1.833s1.14-.76 1.832-.76h.3l-.886.888.735.734L16 2.11 13.848-.04z" fill="#cb1800"/><g mask="url(#a)"><path d="M10.56 10.525l-1.328-.154-1.106.753-1.104-.752-.046.006L8.35 15.33l1.664-1.83 2.382.71-1.3-4.69"/><path d="M12.17 5.086l.282-1.182-.996-.698-.298-1.178-1.207-.155L9.14.97 8 1.39 6.86.97l-.81.903-1.207.155-.3 1.178-.995.698.283 1.182-.557 1.08.8.916.008 1.215 1.135.44.572 1.073 1.21-.14 1.002.685 1.005-.686 1.208.138.57-1.072 1.135-.44.008-1.215.8-.914-.557-1.08zM8 9.56c-2.154 0-3.9-1.744-3.9-3.897C4.1 3.51 5.847 1.765 8 1.765c2.153 0 3.898 1.744 3.898 3.897s-1.745 3.9-3.9 3.9z"/><circle cx="8.03" cy="5.662" r="3.142"/><path d="M5.486 10.51l-.63-1.18-.034-.014-1.092 4.96 2.53-.907 1.337 1.316-1.186-4.282"/></g></svg>