<svg width="16" height="16" xmlns="http://www.w3.org/2000/svg" viewBox="0 0 16 16" shape-rendering="geometricPrecision" fill="#fff"><defs><mask id="a"><rect width="100%" height="100%"/><path d="M13.848-1.1L12.05.695l.287.287c-1.812.575-3.107 2.263-3.107 4.254v.987h2.626v-.988c0-.49.19-.954.538-1.302l.03-.03 1.425 1.42 3.21-3.212L13.85-1.1z" fill="#000"/></mask></defs><path d="M13.848-.04l-.736.735.82.82H13.7l-.157.01c-1.978.083-3.563 1.713-3.563 3.71v.237h1.126v-.237c0-.69.27-1.343.76-1.833s1.14-.76 1.832-.76h.3l-.886.888.735.734L16 2.11 13.848-.04z" fill="#cb1800"/><path mask="url(#a)" d="M8.04 1.977c-3.315 0-6 2.687-6 6s2.686 6 6 6c3.313 0 6-2.687 6-6 0-3.314-2.687-6-6-6zm.373 6.606l-1.75-.33-.568 2.07-.708-1.678-1.685 1.377.748-2.044-1.816-.12L4.4 6.645 3.518 5.1l1.75.33.57-2.07.705 1.68L8.23 3.662l-.75 2.043 1.816.12L7.53 7.037l.883 1.546z"/></svg>