<svg width="16" height="16" xmlns="http://www.w3.org/2000/svg" viewBox="0 0 16 16" shape-rendering="geometricPrecision" fill="#fff"><defs><mask id="a"><rect width="100%" height="100%"/><path d="M13.848-1.1L12.05.695l.287.287c-1.812.575-3.107 2.263-3.107 4.254v.987h2.626v-.988c0-.49.19-.954.538-1.302l.03-.03 1.425 1.42 3.21-3.212L13.85-1.1z" fill="#000"/></mask></defs><path d="M13.848-.04l-.736.735.82.82H13.7l-.157.01c-1.978.083-3.563 1.713-3.563 3.71v.237h1.126v-.237c0-.69.27-1.343.76-1.833s1.14-.76 1.832-.76h.3l-.886.888.735.734L16 2.11 13.848-.04z" fill="#cb1800"/><g mask="url(#a)"><path d="M13.826 1.99L8.8 1.996 1 9.794l5.038 5.038 7.8-7.8-.012-5.042zm-2.484 4c-.828 0-1.5-.672-1.5-1.5 0-.83.672-1.5 1.5-1.5s1.5.67 1.5 1.5-.672 1.5-1.5 1.5z"/><path d="M2.342 9.668L7.94 4.07l3.823 3.822-5.598 5.6z"/><path d="M3.873 9.85l4.263-4.263.72.718L4.59 10.57zM5.226 11.204L9.49 6.94l.717.72-4.263 4.262z"/></g></svg>