<svg width="16" height="16" xmlns="http://www.w3.org/2000/svg" viewBox="0 0 16 16" shape-rendering="geometricPrecision" fill="#fff"><defs><mask id="a"><rect width="100%" height="100%"/><path d="M13.848-1.1L12.05.695l.287.287c-1.812.575-3.107 2.263-3.107 4.254v.987h2.626v-.988c0-.49.19-.954.538-1.302l.03-.03 1.425 1.42 3.21-3.212L13.85-1.1z" fill="#000"/></mask></defs><path d="M13.848-.04l-.736.735.82.82H13.7l-.157.01c-1.978.083-3.563 1.713-3.563 3.71v.237h1.126v-.237c0-.69.27-1.343.76-1.833s1.14-.76 1.832-.76h.3l-.886.888.735.734L16 2.11 13.848-.04z" fill="#cb1800"/><path d="M15.235 11.444L9.643 5.85c.315-1.55-.127-3.22-1.327-4.418C6.996.114 5.122-.27 3.456.23l3.35 3.353L3.56 6.828.21 3.475c-.5 1.667-.113 3.54 1.2 4.86 1.2 1.2 2.87 1.64 4.417 1.33l5.59 5.587c.987.986 2.634.934 3.692-.124 1.052-1.052 1.106-2.705.125-3.684z" mask="url(#a)"/></svg>