<svg width="16" height="16" xmlns="http://www.w3.org/2000/svg" viewBox="0 0 16 16" shape-rendering="geometricPrecision" fill="#00962d"><defs><mask id="a"><rect fill="#fff" width="100%" height="100%"/><path fill="#000" d="M16.383 1.058l-2.47-2.473-4.51 4.512 4.51 4.506 2.47-2.47-2.035-2.038z"/></mask></defs><path fill="#cb1800" d="M12.935 3.095l2.035-2.037L13.913 0l-3.096 3.097 3.096 3.092 1.057-1.057"/><path mask="url(#a)" d="M14.49 13.12L14.48 0H4.033c-1.376.003-2.498.62-2.52 1.987-.004.025-.004.53 0 .535v.003c0 .04.008.076.01.117h-.01v10.826C1.515 14.865 2.65 16 4.045 16h8.386l-.038-1.69-.01-11.344h-8.35c-.495 0-1.68-.048-1.68-.98v-.092C2.405 1.01 3.538.842 4.033.842h9.594v12.28h.864zM7.82 4.303c.62 0 1.12.502 1.12 1.122 0 .616-.5 1.12-1.12 1.12-.62 0-1.123-.504-1.123-1.12 0-.62.502-1.122 1.122-1.122zM5.56 12.996h1.105v-4.47h-1.1v-.834h3.358v5.304h1.106v1.11H5.563v-1.11z"/></svg>