<svg width="16" height="16" xmlns="http://www.w3.org/2000/svg" viewBox="0 0 16 16" shape-rendering="geometricPrecision" fill="#00962d"><defs><mask id="a"><rect fill="#fff" width="100%" height="100%"/><path fill="#000" d="M16.383 1.058l-2.47-2.473-4.51 4.512 4.51 4.506 2.47-2.47-2.035-2.038z"/></mask></defs><path fill="#cb1800" d="M12.935 3.095l2.035-2.037L13.913 0l-3.096 3.097 3.096 3.092 1.057-1.057"/><path d="M8 1.01c-3.86 0-6.99 3.13-6.99 6.992 0 3.857 3.13 6.986 6.99 6.986 3.86 0 6.99-3.13 6.99-6.986 0-3.86-3.13-6.99-6.99-6.99zm2.732 10.236L9.047 12.93l-4.93-4.933 4.93-4.928 1.685 1.685L7.486 8l3.246 3.246z" mask="url(#a)"/></svg>