<?xml version="1.0"?><!DOCTYPE svg PUBLIC "-//W3C//DTD SVG 1.1//EN" "http://www.w3.org/Graphics/SVG/1.1/DTD/svg11.dtd"><svg width="16px" height="16px" xmlns="http://www.w3.org/2000/svg" viewBox="0 0 16 16" shape-rendering="geometricPrecision" fill="#00962d"><defs><mask id="move_left-path"><rect fill="#fff" width="100%" height="100%"/><polygon points="16.383,1.058 13.913,-1.415 9.403,3.097 13.914,7.603 16.383,5.134 14.348,3.095 " fill="#000"/></mask></defs><polygon points="12.935,3.095 14.97,1.058 13.913,0 10.817,3.097 13.913,6.189 14.97,5.133 " fill="#cb1800"/><g mask="url(#move_left-path)"><g><polygon points="13.237,5.237 11.446,7.028 7.999,3.583 4.551,7.028 2.762,5.237 8.002,0"/><path d="M0,8v6.929h16V8H0z M14.413,13.495H1.588v-4.06h12.825V13.495z M12.026,11.978c0.519,0,0.939-0.416,0.939-0.93 c0-0.515-0.42-0.931-0.939-0.931c-0.521,0-0.941,0.416-0.941,0.931C11.085,11.561,11.505,11.978,12.026,11.978z"/></g></g></svg>