<svg width="16" height="16" xmlns="http://www.w3.org/2000/svg" viewBox="0 0 16 16" shape-rendering="geometricPrecision"><defs><mask id="a"><rect fill="#fff" width="100%" height="100%"/><path d="M17.414 1.215l-2.624-2.63L13.066.31l-1.722-1.722-2.627 2.627 1.722 1.72-1.725 1.723 2.63 2.628 1.722-1.722 1.722 1.723 2.624-2.63-1.72-1.72z"/></mask></defs><path d="M16 4.656l-1.722-1.72L16 1.213 14.79 0l-1.724 1.722-1.722-1.72-1.212 1.21 1.722 1.722-1.724 1.722 1.215 1.214 1.722-1.723L14.79 5.87" fill="#cb1800"/><g mask="url(#a)"><path d="M1.06 3.2v2.776c0 .59.48 1.07 1.07 1.07h2.767c.052.07.866 1.123 2.333 1.35-.516-.46-.63-.965-.618-1.35h.5c.587 0 1.068-.48 1.068-1.07V3.2c0-.59-.48-1.07-1.07-1.07H2.13c-.59 0-1.07.48-1.07 1.07zm1.273 1.425h4.51v.63h-4.51v-.63zm0-1.303h4.51v.63h-4.51v-.63zM13.15 6.007c0-1.177-.954-2.13-2.13-2.13-1.18 0-2.13.953-2.13 2.13 0 1.178.95 2.13 2.13 2.13 1.176 0 2.13-.952 2.13-2.13zM6.987 11.2v2.67h8.067V11.2c0-1.128-.918-2.052-2.047-2.052H9.04c-1.127 0-2.053.924-2.053 2.053z"/></g></svg>