<svg width="16" height="16" xmlns="http://www.w3.org/2000/svg" viewBox="0 0 16 16" shape-rendering="geometricPrecision"><defs><mask id="a"><rect fill="#fff" width="100%" height="100%"/><path d="M17.414 1.215l-2.624-2.63L13.066.31l-1.722-1.722-2.627 2.627 1.722 1.72-1.725 1.723 2.63 2.628 1.722-1.722 1.722 1.723 2.624-2.63-1.72-1.72z"/></mask></defs><path d="M16 4.656l-1.722-1.72L16 1.213 14.79 0l-1.724 1.722-1.722-1.72-1.212 1.21 1.722 1.722-1.724 1.722 1.215 1.214 1.722-1.723L14.79 5.87" fill="#cb1800"/><path d="M7.99 15.033c-1.088 0-1.828-.8-1.828-1.868 0-1.088.76-1.868 1.848-1.868s1.807.78 1.827 1.868c0 1.068-.717 1.868-1.827 1.868h-.02zM6.84 10.27L6.368.967h3.265L9.18 10.27H6.84z" mask="url(#a)"/></svg>