<svg width="16" height="16" xmlns="http://www.w3.org/2000/svg" viewBox="0 0 16 16" shape-rendering="geometricPrecision"><defs><mask id="a"><rect fill="#fff" width="100%" height="100%"/><path d="M17.414 1.215l-2.624-2.63L13.066.31l-1.722-1.722-2.627 2.627 1.722 1.72-1.725 1.723 2.63 2.628 1.722-1.722 1.722 1.723 2.624-2.63-1.72-1.72z"/></mask></defs><path d="M16 4.656l-1.722-1.72L16 1.213 14.79 0l-1.724 1.722-1.722-1.72-1.212 1.21 1.722 1.722-1.724 1.722 1.215 1.214 1.722-1.723L14.79 5.87" fill="#cb1800"/><path d="M14.085 1.94c2.48 2.476 2.478 6.488.002 8.964-2.15 2.153-5.458 2.432-7.916.847h-.008v2.126l-.013.014H4.02v2.123H.012V12h.01l-.002-.006L3.594 8.42c-.73-2.204-.226-4.73 1.528-6.48 2.476-2.477 6.488-2.477 8.963 0zm-3.928 3.927c.78.78 2.043.78 2.824.002.78-.78.78-2.044 0-2.824-.78-.78-2.04-.78-2.822 0-.78.78-.78 2.044 0 2.82z" mask="url(#a)"/></svg>