<svg width="16" height="16" xmlns="http://www.w3.org/2000/svg" viewBox="0 0 16 16" shape-rendering="geometricPrecision"><defs><mask id="a"><rect fill="#fff" width="100%" height="100%"/><path d="M17.414 1.215l-2.624-2.63L13.066.31l-1.722-1.722-2.627 2.627 1.722 1.72-1.725 1.723 2.63 2.628 1.722-1.722 1.722 1.723 2.624-2.63-1.72-1.72z"/></mask></defs><path d="M16 4.656l-1.722-1.72L16 1.213 14.79 0l-1.724 1.722-1.722-1.72-1.212 1.21 1.722 1.722-1.724 1.722 1.215 1.214 1.722-1.723L14.79 5.87" fill="#cb1800"/><g mask="url(#a)"><path d="M14.818 5.818c-.4-2.076-3.738-2.21-5.54-2.21H6.704c-1.8 0-5.08.296-5.514 2.184l-.11.735-.02.54h1.847C3.673 6.483 4.92 5.864 5.81 5.54c.436-.426 1.138-.576 1.696-.576H8.53c.578 0 1.32.088 1.753.58.877.327 2.1.944 2.853 1.524h1.8l.005-.517-.122-.732z"/><path d="M14.082 10.512c0-.623-.497-2.442-.497-2.442-.235-.777-3.503-2.342-4.193-2.342H6.7c-.69 0-4.017 1.565-4.252 2.342 0 0-.497 1.82-.497 2.442 0 .488-.003 1.445-.003 1.445H14.085s-.003-.957-.003-1.445zM8 10.935c-1.16 0-2.102-.94-2.102-2.102S6.838 6.73 8 6.73c1.16 0 2.102.94 2.102 2.102 0 1.16-.94 2.103-2.102 2.103z"/></g></svg>