<?xml version="1.0"?><!DOCTYPE svg PUBLIC "-//W3C//DTD SVG 1.1//EN" "http://www.w3.org/Graphics/SVG/1.1/DTD/svg11.dtd"><svg width="16px" height="16px" xmlns="http://www.w3.org/2000/svg" viewBox="0 0 16 16" shape-rendering="geometricPrecision" fill="#000"><defs><mask id="decline-path"><rect fill="#fff" width="100%" height="100%"/><polygon points="17.414,1.215 14.79,-1.414 13.066,0.308 11.344,-1.414 8.717,1.213 10.439,2.934 8.715,4.656 11.345,7.284 13.067,5.562 14.789,7.285 17.414,4.655 15.693,2.935 " fill="#000"/></mask></defs><g fill="#cb1800"><polygon points="16,4.656 14.278,2.935 16,1.214 14.789,0.001 13.066,1.722 11.344,0.001 10.132,1.213 11.854,2.934 10.13,4.656 11.345,5.87 13.067,4.147 14.789,5.87 "/></g><g mask="url(#decline-path)"><path d="M11.348,7.312c0.788,0.008,1.464,0.478,1.779,1.146V4.747H9.053c0.633-0.329,1.073-0.974,1.081-1.737 c0.011-1.1-0.87-2-1.97-2.011c-1.1-0.011-2.001,0.872-2.012,1.971C6.143,3.745,6.585,4.411,7.229,4.747H2.873v10.254h2.951 c-0.644-0.336-1.085-1.013-1.077-1.788c0.011-1.101,0.912-1.982,2.011-1.972c1.1,0.011,1.982,0.912,1.971,2.013 c-0.008,0.763-0.449,1.419-1.083,1.747h5.481v-4.845c-0.323,0.679-1.02,1.146-1.82,1.137c-1.101-0.01-1.983-0.91-1.972-2.01 C9.346,8.183,10.248,7.301,11.348,7.312z"/></g></svg>