<svg width="16" height="16" xmlns="http://www.w3.org/2000/svg" viewBox="0 0 16 16" shape-rendering="geometricPrecision"><defs><mask id="a"><rect fill="#fff" width="100%" height="100%"/><path d="M17.414 1.215l-2.624-2.63L13.066.31l-1.722-1.722-2.627 2.627 1.722 1.72-1.725 1.723 2.63 2.628 1.722-1.722 1.722 1.723 2.624-2.63-1.72-1.72z"/></mask></defs><path d="M16 4.656l-1.722-1.72L16 1.213 14.79 0l-1.724 1.722-1.722-1.72-1.212 1.21 1.722 1.722-1.724 1.722 1.215 1.214 1.722-1.723L14.79 5.87" fill="#cb1800"/><path d="M11.348 7.312c.788.008 1.464.478 1.78 1.146v-3.71H9.052c.633-.33 1.073-.975 1.08-1.738.012-1.1-.87-2-1.97-2.01-1.1-.012-2 .87-2.01 1.97-.01.775.432 1.44 1.076 1.777H2.872V15h2.95c-.643-.335-1.084-1.012-1.076-1.787.01-1.1.912-1.982 2.01-1.972 1.1.012 1.983.913 1.972 2.014-.01.763-.45 1.42-1.084 1.747h5.48v-4.844c-.322.68-1.02 1.146-1.82 1.137-1.1-.01-1.982-.91-1.97-2.01.01-1.1.912-1.982 2.012-1.97z" mask="url(#a)"/></svg>