<?xml version="1.0"?><!DOCTYPE svg PUBLIC "-//W3C//DTD SVG 1.1//EN" "http://www.w3.org/Graphics/SVG/1.1/DTD/svg11.dtd"><svg xmlns="http://www.w3.org/2000/svg" viewBox="0 0 16 16" shape-rendering="geometricPrecision" fill="#000"><defs><mask id="decline-path"><rect fill="#fff" width="100%" height="100%"/><polygon points="17.414,1.215 14.79,-1.414 13.066,0.308 11.344,-1.414 8.717,1.213 10.439,2.934 8.715,4.656 11.345,7.284 13.067,5.562 14.789,7.285 17.414,4.655 15.693,2.935 " fill="#000"/></mask></defs><g fill="#cb1800"><polygon points="16,4.656 14.278,2.935 16,1.214 14.789,0.001 13.066,1.722 11.344,0.001 10.132,1.213 11.854,2.934 10.13,4.656 11.345,5.87 13.067,4.147 14.789,5.87 "/></g><g mask="url(#decline-path)"><path d="M7.468,11.335c-1.04,0-1.782,0.742-1.782,1.824c0,1.041,0.722,1.822,1.763,1.822h0.02 c1.083,0,1.805-0.781,1.805-1.822C9.253,12.077,8.551,11.335,7.468,11.335z M7.749,1.018c-1.422,0-2.604,0.4-3.345,0.822 l0.681,2.182c0.52-0.359,1.322-0.6,1.983-0.6c1.002,0.041,1.463,0.5,1.463,1.203c0,0.68-0.521,1.32-1.162,2.102 C6.468,7.79,6.127,8.833,6.188,9.853l0.02,0.521h2.664v-0.361c-0.02-0.9,0.281-1.682,1.021-2.504 c0.762-0.84,1.702-1.842,1.702-3.365C11.595,2.481,10.395,1.018,7.749,1.018z"/></g></svg>
