<?xml version="1.0"?><!DOCTYPE svg PUBLIC "-//W3C//DTD SVG 1.1//EN" "http://www.w3.org/Graphics/SVG/1.1/DTD/svg11.dtd"><svg xmlns="http://www.w3.org/2000/svg" viewBox="0 0 16 16" shape-rendering="geometricPrecision" fill="#000"><defs><mask id="decline-path"><rect fill="#fff" width="100%" height="100%"/><polygon points="17.414,1.215 14.79,-1.414 13.066,0.308 11.344,-1.414 8.717,1.213 10.439,2.934 8.715,4.656 11.345,7.284 13.067,5.562 14.789,7.285 17.414,4.655 15.693,2.935 " fill="#000"/></mask></defs><g fill="#cb1800"><polygon points="16,4.656 14.278,2.935 16,1.214 14.789,0.001 13.066,1.722 11.344,0.001 10.132,1.213 11.854,2.934 10.13,4.656 11.345,5.87 13.067,4.147 14.789,5.87 "/></g><g mask="url(#decline-path)"><path d="M7.975,1.052C4.126,1.052,1.002,4.176,1,8.022h2.077c0-2.7,2.193-4.896,4.897-4.896 c2.705,0,4.899,2.195,4.899,4.897c0,2.706-2.194,4.899-4.898,4.9V15c3.851,0,6.973-3.126,6.973-6.977 C14.949,4.176,11.826,1.052,7.975,1.052z M10.595,8.023c0-1.444-1.175-2.617-2.621-2.617S5.356,6.579,5.356,8.023 c0,1.446,1.172,2.622,2.618,2.622S10.595,9.47,10.595,8.023z"/></g></svg>
