<?xml version="1.0"?><!DOCTYPE svg PUBLIC "-//W3C//DTD SVG 1.1//EN" "http://www.w3.org/Graphics/SVG/1.1/DTD/svg11.dtd"><svg width="16px" height="16px" xmlns="http://www.w3.org/2000/svg" viewBox="0 0 16 16" shape-rendering="geometricPrecision" fill="#000"><defs><mask id="decline-path"><rect fill="#fff" width="100%" height="100%"/><polygon points="17.414,1.215 14.79,-1.414 13.066,0.308 11.344,-1.414 8.717,1.213 10.439,2.934 8.715,4.656 11.345,7.284 13.067,5.562 14.789,7.285 17.414,4.655 15.693,2.935 " fill="#000"/></mask></defs><g fill="#cb1800"><polygon points="16,4.656 14.278,2.935 16,1.214 14.789,0.001 13.066,1.722 11.344,0.001 10.132,1.213 11.854,2.934 10.13,4.656 11.345,5.87 13.067,4.147 14.789,5.87 "/></g><path mask="url(#decline-path)" d="M8,1.051c-3.838,0-6.949,3.111-6.949,6.95c0,3.837,3.11,6.948,6.949,6.948c3.837,0,6.949-3.111,6.949-6.948 C14.949,4.162,11.837,1.051,8,1.051z M9.973,4.507c0.731,0,1.326,0.756,1.326,1.682c0,0.927-0.595,1.683-1.326,1.683 c-0.73,0-1.325-0.756-1.325-1.683C8.647,5.263,9.242,4.507,9.973,4.507z M6.306,4.465c0.731,0,1.326,0.755,1.326,1.681 c0,0.928-0.595,1.683-1.326,1.683c-0.73,0-1.325-0.755-1.325-1.683C4.98,5.22,5.575,4.465,6.306,4.465z M8.158,13.546 c-4.853,0-5.388-5.018-5.388-5.018s1.111,3.248,5.347,3.248c4.154,0,5.182-3.085,5.182-3.085S12.559,13.546,8.158,13.546z"/></svg>