<svg width="16" height="16" xmlns="http://www.w3.org/2000/svg" viewBox="0 0 16 16" shape-rendering="geometricPrecision"><defs><mask id="a"><rect fill="#fff" width="100%" height="100%"/><path d="M17.414 1.215l-2.624-2.63L13.066.31l-1.722-1.722-2.627 2.627 1.722 1.72-1.725 1.723 2.63 2.628 1.722-1.722 1.722 1.723 2.624-2.63-1.72-1.72z"/></mask></defs><path d="M16 4.656l-1.722-1.72L16 1.213 14.79 0l-1.724 1.722-1.722-1.72-1.212 1.21 1.722 1.722-1.724 1.722 1.215 1.214 1.722-1.723L14.79 5.87" fill="#cb1800"/><g mask="url(#a)"><path d="M13.826 1.99L8.8 1.996 1 9.794l5.038 5.038 7.8-7.8-.012-5.042zm-2.484 4c-.828 0-1.5-.672-1.5-1.5 0-.83.672-1.5 1.5-1.5s1.5.67 1.5 1.5-.672 1.5-1.5 1.5z"/><path d="M2.342 9.668L7.94 4.07l3.823 3.822-5.598 5.6z"/><path d="M3.873 9.85l4.263-4.263.72.718L4.59 10.57zM5.226 11.204L9.49 6.94l.717.72-4.263 4.262z"/></g></svg>