<svg width="16" height="16" xmlns="http://www.w3.org/2000/svg" viewBox="0 0 16 16" shape-rendering="geometricPrecision"><defs><mask id="a"><rect fill="#fff" width="100%" height="100%"/><path d="M17.414 1.215l-2.624-2.63L13.066.31l-1.722-1.722-2.627 2.627 1.722 1.72-1.725 1.723 2.63 2.628 1.722-1.722 1.722 1.723 2.624-2.63-1.72-1.72z"/></mask></defs><path d="M16 4.656l-1.722-1.72L16 1.213 14.79 0l-1.724 1.722-1.722-1.72-1.212 1.21 1.722 1.722-1.724 1.722 1.215 1.214 1.722-1.723L14.79 5.87" fill="#cb1800"/><path mask="url(#a)" d="M7.993 3.184C4.525 3.184 1.518 5.136 0 8c1.518 2.864 4.525 4.815 7.993 4.815 3.466 0 6.472-1.95 7.993-4.814-1.52-2.864-4.527-4.816-7.993-4.816zm-.82 8.2L4.12 8.33l1.343-1.343 1.71 1.708 3.264-3.265 1.345 1.344-4.61 4.61z"/></svg>