<?xml version="1.0"?><!DOCTYPE svg PUBLIC "-//W3C//DTD SVG 1.1//EN" "http://www.w3.org/Graphics/SVG/1.1/DTD/svg11.dtd"><svg width="16px" height="16px" xmlns="http://www.w3.org/2000/svg" viewBox="0 0 16 16" shape-rendering="geometricPrecision" fill="#000"><defs><mask id="decline-path"><rect fill="#fff" width="100%" height="100%"/><polygon points="17.414,1.215 14.79,-1.414 13.066,0.308 11.344,-1.414 8.717,1.213 10.439,2.934 8.715,4.656 11.345,7.284 13.067,5.562 14.789,7.285 17.414,4.655 15.693,2.935 " fill="#000"/></mask></defs><g fill="#cb1800"><polygon points="16,4.656 14.278,2.935 16,1.214 14.789,0.001 13.066,1.722 11.344,0.001 10.132,1.213 11.854,2.934 10.13,4.656 11.345,5.87 13.067,4.147 14.789,5.87 "/></g><g mask="url(#decline-path)"><rect x="-1.198" y="7.294" transform="matrix(0.7074 -0.7068 0.7068 0.7074 -3.3129 7.9954)" width="18.398" height="1.409"/><polygon points="7.59,3.71 7.59,5.831 9.714,3.71"/><polygon points="3.289,8.548 3.289,10.126 4.871,8.548"/><polygon points="6.394,12.106 5.784,12.716 6.394,12.716"/><polygon points="10.694,12.716 10.694,7.81 7.59,10.911 7.59,12.716"/><polygon points="3.499,15.001 14.995,15.001 14.995,13.899 4.6,13.899"/><polygon points="11.892,6.612 11.892,12.716 14.995,12.716 14.995,6.435 12.07,6.435"/><polygon points="2.095,11.317 2.096,5.708 0.995,5.708 0.995,12.849 0.997,12.415"/><polygon points="0.995,15.001 1.796,14.999 1.796,15.001 1.991,15.001 0.995,14.005"/></g></svg>