<svg width="16" height="16" xmlns="http://www.w3.org/2000/svg" viewBox="0 0 16 16" shape-rendering="geometricPrecision"><defs><mask id="a"><rect fill="#fff" width="100%" height="100%"/><path d="M17.414 1.215l-2.624-2.63L13.066.31l-1.722-1.722-2.627 2.627 1.722 1.72-1.725 1.723 2.63 2.628 1.722-1.722 1.722 1.723 2.624-2.63-1.72-1.72z"/></mask></defs><path d="M16 4.656l-1.722-1.72L16 1.213 14.79 0l-1.724 1.722-1.722-1.72-1.212 1.21 1.722 1.722-1.724 1.722 1.215 1.214 1.722-1.723L14.79 5.87" fill="#cb1800"/><path d="M15.61 3.74c-.907 1.864-2.394 2.55-3.39 2.804.568 1.092.975 2.484 1.15 4.04 1.175-.792 3.57-2.96 2.24-6.845zm-15.22 0C-.938 7.623 1.455 9.79 2.63 10.584c.175-1.557.58-2.95 1.148-4.04-.994-.255-2.48-.94-3.388-2.806zM8 4.086c-2.366 0-4.285 3.66-4.285 8.174h8.57c0-4.513-1.918-8.173-4.284-8.173z" mask="url(#a)"/></svg>