<?xml version="1.0"?><!DOCTYPE svg PUBLIC "-//W3C//DTD SVG 1.1//EN" "http://www.w3.org/Graphics/SVG/1.1/DTD/svg11.dtd"><svg width="16px" height="16px" xmlns="http://www.w3.org/2000/svg" viewBox="0 0 16 16" shape-rendering="geometricPrecision" fill="#abb7ce"><defs><mask id="refresh-path"><rect fill="#fff" width="100%" height="100%"/><path d="M17.514,2.671l-0.862-0.552L16.65-1h-2.866v0.558c-1.334-0.3-2.758,0.103-3.723,1.067 c-1.569,1.569-1.554,4.141,0.035,5.732c0.779,0.777,1.809,1.205,2.901,1.205c1.071,0,2.077-0.415,2.831-1.168 C16.585,5.639,17.001,4.631,17,3.557l0-0.886H17.514z M14.141,3.558c0,0.22-0.058,0.539-0.333,0.813 c-0.443,0.443-1.23,0.426-1.69-0.035c-0.475-0.475-0.49-1.234-0.036-1.689c0.011-0.011,0.021-0.022,0.033-0.031l0,0.922h2.026 V3.558z" fill="#000"/></mask></defs><path display="inline" d="M13.114,2.537h2.538L15.651,0h-0.867v1.105 c-1.204-0.927-2.924-0.863-4.016,0.227C9.581,2.52,9.606,4.451,10.803,5.649c1.201,1.198,3.131,1.224,4.319,0.037 C15.707,5.102,16.001,4.329,16,3.558l-0.859,0.001c-0.001,0.557-0.208,1.102-0.627,1.521c-0.843,0.842-2.231,0.836-3.104-0.036 c-0.871-0.872-0.877-2.26-0.035-3.105c0.729-0.727,1.86-0.818,2.721-0.268h-0.983L13.114,2.537z" fill="#cb1800"/><path mask="url(#refresh-path)" d="M14.55,13.121L14.539,0H4.094C2.718,0.003,1.596,0.619,1.573,1.987 c-0.003,0.025-0.003,0.529,0,0.535v0.003c0,0.04,0.009,0.076,0.011,0.117H1.575v10.826C1.575,14.865,2.708,16,4.104,16h8.386 l-0.038-1.689L12.443,2.966h-8.35c-0.496,0-1.68-0.048-1.68-0.979V1.893c0.051-0.885,1.184-1.052,1.68-1.052h9.593v12.279H14.55z M11.651,10.889v1.746H6.375v-1.746c0-0.738,0.601-1.342,1.339-1.342h2.594C11.046,9.547,11.651,10.15,11.651,10.889z M9.013,6.101 c0.771,0,1.395,0.623,1.395,1.393c0,0.77-0.623,1.393-1.395,1.393c-0.77,0-1.393-0.623-1.393-1.393 C7.62,6.724,8.243,6.101,9.013,6.101z M5.375,6.101c0.771,0,1.394,0.623,1.394,1.393c0,0.77-0.623,1.393-1.394,1.393 c-0.769,0-1.393-0.623-1.393-1.393C3.982,6.724,4.606,6.101,5.375,6.101z M2.738,10.889c0-0.738,0.6-1.342,1.339-1.342H6.06 c-0.299,0.369-0.484,0.832-0.485,1.342v1.746H2.738V10.889z"/></svg>