<?xml version="1.0"?><!DOCTYPE svg PUBLIC "-//W3C//DTD SVG 1.1//EN" "http://www.w3.org/Graphics/SVG/1.1/DTD/svg11.dtd"><svg xmlns="http://www.w3.org/2000/svg" viewBox="0 0 16 16" shape-rendering="geometricPrecision" fill="#abb7ce"><defs><mask id="refresh-path"><rect fill="#fff" width="100%" height="100%"/><path d="M17.514,2.671l-0.862-0.552L16.65-1h-2.866v0.558c-1.334-0.3-2.758,0.103-3.723,1.067 c-1.569,1.569-1.554,4.141,0.035,5.732c0.779,0.777,1.809,1.205,2.901,1.205c1.071,0,2.077-0.415,2.831-1.168 C16.585,5.639,17.001,4.631,17,3.557l0-0.886H17.514z M14.141,3.558c0,0.22-0.058,0.539-0.333,0.813 c-0.443,0.443-1.23,0.426-1.69-0.035c-0.475-0.475-0.49-1.234-0.036-1.689c0.011-0.011,0.021-0.022,0.033-0.031l0,0.922h2.026 V3.558z" fill="#000"/></mask></defs><path display="inline" d="M13.114,2.537h2.538L15.651,0h-0.867v1.105 c-1.204-0.927-2.924-0.863-4.016,0.227C9.581,2.52,9.606,4.451,10.803,5.649c1.201,1.198,3.131,1.224,4.319,0.037 C15.707,5.102,16.001,4.329,16,3.558l-0.859,0.001c-0.001,0.557-0.208,1.102-0.627,1.521c-0.843,0.842-2.231,0.836-3.104-0.036 c-0.871-0.872-0.877-2.26-0.035-3.105c0.729-0.727,1.86-0.818,2.721-0.268h-0.983L13.114,2.537z" fill="#cb1800"/><g mask="url(#refresh-path)"><rect x="6.394" y="4.686" width="0.844" height="0.844"/><rect x="7.238" y="5.529" width="0.844" height="0.844"/><rect x="6.394" y="6.373" width="0.844" height="0.845"/><rect x="7.238" y="7.218" width="0.844" height="0.844"/><rect x="6.394" y="8.062" width="0.844" height="0.844"/><rect x="7.238" y="8.905" width="0.844" height="0.844"/><rect x="6.394" y="9.749" width="0.844" height="0.845"/><rect x="6.394" y="11.437" width="0.844" height="0.844"/><rect x="6.394" y="13.126" width="0.844" height="0.844"/><rect x="6.374" y="2.179" width="1.709" height="1.662"/><path d="M6.886,5.904L6.886,5.904c0.309-0.81,0.309-0.81,0.535-1.403l0,0c0.124-0.326,0.002-0.705-0.308-0.892 C6.802,3.424,6.41,3.495,6.181,3.759h0C5.765,4.237,5.765,4.237,5.195,4.892l0.001,0.001c-0.038,0.044-0.073,0.09-0.104,0.142 C4.809,5.51,4.962,6.123,5.437,6.408C5.911,6.692,6.526,6.536,6.81,6.063C6.841,6.012,6.866,5.958,6.886,5.904z M6.527,4.588 C6.334,4.473,6.273,4.224,6.388,4.031C6.503,3.84,6.751,3.777,6.943,3.893c0.192,0.115,0.255,0.362,0.14,0.556 C6.968,4.639,6.719,4.701,6.527,4.588z"/><rect x="7.238" y="3.841" width="0.844" height="0.845"/><g><polygon points="10.055,14.302 12.595,11.964 10.055,11.964"/><path d="M2.595,1.016v13.969h6.008v-4.468h4.802V1.016H2.595z M12.034,9.043h-4.79v4.601H3.917V2.318h8.116V9.043z"/></g></g></svg>
