<?xml version="1.0"?><!DOCTYPE svg PUBLIC "-//W3C//DTD SVG 1.1//EN" "http://www.w3.org/Graphics/SVG/1.1/DTD/svg11.dtd"><svg xmlns="http://www.w3.org/2000/svg" viewBox="0 0 16 16" shape-rendering="geometricPrecision" fill="#abb7ce"><defs><mask id="refresh-path"><rect fill="#fff" width="100%" height="100%"/><path d="M17.514,2.671l-0.862-0.552L16.65-1h-2.866v0.558c-1.334-0.3-2.758,0.103-3.723,1.067 c-1.569,1.569-1.554,4.141,0.035,5.732c0.779,0.777,1.809,1.205,2.901,1.205c1.071,0,2.077-0.415,2.831-1.168 C16.585,5.639,17.001,4.631,17,3.557l0-0.886H17.514z M14.141,3.558c0,0.22-0.058,0.539-0.333,0.813 c-0.443,0.443-1.23,0.426-1.69-0.035c-0.475-0.475-0.49-1.234-0.036-1.689c0.011-0.011,0.021-0.022,0.033-0.031l0,0.922h2.026 V3.558z" fill="#000"/></mask></defs><path display="inline" d="M13.114,2.537h2.538L15.651,0h-0.867v1.105 c-1.204-0.927-2.924-0.863-4.016,0.227C9.581,2.52,9.606,4.451,10.803,5.649c1.201,1.198,3.131,1.224,4.319,0.037 C15.707,5.102,16.001,4.329,16,3.558l-0.859,0.001c-0.001,0.557-0.208,1.102-0.627,1.521c-0.843,0.842-2.231,0.836-3.104-0.036 c-0.871-0.872-0.877-2.26-0.035-3.105c0.729-0.727,1.86-0.818,2.721-0.268h-0.983L13.114,2.537z" fill="#cb1800"/><g mask="url(#refresh-path)"><path d="M7.999,0.97c-3.882,0-7.029,3.147-7.029,7.033c0.001,3.881,3.147,7.025,7.029,7.027 c3.883-0.002,7.031-3.146,7.031-7.027C15.03,4.116,11.882,0.97,7.999,0.97z M7.999,13.608c-3.096-0.006-5.601-2.512-5.607-5.605 c0.006-3.1,2.511-5.606,5.607-5.611c3.098,0.006,5.603,2.512,5.609,5.611C13.602,11.097,11.097,13.603,7.999,13.608z M7.917,10.208c-0.662,0-1.132,0.471-1.132,1.156c0,0.664,0.458,1.16,1.121,1.16h0.012c0.688,0,1.147-0.496,1.147-1.16 C9.054,10.679,8.606,10.208,7.917,10.208z M8.097,3.645c-0.904,0-1.656,0.256-2.127,0.523l0.434,1.387 c0.33-0.229,0.839-0.381,1.262-0.381c0.637,0.025,0.93,0.318,0.93,0.764c0,0.434-0.333,0.842-0.741,1.338 c-0.574,0.676-0.788,1.338-0.75,1.988l0.012,0.332h1.694V9.368C8.798,8.794,8.989,8.294,9.46,7.774 c0.486-0.537,1.083-1.174,1.083-2.143C10.543,4.575,9.778,3.645,8.097,3.645z"/></g></svg>
