<svg width="16" height="16" xmlns="http://www.w3.org/2000/svg" viewBox="0 0 16 16" shape-rendering="geometricPrecision" fill="#cb1800"><defs><mask id="a"><rect fill="#fff" width="100%" height="100%"/><path fill="#000" d="M12.892-.396l-4.507 4.51 2.47 2.47 2.04-2.035 2.036 2.034 2.474-2.47z"/></mask></defs><path d="M12.894 3.136L14.93 5.17l1.06-1.056-3.098-3.096L9.8 4.114l1.056 1.057"/><g mask="url(#a)"><circle cx="11.279" cy="12.205" r=".769"/><circle cx="11.279" cy="7.938" r=".769"/><path d="M2.042.948V14.93h11.94V.947H2.04zm10.812 12.854H3.17v-3.138h9.683v3.138zm0-4.323H3.17V6.396h9.683V9.48zM3.17 5.212V2.077h9.683v3.136H3.17z"/><circle cx="11.279" cy="3.672" r=".769"/></g></svg>