<svg width="16" height="16" xmlns="http://www.w3.org/2000/svg" viewBox="0 0 16 16" shape-rendering="geometricPrecision" fill="#cb1800"><defs><mask id="a"><rect fill="#fff" width="100%" height="100%"/><path fill="#000" d="M12.892-.396l-4.507 4.51 2.47 2.47 2.04-2.035 2.036 2.034 2.474-2.47z"/></mask></defs><path d="M12.894 3.136L14.93 5.17l1.06-1.056-3.098-3.096L9.8 4.114l1.056 1.057"/><path d="M12.42 2.295H3.57c-1.395 0-2.527 1.133-2.53 2.528V9.76c.003 1.395 1.135 2.527 2.53 2.53h.196c-.097.4-.325.844-.828 1.303L1.368 15l2.084-.32c2.36-.373 3.82-1.795 4.344-2.39h4.625c1.398-.003 2.528-1.136 2.53-2.53V4.823c-.002-1.395-1.132-2.528-2.53-2.528zm1.273 7.465c0 .696-.577 1.272-1.272 1.274H7.19l-.188.25c-.033.05-.784 1.016-2.124 1.657.153-.42.21-.83.207-1.187v-.108l-.02-.61H3.57c-.695-.002-1.272-.578-1.272-1.274V4.824c0-.698.577-1.272 1.272-1.273h8.853c.697.002 1.273.575 1.273 1.273V9.76zM4.85 6.242c-.64 0-1.156.518-1.156 1.156 0 .637.517 1.155 1.155 1.155.637 0 1.155-.52 1.155-1.155 0-.638-.518-1.156-1.156-1.156zm3.145 0c-.638 0-1.157.518-1.157 1.156 0 .637.52 1.155 1.157 1.155s1.155-.52 1.155-1.155c0-.638-.518-1.156-1.155-1.156zm3.145 0c-.637 0-1.156.518-1.156 1.156 0 .637.52 1.155 1.156 1.155.64 0 1.155-.52 1.155-1.155 0-.638-.517-1.156-1.155-1.156z" mask="url(#a)"/></svg>