<svg width="16" height="16" xmlns="http://www.w3.org/2000/svg" viewBox="0 0 16 16" shape-rendering="geometricPrecision" fill="#cb1800"><defs><mask id="a"><rect fill="#fff" width="100%" height="100%"/><path fill="#000" d="M12.892-.396l-4.507 4.51 2.47 2.47 2.04-2.035 2.036 2.034 2.474-2.47z"/></mask></defs><path d="M12.894 3.136L14.93 5.17l1.06-1.056-3.098-3.096L9.8 4.114l1.056 1.057"/><g mask="url(#a)"><path d="M6.955 7.908C7.532 7.908 8 7.438 8 6.863V4.425s.153-.347.662.127c.655.61 1.428.112 1.428.112s-.95-.23-1.145-.848C8.695 3.03 8 3.03 8 3.03h-.697v2.852c-.11-.04-.226-.064-.348-.064-.577 0-1.045.468-1.045 1.045 0 .576.467 1.045 1.045 1.045zM10.055 14.302l2.54-2.338h-2.54"/><path d="M2.595 1.016v13.97h6.008v-4.47h4.802v-9.5H2.595zm9.44 8.027h-4.79v4.6H3.916V2.32h8.116v6.725z"/></g></svg>