<svg width="16" height="16" xmlns="http://www.w3.org/2000/svg" viewBox="0 0 16 16" shape-rendering="geometricPrecision" fill="#cb1800"><defs><mask id="a"><rect fill="#fff" width="100%" height="100%"/><path fill="#000" d="M12.892-.396l-4.507 4.51 2.47 2.47 2.04-2.035 2.036 2.034 2.474-2.47z"/></mask></defs><path d="M12.894 3.136L14.93 5.17l1.06-1.056-3.098-3.096L9.8 4.114l1.056 1.057"/><g mask="url(#a)"><path d="M6.655 8.12c0 .522-.208.993-.54 1.346h3.925c-.332-.353-.54-.823-.54-1.345 0-.667.337-1.258.85-1.612-.282-.34-.702-.56-1.174-.56H6.974c-.472 0-.89.22-1.17.56.514.353.85.943.85 1.613z"/><circle cx="8.077" cy="3.606" r="1.587"/><circle cx="4.691" cy="8.122" r="1.587"/><path d="M5.79 10.462H3.587c-.84 0-1.525.69-1.525 1.53v1.988H7.32v-1.988c0-.84-.69-1.53-1.53-1.53z"/><circle cx="11.464" cy="8.121" r="1.588"/><path d="M12.562 10.462H10.36c-.84 0-1.525.69-1.525 1.53v1.988h5.258v-1.988c0-.84-.69-1.53-1.53-1.53z"/></g></svg>