<?xml version="1.0"?><!DOCTYPE svg PUBLIC "-//W3C//DTD SVG 1.1//EN" "http://www.w3.org/Graphics/SVG/1.1/DTD/svg11.dtd"><svg width="16px" height="16px" xmlns="http://www.w3.org/2000/svg" viewBox="0 0 16 16" shape-rendering="geometricPrecision" fill="#cb1800"><defs><mask id="move_up-path"><rect fill="#fff" width="100%" height="100%"/><polygon points="12.892,-0.396 8.385,4.114 10.856,6.585 12.894,4.549 14.931,6.584 17.404,4.114 " fill="#000"/></mask></defs><polygon points="12.894,3.136 14.931,5.171 15.989,4.114 12.892,1.018 9.799,4.114 10.856,5.171 " fill="#cb1800"/><g mask="url(#move_up-path)"><g><g><path d="M8,1.011c-3.859,0-6.989,3.13-6.989,6.991c0,3.857,3.129,6.986,6.989,6.986c3.859,0,6.989-3.129,6.989-6.986 C14.989,4.141,11.859,1.011,8,1.011z M10.732,11.246L9.047,12.93L4.116,7.997l4.93-4.928l1.686,1.686L7.486,8L10.732,11.246z"/></g></g></g></svg>