<svg width="16" height="16" xmlns="http://www.w3.org/2000/svg" viewBox="0 0 16 16" shape-rendering="geometricPrecision" fill="#cb1800"><defs><mask id="a"><rect fill="#fff" width="100%" height="100%"/><path fill="#000" d="M12.892-.396l-4.507 4.51 2.47 2.47 2.04-2.035 2.036 2.034 2.474-2.47z"/></mask></defs><path d="M12.894 3.136L14.93 5.17l1.06-1.056-3.098-3.096L9.8 4.114l1.056 1.057"/><path d="M9.34 5.662c0-1.28 1.037-2.313 2.315-2.313 1.276 0 2.312 1.033 2.312 2.312V6.81h1.413V5.662c0-2.06-1.668-3.728-3.725-3.728-2.06 0-3.728 1.67-3.728 3.728V6.81H9.34V5.662zM.62 7.792V15h9.875V7.79H.62zm5.806 4.802c0 .48-.388.867-.867.867-.482 0-.872-.388-.872-.866v-2.396c0-.478.39-.866.868-.866.482 0 .87.39.87.866v2.396z" mask="url(#a)"/></svg>