<svg width="16" height="16" xmlns="http://www.w3.org/2000/svg" viewBox="0 0 16 16" shape-rendering="geometricPrecision" fill="#cb1800"><defs><mask id="a"><rect fill="#fff" width="100%" height="100%"/><path fill="#000" d="M12.892-.396l-4.507 4.51 2.47 2.47 2.04-2.035 2.036 2.034 2.474-2.47z"/></mask></defs><path d="M12.894 3.136L14.93 5.17l1.06-1.056-3.098-3.096L9.8 4.114l1.056 1.057"/><g mask="url(#a)"><ellipse cx="13.096" cy="4.259" rx="1.101" ry="1.091"/><path d="M13.367 6.868c-.318 0-.614.095-.862.255-.127-.98-.962-1.74-1.983-1.74-1.11 0-2.01.89-2.01 1.992 0 1.1.9 1.99 2.01 1.99.507 0 .964-.192 1.318-.5.186.667.796 1.16 1.527 1.16.88 0 1.592-.707 1.592-1.578-.002-.872-.714-1.58-1.593-1.58z"/><path d="M10.202 10.016c-1.332-.157-2.365-1.28-2.365-2.64 0-1.072.64-1.994 1.56-2.415L8.91 1.908l-5.074.795.284 1.785L1.2 5.61l3.28 8.382 4.79-1.844-.442-1.126 1.497-.235-.123-.77z"/></g></svg>