<?xml version="1.0"?><!DOCTYPE svg PUBLIC "-//W3C//DTD SVG 1.1//EN" "http://www.w3.org/Graphics/SVG/1.1/DTD/svg11.dtd"><svg width="16px" height="16px" xmlns="http://www.w3.org/2000/svg" viewBox="0 0 16 16" shape-rendering="geometricPrecision" fill="#fff"><defs><mask id="move_down-path"><rect fill="#fff" width="100%" height="100%"/><polygon points="14.934,-0.397 12.895,1.639 10.858,-0.397 8.386,2.073 12.897,6.583 17.404,2.073 " fill="#000"/></mask></defs><polygon points="12.895,3.052 10.858,1.017 9.8,2.073 12.897,5.169 15.99,2.073 14.933,1.017 " fill="#cb1800"/><g mask="url(#move_down-path)"><g><path d="M8.058,9.283c1.382,0,2.497-1.115,2.497-2.495c0-1.378-1.114-2.494-2.497-2.494c-1.377,0-2.496,1.116-2.496,2.494 C5.562,8.168,6.681,9.283,8.058,9.283z M10.377,10.469H5.731c-1.323,0-2.398,1.082-2.398,2.404V16h9.45v-3.127 C12.784,11.551,11.7,10.469,10.377,10.469z"/></g></g></svg>