<?xml version="1.0"?><!DOCTYPE svg PUBLIC "-//W3C//DTD SVG 1.1//EN" "http://www.w3.org/Graphics/SVG/1.1/DTD/svg11.dtd"><svg width="16px" height="16px" xmlns="http://www.w3.org/2000/svg" viewBox="0 0 16 16" shape-rendering="geometricPrecision" fill="#fff"><defs><mask id="move_down-path"><rect fill="#fff" width="100%" height="100%"/><polygon points="14.934,-0.397 12.895,1.639 10.858,-0.397 8.386,2.073 12.897,6.583 17.404,2.073 " fill="#000"/></mask></defs><polygon points="12.895,3.052 10.858,1.017 9.8,2.073 12.897,5.169 15.99,2.073 14.933,1.017 " fill="#cb1800"/><g mask="url(#move_down-path)"><path d="M14.49,13.12L14.479-0.001H4.034C2.658,0.002,1.536,0.618,1.513,1.986c-0.003,0.025-0.003,0.529,0,0.535 v0.003c0,0.04,0.009,0.076,0.011,0.117H1.515v10.826c0,1.396,1.133,2.531,2.529,2.531h8.386l-0.038-1.689L12.383,2.965h-8.35 c-0.496,0-1.68-0.048-1.68-0.978V1.893c0.051-0.885,1.184-1.052,1.68-1.052h9.593V13.12H14.49z M4.011,3.966h7.35l0.004,10.992 L4.851,15c-1.396,0-2.529-1.135-2.529-2.531c0,0-0.005-9.456-0.002-9.481h0.011C2.331,3.918,3.515,3.966,4.011,3.966z"/><rect x="4.525" y="5.764" width="5.506" height="1.247"/><rect x="4.525" y="8.346" width="5.506" height="1.243"/></g></svg>