<svg width="16" height="16" xmlns="http://www.w3.org/2000/svg" viewBox="0 0 16 16" shape-rendering="geometricPrecision" fill="#cb1800"><defs><mask id="a"><rect fill="#fff" width="100%" height="100%"/><path fill="#000" d="M14.5 1.716L13-.37l-1.5 2.086-1.983-2.76-.836.01 1.89 6.812h4.86l1.883-6.792-.84-.013z"/></mask></defs><path fill="#FCC70A" d="M14.858 5.028H11.14L10 .914l.748 1.043.75 1.045.75-1.045L13 .914l.75 1.043.75 1.045.75-1.045L16 .914"/><g mask="url(#a)"><path d="M8.182 3.18l-.815-1.924h-3.78L2.77 3.18H1.65v.948l13.327-.01.018 9.284.933-.978V3.18"/><path d="M.072 4.756V14h14.28V4.756H.07zM13.25 12.93H1.04v-7h12.21v7z"/><path d="M4.628 7.063L3.38 8.31l3.65 3.652 3.65-3.65-1.245-1.25L7.03 9.466"/></g></svg>