<svg width="16" height="16" xmlns="http://www.w3.org/2000/svg" viewBox="0 0 16 16" shape-rendering="geometricPrecision" fill="#cb1800"><defs><mask id="a"><rect fill="#fff" width="100%" height="100%"/><path fill="#000" d="M14.5 1.716L13-.37l-1.5 2.086-1.983-2.76-.836.01 1.89 6.812h4.86l1.883-6.792-.84-.013z"/></mask></defs><path fill="#FCC70A" d="M14.858 5.028H11.14L10 .914l.748 1.043.75 1.045.75-1.045L13 .914l.75 1.043.75 1.045.75-1.045L16 .914"/><path d="M2.99 14.88l11.857-4.524L11.87 7l-8.88 7.88zM0 1.472V16l1.618-1.436v-4.98h5.61l4.74-4.205 4.028 4.538.004-.002V1.473H0zm8.056 6.19H1.618V6.268h6.438V7.66zm6.327-2.845H1.618V3.426h12.765v1.392z" mask="url(#a)"/></svg>