<svg width="16" height="16" xmlns="http://www.w3.org/2000/svg" viewBox="0 0 16 16" shape-rendering="geometricPrecision" fill="#cb1800"><defs><mask id="a"><rect fill="#fff" width="100%" height="100%"/><path fill="#000" d="M14.5 1.716L13-.37l-1.5 2.086-1.983-2.76-.836.01 1.89 6.812h4.86l1.883-6.792-.84-.013z"/></mask></defs><path fill="#FCC70A" d="M14.858 5.028H11.14L10 .914l.748 1.043.75 1.045.75-1.045L13 .914l.75 1.043.75 1.045.75-1.045L16 .914"/><path d="M8 .97C4.116.97.97 4.117.97 8.003c0 3.88 3.147 7.025 7.03 7.027 3.882-.002 7.03-3.146 7.03-7.027C15.03 4.116 11.882.97 8 .97zm-.083 11.554h-.01c-.664 0-1.122-.496-1.122-1.16 0-.686.47-1.156 1.132-1.156.688 0 1.136.47 1.147 1.156 0 .664-.458 1.16-1.147 1.16zm1.543-4.75c-.472.52-.663 1.02-.65 1.594v.23H7.116l-.012-.333c-.038-.65.177-1.312.75-1.988.41-.497.742-.905.742-1.34 0-.444-.293-.737-.93-.763-.423 0-.932.152-1.262.38L5.97 4.17c.472-.27 1.223-.524 2.127-.524 1.68 0 2.446.93 2.446 1.986 0 .97-.597 1.605-1.083 2.142z" mask="url(#a)"/></svg>