<?xml version="1.0"?><!DOCTYPE svg PUBLIC "-//W3C//DTD SVG 1.1//EN" "http://www.w3.org/Graphics/SVG/1.1/DTD/svg11.dtd"><svg width="16px" height="16px" xmlns="http://www.w3.org/2000/svg" viewBox="0 0 16 16" shape-rendering="geometricPrecision" fill="#abb7ce"><defs><mask id="decline-path"><rect fill="#fff" width="100%" height="100%"/><polygon points="17.414,1.215 14.79,-1.414 13.066,0.308 11.344,-1.414 8.717,1.213 10.439,2.934 8.715,4.656 11.345,7.284 13.067,5.562 14.789,7.285 17.414,4.655 15.693,2.935 " fill="#000"/></mask></defs><g fill="#cb1800"><polygon points="16,4.656 14.278,2.935 16,1.214 14.789,0.001 13.066,1.722 11.344,0.001 10.132,1.213 11.854,2.934 10.13,4.656 11.345,5.87 13.067,4.147 14.789,5.87 "/></g><g mask="url(#decline-path)"><g><polygon points="13.237,5.237 11.446,7.028 7.999,3.583 4.551,7.028 2.762,5.237 8.002,0"/><path d="M1.041,8.334v6.636h13.958V8.334H1.041z M12.198,12.248c-0.599,0-1.081-0.484-1.081-1.082s0.482-1.08,1.081-1.08 c0.596,0,1.081,0.482,1.081,1.08S12.794,12.248,12.198,12.248z"/></g></g></svg>