<?xml version="1.0"?><!DOCTYPE svg PUBLIC "-//W3C//DTD SVG 1.1//EN" "http://www.w3.org/Graphics/SVG/1.1/DTD/svg11.dtd"><svg xmlns="http://www.w3.org/2000/svg" viewBox="0 0 16 16" shape-rendering="geometricPrecision" fill="#6e6e6e"><defs><mask id="move_left-path"><rect fill="#fff" width="100%" height="100%"/><polygon points="16.383,1.058 13.913,-1.415 9.403,3.097 13.914,7.603 16.383,5.134 14.348,3.095 " fill="#000"/></mask></defs><polygon points="12.935,3.095 14.97,1.058 13.913,0 10.817,3.097 13.913,6.189 14.97,5.133 " fill="#cb1800"/><g mask="url(#move_left-path)"><g><path d="M8.058,9.283c1.382,0,2.497-1.115,2.497-2.495c0-1.378-1.114-2.494-2.497-2.494c-1.377,0-2.496,1.116-2.496,2.494 C5.562,8.168,6.681,9.283,8.058,9.283z M10.377,10.469H5.731c-1.323,0-2.398,1.082-2.398,2.404V16h9.45v-3.127 C12.784,11.551,11.7,10.469,10.377,10.469z"/></g></g></svg>
