<svg width="16" height="16" xmlns="http://www.w3.org/2000/svg" viewBox="0 0 16 16" shape-rendering="geometricPrecision" fill="#24437c"><defs><mask id="a"><rect fill="#fff" width="100%" height="100%"/><path fill="#000" d="M14.5 1.716L13-.37l-1.5 2.086-1.983-2.76-.836.01 1.89 6.812h4.86l1.883-6.792-.84-.013z"/></mask></defs><path fill="#FCC70A" d="M14.858 5.028H11.14L10 .914l.748 1.043.75 1.045.75-1.045L13 .914l.75 1.043.75 1.045.75-1.045L16 .914"/><g mask="url(#a)"><path d="M2.02 8.002c0 3.234 2.583 5.877 5.793 5.976V8.104L2.423 5.85c-.267.688-.402 1.41-.402 2.152zM5.608 2.526c-1.006.442-1.886 1.166-2.516 2.07l4.456 2.73-1.94-4.8zM8 2.022c-.343 0-.693.03-1.044.095L8.31 7.905l.787 5.967c2.8-.52 4.88-3 4.88-5.87.002-3.298-2.68-5.98-5.977-5.98z"/></g></svg>