<svg width="16" height="16" xmlns="http://www.w3.org/2000/svg" viewBox="0 0 16 16" shape-rendering="geometricPrecision" fill="#24437c"><defs><mask id="a"><rect fill="#fff" width="100%" height="100%"/><path fill="#000" d="M14.5 1.716L13-.37l-1.5 2.086-1.983-2.76-.836.01 1.89 6.812h4.86l1.883-6.792-.84-.013z"/></mask></defs><path fill="#FCC70A" d="M14.858 5.028H11.14L10 .914l.748 1.043.75 1.045.75-1.045L13 .914l.75 1.043.75 1.045.75-1.045L16 .914"/><path d="M15.235 11.444L9.643 5.85c.315-1.55-.127-3.22-1.327-4.418C6.996.114 5.122-.27 3.456.23l3.35 3.353L3.56 6.828.21 3.475c-.5 1.667-.113 3.54 1.2 4.86 1.2 1.2 2.87 1.64 4.417 1.33l5.59 5.587c.987.986 2.634.934 3.692-.124 1.052-1.052 1.106-2.705.125-3.684z" mask="url(#a)"/></svg>