<svg width="16" height="16" xmlns="http://www.w3.org/2000/svg" viewBox="0 0 16 16" shape-rendering="geometricPrecision"><defs><mask id="a"><rect fill="#fff" width="100%" height="100%"/><path d="M14.934-.397l-2.04 2.036L10.86-.398l-2.472 2.47 4.51 4.51 4.508-4.51z"/></mask></defs><path fill="#cb1800" d="M12.895 3.052l-2.037-2.035L9.8 2.073l3.097 3.096 3.093-3.097-1.057-1.056"/><path mask="url(#a)" d="M14.55 13.12L14.54 0H4.093c-1.376.003-2.498.62-2.52 1.987-.004.025-.004.53 0 .535v.003c0 .04.008.076.01.117h-.01v10.826C1.575 14.865 2.71 16 4.105 16h8.386l-.038-1.69-.01-11.344h-8.35c-.495 0-1.68-.048-1.68-.98v-.093C2.465 1.008 3.598.84 4.093.84h9.594v12.28h.864zm-2.9-2.23v1.745H6.376V10.89c0-.74.6-1.343 1.34-1.343h2.593c.738 0 1.343.603 1.343 1.342zM9.014 6.1c.77 0 1.395.624 1.395 1.394 0 .77-.623 1.393-1.395 1.393-.77 0-1.393-.623-1.393-1.393S8.243 6.1 9.013 6.1zm-3.638 0c.77 0 1.394.624 1.394 1.394 0 .77-.624 1.393-1.395 1.393-.77 0-1.393-.623-1.393-1.393S4.606 6.1 5.375 6.1zm-2.637 4.79c0-.74.6-1.343 1.34-1.343H6.06c-.3.37-.484.832-.485 1.342v1.745H2.738V10.89z"/></svg>