<?xml version="1.0"?><!DOCTYPE svg PUBLIC "-//W3C//DTD SVG 1.1//EN" "http://www.w3.org/Graphics/SVG/1.1/DTD/svg11.dtd"><svg xmlns="http://www.w3.org/2000/svg" viewBox="0 0 16 16" shape-rendering="geometricPrecision" fill="#000"><defs><mask id="move_down-path"><rect fill="#fff" width="100%" height="100%"/><polygon points="14.934,-0.397 12.895,1.639 10.858,-0.397 8.386,2.073 12.897,6.583 17.404,2.073 " fill="#000"/></mask></defs><polygon points="12.895,3.052 10.858,1.017 9.8,2.073 12.897,5.169 15.99,2.073 14.933,1.017 " fill="#cb1800"/><g mask="url(#move_down-path)"><path d="M8.001,1.061c-3.833,0-6.939,3.107-6.939,6.941c0,3.829,3.106,6.934,6.939,6.936 c3.832-0.002,6.936-3.106,6.937-6.936C14.938,4.169,11.833,1.061,8.001,1.061z M8.001,13.534 c-3.057-0.006-5.529-2.478-5.536-5.531c0.007-3.059,2.479-5.531,5.536-5.537c3.056,0.006,5.528,2.479,5.534,5.537 C13.529,11.057,11.057,13.528,8.001,13.534z"/><polygon points="6.978,3.327 6.978,7.632 4.312,9.183 5.367,11.029 9.085,8.87 9.107,8.87 9.104,3.328"/></g></svg>
