<?xml version="1.0"?><!DOCTYPE svg PUBLIC "-//W3C//DTD SVG 1.1//EN" "http://www.w3.org/Graphics/SVG/1.1/DTD/svg11.dtd"><svg width="16px" height="16px" xmlns="http://www.w3.org/2000/svg" viewBox="0 0 16 16" shape-rendering="geometricPrecision" fill="#000"><defs><mask id="move_down-path"><rect fill="#fff" width="100%" height="100%"/><polygon points="14.934,-0.397 12.895,1.639 10.858,-0.397 8.386,2.073 12.897,6.583 17.404,2.073 " fill="#000"/></mask></defs><polygon points="12.895,3.052 10.858,1.017 9.8,2.073 12.897,5.169 15.99,2.073 14.933,1.017 " fill="#cb1800"/><g mask="url(#move_down-path)"><g><path d="M5.687,5.661c0-1.279,1.036-2.312,2.313-2.312c1.276,0,2.312,1.033,2.312,2.312v1.149h1.414V5.661 c0-2.059-1.668-3.727-3.726-3.727c-2.059,0-3.728,1.669-3.728,3.727v1.149h1.414V5.661z M3.062,7.792v7.207h9.876V7.792H3.062z M8.87,12.594c0,0.479-0.388,0.867-0.867,0.867c-0.481,0-0.872-0.389-0.872-0.867v-2.396c0-0.478,0.391-0.867,0.869-0.867 c0.482,0,0.87,0.39,0.87,0.867V12.594z"/></g></g></svg>