<svg width="16" height="16" xmlns="http://www.w3.org/2000/svg" viewBox="0 0 16 16" shape-rendering="geometricPrecision"><defs><mask id="a"><rect fill="#fff" width="100%" height="100%"/><path d="M14.934-.397l-2.04 2.036L10.86-.398l-2.472 2.47 4.51 4.51 4.508-4.51z"/></mask></defs><path fill="#cb1800" d="M12.895 3.052l-2.037-2.035L9.8 2.073l3.097 3.096 3.093-3.097-1.057-1.056"/><path d="M2.99 14.88l11.857-4.524L11.87 7l-8.88 7.88zM0 1.472V16l1.618-1.436v-4.98h5.61l4.74-4.205 4.028 4.538.004-.002V1.473H0zm8.056 6.19H1.618V6.268h6.438V7.66zm6.327-2.845H1.618V3.426h12.765v1.392z" mask="url(#a)"/></svg>