<?xml version="1.0"?><!DOCTYPE svg PUBLIC "-//W3C//DTD SVG 1.1//EN" "http://www.w3.org/Graphics/SVG/1.1/DTD/svg11.dtd"><svg xmlns="http://www.w3.org/2000/svg" viewBox="0 0 16 16" shape-rendering="geometricPrecision" fill="#000"><defs><mask id="move_down-path"><rect fill="#fff" width="100%" height="100%"/><polygon points="14.934,-0.397 12.895,1.639 10.858,-0.397 8.386,2.073 12.897,6.583 17.404,2.073 " fill="#000"/></mask></defs><polygon points="12.895,3.052 10.858,1.017 9.8,2.073 12.897,5.169 15.99,2.073 14.933,1.017 " fill="#cb1800"/><path mask="url(#move_down-path)" d="M14.9,4.223l-2.144-0.193c-0.665-1.139-1.984-1.804-3.359-1.566C8.062,2.695,7.062,3.711,6.782,4.955 c-0.099,0.53-0.099,1.291-0.557,2.091C4.599,7.413,2.9,7.246,2.9,7.246s0.273,1.135,2.174,2.048 c-1.721,2.305-4.06,2.705-4.06,2.705s1.001,0.983,3.196,0.725c0.803-0.095,1.504-0.457,1.826-0.646l-2.271,1.408 c0,0,1.385,0.422,4.327-0.488c3.759-1.162,4.873-4.779,4.845-6.051c0.006-0.013,0.01-0.025,0.016-0.039l2.035-0.852l-2.093-0.433 L14.9,4.223z M10.907,5.674c-0.297,0-0.539-0.322-0.539-0.719c0-0.397,0.242-0.718,0.539-0.718c0.298,0,0.539,0.321,0.539,0.718 C11.446,5.352,11.205,5.674,10.907,5.674z"/></svg>
