<?xml version="1.0"?><!DOCTYPE svg PUBLIC "-//W3C//DTD SVG 1.1//EN" "http://www.w3.org/Graphics/SVG/1.1/DTD/svg11.dtd"><svg width="16px" height="16px" xmlns="http://www.w3.org/2000/svg" viewBox="0 0 16 16" shape-rendering="geometricPrecision" fill="#fff"><defs><mask id="new-path"><rect fill="#fff" width="100%" height="100%"/><polygon points="19.079,1.436 14.165,1.436 12.649,-3.238 11.13,1.436 6.217,1.436 10.192,4.322 8.676,8.995 12.648,6.107 16.62,8.996 15.104,4.322 " fill="#000"/></mask></defs><polygon points="13.928,3.94 16,2.435 13.439,2.435 12.648,0 11.857,2.435 9.295,2.435 11.367,3.94 10.577,6.377 12.648,4.871 14.719,6.377 " fill="#cb1800"/><g mask="url(#new-path)"><path d="M6.655,8.121c0,0.521-0.208,0.992-0.54,1.345h3.925C9.708,9.113,9.5,8.643,9.5,8.121 c0-0.668,0.337-1.259,0.849-1.613c-0.281-0.339-0.701-0.561-1.173-0.561H6.974c-0.472,0-0.889,0.221-1.169,0.56 C6.318,6.861,6.655,7.451,6.655,8.121z"/><circle cx="8.077" cy="3.606" r="1.587"/><circle cx="4.691" cy="8.122" r="1.587"/><path d="M5.79,10.462H3.587c-0.841,0-1.525,0.689-1.525,1.53v1.988H7.32v-1.988 C7.32,11.151,6.631,10.462,5.79,10.462z"/><circle cx="11.464" cy="8.121" r="1.588"/><path d="M12.562,10.462H10.36c-0.841,0-1.525,0.689-1.525,1.53v1.988h5.258v-1.988 C14.093,11.151,13.404,10.462,12.562,10.462z"/></g></svg>