<svg width="16" height="16" xmlns="http://www.w3.org/2000/svg" viewBox="0 0 16 16" shape-rendering="geometricPrecision" fill="#fff"><defs><mask id="a"><rect width="100%" height="100%"/><path fill="#000" d="M19.08 1.436h-4.915L12.65-3.238l-1.52 4.674H6.217l3.975 2.886-1.516 4.673 3.972-2.888 3.972 2.89-1.516-4.675z"/></mask></defs><path fill="#cb1800" d="M13.928 3.94L16 2.435h-2.56L12.647 0l-.79 2.435H9.294l2.072 1.505-.79 2.437 2.07-1.506 2.072 1.507"/><g mask="url(#a)"><path d="M10.56 10.525l-1.328-.154-1.106.753-1.104-.752-.046.006L8.35 15.33l1.664-1.83 2.382.71-1.3-4.69"/><path d="M12.17 5.086l.282-1.182-.996-.698-.298-1.178-1.207-.155L9.14.97 8 1.39 6.86.97l-.81.903-1.207.155-.3 1.178-.995.698.283 1.182-.557 1.08.8.916.008 1.215 1.135.44.572 1.073 1.21-.14 1.002.685 1.005-.686 1.208.138.57-1.072 1.135-.44.008-1.215.8-.914-.557-1.08zM8 9.56c-2.154 0-3.9-1.744-3.9-3.897C4.1 3.51 5.847 1.765 8 1.765c2.153 0 3.898 1.744 3.898 3.897s-1.745 3.9-3.9 3.9z"/><circle cx="8.03" cy="5.662" r="3.142"/><path d="M5.486 10.51l-.63-1.18-.034-.014-1.092 4.96 2.53-.907 1.337 1.316-1.186-4.282"/></g></svg>