<svg width="16" height="16" xmlns="http://www.w3.org/2000/svg" viewBox="0 0 16 16" shape-rendering="geometricPrecision" fill="#fff"><defs><mask id="a"><rect width="100%" height="100%"/><path fill="#000" d="M19.08 1.436h-4.915L12.65-3.238l-1.52 4.674H6.217l3.975 2.886-1.516 4.673 3.972-2.888 3.972 2.89-1.516-4.675z"/></mask></defs><path fill="#cb1800" d="M13.928 3.94L16 2.435h-2.56L12.647 0l-.79 2.435H9.294l2.072 1.505-.79 2.437 2.07-1.506 2.072 1.507"/><path mask="url(#a)" d="M8.04 1.977c-3.315 0-6 2.687-6 6s2.686 6 6 6c3.313 0 6-2.687 6-6 0-3.314-2.687-6-6-6zm.373 6.606l-1.75-.33-.568 2.07-.708-1.678-1.685 1.377.748-2.044-1.816-.12L4.4 6.645 3.518 5.1l1.75.33.57-2.07.705 1.68L8.23 3.662l-.75 2.043 1.816.12L7.53 7.037l.883 1.546z"/></svg>