<?xml version="1.0"?><!DOCTYPE svg PUBLIC "-//W3C//DTD SVG 1.1//EN" "http://www.w3.org/Graphics/SVG/1.1/DTD/svg11.dtd"><svg width="16px" height="16px" xmlns="http://www.w3.org/2000/svg" viewBox="0 0 16 16" shape-rendering="geometricPrecision" fill="#fff"><defs><mask id="new-path"><rect fill="#fff" width="100%" height="100%"/><polygon points="19.079,1.436 14.165,1.436 12.649,-3.238 11.13,1.436 6.217,1.436 10.192,4.322 8.676,8.995 12.648,6.107 16.62,8.996 15.104,4.322 " fill="#000"/></mask></defs><polygon points="13.928,3.94 16,2.435 13.439,2.435 12.648,0 11.857,2.435 9.295,2.435 11.367,3.94 10.577,6.377 12.648,4.871 14.719,6.377 " fill="#cb1800"/><g mask="url(#new-path)"><g><path d="M2.271,0.963v13.971H13.73V0.963H2.271z M8.016,2.596c1.475,0,2.665,1.194,2.665,2.665c0,1.477-1.19,2.666-2.665,2.666 c-1.471,0-2.667-1.189-2.667-2.666C5.349,3.79,6.545,2.596,8.016,2.596z M12.549,14.093H3.484v-2.996 c0-1.268,1.032-2.306,2.301-2.306h4.457c1.268,0,2.308,1.038,2.308,2.306V14.093z"/></g></g></svg>