<svg width="16" height="16" xmlns="http://www.w3.org/2000/svg" viewBox="0 0 16 16" shape-rendering="geometricPrecision" fill="#fff"><defs><mask id="a"><rect width="100%" height="100%"/><path fill="#000" d="M19.08 1.436h-4.915L12.65-3.238l-1.52 4.674H6.217l3.975 2.886-1.516 4.673 3.972-2.888 3.972 2.89-1.516-4.675z"/></mask></defs><path fill="#cb1800" d="M13.928 3.94L16 2.435h-2.56L12.647 0l-.79 2.435H9.294l2.072 1.505-.79 2.437 2.07-1.506 2.072 1.507"/><g mask="url(#a)"><path d="M13.942 1.97v-.008H2V13.97h12v-12h-.058zm-.942 11H3v-10h10v10z"/><path d="M7.912 11.97h2.1c.614 0 .91-.382.91-.952s-.428-.903-.928-.903h-1.98c-.927 0-1.212-.57-1.212-1.14v-.572h3.192c.643 0 1.035-.32 1.035-.963 0-.537-.458-.892-1.1-.892H6.784s-.018-.816-.018-1.457c0-.552-.306-1.046-.917-1.046-.57 0-.85.433-.85 1.13V9.26c0 2.007 1.114 2.71 2.912 2.71z"/></g></svg>