<svg width="16" height="16" xmlns="http://www.w3.org/2000/svg" viewBox="0 0 16 16" shape-rendering="geometricPrecision" fill="#cb1800"><defs><mask id="a"><rect fill="#fff" width="100%" height="100%"/><path d="M16.45 1.534c.092-.364-.003-.77-.287-1.066l-.58-.58c-.286-.288-.692-.384-1.065-.29-.194-.328-.552-.55-.962-.552h-.82c-.41 0-.77.223-.963.554-.38-.106-.813.038-1.062.288l-.575.58c-.29.286-.386.697-.292 1.066-.33.194-.55.553-.55.962v.82c0 .41.22.767.548.96-.023.094-.034.19-.034.286.002.263.14.595.325.78l.58.582c.25.248.68.393 1.063.287.194.333.555.556.963.556h.82c.298 0 .588-.12.796-.333.06-.06.112-.134.158-.216.098.025.2.03.3.036.26-.004.588-.144.77-.328l.57-.572c.216-.21.338-.503.336-.803 0-.085-.016-.178-.042-.27.333-.194.556-.553.556-.965v-.82c0-.41-.22-.767-.55-.96z" fill="#000"/></mask></defs><path d="M15.884 2.38h-.177v-.004c-.212.008-.415-.118-.5-.325-.085-.206-.03-.438.123-.585l.126-.126c.044-.045.044-.12 0-.166l-.58-.58c-.045-.046-.118-.046-.165 0l-.124.126c-.147.152-.378.21-.586.12-.206-.086-.332-.288-.326-.5V.163c0-.065-.053-.117-.118-.117h-.82c-.062 0-.116.053-.115.117V.34c.006.213-.118.415-.325.502-.208.086-.44.03-.585-.122l-.126-.126c-.045-.045-.12-.045-.165 0l-.58.58c-.044.046-.044.12 0 .165l.124.126c.154.148.21.38.124.586-.086.207-.29.333-.5.325l-.178.003c-.065 0-.117.053-.117.117v.82c0 .064.052.117.117.117h.178l-.002.002c.212-.008.415.118.5.325.086.21.03.44-.122.586l-.125.128c-.045.044-.045.12 0 .163l.578.58c.045.046.12.046.165 0l.127-.124c.146-.153.377-.208.585-.123.207.088.33.29.326.502l.003.177h-.002c.002.065.054.116.117.116h.82c.064 0 .117-.05.117-.117V5.47c-.006-.212.12-.414.326-.502.208-.085.44-.03.586.123l.124.126c.046.045.12.045.165 0l.58-.58c.046-.046.046-.12 0-.164l-.125-.13c-.153-.146-.208-.377-.122-.585.085-.206.288-.332.5-.324l.176-.004c.063 0 .116-.053.116-.117v-.82c0-.064-.053-.116-.116-.116zm-2.738 1.53c-.553 0-1-.45-1-1.004s.447-1.005 1-1.005c.553 0 1.002.45 1.002 1.006S13.7 3.91 13.146 3.91z"/><path mask="url(#a)" d="M14.307 9.69c.143-.537.227-1.1.227-1.682 0-3.604-2.922-6.525-6.525-6.525-.582 0-1.143.084-1.68.227-.536-.373-1.187-.592-1.89-.592-1.835 0-3.322 1.486-3.322 3.322 0 .7.22 1.353.592 1.89-.143.536-.226 1.097-.226 1.68 0 3.603 2.922 6.524 6.525 6.524.582 0 1.144-.084 1.682-.23.532.364 1.175.577 1.868.577 1.835 0 3.322-1.487 3.322-3.32 0-.694-.212-1.336-.575-1.87zm-3.332 1.3c-.144.315-.354.59-.63.83-.275.24-.61.43-1.002.57-.392.14-.837.208-1.333.208-.596 0-1.17-.11-1.72-.338-.55-.224-1.04-.544-1.464-.96l.908-1.07c.316.297.677.54 1.083.725.406.186.817.277 1.232.277.495 0 .877-.104 1.144-.31.266-.21.4-.483.4-.827 0-.182-.035-.334-.103-.46-.066-.126-.16-.24-.282-.333-.123-.094-.27-.182-.44-.264-.172-.082-.357-.162-.556-.242l-1.205-.53c-.216-.09-.433-.202-.65-.34-.217-.134-.41-.296-.576-.486-.165-.19-.3-.41-.405-.664-.104-.254-.156-.54-.156-.867 0-.353.074-.68.223-.984.15-.3.354-.566.616-.79.26-.227.572-.4.933-.527.36-.128.76-.19 1.192-.19.524 0 1.024.1 1.503.304.478.203.89.477 1.232.818l-.812 1.002c-.28-.234-.576-.42-.887-.555-.31-.136-.656-.204-1.035-.204-.424 0-.76.092-1.01.277-.247.184-.372.442-.372.766 0 .17.04.315.116.438.075.122.18.23.31.325.13.096.282.182.454.258.17.08.347.15.528.226l1.192.5c.262.11.503.234.724.38.222.144.41.312.57.5.157.19.28.41.365.657.085.248.128.535.128.86 0 .36-.07.7-.215 1.016z"/></svg>