<svg width="16" height="16" xmlns="http://www.w3.org/2000/svg" viewBox="0 0 16 16" shape-rendering="geometricPrecision" fill="#cb1800"><defs><mask id="a"><rect fill="#fff" width="100%" height="100%"/><path d="M16.45 1.534c.092-.364-.003-.77-.287-1.066l-.58-.58c-.286-.288-.692-.384-1.065-.29-.194-.328-.552-.55-.962-.552h-.82c-.41 0-.77.223-.963.554-.38-.106-.813.038-1.062.288l-.575.58c-.29.286-.386.697-.292 1.066-.33.194-.55.553-.55.962v.82c0 .41.22.767.548.96-.023.094-.034.19-.034.286.002.263.14.595.325.78l.58.582c.25.248.68.393 1.063.287.194.333.555.556.963.556h.82c.298 0 .588-.12.796-.333.06-.06.112-.134.158-.216.098.025.2.03.3.036.26-.004.588-.144.77-.328l.57-.572c.216-.21.338-.503.336-.803 0-.085-.016-.178-.042-.27.333-.194.556-.553.556-.965v-.82c0-.41-.22-.767-.55-.96z" fill="#000"/></mask></defs><path d="M15.884 2.38h-.177v-.004c-.212.008-.415-.118-.5-.325-.085-.206-.03-.438.123-.585l.126-.126c.044-.045.044-.12 0-.166l-.58-.58c-.045-.046-.118-.046-.165 0l-.124.126c-.147.152-.378.21-.586.12-.206-.086-.332-.288-.326-.5V.163c0-.065-.053-.117-.118-.117h-.82c-.062 0-.116.053-.115.117V.34c.006.213-.118.415-.325.502-.208.086-.44.03-.585-.122l-.126-.126c-.045-.045-.12-.045-.165 0l-.58.58c-.044.046-.044.12 0 .165l.124.126c.154.148.21.38.124.586-.086.207-.29.333-.5.325l-.178.003c-.065 0-.117.053-.117.117v.82c0 .064.052.117.117.117h.178l-.002.002c.212-.008.415.118.5.325.086.21.03.44-.122.586l-.125.128c-.045.044-.045.12 0 .163l.578.58c.045.046.12.046.165 0l.127-.124c.146-.153.377-.208.585-.123.207.088.33.29.326.502l.003.177h-.002c.002.065.054.116.117.116h.82c.064 0 .117-.05.117-.117V5.47c-.006-.212.12-.414.326-.502.208-.085.44-.03.586.123l.124.126c.046.045.12.045.165 0l.58-.58c.046-.046.046-.12 0-.164l-.125-.13c-.153-.146-.208-.377-.122-.585.085-.206.288-.332.5-.324l.176-.004c.063 0 .116-.053.116-.117v-.82c0-.064-.053-.116-.116-.116zm-2.738 1.53c-.553 0-1-.45-1-1.004s.447-1.005 1-1.005c.553 0 1.002.45 1.002 1.006S13.7 3.91 13.146 3.91z"/><path mask="url(#a)" d="M8 1.042c-3.843 0-6.958 3.115-6.958 6.96 0 3.842 3.116 6.955 6.96 6.956 3.842 0 6.955-3.114 6.957-6.955-.002-3.846-3.116-6.96-6.96-6.96zm3.606 6.876c0 .354-.065.69-.16 1.014h2.02c-.134.778-.424 1.502-.843 2.134l-1.45-1.45c-.33.635-.835 1.154-1.457 1.503l1.44 1.44c-.633.438-1.36.748-2.147.894v-2.032c-.347.107-.707.182-1.088.182-.352 0-.684-.064-1.006-.156v1.996c-.776-.155-1.493-.474-2.116-.915l1.38-1.38c-.627-.34-1.14-.853-1.48-1.48l-1.35 1.35c-.405-.622-.686-1.33-.815-2.09h1.863c-.094-.322-.16-.658-.16-1.012 0-.378.075-.736.18-1.08H2.576c.156-.728.455-1.402.866-1.994l1.28 1.28c.35-.62.87-1.126 1.502-1.457l-1.29-1.29c.59-.392 1.26-.675 1.982-.818v1.83c.322-.09.654-.155 1.006-.155.38 0 .74.075 1.087.182v-1.87c.73.135 1.41.412 2.01.803L9.672 4.695c.627.342 1.138.854 1.478 1.48L12.528 4.8c.426.602.737 1.29.897 2.038h-1.997c.106.344.18.702.18 1.08z"/></svg>