<?xml version="1.0"?><!DOCTYPE svg PUBLIC "-//W3C//DTD SVG 1.1//EN" "http://www.w3.org/Graphics/SVG/1.1/DTD/svg11.dtd"><svg xmlns="http://www.w3.org/2000/svg" viewBox="0 0 16 16" shape-rendering="geometricPrecision" fill="#cb1800"><defs><mask id="move_right-path"><rect fill="#fff" width="100%" height="100%"/><polygon points="11.875,-1.414 9.405,1.056 11.44,3.095 9.405,5.132 11.875,7.604 16.385,3.093 " fill="#000"/></mask></defs><polygon points="11.875,0 10.818,1.057 12.853,3.095 10.818,5.132 11.875,6.189 14.97,3.093 " fill="#cb1800"/><g mask="url(#move_right-path)"><g><polygon points="7.999,3.007 0.701,5.591 3.853,7.29 7.853,5.602 8.516,5.905 4.52,7.651 7.999,9.524 15.299,5.591"/><g><polygon points="3.336,7.813 1.644,8.415 3.091,9.194 3.336,9.327"/><polygon points="12.661,7.813 7.999,10.325 4.998,8.708 4.998,10.222 7.999,11.839 12.691,9.31 14.356,8.415"/></g><polygon points="3.899,12.542 4.507,12.993 4.507,7.663 3.899,7.296"/></g></g></svg>
