<svg width="16" height="16" xmlns="http://www.w3.org/2000/svg" viewBox="0 0 16 16" shape-rendering="geometricPrecision" fill="#cb1800"><defs><mask id="a"><rect fill="#fff" width="100%" height="100%"/><path fill="#000" d="M11.875-1.414l-2.47 2.47 2.035 2.04L9.405 5.13l2.47 2.472 4.51-4.51z"/></mask></defs><path d="M11.875 0l-1.057 1.057 2.035 2.038-2.035 2.037 1.057 1.057 3.095-3.097"/><g mask="url(#a)"><path d="M0 5.12l3.176 3.182L0 11.48l1.65 1.65L6.48 8.3 1.65 3.473M7.144.605V14.7H8.21V1.67l4.058.003-2.67.764V16l6.4-1.832V1.674H16V.604H7.144zM15 13.47l-4.4 1.282V3.188L15 1.906V13.47z"/></g></svg>