<svg width="16" height="16" xmlns="http://www.w3.org/2000/svg" viewBox="0 0 16 16" shape-rendering="geometricPrecision" fill="#cb1800"><defs><mask id="a"><rect fill="#fff" width="100%" height="100%"/><path fill="#000" d="M11.875-1.414l-2.47 2.47 2.035 2.04L9.405 5.13l2.47 2.472 4.51-4.51z"/></mask></defs><path d="M11.875 0l-1.057 1.057 2.035 2.038-2.035 2.037 1.057 1.057 3.095-3.097"/><path mask="url(#a)" d="M8.255 6.028v-.806c0-1.318.144-1.61 1.71-1.61h2.026L12 .994H8.562c-1.913 0-2.85 1.02-2.85 2.983v2.05H4.23v2.618H5.71v6.284l2.497.005c.006-3.073.02-6.29.02-6.29h3.75l.012-2.617H8.255z"/></svg>