<svg width="16" height="16" xmlns="http://www.w3.org/2000/svg" viewBox="0 0 16 16" shape-rendering="geometricPrecision" fill="#cb1800"><defs><mask id="a"><rect fill="#fff" width="100%" height="100%"/><path fill="#000" d="M11.875-1.414l-2.47 2.47 2.035 2.04L9.405 5.13l2.47 2.472 4.51-4.51z"/></mask></defs><path d="M11.875 0l-1.057 1.057 2.035 2.038-2.035 2.037 1.057 1.057 3.095-3.097"/><g mask="url(#a)"><path d="M2.02 8.002c0 3.234 2.583 5.877 5.793 5.976V8.104L2.423 5.85c-.267.688-.402 1.41-.402 2.152zM5.608 2.526c-1.006.442-1.886 1.166-2.516 2.07l4.456 2.73-1.94-4.8zM8 2.022c-.343 0-.693.03-1.044.095L8.31 7.905l.787 5.967c2.8-.52 4.88-3 4.88-5.87.002-3.298-2.68-5.98-5.977-5.98z"/></g></svg>