<?xml version="1.0"?><!DOCTYPE svg PUBLIC "-//W3C//DTD SVG 1.1//EN" "http://www.w3.org/Graphics/SVG/1.1/DTD/svg11.dtd"><svg width="16px" height="16px" xmlns="http://www.w3.org/2000/svg" viewBox="0 0 16 16" shape-rendering="geometricPrecision" fill="#ffad00"><defs><mask id="new-path"><rect fill="#fff" width="100%" height="100%"/><polygon points="19.079,1.436 14.165,1.436 12.649,-3.238 11.13,1.436 6.217,1.436 10.192,4.322 8.676,8.995 12.648,6.107 16.62,8.996 15.104,4.322 " fill="#000"/></mask></defs><polygon points="13.928,3.94 16,2.435 13.439,2.435 12.648,0 11.857,2.435 9.295,2.435 11.367,3.94 10.577,6.377 12.648,4.871 14.719,6.377 " fill="#cb1800"/><g mask="url(#new-path)"><path d="M7.999,0.973c-3.864,0-6.996,3.133-6.996,7c0.001,3.862,3.132,6.992,6.996,6.994 c3.865-0.002,6.998-3.132,6.998-6.994C14.997,4.105,11.864,0.973,7.999,0.973z M7.999,13.552 c-3.082-0.006-5.575-2.499-5.581-5.579c0.006-3.085,2.499-5.579,5.581-5.585c3.082,0.006,5.576,2.5,5.582,5.585 C13.574,11.053,11.081,13.546,7.999,13.552z M8.005,10.126c-0.683,0-1.16,0.49-1.16,1.175c0,0.671,0.464,1.172,1.147,1.172h0.013 c0.698,0,1.148-0.501,1.148-1.172C9.143,10.616,8.691,10.126,8.005,10.126z M8.741,9.48l0.286-5.845H6.974L7.27,9.48H8.741z"/></g></svg>