<svg width="16" height="16" xmlns="http://www.w3.org/2000/svg" viewBox="0 0 16 16" shape-rendering="geometricPrecision" fill="#ffad00"><defs><mask id="a"><rect fill="#fff" width="100%" height="100%"/><path fill="#000" d="M19.08 1.436h-4.915L12.65-3.238l-1.52 4.674H6.217l3.975 2.886-1.516 4.673 3.972-2.888 3.972 2.89-1.516-4.675z"/></mask></defs><path fill="#cb1800" d="M13.928 3.94L16 2.435h-2.56L12.647 0l-.79 2.435H9.294l2.072 1.505-.79 2.437 2.07-1.506 2.072 1.507"/><path d="M8 1.01c-3.86 0-6.99 3.13-6.99 6.992 0 3.857 3.13 6.986 6.99 6.986 3.86 0 6.99-3.13 6.99-6.986 0-3.86-3.13-6.99-6.99-6.99zm2.732 10.236L9.047 12.93l-4.93-4.933 4.93-4.928 1.685 1.685L7.486 8l3.246 3.246z" mask="url(#a)"/></svg>