<svg width="16" height="16" xmlns="http://www.w3.org/2000/svg" viewBox="0 0 16 16" shape-rendering="geometricPrecision" fill="#ffad00"><defs><mask id="a"><rect fill="#fff" width="100%" height="100%"/><path fill="#000" d="M19.08 1.436h-4.915L12.65-3.238l-1.52 4.674H6.217l3.975 2.886-1.516 4.673 3.972-2.888 3.972 2.89-1.516-4.675z"/></mask></defs><path fill="#cb1800" d="M13.928 3.94L16 2.435h-2.56L12.647 0l-.79 2.435H9.294l2.072 1.505-.79 2.437 2.07-1.506 2.072 1.507"/><path d="M2.27.963v13.97h11.46V.964H2.27zm5.746 1.633c1.475 0 2.665 1.194 2.665 2.665 0 1.478-1.19 2.667-2.664 2.667-1.47 0-2.667-1.19-2.667-2.666 0-1.47 1.195-2.664 2.666-2.664zm4.533 11.497H3.483v-2.996c0-1.268 1.032-2.306 2.3-2.306h4.458c1.268 0 2.308 1.04 2.308 2.307v2.996z" mask="url(#a)"/></svg>