<svg width="16" height="16" xmlns="http://www.w3.org/2000/svg" viewBox="0 0 16 16" shape-rendering="geometricPrecision" fill="#ffad00"><defs><mask id="a"><rect fill="#fff" width="100%" height="100%"/><path fill="#000" d="M19.08 1.436h-4.915L12.65-3.238l-1.52 4.674H6.217l3.975 2.886-1.516 4.673 3.972-2.888 3.972 2.89-1.516-4.675z"/></mask></defs><path fill="#cb1800" d="M13.928 3.94L16 2.435h-2.56L12.647 0l-.79 2.435H9.294l2.072 1.505-.79 2.437 2.07-1.506 2.072 1.507"/><path d="M8 .97C4.116.97.97 4.117.97 8.003c0 3.88 3.147 7.025 7.03 7.027 3.882-.002 7.03-3.146 7.03-7.027C15.03 4.116 11.882.97 8 .97zm0 12.638c-3.097-.006-5.602-2.512-5.608-5.605.006-3.1 2.51-5.606 5.607-5.61 3.097.005 5.602 2.51 5.608 5.61-.006 3.094-2.51 5.6-5.61 5.605z" mask="url(#a)"/></svg>