<?xml version="1.0"?><!DOCTYPE svg PUBLIC "-//W3C//DTD SVG 1.1//EN" "http://www.w3.org/Graphics/SVG/1.1/DTD/svg11.dtd"><svg width="16px" height="16px" xmlns="http://www.w3.org/2000/svg" viewBox="0 0 16 16" shape-rendering="geometricPrecision" fill="#ffad00"><defs><mask id="new-path"><rect fill="#fff" width="100%" height="100%"/><polygon points="19.079,1.436 14.165,1.436 12.649,-3.238 11.13,1.436 6.217,1.436 10.192,4.322 8.676,8.995 12.648,6.107 16.62,8.996 15.104,4.322 " fill="#000"/></mask></defs><polygon points="13.928,3.94 16,2.435 13.439,2.435 12.648,0 11.857,2.435 9.295,2.435 11.367,3.94 10.577,6.377 12.648,4.871 14.719,6.377 " fill="#cb1800"/><g mask="url(#new-path)"><g><g><rect x="-0.001" y="8.59" width="7.406" height="7.41"/><g><g><path d="M8.555,8.59V16H16V8.59H8.555z M14.852,13.796l-1.063,1.061l-1.51-1.504l-1.511,1.504l-1.064-1.06l1.511-1.503 l-1.51-1.504l1.063-1.059l1.511,1.505l1.51-1.505l1.063,1.061l-1.511,1.502L14.852,13.796z"/></g></g></g><g><g><path d="M4.276,0.073v7.41h7.368v-7.41H4.276z M7.352,6.122L4.96,3.717l1.051-1.059L7.35,4.004l2.559-2.572l1.054,1.06 L7.352,6.122z"/></g></g></g></g></svg>