<?xml version="1.0"?><!DOCTYPE svg PUBLIC "-//W3C//DTD SVG 1.1//EN" "http://www.w3.org/Graphics/SVG/1.1/DTD/svg11.dtd"><svg xmlns="http://www.w3.org/2000/svg" viewBox="0 0 16 16" shape-rendering="geometricPrecision" fill="#ffad00"><defs><mask id="new-path"><rect fill="#fff" width="100%" height="100%"/><polygon points="19.079,1.436 14.165,1.436 12.649,-3.238 11.13,1.436 6.217,1.436 10.192,4.322 8.676,8.995 12.648,6.107 16.62,8.996 15.104,4.322 " fill="#000"/></mask></defs><polygon points="13.928,3.94 16,2.435 13.439,2.435 12.648,0 11.857,2.435 9.295,2.435 11.367,3.94 10.577,6.377 12.648,4.871 14.719,6.377 " fill="#cb1800"/><g mask="url(#new-path)"><path d="M11.231,3.39c0.002-0.046,0.008-0.09,0.008-0.136c0-1.791-1.451-3.242-3.242-3.242 c-1.387,0-2.569,0.875-3.031,2.104l1.312,0.399c0.285-0.664,0.947-1.133,1.719-1.133c1.033,0,1.873,0.837,1.873,1.872 c0,0.525-0.222,1.001-0.569,1.341C8.718,5.216,8.271,5.216,7.125,5.83C5.301,6.814,4.854,8.341,4.759,9.244v6.744h6.482V3.39 H11.231z M7.445,15.148l-2.33-2.328l1.024-1.024l1.303,1.303l2.492-2.489l1.024,1.026L7.445,15.148z"/></g></svg>
