<svg width="16" height="16" xmlns="http://www.w3.org/2000/svg" viewBox="0 0 16 16" shape-rendering="geometricPrecision" fill="#ffad00"><defs><mask id="a"><rect fill="#fff" width="100%" height="100%"/><path fill="#000" d="M19.08 1.436h-4.915L12.65-3.238l-1.52 4.674H6.217l3.975 2.886-1.516 4.673 3.972-2.888 3.972 2.89-1.516-4.675z"/></mask></defs><path fill="#cb1800" d="M13.928 3.94L16 2.435h-2.56L12.647 0l-.79 2.435H9.294l2.072 1.505-.79 2.437 2.07-1.506 2.072 1.507"/><path d="M11.236 3.388c0-.045.005-.09.005-.137C11.24 1.46 9.79.01 8 .01 6.607.01 5.43.883 4.966 2.11l1.312.402c.283-.668.946-1.137 1.72-1.137 1.032 0 1.872.838 1.872 1.873 0 .525-.222 1.002-.572 1.342-.582.624-1.028.624-2.172 1.24-1.83.98-2.275 2.51-2.37 3.413v6.746h6.484V3.39h-.006zM7.892 15.046h-.01c-.53 0-.9-.4-.9-.932 0-.555.378-.934.91-.934.556 0 .913.38.923.934 0 .53-.368.932-.923.932zm1.24-3.82c-.38.418-.532.818-.52 1.28v.185H7.247l-.01-.267c-.03-.523.145-1.055.605-1.598.327-.398.594-.73.594-1.074 0-.358-.235-.595-.748-.614-.34 0-.75.123-1.016.307l-.35-1.116c.38-.215.985-.42 1.712-.42 1.354 0 1.967.746 1.967 1.598 0 .78-.483 1.29-.87 1.72z" mask="url(#a)"/></svg>