<svg width="16" height="16" xmlns="http://www.w3.org/2000/svg" viewBox="0 0 16 16" shape-rendering="geometricPrecision" fill="#ffad00"><defs><mask id="a"><rect fill="#fff" width="100%" height="100%"/><path fill="#000" d="M19.08 1.436h-4.915L12.65-3.238l-1.52 4.674H6.217l3.975 2.886-1.516 4.673 3.972-2.888 3.972 2.89-1.516-4.675z"/></mask></defs><path fill="#cb1800" d="M13.928 3.94L16 2.435h-2.56L12.647 0l-.79 2.435H9.294l2.072 1.505-.79 2.437 2.07-1.506 2.072 1.507"/><path d="M7.975 1.052c-3.85 0-6.973 3.124-6.975 6.97h2.077c0-2.7 2.193-4.896 4.897-4.896 2.705 0 4.9 2.195 4.9 4.897 0 2.706-2.195 4.9-4.9 4.9V15c3.852 0 6.974-3.126 6.974-6.977 0-3.847-3.122-6.97-6.973-6.97zm2.62 6.97c0-1.443-1.175-2.616-2.62-2.616s-2.62 1.173-2.62 2.617c0 1.446 1.173 2.622 2.62 2.622s2.62-1.175 2.62-2.622z" mask="url(#a)"/></svg>