<svg width="16" height="16" xmlns="http://www.w3.org/2000/svg" viewBox="0 0 16 16" shape-rendering="geometricPrecision" fill="#ffad00"><defs><mask id="a"><rect fill="#fff" width="100%" height="100%"/><path fill="#000" d="M19.08 1.436h-4.915L12.65-3.238l-1.52 4.674H6.217l3.975 2.886-1.516 4.673 3.972-2.888 3.972 2.89-1.516-4.675z"/></mask></defs><path fill="#cb1800" d="M13.928 3.94L16 2.435h-2.56L12.647 0l-.79 2.435H9.294l2.072 1.505-.79 2.437 2.07-1.506 2.072 1.507"/><path d="M15.235 11.444L9.643 5.85c.315-1.55-.127-3.22-1.327-4.418C6.996.114 5.122-.27 3.456.23l3.35 3.353L3.56 6.828.21 3.475c-.5 1.667-.113 3.54 1.2 4.86 1.2 1.2 2.87 1.64 4.417 1.33l5.59 5.587c.987.986 2.634.934 3.692-.124 1.052-1.052 1.106-2.705.125-3.684z" mask="url(#a)"/></svg>