<?xml version="1.0" encoding="utf-8"?>
<!-- Generator: Adobe Illustrator 15.0.2, SVG Export Plug-In . SVG Version: 6.00 Build 0)  -->
<!DOCTYPE svg PUBLIC "-//W3C//DTD SVG 1.0//EN" "http://www.w3.org/TR/2001/REC-SVG-20010904/DTD/svg10.dtd">
<svg version="1.0" xmlns="http://www.w3.org/2000/svg" xmlns:xlink="http://www.w3.org/1999/xlink" x="0px" y="0px" width="16px"
	 height="16px" viewBox="0 0 16 16" enable-background="new 0 0 16 16" xml:space="preserve">
<g id="Icons">
	<g id="home" display="none">
		<polygon display="inline" points="7.989,0.001 0,8.228 1.303,8.228 1.303,16 5.692,16 5.692,9.921 10.289,9.921 10.289,16 
			14.68,16 14.68,8.228 15.981,8.228 		"/>
	</g>
	<g id="seminar" display="none">
		<path display="inline" d="M7.975,1.052C4.126,1.052,1.002,4.176,1,8.022h2.077c0-2.7,2.193-4.896,4.897-4.896
			c2.705,0,4.899,2.195,4.899,4.896c0,2.706-2.194,4.899-4.898,4.9V15c3.851,0,6.973-3.126,6.973-6.977
			C14.949,4.176,11.826,1.052,7.975,1.052z M10.595,8.023c0-1.444-1.175-2.617-2.621-2.617S5.356,6.579,5.356,8.023
			c0,1.446,1.172,2.622,2.618,2.622S10.595,9.47,10.595,8.023z"/>
	</g>
	<g id="institute" display="none">
		<path display="inline" d="M13.684,5.576h2.312L7.998,1L0,5.576h2.312v8.022H1.194v1.316h13.61v-1.316h-1.12V5.576z M11.251,13.599
			H9.215V5.576h2.036V13.599z M4.745,5.576h2.037v8.022H4.745V5.576z"/>
	</g>
	<g id="mail" display="none">
		<g display="inline">
			<path d="M1.008,5.362v7.732H15V5.336l-7.015,5.525L1.008,5.362z M1.008,3.386v0.019l6.977,5.527L15,3.412V3.386H1.008z"/>
		</g>
	</g>
	<g id="community" display="none">
		<g display="inline">
			<path d="M11.246,9.283c1.382,0,2.497-1.115,2.497-2.495c0-1.378-1.114-2.494-2.497-2.494c-1.377,0-2.496,1.116-2.496,2.494
				C8.75,8.168,9.869,9.283,11.246,9.283z M0.005,12.873V16h5.081v-3.128c0.002-0.914,0.335-1.743,0.869-2.403H2.403
				C1.081,10.469,0.005,11.551,0.005,12.873z M13.564,10.469H8.919c-1.323,0-2.398,1.082-2.398,2.404V16h9.45v-3.127
				C15.971,11.551,14.887,10.469,13.564,10.469z M4.729,4.294c-1.377,0-2.495,1.116-2.495,2.494c0,1.38,1.118,2.495,2.495,2.495
				c1.381,0,2.496-1.115,2.496-2.495C7.225,5.41,6.111,4.294,4.729,4.294z"/>
		</g>
	</g>
	<g id="headache">
		<g>
			<path d="M8.058,9.283c1.382,0,2.497-1.115,2.497-2.495c0-1.378-1.114-2.494-2.497-2.494c-1.377,0-2.496,1.116-2.496,2.494
				C5.562,8.168,6.681,9.283,8.058,9.283z M10.377,10.469H5.731c-1.323,0-2.398,1.082-2.398,2.404V16h9.45v-3.127
				C12.784,11.551,11.7,10.469,10.377,10.469z"/>
		</g>
	</g>
	<g id="schedule" display="none">
		<path display="inline" d="M5.583,11.08V9.383L4.325,11.08H5.583z M10.827,4.962c0.454,0,0.82-0.368,0.82-0.82V1.876
			c0-0.449-0.366-0.818-0.82-0.818c-0.453,0-0.818,0.369-0.818,0.818v2.266C10.008,4.594,10.374,4.962,10.827,4.962z M5.174,4.962
			c0.452,0,0.818-0.368,0.818-0.82V1.876c0-0.449-0.366-0.818-0.818-0.818c-0.455,0-0.818,0.369-0.818,0.818v2.266
			C4.356,4.594,4.719,4.962,5.174,4.962z M12.657,3.688v0.549c0,1.009-0.822,1.83-1.83,1.83c-1.015,0-1.83-0.821-1.83-1.83V3.688
			H7.004v0.549c0,1.009-0.823,1.83-1.83,1.83c-1.015,0-1.831-0.821-1.831-1.83V3.688H1.474V15h13.052V3.688H12.657z M7.525,12.152
			c-0.144,0.098-0.324,0.132-0.544,0.134h-0.09v0.589c0,0.225-0.048,0.42-0.176,0.561c-0.117,0.132-0.287,0.201-0.469,0.201H6.236
			c-0.184,0.003-0.358-0.07-0.477-0.206c-0.126-0.142-0.177-0.335-0.177-0.556v-0.589H3.73c-0.275,0-0.507-0.063-0.674-0.212
			c-0.162-0.146-0.241-0.354-0.241-0.584c0-0.069,0.013-0.138,0.037-0.205c0.023-0.066,0.058-0.131,0.101-0.196
			c0.038-0.061,0.079-0.119,0.121-0.174c0.039-0.054,0.091-0.119,0.148-0.197L5.34,7.885c0.143-0.19,0.26-0.331,0.36-0.427
			c0.115-0.11,0.268-0.17,0.428-0.168c0.23-0.002,0.438,0.07,0.573,0.227c0.135,0.157,0.189,0.37,0.19,0.624l-0.001,2.94h0.018
			c0.219,0,0.403,0.027,0.558,0.097c0.192,0.084,0.281,0.291,0.275,0.509C7.747,11.872,7.673,12.051,7.525,12.152z M12.272,13.353
			c-0.125,0.131-0.306,0.186-0.506,0.185H8.814c-0.223,0-0.424-0.068-0.567-0.211c-0.138-0.134-0.216-0.311-0.214-0.499
			c0.001-0.135,0.046-0.277,0.122-0.446c0.077-0.17,0.163-0.309,0.266-0.418c0.355-0.369,0.678-0.688,0.967-0.952
			c0.287-0.265,0.492-0.438,0.626-0.53c0.212-0.149,0.386-0.299,0.522-0.443c0.134-0.147,0.235-0.294,0.306-0.44
			c0.067-0.146,0.099-0.285,0.099-0.415c0-0.147-0.033-0.269-0.099-0.379c-0.07-0.112-0.156-0.195-0.274-0.256
			c-0.117-0.063-0.242-0.095-0.384-0.096c-0.304,0.005-0.514,0.12-0.696,0.391C9.482,8.849,9.43,8.963,9.371,9.135
			c-0.065,0.19-0.142,0.343-0.237,0.46C9.024,9.73,8.85,9.797,8.667,9.794C8.5,9.796,8.34,9.734,8.226,9.618
			c-0.122-0.121-0.178-0.29-0.177-0.47c-0.001-0.207,0.046-0.42,0.136-0.636c0.09-0.219,0.226-0.418,0.403-0.594
			c0.181-0.18,0.407-0.321,0.675-0.428c0.274-0.108,0.59-0.161,0.944-0.161c0.422,0,0.792,0.065,1.107,0.205
			c0.203,0.095,0.386,0.223,0.54,0.389c0.154,0.163,0.275,0.352,0.36,0.564c0.086,0.213,0.129,0.438,0.129,0.668
			c0,0.356-0.09,0.688-0.268,0.981c-0.17,0.279-0.345,0.503-0.531,0.671c-0.174,0.157-0.461,0.398-0.863,0.728
			c-0.396,0.323-0.669,0.576-0.808,0.745c0,0.001-0.001,0.001-0.002,0.003h1.778c0.226,0,0.422,0.045,0.571,0.161
			c0.145,0.109,0.225,0.283,0.224,0.47C12.446,13.079,12.385,13.236,12.272,13.353z"/>
	</g>
	<g id="date" display="none">
		<path display="inline" d="M8.001,1.062c-3.833,0-6.939,3.107-6.939,6.941c0,3.829,3.106,6.934,6.939,6.936
			c3.832-0.002,6.936-3.106,6.937-6.936C14.938,4.169,11.833,1.062,8.001,1.062z M8.001,13.534
			c-3.057-0.006-5.529-2.478-5.536-5.531c0.007-3.059,2.479-5.531,5.536-5.537c3.056,0.006,5.528,2.479,5.534,5.537
			C13.529,11.057,11.057,13.528,8.001,13.534z"/>
		<polygon display="inline" points="6.978,3.327 6.978,7.632 4.312,9.183 5.367,11.029 9.085,8.87 9.107,8.87 9.104,3.328 		"/>
	</g>
	<g id="search" display="none">
		<path display="inline" d="M15.432,12.94l-3.595-3.593L11.48,8.991c1.228-2.3,0.901-5.215-1.039-7.157
			C8.064-0.54,4.211-0.54,1.833,1.837c-2.376,2.378-2.374,6.229,0.002,8.605c1.939,1.939,4.855,2.267,7.158,1.037l3.952,3.952
			c0.686,0.687,1.801,0.687,2.486,0C16.121,14.744,16.121,13.631,15.432,12.94z M3.104,9.17C1.432,7.497,1.428,4.78,3.105,3.108
			c1.674-1.68,4.388-1.677,6.064-0.005c1.676,1.677,1.674,4.391,0,6.066C7.493,10.845,4.778,10.845,3.104,9.17z"/>
	</g>
	<g id="tools" display="none">
		<path display="inline" d="M15.235,11.444L9.643,5.85c0.315-1.549-0.127-3.219-1.327-4.418C6.997,0.114,5.122-0.271,3.457,0.23
			l3.349,3.353L3.56,6.828L0.211,3.475c-0.5,1.667-0.114,3.541,1.198,4.86c1.2,1.2,2.87,1.64,4.418,1.329l5.59,5.588
			c0.987,0.986,2.634,0.934,3.692-0.124C16.162,14.076,16.216,12.423,15.235,11.444z"/>
	</g>
	<g id="key" display="none">
		<path display="inline" d="M14.084,1.939c2.479,2.477,2.478,6.489,0.002,8.965c-2.15,2.153-5.458,2.432-7.917,0.847H6.162v2.125
			L6.149,13.89H4.022v2.123H0.013v-4.014h0.01L0.02,11.994l3.574-3.573C2.863,6.216,3.368,3.691,5.122,1.94
			C7.598-0.537,11.61-0.537,14.084,1.939z M10.157,5.867c0.78,0.78,2.043,0.779,2.824,0.002c0.779-0.78,0.779-2.043-0.001-2.823
			c-0.78-0.779-2.041-0.779-2.822,0C9.379,3.825,9.379,5.09,10.157,5.867z"/>
	</g>
	<g id="admin" display="none">
		<g display="inline">
			<g>
				<g>
					<path d="M15.631,6.403c-0.385-0.15-0.655-0.524-0.655-0.96s0.27-0.809,0.655-0.959l0.315-0.134c0,0,0,0,0-0.001l0.001,0.004
						c0.115-0.051,0.168-0.182,0.121-0.296l-0.001-0.002c0-0.001,0-0.002,0-0.002l-0.24-0.579l-0.367-0.889
						c-0.011-0.027-0.039-0.038-0.058-0.058c-0.062-0.065-0.148-0.103-0.236-0.064l0,0.001h0L14.85,2.594
						c-0.375,0.167-0.829,0.095-1.139-0.216c-0.307-0.307-0.378-0.763-0.214-1.142l0.132-0.317c0.046-0.114-0.008-0.245-0.122-0.294
						L12.04,0.017c-0.115-0.048-0.247,0.005-0.293,0.122l-0.135,0.316c-0.15,0.383-0.522,0.654-0.957,0.654
						c-0.434,0-0.807-0.271-0.956-0.653L9.565,0.137C9.516,0.023,9.385-0.03,9.27,0.017l-1.466,0.61
						c-0.115,0.047-0.17,0.178-0.123,0.294l0.13,0.318c0.167,0.376,0.095,0.832-0.213,1.142C7.29,2.688,6.836,2.758,6.459,2.595
						v0.002L6.142,2.462c-0.114-0.045-0.248,0.01-0.295,0.124L5.239,4.054C5.192,4.17,5.249,4.303,5.362,4.351l0.317,0.134
						c0.382,0.149,0.654,0.523,0.654,0.96c0,0.436-0.272,0.809-0.654,0.956L5.363,6.539C5.249,6.583,5.194,6.717,5.24,6.832
						l0.608,1.47c0.047,0.114,0.18,0.171,0.293,0.122l0.319-0.131C6.836,8.127,7.29,8.197,7.597,8.507
						c0.309,0.311,0.381,0.764,0.214,1.143h0.002L7.682,9.967c-0.046,0.115,0.006,0.248,0.121,0.295l1.466,0.609
						c0.115,0.048,0.247-0.008,0.294-0.122l0.134-0.317c0.15-0.384,0.521-0.654,0.956-0.656c0.436,0.002,0.808,0.274,0.957,0.653
						l0.135,0.32c0.048,0.115,0.18,0.17,0.294,0.121l1.466-0.608c0.114-0.047,0.169-0.18,0.122-0.295l-0.132-0.317h0.001
						c-0.164-0.379-0.093-0.832,0.214-1.143c0.31-0.31,0.763-0.38,1.138-0.216h0.002l0.314,0.133
						c0.116,0.048,0.249-0.008,0.295-0.122l0.608-1.471c0.048-0.114-0.007-0.248-0.12-0.295L15.631,6.403z M11.399,7.244
						c-0.992,0.412-2.13-0.061-2.541-1.056C8.449,5.195,8.919,4.054,9.911,3.644c0.992-0.411,2.13,0.062,2.54,1.054
						C12.863,5.693,12.389,6.831,11.399,7.244z"/>
				</g>
			</g>
			<g>
				<g>
					<path d="M7.722,11.283H7.481V11.28c-0.287,0.01-0.562-0.16-0.678-0.441c-0.117-0.281-0.042-0.595,0.166-0.795l0.17-0.171
						c0.061-0.06,0.061-0.162,0-0.224L6.354,8.862C6.293,8.8,6.193,8.8,6.131,8.862L5.96,9.032C5.762,9.239,5.448,9.316,5.166,9.198
						c-0.28-0.118-0.449-0.392-0.442-0.68l-0.002-0.24c0-0.088-0.071-0.158-0.158-0.159H3.453c-0.086,0-0.159,0.071-0.158,0.158
						L3.294,8.519c0.007,0.288-0.161,0.562-0.442,0.68C2.571,9.315,2.257,9.239,2.06,9.032h0l-0.17-0.171
						C1.827,8.8,1.728,8.8,1.666,8.861L0.881,9.649c-0.061,0.061-0.061,0.16,0,0.223l0.167,0.172c0.209,0.2,0.284,0.514,0.168,0.795
						C1.099,11.12,0.824,11.29,0.539,11.28l-0.241,0.004c-0.088,0-0.159,0.071-0.159,0.159v1.113c0,0.087,0.071,0.158,0.159,0.158
						h0.241l-0.002,0.002c0.288-0.01,0.562,0.161,0.679,0.441c0.116,0.282,0.042,0.596-0.167,0.794v0.001l-0.17,0.172
						c-0.06,0.06-0.06,0.163,0,0.222l0.786,0.787c0.062,0.062,0.161,0.062,0.223,0l0.172-0.168c0.198-0.209,0.511-0.283,0.793-0.167
						c0.281,0.118,0.449,0.393,0.442,0.681l0.003,0.239H3.295c0.001,0.09,0.072,0.159,0.158,0.159h1.112
						c0.087,0,0.159-0.069,0.159-0.159H4.722l0.002-0.239c-0.007-0.288,0.162-0.562,0.442-0.681
						c0.282-0.116,0.596-0.041,0.794,0.167l0.169,0.17c0.062,0.062,0.163,0.062,0.223,0l0.786-0.787
						c0.062-0.061,0.062-0.161,0-0.221l-0.168-0.175c-0.207-0.199-0.283-0.513-0.166-0.795c0.116-0.28,0.391-0.451,0.678-0.441
						l0.241-0.005c0.086,0,0.157-0.071,0.157-0.157V11.44C7.879,11.354,7.809,11.283,7.722,11.283z M4.009,13.361
						c-0.75,0-1.359-0.609-1.359-1.362c0-0.752,0.608-1.363,1.359-1.363c0.751,0,1.36,0.611,1.36,1.363
						C5.369,12.752,4.76,13.361,4.009,13.361z"/>
				</g>
			</g>
		</g>
	</g>
	<g id="resources" display="none">
		<g display="inline">
			<g>
				<rect x="-0.001" y="8.59" width="7.406" height="7.41"/>
				<g>
					<g>
						<path d="M8.555,8.59V16H16V8.59H8.555z M14.852,13.796l-1.063,1.061l-1.51-1.504l-1.511,1.504l-1.064-1.06l1.511-1.503
							l-1.51-1.504l1.062-1.059l1.511,1.505l1.51-1.505l1.063,1.061l-1.511,1.502L14.852,13.796z"/>
					</g>
				</g>
			</g>
			<g>
				<g>
					<path d="M4.276,0.073v7.41h7.368v-7.41H4.276z M7.352,6.122L4.96,3.717l1.051-1.059L7.35,4.004l2.559-2.572l1.054,1.06
						L7.352,6.122z"/>
				</g>
			</g>
		</g>
	</g>
	<g id="forum2" display="none">
		<path display="inline" d="M11.985,3.584H2.119C0.953,3.584,0,4.538,0,5.703v5.503c0,1.166,0.953,2.119,2.119,2.119h0.988
			c0.023,0.76-0.201,1.758-1.224,2.674c2.905-0.451,4.517-2.537,4.621-2.674h5.481c1.167,0,2.119-0.953,2.119-2.119V5.703
			C14.104,4.538,13.151,3.584,11.985,3.584z M11.581,9.772h-8.93V8.528h8.93V9.772z M11.581,7.194h-8.93V5.948h8.93V7.194z
			 M13.886,1.688H4.019c-0.829,0-1.542,0.487-1.891,1.183c0.287-0.145,0.604-0.232,0.946-0.232h9.867
			c1.166,0,2.119,0.952,2.119,2.117v5.505c0,0.335-0.086,0.649-0.226,0.933c0.691-0.35,1.171-1.059,1.171-1.883V3.807
			C16.005,2.642,15.052,1.688,13.886,1.688z"/>
	</g>
	<g id="forum" display="none">
		<g display="inline">
			<path d="M11.636,3.477h-9.03c-1.423,0-2.578,1.117-2.579,2.494v4.865c0.001,1.373,1.156,2.49,2.579,2.492h0.199
				c-0.098,0.396-0.33,0.832-0.844,1.285L0.363,16l2.125-0.314c2.408-0.369,3.896-1.771,4.432-2.357h4.717
				c1.425-0.002,2.578-1.119,2.579-2.492V5.971C14.214,4.594,13.061,3.477,11.636,3.477z M12.934,10.836
				c0,0.686-0.588,1.254-1.298,1.256H6.299l-0.191,0.246c-0.034,0.049-0.801,1.002-2.167,1.633c0.155-0.416,0.215-0.818,0.211-1.17
				c0-0.025,0-0.062-0.002-0.109l-0.018-0.6H2.606c-0.71-0.002-1.298-0.57-1.298-1.256V5.971c0-0.689,0.588-1.256,1.298-1.258h9.03
				c0.71,0.002,1.298,0.568,1.298,1.258V10.836z"/>
			<path d="M13.854,1.607H3.987c-0.828,0-1.542,0.488-1.891,1.184c0.287-0.145,0.604-0.232,0.946-0.232h9.866
				c1.166,0,2.119,0.951,2.119,2.117v5.504c0,0.336-0.087,0.65-0.227,0.934c0.69-0.35,1.172-1.059,1.172-1.883V3.727
				C15.973,2.562,15.019,1.607,13.854,1.607z"/>
			<rect x="2.601" y="8.631" width="8.93" height="1.244"/>
			<rect x="2.601" y="6.051" width="8.93" height="1.246"/>
		</g>
	</g>
	<g id="group" display="none">
		<g display="inline">
			<g>
				<g>
					<g>
						<path d="M13.658,5.408h-3.342C9.18,5.409,8.463,6.048,8.153,6.926h5.392v0.002c0.004,0,0.006-0.002,0.008-0.002
							c0.27,0,0.482,0.479,0.482,1.066s-0.213,1.064-0.482,1.064H8.146c0.307,0.888,1.026,1.535,2.171,1.535h3.342
							C15.223,10.592,16,9.385,16,8C16.002,6.615,15.225,5.408,13.658,5.408z"/>
					</g>
				</g>
				<g>
					<g>
						<path d="M2.454,9.074V9.072c-0.002,0-0.004,0.002-0.006,0.002c-0.268,0-0.484-0.479-0.484-1.066S2.18,6.943,2.448,6.943h5.406
							C7.546,6.056,6.828,5.408,5.684,5.408H2.342C0.78,5.408,0,6.615,0,8c-0.002,1.385,0.777,2.592,2.342,2.592h3.342
							c1.135-0.001,1.852-0.64,2.162-1.518H2.454z"/>
					</g>
				</g>
			</g>
			<path d="M11.162,7.201H4.85C4.352,7.201,3.948,7.561,3.948,8S4.352,8.797,4.85,8.797h6.312c0.498,0,0.9-0.357,0.9-0.797
				S11.66,7.201,11.162,7.201z"/>
		</g>
	</g>
	<g id="wiki" display="none">
		<g display="inline">
			<path d="M15.609,3.739c-0.906,1.865-2.393,2.551-3.389,2.805c0.568,1.092,0.975,2.484,1.15,4.041
				C14.545,9.792,16.939,7.624,15.609,3.739z M0.39,3.739c-1.328,3.885,1.065,6.053,2.241,6.846c0.174-1.557,0.58-2.949,1.147-4.041
				C2.784,6.29,1.297,5.604,0.39,3.739z M8.001,4.087c-2.367,0-4.286,3.66-4.286,8.174h8.57C12.285,7.747,10.367,4.087,8.001,4.087z
				"/>
		</g>
	</g>
	<g id="news" display="none">
		<path display="inline" d="M2.991,14.879l11.856-4.523l-2.976-3.356L2.991,14.879z M0,1.473V16l1.618-1.436v-4.98h5.61l4.739-4.205
			l4.029,4.539L16,9.916V1.473H0z M8.056,7.662H1.618V6.27h6.438V7.662z M14.383,4.818H1.618V3.426h12.765V4.818z"/>
	</g>
	<path id="literature" display="none" d="M14.49,13.121L14.479,0H4.034C2.658,0.003,1.536,0.619,1.513,1.987
		c-0.003,0.025-0.003,0.529,0,0.535v0.003c0,0.04,0.009,0.076,0.011,0.117H1.515v10.826C1.515,14.865,2.648,16,4.044,16h8.386
		l-0.038-1.689L12.383,2.966h-8.35c-0.496,0-1.68-0.048-1.68-0.979V1.894c0.051-0.885,1.184-1.052,1.68-1.052h9.593v12.279H14.49z
		 M4.525,5.765h5.506v1.247H4.525V5.765z M4.525,8.347h5.506V9.59H4.525V8.347z"/>
	<g id="literature2" display="none">
		<path display="inline" d="M14.49,13.12L14.479-0.001H4.034C2.658,0.002,1.536,0.618,1.513,1.986c-0.003,0.025-0.003,0.529,0,0.535
			v0.003c0,0.04,0.009,0.076,0.011,0.117H1.515v10.826c0,1.396,1.133,2.531,2.529,2.531h8.386l-0.038-1.689L12.383,2.965h-8.35
			c-0.496,0-1.68-0.048-1.68-0.979V1.893c0.051-0.885,1.184-1.052,1.68-1.052h9.593V13.12H14.49z M4.011,3.966h7.35l0.004,10.992
			L4.851,15c-1.396,0-2.529-1.135-2.529-2.531c0,0-0.005-9.456-0.002-9.481h0.011C2.331,3.918,3.515,3.966,4.011,3.966z"/>
		<rect x="4.525" y="5.764" display="inline" width="5.506" height="1.247"/>
		<rect x="4.525" y="8.346" display="inline" width="5.506" height="1.243"/>
	</g>
	<g id="vote" display="none">
		<path display="inline" d="M10.692,3.736H7.596v8.984h3.096V3.736z M6.403,8.562H3.305v4.158h3.098V8.562z M11.887,6.453v6.268
			h3.096V6.453H11.887z M2.115,5.73H1.017V15l0.799-0.002V15h13.167v-1.1H2.114L2.115,5.73z"/>
	</g>
	<g id="vote-stopped" display="none">
		
			<rect x="-1.198" y="7.294" transform="matrix(0.7074 -0.7068 0.7068 0.7074 -3.3129 7.9954)" display="inline" width="18.398" height="1.409"/>
		<polygon display="inline" points="7.59,3.71 7.59,5.831 9.714,3.71 		"/>
		<polygon display="inline" points="3.289,8.548 3.289,10.126 4.871,8.548 		"/>
		<polygon display="inline" points="6.394,12.106 5.784,12.716 6.394,12.716 		"/>
		<polygon display="inline" points="10.694,12.716 10.694,7.81 7.59,10.911 7.59,12.716 		"/>
		<polygon display="inline" points="3.499,15.001 14.995,15.001 14.995,13.899 4.6,13.899 		"/>
		<polygon display="inline" points="11.892,6.612 11.892,12.716 14.995,12.716 14.995,6.435 12.07,6.435 		"/>
		<polygon display="inline" points="2.095,11.317 2.096,5.708 0.995,5.708 0.995,12.849 0.997,12.415 		"/>
		<polygon display="inline" points="0.995,15.001 1.796,14.999 1.796,15.001 1.991,15.001 0.995,14.005 		"/>
	</g>
	<g id="evaluation_1_" display="none">
		<g display="inline">
			<polygon points="9.833,3.709 7.666,3.709 8.75,4.791 			"/>
			<polygon points="8.75,6.277 7.557,5.086 7.557,6.937 8.751,8.131 10.662,6.218 10.662,4.365 			"/>
			<polygon points="10.662,7.704 9.494,8.873 8.751,9.615 8.008,8.873 7.557,8.423 7.557,12.721 10.662,12.721 			"/>
			<polygon points="11.861,6.506 11.861,12.721 14.966,12.721 14.966,6.435 11.932,6.435 			"/>
			<rect x="3.253" y="8.549" width="3.106" height="4.172"/>
			<polygon points="2.06,5.708 0.958,5.708 0.958,15.006 1.76,15.004 1.76,15.006 14.966,15.006 14.966,13.903 2.059,13.903 			"/>
		</g>
		<polygon display="inline" points="8.75,6.277 6.09,3.619 5.165,4.545 8.751,8.131 14.085,2.794 13.16,1.868 		"/>
	</g>
	<g id="plugin" display="none">
		<path display="inline" d="M11.348,7.312c0.788,0.008,1.464,0.478,1.779,1.146V4.747H9.053c0.633-0.329,1.073-0.974,1.081-1.737
			c0.011-1.1-0.87-2-1.97-2.011c-1.1-0.011-2.001,0.872-2.012,1.971C6.143,3.745,6.585,4.411,7.229,4.747H2.873v10.254h2.951
			c-0.644-0.336-1.085-1.013-1.077-1.788c0.011-1.101,0.912-1.982,2.011-1.972c1.1,0.011,1.982,0.912,1.971,2.013
			c-0.008,0.763-0.449,1.419-1.083,1.747h5.481v-4.845c-0.323,0.679-1.02,1.146-1.82,1.137c-1.101-0.01-1.983-0.91-1.972-2.01
			C9.346,8.183,10.248,7.301,11.348,7.312z"/>
	</g>
	<g id="person" display="none">
		<g display="inline">
			<path d="M2.271,0.963v13.971H13.73V0.963H2.271z M8.016,2.596c1.475,0,2.665,1.194,2.665,2.665c0,1.477-1.19,2.666-2.665,2.666
				c-1.471,0-2.667-1.189-2.667-2.666C5.349,3.79,6.545,2.596,8.016,2.596z M12.549,14.093H3.484v-2.996
				c0-1.268,1.032-2.306,2.301-2.306h4.457c1.268,0,2.308,1.038,2.308,2.306V14.093z"/>
		</g>
	</g>
	<g id="persons" display="none">
		<path display="inline" d="M3.359,0v1.056h10.329v12.842h1.072V0H3.359z M1.24,16h11.401V2.103H1.24V16z M6.956,3.726
			c1.467,0,2.651,1.188,2.651,2.651c0,1.47-1.185,2.653-2.651,2.653c-1.464,0-2.653-1.184-2.653-2.653
			C4.302,4.914,5.492,3.726,6.956,3.726z M2.447,12.184c0-1.263,1.027-2.295,2.288-2.295h4.435c1.262,0,2.296,1.032,2.296,2.295
			v2.98H2.447V12.184z"/>
	</g>
	<g id="chat2" display="none">
		<g display="inline">
			<g>
				<path d="M12.933,2.584H3.067c-1.166,0-2.119,0.953-2.119,2.119v5.504c0,1.164,0.953,2.119,2.119,2.119h0.987
					c0.023,0.76-0.201,1.758-1.224,2.674c2.905-0.451,4.518-2.537,4.621-2.674h5.481c1.166,0,2.119-0.955,2.119-2.119V4.703
					C15.052,3.537,14.099,2.584,12.933,2.584z M4.495,8.746c-0.711,0-1.288-0.578-1.288-1.289S3.784,6.17,4.495,6.17
					s1.288,0.576,1.288,1.287S5.206,8.746,4.495,8.746z M8,8.746c-0.711,0-1.289-0.578-1.289-1.289S7.29,6.17,8,6.17
					s1.287,0.576,1.287,1.287S8.711,8.746,8,8.746z M11.505,8.746c-0.711,0-1.288-0.578-1.288-1.289s0.577-1.287,1.288-1.287
					s1.288,0.576,1.288,1.287S12.216,8.746,11.505,8.746z"/>
			</g>
		</g>
	</g>
	<g id="chat" display="none">
		<path display="inline" d="M12.421,2.295H3.568c-1.395,0-2.527,1.133-2.529,2.528V9.76c0.002,1.395,1.134,2.527,2.529,2.529h0.196
			c-0.097,0.402-0.325,0.845-0.828,1.304L1.368,15l2.084-0.319c2.36-0.374,3.82-1.796,4.344-2.392h4.625
			c1.397-0.002,2.527-1.135,2.529-2.529V4.823C14.948,3.428,13.818,2.295,12.421,2.295z M13.693,9.76
			c0,0.696-0.577,1.272-1.272,1.274H7.188L7,11.284c-0.033,0.05-0.784,1.016-2.124,1.657c0.153-0.422,0.211-0.832,0.207-1.188
			c0-0.023,0-0.062-0.001-0.108l-0.018-0.61H3.568c-0.695-0.002-1.272-0.578-1.272-1.274V4.823c0-0.698,0.577-1.271,1.272-1.273
			h8.853c0.696,0.002,1.272,0.575,1.272,1.273V9.76z M4.849,6.242c-0.638,0-1.155,0.518-1.155,1.156
			c0,0.637,0.517,1.155,1.155,1.155c0.638,0,1.156-0.519,1.156-1.155C6.005,6.76,5.487,6.242,4.849,6.242z M7.995,6.242
			c-0.638,0-1.157,0.518-1.157,1.156c0,0.637,0.52,1.155,1.157,1.155c0.637,0,1.155-0.519,1.155-1.155
			C9.15,6.76,8.632,6.242,7.995,6.242z M11.14,6.242c-0.637,0-1.156,0.518-1.156,1.156c0,0.637,0.519,1.155,1.156,1.155
			c0.639,0,1.155-0.519,1.155-1.155C12.295,6.76,11.778,6.242,11.14,6.242z"/>
	</g>
	<g id="infopage2" display="none">
		<g display="inline">
			<g>
				<g>
					<path d="M1.811,0v16h12.378V0H1.811z M8.03,1.245c0.859,0,1.552,0.695,1.552,1.55s-0.692,1.55-1.552,1.55
						c-0.854,0-1.549-0.695-1.549-1.55S7.175,1.245,8.03,1.245z M11.085,14.793H4.915V13.26h1.526V7.082H4.919V5.931h4.64v7.329
						h1.526V14.793z"/>
				</g>
			</g>
		</g>
	</g>
	<g id="infopage" display="none">
		<path display="inline" d="M1.811,0v16h12.378V0H1.811z M13.151,14.961H2.793V1.011h10.357V14.961z"/>
		<path display="inline" d="M8.067,4.603c0.761,0,1.374-0.616,1.374-1.373c0-0.756-0.613-1.372-1.374-1.372
			c-0.757,0-1.372,0.616-1.372,1.372C6.695,3.986,7.31,4.603,8.067,4.603z M9.421,12.498v-6.49H5.312v1.02H6.66v5.471H5.307v1.359
			h5.467v-1.359H9.421z"/>
	</g>
	<g id="folder-empty2" display="none">
		<polygon display="inline" points="7.394,4.755 6.578,2.832 2.798,2.832 1.982,4.755 0.861,4.755 0.861,14 15.139,14 15.139,4.755 
					"/>
	</g>
	<g id="folder-empty_1_" display="none">
		<path display="inline" d="M7.394,4.755L6.578,2.832H2.798L1.982,4.755H0.861V14h14.278V4.755H7.394z M14.042,12.929H1.917v-7
			h12.125V12.929z"/>
	</g>
	<g id="folder-full2" display="none">
		<g display="inline">
			<polygon points="8.182,3.179 7.367,1.256 3.587,1.256 2.771,3.179 1.649,3.179 1.65,4.128 14.977,4.119 14.995,13.402 
				15.928,12.424 15.928,3.179 			"/>
			<rect x="0.072" y="4.756" width="14.279" height="9.244"/>
		</g>
	</g>
	<g id="folder-full" display="none">
		<g display="inline">
			<polygon points="8.182,3.179 7.367,1.256 3.587,1.256 2.771,3.179 1.649,3.179 1.65,4.128 14.977,4.119 14.995,13.402 
				15.928,12.424 15.928,3.179 			"/>
			<path d="M0.072,4.756V14h14.279V4.756H0.072z M13.25,12.929H1.041v-7H13.25V12.929z"/>
		</g>
	</g>
	<g id="lock-locked.png" display="none">
		<g display="inline">
			<path d="M5.687,5.661c0-1.279,1.036-2.312,2.313-2.312c1.276,0,2.312,1.033,2.312,2.312v1.149h1.414V5.661
				c0-2.059-1.668-3.728-3.726-3.728c-2.059,0-3.728,1.669-3.728,3.728v1.149h1.414V5.661z M3.062,7.792v7.207h9.876V7.792H3.062z
				 M8.87,12.594c0,0.479-0.388,0.867-0.867,0.867c-0.481,0-0.872-0.389-0.872-0.867v-2.396C7.13,9.721,7.521,9.331,8,9.331
				c0.482,0,0.87,0.39,0.87,0.867V12.594z"/>
		</g>
	</g>
	<g id="lock-unlocked.png" display="none">
		<g display="inline">
			<path d="M9.341,5.662c0-1.279,1.036-2.313,2.314-2.313c1.276,0,2.312,1.034,2.312,2.313v1.148h1.413V5.662
				c0-2.06-1.668-3.729-3.725-3.729c-2.06,0-3.728,1.669-3.728,3.729v1.148h1.413V5.662z M0.62,7.792v7.207h9.875V7.792H0.62z
				 M6.426,12.594c0,0.479-0.388,0.867-0.867,0.867c-0.481,0-0.871-0.389-0.871-0.867v-2.396c0-0.478,0.39-0.866,0.868-0.866
				c0.482,0,0.87,0.389,0.87,0.866V12.594z"/>
		</g>
	</g>
	<g id="crown_1_" display="none">
		<g display="inline">
			<polygon points="12.957,13.999 3.043,13.999 0,3.028 2,5.812 3.999,8.597 5.999,5.812 8,3.028 10.001,5.812 11.999,8.597 
				13.999,5.812 16,3.028 			"/>
		</g>
	</g>
	<g id="guestbook" display="none">
		<path display="inline" d="M11.031,9.168H9.307v0.744h1.724V9.168z M7.068,6.992l0.973-2.429L5.5,3.544L4.12,6.992H0.892v9.007
			h14.216V6.992H7.068z M7.505,15.005H1.882V7.982h1.84l-0.966,2.413l2.54,1.019l1.375-3.432h0.834V15.005z M14.117,15.005h-5.62
			V7.982h5.62V15.005z M12.858,10.506H9.307v0.745h3.551V10.506z M8.731,2.843H8.73c0.275-0.7-0.065-1.493-0.764-1.771
			c-0.7-0.281-1.492,0.058-1.778,0.755L5.78,2.843l2.542,1.021L8.731,2.843z M3.058,13.316l1.152-0.983l-1.295-0.517L3.058,13.316z"
			/>
	</g>
	<g id="comment_1_" display="none">
		<path display="inline" d="M11.805,2.414c0.356-0.906-0.084-1.935-0.99-2.293C9.91-0.243,8.885,0.195,8.515,1.097l0,0L7.986,2.414
			l3.291,1.321l0.531-1.321H11.805z M4.463,15.971l1.491-1.273l-1.676-0.668L4.463,15.971z M4.072,12.189l3.289,1.319l3.554-8.869
			l-3.29-1.318L4.072,12.189z"/>
	</g>
	<g id="log" display="none">
		<g display="inline">
			<g>
				<path d="M1.81-0.001v16H14.19v-16H1.81z M4.365,9.815c-0.462,0-0.838-0.376-0.838-0.84c0-0.463,0.376-0.838,0.838-0.838
					c0.464,0,0.842,0.375,0.842,0.838C5.207,9.439,4.829,9.815,4.365,9.815z M4.365,7.157c-0.462,0-0.838-0.376-0.838-0.844
					c0-0.461,0.376-0.837,0.838-0.837c0.464,0,0.842,0.376,0.842,0.837C5.207,6.781,4.829,7.157,4.365,7.157z M4.365,4.495
					c-0.462,0-0.838-0.376-0.838-0.838c0-0.464,0.376-0.84,0.838-0.84c0.464,0,0.842,0.376,0.842,0.84
					C5.207,4.119,4.829,4.495,4.365,4.495z M12.475,9.612h-6.08V8.338h6.08V9.612z M12.475,6.954h-6.08V5.678h6.08V6.954z
					 M12.475,4.294h-6.08V3.019h6.08V4.294z"/>
			</g>
		</g>
	</g>
	<g id="door-enter2" display="none">
		<path display="inline" d="M3.176,8.302L0,11.479l1.651,1.651l4.83-4.833l-4.83-4.825L0,5.121L3.176,8.302z M16,0.605H7.144v14.096
			h1.067V1.671l4.057,0.002l-2.67,0.764v13.562l6.399-1.831V1.674H16V0.605z"/>
	</g>
	<g id="door-enter" display="none">
		<polygon display="inline" points="0,5.121 3.176,8.302 0,11.479 1.651,13.131 6.48,8.298 1.651,3.473 		"/>
		<path display="inline" d="M7.144,0.605v14.096h1.067V1.671l4.057,0.002l-2.67,0.764v13.562l6.399-1.831V1.674H16V0.605H7.144z
			 M15,13.47l-4.4,1.282V3.188L15,1.906V13.47z"/>
	</g>
	<g id="door-leave2" display="none">
		<path display="inline" d="M11.17,3.472L9.519,5.124l3.176,3.178l-3.176,3.18l1.651,1.649L16,8.305L11.17,3.472z M0,1.671L0,1.671
			l0.001,12.497L6.4,15.999V2.436L3.729,1.671h4.061v13.03h1.066V0.604H0V1.671z"/>
	</g>
	<g id="door-leave" display="none">
		<polygon display="inline" points="11.17,3.472 9.519,5.124 12.695,8.302 9.519,11.481 11.17,13.131 16,8.305 		"/>
		<path display="inline" d="M0,1.671L0,1.671l0.001,12.497L6.4,15.999V2.436L3.729,1.671h4.061v13.03h1.066V0.604H0V1.671z M1,1.906
			l4.4,1.282v11.563L1,13.47V1.906z"/>
	</g>
	<g id="decline_1_" display="none">
		<g display="inline">
			<polygon points="14.778,11.974 10.802,8.001 14.778,4.024 11.979,1.222 8.001,5.198 4.024,1.222 1.226,4.022 5.202,7.997 
				1.222,11.976 4.026,14.778 8.005,10.8 11.979,14.776 			"/>
		</g>
	</g>
	<g id="accept_1_" display="none">
		<polygon display="inline" points="16,4.592 13.193,1.783 6.374,8.603 2.803,5.035 0,7.841 6.377,14.217 		"/>
	</g>
	<g id="checkbox-unchecked" display="none">
		<path display="inline" d="M0,0v16h16V0H0z M13.788,13.789H2.204L2.209,2.207h11.579V13.789z"/>
	</g>
	<g id="checkbox-checked" display="none">
		<path display="inline" d="M0,0v16h16V0H0z M13.793,13.789H2.207L2.212,2.207h11.581V13.789z M13.055,5.848L11.28,4.073
			L6.972,8.379L4.715,6.127L2.946,7.899l4.027,4.026L13.055,5.848z"/>
	</g>
	<g id="visibility-invisible_1_" display="none">
		<g display="inline">
			<g>
				<g>
					<path d="M8,3.181c-3.471,0-6.48,1.953-8,4.82c1.52,2.865,4.529,4.818,8,4.818c3.469,0,6.479-1.953,8-4.818
						C14.479,5.134,11.469,3.181,8,3.181z M7.998,12.228c-2.334,0-4.229-1.893-4.229-4.227c0-2.336,1.895-4.229,4.229-4.229
						c2.336,0,4.23,1.893,4.23,4.229C12.229,10.335,10.334,12.228,7.998,12.228z"/>
				</g>
			</g>
		</g>
	</g>
	<g id="visibility-visible_1_" display="none">
		<g display="inline">
			<g>
				<g>
					<g>
						<path d="M8,3.181c-3.471,0-6.48,1.953-8,4.82c1.52,2.865,4.529,4.818,8,4.818c3.469,0,6.479-1.953,8-4.818
							C14.479,5.134,11.469,3.181,8,3.181z M7.998,12.228c-2.334,0-4.229-1.893-4.229-4.227c0-2.336,1.895-4.229,4.229-4.229
							c2.336,0,4.23,1.893,4.23,4.229C12.229,10.335,10.334,12.228,7.998,12.228z"/>
					</g>
				</g>
			</g>
			<circle cx="8.011" cy="8.096" r="2.165"/>
		</g>
	</g>
	<path id="video2" display="none" d="M10.84,6.962V3.595H0v8.811h10.84V9.036L16,12.405V3.595L10.84,6.962z M9,8H2.062V6.031H9V8z"
		/>
	<g id="video" display="none">
		<g display="inline">
			<path d="M10.968,6.944V3.517H0v8.967h10.968V9.056L16,12.483V3.517L10.968,6.944z M9.968,11.515H1.031V4.39h8.938V11.515z"/>
			<rect x="2.062" y="6.031" width="6.938" height="1.969"/>
		</g>
	</g>
	<g id="refresh_1_" display="none">
		<path display="inline" d="M8.41,6.155l6.188,0.002l-0.002-6.186l-2.114,0L12.48,2.667c-2.932-2.263-7.126-2.112-9.79,0.55
			c-2.895,2.896-2.832,7.604,0.086,10.53c2.929,2.918,7.635,2.981,10.533,0.09c1.425-1.426,2.141-3.311,2.138-5.191l-2.094,0.002
			c0,1.355-0.507,2.689-1.525,3.709c-2.058,2.05-5.443,2.036-7.572-0.089C2.131,10.14,2.119,6.753,4.169,4.696
			c1.775-1.771,4.54-1.994,6.635-0.654L8.41,4.043V6.155z"/>
	</g>
	<g id="file2" display="none">
		<g display="inline">
			<g>
				<path d="M10.057,14.306l2.542-2.34h-2.542V14.306z M2.591,1.011v13.979h6.012v-4.471h4.806V1.011H2.591z"/>
			</g>
		</g>
	</g>
	<g id="files2" display="none">
		<path display="inline" d="M3.032-0.012v1.056h10.329v9.227h1.072V-0.012H3.032z M8.98,15.293l2.524-2.325H8.98V15.293z
			 M1.566,15.97h5.971V11.53h4.773V2.088H1.566V15.97z"/>
	</g>
	<g id="file" display="none">
		<g display="inline">
			<polygon points="10.055,14.302 12.595,11.964 10.055,11.964 			"/>
			<path d="M2.595,1.016v13.969h6.008v-4.468h4.802V1.016H2.595z M12.034,9.043h-4.79v4.601H3.917V2.318h8.116V9.043z"/>
		</g>
	</g>
	<g id="files" display="none">
		<polygon display="inline" points="3.032,-0.012 3.032,1.044 13.361,1.044 13.361,10.271 14.434,10.271 14.434,-0.012 		"/>
		<polygon display="inline" points="8.98,15.293 11.505,12.968 8.98,12.968 		"/>
		<path display="inline" d="M1.566,15.97h5.971V11.53h4.773V2.088H1.566V15.97z M2.94,3.326h8.116v6.725h-4.79v4.601H2.94V3.326z"/>
	</g>
	<g id="download_1_" display="none">
		<g display="inline">
			<polygon points="2.764,2.068 4.554,0.277 8.001,3.724 11.448,0.277 13.237,2.068 7.998,7.307 			"/>
			<path d="M0,8v6.929h16V8H0z M14.413,13.495H1.588v-4.06h12.825V13.495z M12.026,11.978c0.519,0,0.939-0.416,0.939-0.93
				c0-0.515-0.42-0.931-0.939-0.931c-0.521,0-0.941,0.416-0.941,0.931C11.085,11.562,11.505,11.978,12.026,11.978z"/>
		</g>
	</g>
	<g id="download" display="none">
		<g display="inline">
			<polygon points="2.764,2.068 4.554,0.277 8.001,3.724 11.448,0.277 13.237,2.068 7.998,7.307 			"/>
			<path d="M1.041,8.334v6.636h13.958V8.334H1.041z M12.198,12.248c-0.599,0-1.081-0.484-1.081-1.082s0.482-1.08,1.081-1.08
				c0.596,0,1.081,0.482,1.081,1.08S12.794,12.248,12.198,12.248z"/>
		</g>
	</g>
	<g id="upload" display="none">
		<g display="inline">
			<polygon points="13.237,5.237 11.446,7.028 7.999,3.583 4.551,7.028 2.762,5.237 8.002,0 			"/>
			<path d="M0,8v6.929h16V8H0z M14.413,13.495H1.588v-4.06h12.825V13.495z M12.026,11.978c0.519,0,0.939-0.416,0.939-0.93
				c0-0.515-0.42-0.931-0.939-0.931c-0.521,0-0.941,0.416-0.941,0.931C11.085,11.562,11.505,11.978,12.026,11.978z"/>
		</g>
	</g>
	<g id="upload2" display="none">
		<g display="inline">
			<polygon points="13.237,5.237 11.446,7.028 7.999,3.583 4.551,7.028 2.762,5.237 8.002,0 			"/>
			<path d="M1.041,8.334v6.636h13.958V8.334H1.041z M12.198,12.248c-0.599,0-1.081-0.484-1.081-1.082s0.482-1.08,1.081-1.08
				c0.596,0,1.081,0.482,1.081,1.08S12.794,12.248,12.198,12.248z"/>
		</g>
	</g>
	<g id="trash" display="none">
		<path display="inline" d="M9.759,2.438V1.03H6.24v1.408H2.717v1.917h10.565V2.438H9.759z M3.661,14.97h8.645V5.388H3.661V14.97z
			 M9.824,6.896h1.016v6.567H9.824V6.896z M7.474,6.896h1.017v6.567H7.474V6.896z M5.125,6.896h1.016v6.567H5.125V6.896z"/>
	</g>
	<g id="edit_1_" display="none">
		<path display="inline" d="M5.971,12.849l1.54-0.579l-1.133-1.008L5.971,12.849z M10.722,5.272V2.403H0V15.94h10.723V9.75
			l3.569-4.011L12.07,3.757L10.722,5.272z M9.618,6.514L6.74,9.748l2.221,1.983l0.657-0.739v3.843H1.1V3.505h8.518V6.514z
			 M15.501,2.141c-0.611-0.547-1.546-0.493-2.096,0.113l-0.792,0.889l2.222,1.985l0.796-0.893l-0.002-0.001
			C16.168,3.621,16.112,2.684,15.501,2.141z M6.456,7.633H2.533v1.103h3.923V7.633z M4.863,5.291h-2.33v1.102h2.33V5.291z"/>
	</g>
	<g id="edit-small" display="none">
		<path display="inline" d="M6.231,12.232l1.343-0.505L6.586,10.85L6.231,12.232z M10.374,5.626V3.124h-9.35v11.805h9.35V9.53
			l3.113-3.497l-1.938-1.729L10.374,5.626z M9.412,6.709l-2.51,2.819l1.937,1.73l0.573-0.645v3.351H1.983V4.086h7.428V6.709z
			 M14.542,2.895c-0.533-0.477-1.348-0.43-1.828,0.1l-0.69,0.774L13.961,5.5l0.694-0.778l-0.002-0.001
			C15.123,4.186,15.074,3.369,14.542,2.895z M6.654,7.685H3.233v0.961h3.421V7.685z M5.265,5.642H3.233v0.962h2.032V5.642z"/>
	</g>
	<g id="staple" display="none">
		<path display="inline" d="M13.078,2.394c-1.786-1.782-4.658-1.766-6.444,0.01l-5.05,5.052l0.904,0.902l5.051-5.049
			c1.288-1.29,3.353-1.298,4.639-0.012c1.281,1.284,1.283,3.365,0,4.65l-5.051,5.051c-0.881,0.881-2.304,0.889-3.186,0.008
			c-0.878-0.882-0.878-2.312,0-3.194l4.422-4.423L8.364,5.39c0.487-0.483,1.253-0.484,1.732-0.007
			c0.478,0.479,0.476,1.255-0.002,1.734L5.67,11.542l0.901,0.9l4.423-4.423c0.976-0.977,0.979-2.562,0.002-3.54
			c-0.978-0.971-2.543-0.961-3.521-0.001L7.474,4.477L3.039,8.909c-1.38,1.38-1.377,3.62,0,4.999
			c1.382,1.376,3.612,1.365,4.99-0.009l5.05-5.051C14.865,7.063,14.859,4.176,13.078,2.394z"/>
	</g>
	<g id="rss" display="none">
		<path display="inline" d="M1.021,1.021v2.617c3.137,0,5.964,1.268,8.021,3.32c2.054,2.059,3.32,4.885,3.321,8.021h2.617
			C14.978,7.271,8.73,1.022,1.021,1.021z M1.021,5.729v2.613c3.664,0.008,6.628,2.973,6.635,6.637h2.616
			C10.271,9.87,6.13,5.729,1.021,5.729z M2.9,11.222c-1.039,0-1.879,0.84-1.879,1.877c0,1.039,0.841,1.881,1.879,1.881
			c1.038,0,1.878-0.842,1.878-1.881C4.779,12.062,3.938,11.222,2.9,11.222z"/>
	</g>
	<g id="vcard" display="none">
		<g display="inline">
			<g>
				<path d="M1.034,2.913v10.174h13.932V2.913H1.034z M5.113,4.358c0.986,0,1.781,0.799,1.781,1.783
					c0,0.986-0.795,1.781-1.781,1.781c-0.983,0-1.781-0.795-1.781-1.781C3.332,5.157,4.13,4.358,5.113,4.358z M8.143,12.044H2.084
					v-2.002c0-0.848,0.69-1.541,1.538-1.541h2.979c0.848,0,1.542,0.693,1.542,1.541V12.044z M13.368,7.905H9.075V6.847h4.293V7.905z
					 M13.368,5.708H9.075V4.644h4.293V5.708z"/>
			</g>
		</g>
	</g>
	<g id="link3" display="none">
		<g display="inline">
			<g>
				<path d="M8,1.011c-3.859,0-6.989,3.13-6.989,6.991c0,3.857,3.129,6.986,6.989,6.986s6.989-3.129,6.989-6.986
					C14.989,4.141,11.859,1.011,8,1.011z M10.732,11.246L9.047,12.93L4.116,7.997l4.93-4.928l1.686,1.686L7.486,8L10.732,11.246z"/>
			</g>
		</g>
	</g>
	<g id="link2" display="none">
		<g display="inline">
			<g>
				<path d="M1.011,8.002c0,3.857,3.129,6.986,6.989,6.986s6.989-3.129,6.989-6.986c0-3.861-3.129-6.991-6.989-6.991
					S1.011,4.141,1.011,8.002z M8.514,8L5.268,4.755l1.686-1.686l4.93,4.928L6.953,12.93l-1.685-1.684L8.514,8z"/>
			</g>
		</g>
	</g>
	<g id="link-extern" display="none">
		<g display="inline">
			<g>
				<path d="M12.99,8.003c0,2.754-2.234,4.989-4.989,4.99c-2.758-0.001-4.992-2.236-4.992-4.99C3.007,5.246,5.241,3.01,7.998,3.01
					L7.997,0.893C4.074,0.895,0.892,4.079,0.892,8.002c0,3.921,3.183,7.105,7.107,7.105c3.922,0.001,7.108-3.184,7.108-7.104H12.99z
					"/>
			</g>
		</g>
		<polygon display="inline" points="8.941,7.062 8.942,10.978 10.977,10.978 10.975,5.022 5.024,5.024 5.023,7.059 		"/>
	</g>
	<g id="link-intern" display="none">
		<g display="inline">
			<g>
				<g>
					<g>
						<path d="M1.001,8.003c0-3.868,3.134-7.002,7-7.002l0,0V1.71v0.707c-3.083,0.006-5.578,2.5-5.584,5.586l0,0
							c0.007,3.08,2.501,5.574,5.584,5.58l0,0c3.083-0.006,5.576-2.5,5.583-5.58l0,0c-0.006-3.086-2.5-5.58-5.583-5.586l0,0V1.71
							V1.001c3.865,0,6.998,3.134,6.998,7.002l0,0c-0.001,3.863-3.133,6.994-6.998,6.996l0,0C4.135,14.997,1.001,11.866,1.001,8.003
							L1.001,8.003z"/>
					</g>
				</g>
			</g>
			<polygon points="8.463,8.001 5.542,10.923 7.059,12.438 11.497,7.997 7.06,3.563 5.542,5.08 			"/>
		</g>
	</g>
	<path id="smiley" display="none" d="M8,1.051c-3.838,0-6.949,3.111-6.949,6.95c0,3.837,3.11,6.948,6.949,6.948
		c3.837,0,6.949-3.111,6.949-6.948C14.949,4.162,11.837,1.051,8,1.051z M9.973,4.507c0.731,0,1.326,0.756,1.326,1.682
		c0,0.927-0.595,1.683-1.326,1.683c-0.73,0-1.325-0.756-1.325-1.683C8.647,5.263,9.242,4.507,9.973,4.507z M6.306,4.465
		c0.731,0,1.326,0.755,1.326,1.681c0,0.928-0.595,1.683-1.326,1.683c-0.73,0-1.325-0.755-1.325-1.683
		C4.98,5.22,5.575,4.465,6.306,4.465z M8.158,13.546c-4.853,0-5.388-5.018-5.388-5.018s1.111,3.248,5.347,3.248
		c4.154,0,5.182-3.085,5.182-3.085S12.559,13.546,8.158,13.546z"/>
	<g id="add_1_" display="none">
		<g display="inline">
			<polygon points="9.819,14.978 9.815,9.818 14.978,9.818 14.98,6.183 9.817,6.182 9.817,1.021 6.184,1.022 6.185,6.182 
				1.02,6.182 1.021,9.82 6.185,9.82 6.184,14.979 			"/>
		</g>
	</g>
	<g id="delete" display="none">
		<g display="inline">
			<rect x="1.005" y="6.178" width="13.989" height="3.643"/>
		</g>
	</g>
	<g id="star" display="none">
		<polygon display="inline" points="10.707,9.589 15.087,6.409 9.672,6.409 8.001,1.26 6.328,6.409 0.913,6.409 5.293,9.589 
			3.623,14.74 8.001,11.557 12.377,14.74 		"/>
	</g>
	<g id="install" display="none">
		<g display="inline">
			<g>
				<path d="M12.126,5.803L9.186,8.742c0.373,0.336,0.612,0.818,0.612,1.359c0,1.015-0.822,1.838-1.837,1.838
					s-1.837-0.823-1.837-1.838c0-0.561,0.256-1.056,0.652-1.393L3.834,5.765C2.688,6.857,1.97,8.394,1.97,10.102
					c0,3.309,2.682,5.991,5.991,5.991s5.991-2.683,5.991-5.991C13.951,8.413,13.25,6.891,12.126,5.803z"/>
			</g>
			<path d="M4.004,0L1.929,2.076l6.068,6.073l6.075-6.073L11.998,0L8.001,3.995L4.004,0z"/>
		</g>
	</g>
	<g id="print" display="none">
		<path display="inline" d="M14.479,9.852V8.649h-2.566V1.632H6.599L3.896,4.124v4.525H1.569v1.202H0.966v4.518h0.604h12.91h0.555
			V9.852H14.479z M6.645,2.73v1.403H5.121L6.645,2.73z M4.635,5h2.88V2.321h3.604v8.377H4.635V5z M12.872,11.546
			c-0.393,0-0.711-0.319-0.711-0.711c0-0.394,0.318-0.711,0.711-0.711c0.393,0,0.711,0.317,0.711,0.711
			C13.583,11.227,13.264,11.546,12.872,11.546z"/>
		<rect x="5.624" y="5.738" display="inline" width="4.57" height="0.866"/>
		<rect x="5.624" y="7.363" display="inline" width="4.57" height="0.866"/>
	</g>
	<g id="roles" display="none">
		<g display="inline">
			<g>
				<path d="M2.138,11.963c0.624,0,1.128-0.506,1.128-1.13c0-0.622-0.504-1.128-1.128-1.128c-0.623,0-1.13,0.506-1.13,1.128
					C1.008,11.457,1.515,11.963,2.138,11.963z M3.187,12.499H1.085C0.486,12.499,0,12.989,0,13.587v1.414h4.276v-1.414
					C4.276,12.989,3.786,12.499,3.187,12.499z"/>
			</g>
			<g>
				<path d="M13.862,11.963c0.626,0,1.13-0.506,1.13-1.13c0-0.622-0.504-1.128-1.13-1.128c-0.623,0-1.128,0.506-1.128,1.128
					C12.734,11.457,13.239,11.963,13.862,11.963z M14.911,12.499H12.81c-0.599,0-1.086,0.49-1.086,1.088v1.414H16v-1.414
					C16,12.989,15.509,12.499,14.911,12.499z"/>
			</g>
			<g>
				<path d="M8.018,2.257c0.624,0,1.128-0.505,1.128-1.129S8.642,0,8.018,0s-1.13,0.504-1.13,1.128S7.394,2.257,8.018,2.257z
					 M9.067,2.794H6.965c-0.599,0-1.085,0.489-1.085,1.088v1.413h4.276V3.882C10.156,3.283,9.666,2.794,9.067,2.794z"/>
			</g>
		</g>
		<polygon display="inline" points="8.528,6.989 8.528,5.985 7.508,5.985 7.508,6.989 1.984,6.989 1.984,7.586 1.984,8.001 
			1.984,8.973 3.042,8.973 3.042,8.001 13.013,8.001 13.013,8.973 13.958,8.973 13.958,8.001 13.958,7.586 13.958,6.989 		"/>
	</g>
	<g id="roles2" display="none">
		<g display="inline">
			<g>
				<path d="M6.551,6.983c1.627,0,2.94-1.314,2.94-2.939s-1.313-2.939-2.94-2.939c-1.623,0-2.939,1.314-2.939,2.939
					S4.929,6.983,6.551,6.983z"/>
				<path d="M9.366,13.378l-0.402-3.99l0.409-1c-0.03,0-0.059-0.008-0.089-0.008H3.811c-1.559,0-2.826,1.275-2.826,2.832v3.684
					h11.133v-3.684c0-0.051-0.013-0.1-0.016-0.152L9.366,13.378z"/>
			</g>
			<path d="M14.929,2.831c0.248-0.633-0.059-1.35-0.69-1.598c-0.63-0.256-1.345,0.051-1.603,0.68l0,0l-0.368,0.918l2.292,0.92
				l0.371-0.92H14.929z M9.813,12.276l1.039-0.887l-1.168-0.467L9.813,12.276z M9.541,9.642l2.291,0.92l2.477-6.182l-2.292-0.918
				L9.541,9.642z"/>
		</g>
	</g>
	<g id="studygroup" display="none">
		<g display="inline">
			<path d="M8,5.2c1.547,0,2.8,1.254,2.8,2.802c0,1.537-1.24,2.783-2.776,2.796v1.401c2.309-0.013,4.177-1.888,4.177-4.197
				c0-2.321-1.88-4.201-4.201-4.201s-4.201,1.88-4.201,4.201c0,0.002,0,0.006,0,0.009h1.4c0-0.003-0.001-0.007-0.001-0.009
				C5.199,6.454,6.453,5.2,8,5.2z M8,0.998c-3.867,0-7.001,3.135-7.001,7.004c0,0.002,0,0.006,0,0.009h1.401
				c0-0.003,0-0.007,0-0.009c0-3.095,2.507-5.603,5.601-5.603s5.601,2.508,5.601,5.603c0,3.083-2.495,5.586-5.577,5.599v1.401
				c3.855-0.014,6.978-3.143,6.978-7C15.001,4.133,11.867,0.998,8,0.998z"/>
			<circle cx="4.598" cy="11.221" r="2.106"/>
		</g>
	</g>
	<g id="info_1_" display="none">
		<g display="inline">
			<path d="M8.036,3.658c1.012,0,1.83-0.822,1.83-1.828C9.866,0.818,9.048,0,8.036,0S6.204,0.818,6.204,1.83
				C6.204,2.836,7.024,3.658,8.036,3.658z M9.841,14.188V5.531H4.36v1.361h1.797v7.295H4.354V16h7.291v-1.812H9.841z"/>
		</g>
	</g>
	<g id="info-small" display="none">
		<g display="inline">
			<path d="M8.032,4.168c0.888,0,1.605-0.721,1.605-1.603c0-0.888-0.718-1.605-1.605-1.605S6.425,1.678,6.425,2.565
				C6.425,3.447,7.144,4.168,8.032,4.168z M9.615,13.403V5.812H4.807v1.194h1.576v6.397H4.802v1.591h6.396v-1.591H9.615z"/>
		</g>
	</g>
	<g id="info-circle" display="none">
		<path display="inline" d="M8,1.001c-3.866,0-6.999,3.135-6.999,7.003C1.003,11.867,4.134,14.999,8,15.001
			c3.867-0.002,7.001-3.134,7.001-6.997C15.001,4.136,11.867,1.001,8,1.001z M8,13.585c-3.083-0.006-5.577-2.5-5.583-5.581
			C2.423,4.918,4.917,2.423,8,2.417c3.084,0.006,5.578,2.501,5.585,5.587C13.578,11.085,11.084,13.579,8,13.585z M8.127,5.326
			c0.554,0,1-0.459,1-1.021c0-0.566-0.446-1.024-1-1.024c-0.553,0-1.001,0.458-1.001,1.024C7.126,4.867,7.574,5.326,8.127,5.326z
			 M9.114,6.375H6.118v0.761h0.982v4.078H6.115v1.015h3.986v-1.015H9.114V6.375z"/>
	</g>
	<g id="question" display="none">
		<path display="inline" d="M7.468,11.335c-1.04,0-1.782,0.742-1.782,1.824c0,1.041,0.722,1.822,1.763,1.822h0.02
			c1.083,0,1.805-0.781,1.805-1.822C9.253,12.077,8.551,11.335,7.468,11.335z M7.75,1.019c-1.422,0-2.604,0.4-3.345,0.822
			l0.681,2.182c0.52-0.359,1.322-0.6,1.983-0.6c1.002,0.041,1.463,0.5,1.463,1.203c0,0.68-0.521,1.32-1.162,2.102
			C6.468,7.79,6.127,8.833,6.188,9.853l0.02,0.521h2.664v-0.361c-0.02-0.9,0.281-1.682,1.021-2.504
			c0.762-0.84,1.702-1.842,1.702-3.365C11.595,2.481,10.395,1.019,7.75,1.019z"/>
	</g>
	<g id="question-circle" display="none">
		<path display="inline" d="M7.999,0.97c-3.882,0-7.029,3.146-7.029,7.033c0.001,3.881,3.147,7.025,7.029,7.027
			c3.883-0.002,7.031-3.146,7.031-7.027C15.03,4.116,11.882,0.97,7.999,0.97z M7.999,13.608c-3.096-0.006-5.601-2.512-5.607-5.605
			c0.006-3.1,2.511-5.605,5.607-5.611c3.098,0.006,5.603,2.512,5.609,5.611C13.602,11.097,11.097,13.603,7.999,13.608z
			 M7.917,10.208c-0.662,0-1.132,0.471-1.132,1.156c0,0.664,0.458,1.16,1.121,1.16h0.012c0.688,0,1.147-0.496,1.147-1.16
			C9.054,10.679,8.606,10.208,7.917,10.208z M8.097,3.646c-0.904,0-1.656,0.256-2.127,0.523l0.434,1.387
			c0.33-0.229,0.839-0.381,1.262-0.381c0.637,0.025,0.93,0.318,0.93,0.764c0,0.434-0.333,0.842-0.741,1.338
			c-0.574,0.676-0.788,1.338-0.75,1.988l0.012,0.332h1.694V9.368C8.798,8.794,8.989,8.294,9.46,7.774
			c0.486-0.537,1.083-1.174,1.083-2.143C10.543,4.575,9.778,3.646,8.097,3.646z"/>
	</g>
	<g id="exclaim" display="none">
		<g display="inline">
			<path d="M7.99,15.033c-1.088,0-1.828-0.8-1.828-1.868c0-1.088,0.759-1.868,1.848-1.868c1.088,0,1.807,0.78,1.827,1.868
				c0,1.068-0.717,1.868-1.827,1.868H7.99z M6.84,10.271L6.368,0.967h3.265l-0.452,9.304H6.84z"/>
		</g>
	</g>
	<g id="exclaim-circle" display="none">
		<path display="inline" d="M7.999,0.973c-3.864,0-6.996,3.133-6.996,7c0.001,3.862,3.132,6.992,6.996,6.994
			c3.865-0.002,6.998-3.132,6.998-6.994C14.997,4.105,11.864,0.973,7.999,0.973z M7.999,13.552
			c-3.082-0.006-5.575-2.499-5.581-5.579c0.006-3.085,2.499-5.579,5.581-5.585c3.083,0.006,5.576,2.5,5.583,5.585
			C13.574,11.053,11.081,13.546,7.999,13.552z M8.005,10.126c-0.683,0-1.16,0.49-1.16,1.175c0,0.671,0.464,1.172,1.147,1.172h0.013
			c0.698,0,1.148-0.501,1.148-1.172C9.143,10.616,8.691,10.126,8.005,10.126z M8.741,9.48l0.286-5.845H6.974L7.27,9.48H8.741z"/>
	</g>
	<g id="ranking" display="none">
		<path display="inline" d="M11,10.001V5.97H4.031v4.031H0V16h4.031H11h4v-5.999H11z M9.337,14.47H6.351v-0.975h0.989v-3.024H6.325
			V9.496h1.014V8.5h1.008v4.995h0.989V14.47z"/>
		<rect y="145" display="inline" width="1.02" height="1"/>
	</g>
	<g id="timetable" display="none">
		<path display="inline" d="M13.997,2.942v9.965H2.958V2.942H13.997 M14.997,1.942H1.958v11.965h13.039V1.942L14.997,1.942z"/>
		<rect x="1.958" y="4.061" display="inline" width="13.054" height="1.064"/>
		<rect x="5.871" y="4.061" display="inline" width="1.064" height="9.576"/>
		<rect x="10.103" y="4.061" display="inline" width="1.064" height="9.576"/>
		<rect x="3.985" y="5.89" display="inline" width="1.106" height="1.106"/>
		<rect x="3.985" y="10.89" display="inline" width="1.106" height="1.106"/>
		<rect x="7.932" y="8.849" display="inline" width="1.106" height="1.106"/>
		<rect x="7.932" y="6.996" display="inline" width="1.106" height="1.106"/>
		<rect x="11.942" y="9.955" display="inline" width="1.106" height="1.106"/>
		<rect x="11.942" y="8" display="inline" width="1.106" height="1.106"/>
	</g>
	<g id="place" display="none">
		<g display="inline">
			<path d="M14.017,5.94c0-3.278-2.658-5.938-5.938-5.938c-3.277,0-5.936,2.659-5.936,5.938c0,1.172,0.345,2.262,0.932,3.184
				L3.068,9.12l0.041,0.06C3.155,9.251,3.205,9.32,3.254,9.389L8.114,16l4.833-6.665c0.031-0.046,0.063-0.091,0.093-0.136
				l0.025-0.036L13.06,9.164C13.663,8.235,14.017,7.129,14.017,5.94z M8.079,10.507c-2.52,0-4.565-2.046-4.565-4.566
				c0-2.522,2.045-4.566,4.565-4.566c2.523,0,4.567,2.044,4.567,4.566C12.646,8.461,10.602,10.507,8.079,10.507z"/>
		</g>
		<circle display="inline" cx="8.08" cy="5.914" r="2.242"/>
	</g>
	<g id="user-online" display="none">
		<g display="inline">
			<path d="M6.867,9.283c1.382,0,2.497-1.115,2.497-2.495c0-1.378-1.114-2.494-2.497-2.494c-1.377,0-2.496,1.116-2.496,2.494
				C4.372,8.168,5.49,9.283,6.867,9.283z M9.186,10.469H4.541c-1.323,0-2.398,1.082-2.398,2.404V16h9.45v-3.127
				C11.593,11.551,10.509,10.469,9.186,10.469z"/>
		</g>
		<path display="inline" d="M7.641,0v1.125c1.349,0,2.564,0.545,3.448,1.428c0.883,0.885,1.428,2.1,1.428,3.449h1.125
			C13.642,2.688,10.956,0.001,7.641,0z M7.641,2.025v1.122c1.575,0.004,2.849,1.279,2.853,2.854h1.125
			C11.618,3.805,9.837,2.025,7.641,2.025z"/>
	</g>
	<path id="export_1_" display="none" d="M10.28,0L8.324,1.954l2.182,2.183H9.883L9.467,4.158C4.211,4.38,0,8.712,0,14.021v0.63
		h2.994v-0.63c0-1.839,0.717-3.569,2.017-4.872c1.302-1.301,3.033-2.018,4.873-2.018h0.629V7.129h0.167L8.324,9.487l1.954,1.953
		L16,5.717L10.28,0z"/>
	<g id="privacy" display="none">
		<path display="inline" d="M8.291,3.837H6.674v3.414h1.711c0.636,0,1.125-0.149,1.469-0.449s0.516-0.728,0.516-1.285
			C10.369,4.396,9.677,3.837,8.291,3.837z"/>
		<path display="inline" d="M8,0C3.582,0,0,3.582,0,8s3.582,8,8,8s8-3.582,8-8S12.418,0,8,0z M11.51,7.243
			c-0.317,0.489-0.753,0.845-1.305,1.066S8.861,8.642,7.83,8.642H6.674v4.734h-1.57V2.446h3.461c1.042,0,1.872,0.281,2.492,0.844
			s0.93,1.317,0.93,2.266C11.986,6.191,11.827,6.754,11.51,7.243z"/>
	</g>
	<path id="activity" display="none" d="M0,0v16h16V0H0z M15,7.876h-1.652l-1.284-2.625l-1.32,2.625h-1.1l-0.215,0.59L8.03,4.205
		l-1.868,7.419L4.268,1H15V7.876z M4.22,1L2.129,7.876H1V1H4.22z M1,8.876h1.87l1.127-3.701L5.751,15H1V8.876z M6.36,15l1.797-7.203
		l1.222,3.722l0.964-2.643h1.017l0.691-1.375l0.672,1.375H15V15H6.36z"/>
	<path id="no-activity" display="none" d="M0,0v16h16V0H0z M15,1v6.876H5.412l-1.32-2.625L2.808,7.876H1V1H15z M1,15V8.876h2.432
		l0.672-1.375l1.13,2.219l0.578-0.844H15V15H1z"/>
	<g id="bilboard" display="none">
		<path display="inline" d="M1.02,13.907h13.977V4.032H1.02V13.907z M10.02,4.975h3.97v3.989h-3.97V4.975z M2.004,4.991h2.991v1.978
			h3.037v5.037H4.02V7.985H2.004V4.991z"/>
		<rect x="0.988" y="1.942" display="inline" width="14.024" height="1.064"/>
	</g>
	<g id="outbox" display="none">
		<g display="inline">
			<polygon points="12.243,5.062 10.664,6.64 7.624,3.602 4.584,6.64 3.006,5.062 7.627,0.442 			"/>
		</g>
		<g display="inline">
			<path d="M2.02,9.705V16h11.148V9.684l-5.589,4.497L2.02,9.705z M2.02,8.098v0.016l5.559,4.499l5.589-4.494V8.098H2.02z"/>
		</g>
	</g>
	<g id="inbox" display="none">
		<g display="inline">
			<polygon points="3.01,2.578 4.589,1 7.628,4.038 10.668,1 12.246,2.578 7.625,7.197 			"/>
		</g>
		<g display="inline">
			<path d="M2.02,9.705V16h11.148V9.684l-5.589,4.497L2.02,9.705z M2.02,8.098v0.016l5.559,4.499l5.589-4.494V8.098H2.02z"/>
		</g>
	</g>
	<g id="favorite" display="none">
		<path display="inline" d="M8.009,4.685C7.018,2.1,1.759,2.214,2.008,6.335c0.087,1.41,1.178,2.589,2.687,3.96
			c2.26,2.058,3.315,2.755,3.315,2.755s1.051-0.697,3.314-2.755c1.505-1.371,2.599-2.55,2.683-3.96C14.254,2.214,9,2.1,8.009,4.685z
			"/>
	</g>
	<path id="eportfolio" display="none" d="M14.49,13.121L14.478,0H4.033C2.657,0.003,1.535,0.619,1.513,1.987
		c-0.003,0.025-0.003,0.529,0,0.535v0.003c0,0.04,0.009,0.076,0.011,0.117H1.515v10.826C1.515,14.865,2.647,16,4.044,16h8.385
		l-0.037-1.689l-0.01-11.345H4.033c-0.496,0-1.68-0.048-1.68-0.979V1.894c0.051-0.885,1.184-1.052,1.68-1.052h9.593v12.279H14.49z
		 M7.678,4.504c1.189,0,2.15,0.961,2.15,2.146c0,1.188-0.961,2.148-2.15,2.148c-1.186,0-2.148-0.961-2.148-2.148
		C5.529,5.465,6.492,4.504,7.678,4.504z M4.091,11.89c0-1.138,0.925-2.069,2.064-2.069h3c1.139,0,2.073,0.932,2.073,2.069v2.692
		H4.091V11.89z"/>
	<g id="category" display="none">
		<path display="inline" d="M1.935,1.982V14h3.031V1.982H1.935z M3.451,12.028c-0.511,0-0.924-0.413-0.924-0.923
			c0-0.512,0.413-0.925,0.924-0.925c0.51,0,0.923,0.413,0.923,0.925C4.374,11.615,3.96,12.028,3.451,12.028z"/>
		<path display="inline" d="M5.993,1.982V14h3.029V1.982H5.993z M7.508,12.028c-0.511,0-0.924-0.412-0.924-0.922
			c0-0.512,0.413-0.923,0.924-0.923c0.51,0,0.922,0.411,0.922,0.923C8.431,11.616,8.018,12.028,7.508,12.028z"/>
		<path display="inline" d="M10.001,1.982V14h3.076V1.982H10.001z M11.54,11.999c-0.519,0-0.938-0.419-0.938-0.937
			c0-0.52,0.419-0.938,0.938-0.938c0.518,0,0.937,0.419,0.937,0.938C12.476,11.58,12.057,11.999,11.54,11.999z"/>
	</g>
	<path id="classbook" display="none" fill="#1A171B" d="M14.55,13.121L14.539,0H4.094C2.718,0.003,1.596,0.619,1.573,1.987
		c-0.003,0.025-0.003,0.529,0,0.535v0.003c0,0.04,0.009,0.076,0.011,0.117H1.575v10.826C1.575,14.865,2.708,16,4.104,16h8.386
		l-0.038-1.689L12.443,2.966h-8.35c-0.496,0-1.68-0.048-1.68-0.979V1.894c0.051-0.885,1.184-1.052,1.68-1.052h9.593v12.279H14.55z
		 M11.651,10.889v1.746H6.375v-1.746c0-0.738,0.601-1.342,1.339-1.342h2.594C11.046,9.547,11.651,10.15,11.651,10.889z M9.013,6.101
		c0.771,0,1.395,0.623,1.395,1.393S9.784,8.886,9.013,8.886c-0.77,0-1.393-0.623-1.393-1.393S8.243,6.101,9.013,6.101z M5.375,6.101
		c0.771,0,1.394,0.623,1.394,1.393S6.146,8.886,5.375,8.886c-0.769,0-1.393-0.623-1.393-1.393S4.606,6.101,5.375,6.101z
		 M2.738,10.889c0-0.738,0.6-1.342,1.339-1.342H6.06c-0.299,0.369-0.484,0.832-0.485,1.342v1.746H2.738V10.889z"/>
	<g id="code" display="none">
		<path display="inline" fill="#1A171B" d="M9.284,2.017c-0.438,0-0.546,0.125-0.735,0.747L5.67,12.038
			c-0.168,0.554-0.277,0.904-0.277,1.108c0,0.544,0.408,0.781,0.725,0.781c0.437,0,0.546-0.125,0.734-0.747L9.73,3.907
			c0.169-0.555,0.277-0.906,0.277-1.108C10.008,2.254,9.602,2.017,9.284,2.017z"/>
		<path display="inline" fill="#1A171B" d="M4.523,3.425C4.655,3.011,4.404,2.7,4.161,2.599C3.828,2.46,3.715,2.521,3.419,2.935
			L0.584,6.854C0.391,7.125,0.269,7.306,0.188,7.452C0.162,7.489,0.142,7.528,0.124,7.571C0.119,7.582,0.105,7.601,0.102,7.61
			C0.097,7.628,0.101,7.642,0.096,7.659c-0.014,0.053-0.02,0.106-0.019,0.166c0,0.061,0.005,0.115,0.02,0.168
			c0.004,0.017,0,0.03,0.005,0.047c0.003,0.01,0.017,0.027,0.021,0.038C0.141,8.123,0.162,8.162,0.188,8.2
			C0.27,8.347,0.391,8.527,0.584,8.798l2.834,3.919c0.296,0.413,0.41,0.475,0.742,0.337c0.243-0.102,0.494-0.413,0.362-0.828
			c-0.05-0.152-0.219-0.387-0.482-0.756L1.405,7.825l2.636-3.643C4.304,3.813,4.473,3.579,4.523,3.425z"/>
		<path display="inline" fill="#1A171B" d="M15.988,7.825c0-0.06-0.006-0.114-0.02-0.168c-0.004-0.017,0-0.03-0.005-0.047
			c-0.003-0.01-0.017-0.027-0.021-0.038c-0.019-0.044-0.039-0.083-0.064-0.12c-0.082-0.146-0.203-0.328-0.396-0.599l-2.835-3.919
			c-0.296-0.414-0.411-0.475-0.742-0.336c-0.243,0.102-0.495,0.412-0.362,0.826c0.05,0.154,0.219,0.389,0.481,0.758l2.637,3.643
			l-2.637,3.645c-0.263,0.368-0.432,0.604-0.481,0.756c-0.133,0.415,0.119,0.727,0.362,0.828c0.333,0.138,0.446,0.076,0.742-0.337
			l2.835-3.919c0.192-0.27,0.313-0.449,0.395-0.597c0.027-0.038,0.048-0.079,0.066-0.124c0.004-0.011,0.017-0.027,0.02-0.037
			c0.005-0.017,0.001-0.029,0.005-0.045C15.982,7.941,15.989,7.886,15.988,7.825z"/>
	</g>
	<path id="unit-test" display="none" fill="#1A171B" d="M4.441,1.604L0.977,5.069v9.878h10.586l3.465-3.465V1.604H4.441z
		 M10.907,4.906H2.181l2.703-2.704h8.728L10.907,4.906z M14.323,11.123l-2.45,2.449V5.456l2.45-2.451V11.123z"/>
	<g id="evaluation" display="none">
		<g display="inline">
			<path d="M10.621,7.954c0-1.445-1.176-2.618-2.622-2.618c-0.671,0-1.275,0.26-1.738,0.675c0.008,0.072,0.021,0.143,0.021,0.217
				v0.422C6.588,6.786,6.854,7.003,7.05,7.274c0.461,0.105,0.866,0.383,1.134,0.77c0.668,0.295,1.123,0.959,1.123,1.728v0.441
				C10.088,9.758,10.621,8.921,10.621,7.954z"/>
			<path d="M8,0.981c-3.848,0-6.973,3.124-6.974,6.971h0.623C1.812,7.907,1.979,7.88,2.148,7.88c0.116,0,0.23,0.01,0.342,0.031
				V6.227c0-1.046,0.851-1.896,1.896-1.896c0.105,0,0.207,0.015,0.309,0.031C5.567,3.56,6.721,3.057,8,3.057
				c2.706,0,4.899,2.195,4.899,4.897c0,2.257-1.535,4.14-3.613,4.706c-0.045,0.664-0.189,1.547-0.512,2.225
				c3.487-0.385,6.202-3.342,6.202-6.931C14.975,4.105,11.852,0.981,8,0.981z"/>
		</g>
		<g display="inline">
			<g>
				<path d="M7.49,8.884C7.384,8.505,7.042,8.226,6.63,8.226c-0.08,0-0.156,0.014-0.229,0.033C6.341,7.823,5.97,7.485,5.517,7.485
					c-0.082,0-0.16,0.014-0.234,0.035V6.228c0-0.496-0.402-0.896-0.896-0.896c-0.496,0-0.896,0.4-0.896,0.896v4.172L2.941,9.357
					C2.71,8.921,2.169,8.753,1.732,8.983c-0.439,0.229-0.607,0.771-0.377,1.208l2.287,4.352c0.064,0.121,0.154,0.221,0.258,0.297
					c0.098,0.107,0.238,0.178,0.395,0.178h0.127c0.033,0,0.064,0.002,0.096,0H7.23c0.17,0,0.32-0.08,0.418-0.207
					c0.379-0.377,0.658-1.6,0.658-2.629v-2.41C8.306,9.305,7.947,8.925,7.49,8.884z"/>
			</g>
		</g>
	</g>
	<g id="evaluation2" display="none">
		<polygon display="inline" points="2.131,11.885 2.131,7.242 4.785,9.896 8.542,6.138 10.522,8.119 14.088,4.554 13.168,3.635 
			10.523,6.276 9.463,5.217 9.472,5.208 8.552,4.288 4.784,8.053 2.14,5.411 2.131,5.421 2.131,3.738 1.037,3.738 1.037,12.98 
			1.834,12.979 1.834,12.98 14.963,12.98 14.963,11.885 		"/>
	</g>
	<path id="visibility-checked2" display="none" fill="#1A171B" d="M7.993,3.185C4.525,3.185,1.518,5.136,0,8.001
		c1.518,2.863,4.525,4.814,7.993,4.814c3.466,0,6.472-1.951,7.993-4.814C14.465,5.136,11.459,3.185,7.993,3.185z M7.173,11.383
		L4.121,8.331l1.342-1.344l1.709,1.708l3.265-3.265l1.345,1.344L7.173,11.383z"/>
	<g id="visibility-checked" display="none">
		<g display="inline">
			<g>
				<g>
					<path fill="#1A171B" d="M8,3.181c-3.471,0-6.48,1.953-8,4.82c1.52,2.865,4.529,4.818,8,4.818c3.469,0,6.479-1.953,8-4.818
						C14.479,5.134,11.469,3.181,8,3.181z M7.998,12.228c-2.334,0-4.229-1.893-4.229-4.227c0-2.336,1.895-4.229,4.229-4.229
						c2.336,0,4.23,1.893,4.23,4.229C12.229,10.335,10.334,12.228,7.998,12.228z"/>
				</g>
			</g>
		</g>
		<polygon display="inline" fill="#1A171B" points="11.792,6.774 10.446,5.429 7.178,8.696 5.468,6.987 4.125,8.331 7.18,11.386 		
			"/>
	</g>
	<g id="learnmodule" display="none">
		<g display="inline">
			<path d="M7.271,8.729H1.03V8.73c0,3.443,2.795,6.239,6.238,6.239h0.002V8.729z"/>
			<path d="M8.83,0.928c-3.442,0-6.237,2.793-6.238,6.236H4.45c0.001-2.417,1.962-4.379,4.38-4.379c2.42,0,4.382,1.963,4.382,4.38
				c0,2.42-1.96,4.381-4.378,4.383v1.857c3.443-0.002,6.235-2.797,6.235-6.24C15.068,3.723,12.276,0.928,8.83,0.928z M11.174,7.165
				c0-1.292-1.051-2.342-2.344-2.342S6.489,5.872,6.488,7.164h2.346v2.345C10.125,9.508,11.174,8.458,11.174,7.165z"/>
		</g>
	</g>
	<g id="euro" display="none">
		<path display="inline" fill="#1A171B" d="M7.999,0C3.581,0,0,3.582,0,8.004C0.002,12.42,3.581,15.998,7.999,16
			C12.418,15.998,16,12.42,16,8.004C16,3.582,12.418,0,7.999,0z M7.999,14.383c-3.523-0.008-6.374-2.857-6.381-6.379
			c0.007-3.527,2.857-6.379,6.381-6.385c3.524,0.006,6.375,2.857,6.383,6.385C14.374,11.525,11.523,14.375,7.999,14.383z"/>
		<g display="inline">
			<path fill="#1A171B" d="M3.31,8.389h0.83c0,0-0.026-0.229-0.026-0.402c0-0.146,0.026-0.428,0.026-0.428H3.31V6.529h1.004
				c0.575-2.006,2.367-3.438,4.573-3.438c0.708,0,1.324,0.174,1.324,0.174L9.795,4.83c0,0-0.453-0.133-0.949-0.133
				c-1.27,0-2.259,0.709-2.688,1.832h3.33L9.274,7.559H5.919c0,0-0.028,0.201-0.028,0.402c0,0.146,0.041,0.428,0.041,0.428h3.182
				l-0.2,1.016H6.238c0.414,1.137,1.444,1.872,2.675,1.872c0.694,0,1.285-0.2,1.285-0.2l0.307,1.578c0,0-0.697,0.254-1.618,0.254
				c-2.286,0-4.026-1.431-4.573-3.504H3.31V8.389z"/>
		</g>
	</g>
</g>
<g id="Plugins" display="none">
	<path id="elmo" d="M12.377,4.153c0.106-0.264,0.167-0.551,0.167-0.85c0-1.256-1.015-2.27-2.269-2.27
		c-1.067,0-1.956,0.738-2.198,1.732C7.856,1.757,6.96,1.001,5.883,1.001c-1.242,0-2.25,1.008-2.25,2.25
		c0,0.279,0.059,0.545,0.15,0.789C2.291,4.995,1.336,6.528,1.336,8.544c0,3.564,2.982,6.455,6.664,6.455
		c3.68,0,6.663-2.891,6.663-6.455C14.664,6.603,13.776,5.112,12.377,4.153z M7.958,3.241c1.12,0,2.029,1.143,2.029,2.553
		c0,1.408-0.909,2.551-2.029,2.551c-1.121,0-2.029-1.143-2.029-2.551C5.928,4.384,6.836,3.241,7.958,3.241z M8.153,13.653
		c-4.655,0-4.948-4.637-4.948-4.637c-0.001,0,2.093,0.635,4.792,0.635c2.976,0,5.086-0.652,5.087-0.652
		C13.083,8.999,12.373,13.653,8.153,13.653z"/>
	<path id="perle" display="inline" fill="#1A171B" d="M7.488,1C3.884,1,0.962,3.922,0.962,7.526c0,3.604,2.922,6.525,6.526,6.525
		s6.525-2.922,6.525-6.525C14.013,3.922,11.092,1,7.488,1z M8.218,8.31c-1.816,1.471-4.22,1.517-5.367,0.1
		c-1.148-1.415-0.606-3.758,1.211-5.23c1.816-1.472,4.219-1.517,5.367-0.1C10.577,4.494,10.035,6.837,8.218,8.31z"/>
	<g id="doit">
		<ellipse display="inline" fill="#1A171B" cx="6.496" cy="3.368" rx="1.771" ry="0.427"/>
		<ellipse display="inline" fill="#1A171B" cx="10.762" cy="3.368" rx="1.771" ry="0.427"/>
		<path display="inline" fill="#1A171B" d="M8.268,3.573v0.704C7.992,4.353,7.82,4.45,7.82,4.559c0,0.235,0.793,0.427,1.77,0.427
			c0.979,0,1.771-0.191,1.771-0.427S10.568,4.132,9.59,4.132c-0.213,0-0.414,0.01-0.604,0.027V3.573H8.268z"/>
		<path display="inline" fill="#1A171B" d="M12.533,3.573v1.15c0,0.185-0.49,0.34-1.172,0.4v0.79c0,0.235-0.793,0.427-1.771,0.427
			c-0.977,0-1.77-0.191-1.77-0.427H7.814V5.006C7.62,5.059,7.375,5.099,7.096,5.124v0.79c0,0.235-0.793,0.427-1.771,0.427
			c-0.978,0-1.771-0.191-1.771-0.427H3.549V4.522h0.021C3.564,4.534,3.554,4.546,3.554,4.559c0,0.235,0.793,0.427,1.771,0.427
			c0.979,0,1.771-0.191,1.771-0.427S6.303,4.132,5.324,4.132c-0.213,0-0.414,0.01-0.604,0.027V3.573H4.439L0.975,7.038v6.879h10.586
			l3.465-3.465V3.573H12.533z M10.808,13.066H1.883V7.755h8.925V13.066z M14.508,9.907l-2.637,2.635V7.391l2.637-2.636V9.907z"/>
	</g>
</g>
<g id="comment" display="none">
	<g display="inline">
		<path fill="#DFA438" d="M14.186,9.847c0,0.756-0.626,1.381-1.381,1.384h-5.68l-0.204,0.271c-0.036,0.055-0.853,1.103-2.306,1.798
			c0.166-0.458,0.229-0.901,0.225-1.289c0-0.027,0-0.066-0.002-0.119L4.82,11.23H3.195c-0.755-0.003-1.381-0.628-1.381-1.384V4.489
			c0-0.759,0.626-1.382,1.381-1.384h9.61c0.755,0.002,1.381,0.625,1.381,1.384V9.847z"/>
		<path d="M12.455,2.215H3.545c-1.404,0-2.543,1.14-2.544,2.545v4.968c0.001,1.402,1.141,2.543,2.544,2.544h0.198
			c-0.097,0.406-0.327,0.851-0.833,1.312L1.333,15l2.097-0.321c2.375-0.376,3.844-1.808,4.372-2.407h4.654
			c1.405-0.001,2.543-1.142,2.544-2.544V4.76C14.998,3.354,13.86,2.215,12.455,2.215z M13.735,9.728c0,0.7-0.58,1.28-1.28,1.281
			H7.189L7,11.262c-0.033,0.05-0.79,1.021-2.137,1.666c0.153-0.425,0.211-0.836,0.208-1.194c0-0.025,0-0.062-0.001-0.11
			l-0.018-0.614H3.545c-0.7-0.001-1.28-0.581-1.28-1.281V4.76c0-0.703,0.58-1.28,1.28-1.282h8.909c0.7,0.002,1.28,0.579,1.28,1.282
			V9.728z"/>
	</g>
</g>
<g id="Pfeile" display="none">
	<g id="arr_x5F_1right">
		<polygon display="inline" points="7.912,8 3.428,12.488 5.756,14.814 12.572,7.996 5.758,1.186 3.428,3.514 		"/>
	</g>
	<g id="arr_x5F_1left">
		<polygon display="inline" points="8.088,8 12.572,3.512 10.244,1.186 3.428,8.003 10.242,14.814 12.572,12.486 		"/>
	</g>
	<g id="arr_x5F_1up">
		<polygon display="inline" points="8,8.089 12.488,12.573 14.814,10.245 7.997,3.429 1.185,10.243 3.513,12.573 		"/>
	</g>
	<g id="arr_x5F_1down">
		<polygon display="inline" points="8,7.912 3.512,3.428 1.186,5.756 8.003,12.572 14.814,5.758 12.486,3.428 		"/>
	</g>
	<g id="arr_x5F_2right">
		<path display="inline" d="M2.331,1.186L0,3.514L4.485,8L0,12.488l2.329,2.326l6.814-6.818L2.331,1.186z M11.34,8l-4.485,4.488
			l2.329,2.326L16,7.996L9.186,1.186L6.854,3.514L11.34,8z"/>
	</g>
	<g id="arr_x5F_2left">
		<path display="inline" d="M13.669,14.814L16,12.486L11.515,8L16,3.512l-2.329-2.326L6.856,8.004L13.669,14.814z M4.66,8
			l4.485-4.488L6.816,1.186L0,8.004l6.814,6.811l2.331-2.328L4.66,8z"/>
	</g>
	<g id="arr_x5F_2up">
		<path display="inline" d="M1.185,13.668L3.513,16L8,11.514L12.488,16l2.326-2.33L7.996,6.855L1.185,13.668z M8,4.659l4.488,4.485
			l2.326-2.329L7.996-0.001L1.185,6.813l2.328,2.331L8,4.659z"/>
	</g>
	<g id="arr_x5F_2down">
		<path display="inline" d="M14.814,2.331L12.486,0L8,4.485L3.511,0l-2.326,2.33l6.818,6.814L14.814,2.331z M8,11.34L3.511,6.854
			L1.185,9.184L8.003,16l6.811-6.814l-2.328-2.331L8,11.34z"/>
	</g>
	<g id="arr_x5F_eol-right">
		<path display="inline" d="M1.888,12.485l2.33,2.329l6.816-6.811L4.218,1.186l-2.33,2.326L6.372,8L1.888,12.485z M14.112,1.188
			l-1.829-0.003l-0.002,13.629h1.831V1.188z"/>
	</g>
	<g id="arr_x5F_eol-left">
		<path display="inline" d="M14.112,3.515l-2.33-2.329L4.966,7.996l6.816,6.818l2.33-2.326L9.628,8L14.112,3.515z M1.888,14.812
			l1.829,0.003L3.719,1.186H1.888V14.812z"/>
	</g>
	<g id="arr_x5F_eol-up">
		<path display="inline" d="M12.485,14.112l2.329-2.33L8.004,4.966l-6.818,6.816l2.326,2.33L8,9.628L12.485,14.112z M1.188,1.888
			L1.186,3.717l13.629,0.002V1.888H1.188z"/>
	</g>
	<g id="arr_x5F_eol-down">
		<path display="inline" d="M3.515,1.888l-2.329,2.33l6.811,6.816l6.818-6.816l-2.326-2.33L8,6.372L3.515,1.888z M14.812,14.112
			l0.003-1.829L1.186,12.281v1.831H14.812z"/>
	</g>
	<g id="play" display="inline">
		<polygon points="5.033,14.814 11.849,7.997 5.035,1.186 		"/>
	</g>
	<g id="pause_1_">
		<g display="inline">
			<g>
				<rect x="2.701" y="1.019" width="4.103" height="13.961"/>
			</g>
			<g>
				<rect x="9.198" y="1.019" width="4.104" height="13.961"/>
			</g>
		</g>
	</g>
	<g id="stop">
		<rect x="1.981" y="1.015" display="inline" width="12.07" height="13.93"/>
	</g>
</g>
<g id="Zustze" display="none">
	<g id="pause">
		<g display="inline">
			<defs>
				<polygon id="SVGID_1_" points="13.135,-1 12.45,-1 9.585,-1 9.585,6.956 12.45,6.956 13.135,6.956 16,6.956 16,-1 				"/>
			</defs>
			<clipPath id="SVGID_2_">
				<use xlink:href="#SVGID_1_"  overflow="visible"/>
			</clipPath>
			<g clip-path="url(#SVGID_2_)">
				<g>
					<rect x="10.585" width="1.55" height="5.956"/>
				</g>
				<g>
					<rect x="13.45" width="1.55" height="5.956"/>
				</g>
			</g>
		</g>
	</g>
	<g id="new">
		<g display="inline">
			<defs>
				<polygon id="SVGID_3_" points="19.079,1.436 14.166,1.436 12.649,-3.238 11.13,1.436 6.217,1.436 10.192,4.322 8.676,8.995 
					12.648,6.107 16.62,8.996 15.104,4.322 				"/>
			</defs>
			<clipPath id="SVGID_4_">
				<use xlink:href="#SVGID_3_"  overflow="visible"/>
			</clipPath>
			<polygon clip-path="url(#SVGID_4_)" points="13.928,3.94 16,2.436 13.438,2.436 12.648,0 11.857,2.436 9.295,2.436 11.367,3.94 
				10.577,6.377 12.648,4.871 14.719,6.377 			"/>
		</g>
	</g>
	<g id="add">
		<g display="inline">
			<defs>
				<polygon id="SVGID_5_" points="14.782,1.217 14.782,-1 11.218,-1 11.218,1.217 9,1.217 9,4.78 11.218,4.78 11.218,7.001 
					14.782,7.001 14.782,4.78 17,4.78 17,1.217 				"/>
			</defs>
			<clipPath id="SVGID_6_">
				<use xlink:href="#SVGID_5_"  overflow="visible"/>
			</clipPath>
			<polygon clip-path="url(#SVGID_6_)" points="16,2.217 13.782,2.217 13.782,0 12.218,0 12.218,2.217 10,2.217 10,3.78 
				12.218,3.78 12.218,6.001 13.782,6.001 13.782,3.78 16,3.78 			"/>
		</g>
	</g>
	<g id="remove">
		<g display="inline">
			<defs>
				<rect id="SVGID_7_" x="8.986" y="1.143" width="8.014" height="3.565"/>
			</defs>
			<clipPath id="SVGID_8_">
				<use xlink:href="#SVGID_7_"  overflow="visible"/>
			</clipPath>
			<g clip-path="url(#SVGID_8_)">
				<rect x="9.986" y="2.143" width="6.014" height="1.565"/>
			</g>
		</g>
	</g>
	<g id="refresh">
		<defs>
			<path id="SVGID_9_" d="M17.514,2.671l-0.862-0.552L16.65-1h-2.866v0.558c-1.334-0.3-2.758,0.103-3.723,1.067
				c-1.569,1.569-1.554,4.141,0.035,5.732c0.779,0.777,1.809,1.205,2.901,1.205c1.071,0,2.077-0.415,2.831-1.168
				C16.585,5.639,17.001,4.631,17,3.557l0-0.886H17.514z M14.141,3.558c0,0.22-0.058,0.539-0.333,0.813
				c-0.443,0.443-1.229,0.426-1.69-0.035c-0.475-0.475-0.49-1.234-0.036-1.689c0.011-0.011,0.021-0.021,0.033-0.031l0,0.922h2.026
				V3.558z"/>
		</defs>
		<clipPath id="SVGID_10_" display="inline">
			<use xlink:href="#SVGID_9_"  overflow="visible"/>
		</clipPath>
		<path display="inline" clip-path="url(#SVGID_10_)" d="M13.114,2.537h2.539L15.651,0h-0.867v1.104
			c-1.204-0.927-2.924-0.863-4.016,0.228C9.581,2.52,9.606,4.451,10.803,5.649c1.201,1.198,3.131,1.224,4.319,0.037
			C15.707,5.103,16.001,4.329,16,3.558l-0.859,0.001c0,0.557-0.208,1.103-0.627,1.521c-0.843,0.842-2.231,0.836-3.104-0.036
			c-0.871-0.872-0.876-2.26-0.035-3.104c0.729-0.727,1.86-0.818,2.721-0.268h-0.983L13.114,2.537z"/>
	</g>
	<g id="move_x5F_right">
		<g display="inline">
			<defs>
				<polygon id="SVGID_11_" points="11.875,-1.414 9.405,1.056 11.44,3.095 9.405,5.132 11.875,7.604 16.385,3.093 				"/>
			</defs>
			<clipPath id="SVGID_12_">
				<use xlink:href="#SVGID_11_"  overflow="visible"/>
			</clipPath>
			<polygon clip-path="url(#SVGID_12_)" points="11.875,0 10.818,1.057 12.853,3.095 10.818,5.132 11.875,6.189 14.97,3.093 			"/>
		</g>
	</g>
	<g id="move_x5F_left">
		<g display="inline">
			<defs>
				<polygon id="SVGID_13_" points="16.383,1.058 13.913,-1.415 9.403,3.097 13.914,7.604 16.383,5.134 14.348,3.095 				"/>
			</defs>
			<clipPath id="SVGID_14_">
				<use xlink:href="#SVGID_13_"  overflow="visible"/>
			</clipPath>
			<polygon clip-path="url(#SVGID_14_)" points="12.935,3.095 14.97,1.058 13.913,0 10.817,3.097 13.913,6.189 14.97,5.133 			"/>
		</g>
	</g>
	<g id="move_x5F_up">
		<g display="inline">
			<defs>
				<polygon id="SVGID_15_" points="12.892,-0.396 8.385,4.114 10.855,6.585 12.894,4.549 14.931,6.584 17.404,4.114 				"/>
			</defs>
			<clipPath id="SVGID_16_">
				<use xlink:href="#SVGID_15_"  overflow="visible"/>
			</clipPath>
			<polygon clip-path="url(#SVGID_16_)" points="12.894,3.136 14.931,5.171 15.989,4.114 12.892,1.019 9.799,4.114 10.856,5.171 			
				"/>
		</g>
	</g>
	<g id="move_x5F_down">
		<g display="inline">
			<defs>
				<polygon id="SVGID_17_" points="14.934,-0.397 12.895,1.639 10.858,-0.397 8.386,2.073 12.897,6.583 17.404,2.073 				"/>
			</defs>
			<clipPath id="SVGID_18_">
				<use xlink:href="#SVGID_17_"  overflow="visible"/>
			</clipPath>
			<polygon clip-path="url(#SVGID_18_)" points="12.895,3.052 10.858,1.017 9.8,2.073 12.897,5.169 15.99,2.073 14.933,1.017 			"/>
		</g>
	</g>
	<g id="decline">
		<g display="inline">
			<defs>
				<polygon id="SVGID_19_" points="17.414,1.215 14.79,-1.414 13.066,0.308 11.344,-1.414 8.717,1.213 10.439,2.935 8.715,4.656 
					11.345,7.284 13.067,5.562 14.789,7.285 17.414,4.655 15.693,2.936 				"/>
			</defs>
			<clipPath id="SVGID_20_">
				<use xlink:href="#SVGID_19_"  overflow="visible"/>
			</clipPath>
			<g clip-path="url(#SVGID_20_)">
				<polygon points="16,4.656 14.278,2.936 16,1.214 14.789,0 13.066,1.722 11.344,0 10.132,1.213 11.854,2.935 10.13,4.656 
					11.345,5.87 13.067,4.146 14.789,5.87 				"/>
			</g>
		</g>
	</g>
	<g id="accept">
		<g display="inline">
			<defs>
				<polygon id="SVGID_21_" points="14.671,-1.414 11.443,1.813 9.753,0.124 7.012,2.866 11.445,7.299 17.414,1.329 				"/>
			</defs>
			<clipPath id="SVGID_22_">
				<use xlink:href="#SVGID_21_"  overflow="visible"/>
			</clipPath>
			<polygon clip-path="url(#SVGID_22_)" points="16,1.33 14.671,0 11.443,3.229 9.753,1.539 8.426,2.867 11.445,5.886 			"/>
		</g>
	</g>
	<g id="edit" display="inline">
		<g>
			<g>
				<path d="M15.884,2.379h-0.177V2.376c-0.212,0.008-0.415-0.118-0.5-0.325c-0.086-0.207-0.031-0.438,0.122-0.586l0.126-0.126
					c0.044-0.044,0.044-0.119,0-0.165l-0.579-0.58c-0.046-0.046-0.119-0.046-0.166,0l-0.125,0.125
					C14.438,0.872,14.208,0.929,14,0.841c-0.206-0.087-0.332-0.289-0.326-0.501l-0.001-0.177c0-0.064-0.052-0.117-0.117-0.117
					h-0.819c-0.063,0-0.117,0.053-0.116,0.117l0,0.178c0.005,0.212-0.119,0.414-0.326,0.501c-0.208,0.086-0.439,0.03-0.585-0.122
					l-0.126-0.126c-0.045-0.045-0.119-0.045-0.165,0l-0.578,0.581c-0.045,0.045-0.045,0.118,0,0.164l0.123,0.127
					c0.154,0.147,0.209,0.379,0.124,0.586c-0.086,0.207-0.289,0.333-0.5,0.325l-0.178,0.003c-0.065,0-0.117,0.053-0.117,0.117v0.821
					c0,0.063,0.052,0.116,0.117,0.116h0.178l-0.001,0.002c0.212-0.008,0.415,0.118,0.501,0.325c0.085,0.208,0.03,0.439-0.123,0.585
					v0.001l-0.125,0.127c-0.044,0.044-0.044,0.12,0,0.163l0.579,0.58c0.045,0.046,0.119,0.046,0.165,0l0.126-0.124
					c0.146-0.153,0.377-0.208,0.585-0.123c0.207,0.088,0.331,0.29,0.326,0.502l0.002,0.177h-0.001
					c0.001,0.066,0.053,0.117,0.116,0.117h0.82c0.064,0,0.117-0.051,0.117-0.117h-0.001l0.001-0.177
					C13.668,5.26,13.793,5.058,14,4.97c0.208-0.085,0.439-0.03,0.586,0.123l0.124,0.126c0.046,0.046,0.121,0.046,0.165,0l0.58-0.58
					c0.046-0.045,0.046-0.119,0-0.163l-0.125-0.129c-0.153-0.146-0.208-0.378-0.122-0.586c0.085-0.207,0.288-0.333,0.5-0.325
					l0.177-0.004C15.947,3.432,16,3.379,16,3.315V2.494C16,2.431,15.947,2.379,15.884,2.379z M13.146,3.91
					c-0.553,0-1.001-0.449-1.001-1.004s0.448-1.005,1.001-1.005s1.002,0.45,1.002,1.005S13.7,3.91,13.146,3.91z"/>
			</g>
		</g>
	</g>
	<path id="export" display="inline" d="M13.848-0.04l-0.736,0.735l0.821,0.821h-0.234l-0.156,0.008
		c-1.978,0.084-3.562,1.714-3.562,3.711v0.237h1.126V5.235c0-0.691,0.27-1.343,0.759-1.833c0.49-0.489,1.141-0.759,1.833-0.759
		h0.237V2.643h0.063L13.112,3.53l0.735,0.734L16,2.111L13.848-0.04z"/>
	<g id="crown" display="inline">
		<polygon fill="#FCC70A" points="14.858,5.028 11.14,5.028 9.999,0.914 10.748,1.957 11.499,3.002 12.249,1.957 13,0.914 
			13.75,1.957 14.499,3.002 15.25,1.957 16,0.914 		"/>
	</g>
	<path id="visibility-visible" display="inline" d="M12.971,1.607c-1.314,0-2.454,0.74-3.029,1.825
		c0.575,1.085,1.715,1.825,3.029,1.825c1.313,0,2.453-0.74,3.029-1.825C15.424,2.348,14.284,1.607,12.971,1.607z"/>
	<g id="visibility-invisible" display="inline">
		<g>
			<g>
				<path d="M12.997,1.611c-1.303,0-2.433,0.733-3.003,1.81c0.57,1.075,1.7,1.809,3.003,1.809c1.302,0,2.432-0.733,3.003-1.809
					C15.429,2.345,14.299,1.611,12.997,1.611z M12.996,5.007c-0.876,0-1.587-0.71-1.587-1.586c0-0.877,0.711-1.588,1.587-1.588
					c0.877,0,1.588,0.711,1.588,1.588C14.584,4.297,13.873,5.007,12.996,5.007z"/>
			</g>
		</g>
	</g>
</g>
</svg>
