<?xml version="1.0" encoding="utf-8"?>
<!-- Generator: Adobe Illustrator 14.0.0, SVG Export Plug-In . SVG Version: 6.00 Build 43363)  -->
<!DOCTYPE svg PUBLIC "-//W3C//DTD SVG 1.1//EN" "http://www.w3.org/Graphics/SVG/1.1/DTD/svg11.dtd">
<svg version="1.1" xmlns="http://www.w3.org/2000/svg" xmlns:xlink="http://www.w3.org/1999/xlink" x="0px" y="0px" width="16px"
	 height="16px" viewBox="0 0 16 16" enable-background="new 0 0 16 16" fill="#0f0" xml:space="preserve">
<g id="Pfeile" display="none">
    <g id="arr_x5F_1right">
        <polygon display="inline" points="7.912,8 3.428,12.488 5.756,14.814 12.572,7.996 5.758,1.186 3.428,3.514        "/>
    </g>
    <g id="arr_x5F_1left">
        <polygon display="inline" points="8.088,8 12.572,3.512 10.244,1.186 3.428,8.003 10.242,14.814 12.572,12.486         "/>
    </g>
    <g id="arr_x5F_1up">
        <polygon display="inline" points="8,8.089 12.488,12.573 14.814,10.245 7.997,3.429 1.185,10.243 3.513,12.573         "/>
    </g>
    <g id="arr_x5F_1down">
        <polygon display="inline" points="8,7.912 3.512,3.428 1.186,5.756 8.003,12.572 14.814,5.758 12.486,3.428        "/>
    </g>
    <g id="arr_x5F_2right">
        <path display="inline" d="M2.331,1.186L0,3.514L4.485,8L0,12.488l2.329,2.326l6.814-6.818L2.331,1.186z M11.34,8l-4.485,4.488
            l2.329,2.326L16,7.996L9.186,1.186L6.854,3.514L11.34,8z"/>
    </g>
    <g id="arr_x5F_2left">
        <path display="inline" d="M13.669,14.814L16,12.486L11.515,8L16,3.512l-2.329-2.326L6.856,8.004L13.669,14.814z M4.66,8
            l4.485-4.488L6.816,1.186L0,8.004l6.814,6.811l2.331-2.328L4.66,8z"/>
    </g>
    <g id="arr_x5F_2up">
        <path display="inline" d="M1.185,13.668L3.513,16L8,11.514L12.488,16l2.326-2.33L7.996,6.855L1.185,13.668z M8,4.659l4.488,4.485
            l2.326-2.329L7.996-0.001L1.185,6.813l2.328,2.331L8,4.659z"/>
    </g>
    <g id="arr_x5F_2down">
        <path display="inline" d="M14.814,2.331L12.486,0L8,4.485L3.511,0l-2.326,2.33l6.818,6.814L14.814,2.331z M8,11.34L3.511,6.854
            L1.185,9.184L8.003,16l6.811-6.814l-2.328-2.331L8,11.34z"/>
    </g>
    <g id="arr_x5F_eol-right">
        <path display="inline" d="M1.888,12.485l2.33,2.329l6.816-6.811L4.218,1.186l-2.33,2.326L6.372,8L1.888,12.485z M14.112,1.188
            l-1.829-0.003l-0.002,13.629h1.831V1.188z"/>
    </g>
    <g id="arr_x5F_eol-left">
        <path display="inline" d="M14.112,3.515l-2.33-2.329L4.966,7.996l6.816,6.818l2.33-2.326L9.628,8L14.112,3.515z M1.888,14.812
            l1.829,0.003L3.719,1.186H1.888V14.812z"/>
    </g>
    <g id="arr_x5F_eol-up">
        <path display="inline" d="M12.485,14.112l2.329-2.33L8.004,4.966l-6.818,6.816l2.326,2.33L8,9.628L12.485,14.112z M1.188,1.888
            L1.186,3.717l13.629,0.002V1.888H1.188z"/>
    </g>
    <g id="arr_x5F_eol-down">
        <path display="inline" d="M3.515,1.888l-2.329,2.33l6.811,6.816l6.818-6.816l-2.326-2.33L8,6.372L3.515,1.888z M14.812,14.112
            l0.003-1.829L1.186,12.281v1.831H14.812z"/>
    </g>
    <g id="play" display="inline">
        <polygon points="5.033,14.814 11.849,7.997 5.035,1.186      "/>
    </g>
    <g id="pause_1_">
        <g display="inline">
            <g>
                <rect x="2.701" y="1.019" width="4.103" height="13.961"/>
            </g>
            <g>
                <rect x="9.198" y="1.019" width="4.104" height="13.961"/>
            </g>
        </g>
    </g>
    <g id="stop">
        <rect x="1.981" y="1.015" display="inline" width="12.07" height="13.93"/>
    </g>
</g>
</svg>