<?xml version="1.0" encoding="utf-8"?>
<!-- Generator: Adobe Illustrator 14.0.0, SVG Export Plug-In . SVG Version: 6.00 Build 43363)  -->
<!DOCTYPE svg PUBLIC "-//W3C//DTD SVG 1.1//EN" "http://www.w3.org/Graphics/SVG/1.1/DTD/svg11.dtd">
<svg version="1.1" xmlns="http://www.w3.org/2000/svg" xmlns:xlink="http://www.w3.org/1999/xlink" x="0px" y="0px" width="16px"
	 height="16px" viewBox="0 0 16 16" enable-background="new 0 0 16 16" fill="#0f0" xml:space="preserve">
<g id="Icons">
	<g id="Startseite">
		<polygon display="inline" points="7.989,0.001 0,8.228 1.303,8.228 1.303,16 5.692,16 5.692,9.921 10.289,9.921 10.289,16 
			14.68,16 14.68,8.228 15.981,8.228 		"/>
	</g>
	<g id="Veranstaltungen">
		<path display="inline" d="M7.975,1.052C4.126,1.052,1.002,4.176,1,8.022h2.077c0-2.7,2.193-4.896,4.897-4.896
			c2.705,0,4.899,2.195,4.899,4.896c0,2.706-2.194,4.899-4.898,4.9V15c3.851,0,6.973-3.126,6.973-6.977
			C14.949,4.176,11.826,1.052,7.975,1.052z M10.595,8.023c0-1.444-1.175-2.617-2.621-2.617S5.356,6.579,5.356,8.023
			c0,1.446,1.172,2.622,2.618,2.622S10.595,9.47,10.595,8.023z"/>
	</g>
	<g id="Einrichtungen">
		<path display="inline" d="M13.684,5.576h2.312L7.998,1L0,5.576h2.312v8.022H1.194v1.316h13.61v-1.316h-1.12V5.576z M11.251,13.599
			H9.215V5.576h2.036V13.599z M4.745,5.576h2.037v8.022H4.745V5.576z"/>
	</g>
	<g id="Post">
		<g display="inline">
			<path d="M1.008,5.362v7.732H15V5.336l-7.015,5.525L1.008,5.362z M1.008,3.386v0.019l6.977,5.527L15,3.412V3.386H1.008z"/>
		</g>
	</g>
	<g id="Community">
		<g display="inline">
			<path d="M11.246,9.283c1.382,0,2.497-1.115,2.497-2.495c0-1.378-1.114-2.494-2.497-2.494c-1.377,0-2.496,1.116-2.496,2.494
				C8.75,8.168,9.869,9.283,11.246,9.283z M0.005,12.873V16h5.081v-3.128c0.002-0.914,0.335-1.743,0.869-2.403H2.403
				C1.081,10.469,0.005,11.551,0.005,12.873z M13.564,10.469H8.919c-1.323,0-2.398,1.082-2.398,2.404V16h9.45v-3.127
				C15.971,11.551,14.887,10.469,13.564,10.469z M4.729,4.294c-1.377,0-2.495,1.116-2.495,2.494c0,1.38,1.118,2.495,2.495,2.495
				c1.381,0,2.496-1.115,2.496-2.495C7.225,5.41,6.111,4.294,4.729,4.294z"/>
		</g>
	</g>
	<g id="Planer">
		<path display="inline" d="M5.583,11.08V9.383L4.325,11.08H5.583z M10.827,4.962c0.454,0,0.82-0.368,0.82-0.82V1.876
			c0-0.449-0.366-0.818-0.82-0.818c-0.453,0-0.818,0.369-0.818,0.818v2.266C10.008,4.594,10.374,4.962,10.827,4.962z M5.174,4.962
			c0.452,0,0.818-0.368,0.818-0.82V1.876c0-0.449-0.366-0.818-0.818-0.818c-0.455,0-0.818,0.369-0.818,0.818v2.266
			C4.356,4.594,4.719,4.962,5.174,4.962z M12.657,3.688v0.549c0,1.009-0.822,1.83-1.83,1.83c-1.015,0-1.83-0.821-1.83-1.83V3.688
			H7.004v0.549c0,1.009-0.823,1.83-1.83,1.83c-1.015,0-1.831-0.821-1.831-1.83V3.688H1.474V15h13.052V3.688H12.657z M7.525,12.152
			c-0.144,0.098-0.324,0.132-0.544,0.134h-0.09v0.589c0,0.225-0.048,0.42-0.176,0.561c-0.117,0.132-0.287,0.201-0.469,0.201H6.236
			c-0.184,0.003-0.358-0.07-0.477-0.206c-0.126-0.142-0.177-0.335-0.177-0.556v-0.589H3.73c-0.275,0-0.507-0.063-0.674-0.212
			c-0.162-0.146-0.241-0.354-0.241-0.584c0-0.069,0.013-0.138,0.037-0.205c0.023-0.066,0.058-0.131,0.101-0.196
			c0.038-0.061,0.079-0.119,0.121-0.174c0.039-0.054,0.091-0.119,0.148-0.197L5.34,7.885c0.143-0.19,0.26-0.331,0.36-0.427
			c0.115-0.11,0.268-0.17,0.428-0.168c0.23-0.002,0.438,0.07,0.573,0.227c0.135,0.157,0.189,0.37,0.19,0.624l-0.001,2.94h0.018
			c0.219,0,0.403,0.027,0.558,0.097c0.192,0.084,0.281,0.291,0.275,0.509C7.747,11.872,7.673,12.051,7.525,12.152z M12.272,13.353
			c-0.125,0.131-0.306,0.186-0.506,0.185H8.814c-0.223,0-0.424-0.068-0.567-0.211c-0.138-0.134-0.216-0.311-0.214-0.499
			c0.001-0.135,0.046-0.277,0.122-0.446c0.077-0.17,0.163-0.309,0.266-0.418c0.355-0.369,0.678-0.688,0.967-0.952
			c0.287-0.265,0.492-0.438,0.626-0.53c0.212-0.149,0.386-0.299,0.522-0.443c0.134-0.147,0.235-0.294,0.306-0.44
			c0.067-0.146,0.099-0.285,0.099-0.415c0-0.147-0.033-0.269-0.099-0.379c-0.07-0.112-0.156-0.195-0.274-0.256
			c-0.117-0.063-0.242-0.095-0.384-0.096c-0.304,0.005-0.514,0.12-0.696,0.391C9.482,8.849,9.43,8.963,9.371,9.135
			c-0.065,0.19-0.142,0.343-0.237,0.46C9.024,9.73,8.85,9.797,8.667,9.794C8.5,9.796,8.34,9.734,8.226,9.618
			c-0.122-0.121-0.178-0.29-0.177-0.47c-0.001-0.207,0.046-0.42,0.136-0.636c0.09-0.219,0.226-0.418,0.403-0.594
			c0.181-0.18,0.407-0.321,0.675-0.428c0.274-0.108,0.59-0.161,0.944-0.161c0.422,0,0.792,0.065,1.107,0.205
			c0.203,0.095,0.386,0.223,0.54,0.389c0.154,0.163,0.275,0.352,0.36,0.564c0.086,0.213,0.129,0.438,0.129,0.668
			c0,0.356-0.09,0.688-0.268,0.981c-0.17,0.279-0.345,0.503-0.531,0.671c-0.174,0.157-0.461,0.398-0.863,0.728
			c-0.396,0.323-0.669,0.576-0.808,0.745c0,0.001-0.001,0.001-0.002,0.003h1.778c0.226,0,0.422,0.045,0.571,0.161
			c0.145,0.109,0.225,0.283,0.224,0.47C12.446,13.079,12.385,13.236,12.272,13.353z"/>
	</g>
	<g id="Termin">
		<path display="inline" d="M8.001,1.062c-3.833,0-6.939,3.107-6.939,6.941c0,3.829,3.106,6.934,6.939,6.936
			c3.832-0.002,6.936-3.106,6.937-6.936C14.938,4.169,11.833,1.062,8.001,1.062z M8.001,13.534
			c-3.057-0.006-5.529-2.478-5.536-5.531c0.007-3.059,2.479-5.531,5.536-5.537c3.056,0.006,5.528,2.479,5.534,5.537
			C13.529,11.057,11.057,13.528,8.001,13.534z"/>
		<polygon display="inline" points="6.978,3.327 6.978,7.632 4.312,9.183 5.367,11.029 9.085,8.87 9.107,8.87 9.104,3.328 		"/>
	</g>
	<g id="Suche">
		<path display="inline" d="M15.432,12.94l-3.595-3.593L11.48,8.991c1.228-2.3,0.901-5.215-1.039-7.157
			C8.064-0.54,4.211-0.54,1.833,1.837c-2.376,2.378-2.374,6.229,0.002,8.605c1.939,1.939,4.855,2.267,7.158,1.037l3.952,3.952
			c0.686,0.687,1.801,0.687,2.486,0C16.121,14.744,16.121,13.631,15.432,12.94z M3.104,9.17C1.432,7.497,1.428,4.78,3.105,3.108
			c1.674-1.68,4.388-1.677,6.064-0.005c1.676,1.677,1.674,4.391,0,6.066C7.493,10.845,4.778,10.845,3.104,9.17z"/>
	</g>
	<g id="Admin_1_">
		<path display="inline" d="M15.235,11.444L9.643,5.85c0.315-1.549-0.127-3.219-1.327-4.418C6.997,0.114,5.122-0.271,3.457,0.23
			l3.349,3.353L3.56,6.828L0.211,3.475c-0.5,1.667-0.114,3.541,1.198,4.86c1.2,1.2,2.87,1.64,4.418,1.329l5.59,5.588
			c0.987,0.986,2.634,0.934,3.692-0.124C16.162,14.076,16.216,12.423,15.235,11.444z"/>
	</g>
	<g id="Admin">
		<path display="inline" d="M14.084,1.939c2.479,2.477,2.478,6.489,0.002,8.965c-2.15,2.153-5.458,2.432-7.917,0.847H6.162v2.125
			L6.149,13.89H4.022v2.123H0.013v-4.014h0.01L0.02,11.994l3.574-3.573C2.863,6.216,3.368,3.691,5.122,1.94
			C7.598-0.537,11.61-0.537,14.084,1.939z M10.157,5.867c0.78,0.78,2.043,0.779,2.824,0.002c0.779-0.78,0.779-2.043-0.001-2.823
			c-0.78-0.779-2.041-0.779-2.822,0C9.379,3.825,9.379,5.09,10.157,5.867z"/>
	</g>
	<g id="Admin_2">
		<g display="inline">
			<g>
				<g>
					<path d="M15.53,6.483c-0.385-0.15-0.655-0.524-0.655-0.96s0.27-0.809,0.655-0.959l0.315-0.134c0,0,0,0,0-0.001l0.001,0.004
						c0.115-0.051,0.168-0.182,0.121-0.296l-0.001-0.002c0-0.001,0-0.002,0-0.002l-0.24-0.579L15.36,2.666
						c-0.011-0.027-0.039-0.038-0.058-0.058c-0.062-0.065-0.148-0.103-0.236-0.064l0,0.001h0l-0.317,0.129
						c-0.375,0.167-0.829,0.095-1.139-0.216c-0.307-0.307-0.378-0.763-0.214-1.142l0.132-0.317c0.046-0.114-0.008-0.246-0.122-0.293
						l-1.467-0.609c-0.115-0.048-0.247,0.005-0.293,0.122L11.51,0.535c-0.15,0.384-0.522,0.655-0.957,0.655
						c-0.434,0-0.807-0.271-0.956-0.653L9.463,0.217C9.415,0.104,9.283,0.05,9.168,0.097l-1.466,0.61
						c-0.115,0.047-0.17,0.178-0.123,0.294l0.13,0.318c0.167,0.376,0.095,0.832-0.213,1.142C7.188,2.769,6.735,2.838,6.357,2.675
						v0.002L6.04,2.542c-0.114-0.045-0.248,0.01-0.295,0.124L5.138,4.134C5.09,4.25,5.147,4.383,5.261,4.431l0.317,0.134
						c0.382,0.149,0.654,0.523,0.654,0.96c0,0.436-0.272,0.809-0.654,0.956L5.262,6.619C5.147,6.663,5.093,6.797,5.139,6.912
						l0.608,1.47c0.047,0.114,0.18,0.171,0.293,0.122l0.319-0.131c0.375-0.166,0.829-0.096,1.136,0.214
						c0.309,0.311,0.381,0.764,0.214,1.143h0.002l-0.131,0.317c-0.046,0.115,0.006,0.248,0.121,0.295l1.466,0.609
						c0.115,0.048,0.247-0.008,0.294-0.122l0.134-0.317c0.15-0.384,0.521-0.654,0.956-0.656c0.436,0.002,0.808,0.274,0.957,0.653
						l0.135,0.32c0.048,0.115,0.18,0.17,0.294,0.121l1.466-0.608c0.114-0.047,0.169-0.18,0.122-0.295l-0.132-0.317h0.001
						c-0.164-0.379-0.093-0.832,0.214-1.143c0.31-0.31,0.763-0.38,1.138-0.216h0.002l0.314,0.133
						c0.116,0.048,0.249-0.008,0.295-0.122l0.608-1.471c0.048-0.114-0.007-0.248-0.12-0.295L15.53,6.483z M11.298,7.324
						c-0.992,0.412-2.13-0.061-2.541-1.056C8.348,5.275,8.818,4.134,9.809,3.724c0.992-0.411,2.13,0.062,2.54,1.054
						C12.761,5.773,12.288,6.911,11.298,7.324z"/>
				</g>
			</g>
			<g>
				<g>
					<path d="M7.621,11.363H7.38V11.36c-0.287,0.01-0.562-0.16-0.678-0.441c-0.117-0.281-0.042-0.595,0.166-0.795l0.17-0.171
						c0.061-0.06,0.061-0.162,0-0.224L6.253,8.942c-0.062-0.062-0.162-0.062-0.224,0l-0.171,0.17
						C5.66,9.319,5.347,9.396,5.064,9.278c-0.28-0.118-0.449-0.392-0.442-0.68L4.62,8.358c0-0.088-0.071-0.158-0.158-0.159H3.352
						c-0.086,0-0.159,0.071-0.158,0.158L3.193,8.599C3.2,8.887,3.032,9.16,2.751,9.278C2.469,9.396,2.156,9.319,1.958,9.112h0
						l-0.17-0.171c-0.062-0.062-0.161-0.062-0.223,0L0.78,9.729c-0.061,0.061-0.061,0.16,0,0.223l0.167,0.172
						c0.209,0.2,0.284,0.514,0.168,0.795C0.998,11.2,0.723,11.37,0.437,11.36l-0.241,0.004c-0.088,0-0.159,0.071-0.159,0.159v1.113
						c0,0.087,0.071,0.158,0.159,0.158h0.241l-0.002,0.002c0.288-0.01,0.562,0.161,0.679,0.441c0.116,0.282,0.042,0.596-0.167,0.794
						v0.001l-0.17,0.172c-0.06,0.06-0.06,0.163,0,0.222l0.786,0.787c0.062,0.062,0.161,0.062,0.223,0l0.172-0.168
						c0.198-0.209,0.511-0.283,0.793-0.167c0.281,0.118,0.449,0.393,0.442,0.681l0.003,0.239H3.194
						c0.001,0.09,0.072,0.159,0.158,0.159h1.112c0.087,0,0.159-0.069,0.159-0.159H4.62l0.002-0.239
						c-0.007-0.288,0.162-0.562,0.442-0.681c0.282-0.116,0.596-0.041,0.794,0.167l0.169,0.17c0.062,0.062,0.163,0.062,0.223,0
						l0.786-0.787c0.062-0.061,0.062-0.161,0-0.221l-0.168-0.175c-0.207-0.199-0.283-0.513-0.166-0.795
						c0.116-0.28,0.391-0.451,0.678-0.441l0.241-0.005c0.086,0,0.157-0.071,0.157-0.157v-1.114
						C7.778,11.434,7.707,11.363,7.621,11.363z M3.907,13.441c-0.75,0-1.359-0.609-1.359-1.362c0-0.752,0.608-1.363,1.359-1.363
						c0.751,0,1.36,0.611,1.36,1.363C5.267,12.832,4.658,13.441,3.907,13.441z"/>
				</g>
			</g>
		</g>
	</g>
	<g id="Resourcen">
		<g display="inline">
			<g>
				<rect x="-0.001" y="8.59" width="7.406" height="7.41"/>
				<g>
					<g>
						<path d="M8.555,8.59V16H16V8.59H8.555z M14.852,13.796l-1.063,1.061l-1.51-1.504l-1.511,1.504l-1.064-1.06l1.511-1.503
							l-1.51-1.504l1.062-1.059l1.511,1.505l1.51-1.505l1.063,1.061l-1.511,1.502L14.852,13.796z"/>
					</g>
				</g>
			</g>
			<g>
				<g>
					<path d="M4.276,0.073v7.41h7.368v-7.41H4.276z M7.352,6.122L4.96,3.717l1.051-1.059L7.35,4.004l2.559-2.572l1.054,1.06
						L7.352,6.122z"/>
				</g>
			</g>
		</g>
	</g>
	<g id="Forum">
		<path display="inline" d="M11.985,3.584H2.119C0.953,3.584,0,4.538,0,5.703v5.503c0,1.166,0.953,2.119,2.119,2.119h0.988
			c0.023,0.76-0.201,1.758-1.224,2.674c2.905-0.451,4.517-2.537,4.621-2.674h5.481c1.167,0,2.119-0.953,2.119-2.119V5.703
			C14.104,4.538,13.151,3.584,11.985,3.584z M11.581,9.772h-8.93V8.528h8.93V9.772z M11.581,7.194h-8.93V5.948h8.93V7.194z
			 M13.886,1.688H4.019c-0.829,0-1.542,0.487-1.891,1.183c0.287-0.145,0.604-0.232,0.946-0.232h9.867
			c1.166,0,2.119,0.952,2.119,2.117v5.505c0,0.335-0.086,0.649-0.226,0.933c0.691-0.35,1.171-1.059,1.171-1.883V3.807
			C16.005,2.642,15.052,1.688,13.886,1.688z"/>
	</g>
	<g id="Forum_2">
		<g display="inline">
			<path d="M11.636,3.477h-9.03c-1.423,0-2.578,1.117-2.579,2.494v4.865c0.001,1.373,1.156,2.49,2.579,2.492h0.199
				c-0.098,0.396-0.33,0.832-0.844,1.285L0.363,16l2.125-0.314c2.408-0.369,3.896-1.771,4.432-2.357h4.717
				c1.425-0.002,2.578-1.119,2.579-2.492V5.971C14.214,4.594,13.061,3.477,11.636,3.477z M12.934,10.836
				c0,0.686-0.588,1.254-1.298,1.256H6.299l-0.191,0.246c-0.034,0.049-0.801,1.002-2.167,1.633c0.155-0.416,0.215-0.818,0.211-1.17
				c0-0.025,0-0.062-0.002-0.109l-0.018-0.6H2.606c-0.71-0.002-1.298-0.57-1.298-1.256V5.971c0-0.689,0.588-1.256,1.298-1.258h9.03
				c0.71,0.002,1.298,0.568,1.298,1.258V10.836z"/>
			<path d="M13.854,1.607H3.987c-0.828,0-1.542,0.488-1.891,1.184c0.287-0.145,0.604-0.232,0.946-0.232h9.866
				c1.166,0,2.119,0.951,2.119,2.117v5.504c0,0.336-0.087,0.65-0.227,0.934c0.69-0.35,1.172-1.059,1.172-1.883V3.727
				C15.973,2.562,15.019,1.607,13.854,1.607z"/>
			<rect x="2.601" y="8.631" width="8.93" height="1.244"/>
			<rect x="2.601" y="6.051" width="8.93" height="1.246"/>
		</g>
	</g>
	<g id="Gruppieren">
		<g display="inline">
			<g>
				<g>
					<g>
						<path d="M13.658,5.408h-3.342C9.18,5.409,8.463,6.048,8.153,6.926h5.392v0.002c0.004,0,0.006-0.002,0.008-0.002
							c0.27,0,0.482,0.479,0.482,1.066s-0.213,1.064-0.482,1.064H8.146c0.307,0.888,1.026,1.535,2.171,1.535h3.342
							C15.223,10.592,16,9.385,16,8C16.002,6.615,15.225,5.408,13.658,5.408z"/>
					</g>
				</g>
				<g>
					<g>
						<path d="M2.454,9.074V9.072c-0.002,0-0.004,0.002-0.006,0.002c-0.268,0-0.484-0.479-0.484-1.066S2.18,6.943,2.448,6.943h5.406
							C7.546,6.056,6.828,5.408,5.684,5.408H2.342C0.78,5.408,0,6.615,0,8c-0.002,1.385,0.777,2.592,2.342,2.592h3.342
							c1.135-0.001,1.852-0.64,2.162-1.518H2.454z"/>
					</g>
				</g>
			</g>
			<path d="M11.162,7.201H4.85C4.352,7.201,3.948,7.561,3.948,8S4.352,8.797,4.85,8.797h6.312c0.498,0,0.9-0.357,0.9-0.797
				S11.66,7.201,11.162,7.201z"/>
		</g>
	</g>
	<g id="Wiki">
		<g display="inline">
			<path d="M15.609,3.739c-0.906,1.865-2.393,2.551-3.389,2.805c0.568,1.092,0.975,2.484,1.15,4.041
				C14.545,9.792,16.939,7.624,15.609,3.739z M0.39,3.739c-1.328,3.885,1.065,6.053,2.241,6.846c0.174-1.557,0.58-2.949,1.147-4.041
				C2.784,6.29,1.297,5.604,0.39,3.739z M8.001,4.087c-2.367,0-4.286,3.66-4.286,8.174h8.57C12.285,7.747,10.367,4.087,8.001,4.087z
				"/>
		</g>
	</g>
	<g id="News">
		<path display="inline" d="M2.991,14.879l11.856-4.523l-2.976-3.356L2.991,14.879z M0,1.473V16l1.618-1.436v-4.98h5.61l4.739-4.205
			l4.029,4.539L16,9.916V1.473H0z M8.056,7.662H1.618V6.27h6.438V7.662z M14.383,4.818H1.618V3.426h12.765V4.818z"/>
	</g>
	<path id="Literatur" d="M14.49,13.121L14.479,0H4.034C2.658,0.003,1.536,0.619,1.513,1.987
		c-0.003,0.025-0.003,0.529,0,0.535v0.003c0,0.04,0.009,0.076,0.011,0.117H1.515v10.826C1.515,14.865,2.648,16,4.044,16h8.386
		l-0.038-1.689L12.383,2.966h-8.35c-0.496,0-1.68-0.048-1.68-0.979V1.894c0.051-0.885,1.184-1.052,1.68-1.052h9.593v12.279H14.49z
		 M4.525,5.765h5.506v1.247H4.525V5.765z M4.525,8.347h5.506V9.59H4.525V8.347z"/>
	<g id="Literatur_2">
		<path display="inline" d="M14.49,13.12L14.479-0.001H4.034C2.658,0.002,1.536,0.618,1.513,1.986c-0.003,0.025-0.003,0.529,0,0.535
			v0.003c0,0.04,0.009,0.076,0.011,0.117H1.515v10.826c0,1.396,1.133,2.531,2.529,2.531h8.386l-0.038-1.689L12.383,2.965h-8.35
			c-0.496,0-1.68-0.048-1.68-0.979V1.893c0.051-0.885,1.184-1.052,1.68-1.052h9.593V13.12H14.49z M4.011,3.966h7.35l0.004,10.992
			L4.851,15c-1.396,0-2.529-1.135-2.529-2.531c0,0-0.005-9.456-0.002-9.481h0.011C2.331,3.918,3.515,3.966,4.011,3.966z"/>
		<rect x="4.525" y="5.764" display="inline" width="5.506" height="1.247"/>
		<rect x="4.525" y="8.346" display="inline" width="5.506" height="1.243"/>
	</g>
	<g id="Umfrage">
		<path display="inline" d="M10.692,3.736H7.596v8.984h3.096V3.736z M6.403,8.562H3.305v4.158h3.098V8.562z M11.887,6.453v6.268
			h3.096V6.453H11.887z M2.115,5.73H1.017V15l0.799-0.002V15h13.167v-1.1H2.114L2.115,5.73z"/>
	</g>
	<g id="Umfrage_Beendet">
		
			<rect x="-1.198" y="7.294" transform="matrix(0.7074 -0.7068 0.7068 0.7074 -3.3129 7.9954)" display="inline" width="18.398" height="1.409"/>
		<polygon display="inline" points="7.59,3.71 7.59,5.831 9.714,3.71 		"/>
		<polygon display="inline" points="3.289,8.548 3.289,10.126 4.871,8.548 		"/>
		<polygon display="inline" points="6.394,12.106 5.784,12.716 6.394,12.716 		"/>
		<polygon display="inline" points="10.694,12.716 10.694,7.81 7.59,10.911 7.59,12.716 		"/>
		<polygon display="inline" points="3.499,15.001 14.995,15.001 14.995,13.899 4.6,13.899 		"/>
		<polygon display="inline" points="11.892,6.612 11.892,12.716 14.995,12.716 14.995,6.435 12.07,6.435 		"/>
		<polygon display="inline" points="2.095,11.317 2.096,5.708 0.995,5.708 0.995,12.849 0.997,12.415 		"/>
		<polygon display="inline" points="0.995,15.001 1.796,14.999 1.796,15.001 1.991,15.001 0.995,14.005 		"/>
	</g>
	<g id="Evaluation_x2F_Test">
		<g display="inline">
			<polygon points="9.833,3.709 7.666,3.709 8.75,4.791 			"/>
			<polygon points="8.75,6.277 7.557,5.086 7.557,6.937 8.751,8.131 10.662,6.218 10.662,4.365 			"/>
			<polygon points="10.662,7.704 9.494,8.873 8.751,9.615 8.008,8.873 7.557,8.423 7.557,12.721 10.662,12.721 			"/>
			<polygon points="11.861,6.506 11.861,12.721 14.966,12.721 14.966,6.435 11.932,6.435 			"/>
			<rect x="3.253" y="8.549" width="3.106" height="4.172"/>
			<polygon points="2.06,5.708 0.958,5.708 0.958,15.006 1.76,15.004 1.76,15.006 14.966,15.006 14.966,13.903 2.059,13.903 			"/>
		</g>
		<polygon display="inline" points="8.75,6.277 6.09,3.619 5.165,4.545 8.751,8.131 14.085,2.794 13.16,1.868 		"/>
	</g>
	<g id="Plugin">
		<path display="inline" d="M11.348,7.312c0.788,0.008,1.464,0.478,1.779,1.146V4.747H9.053c0.633-0.329,1.073-0.974,1.081-1.737
			c0.011-1.1-0.87-2-1.97-2.011c-1.1-0.011-2.001,0.872-2.012,1.971C6.143,3.745,6.585,4.411,7.229,4.747H2.873v10.254h2.951
			c-0.644-0.336-1.085-1.013-1.077-1.788c0.011-1.101,0.912-1.982,2.011-1.972c1.1,0.011,1.982,0.912,1.971,2.013
			c-0.008,0.763-0.449,1.419-1.083,1.747h5.481v-4.845c-0.323,0.679-1.02,1.146-1.82,1.137c-1.101-0.01-1.983-0.91-1.972-2.01
			C9.346,8.183,10.248,7.301,11.348,7.312z"/>
	</g>
	<g id="Lernmodule">
		<g display="inline">
			<path d="M7.271,8.729H1.03V8.73c0,3.443,2.795,6.239,6.238,6.239h0.002V8.729z"/>
			<path d="M8.83,0.928c-3.442,0-6.237,2.793-6.238,6.236H4.45c0.001-2.417,1.962-4.379,4.38-4.379c2.42,0,4.382,1.963,4.382,4.38
				c0,2.42-1.96,4.381-4.378,4.383v1.857c3.443-0.002,6.235-2.797,6.235-6.24C15.068,3.723,12.276,0.928,8.83,0.928z M11.174,7.165
				c0-1.292-1.051-2.342-2.344-2.342S6.489,5.872,6.488,7.164h2.346v2.345C10.125,9.508,11.174,8.458,11.174,7.165z"/>
		</g>
	</g>
	<g id="Person">
		<g display="inline">
			<path d="M2.271,0.963v13.971H13.73V0.963H2.271z M8.016,2.596c1.475,0,2.665,1.194,2.665,2.665c0,1.477-1.19,2.666-2.665,2.666
				c-1.471,0-2.667-1.189-2.667-2.666C5.349,3.79,6.545,2.596,8.016,2.596z M12.549,14.093H3.484v-2.996
				c0-1.268,1.032-2.306,2.301-2.306h4.457c1.268,0,2.308,1.038,2.308,2.306V14.093z"/>
		</g>
	</g>
	<g id="Personen">
		<path display="inline" d="M3.359,0v1.056h10.329v12.842h1.072V0H3.359z M1.24,16h11.401V2.103H1.24V16z M6.956,3.726
			c1.467,0,2.651,1.188,2.651,2.651c0,1.47-1.185,2.653-2.651,2.653c-1.464,0-2.653-1.184-2.653-2.653
			C4.302,4.914,5.492,3.726,6.956,3.726z M2.447,12.184c0-1.263,1.027-2.295,2.288-2.295h4.435c1.262,0,2.296,1.032,2.296,2.295
			v2.98H2.447V12.184z"/>
	</g>
	<g id="Chat">
		<g display="inline">
			<g>
				<path d="M12.933,2.584H3.067c-1.166,0-2.119,0.953-2.119,2.119v5.504c0,1.164,0.953,2.119,2.119,2.119h0.987
					c0.023,0.76-0.201,1.758-1.224,2.674c2.905-0.451,4.518-2.537,4.621-2.674h5.481c1.166,0,2.119-0.955,2.119-2.119V4.703
					C15.052,3.537,14.099,2.584,12.933,2.584z M4.495,8.746c-0.711,0-1.288-0.578-1.288-1.289S3.784,6.17,4.495,6.17
					s1.288,0.576,1.288,1.287S5.206,8.746,4.495,8.746z M8,8.746c-0.711,0-1.289-0.578-1.289-1.289S7.29,6.17,8,6.17
					s1.287,0.576,1.287,1.287S8.711,8.746,8,8.746z M11.505,8.746c-0.711,0-1.288-0.578-1.288-1.289s0.577-1.287,1.288-1.287
					s1.288,0.576,1.288,1.287S12.216,8.746,11.505,8.746z"/>
			</g>
		</g>
	</g>
	<g id="Chat_2">
		<path display="inline" d="M12.421,2.295H3.568c-1.395,0-2.527,1.133-2.529,2.528V9.76c0.002,1.395,1.134,2.527,2.529,2.529h0.196
			c-0.097,0.402-0.325,0.845-0.828,1.304L1.368,15l2.084-0.319c2.36-0.374,3.82-1.796,4.344-2.392h4.625
			c1.397-0.002,2.527-1.135,2.529-2.529V4.823C14.948,3.428,13.818,2.295,12.421,2.295z M13.693,9.76
			c0,0.696-0.577,1.272-1.272,1.274H7.188L7,11.284c-0.033,0.05-0.784,1.016-2.124,1.657c0.153-0.422,0.211-0.832,0.207-1.188
			c0-0.023,0-0.062-0.001-0.108l-0.018-0.61H3.568c-0.695-0.002-1.272-0.578-1.272-1.274V4.823c0-0.698,0.577-1.271,1.272-1.273
			h8.853c0.696,0.002,1.272,0.575,1.272,1.273V9.76z M4.849,6.242c-0.638,0-1.155,0.518-1.155,1.156
			c0,0.637,0.517,1.155,1.155,1.155c0.638,0,1.156-0.519,1.156-1.155C6.005,6.76,5.487,6.242,4.849,6.242z M7.995,6.242
			c-0.638,0-1.157,0.518-1.157,1.156c0,0.637,0.52,1.155,1.157,1.155c0.637,0,1.155-0.519,1.155-1.155
			C9.15,6.76,8.632,6.242,7.995,6.242z M11.14,6.242c-0.637,0-1.156,0.518-1.156,1.156c0,0.637,0.519,1.155,1.156,1.155
			c0.639,0,1.155-0.519,1.155-1.155C12.295,6.76,11.778,6.242,11.14,6.242z"/>
	</g>
	<g id="info">
		<g display="inline">
			<g>
				<g>
					<path d="M1.811,0v16h12.378V0H1.811z M8.03,1.245c0.859,0,1.552,0.695,1.552,1.55s-0.692,1.55-1.552,1.55
						c-0.854,0-1.549-0.695-1.549-1.55S7.175,1.245,8.03,1.245z M11.085,14.793H4.915V13.26h1.526V7.082H4.919V5.931h4.64v7.329
						h1.526V14.793z"/>
				</g>
			</g>
		</g>
	</g>
	<g id="info_2">
		<path display="inline" d="M1.811,0v16h12.378V0H1.811z M13.151,14.961H2.793V1.011h10.357V14.961z"/>
		<path display="inline" d="M8.067,4.603c0.761,0,1.374-0.616,1.374-1.373c0-0.756-0.613-1.372-1.374-1.372
			c-0.757,0-1.372,0.616-1.372,1.372C6.695,3.986,7.31,4.603,8.067,4.603z M9.421,12.498v-6.49H5.312v1.02H6.66v5.471H5.307v1.359
			h5.467v-1.359H9.421z"/>
	</g>
	<g id="_ordner_leer">
		<polygon display="inline" points="7.394,4.755 6.578,2.832 2.798,2.832 1.982,4.755 0.861,4.755 0.861,14 15.139,14 15.139,4.755 
					"/>
	</g>
	<g id="_ordner_leer_Kopie">
		<path display="inline" d="M7.394,4.755L6.578,2.832H2.798L1.982,4.755H0.861V14h14.278V4.755H7.394z M14.042,12.929H1.917v-7
			h12.125V12.929z"/>
	</g>
	<g id="Ordner_voll">
		<g display="inline">
			<polygon points="8.182,3.179 7.367,1.256 3.587,1.256 2.771,3.179 1.649,3.179 1.65,4.128 14.977,4.119 14.995,13.402 
				15.928,12.424 15.928,3.179 			"/>
			<rect x="0.072" y="4.756" width="14.279" height="9.244"/>
		</g>
	</g>
	<g id="Ordner_voll_Kopie">
		<g display="inline">
			<polygon points="8.182,3.179 7.367,1.256 3.587,1.256 2.771,3.179 1.649,3.179 1.65,4.128 14.977,4.119 14.995,13.402 
				15.928,12.424 15.928,3.179 			"/>
			<path d="M0.072,4.756V14h14.279V4.756H0.072z M13.25,12.929H1.041v-7H13.25V12.929z"/>
		</g>
	</g>
	<g id="Lock">
		<g display="inline">
			<path d="M5.687,5.661c0-1.279,1.036-2.312,2.313-2.312c1.276,0,2.312,1.033,2.312,2.312v1.149h1.414V5.661
				c0-2.059-1.668-3.728-3.726-3.728c-2.059,0-3.728,1.669-3.728,3.728v1.149h1.414V5.661z M3.062,7.792v7.207h9.876V7.792H3.062z
				 M8.87,12.594c0,0.479-0.388,0.867-0.867,0.867c-0.481,0-0.872-0.389-0.872-0.867v-2.396C7.13,9.721,7.521,9.331,8,9.331
				c0.482,0,0.87,0.39,0.87,0.867V12.594z"/>
		</g>
	</g>
	<g id="Unlock">
		<g display="inline">
			<path d="M9.341,5.662c0-1.279,1.036-2.313,2.314-2.313c1.276,0,2.312,1.034,2.312,2.313v1.148h1.413V5.662
				c0-2.06-1.668-3.729-3.725-3.729c-2.06,0-3.728,1.669-3.728,3.729v1.148h1.413V5.662z M0.62,7.792v7.207h9.875V7.792H0.62z
				 M6.426,12.594c0,0.479-0.388,0.867-0.867,0.867c-0.481,0-0.871-0.389-0.871-0.867v-2.396c0-0.478,0.39-0.866,0.868-0.866
				c0.482,0,0.87,0.389,0.87,0.866V12.594z"/>
		</g>
	</g>
	<g id="Krone">
		<g display="inline">
			<polygon points="12.957,13.999 3.043,13.999 0,3.028 2,5.812 3.999,8.597 5.999,5.812 8,3.028 10.001,5.812 11.999,8.597 
				13.999,5.812 16,3.028 			"/>
		</g>
	</g>
	<g id="Gästebuch">
		<path display="inline" d="M11.031,9.168H9.307v0.744h1.724V9.168z M7.068,6.992l0.973-2.429L5.5,3.544L4.12,6.992H0.892v9.007
			h14.216V6.992H7.068z M7.505,15.005H1.882V7.982h1.84l-0.966,2.413l2.54,1.019l1.375-3.432h0.834V15.005z M14.117,15.005h-5.62
			V7.982h5.62V15.005z M12.858,10.506H9.307v0.745h3.551V10.506z M8.731,2.843H8.73c0.275-0.7-0.065-1.493-0.764-1.771
			c-0.7-0.281-1.492,0.058-1.778,0.755L5.78,2.843l2.542,1.021L8.731,2.843z M3.058,13.316l1.152-0.983l-1.295-0.517L3.058,13.316z"
			/>
	</g>
	<g id="Kommentar">
		<path display="inline" d="M11.805,2.414c0.356-0.906-0.084-1.935-0.99-2.293C9.91-0.243,8.885,0.195,8.515,1.097l0,0L7.986,2.414
			l3.291,1.321l0.531-1.321H11.805z M4.463,15.971l1.491-1.273l-1.676-0.668L4.463,15.971z M4.072,12.189l3.289,1.319l3.554-8.869
			l-3.29-1.318L4.072,12.189z"/>
	</g>
	<g id="Protokoll_x2F_Log">
		<g display="inline">
			<g>
				<path d="M1.81-0.001v16H14.19v-16H1.81z M4.365,9.815c-0.462,0-0.838-0.376-0.838-0.84c0-0.463,0.376-0.838,0.838-0.838
					c0.464,0,0.842,0.375,0.842,0.838C5.207,9.439,4.829,9.815,4.365,9.815z M4.365,7.157c-0.462,0-0.838-0.376-0.838-0.844
					c0-0.461,0.376-0.837,0.838-0.837c0.464,0,0.842,0.376,0.842,0.837C5.207,6.781,4.829,7.157,4.365,7.157z M4.365,4.495
					c-0.462,0-0.838-0.376-0.838-0.838c0-0.464,0.376-0.84,0.838-0.84c0.464,0,0.842,0.376,0.842,0.84
					C5.207,4.119,4.829,4.495,4.365,4.495z M12.475,9.612h-6.08V8.338h6.08V9.612z M12.475,6.954h-6.08V5.678h6.08V6.954z
					 M12.475,4.294h-6.08V3.019h6.08V4.294z"/>
			</g>
		</g>
	</g>
	<g id="Betreten">
		<path display="inline" d="M3.176,8.302L0,11.479l1.651,1.651l4.83-4.833l-4.83-4.825L0,5.121L3.176,8.302z M16,0.605H7.144v14.096
			h1.067V1.671l4.057,0.002l-2.67,0.764v13.562l6.399-1.831V1.674H16V0.605z"/>
	</g>
	<g id="Betreten_2">
		<polygon display="inline" points="0,5.121 3.176,8.302 0,11.479 1.651,13.131 6.48,8.298 1.651,3.473 		"/>
		<path display="inline" d="M7.144,0.605v14.096h1.067V1.671l4.057,0.002l-2.67,0.764v13.562l6.399-1.831V1.674H16V0.605H7.144z
			 M15,13.47l-4.4,1.282V3.188L15,1.906V13.47z"/>
	</g>
	<g id="Verlassen">
		<path display="inline" d="M11.17,3.472L9.519,5.124l3.176,3.178l-3.176,3.18l1.651,1.649L16,8.305L11.17,3.472z M0,1.671L0,1.671
			l0.001,12.497L6.4,15.999V2.436L3.729,1.671h4.061v13.03h1.066V0.604H0V1.671z"/>
	</g>
	<g id="Verlassen_2">
		<polygon display="inline" points="11.17,3.472 9.519,5.124 12.695,8.302 9.519,11.481 11.17,13.131 16,8.305 		"/>
		<path display="inline" d="M0,1.671L0,1.671l0.001,12.497L6.4,15.999V2.436L3.729,1.671h4.061v13.03h1.066V0.604H0V1.671z M1,1.906
			l4.4,1.282v11.563L1,13.47V1.906z"/>
	</g>
	<g id="Ablehnen">
		<g display="inline">
			<polygon points="14.778,11.974 10.802,8.001 14.778,4.024 11.979,1.222 8.001,5.198 4.024,1.222 1.226,4.022 5.202,7.997 
				1.222,11.976 4.026,14.778 8.005,10.8 11.979,14.776 			"/>
		</g>
	</g>
	<g id="Bestätigen">
		<polygon display="inline" points="16,4.592 13.193,1.783 6.374,8.603 2.803,5.035 0,7.841 6.377,14.217 		"/>
	</g>
	<g id="Checkbix_leer">
		<path display="inline" d="M0,0v16h16V0H0z M13.788,13.789H2.204L2.209,2.207h11.579V13.789z"/>
	</g>
	<g id="Checkbox_voll">
		<path display="inline" d="M0,0v16h16V0H0z M13.793,13.789H2.207L2.212,2.207h11.581V13.789z M13.055,5.848L11.28,4.073
			L6.972,8.379L4.715,6.127L2.946,7.899l4.027,4.026L13.055,5.848z"/>
	</g>
	<g id="Unsichtbar">
		<g display="inline">
			<g>
				<g>
					<path d="M8,3.181c-3.471,0-6.48,1.953-8,4.82c1.52,2.865,4.529,4.818,8,4.818c3.469,0,6.479-1.953,8-4.818
						C14.479,5.134,11.469,3.181,8,3.181z M7.998,12.228c-2.334,0-4.229-1.893-4.229-4.227c0-2.336,1.895-4.229,4.229-4.229
						c2.336,0,4.23,1.893,4.23,4.229C12.229,10.335,10.334,12.228,7.998,12.228z"/>
				</g>
			</g>
		</g>
	</g>
	<g id="Sichtbar">
		<g display="inline">
			<g>
				<g>
					<g>
						<path d="M8,3.181c-3.471,0-6.48,1.953-8,4.82c1.52,2.865,4.529,4.818,8,4.818c3.469,0,6.479-1.953,8-4.818
							C14.479,5.134,11.469,3.181,8,3.181z M7.998,12.228c-2.334,0-4.229-1.893-4.229-4.227c0-2.336,1.895-4.229,4.229-4.229
							c2.336,0,4.23,1.893,4.23,4.229C12.229,10.335,10.334,12.228,7.998,12.228z"/>
					</g>
				</g>
			</g>
			<circle cx="8.011" cy="8.096" r="2.165"/>
		</g>
	</g>
	<path d="M10.84,6.962V3.595H0v8.811h10.84V9.036L16,12.405V3.595L10.84,6.962z M9,8H2.062V6.031H9V8z"/>
	<g id="Kamera">
		<g display="inline">
			<path d="M10.968,6.944V3.517H0v8.967h10.968V9.056L16,12.483V3.517L10.968,6.944z M9.968,11.515H1.031V4.39h8.938V11.515z"/>
			<rect x="2.062" y="6.031" width="6.938" height="1.969"/>
		</g>
	</g>
	<g id="Aktualisierung">
		<path display="inline" d="M8.41,6.155l6.188,0.002l-0.002-6.186l-2.114,0L12.48,2.667c-2.932-2.263-7.126-2.112-9.79,0.55
			c-2.895,2.896-2.832,7.604,0.086,10.53c2.929,2.918,7.635,2.981,10.533,0.09c1.425-1.426,2.141-3.311,2.138-5.191l-2.094,0.002
			c0,1.355-0.507,2.689-1.525,3.709c-2.058,2.05-5.443,2.036-7.572-0.089C2.131,10.14,2.119,6.753,4.169,4.696
			c1.775-1.771,4.54-1.994,6.635-0.654L8.41,4.043V6.155z"/>
	</g>
	<g id="Dokument">
		<g display="inline">
			<g>
				<path d="M10.057,14.306l2.542-2.34h-2.542V14.306z M2.591,1.011v13.979h6.012v-4.471h4.806V1.011H2.591z"/>
			</g>
		</g>
	</g>
	<g id="Dokumentenstapel">
		<path display="inline" d="M3.032-0.012v1.056h10.329v9.227h1.072V-0.012H3.032z M8.98,15.293l2.524-2.325H8.98V15.293z
			 M1.566,15.97h5.971V11.53h4.773V2.088H1.566V15.97z"/>
	</g>
	<g id="Dokument_2">
		<g display="inline">
			<polygon points="10.055,14.302 12.595,11.964 10.055,11.964 			"/>
			<path d="M2.595,1.016v13.969h6.008v-4.468h4.802V1.016H2.595z M12.034,9.043h-4.79v4.601H3.917V2.318h8.116V9.043z"/>
		</g>
	</g>
	<g id="Dokument_Stapel_2">
		<polygon display="inline" points="3.032,-0.012 3.032,1.044 13.361,1.044 13.361,10.271 14.434,10.271 14.434,-0.012 		"/>
		<polygon display="inline" points="8.98,15.293 11.505,12.968 8.98,12.968 		"/>
		<path display="inline" d="M1.566,15.97h5.971V11.53h4.773V2.088H1.566V15.97z M2.94,3.326h8.116v6.725h-4.79v4.601H2.94V3.326z"/>
	</g>
	<g id="Download">
		<g display="inline">
			<polygon points="2.764,2.068 4.554,0.277 8.001,3.724 11.448,0.277 13.237,2.068 7.998,7.307 			"/>
			<path d="M0,8v6.929h16V8H0z M14.413,13.495H1.588v-4.06h12.825V13.495z M12.026,11.978c0.519,0,0.939-0.416,0.939-0.93
				c0-0.515-0.42-0.931-0.939-0.931c-0.521,0-0.941,0.416-0.941,0.931C11.085,11.562,11.505,11.978,12.026,11.978z"/>
		</g>
	</g>
	<g id="Download_2">
		<g display="inline">
			<polygon points="2.764,2.068 4.554,0.277 8.001,3.724 11.448,0.277 13.237,2.068 7.998,7.307 			"/>
			<path d="M1.041,8.334v6.636h13.958V8.334H1.041z M12.198,12.248c-0.599,0-1.081-0.484-1.081-1.082s0.482-1.08,1.081-1.08
				c0.596,0,1.081,0.482,1.081,1.08S12.794,12.248,12.198,12.248z"/>
		</g>
	</g>
	<g id="Upload">
		<g display="inline">
			<polygon points="13.237,5.237 11.446,7.028 7.999,3.583 4.551,7.028 2.762,5.237 8.002,0 			"/>
			<path d="M0,8v6.929h16V8H0z M14.413,13.495H1.588v-4.06h12.825V13.495z M12.026,11.978c0.519,0,0.939-0.416,0.939-0.93
				c0-0.515-0.42-0.931-0.939-0.931c-0.521,0-0.941,0.416-0.941,0.931C11.085,11.562,11.505,11.978,12.026,11.978z"/>
		</g>
	</g>
	<g id="Upload_Kopie">
		<g display="inline">
			<polygon points="13.237,5.237 11.446,7.028 7.999,3.583 4.551,7.028 2.762,5.237 8.002,0 			"/>
			<path d="M1.041,8.334v6.636h13.958V8.334H1.041z M12.198,12.248c-0.599,0-1.081-0.484-1.081-1.082s0.482-1.08,1.081-1.08
				c0.596,0,1.081,0.482,1.081,1.08S12.794,12.248,12.198,12.248z"/>
		</g>
	</g>
	<g id="Trash">
		<path display="inline" d="M9.759,2.438V1.03H6.24v1.408H2.717v1.917h10.565V2.438H9.759z M3.661,14.97h8.645V5.388H3.661V14.97z
			 M9.824,6.896h1.016v6.567H9.824V6.896z M7.474,6.896h1.017v6.567H7.474V6.896z M5.125,6.896h1.016v6.567H5.125V6.896z"/>
	</g>
	<g id="Editieren">
		<path display="inline" d="M5.971,12.849l1.54-0.579l-1.133-1.008L5.971,12.849z M10.722,5.272V2.403H0V15.94h10.723V9.75
			l3.569-4.011L12.07,3.757L10.722,5.272z M9.618,6.514L6.74,9.748l2.221,1.983l0.657-0.739v3.843H1.1V3.505h8.518V6.514z
			 M15.501,2.141c-0.611-0.547-1.546-0.493-2.096,0.113l-0.792,0.889l2.222,1.985l0.796-0.893l-0.002-0.001
			C16.168,3.621,16.112,2.684,15.501,2.141z M6.456,7.633H2.533v1.103h3.923V7.633z M4.863,5.291h-2.33v1.102h2.33V5.291z"/>
	</g>
	<g id="Editieren_klein">
		<path display="inline" d="M6.231,12.232l1.343-0.505L6.586,10.85L6.231,12.232z M10.374,5.626V3.124h-9.35v11.805h9.35V9.53
			l3.113-3.497l-1.938-1.729L10.374,5.626z M9.412,6.709l-2.51,2.819l1.937,1.73l0.573-0.645v3.351H1.983V4.086h7.428V6.709z
			 M14.542,2.895c-0.533-0.477-1.348-0.43-1.828,0.1l-0.69,0.774L13.961,5.5l0.694-0.778l-0.002-0.001
			C15.123,4.186,15.074,3.369,14.542,2.895z M6.654,7.685H3.233v0.961h3.421V7.685z M5.265,5.642H3.233v0.962h2.032V5.642z"/>
	</g>
	<g id="Anhang">
		<path display="inline" d="M13.078,2.394c-1.786-1.782-4.658-1.766-6.444,0.01l-5.05,5.052l0.904,0.902l5.051-5.049
			c1.288-1.29,3.353-1.298,4.639-0.012c1.281,1.284,1.283,3.365,0,4.65l-5.051,5.051c-0.881,0.881-2.304,0.889-3.186,0.008
			c-0.878-0.882-0.878-2.312,0-3.194l4.422-4.423L8.364,5.39c0.487-0.483,1.253-0.484,1.732-0.007
			c0.478,0.479,0.476,1.255-0.002,1.734L5.67,11.542l0.901,0.9l4.423-4.423c0.976-0.977,0.979-2.562,0.002-3.54
			c-0.978-0.971-2.543-0.961-3.521-0.001L7.474,4.477L3.039,8.909c-1.38,1.38-1.377,3.62,0,4.999
			c1.382,1.376,3.612,1.365,4.99-0.009l5.05-5.051C14.865,7.063,14.859,4.176,13.078,2.394z"/>
	</g>
	<g id="RSS">
		<path display="inline" d="M1.021,1.021v2.617c3.137,0,5.964,1.268,8.021,3.32c2.054,2.059,3.32,4.885,3.321,8.021h2.617
			C14.978,7.271,8.73,1.022,1.021,1.021z M1.021,5.729v2.613c3.664,0.008,6.628,2.973,6.635,6.637h2.616
			C10.271,9.87,6.13,5.729,1.021,5.729z M2.9,11.222c-1.039,0-1.879,0.84-1.879,1.877c0,1.039,0.841,1.881,1.879,1.881
			c1.038,0,1.878-0.842,1.878-1.881C4.779,12.062,3.938,11.222,2.9,11.222z"/>
	</g>
	<g id="Visitenkarten">
		<g display="inline">
			<g>
				<path d="M1.034,2.913v10.174h13.932V2.913H1.034z M5.113,4.358c0.986,0,1.781,0.799,1.781,1.783
					c0,0.986-0.795,1.781-1.781,1.781c-0.983,0-1.781-0.795-1.781-1.781C3.332,5.157,4.13,4.358,5.113,4.358z M8.143,12.044H2.084
					v-2.002c0-0.848,0.69-1.541,1.538-1.541h2.979c0.848,0,1.542,0.693,1.542,1.541V12.044z M13.368,7.905H9.075V6.847h4.293V7.905z
					 M13.368,5.708H9.075V4.644h4.293V5.708z"/>
			</g>
		</g>
	</g>
	<g id="Link">
		<g display="inline">
			<g>
				<path d="M8,1.011c-3.859,0-6.989,3.13-6.989,6.991c0,3.857,3.129,6.986,6.989,6.986s6.989-3.129,6.989-6.986
					C14.989,4.141,11.859,1.011,8,1.011z M10.732,11.246L9.047,12.93L4.116,7.997l4.93-4.928l1.686,1.686L7.486,8L10.732,11.246z"/>
			</g>
		</g>
	</g>
	<g id="Link_2">
		<g display="inline">
			<g>
				<path d="M1.011,8.002c0,3.857,3.129,6.986,6.989,6.986s6.989-3.129,6.989-6.986c0-3.861-3.129-6.991-6.989-6.991
					S1.011,4.141,1.011,8.002z M8.514,8L5.268,4.755l1.686-1.686l4.93,4.928L6.953,12.93l-1.685-1.684L8.514,8z"/>
			</g>
		</g>
	</g>
	<g id="Link_extern">
		<g display="inline">
			<g>
				<path d="M12.99,8.003c0,2.754-2.234,4.989-4.989,4.99c-2.758-0.001-4.992-2.236-4.992-4.99C3.007,5.246,5.241,3.01,7.998,3.01
					L7.997,0.893C4.074,0.895,0.892,4.079,0.892,8.002c0,3.921,3.183,7.105,7.107,7.105c3.922,0.001,7.108-3.184,7.108-7.104H12.99z
					"/>
			</g>
		</g>
		<polygon display="inline" points="8.941,7.062 8.942,10.978 10.977,10.978 10.975,5.022 5.024,5.024 5.023,7.059 		"/>
	</g>
	<g id="Link_intern">
		<g display="inline">
			<g>
				<g>
					<g>
						<path d="M1.001,8.003c0-3.868,3.134-7.002,7-7.002l0,0V1.71v0.707c-3.083,0.006-5.578,2.5-5.584,5.586l0,0
							c0.007,3.08,2.501,5.574,5.584,5.58l0,0c3.083-0.006,5.576-2.5,5.583-5.58l0,0c-0.006-3.086-2.5-5.58-5.583-5.586l0,0V1.71
							V1.001c3.865,0,6.998,3.134,6.998,7.002l0,0c-0.001,3.863-3.133,6.994-6.998,6.996l0,0C4.135,14.997,1.001,11.866,1.001,8.003
							L1.001,8.003z"/>
					</g>
				</g>
			</g>
			<polygon points="8.463,8.001 5.542,10.923 7.059,12.438 11.497,7.997 7.06,3.563 5.542,5.08 			"/>
		</g>
	</g>
	<path id="Smiley" d="M8,1.051c-3.838,0-6.949,3.111-6.949,6.95c0,3.837,3.11,6.948,6.949,6.948
		c3.837,0,6.949-3.111,6.949-6.948C14.949,4.162,11.837,1.051,8,1.051z M9.973,4.507c0.731,0,1.326,0.756,1.326,1.682
		c0,0.927-0.595,1.683-1.326,1.683c-0.73,0-1.325-0.756-1.325-1.683C8.647,5.263,9.242,4.507,9.973,4.507z M6.306,4.465
		c0.731,0,1.326,0.755,1.326,1.681c0,0.928-0.595,1.683-1.326,1.683c-0.73,0-1.325-0.755-1.325-1.683
		C4.98,5.22,5.575,4.465,6.306,4.465z M8.158,13.546c-4.853,0-5.388-5.018-5.388-5.018s1.111,3.248,5.347,3.248
		c4.154,0,5.182-3.085,5.182-3.085S12.559,13.546,8.158,13.546z"/>
	<g id="Hinzufügen">
		<g display="inline">
			<polygon points="9.819,14.978 9.815,9.818 14.978,9.818 14.98,6.183 9.817,6.182 9.817,1.021 6.184,1.022 6.185,6.182 
				1.02,6.182 1.021,9.82 6.185,9.82 6.184,14.979 			"/>
		</g>
	</g>
	<g id="entfernen">
		<g display="inline">
			<rect x="1.005" y="6.178" width="13.989" height="3.643"/>
		</g>
	</g>
	<g id="STERN">
		<polygon display="inline" points="10.707,9.589 15.087,6.409 9.672,6.409 8.001,1.26 6.328,6.409 0.913,6.409 5.293,9.589 
			3.623,14.74 8.001,11.557 12.377,14.74 		"/>
	</g>
	<g id="Instellieren">
		<g display="inline">
			<g>
				<path d="M12.126,5.803L9.186,8.742c0.373,0.336,0.612,0.818,0.612,1.359c0,1.015-0.822,1.838-1.837,1.838
					s-1.837-0.823-1.837-1.838c0-0.561,0.256-1.056,0.652-1.393L3.834,5.765C2.688,6.857,1.97,8.394,1.97,10.102
					c0,3.309,2.682,5.991,5.991,5.991s5.991-2.683,5.991-5.991C13.951,8.413,13.25,6.891,12.126,5.803z"/>
			</g>
			<path d="M4.004,0L1.929,2.076l6.068,6.073l6.075-6.073L11.998,0L8.001,3.995L4.004,0z"/>
		</g>
	</g>
	<g id="Drucken">
		<path display="inline" d="M14.479,9.852V8.649h-2.566V1.632H6.599L3.896,4.124v4.525H1.569v1.202H0.966v4.518h0.604h12.91h0.555
			V9.852H14.479z M6.645,2.73v1.403H5.121L6.645,2.73z M4.635,5h2.88V2.321h3.604v8.377H4.635V5z M12.872,11.546
			c-0.393,0-0.711-0.319-0.711-0.711c0-0.394,0.318-0.711,0.711-0.711c0.393,0,0.711,0.317,0.711,0.711
			C13.583,11.227,13.264,11.546,12.872,11.546z"/>
		<rect x="5.624" y="5.738" display="inline" width="4.57" height="0.866"/>
		<rect x="5.624" y="7.363" display="inline" width="4.57" height="0.866"/>
	</g>
	<g id="Rechte_x2F_Rollen">
		<g display="inline">
			<g>
				<path d="M2.138,12.962c0.624,0,1.128-0.506,1.128-1.13c0-0.622-0.504-1.128-1.128-1.128c-0.623,0-1.13,0.506-1.13,1.128
					C1.008,12.456,1.515,12.962,2.138,12.962z M3.187,13.498H1.085C0.486,13.498,0,13.988,0,14.586V16h4.276v-1.414
					C4.276,13.988,3.786,13.498,3.187,13.498z"/>
			</g>
			<g>
				<path d="M13.862,12.962c0.626,0,1.13-0.506,1.13-1.13c0-0.622-0.504-1.128-1.13-1.128c-0.623,0-1.128,0.506-1.128,1.128
					C12.734,12.456,13.239,12.962,13.862,12.962z M14.911,13.498H12.81c-0.599,0-1.086,0.49-1.086,1.088V16H16v-1.414
					C16,13.988,15.509,13.498,14.911,13.498z"/>
			</g>
			<g>
				<path d="M8.018,2.257c0.624,0,1.128-0.505,1.128-1.129S8.642,0,8.018,0s-1.13,0.504-1.13,1.128S7.394,2.257,8.018,2.257z
					 M9.067,2.794H6.965c-0.599,0-1.085,0.489-1.085,1.088v1.413h4.276V3.882C10.156,3.283,9.666,2.794,9.067,2.794z"/>
			</g>
			<polygon points="13.417,7.456 13.417,7.459 8.285,7.459 8.285,6.072 7.745,6.072 7.745,7.459 2.575,7.459 2.575,7.456 
				2.033,7.456 2.033,9.459 2.575,9.459 2.575,8.001 13.417,8.001 13.417,9.459 13.958,9.459 13.958,7.456 			"/>
		</g>
	</g>
	<g id="Rechte_x2F_Rollen_2">
		<g display="inline">
			<g>
				<path d="M6.551,6.983c1.627,0,2.94-1.314,2.94-2.939s-1.313-2.939-2.94-2.939c-1.623,0-2.939,1.314-2.939,2.939
					S4.929,6.983,6.551,6.983z"/>
				<path d="M9.366,13.378l-0.402-3.99l0.409-1c-0.03,0-0.059-0.008-0.089-0.008H3.811c-1.559,0-2.826,1.275-2.826,2.832v3.684
					h11.133v-3.684c0-0.051-0.013-0.1-0.016-0.152L9.366,13.378z"/>
			</g>
			<path d="M14.929,2.831c0.248-0.633-0.059-1.35-0.69-1.598c-0.63-0.256-1.345,0.051-1.603,0.68l0,0l-0.368,0.918l2.292,0.92
				l0.371-0.92H14.929z M9.813,12.276l1.039-0.887l-1.168-0.467L9.813,12.276z M9.541,9.642l2.291,0.92l2.477-6.182l-2.292-0.918
				L9.541,9.642z"/>
		</g>
	</g>
	<g id="Studygroup">
		<g display="inline">
			<path d="M8,5.2c1.547,0,2.8,1.254,2.8,2.802c0,1.537-1.24,2.783-2.776,2.796v1.401c2.309-0.013,4.177-1.888,4.177-4.197
				c0-2.321-1.88-4.201-4.201-4.201s-4.201,1.88-4.201,4.201c0,0.002,0,0.006,0,0.009h1.4c0-0.003-0.001-0.007-0.001-0.009
				C5.199,6.454,6.453,5.2,8,5.2z M8,0.998c-3.867,0-7.001,3.135-7.001,7.004c0,0.002,0,0.006,0,0.009h1.401
				c0-0.003,0-0.007,0-0.009c0-3.095,2.507-5.603,5.601-5.603s5.601,2.508,5.601,5.603c0,3.083-2.495,5.586-5.577,5.599v1.401
				c3.855-0.014,6.978-3.143,6.978-7C15.001,4.133,11.867,0.998,8,0.998z"/>
			<circle cx="4.598" cy="11.221" r="2.106"/>
		</g>
	</g>
	<g id="Info">
		<g display="inline">
			<path d="M8.036,3.658c1.012,0,1.83-0.822,1.83-1.828C9.866,0.818,9.048,0,8.036,0S6.204,0.818,6.204,1.83
				C6.204,2.836,7.024,3.658,8.036,3.658z M9.841,14.188V5.531H4.36v1.361h1.797v7.295H4.354V16h7.291v-1.812H9.841z"/>
		</g>
	</g>
	<g id="Info_klein">
		<g display="inline">
			<path d="M8.032,4.168c0.888,0,1.605-0.721,1.605-1.603c0-0.888-0.718-1.605-1.605-1.605S6.425,1.678,6.425,2.565
				C6.425,3.447,7.144,4.168,8.032,4.168z M9.615,13.403V5.812H4.807v1.194h1.576v6.397H4.802v1.591h6.396v-1.591H9.615z"/>
		</g>
	</g>
	<g id="Info_2_klein">
		<path display="inline" d="M8,1.001c-3.866,0-6.999,3.135-6.999,7.003C1.003,11.867,4.134,14.999,8,15.001
			c3.867-0.002,7.001-3.134,7.001-6.997C15.001,4.136,11.867,1.001,8,1.001z M8,13.585c-3.083-0.006-5.577-2.5-5.583-5.581
			C2.423,4.918,4.917,2.423,8,2.417c3.084,0.006,5.578,2.501,5.585,5.587C13.578,11.085,11.084,13.579,8,13.585z M8.127,5.326
			c0.554,0,1-0.459,1-1.021c0-0.566-0.446-1.024-1-1.024c-0.553,0-1.001,0.458-1.001,1.024C7.126,4.867,7.574,5.326,8.127,5.326z
			 M9.114,6.375H6.118v0.761h0.982v4.078H6.115v1.015h3.986v-1.015H9.114V6.375z"/>
	</g>
	<g id="Frage_1_">
		<path display="inline" d="M7.468,11.335c-1.04,0-1.782,0.742-1.782,1.824c0,1.041,0.722,1.822,1.763,1.822h0.02
			c1.083,0,1.805-0.781,1.805-1.822C9.253,12.077,8.551,11.335,7.468,11.335z M7.75,1.019c-1.422,0-2.604,0.4-3.345,0.822
			l0.681,2.182c0.52-0.359,1.322-0.6,1.983-0.6c1.002,0.041,1.463,0.5,1.463,1.203c0,0.68-0.521,1.32-1.162,2.102
			C6.468,7.79,6.127,8.833,6.188,9.853l0.02,0.521h2.664v-0.361c-0.02-0.9,0.281-1.682,1.021-2.504
			c0.762-0.84,1.702-1.842,1.702-3.365C11.595,2.481,10.395,1.019,7.75,1.019z"/>
	</g>
	<g id="Frage_2">
		<path display="inline" d="M7.999,0.97c-3.882,0-7.029,3.146-7.029,7.033c0.001,3.881,3.147,7.025,7.029,7.027
			c3.883-0.002,7.031-3.146,7.031-7.027C15.03,4.116,11.882,0.97,7.999,0.97z M7.999,13.608c-3.096-0.006-5.601-2.512-5.607-5.605
			c0.006-3.1,2.511-5.605,5.607-5.611c3.098,0.006,5.603,2.512,5.609,5.611C13.602,11.097,11.097,13.603,7.999,13.608z
			 M7.917,10.208c-0.662,0-1.132,0.471-1.132,1.156c0,0.664,0.458,1.16,1.121,1.16h0.012c0.688,0,1.147-0.496,1.147-1.16
			C9.054,10.679,8.606,10.208,7.917,10.208z M8.097,3.646c-0.904,0-1.656,0.256-2.127,0.523l0.434,1.387
			c0.33-0.229,0.839-0.381,1.262-0.381c0.637,0.025,0.93,0.318,0.93,0.764c0,0.434-0.333,0.842-0.741,1.338
			c-0.574,0.676-0.788,1.338-0.75,1.988l0.012,0.332h1.694V9.368C8.798,8.794,8.989,8.294,9.46,7.774
			c0.486-0.537,1.083-1.174,1.083-2.143C10.543,4.575,9.778,3.646,8.097,3.646z"/>
	</g>
	<g id="Hinweis_1_">
		<g display="inline">
			<path d="M7.99,15.033c-1.088,0-1.828-0.8-1.828-1.868c0-1.088,0.759-1.868,1.848-1.868c1.088,0,1.807,0.78,1.827,1.868
				c0,1.068-0.717,1.868-1.827,1.868H7.99z M6.84,10.271L6.368,0.967h3.265l-0.452,9.304H6.84z"/>
		</g>
	</g>
	<g id="_Hinweis_2">
		<path display="inline" d="M7.999,0.973c-3.864,0-6.996,3.133-6.996,7c0.001,3.862,3.132,6.992,6.996,6.994
			c3.865-0.002,6.998-3.132,6.998-6.994C14.997,4.105,11.864,0.973,7.999,0.973z M7.999,13.552
			c-3.082-0.006-5.575-2.499-5.581-5.579c0.006-3.085,2.499-5.579,5.581-5.585c3.083,0.006,5.576,2.5,5.583,5.585
			C13.574,11.053,11.081,13.546,7.999,13.552z M8.005,10.126c-0.683,0-1.16,0.49-1.16,1.175c0,0.671,0.464,1.172,1.147,1.172h0.013
			c0.698,0,1.148-0.501,1.148-1.172C9.143,10.616,8.691,10.126,8.005,10.126z M8.741,9.48l0.286-5.845H6.974L7.27,9.48H8.741z"/>
	</g>
	<g id="Schwarzes_Brett">
		<g display="inline">
			<path d="M1.032,4.446v9.498h13.965V4.446H1.032z M8.714,12.394H5.082V8.907H3.047V6h2.616v2.18h3.051V12.394z M13.872,10.145
				h-2.761V6.948h2.761V10.145z"/>
			<g>
				<g>
					<rect x="1.032" y="2.611" width="13.965" height="1.108"/>
				</g>
			</g>
		</g>
	</g>
	<g id="Module">
		<g display="inline">
			<g>
				<path d="M2.881,7.226c0-2.396,1.944-4.34,4.343-4.34h0.001V1.042H7.224c-3.412,0-6.185,2.77-6.185,6.184v0.002h1.842V7.226z
					 M8.779,2.591v1.842c2.396,0,4.341,1.943,4.341,4.342s-1.945,4.342-4.341,4.342c-2.397,0-4.344-1.941-4.345-4.34H2.593
					c0.001,3.414,2.771,6.182,6.186,6.182c3.41,0,6.182-2.77,6.182-6.184C14.96,5.362,12.19,2.591,8.779,2.591z M8.779,11.097
					c1.28,0,2.32-1.041,2.32-2.322c0-1.283-1.04-2.322-2.32-2.322v2.324H6.454C6.456,10.058,7.497,11.097,8.779,11.097z"/>
			</g>
		</g>
	</g>
	<g id="Sprechstunde">
		<g display="inline">
			<path d="M1.008,4.295v2.77c0,0.587,0.48,1.065,1.066,1.065h2.759c0.052,0.069,0.862,1.118,2.324,1.346
				C6.643,9.015,6.53,8.513,6.542,8.13h0.497c0.586,0,1.066-0.479,1.066-1.065v-2.77c0-0.586-0.479-1.066-1.066-1.066H2.074
				C1.488,3.229,1.008,3.709,1.008,4.295z M2.278,5.717h4.492v0.626H2.278V5.717z M2.278,4.419h4.492v0.627H2.278V4.419z"/>
			<g>
				<path d="M13.057,7.093c0-1.172-0.951-2.121-2.123-2.121c-1.175,0-2.123,0.949-2.123,2.121c0,1.174,0.948,2.123,2.123,2.123
					C12.106,9.216,13.057,8.267,13.057,7.093z M6.916,12.27v2.659h8.038V12.27c0-1.124-0.915-2.045-2.04-2.045H8.962
					C7.837,10.225,6.916,11.146,6.916,12.27z"/>
			</g>
		</g>
	</g>
	<g id="Raum_belegt">
		<path display="inline" d="M9.999,3.356c0.003-0.045,0.008-0.09,0.008-0.137c0-1.789-1.451-3.241-3.241-3.241
			c-1.39,0-2.571,0.875-3.031,2.103l1.31,0.402c0.287-0.668,0.951-1.136,1.722-1.136c1.034,0,1.872,0.839,1.872,1.871
			c0,0.528-0.221,1.003-0.571,1.343c-0.582,0.62-1.026,0.62-2.172,1.236c-1.828,0.982-2.273,2.51-2.37,3.412v6.745h6.484v-12.6
			H9.999z M9.188,13.97l-1.021,1.024l-1.452-1.453l-1.453,1.454L4.239,13.97l1.453-1.452L4.24,11.066l1.022-1.022l1.452,1.452
			l1.453-1.452l1.021,1.023l-1.453,1.451L9.188,13.97z"/>
	</g>
	<g id="Raum_frei">
		<path display="inline" d="M10.008,3.339c0.002-0.046,0.007-0.09,0.007-0.136c0-1.791-1.451-3.242-3.241-3.242
			c-1.387,0-2.569,0.875-3.031,2.104l1.312,0.399C5.34,1.8,6.002,1.331,6.774,1.331c1.033,0,1.873,0.837,1.873,1.872
			c0,0.526-0.222,1.001-0.57,1.341C7.494,5.165,7.047,5.165,5.902,5.779C4.077,6.764,3.631,8.29,3.535,9.194v6.743h6.482V3.339
			H10.008z M6.221,15.098l-2.33-2.329l1.024-1.024l1.303,1.303l2.492-2.489l1.024,1.026L6.221,15.098z"/>
	</g>
	<g id="Raum_anfrage">
		<path display="inline" d="M10.031,3.37c0.001-0.046,0.005-0.09,0.005-0.137c0-1.791-1.451-3.242-3.242-3.242
			c-1.39,0-2.57,0.875-3.032,2.102l1.312,0.404c0.285-0.669,0.948-1.137,1.72-1.137c1.033,0,1.873,0.838,1.873,1.872
			c0,0.527-0.221,1.002-0.572,1.343C7.514,5.197,7.068,5.197,5.924,5.813c-1.83,0.981-2.275,2.51-2.371,3.414v6.745h6.485V3.37
			H10.031z M6.688,15.028H6.678c-0.531,0-0.9-0.4-0.9-0.933c0-0.553,0.378-0.932,0.911-0.932c0.554,0,0.912,0.379,0.922,0.932
			C7.61,14.628,7.242,15.028,6.688,15.028z M7.928,11.207c-0.379,0.419-0.532,0.818-0.521,1.279v0.186H6.043l-0.009-0.267
			c-0.031-0.523,0.144-1.055,0.604-1.598c0.327-0.399,0.594-0.728,0.594-1.075c0-0.359-0.236-0.595-0.748-0.615
			c-0.338,0-0.748,0.124-1.015,0.307L5.12,8.309C5.5,8.093,6.105,7.888,6.831,7.888c1.354,0,1.967,0.747,1.967,1.599
			C8.798,10.266,8.316,10.776,7.928,11.207z"/>
	</g>
	<g id="Kostenpflichtig">
		<g display="inline">
			<circle cx="13.673" cy="3.838" r="1.377"/>
			<path d="M14.011,7.127c-0.398,0-0.767,0.121-1.078,0.322c-0.157-1.236-1.201-2.196-2.48-2.196c-0.358,0-0.697,0.076-1.005,0.212
				l0.756,4.788c0.083,0.009,0.164,0.026,0.249,0.026c0.634,0,1.206-0.244,1.648-0.631c0.232,0.84,0.996,1.461,1.91,1.461
				c1.1,0,1.991-0.892,1.991-1.99C16.002,8.019,15.11,7.127,14.011,7.127z"/>
			<polygon points="5.787,2.104 9.582,11.883 9.885,11.837 8.202,1.191 2.412,2.106 2.606,3.338 			"/>
			<g>
				<path d="M5.194,12.171c-0.748,0.309-1.078,0.714-0.933,1.067c0.163,0.395,0.706,0.394,1.441,0.09
					c0.709-0.292,1.101-0.66,0.933-1.068C6.496,11.925,5.978,11.848,5.194,12.171z"/>
				<path d="M5.466,2.831L0,4.952L3.899,15l5.466-2.123L5.466,2.831z M3.443,11.969l-0.757-1.837l0.239-0.099l0.423,0.184
					c1.002,0.445,1.513,0.629,1.947,0.45c0.292-0.121,0.506-0.37,0.329-0.8c-0.107-0.261-0.33-0.422-0.495-0.509L5.352,9.12
					c0.244,0.128,0.491,0.363,0.626,0.691c0.255,0.618-0.062,1.055-0.474,1.226c-0.532,0.219-1.12,0.01-1.955-0.355l-0.306-0.139
					l-0.009,0.004l0.531,1.288L3.443,11.969z M5.883,13.715c-0.979,0.404-1.67,0.26-1.932-0.375
					c-0.232-0.562,0.136-1.164,1.085-1.564c0.97-0.4,1.67-0.197,1.912,0.388C7.195,12.765,6.799,13.338,5.883,13.715z"/>
			</g>
		</g>
	</g>
	<g id="Mensa_1">
		<g display="inline">
			<path d="M15.002,13.548l-0.118-4.785c0.02-0.08,0.024-0.197,0.024-0.365c0-0.666,0-0.969,0-0.969c0-0.725,0.06-3.199,0.06-4.045
				s-0.725-0.182-1.026,0.906s-0.786,4.529,0.06,4.588c0.057,0.006,0.102,0.01,0.15,0.014l-0.109,4.656H15.002z"/>
			<path d="M3.209,5.772c0-0.613-0.21-2.738-0.419-2.738c-0.209,0-0.076,2.738-0.229,2.738S2.275,3.078,2.104,3.078h-0.01
				c-0.171,0-0.305,2.694-0.457,2.694s-0.02-2.738-0.229-2.738c-0.21,0-0.419,2.125-0.419,2.738c0,0.557,0.239,1.02,0.753,1.102
				l-0.123,6.674h0.958L2.451,6.874C2.969,6.794,3.209,6.331,3.209,5.772z"/>
			<path d="M8.205,3.687c-2.631,0-4.765,2.135-4.765,4.766s2.134,4.766,4.765,4.766c2.632,0,4.766-2.135,4.766-4.766
				S10.837,3.687,8.205,3.687z M8.205,11.786c-1.842,0-3.335-1.492-3.335-3.334s1.493-3.335,3.335-3.335
				c1.842,0,3.336,1.493,3.336,3.335S10.047,11.786,8.205,11.786z"/>
		</g>
	</g>
	<g id="Mensa_2">
		<g display="inline">
			<polygon points="15.002,12.385 0.998,12.385 0.998,13.214 1.848,13.214 2.497,14.02 13.579,14.02 14.227,13.214 15.002,13.214 
							"/>
			<path d="M7.325,8.636C6.521,8.1,5.726,7.761,5.208,7.84L4.167,6.978c0.152-0.191,0.125-0.471-0.063-0.625
				C3.912,6.193,3.629,6.222,3.471,6.411c-0.107,0.131-0.123,0.304-0.063,0.45C3.251,6.832,3.084,6.878,2.976,7.01
				C2.819,7.201,2.845,7.483,3.037,7.641c0.183,0.152,0.449,0.13,0.609-0.042l1.027,0.848C4.669,8.968,5.163,9.7,5.846,10.424
				c0.869,0.921,1.854,1.393,2.524,0.582C9.02,10.221,8.399,9.35,7.325,8.636z"/>
			<path d="M9.772,8.429c1.32,0,2.396,0.927,2.396,2.065c0,1.141-1.075,2.066-2.396,2.066c-2.071,0-5.648-0.486-6.205-1.089
				c-0.009-0.028-0.013-0.084,0.042-0.197c0.224-0.478,1.062-1.121,2.175-1.375C6.087,9.831,6.39,9.795,6.687,9.795
				c0.062,0,0.124,0.002,0.186,0.005l0.552,0.027l0.331-0.444C8.2,8.785,8.955,8.429,9.772,8.429 M9.772,7.394
				c-1.187,0-2.231,0.546-2.847,1.372C6.847,8.763,6.767,8.76,6.687,8.76c-0.365,0-0.747,0.042-1.134,0.13
				c-1.891,0.431-3.495,1.895-2.902,3.071c0.705,1.395,6.387,1.635,7.121,1.635c1.896,0,3.431-1.39,3.431-3.102
				C13.203,8.781,11.667,7.394,9.772,7.394L9.772,7.394z"/>
			<g>
				<path d="M8.249,6.969L7.873,6.612c0.029-0.03,0.732-0.822-0.033-2.098C7.023,3.15,7.817,2.027,7.852,1.98l0.419,0.301
					C8.246,2.319,7.646,3.186,8.283,4.247C9.255,5.871,8.291,6.924,8.249,6.969L8.249,6.969z"/>
			</g>
			<g>
				<path d="M7.214,6.969L6.837,6.612C6.867,6.582,7.57,5.79,6.804,4.515C5.988,3.15,6.782,2.027,6.817,1.98l0.42,0.301
					C7.21,2.319,6.612,3.186,7.248,4.247C8.22,5.871,7.255,6.924,7.214,6.969L7.214,6.969z"/>
			</g>
			<g>
				<path d="M9.284,6.969L8.908,6.612c0.028-0.03,0.731-0.822-0.033-2.098C8.058,3.15,8.852,2.027,8.886,1.98l0.419,0.301
					C9.28,2.319,8.681,3.186,9.318,4.247C10.291,5.871,9.326,6.924,9.284,6.969L9.284,6.969z"/>
			</g>
		</g>
	</g>
	<g id="Support_1">
		<g display="inline">
			<g>
				<path d="M13.096,7.044c0-1.179-0.956-2.133-2.133-2.133c-1.181,0-2.133,0.954-2.133,2.133c0,1.178,0.952,2.132,2.133,2.132
					C12.14,9.176,13.096,8.222,13.096,7.044z M6.925,12.245v2.672h8.077v-2.672c0-1.131-0.919-2.057-2.05-2.057H8.981
					C7.851,10.188,6.925,11.114,6.925,12.245z"/>
			</g>
			<path d="M1.015,4.238v2.782c0,0.589,0.482,1.071,1.071,1.071h2.772C4.911,8.16,5.725,9.216,7.195,9.444
				C6.677,8.98,6.563,8.476,6.576,8.092h0.5c0.589,0,1.072-0.482,1.072-1.071V4.238c0-0.589-0.482-1.071-1.072-1.071H2.086
				C1.497,3.167,1.015,3.649,1.015,4.238z M4.359,7.474H4.353c-0.28,0-0.473-0.21-0.473-0.49c0-0.29,0.199-0.489,0.479-0.489
				c0.292,0,0.48,0.199,0.485,0.489C4.844,7.264,4.65,7.474,4.359,7.474z M5.011,5.465c-0.199,0.221-0.28,0.431-0.275,0.673v0.098
				H4.019l-0.005-0.14C3.998,5.82,4.089,5.541,4.332,5.255c0.172-0.211,0.313-0.384,0.313-0.566c0-0.188-0.124-0.312-0.394-0.323
				c-0.178,0-0.394,0.064-0.533,0.161L3.535,3.939c0.199-0.113,0.517-0.222,0.9-0.222c0.711,0,1.034,0.395,1.034,0.842
				C5.469,4.969,5.216,5.238,5.011,5.465z"/>
		</g>
	</g>
	<g id="Support_2">
		<g display="inline">
			<path d="M14.89,6.763C14.486,4.665,11.112,4.53,9.291,4.53h-2.6c-1.82,0-5.134,0.299-5.573,2.205L1.006,7.479L0.985,8.024h1.867
				C3.627,7.434,4.888,6.809,5.786,6.48c0.44-0.431,1.15-0.582,1.715-0.582h1.035c0.583,0,1.334,0.09,1.771,0.588
				c0.886,0.329,2.122,0.952,2.883,1.538h1.817l0.007-0.522L14.89,6.763z"/>
			<path d="M14.146,11.506c0-0.63-0.503-2.468-0.503-2.468C13.406,8.252,10.103,6.67,9.406,6.67h-2.72
				c-0.697,0-4.06,1.582-4.297,2.368c0,0-0.502,1.838-0.502,2.468c0,0.493-0.004,1.46-0.004,1.46h4.265h3.737h4.265
				C14.15,12.966,14.146,11.999,14.146,11.506z M8,11.934c-1.173,0-2.125-0.952-2.125-2.125S6.827,7.684,8,7.684
				s2.124,0.952,2.124,2.125S9.173,11.934,8,11.934z"/>
		</g>
	</g>
	<g id="Prüfungen_1">
		<g display="inline">
			<g>
				<polygon points="10.59,10.886 9.176,10.722 8,11.524 6.825,10.722 6.775,10.728 8.236,16 10.008,14.052 12.542,14.807 
					11.159,9.816 				"/>
			</g>
			<path d="M12.435,5.42l0.301-1.257l-1.059-0.742L11.36,2.168l-1.284-0.165L9.213,1.041L8,1.491l-1.212-0.45L5.925,2.003
				L4.641,2.168L4.323,3.421L3.264,4.163L3.565,5.42L2.971,6.57l0.852,0.974l0.009,1.292l1.206,0.468l0.608,1.142l1.286-0.148
				L8,11.025l1.07-0.729l1.285,0.148l0.608-1.142l1.206-0.468l0.009-1.292l0.851-0.974L12.435,5.42z M8,10.181
				c-2.291,0-4.148-1.856-4.148-4.147S5.709,1.886,8,1.886c2.291,0,4.148,1.856,4.148,4.147S10.291,10.181,8,10.181z"/>
			<circle cx="8.032" cy="6.033" r="3.706"/>
			<g>
				<polygon points="5.41,10.886 4.741,9.631 4.704,9.616 3.542,14.895 6.232,13.927 7.656,15.329 6.394,10.773 				"/>
			</g>
		</g>
	</g>
	<g id="Prüfungen_2">
		<g display="inline">
			<polygon points="7.999,3.991 0.701,6.575 3.853,8.274 7.853,6.586 8.515,6.889 4.52,8.635 7.999,10.508 15.299,6.575 			"/>
			<g>
				<polygon points="3.336,8.798 1.644,9.398 3.091,10.178 3.336,10.311 				"/>
				<polygon points="12.661,8.798 7.999,11.309 4.998,9.691 4.998,11.205 7.999,12.822 12.692,10.294 14.355,9.398 				"/>
			</g>
			<polygon points="3.899,13.526 4.507,13.977 4.507,8.646 3.899,8.28 			"/>
		</g>
	</g>
	<g id="Prüfungen_3">
		<g display="inline">
			<g>
				<path d="M4.621,5.865H1.017V2.261h3.604V5.865L4.621,5.865z M1.55,5.331h2.536V2.795H1.55V5.331L1.55,5.331z"/>
			</g>
			<g>
				<path d="M4.621,9.803H1.017V6.199h3.604V9.803L4.621,9.803z M1.55,9.267h2.536V6.731H1.55V9.267L1.55,9.267z"/>
			</g>
			<g>
				<path d="M4.621,13.739H1.017v-3.604h3.604V13.739L4.621,13.739z M1.55,13.204h2.536V10.67H1.55V13.204L1.55,13.204z"/>
			</g>
			<rect x="6.041" y="3.051" width="8.942" height="2.136"/>
			<rect x="6.041" y="6.943" width="8.942" height="2.135"/>
			<rect x="6.041" y="10.856" width="8.942" height="2.135"/>
			<polygon points="5.247,6.886 4.62,6.258 3.098,7.78 2.301,6.985 1.675,7.61 3.099,9.034 			"/>
		</g>
	</g>
	<g id="Archiv_Veranstaltungen">
		<path display="inline" d="M13.509,8.551c0.084-0.389,0.133-0.793,0.133-1.207c0-3.113-2.527-5.641-5.643-5.641
			c-3.113,0-5.641,2.525-5.643,5.641h1.68c0.002-2.186,1.775-3.961,3.963-3.961c2.189,0,3.965,1.775,3.965,3.961
			c0,0.424-0.084,0.822-0.207,1.207H9.739c0.238-0.344,0.381-0.758,0.381-1.207c0-1.168-0.951-2.117-2.121-2.117
			S5.88,6.176,5.88,7.344c0,0.449,0.143,0.863,0.379,1.207H3.62H0.978v6.377h14.045V8.551H13.509z M11.417,11.08H4.583V9.953h6.834
			V11.08z"/>
	</g>
	<g id="Archiv_allgemein">
		<path display="inline" d="M12.336,8.642H3.663H1.043v6.317h13.913V8.642H12.336z M11.385,11.148h-6.77v-1.117h6.77V11.148z"/>
	</g>
	<g id="Statistik">
		<path display="inline" d="M0.999,7.979c0,3.787,3.023,6.882,6.783,6.998V8.099L1.469,5.458C1.157,6.264,0.999,7.111,0.999,7.979z"
			/>
		<path display="inline" d="M5.199,1.568C4.02,2.085,2.99,2.933,2.253,3.992L7.47,7.19L5.199,1.568z"/>
		<path display="inline" d="M8,0.977c-0.402,0-0.812,0.038-1.223,0.11l1.587,6.779l0.921,6.986c3.279-0.61,5.716-3.514,5.716-6.874
			C15.001,4.117,11.861,0.977,8,0.977z"/>
	</g>
	<g id="Euro">
		<path d="M7.999,1.009c-3.861,0-6.991,3.131-6.991,6.994c0.002,3.859,3.129,6.986,6.991,6.988c3.862-0.002,6.993-3.129,6.993-6.988
			C14.992,4.14,11.861,1.009,7.999,1.009z M7.999,13.579c-3.079-0.008-5.57-2.498-5.576-5.576c0.006-3.082,2.497-5.574,5.576-5.58
			c3.081,0.006,5.571,2.498,5.578,5.58C13.57,11.081,11.08,13.571,7.999,13.579z"/>
		<g>
			<path d="M9.944,5.222C9.577,5.024,8.933,4.911,8.52,4.911c-1.345,0-2.264,0.85-2.597,2.104h3.654l-0.15,0.619H5.784
				c-0.035,0.322-0.035,0.645,0,0.967H9.22L9.083,9.22h-3.16c0.333,1.254,1.251,2.08,2.585,2.08c0.459,0,1.021-0.09,1.436-0.287
				l0.07,1c-0.472,0.184-1.092,0.252-1.598,0.252c-1.954,0-3.379-1.137-3.77-3.045H3.556l0.148-0.619h0.862
				c-0.022-0.322-0.022-0.645,0-0.967h-1.01l0.148-0.619h0.955c0.414-1.85,1.85-3.045,3.758-3.045c0.574,0,1.217,0.078,1.758,0.299
				L9.944,5.222z"/>
		</g>
	</g>
	<g id="Tan_1">
		<g display="inline">
			<path d="M2.407,3.98H1.454v0.954v7.071v0.954h0.953h11.146h0.954v-0.954V4.935V3.98h-0.954H2.407z M3.214,11.436
				c0-0.927,0.263-1.39,0.635-1.39c0.423,0,0.623,0.51,0.623,1.373c0,0.224-0.016,0.417-0.043,0.587H3.257
				C3.23,11.841,3.214,11.653,3.214,11.436z M5.378,12.006H5.125c0.033-0.186,0.055-0.384,0.055-0.604
				c0-1.093-0.417-1.894-1.314-1.894c-0.869,0-1.359,0.772-1.359,1.933c0,0.204,0.021,0.39,0.054,0.565H2.407V4.935h2.972V12.006z
				 M9.414,12.006H6.332V4.935h3.082V12.006z M13.553,12.006h-3.188V4.935h3.188V12.006z"/>
			<rect x="0.135" y="5.999" width="0.954" height="5.09"/>
			<rect x="14.913" y="5.999" width="0.952" height="5.09"/>
			<path d="M8.147,8.877H8.81V7.934H9.29V7.401H8.81v-2.24H7.981L6.46,7.477v0.457h1.687V8.877z M7.135,7.401V7.391l0.687-1.018
				c0.114-0.206,0.211-0.395,0.325-0.629h0.022C8.158,5.967,8.147,6.179,8.147,6.39v1.012H7.135z"/>
			<path d="M13.246,11.099h-1.521v-0.011l0.32-0.28c0.651-0.601,1.12-1.127,1.12-1.779c0-0.605-0.4-1.125-1.224-1.125
				c-0.469,0-0.874,0.165-1.143,0.383l0.205,0.497c0.189-0.142,0.464-0.31,0.796-0.31c0.485,0,0.662,0.293,0.662,0.624
				c-0.006,0.492-0.417,0.938-1.291,1.75l-0.441,0.406v0.427h2.516V11.099z"/>
		</g>
	</g>
	<g id="Tan_2">
		<g display="inline">
			<rect x="1.031" y="1.085" width="4.392" height="4.392"/>
			<path d="M9.448,1.809v2.917H6.532V1.809H9.448 M10.187,1.07H5.794v4.393h4.393V1.07L10.187,1.07z"/>
			<path d="M14.23,1.809v2.917h-2.915V1.809H14.23 M14.969,1.07h-4.392v4.393h4.392V1.07L14.969,1.07z"/>
			<path d="M4.685,6.593v2.915H1.77V6.593H4.685 M5.423,5.854H1.031v4.393h4.392V5.854L5.423,5.854z"/>
			<rect x="5.794" y="5.839" width="4.393" height="4.393"/>
			<rect x="10.577" y="5.839" width="4.392" height="4.393"/>
			<rect x="1.031" y="10.537" width="4.392" height="4.393"/>
			<rect x="5.794" y="10.522" width="4.393" height="4.393"/>
			<path d="M14.23,11.262v2.915h-2.915v-2.915H14.23 M14.969,10.522h-4.392v4.393h4.392V10.522L14.969,10.522z"/>
		</g>
	</g>
	<g id="Gruppe_1">
		<path display="inline" d="M6.359,8.192c0,0.606-0.241,1.153-0.627,1.562h4.56C9.905,9.346,9.664,8.799,9.664,8.192
			c0-0.775,0.392-1.462,0.986-1.874c-0.326-0.393-0.813-0.651-1.362-0.651h-2.56c-0.547,0-1.032,0.257-1.356,0.65
			C5.968,6.729,6.359,7.415,6.359,8.192z"/>
		<circle display="inline" cx="8.011" cy="2.948" r="1.843"/>
		<circle display="inline" cx="4.078" cy="8.193" r="1.843"/>
		<path display="inline" d="M5.354,10.912H2.796c-0.978,0-1.772,0.8-1.772,1.776v2.311h6.109v-2.311
			C7.133,11.712,6.331,10.912,5.354,10.912z"/>
		<circle display="inline" cx="11.946" cy="8.192" r="1.844"/>
		<path display="inline" d="M13.221,10.912h-2.558c-0.978,0-1.773,0.8-1.773,1.776v2.311H15v-2.311
			C15,11.712,14.199,10.912,13.221,10.912z"/>
	</g>
	<g id="Gruppe_2">
		<g display="inline">
			<circle cx="3.555" cy="6.261" r="1.786"/>
			<path d="M4.368,8.896H2.736c-0.946,0-1.716,0.774-1.716,1.721v2.237h5.07v-2.237C6.09,9.67,5.315,8.896,4.368,8.896z"/>
			<circle cx="12.446" cy="8.377" r="1.785"/>
			<path d="M13.258,11.011h-1.631c-0.947,0-1.717,0.775-1.717,1.722v2.237h5.07v-2.237C14.981,11.786,14.206,11.011,13.258,11.011z"
				/>
			<circle cx="7.506" cy="4.286" r="1.786"/>
			<path d="M10.042,10.878V8.641c0-0.946-0.775-1.721-1.723-1.721H6.688c-0.924,0-1.672,0.737-1.709,1.651
				c0.885,0.265,1.534,1.076,1.534,2.045v0.262H10.042z"/>
		</g>
	</g>
	<g id="Twitter">
		<g display="inline">
			<g>
				<path d="M14.984,15.013H1.016V0.987h13.969V15.013L14.984,15.013z M2.762,13.267h10.477V2.733H2.762V13.267L2.762,13.267z"/>
			</g>
			<path d="M5.986,3.294c0.654,0,0.982,0.582,0.982,1.234c0,0.756,0.018,1.717,0.018,1.717s2.68,0,3.367,0
				c0.687,0,1.175,0.416,1.175,1.051c0,0.756-0.419,1.135-1.106,1.135s-3.416,0-3.416,0s0,0,0,0.672s0.306,1.344,1.298,1.344
				c1.068,0,1.584,0,2.118,0c0.533,0,0.992,0.391,0.992,1.062c0,0.674-0.316,1.123-0.975,1.123c-0.838,0-0.871,0-2.246,0
				c-1.924,0-3.116-0.828-3.116-3.191c0-2.27,0-3.725,0-4.816C5.077,3.806,5.376,3.294,5.986,3.294z"/>
		</g>
	</g>
	<g id="Facebook">
		<g display="inline">
			<polygon points="1.02,1.015 1.02,14.985 7.116,14.985 7.116,13.24 2.765,13.24 2.765,2.76 13.234,2.76 13.234,13.24 8.979,13.24 
				8.979,14.985 14.98,14.985 14.98,1.015 			"/>
			<path d="M11.752,9.791l0.333-1.932c-1.017,0-3.081,0-3.081,0s0,0,0-0.594c0-0.974,0.106-1.188,1.263-1.188
				c0.415,0,1.199,0,1.478,0l0.332-1.933c-0.659,0-1.884,0-2.846,0c-1.411,0-2.104,0.753-2.104,2.201c0,0.402,0,0.921,0,1.514
				c-0.261,0-0.523,0-0.763,0L6.032,9.791c0.318,0,0.708,0,1.095,0c0,1.019,0,2.366,0,3.436h1.846
				c0.006-1.771,0.013-3.436,0.013-3.436S10.738,9.791,11.752,9.791z"/>
		</g>
	</g>
</g>
<g id="Plugin_Icons">
	<g id="Elmo" display="inline">
		<path d="M12.374,4.132c0.105-0.262,0.167-0.548,0.167-0.849c0-1.253-1.015-2.268-2.267-2.268c-1.067,0-1.953,0.738-2.196,1.73
			C7.855,1.738,6.961,0.982,5.886,0.982c-1.242,0-2.248,1.008-2.248,2.249c0,0.279,0.058,0.543,0.15,0.79
			C2.296,4.974,1.342,6.507,1.342,8.521c0,3.562,2.98,6.45,6.658,6.45c3.679,0,6.658-2.888,6.658-6.45
			C14.658,6.581,13.771,5.092,12.374,4.132z M10.328,1.645c0.641,0,1.162,0.52,1.162,1.162c0,0.562-0.4,1.033-0.93,1.141
			c0.281-0.141,0.479-0.425,0.479-0.759c0-0.472-0.384-0.855-0.855-0.855c-0.473,0-0.856,0.384-0.856,0.855
			c0,0.105,0.026,0.204,0.061,0.299C9.249,3.296,9.164,3.062,9.164,2.807C9.164,2.164,9.685,1.645,10.328,1.645z M7.958,3.223
			c1.119,0,2.027,1.141,2.027,2.549S9.077,8.32,7.958,8.32c-1.12,0-2.028-1.141-2.028-2.549S6.838,3.223,7.958,3.223z M5.744,1.645
			c0.643,0,1.163,0.52,1.163,1.162c0,0.294-0.112,0.56-0.292,0.764c0.06-0.116,0.102-0.242,0.102-0.382
			c0-0.472-0.385-0.855-0.856-0.855S5.005,2.717,5.005,3.188c0,0.324,0.188,0.598,0.455,0.743C4.957,3.804,4.581,3.351,4.581,2.807
			C4.581,2.164,5.103,1.645,5.744,1.645z M8.153,13.625c-4.652,0-4.945-4.633-4.945-4.633s2.093,0.634,4.788,0.634
			c2.973,0,5.083-0.651,5.083-0.651S12.37,13.625,8.153,13.625z"/>
	</g>
	<g id="Perle">
		<path display="inline" d="M8,1.011c-3.859,0-6.988,3.129-6.988,6.988c0,3.861,3.129,6.99,6.988,6.99
			c3.86,0,6.988-3.129,6.988-6.99C14.988,4.14,11.86,1.011,8,1.011z M7.094,7.663l0.558,1.402L6.223,8.581l-0.719,1.668l-0.396-1.49
			L3.532,9.714l0.726-1.357c-0.67,0.293-1.319,0.318-1.797-0.008C1.471,7.677,1.579,5.79,2.704,4.136s2.84-2.451,3.829-1.777
			c0.821,0.557,0.875,1.953,0.229,3.355L8.08,4.917L7.21,6.542l1.51,0.314L7.094,7.663z"/>
	</g>
</g>
<g id="Kommentar_1_">
	<g display="inline">
		<path d="M12.455,2.215H3.545c-1.404,0-2.543,1.14-2.544,2.545v4.968c0.001,1.402,1.141,2.543,2.544,2.544h0.198
			c-0.097,0.406-0.327,0.851-0.833,1.312L1.333,15l2.097-0.321c2.375-0.376,3.844-1.808,4.372-2.407h4.654
			c1.405-0.001,2.543-1.142,2.544-2.544V4.76C14.998,3.354,13.86,2.215,12.455,2.215z M13.735,9.728c0,0.7-0.58,1.28-1.28,1.281
			H7.189L7,11.262c-0.033,0.05-0.79,1.021-2.137,1.666c0.153-0.425,0.211-0.836,0.208-1.194c0-0.025,0-0.062-0.001-0.11
			l-0.018-0.614H3.545c-0.7-0.001-1.28-0.581-1.28-1.281V4.76c0-0.703,0.58-1.28,1.28-1.282h8.909c0.7,0.002,1.28,0.579,1.28,1.282
			V9.728z"/>
	</g>
</g>
<g id="Pfeile">
	<g id="einfach_rechts">
		<polygon display="inline" points="7.912,8 3.428,12.488 5.756,14.814 12.572,7.996 5.758,1.186 3.428,3.514 		"/>
	</g>
	<g id="einfach_links">
		<polygon display="inline" points="8.088,8 12.572,3.512 10.244,1.186 3.428,8.003 10.242,14.814 12.572,12.486 		"/>
	</g>
	<g id="einfach_oben">
		<polygon display="inline" points="8,8.089 12.488,12.573 14.814,10.245 7.997,3.429 1.185,10.243 3.513,12.573 		"/>
	</g>
	<g id="einfach_unten">
		<polygon display="inline" points="8,7.912 3.512,3.428 1.186,5.756 8.003,12.572 14.814,5.758 12.486,3.428 		"/>
	</g>
	<g id="doppelt_rechts">
		<path display="inline" d="M2.331,1.186L0,3.514L4.485,8L0,12.488l2.329,2.326l6.814-6.818L2.331,1.186z M11.34,8l-4.485,4.488
			l2.329,2.326L16,7.996L9.186,1.186L6.854,3.514L11.34,8z"/>
	</g>
	<g id="doppelt_links">
		<path display="inline" d="M13.669,14.814L16,12.486L11.515,8L16,3.512l-2.329-2.326L6.856,8.004L13.669,14.814z M4.66,8
			l4.485-4.488L6.816,1.186L0,8.004l6.814,6.811l2.331-2.328L4.66,8z"/>
	</g>
	<g id="doppelt_oben">
		<path display="inline" d="M1.185,13.668L3.513,16L8,11.514L12.488,16l2.326-2.33L7.996,6.855L1.185,13.668z M8,4.659l4.488,4.485
			l2.326-2.329L7.996-0.001L1.185,6.813l2.328,2.331L8,4.659z"/>
	</g>
	<g id="doppelt_unten">
		<path display="inline" d="M14.814,2.331L12.486,0L8,4.485L3.511,0l-2.326,2.33l6.818,6.814L14.814,2.331z M8,11.34L3.511,6.854
			L1.185,9.184L8.003,16l6.811-6.814l-2.328-2.331L8,11.34z"/>
	</g>
	<g id="Listenende_rechts">
		<path display="inline" d="M1.888,12.485l2.33,2.329l6.816-6.811L4.218,1.186l-2.33,2.326L6.372,8L1.888,12.485z M14.112,1.188
			l-1.829-0.003l-0.002,13.629h1.831V1.188z"/>
	</g>
	<g id="Listenende_links">
		<path display="inline" d="M14.112,3.515l-2.33-2.329L4.966,7.996l6.816,6.818l2.33-2.326L9.628,8L14.112,3.515z M1.888,14.812
			l1.829,0.003L3.719,1.186H1.888V14.812z"/>
	</g>
	<g id="Listenende_oben">
		<path display="inline" d="M12.485,14.112l2.329-2.33L8.004,4.966l-6.818,6.816l2.326,2.33L8,9.628L12.485,14.112z M1.188,1.888
			L1.186,3.717l13.629,0.002V1.888H1.188z"/>
	</g>
	<g id="Listenende_unten">
		<path display="inline" d="M3.515,1.888l-2.329,2.33l6.811,6.816l6.818-6.816l-2.326-2.33L8,6.372L3.515,1.888z M14.812,14.112
			l0.003-1.829L1.186,12.281v1.831H14.812z"/>
	</g>
	<g id="Play">
		<polygon display="inline" points="5.033,14.814 11.849,7.997 5.035,1.186 		"/>
	</g>
	<g id="Pause">
		<g display="inline">
			<g>
				<rect x="2.701" y="1.019" width="4.103" height="13.961"/>
			</g>
			<g>
				<rect x="9.198" y="1.019" width="4.104" height="13.961"/>
			</g>
		</g>
	</g>
	<g id="Stop">
		<rect x="1.981" y="1.015" display="inline" width="12.07" height="13.93"/>
	</g>
</g>
</svg>
