<svg width="16" height="16" xmlns="http://www.w3.org/2000/svg" viewBox="0 0 16 16" shape-rendering="geometricPrecision" fill="#24437c"><defs><mask id="a"><rect fill="#fff" width="100%" height="100%"/><path fill="#000" d="M11.875-1.414l-2.47 2.47 2.035 2.04L9.405 5.13l2.47 2.472 4.51-4.51z"/></mask></defs><path fill="#cb1800" d="M11.875 0l-1.057 1.057 2.035 2.038-2.035 2.037 1.057 1.057 3.095-3.097"/><g mask="url(#a)"><path d="M1.935 1.982V14h3.03V1.982h-3.03zM3.45 12.028c-.51 0-.923-.413-.923-.923 0-.512.413-.925.924-.925.51 0 .924.413.924.925 0 .51-.414.923-.923.923zM5.993 1.982V14h3.03V1.982h-3.03zm1.515 10.046c-.51 0-.924-.412-.924-.922 0-.512.413-.923.924-.923.51 0 .922.41.922.923 0 .51-.412.922-.922.922zM10 1.982V14h3.077V1.982H10zM11.54 12c-.52 0-.938-.42-.938-.938 0-.52.42-.938.938-.938s.937.42.937.938-.42.937-.937.937z"/></g></svg>