<svg width="16" height="16" xmlns="http://www.w3.org/2000/svg" viewBox="0 0 16 16" shape-rendering="geometricPrecision" fill="#24437c"><defs><mask id="a"><rect fill="#fff" width="100%" height="100%"/><path fill="#000" d="M11.875-1.414l-2.47 2.47 2.035 2.04L9.405 5.13l2.47 2.472 4.51-4.51z"/></mask></defs><path fill="#cb1800" d="M11.875 0l-1.057 1.057 2.035 2.038-2.035 2.037 1.057 1.057 3.095-3.097"/><g mask="url(#a)"><path d="M10.055 14.302l2.54-2.338h-2.54"/><path d="M2.595 1.016v13.97h6.008v-4.47h4.802v-9.5H2.595zm9.44 8.027h-4.79v4.6H3.916V2.32h8.116v6.725z"/><path d="M7.33 3.632v-.67H5.993v.67h-.67v3.345h5.354V3.632H7.33zm.335 2.676c-.554 0-1.003-.448-1.003-1.003 0-.555.45-1.004 1.003-1.004s1.003.45 1.003 1.005c0 .554-.45 1.003-1.003 1.003zm2.342-1.338h-.67V4.3h.67v.67z"/></g></svg>