<svg width="16" height="16" xmlns="http://www.w3.org/2000/svg" viewBox="0 0 16 16" shape-rendering="geometricPrecision" fill="#24437c"><defs><mask id="a"><rect fill="#fff" width="100%" height="100%"/><path fill="#000" d="M11.875-1.414l-2.47 2.47 2.035 2.04L9.405 5.13l2.47 2.472 4.51-4.51z"/></mask></defs><path fill="#cb1800" d="M11.875 0l-1.057 1.057 2.035 2.038-2.035 2.037 1.057 1.057 3.095-3.097"/><path d="M8.036 3.658c1.012 0 1.83-.822 1.83-1.828C9.866.818 9.048 0 8.036 0S6.204.818 6.204 1.83c0 1.006.82 1.828 1.832 1.828zm1.805 10.53V5.53H4.36v1.362h1.797v7.295H4.354V16h7.29v-1.813H9.842z" mask="url(#a)"/></svg>