<svg width="16" height="16" xmlns="http://www.w3.org/2000/svg" viewBox="0 0 16 16" shape-rendering="geometricPrecision" fill="#24437c"><defs><mask id="a"><rect fill="#fff" width="100%" height="100%"/><path fill="#000" d="M11.875-1.414l-2.47 2.47 2.035 2.04L9.405 5.13l2.47 2.472 4.51-4.51z"/></mask></defs><path fill="#cb1800" d="M11.875 0l-1.057 1.057 2.035 2.038-2.035 2.037 1.057 1.057 3.095-3.097"/><path d="M2.99 14.88l11.857-4.524L11.87 7l-8.88 7.88zM0 1.472V16l1.618-1.436v-4.98h5.61l4.74-4.205 4.028 4.538.004-.002V1.473H0zm8.056 6.19H1.618V6.268h6.438V7.66zm6.327-2.845H1.618V3.426h12.765v1.392z" mask="url(#a)"/></svg>