<svg width="16" height="16" xmlns="http://www.w3.org/2000/svg" viewBox="0 0 16 16" shape-rendering="geometricPrecision" fill="#24437c"><defs><mask id="a"><rect fill="#fff" width="100%" height="100%"/><path fill="#000" d="M11.875-1.414l-2.47 2.47 2.035 2.04L9.405 5.13l2.47 2.472 4.51-4.51z"/></mask></defs><path fill="#cb1800" d="M11.875 0l-1.057 1.057 2.035 2.038-2.035 2.037 1.057 1.057 3.095-3.097"/><g mask="url(#a)"><path d="M6.35 5.582c.47-.322 1.037-.51 1.65-.51.612 0 1.18.19 1.65.51l1.472-1.47c-.856-.688-1.94-1.1-3.122-1.1s-2.266.412-3.122 1.1L6.35 5.58zM5.583 6.35l-1.47-1.472C3.422 5.733 3.01 6.818 3.01 8s.414 2.267 1.1 3.12l1.472-1.47c-.32-.47-.51-1.037-.51-1.65s.19-1.18.51-1.65z"/><g><path d="M10.418 9.65l1.47 1.47c.687-.854 1.1-1.938 1.1-3.12 0-1.182-.413-2.267-1.1-3.122l-1.472 1.47c.324.47.512 1.04.512 1.652s-.188 1.18-.51 1.65zM9.65 10.418c-.47.32-1.037.51-1.65.51s-1.18-.19-1.65-.51l-1.472 1.47c.855.688 1.94 1.1 3.122 1.1s2.267-.412 3.122-1.1l-1.47-1.47z"/></g><g><path d="M7.934 14.81c-1.06 0-2.058-.417-2.814-1.173L2.364 10.88C.824 9.343.8 6.863 2.31 5.354L5.353 2.31c.72-.723 1.684-1.12 2.713-1.12 1.058 0 2.058.416 2.814 1.172l2.757 2.756c.744.744 1.16 1.728 1.173 2.77.012 1.046-.386 2.025-1.118 2.758l-3.045 3.045c-.72.722-1.685 1.12-2.713 1.12zm.133-12.62c-.762 0-1.475.293-2.006.825L3.017 6.06c-1.12 1.12-1.095 2.964.054 4.114l2.756 2.756c1.113 1.113 3.028 1.14 4.113.055l3.044-3.045c.54-.54.834-1.265.825-2.04-.01-.778-.322-1.515-.88-2.073L10.173 3.07c-.568-.567-1.316-.88-2.107-.88z"/></g></g></svg>