<?xml version="1.0"?><!DOCTYPE svg PUBLIC "-//W3C//DTD SVG 1.1//EN" "http://www.w3.org/Graphics/SVG/1.1/DTD/svg11.dtd"><svg width="16px" height="16px" xmlns="http://www.w3.org/2000/svg" viewBox="0 0 16 16" shape-rendering="geometricPrecision" fill="#24437c"><defs><mask id="move_right-path"><rect fill="#fff" width="100%" height="100%"/><polygon points="11.875,-1.414 9.405,1.056 11.44,3.095 9.405,5.132 11.875,7.604 16.385,3.093 " fill="#000"/></mask></defs><polygon points="11.875,0 10.818,1.057 12.853,3.095 10.818,5.132 11.875,6.189 14.97,3.093 " fill="#cb1800"/><g mask="url(#move_right-path)"><g><path d="M8,5.2c1.547,0,2.8,1.254,2.8,2.802c0,1.537-1.24,2.783-2.776,2.796v1.401c2.309-0.013,4.177-1.888,4.177-4.197 c0-2.321-1.88-4.201-4.201-4.201s-4.201,1.88-4.201,4.201c0,0.002,0,0.006,0,0.009h1.4c0-0.003-0.001-0.007-0.001-0.009 C5.199,6.454,6.453,5.2,8,5.2z M8,0.998c-3.867,0-7.001,3.135-7.001,7.004c0,0.002,0,0.006,0,0.009h1.401 c0-0.003,0-0.007,0-0.009c0-3.095,2.507-5.603,5.601-5.603c3.093,0,5.601,2.508,5.601,5.603c0,3.083-2.495,5.586-5.577,5.599 v1.401c3.855-0.014,6.978-3.143,6.978-7C15.002,4.133,11.867,0.998,8,0.998z"/><circle cx="4.598" cy="11.221" r="2.106"/></g></g></svg>