<?xml version="1.0"?><!DOCTYPE svg PUBLIC "-//W3C//DTD SVG 1.1//EN" "http://www.w3.org/Graphics/SVG/1.1/DTD/svg11.dtd"><svg width="16px" height="16px" xmlns="http://www.w3.org/2000/svg" viewBox="0 0 16 16" shape-rendering="geometricPrecision" fill="#24437c"><defs><mask id="move_right-path"><rect fill="#fff" width="100%" height="100%"/><polygon points="11.875,-1.414 9.405,1.056 11.44,3.095 9.405,5.132 11.875,7.604 16.385,3.093 " fill="#000"/></mask></defs><polygon points="11.875,0 10.818,1.057 12.853,3.095 10.818,5.132 11.875,6.189 14.97,3.093 " fill="#cb1800"/><g mask="url(#move_right-path)"><path d="M9.759,2.438V1.03H6.24v1.408H2.717v1.917h10.565V2.438H9.759z M3.661,14.97h8.645V5.388H3.661V14.97z M9.824,6.895h1.016v6.567H9.824V6.895z M7.474,6.895h1.017v6.567H7.474V6.895z M5.125,6.895h1.016v6.567H5.125V6.895z"/></g></svg>