<svg width="16" height="16" xmlns="http://www.w3.org/2000/svg" viewBox="0 0 16 16" shape-rendering="geometricPrecision" fill="#24437c"><defs><mask id="a"><rect fill="#fff" width="100%" height="100%"/><path fill="#000" d="M11.875-1.414l-2.47 2.47 2.035 2.04L9.405 5.13l2.47 2.472 4.51-4.51z"/></mask></defs><path fill="#cb1800" d="M11.875 0l-1.057 1.057 2.035 2.038-2.035 2.037 1.057 1.057 3.095-3.097"/><path mask="url(#a)" d="M7.993 3.184C4.525 3.184 1.518 5.136 0 8c1.518 2.864 4.525 4.815 7.993 4.815 3.466 0 6.472-1.95 7.993-4.814-1.52-2.864-4.527-4.816-7.993-4.816zm-.82 8.2L4.12 8.33l1.343-1.343 1.71 1.708 3.264-3.265 1.345 1.344-4.61 4.61z"/></svg>