<svg width="16" height="16" xmlns="http://www.w3.org/2000/svg" viewBox="0 0 16 16" shape-rendering="geometricPrecision"><defs><mask id="a"><rect fill="#fff" width="100%" height="100%"/><path d="M14.5 1.716L13-.37l-1.5 2.086-1.983-2.76-.836.01 1.89 6.812h4.86l1.883-6.792-.84-.013z"/></mask></defs><path fill="#FCC70A" d="M14.858 5.028H11.14L10 .914l.748 1.043.75 1.045.75-1.045L13 .914l.75 1.043.75 1.045.75-1.045L16 .914"/><path d="M1.185 13.668L3.513 16 8 11.514 12.487 16l2.326-2.33-6.818-6.815-6.81 6.813zM8 4.658l4.487 4.486 2.326-2.33L7.996 0l-6.81 6.813 2.327 2.33L8 4.66z" mask="url(#a)"/></svg>