<svg width="16" height="16" xmlns="http://www.w3.org/2000/svg" viewBox="0 0 16 16" shape-rendering="geometricPrecision"><defs><mask id="a"><rect fill="#fff" width="100%" height="100%"/><path d="M14.5 1.716L13-.37l-1.5 2.086-1.983-2.76-.836.01 1.89 6.812h4.86l1.883-6.792-.84-.013z"/></mask></defs><path fill="#FCC70A" d="M14.858 5.028H11.14L10 .914l.748 1.043.75 1.045.75-1.045L13 .914l.75 1.043.75 1.045.75-1.045L16 .914"/><path d="M12.933 2.584H3.067c-1.166 0-2.12.953-2.12 2.12v5.503c0 1.164.954 2.12 2.12 2.12h.987c.023.76-.2 1.757-1.224 2.673 2.905-.45 4.518-2.537 4.62-2.674h5.482c1.166 0 2.12-.955 2.12-2.12V4.704c0-1.166-.953-2.12-2.12-2.12zM4.495 8.746c-.71 0-1.288-.578-1.288-1.29 0-.71.577-1.286 1.288-1.286.71 0 1.288.576 1.288 1.287 0 .71-.577 1.29-1.288 1.29zm3.505 0c-.71 0-1.29-.578-1.29-1.29 0-.71.58-1.286 1.29-1.286.71 0 1.287.576 1.287 1.287 0 .71-.576 1.29-1.287 1.29zm3.505 0c-.71 0-1.288-.578-1.288-1.29 0-.71.577-1.286 1.288-1.286.71 0 1.288.576 1.288 1.287 0 .71-.577 1.29-1.288 1.29z" mask="url(#a)"/></svg>