<svg width="16" height="16" xmlns="http://www.w3.org/2000/svg" viewBox="0 0 16 16" shape-rendering="geometricPrecision"><defs><mask id="a"><rect fill="#fff" width="100%" height="100%"/><path d="M14.5 1.716L13-.37l-1.5 2.086-1.983-2.76-.836.01 1.89 6.812h4.86l1.883-6.792-.84-.013z"/></mask></defs><path fill="#FCC70A" d="M14.858 5.028H11.14L10 .914l.748 1.043.75 1.045.75-1.045L13 .914l.75 1.043.75 1.045.75-1.045L16 .914"/><path d="M11.805 2.414c.356-.906-.084-1.934-.99-2.293-.905-.363-1.93.075-2.3.977l-.53 1.317 3.292 1.32.53-1.32h-.002zM4.463 15.97l1.49-1.272-1.675-.668.185 1.94zm-.39-3.78l3.288 1.318 3.555-8.87-3.29-1.317-3.553 8.87z" mask="url(#a)"/></svg>