<svg width="16" height="16" xmlns="http://www.w3.org/2000/svg" viewBox="0 0 16 16" shape-rendering="geometricPrecision"><defs><mask id="a"><rect fill="#fff" width="100%" height="100%"/><path d="M14.5 1.716L13-.37l-1.5 2.086-1.983-2.76-.836.01 1.89 6.812h4.86l1.883-6.792-.84-.013z"/></mask></defs><path fill="#FCC70A" d="M14.858 5.028H11.14L10 .914l.748 1.043.75 1.045.75-1.045L13 .914l.75 1.043.75 1.045.75-1.045L16 .914"/><path d="M13.684 5.576h2.312L7.998 1 0 5.576h2.312V13.6H1.194v1.315h13.61V13.6h-1.12V5.575zM11.252 13.6H9.215V5.575h2.036V13.6zM4.745 5.575h2.037V13.6H4.745V5.575z" mask="url(#a)"/></svg>