<svg width="16" height="16" xmlns="http://www.w3.org/2000/svg" viewBox="0 0 16 16" shape-rendering="geometricPrecision"><defs><mask id="a"><rect fill="#fff" width="100%" height="100%"/><path d="M14.5 1.716L13-.37l-1.5 2.086-1.983-2.76-.836.01 1.89 6.812h4.86l1.883-6.792-.84-.013z"/></mask></defs><path fill="#FCC70A" d="M14.858 5.028H11.14L10 .914l.748 1.043.75 1.045.75-1.045L13 .914l.75 1.043.75 1.045.75-1.045L16 .914"/><g mask="url(#a)"><path d="M7.27 8.73H1.03c0 3.443 2.795 6.24 6.238 6.24h.002V8.73z"/><path d="M8.83.928c-3.442 0-6.237 2.793-6.238 6.236H4.45c0-2.417 1.962-4.38 4.38-4.38 2.42 0 4.382 1.964 4.382 4.38 0 2.42-1.96 4.382-4.378 4.384v1.857c3.443-.002 6.235-2.797 6.235-6.24C15.067 3.723 12.275.928 8.83.928zm2.344 6.237c0-1.292-1.05-2.342-2.344-2.342-1.293 0-2.34 1.05-2.342 2.34h2.346V9.51c1.29-.002 2.34-1.052 2.34-2.345z"/></g></svg>