<svg width="16" height="16" xmlns="http://www.w3.org/2000/svg" viewBox="0 0 16 16" shape-rendering="geometricPrecision"><defs><mask id="a"><rect fill="#fff" width="100%" height="100%"/><path d="M14.5 1.716L13-.37l-1.5 2.086-1.983-2.76-.836.01 1.89 6.812h4.86l1.883-6.792-.84-.013z"/></mask></defs><path fill="#FCC70A" d="M14.858 5.028H11.14L10 .914l.748 1.043.75 1.045.75-1.045L13 .914l.75 1.043.75 1.045.75-1.045L16 .914"/><path mask="url(#a)" d="M9.985 2L8.27 3.713l1.913 1.914h-.546l-.364.018c-4.608.196-8.3 3.993-8.3 8.646v.554h2.624v-.553c0-1.61.628-3.127 1.768-4.27 1.142-1.14 2.66-1.768 4.272-1.768h.552V8.25h.146L8.27 10.318l1.714 1.71L15 7.013 9.985 2z"/></svg>