<svg width="16" height="16" xmlns="http://www.w3.org/2000/svg" viewBox="0 0 16 16" shape-rendering="geometricPrecision"><defs><mask id="a"><rect fill="#fff" width="100%" height="100%"/><path d="M14.5 1.716L13-.37l-1.5 2.086-1.983-2.76-.836.01 1.89 6.812h4.86l1.883-6.792-.84-.013z"/></mask></defs><path fill="#FCC70A" d="M14.858 5.028H11.14L10 .914l.748 1.043.75 1.045.75-1.045L13 .914l.75 1.043.75 1.045.75-1.045L16 .914"/><g mask="url(#a)"><path d="M13.1 6.144c0-1.174-.952-2.124-2.124-2.124-1.176 0-2.125.95-2.125 2.124 0 1.175.95 2.124 2.126 2.124 1.172 0 2.124-.95 2.124-2.124zm-6.147 5.18v2.66h8.045v-2.66c0-1.126-.915-2.047-2.042-2.047H9.002c-1.127 0-2.05.92-2.05 2.047zM7.077 2.02h-4.97c-.587 0-1.067.48-1.067 1.067v2.77c0 .588.48 1.067 1.067 1.067h2.76c.053.07.865 1.12 2.328 1.347-.515-.46-.628-.962-.616-1.345h.497c.586 0 1.066-.48 1.066-1.066V3.086c0-.587-.48-1.067-1.066-1.067zM4.325 6.293H4.32c-.27 0-.458-.203-.458-.474 0-.28.192-.474.462-.474.28 0 .464.192.468.473 0 .27-.187.473-.467.473zm.63-1.94c-.193.214-.27.417-.266.65v.094h-.692l-.006-.135c-.015-.265.072-.535.307-.81.166-.203.3-.37.3-.547 0-.182-.12-.302-.38-.312-.17 0-.38.062-.513.156l-.177-.566c.192-.11.5-.214.868-.214.685 0 .997.38.997.812 0 .394-.243.654-.44.872z"/></g></svg>