<svg width="16" height="16" xmlns="http://www.w3.org/2000/svg" viewBox="0 0 16 16" shape-rendering="geometricPrecision" fill="#00962d"><defs><mask id="a"><rect fill="#fff" width="100%" height="100%"/><path fill="#000" d="M8.986 1.143H17v3.565H8.986z"/></mask></defs><path d="M9.986 2.143H16v1.565H9.986z" fill="#cb1800"/><path d="M8 1C4.132 1 1 4.135 1 8.003c.002 3.863 3.133 6.995 7 6.997 3.866-.002 7-3.134 7-6.997C15 4.135 11.866 1 8 1zm0 12.584c-3.084-.006-5.578-2.5-5.584-5.58C2.422 4.916 4.916 2.42 8 2.415c3.083.006 5.577 2.5 5.584 5.587-.007 3.08-2.5 5.575-5.585 5.58zm3.422-3.53L9.366 8l2.057-2.058-1.448-1.45L7.917 6.55 5.86 4.493 4.412 5.94 6.47 7.998l-2.06 2.058 1.45 1.45 2.06-2.058 2.055 2.057 1.447-1.45z" mask="url(#a)"/></svg>