<svg width="16" height="16" xmlns="http://www.w3.org/2000/svg" viewBox="0 0 16 16" shape-rendering="geometricPrecision" fill="#00962d"><defs><mask id="a"><rect fill="#fff" width="100%" height="100%"/><path fill="#000" d="M8.986 1.143H17v3.565H8.986z"/></mask></defs><path d="M9.986 2.143H16v1.565H9.986z" fill="#cb1800"/><path d="M13.03 11.953s-.89 0-1.015-.806c-.187-1.197-.66-4.542-.66-4.542h-.008c-.233-1.326-1.228-2.38-2.52-2.704 0-.02.01-.038.01-.06 0-.47-.38-.85-.85-.85s-.853.38-.853.85c0 .025.012.045.014.07-1.28.33-2.264 1.378-2.495 2.696h-.007s-.5 3.352-.663 4.557c-.106.79-1.014.79-1.014.79v1.032h2.133c.2.598.756 1.03 1.42 1.03s1.222-.433 1.42-1.03h5.087v-1.032z" mask="url(#a)"/></svg>