<svg width="16" height="16" xmlns="http://www.w3.org/2000/svg" viewBox="0 0 16 16" shape-rendering="geometricPrecision" fill="#00962d"><defs><mask id="a"><rect fill="#fff" width="100%" height="100%"/><path fill="#000" d="M8.986 1.143H17v3.565H8.986z"/></mask></defs><path d="M9.986 2.143H16v1.565H9.986z" fill="#cb1800"/><g mask="url(#a)"><path d="M13.237 5.237l-1.79 1.79-3.448-3.444-3.45 3.445-1.788-1.79L8.002 0M0 8v6.93h16V8H0zm14.413 5.495H1.588v-4.06h12.825v4.06zm-2.387-1.517c.52 0 .94-.416.94-.93 0-.515-.42-.93-.94-.93s-.94.415-.94.93c0 .513.42.93.94.93z"/></g></svg>