<svg width="16" height="16" xmlns="http://www.w3.org/2000/svg" viewBox="0 0 16 16" shape-rendering="geometricPrecision" fill="#6e6e6e"><defs><mask id="a"><rect fill="#fff" width="100%" height="100%"/><path d="M12.997.858c-1.845 0-3.446 1.04-4.253 2.563.808 1.524 2.408 2.563 4.253 2.563 1.844 0 3.444-1.04 4.253-2.562C16.44 1.898 14.84.86 12.997.86z" fill="#000"/></mask></defs><path d="M12.997 1.61c-1.303 0-2.433.734-3.003 1.81.57 1.076 1.7 1.81 3.003 1.81 1.302 0 2.432-.733 3.003-1.81-.57-1.075-1.7-1.81-3.003-1.81zm0 3.397c-.877 0-1.588-.71-1.588-1.586 0-.876.71-1.587 1.586-1.587.877 0 1.588.71 1.588 1.588 0 .877-.71 1.587-1.588 1.587z" fill="#cb1800"/><g mask="url(#a)"><path d="M12.99 8.003c0 2.754-2.234 4.99-4.99 4.99-2.757 0-4.99-2.236-4.99-4.99C3.006 5.246 5.24 3.01 7.997 3.01V.893C4.073.895.89 4.08.89 8.003c0 3.92 3.183 7.104 7.107 7.104 3.92 0 7.107-3.184 7.107-7.104H12.99z"/><path d="M8.94 7.062l.002 3.916h2.035l-.002-5.956-5.95.002-.002 2.035"/></g></svg>