<?xml version="1.0"?><!DOCTYPE svg PUBLIC "-//W3C//DTD SVG 1.1//EN" "http://www.w3.org/Graphics/SVG/1.1/DTD/svg11.dtd"><svg width="16px" height="16px" xmlns="http://www.w3.org/2000/svg" viewBox="0 0 16 16" shape-rendering="geometricPrecision" fill="#fff"><defs><mask id="move_right-path"><rect fill="#fff" width="100%" height="100%"/><polygon points="11.875,-1.414 9.405,1.056 11.44,3.095 9.405,5.132 11.875,7.604 16.385,3.093 " fill="#000"/></mask></defs><polygon points="11.875,0 10.818,1.057 12.853,3.095 10.818,5.132 11.875,6.189 14.97,3.093 " fill="#cb1800"/><g mask="url(#move_right-path)"><polygon points="2.131,11.885 2.131,7.242 4.785,9.896 8.542,6.138 10.522,8.119 14.088,4.554 13.168,3.635 10.523,6.276 9.463,5.217 9.472,5.208 8.552,4.288 4.784,8.053 2.14,5.411 2.131,5.421 2.131,3.738 1.037,3.738 1.037,12.98 1.834,12.978 1.834,12.98 14.963,12.98 14.963,11.885"/></g></svg>