<?xml version="1.0"?><!DOCTYPE svg PUBLIC "-//W3C//DTD SVG 1.1//EN" "http://www.w3.org/Graphics/SVG/1.1/DTD/svg11.dtd"><svg xmlns="http://www.w3.org/2000/svg" viewBox="0 0 16 16" shape-rendering="geometricPrecision" fill="#fff"><defs><mask id="move_right-path"><rect fill="#fff" width="100%" height="100%"/><polygon points="11.875,-1.414 9.405,1.056 11.44,3.095 9.405,5.132 11.875,7.604 16.385,3.093 " fill="#000"/></mask></defs><polygon points="11.875,0 10.818,1.057 12.853,3.095 10.818,5.132 11.875,6.189 14.97,3.093 " fill="#cb1800"/><path mask="url(#move_right-path)" d="M9.985,2L8.271,3.713l1.912,1.914H9.637L9.273,5.645c-4.608,0.196-8.3,3.993-8.3,8.646v0.553h2.624v-0.553 c0-1.611,0.628-3.128,1.768-4.271c1.142-1.14,2.659-1.768,4.272-1.768h0.552V8.25h0.147l-2.065,2.068l1.713,1.711L15,7.012L9.985,2 z"/></svg>
