<?xml version="1.0"?><!DOCTYPE svg PUBLIC "-//W3C//DTD SVG 1.1//EN" "http://www.w3.org/Graphics/SVG/1.1/DTD/svg11.dtd"><svg width="16px" height="16px" xmlns="http://www.w3.org/2000/svg" viewBox="0 0 16 16" shape-rendering="geometricPrecision" fill="#abb7ce"><defs><mask id="new-path"><rect fill="#fff" width="100%" height="100%"/><polygon points="19.079,1.436 14.165,1.436 12.649,-3.238 11.13,1.436 6.217,1.436 10.192,4.322 8.676,8.995 12.648,6.107 16.62,8.996 15.104,4.322 " fill="#000"/></mask></defs><polygon points="13.928,3.94 16,2.435 13.439,2.435 12.648,0 11.857,2.435 9.295,2.435 11.367,3.94 10.577,6.377 12.648,4.871 14.719,6.377 " fill="#cb1800"/><g mask="url(#new-path)"><path d="M8.004,1.011c-3.862,0-6.993,3.132-6.993,6.997c0.002,3.861,3.131,6.989,6.993,6.991 c3.863-0.002,6.995-3.13,6.995-6.991C14.999,4.143,11.867,1.011,8.004,1.011z M8.004,13.586c-3.08-0.008-5.572-2.499-5.578-5.578 c0.006-3.084,2.498-5.576,5.578-5.582c3.082,0.006,5.573,2.498,5.58,5.582C13.577,11.087,11.085,13.578,8.004,13.586z"/><g><path d="M3.904,8.345H4.63c0,0-0.023-0.2-0.023-0.353c0-0.127,0.023-0.373,0.023-0.373H3.904V6.72h0.877 c0.503-1.755,2.07-3.006,3.998-3.006c0.62,0,1.158,0.152,1.158,0.152L9.574,5.234c0,0-0.396-0.117-0.83-0.117 c-1.11,0-1.975,0.62-2.35,1.602h2.911L9.119,7.619H6.186c0,0-0.025,0.176-0.025,0.352c0,0.129,0.036,0.374,0.036,0.374h2.781 L8.803,9.233H6.465c0.362,0.993,1.263,1.637,2.338,1.637c0.607,0,1.124-0.176,1.124-0.176l0.268,1.379 c0,0-0.61,0.223-1.415,0.223c-1.999,0-3.52-1.25-3.998-3.062H3.904V8.345z"/></g></g></svg>