<?xml version="1.0"?><!DOCTYPE svg PUBLIC "-//W3C//DTD SVG 1.1//EN" "http://www.w3.org/Graphics/SVG/1.1/DTD/svg11.dtd"><svg width="16px" height="16px" xmlns="http://www.w3.org/2000/svg" viewBox="0 0 16 16" shape-rendering="geometricPrecision" fill="#abb7ce"><defs><mask id="new-path"><rect fill="#fff" width="100%" height="100%"/><polygon points="19.079,1.436 14.165,1.436 12.649,-3.238 11.13,1.436 6.217,1.436 10.192,4.322 8.676,8.995 12.648,6.107 16.62,8.996 15.104,4.322 " fill="#000"/></mask></defs><polygon points="13.928,3.94 16,2.435 13.439,2.435 12.648,0 11.857,2.435 9.295,2.435 11.367,3.94 10.577,6.377 12.648,4.871 14.719,6.377 " fill="#cb1800"/><g mask="url(#new-path)"><g><path d="M1.979,7.695c0-2.574,2.088-4.661,4.663-4.661h0.001V1.056H6.642c-3.665,0-6.641,2.975-6.641,6.64v0.002h1.978V7.695z M8.311,11.852c1.375,0,2.492-1.118,2.492-2.494c0-1.377-1.117-2.492-2.492-2.492V9.36H5.814 C5.816,10.735,6.934,11.852,8.311,11.852z M8.311,2.718v1.978c2.572,0,4.661,2.087,4.661,4.662c0,2.576-2.089,4.663-4.661,4.663 c-2.575,0-4.664-2.086-4.665-4.66H1.668c0.002,3.665,2.977,6.637,6.643,6.637c3.662,0,6.638-2.973,6.638-6.64 C14.948,5.693,11.974,2.718,8.311,2.718z"/></g></g></svg>