<?xml version="1.0"?><!DOCTYPE svg PUBLIC "-//W3C//DTD SVG 1.1//EN" "http://www.w3.org/Graphics/SVG/1.1/DTD/svg11.dtd"><svg xmlns="http://www.w3.org/2000/svg" viewBox="0 0 16 16" shape-rendering="geometricPrecision" fill="#24437c"><defs><mask id="accept-path"><rect fill="#fff" width="100%" height="100%"/><polygon points="14.671,-1.414 11.443,1.813 9.753,0.123 7.012,2.866 11.445,7.299 17.414,1.329 " fill="#000"/></mask></defs><polygon points="16,1.33 14.671,0 11.443,3.228 9.753,1.539 8.426,2.867 11.445,5.886 " fill="#cb1800"/><g mask="url(#accept-path)"><path d="M11.805,2.414c0.356-0.906-0.084-1.934-0.99-2.293C9.91-0.243,8.885,0.195,8.515,1.097l0,0L7.986,2.414 l3.291,1.321l0.531-1.321H11.805z M4.463,15.971l1.491-1.273l-1.676-0.668L4.463,15.971z M4.072,12.189l3.289,1.319l3.554-8.869 l-3.29-1.318L4.072,12.189z"/></g></svg>
