<?xml version="1.0"?><!DOCTYPE svg PUBLIC "-//W3C//DTD SVG 1.1//EN" "http://www.w3.org/Graphics/SVG/1.1/DTD/svg11.dtd"><svg width="16px" height="16px" xmlns="http://www.w3.org/2000/svg" viewBox="0 0 16 16" shape-rendering="geometricPrecision" fill="#24437c"><defs><mask id="accept-path"><rect fill="#fff" width="100%" height="100%"/><polygon points="14.671,-1.414 11.443,1.813 9.753,0.123 7.012,2.866 11.445,7.299 17.414,1.329 " fill="#000"/></mask></defs><polygon points="16,1.33 14.671,0 11.443,3.228 9.753,1.539 8.426,2.867 11.445,5.886 " fill="#cb1800"/><g mask="url(#accept-path)"><path d="M14.085,1.939c2.479,2.477,2.478,6.489,0.002,8.965c-2.15,2.153-5.458,2.432-7.916,0.847H6.162v2.125 L6.149,13.89H4.022v2.123H0.013v-4.014h0.01L0.02,11.994l3.574-3.573C2.863,6.216,3.368,3.691,5.122,1.94 C7.598-0.537,11.61-0.537,14.085,1.939z M10.157,5.867c0.78,0.78,2.043,0.779,2.824,0.002c0.779-0.78,0.779-2.043-0.001-2.823 c-0.78-0.779-2.041-0.779-2.822,0C9.379,3.825,9.379,5.09,10.157,5.867z"/></g></svg>