<?xml version="1.0"?><!DOCTYPE svg PUBLIC "-//W3C//DTD SVG 1.1//EN" "http://www.w3.org/Graphics/SVG/1.1/DTD/svg11.dtd"><svg width="16px" height="16px" xmlns="http://www.w3.org/2000/svg" viewBox="0 0 16 16" shape-rendering="geometricPrecision" fill="#24437c"><defs><mask id="accept-path"><rect fill="#fff" width="100%" height="100%"/><polygon points="14.671,-1.414 11.443,1.813 9.753,0.123 7.012,2.866 11.445,7.299 17.414,1.329 " fill="#000"/></mask></defs><polygon points="16,1.33 14.671,0 11.443,3.228 9.753,1.539 8.426,2.867 11.445,5.886 " fill="#cb1800"/><path mask="url(#accept-path)" d="M13.053,8.004c0.064-0.324,0.101-0.657,0.101-1c0-2.859-2.318-5.179-5.18-5.179 c-2.857,0-5.178,2.319-5.178,5.177h1.541c0.002-2.007,1.631-3.637,3.637-3.637c2.01,0,3.639,1.631,3.639,3.639 c0,0.35-0.065,0.681-0.157,1H9.636c0.177-0.293,0.285-0.633,0.285-1c0-1.074-0.873-1.946-1.947-1.946S6.03,5.93,6.03,7.004 c0,0.367,0.107,0.707,0.284,1H0.958v5.482h14.084V8.004H13.053z M11.377,10.745H4.622v-1.46h6.755V10.745z"/></svg>