<svg width="16" height="16" xmlns="http://www.w3.org/2000/svg" viewBox="0 0 16 16" shape-rendering="geometricPrecision" fill="#24437c"><defs><mask id="a"><rect fill="#fff" width="100%" height="100%"/><path fill="#000" d="M14.67-1.414l-3.227 3.227-1.69-1.69-2.74 2.743L11.444 7.3l5.97-5.97z"/></mask></defs><path fill="#cb1800" d="M16 1.33L14.67 0l-3.227 3.228-1.69-1.69-1.327 1.33 3.02 3.018"/><g mask="url(#a)"><path d="M13.826 1.99L8.8 1.996 1 9.794l5.038 5.038 7.8-7.8-.012-5.042zm-2.484 4c-.828 0-1.5-.672-1.5-1.5 0-.83.672-1.5 1.5-1.5s1.5.67 1.5 1.5-.672 1.5-1.5 1.5z"/><path d="M2.342 9.668L7.94 4.07l3.823 3.822-5.598 5.6z"/><path d="M3.873 9.85l4.263-4.263.72.718L4.59 10.57zM5.226 11.204L9.49 6.94l.717.72-4.263 4.262z"/></g></svg>