<svg width="16" height="16" xmlns="http://www.w3.org/2000/svg" viewBox="0 0 16 16" shape-rendering="geometricPrecision" fill="#cb1800"><defs><mask id="a"><rect fill="#fff" width="100%" height="100%"/><path fill="#000" d="M13.135-1H9.585v7.956H16V-1z"/></mask></defs><path d="M10.585 0h1.55v5.956h-1.55zM13.45 0H15v5.956h-1.55z"/><g mask="url(#a)"><path d="M8 .973c-3.865 0-6.997 3.133-6.997 7 0 3.862 3.132 6.992 6.996 6.994 3.864-.002 6.997-3.132 6.997-6.994 0-3.868-3.133-7-6.998-7zm0 12.58c-3.083-.007-5.576-2.5-5.582-5.58.006-3.085 2.5-5.58 5.58-5.585 3.083.006 5.577 2.5 5.583 5.585-.006 3.08-2.5 5.573-5.58 5.58zm.005-3.427c-.683 0-1.16.49-1.16 1.175 0 .672.464 1.173 1.147 1.173h.013c.698 0 1.148-.5 1.148-1.172-.01-.684-.462-1.174-1.148-1.174zm.736-.646l.287-5.845H6.974L7.27 9.48h1.47z"/></g></svg>