<?xml version="1.0"?><!DOCTYPE svg PUBLIC "-//W3C//DTD SVG 1.1//EN" "http://www.w3.org/Graphics/SVG/1.1/DTD/svg11.dtd"><svg width="16px" height="16px" xmlns="http://www.w3.org/2000/svg" viewBox="0 0 16 16" shape-rendering="geometricPrecision" fill="#cb1800"><defs><mask id="pause-path"><rect fill="#fff" width="100%" height="100%"/><polygon points="13.135,-1 12.45,-1 9.585,-1 9.585,6.956 12.45,6.956 13.135,6.956 16,6.956 16,-1 " fill="#000"/></mask></defs><g fill="#cb1800"><g><rect x="10.585" y="0" width="1.55" height="5.956"/></g><g><rect x="13.45" y="0" width="1.55" height="5.956"/></g></g><g mask="url(#pause-path)"><path d="M6.136,14.063l7.86-6.878l-3.255-1.741L6.136,14.063z M0,4.568l4.147,11.214l0.838-1.57l-1.421-3.844 l4.331-1.602l2.457-4.6l4.406,2.352l0.003-0.003l-2.411-6.517L0,4.568z M7.985,7.046l-4.97,1.838L2.618,7.81l4.97-1.839 L7.985,7.046z M12.058,3.044L2.204,6.688L1.806,5.614l9.854-3.646L12.058,3.044z"/></g></svg>