<?xml version="1.0"?><!DOCTYPE svg PUBLIC "-//W3C//DTD SVG 1.1//EN" "http://www.w3.org/Graphics/SVG/1.1/DTD/svg11.dtd"><svg xmlns="http://www.w3.org/2000/svg" viewBox="0 0 16 16" shape-rendering="geometricPrecision" fill="#cb1800"><defs><mask id="pause-path"><rect fill="#fff" width="100%" height="100%"/><polygon points="13.135,-1 12.45,-1 9.585,-1 9.585,6.956 12.45,6.956 13.135,6.956 16,6.956 16,-1 " fill="#000"/></mask></defs><g fill="#cb1800"><g><rect x="10.585" y="0" width="1.55" height="5.956"/></g><g><rect x="13.45" y="0" width="1.55" height="5.956"/></g></g><g mask="url(#pause-path)"><g><g><rect x="-0.001" y="8.59" width="7.406" height="7.41"/><g><g><path d="M8.555,8.59V16H16V8.59H8.555z M14.852,13.796l-1.063,1.061l-1.51-1.504l-1.511,1.504l-1.064-1.06l1.511-1.503 l-1.51-1.504l1.063-1.059l1.511,1.505l1.51-1.505l1.063,1.061l-1.511,1.502L14.852,13.796z"/></g></g></g><g><g><path d="M4.276,0.073v7.41h7.368v-7.41H4.276z M7.352,6.122L4.96,3.717l1.051-1.059L7.35,4.004l2.559-2.572l1.054,1.06 L7.352,6.122z"/></g></g></g></g></svg>
