<svg width="16" height="16" xmlns="http://www.w3.org/2000/svg" viewBox="0 0 16 16" shape-rendering="geometricPrecision" fill="#cb1800"><defs><mask id="a"><rect fill="#fff" width="100%" height="100%"/><path fill="#000" d="M13.135-1H9.585v7.956H16V-1z"/></mask></defs><path d="M10.585 0h1.55v5.956h-1.55zM13.45 0H15v5.956h-1.55z"/><path mask="url(#a)" d="M9.985 2L8.27 3.713l1.913 1.914h-.546l-.364.018c-4.608.196-8.3 3.993-8.3 8.646v.554h2.624v-.553c0-1.61.628-3.127 1.768-4.27 1.142-1.14 2.66-1.768 4.272-1.768h.552V8.25h.146L8.27 10.318l1.714 1.71L15 7.013 9.985 2z"/></svg>