<?xml version="1.0"?><!DOCTYPE svg PUBLIC "-//W3C//DTD SVG 1.1//EN" "http://www.w3.org/Graphics/SVG/1.1/DTD/svg11.dtd"><svg width="16px" height="16px" xmlns="http://www.w3.org/2000/svg" viewBox="0 0 16 16" shape-rendering="geometricPrecision" fill="#6e6e6e"><defs><mask id="decline-path"><rect fill="#fff" width="100%" height="100%"/><polygon points="17.414,1.215 14.79,-1.414 13.066,0.308 11.344,-1.414 8.717,1.213 10.439,2.934 8.715,4.656 11.345,7.284 13.067,5.562 14.789,7.285 17.414,4.655 15.693,2.935 " fill="#000"/></mask></defs><g fill="#cb1800"><polygon points="16,4.656 14.278,2.935 16,1.214 14.789,0.001 13.066,1.722 11.344,0.001 10.132,1.213 11.854,2.934 10.13,4.656 11.345,5.87 13.067,4.147 14.789,5.87 "/></g><g mask="url(#decline-path)"><rect x="6.394" y="4.686" width="0.844" height="0.844"/><rect x="7.238" y="5.529" width="0.844" height="0.844"/><rect x="6.394" y="6.373" width="0.844" height="0.845"/><rect x="7.238" y="7.218" width="0.844" height="0.844"/><rect x="6.394" y="8.062" width="0.844" height="0.844"/><rect x="7.238" y="8.905" width="0.844" height="0.844"/><rect x="6.394" y="9.749" width="0.844" height="0.845"/><rect x="6.394" y="11.437" width="0.844" height="0.844"/><rect x="6.394" y="13.126" width="0.844" height="0.844"/><rect x="6.374" y="2.179" width="1.709" height="1.662"/><path d="M6.886,5.904L6.886,5.904c0.309-0.81,0.309-0.81,0.535-1.403l0,0c0.124-0.326,0.002-0.705-0.308-0.892 C6.802,3.424,6.41,3.495,6.181,3.759h0C5.765,4.237,5.765,4.237,5.195,4.892l0.001,0.001c-0.038,0.044-0.073,0.09-0.104,0.142 C4.809,5.51,4.962,6.123,5.437,6.408C5.911,6.692,6.526,6.536,6.81,6.063C6.841,6.012,6.866,5.958,6.886,5.904z M6.527,4.588 C6.334,4.473,6.273,4.224,6.388,4.031C6.503,3.84,6.751,3.777,6.943,3.893c0.192,0.115,0.255,0.362,0.14,0.556 C6.968,4.639,6.719,4.701,6.527,4.588z"/><rect x="7.238" y="3.841" width="0.844" height="0.845"/><g><polygon points="10.055,14.302 12.595,11.964 10.055,11.964"/><path d="M2.595,1.016v13.969h6.008v-4.468h4.802V1.016H2.595z M12.034,9.043h-4.79v4.601H3.917V2.318h8.116V9.043z"/></g></g></svg>