<?xml version="1.0"?><!DOCTYPE svg PUBLIC "-//W3C//DTD SVG 1.1//EN" "http://www.w3.org/Graphics/SVG/1.1/DTD/svg11.dtd"><svg width="16px" height="16px" xmlns="http://www.w3.org/2000/svg" viewBox="0 0 16 16" shape-rendering="geometricPrecision" fill="#6e6e6e"><defs><mask id="decline-path"><rect fill="#fff" width="100%" height="100%"/><polygon points="17.414,1.215 14.79,-1.414 13.066,0.308 11.344,-1.414 8.717,1.213 10.439,2.934 8.715,4.656 11.345,7.284 13.067,5.562 14.789,7.285 17.414,4.655 15.693,2.935 " fill="#000"/></mask></defs><g fill="#cb1800"><polygon points="16,4.656 14.278,2.935 16,1.214 14.789,0.001 13.066,1.722 11.344,0.001 10.132,1.213 11.854,2.934 10.13,4.656 11.345,5.87 13.067,4.147 14.789,5.87 "/></g><g mask="url(#decline-path)"><circle cx="3.535" cy="5.213" r="1.794"/><path d="M4.351,7.858H2.712c-0.951,0-1.725,0.779-1.725,1.73v2.246h5.093V9.589 C6.081,8.638,5.301,7.858,4.351,7.858z"/><circle cx="12.465" cy="7.338" r="1.794"/><path d="M13.282,9.983h-1.639c-0.951,0-1.724,0.779-1.724,1.729v2.248h5.093v-2.248 C15.012,10.763,14.233,9.983,13.282,9.983z"/><circle cx="7.504" cy="3.228" r="1.794"/><path d="M10.05,9.851V7.603c0-0.949-0.778-1.729-1.73-1.729H6.682c-0.928,0-1.68,0.74-1.717,1.66 C5.853,7.8,6.506,8.614,6.506,9.589v0.262H10.05z"/></g></svg>