<svg width="16" height="16" xmlns="http://www.w3.org/2000/svg" viewBox="0 0 16 16" shape-rendering="geometricPrecision" fill="#6e6e6e"><defs><mask id="a"><rect fill="#fff" width="100%" height="100%"/><path fill="#000" d="M17.414 1.215l-2.624-2.63L13.066.31l-1.722-1.722-2.627 2.627 1.722 1.72-1.725 1.723 2.63 2.628 1.722-1.722 1.722 1.723 2.624-2.63-1.72-1.72z"/></mask></defs><path d="M16 4.656l-1.722-1.72L16 1.213 14.79 0l-1.724 1.722-1.722-1.72-1.212 1.21 1.722 1.722-1.724 1.722 1.215 1.214 1.722-1.723L14.79 5.87" fill="#cb1800"/><path d="M8.036 3.658c1.012 0 1.83-.822 1.83-1.828C9.866.818 9.048 0 8.036 0S6.204.818 6.204 1.83c0 1.006.82 1.828 1.832 1.828zm1.805 10.53V5.53H4.36v1.362h1.797v7.295H4.354V16h7.29v-1.813H9.842z" mask="url(#a)"/></svg>