<svg width="16" height="16" xmlns="http://www.w3.org/2000/svg" viewBox="0 0 16 16" shape-rendering="geometricPrecision" fill="#6e6e6e"><defs><mask id="a"><rect fill="#fff" width="100%" height="100%"/><path fill="#000" d="M17.414 1.215l-2.624-2.63L13.066.31l-1.722-1.722-2.627 2.627 1.722 1.72-1.725 1.723 2.63 2.628 1.722-1.722 1.722 1.723 2.624-2.63-1.72-1.72z"/></mask></defs><path d="M16 4.656l-1.722-1.72L16 1.213 14.79 0l-1.724 1.722-1.722-1.72-1.212 1.21 1.722 1.722-1.724 1.722 1.215 1.214 1.722-1.723L14.79 5.87" fill="#cb1800"/><path d="M8.032 4.168c.888 0 1.605-.72 1.605-1.603C9.637 1.677 8.92.96 8.032.96c-.888 0-1.606.718-1.606 1.605 0 .882.718 1.603 1.606 1.603zm1.583 9.235v-7.59H4.807v1.193h1.576v6.397h-1.58v1.59h6.394v-1.59H9.615z" mask="url(#a)"/></svg>