<svg width="16" height="16" xmlns="http://www.w3.org/2000/svg" viewBox="0 0 16 16" shape-rendering="geometricPrecision" fill="#6e6e6e"><defs><mask id="a"><rect fill="#fff" width="100%" height="100%"/><path fill="#000" d="M17.414 1.215l-2.624-2.63L13.066.31l-1.722-1.722-2.627 2.627 1.722 1.72-1.725 1.723 2.63 2.628 1.722-1.722 1.722 1.723 2.624-2.63-1.72-1.72z"/></mask></defs><path d="M16 4.656l-1.722-1.72L16 1.213 14.79 0l-1.724 1.722-1.722-1.72-1.212 1.21 1.722 1.722-1.724 1.722 1.215 1.214 1.722-1.723L14.79 5.87" fill="#cb1800"/><g mask="url(#a)"><path d="M10.56 10.525l-1.328-.154-1.106.753-1.104-.752-.046.006L8.35 15.33l1.664-1.83 2.382.71-1.3-4.69"/><path d="M12.17 5.086l.282-1.182-.996-.698-.298-1.178-1.207-.155L9.14.97 8 1.39 6.86.97l-.81.903-1.207.155-.3 1.178-.995.698.283 1.182-.557 1.08.8.916.008 1.215 1.135.44.572 1.073 1.21-.14 1.002.685 1.005-.686 1.208.138.57-1.072 1.135-.44.008-1.215.8-.914-.557-1.08zM8 9.56c-2.154 0-3.9-1.744-3.9-3.897C4.1 3.51 5.847 1.765 8 1.765c2.153 0 3.898 1.744 3.898 3.897s-1.745 3.9-3.9 3.9z"/><circle cx="8.03" cy="5.662" r="3.142"/><path d="M5.486 10.51l-.63-1.18-.034-.014-1.092 4.96 2.53-.907 1.337 1.316-1.186-4.282"/></g></svg>