<svg width="16" height="16" xmlns="http://www.w3.org/2000/svg" viewBox="0 0 16 16" shape-rendering="geometricPrecision" fill="#6e6e6e"><defs><mask id="a"><rect fill="#fff" width="100%" height="100%"/><path fill="#000" d="M17.414 1.215l-2.624-2.63L13.066.31l-1.722-1.722-2.627 2.627 1.722 1.72-1.725 1.723 2.63 2.628 1.722-1.722 1.722 1.723 2.624-2.63-1.72-1.72z"/></mask></defs><path d="M16 4.656l-1.722-1.72L16 1.213 14.79 0l-1.724 1.722-1.722-1.72-1.212 1.21 1.722 1.722-1.724 1.722 1.215 1.214 1.722-1.723L14.79 5.87" fill="#cb1800"/><g mask="url(#a)"><path d="M15.064 12.94l-.117-4.782c.02-.08.023-.198.023-.367v-.965c0-.724.06-3.2.06-4.044s-.724-.18-1.025.906c-.302 1.087-.785 4.527.06 4.588l.15.013-.11 4.652h.96zM3.276 5.17c0-.614-.21-2.737-.418-2.737-.21 0-.077 2.736-.23 2.736-.152 0-.286-2.694-.457-2.694h-.01c-.17 0-.304 2.693-.456 2.693s-.02-2.737-.228-2.737c-.21 0-.42 2.123-.42 2.736 0 .556.24 1.02.754 1.1l-.123 6.67h.958L2.52 6.27c.516-.08.756-.542.756-1.1zM8.27 3.085c-2.63 0-4.762 2.132-4.762 4.763 0 2.63 2.132 4.762 4.762 4.762 2.63 0 4.763-2.132 4.763-4.762 0-2.63-2.132-4.763-4.763-4.763zm0 8.096c-1.84 0-3.333-1.49-3.333-3.332 0-1.842 1.492-3.335 3.333-3.335 1.84 0 3.334 1.493 3.334 3.335 0 1.84-1.493 3.333-3.334 3.333z"/></g></svg>