<svg width="16" height="16" xmlns="http://www.w3.org/2000/svg" viewBox="0 0 16 16" shape-rendering="geometricPrecision" fill="#6e6e6e"><defs><mask id="a"><rect fill="#fff" width="100%" height="100%"/><path fill="#000" d="M17.414 1.215l-2.624-2.63L13.066.31l-1.722-1.722-2.627 2.627 1.722 1.72-1.725 1.723 2.63 2.628 1.722-1.722 1.722 1.723 2.624-2.63-1.72-1.72z"/></mask></defs><path d="M16 4.656l-1.722-1.72L16 1.213 14.79 0l-1.724 1.722-1.722-1.72-1.212 1.21 1.722 1.722-1.724 1.722 1.215 1.214 1.722-1.723L14.79 5.87" fill="#cb1800"/><path d="M2.27.963v13.97h11.46V.964H2.27zm5.746 1.633c1.475 0 2.665 1.194 2.665 2.665 0 1.478-1.19 2.667-2.664 2.667-1.47 0-2.667-1.19-2.667-2.666 0-1.47 1.195-2.664 2.666-2.664zm4.533 11.497H3.483v-2.996c0-1.268 1.032-2.306 2.3-2.306h4.458c1.268 0 2.308 1.04 2.308 2.307v2.996z" mask="url(#a)"/></svg>