<svg width="16" height="16" xmlns="http://www.w3.org/2000/svg" viewBox="0 0 16 16" shape-rendering="geometricPrecision" fill="#6e6e6e"><defs><mask id="a"><rect fill="#fff" width="100%" height="100%"/><path fill="#000" d="M17.414 1.215l-2.624-2.63L13.066.31l-1.722-1.722-2.627 2.627 1.722 1.72-1.725 1.723 2.63 2.628 1.722-1.722 1.722 1.723 2.624-2.63-1.72-1.72z"/></mask></defs><path d="M16 4.656l-1.722-1.72L16 1.213 14.79 0l-1.724 1.722-1.722-1.72-1.212 1.21 1.722 1.722-1.724 1.722 1.215 1.214 1.722-1.723L14.79 5.87" fill="#cb1800"/><g mask="url(#a)"><path d="M8.29 3.837H6.675V7.25h1.71c.637 0 1.126-.148 1.47-.448.344-.3.516-.728.516-1.285 0-1.12-.693-1.68-2.08-1.68z"/><path d="M8 0C3.582 0 0 3.582 0 8s3.582 8 8 8 8-3.582 8-8-3.582-8-8-8zm3.51 7.243c-.317.49-.753.845-1.305 1.066-.552.22-1.344.332-2.375.332H6.674v4.734h-1.57V2.446h3.46c1.043 0 1.873.28 2.493.844s.93 1.317.93 2.266c0 .635-.16 1.198-.477 1.687z"/></g></svg>