<?xml version="1.0"?><!DOCTYPE svg PUBLIC "-//W3C//DTD SVG 1.1//EN" "http://www.w3.org/Graphics/SVG/1.1/DTD/svg11.dtd"><svg xmlns="http://www.w3.org/2000/svg" viewBox="0 0 16 16" shape-rendering="geometricPrecision" fill="#6e6e6e"><defs><mask id="decline-path"><rect fill="#fff" width="100%" height="100%"/><polygon points="17.414,1.215 14.79,-1.414 13.066,0.308 11.344,-1.414 8.717,1.213 10.439,2.934 8.715,4.656 11.345,7.284 13.067,5.562 14.789,7.285 17.414,4.655 15.693,2.935 " fill="#000"/></mask></defs><g fill="#cb1800"><polygon points="16,4.656 14.278,2.935 16,1.214 14.789,0.001 13.066,1.722 11.344,0.001 10.132,1.213 11.854,2.934 10.13,4.656 11.345,5.87 13.067,4.147 14.789,5.87 "/></g><path mask="url(#decline-path)" d="M9.985,2L8.271,3.713l1.912,1.914H9.637L9.273,5.645c-4.608,0.196-8.3,3.993-8.3,8.646v0.553h2.624v-0.553 c0-1.611,0.628-3.128,1.768-4.271c1.142-1.14,2.659-1.768,4.272-1.768h0.552V8.25h0.147l-2.065,2.068l1.713,1.711L15,7.012L9.985,2 z"/></svg>
