<svg width="16" height="16" xmlns="http://www.w3.org/2000/svg" viewBox="0 0 16 16" shape-rendering="geometricPrecision" fill="#6e6e6e"><defs><mask id="a"><rect fill="#fff" width="100%" height="100%"/><path fill="#000" d="M17.414 1.215l-2.624-2.63L13.066.31l-1.722-1.722-2.627 2.627 1.722 1.72-1.725 1.723 2.63 2.628 1.722-1.722 1.722 1.723 2.624-2.63-1.72-1.72z"/></mask></defs><path d="M16 4.656l-1.722-1.72L16 1.213 14.79 0l-1.724 1.722-1.722-1.72-1.212 1.21 1.722 1.722-1.724 1.722 1.215 1.214 1.722-1.723L14.79 5.87" fill="#cb1800"/><path d="M9.76 2.438V1.03H6.24v1.408H2.717v1.917h10.565V2.438H9.76zM3.66 14.97h8.646V5.388H3.66v9.582zm6.164-8.075h1.016v6.567H9.824V6.895zm-2.35 0H8.49v6.567H7.475V6.895zm-2.35 0h1.017v6.567H5.126V6.895z" mask="url(#a)"/></svg>