<?xml version="1.0"?><!DOCTYPE svg PUBLIC "-//W3C//DTD SVG 1.1//EN" "http://www.w3.org/Graphics/SVG/1.1/DTD/svg11.dtd"><svg xmlns="http://www.w3.org/2000/svg" viewBox="0 0 16 16" shape-rendering="geometricPrecision" fill="#abb7ce"><defs><mask id="remove-path"><rect fill="#fff" width="100%" height="100%"/><rect x="8.986" y="1.143" width="8.014" height="3.565" fill="#000"/></mask></defs><g fill="#cb1800"><rect x="9.986" y="2.143" width="6.014" height="1.565"/></g><path mask="url(#remove-path)" d="M13.053,8.004c0.064-0.324,0.101-0.657,0.101-1c0-2.859-2.318-5.179-5.18-5.179 c-2.857,0-5.178,2.319-5.178,5.177h1.541c0.002-2.007,1.631-3.637,3.637-3.637c2.01,0,3.639,1.631,3.639,3.639 c0,0.35-0.065,0.681-0.157,1H9.636c0.177-0.293,0.285-0.633,0.285-1c0-1.074-0.873-1.946-1.947-1.946S6.03,5.93,6.03,7.004 c0,0.367,0.107,0.707,0.284,1H0.958v5.482h14.084V8.004H13.053z M11.377,10.745H4.622v-1.46h6.755V10.745z"/></svg>
