<svg width="16" height="16" xmlns="http://www.w3.org/2000/svg" viewBox="0 0 16 16" shape-rendering="geometricPrecision" fill="#ffad00"><defs><mask id="a"><rect fill="#fff" width="100%" height="100%"/><path fill="#000" d="M14.67-1.414l-3.227 3.227-1.69-1.69-2.74 2.743L11.444 7.3l5.97-5.97z"/></mask></defs><path fill="#cb1800" d="M16 1.33L14.67 0l-3.227 3.228-1.69-1.69-1.327 1.33 3.02 3.018"/><g mask="url(#a)"><circle cx="11.279" cy="12.205" r=".769"/><circle cx="11.279" cy="7.938" r=".769"/><path d="M2.042.948V14.93h11.94V.947H2.04zm10.812 12.854H3.17v-3.138h9.683v3.138zm0-4.323H3.17V6.396h9.683V9.48zM3.17 5.212V2.077h9.683v3.136H3.17z"/><circle cx="11.279" cy="3.672" r=".769"/></g></svg>