<svg width="16" height="16" xmlns="http://www.w3.org/2000/svg" viewBox="0 0 16 16" shape-rendering="geometricPrecision" fill="#ffad00"><defs><mask id="a"><rect fill="#fff" width="100%" height="100%"/><path fill="#000" d="M14.67-1.414l-3.227 3.227-1.69-1.69-2.74 2.743L11.444 7.3l5.97-5.97z"/></mask></defs><path fill="#cb1800" d="M16 1.33L14.67 0l-3.227 3.228-1.69-1.69-1.327 1.33 3.02 3.018"/><path d="M5.97 12.85l1.54-.58-1.132-1.008-.407 1.587zm4.752-7.578v-2.87H0V15.94H10.72V9.75l3.57-4.01-2.222-1.983-1.348 1.515zM9.618 6.514L6.74 9.748l2.22 1.983.658-.738v3.843H1.1V3.505h8.518v3.01zm5.884-4.373c-.61-.546-1.546-.492-2.096.114l-.792.89 2.222 1.984.796-.893h-.002c.538-.614.482-1.55-.128-2.094zM6.456 7.634H2.533v1.103h3.923V7.633zM4.863 5.29h-2.33v1.103h2.33V5.29z" mask="url(#a)"/></svg>