<?xml version="1.0"?><!DOCTYPE svg PUBLIC "-//W3C//DTD SVG 1.1//EN" "http://www.w3.org/Graphics/SVG/1.1/DTD/svg11.dtd"><svg width="16px" height="16px" xmlns="http://www.w3.org/2000/svg" viewBox="0 0 16 16" shape-rendering="geometricPrecision" fill="#ffad00"><defs><mask id="accept-path"><rect fill="#fff" width="100%" height="100%"/><polygon points="14.671,-1.414 11.443,1.813 9.753,0.123 7.012,2.866 11.445,7.299 17.414,1.329 " fill="#000"/></mask></defs><polygon points="16,1.33 14.671,0 11.443,3.228 9.753,1.539 8.426,2.867 11.445,5.886 " fill="#cb1800"/><g mask="url(#accept-path)"><g><path d="M8.036,3.658c1.012,0,1.83-0.822,1.83-1.828C9.866,0.818,9.048,0,8.036,0S6.204,0.818,6.204,1.83 C6.204,2.836,7.024,3.658,8.036,3.658z M9.841,14.187V5.531H4.36v1.361h1.797v7.295H4.354V16h7.291v-1.813H9.841z"/></g></g></svg>