<svg width="16" height="16" xmlns="http://www.w3.org/2000/svg" viewBox="0 0 16 16" shape-rendering="geometricPrecision" fill="#ffad00"><defs><mask id="a"><rect fill="#fff" width="100%" height="100%"/><path fill="#000" d="M14.67-1.414l-3.227 3.227-1.69-1.69-2.74 2.743L11.444 7.3l5.97-5.97z"/></mask></defs><path fill="#cb1800" d="M16 1.33L14.67 0l-3.227 3.228-1.69-1.69-1.327 1.33 3.02 3.018"/><path d="M8.036 3.658c1.012 0 1.83-.822 1.83-1.828C9.866.818 9.048 0 8.036 0S6.204.818 6.204 1.83c0 1.006.82 1.828 1.832 1.828zm1.805 10.53V5.53H4.36v1.362h1.797v7.295H4.354V16h7.29v-1.813H9.842z" mask="url(#a)"/></svg>