<svg width="16" height="16" xmlns="http://www.w3.org/2000/svg" viewBox="0 0 16 16" shape-rendering="geometricPrecision" fill="#ffad00"><defs><mask id="a"><rect fill="#fff" width="100%" height="100%"/><path fill="#000" d="M14.67-1.414l-3.227 3.227-1.69-1.69-2.74 2.743L11.444 7.3l5.97-5.97z"/></mask></defs><path fill="#cb1800" d="M16 1.33L14.67 0l-3.227 3.228-1.69-1.69-1.327 1.33 3.02 3.018"/><path d="M8 1C4.134 1 1 4.137 1 8.005 1.004 11.867 4.135 15 8 15c3.867 0 7-3.133 7-6.996C15 4.136 11.868 1 8 1zm.127 2.28c.554 0 1 .458 1 1.024 0 .562-.446 1.02-1 1.02-.553 0-1-.458-1-1.02 0-.566.447-1.024 1-1.024zm1.974 8.948H6.116v-1.015H7.1V7.136H6.12v-.76h2.996v4.838h.987v1.014z" mask="url(#a)"/></svg>