<svg width="16" height="16" xmlns="http://www.w3.org/2000/svg" viewBox="0 0 16 16" shape-rendering="geometricPrecision" fill="#00962d"><defs><mask id="a"><rect fill="#fff" width="100%" height="100%"/><path d="M12.997.858c-1.845 0-3.446 1.04-4.253 2.563.808 1.524 2.408 2.563 4.253 2.563 1.844 0 3.444-1.04 4.253-2.562C16.44 1.898 14.84.86 12.997.86z" fill="#000"/></mask></defs><path d="M12.997 1.61c-1.303 0-2.433.734-3.003 1.81.57 1.076 1.7 1.81 3.003 1.81 1.302 0 2.432-.733 3.003-1.81-.57-1.075-1.7-1.81-3.003-1.81zm0 3.397c-.877 0-1.588-.71-1.588-1.586 0-.876.71-1.587 1.586-1.587.877 0 1.588.71 1.588 1.588 0 .877-.71 1.587-1.588 1.587z" fill="#cb1800"/><g mask="url(#a)"><path d="M4.27 11.728l4.867-2.562L11.7 4.3 6.832 6.863 4.27 11.728zm2.96-4.47c.417-.417 1.094-.417 1.51 0 .42.42.42 1.096 0 1.513-.417.42-1.094.42-1.51 0-.42-.417-.42-1.094 0-1.51z"/><path d="M8 1.01c-3.86 0-6.99 3.13-6.99 6.993 0 3.858 3.13 6.985 6.99 6.986 3.86-.003 6.988-3.13 6.99-6.987C14.99 4.14 11.86 1.01 8 1.01zm1.145 12.445L8 12.31l-1.145 1.145c-2.16-.454-3.857-2.152-4.31-4.31L3.69 8 2.546 6.855C3 4.695 4.696 3 6.856 2.545L8 3.69l1.145-1.145c2.158.453 3.855 2.15 4.31 4.31L12.31 8l1.146 1.146c-.453 2.158-2.15 3.856-4.31 4.31z"/></g></svg>