<svg width="16" height="16" xmlns="http://www.w3.org/2000/svg" viewBox="0 0 16 16" shape-rendering="geometricPrecision" fill="#00962d"><defs><mask id="a"><rect fill="#fff" width="100%" height="100%"/><path d="M12.997.858c-1.845 0-3.446 1.04-4.253 2.563.808 1.524 2.408 2.563 4.253 2.563 1.844 0 3.444-1.04 4.253-2.562C16.44 1.898 14.84.86 12.997.86z" fill="#000"/></mask></defs><path d="M12.997 1.61c-1.303 0-2.433.734-3.003 1.81.57 1.076 1.7 1.81 3.003 1.81 1.302 0 2.432-.733 3.003-1.81-.57-1.075-1.7-1.81-3.003-1.81zm0 3.397c-.877 0-1.588-.71-1.588-1.586 0-.876.71-1.587 1.586-1.587.877 0 1.588.71 1.588 1.588 0 .877-.71 1.587-1.588 1.587z" fill="#cb1800"/><path d="M2.13 11.885V7.242l2.655 2.654 3.757-3.758 1.98 1.98 3.566-3.564-.92-.92-2.645 2.642-1.06-1.06.01-.008-.92-.92-3.77 3.765L2.14 5.41l-.01.01V3.74H1.038v9.242l.797-.002v.002h13.13v-1.095" mask="url(#a)"/></svg>