<svg width="16" height="16" xmlns="http://www.w3.org/2000/svg" viewBox="0 0 16 16" shape-rendering="geometricPrecision" fill="#00962d"><defs><mask id="a"><rect fill="#fff" width="100%" height="100%"/><path d="M12.997.858c-1.845 0-3.446 1.04-4.253 2.563.808 1.524 2.408 2.563 4.253 2.563 1.844 0 3.444-1.04 4.253-2.562C16.44 1.898 14.84.86 12.997.86z" fill="#000"/></mask></defs><path d="M12.997 1.61c-1.303 0-2.433.734-3.003 1.81.57 1.076 1.7 1.81 3.003 1.81 1.302 0 2.432-.733 3.003-1.81-.57-1.075-1.7-1.81-3.003-1.81zm0 3.397c-.877 0-1.588-.71-1.588-1.586 0-.876.71-1.587 1.586-1.587.877 0 1.588.71 1.588 1.588 0 .877-.71 1.587-1.588 1.587z" fill="#cb1800"/><g mask="url(#a)"><circle cx="3.535" cy="5.213" r="1.794"/><path d="M4.35 7.858H2.713c-.95 0-1.725.78-1.725 1.73v2.246H6.08V9.59c0-.952-.78-1.732-1.73-1.732z"/><circle cx="12.465" cy="7.338" r="1.794"/><path d="M13.282 9.983h-1.64c-.95 0-1.723.78-1.723 1.73v2.247h5.092v-2.248c0-.95-.78-1.73-1.73-1.73z"/><circle cx="7.504" cy="3.228" r="1.794"/><path d="M10.05 9.85V7.604c0-.95-.778-1.73-1.73-1.73H6.682c-.928 0-1.68.74-1.717 1.66.888.267 1.54 1.08 1.54 2.056v.26h3.545z"/></g></svg>