<svg width="16" height="16" xmlns="http://www.w3.org/2000/svg" viewBox="0 0 16 16" shape-rendering="geometricPrecision" fill="#00962d"><defs><mask id="a"><rect fill="#fff" width="100%" height="100%"/><path d="M12.997.858c-1.845 0-3.446 1.04-4.253 2.563.808 1.524 2.408 2.563 4.253 2.563 1.844 0 3.444-1.04 4.253-2.562C16.44 1.898 14.84.86 12.997.86z" fill="#000"/></mask></defs><path d="M12.997 1.61c-1.303 0-2.433.734-3.003 1.81.57 1.076 1.7 1.81 3.003 1.81 1.302 0 2.432-.733 3.003-1.81-.57-1.075-1.7-1.81-3.003-1.81zm0 3.397c-.877 0-1.588-.71-1.588-1.586 0-.876.71-1.587 1.586-1.587.877 0 1.588.71 1.588 1.588 0 .877-.71 1.587-1.588 1.587z" fill="#cb1800"/><g mask="url(#a)"><path d="M8.29 3.837H6.675V7.25h1.71c.637 0 1.126-.148 1.47-.448.344-.3.516-.728.516-1.285 0-1.12-.693-1.68-2.08-1.68z"/><path d="M8 0C3.582 0 0 3.582 0 8s3.582 8 8 8 8-3.582 8-8-3.582-8-8-8zm3.51 7.243c-.317.49-.753.845-1.305 1.066-.552.22-1.344.332-2.375.332H6.674v4.734h-1.57V2.446h3.46c1.043 0 1.873.28 2.493.844s.93 1.317.93 2.266c0 .635-.16 1.198-.477 1.687z"/></g></svg>