<svg width="16" height="16" xmlns="http://www.w3.org/2000/svg" viewBox="0 0 16 16" shape-rendering="geometricPrecision" fill="#00962d"><defs><mask id="a"><rect fill="#fff" width="100%" height="100%"/><path d="M12.997.858c-1.845 0-3.446 1.04-4.253 2.563.808 1.524 2.408 2.563 4.253 2.563 1.844 0 3.444-1.04 4.253-2.562C16.44 1.898 14.84.86 12.997.86z" fill="#000"/></mask></defs><path d="M12.997 1.61c-1.303 0-2.433.734-3.003 1.81.57 1.076 1.7 1.81 3.003 1.81 1.302 0 2.432-.733 3.003-1.81-.57-1.075-1.7-1.81-3.003-1.81zm0 3.397c-.877 0-1.588-.71-1.588-1.586 0-.876.71-1.587 1.586-1.587.877 0 1.588.71 1.588 1.588 0 .877-.71 1.587-1.588 1.587z" fill="#cb1800"/><g mask="url(#a)"><path d="M2.138 11.963c.624 0 1.128-.506 1.128-1.13 0-.622-.504-1.128-1.128-1.128-.623 0-1.13.506-1.13 1.128 0 .624.507 1.13 1.13 1.13zm1.05.536H1.084c-.6 0-1.085.49-1.085 1.087V15h4.276v-1.413c0-.598-.49-1.088-1.09-1.088zM13.862 11.963c.626 0 1.13-.506 1.13-1.13 0-.622-.504-1.128-1.13-1.128-.623 0-1.128.506-1.128 1.128 0 .624.505 1.13 1.128 1.13zm1.05.536H12.81c-.6 0-1.086.49-1.086 1.087V15H16v-1.413c0-.598-.49-1.088-1.09-1.088zM8.018 2.257c.624 0 1.128-.505 1.128-1.13S8.642 0 8.018 0c-.624 0-1.13.504-1.13 1.128s.506 1.13 1.13 1.13zm1.05.537H6.964c-.6 0-1.085.49-1.085 1.088v1.413h4.276V3.882c0-.6-.49-1.088-1.09-1.088zM8.528 6.99V5.984h-1.02V6.99H1.984v1.984H3.04V8h9.973v.973h.945V6.99"/></g></svg>