<svg width="16" height="16" xmlns="http://www.w3.org/2000/svg" viewBox="0 0 16 16" shape-rendering="geometricPrecision" fill="#00962d"><defs><mask id="a"><rect fill="#fff" width="100%" height="100%"/><path d="M12.997.858c-1.845 0-3.446 1.04-4.253 2.563.808 1.524 2.408 2.563 4.253 2.563 1.844 0 3.444-1.04 4.253-2.562C16.44 1.898 14.84.86 12.997.86z" fill="#000"/></mask></defs><path d="M12.997 1.61c-1.303 0-2.433.734-3.003 1.81.57 1.076 1.7 1.81 3.003 1.81 1.302 0 2.432-.733 3.003-1.81-.57-1.075-1.7-1.81-3.003-1.81zm0 3.397c-.877 0-1.588-.71-1.588-1.586 0-.876.71-1.587 1.586-1.587.877 0 1.588.71 1.588 1.588 0 .877-.71 1.587-1.588 1.587z" fill="#cb1800"/><path d="M11.23 3.39c.003-.046.01-.09.01-.136 0-1.79-1.452-3.242-3.243-3.242-1.387 0-2.57.875-3.03 2.104l1.31.4c.286-.665.948-1.134 1.72-1.134 1.033 0 1.873.837 1.873 1.872 0 .525-.222 1-.57 1.34-.582.622-1.03.622-2.175 1.236-1.824.984-2.27 2.51-2.366 3.414v6.744h6.48V3.39h-.01zM7.446 15.148l-2.33-2.328 1.024-1.024L7.44 13.1l2.492-2.49 1.024 1.026-3.513 3.512z" mask="url(#a)"/></svg>