<svg width="16" height="16" xmlns="http://www.w3.org/2000/svg" viewBox="0 0 16 16" shape-rendering="geometricPrecision" fill="#ffad00"><defs><mask id="a"><rect fill="#fff" width="100%" height="100%"/><path fill="#000" d="M14.5 1.716L13-.37l-1.5 2.086-1.983-2.76-.836.01 1.89 6.812h4.86l1.883-6.792-.84-.013z"/></mask></defs><path fill="#FCC70A" d="M14.858 5.028H11.14L10 .914l.748 1.043.75 1.045.75-1.045L13 .914l.75 1.043.75 1.045.75-1.045L16 .914"/><g mask="url(#a)"><path d="M11.17 3.472L9.52 5.124l3.175 3.178-3.176 3.18 1.65 1.65L16 8.304M0 1.67V14.17l6.4 1.83V2.436L3.728 1.67h4.06V14.7h1.067V.605H0V1.67zm1 .236l4.4 1.282v11.564L1 13.47V1.906z"/></g></svg>