<svg width="16" height="16" xmlns="http://www.w3.org/2000/svg" viewBox="0 0 16 16" shape-rendering="geometricPrecision" fill="#ffad00"><defs><mask id="a"><rect fill="#fff" width="100%" height="100%"/><path fill="#000" d="M14.5 1.716L13-.37l-1.5 2.086-1.983-2.76-.836.01 1.89 6.812h4.86l1.883-6.792-.84-.013z"/></mask></defs><path fill="#FCC70A" d="M14.858 5.028H11.14L10 .914l.748 1.043.75 1.045.75-1.045L13 .914l.75 1.043.75 1.045.75-1.045L16 .914"/><path d="M8 .973c-3.865 0-6.997 3.133-6.997 7 0 3.862 3.132 6.992 6.996 6.994 3.864-.002 6.997-3.132 6.997-6.994 0-3.868-3.133-7-6.998-7zm0 12.58c-3.083-.007-5.576-2.5-5.582-5.58.006-3.085 2.5-5.58 5.58-5.585 3.083.006 5.577 2.5 5.583 5.585-.006 3.08-2.5 5.573-5.58 5.58zm.005-3.427c-.683 0-1.16.49-1.16 1.175 0 .672.464 1.173 1.147 1.173h.013c.698 0 1.148-.5 1.148-1.172-.01-.684-.462-1.174-1.148-1.174zm.736-.646l.287-5.845H6.974L7.27 9.48h1.47z" mask="url(#a)"/></svg>