<svg width="16" height="16" xmlns="http://www.w3.org/2000/svg" viewBox="0 0 16 16" shape-rendering="geometricPrecision" fill="#ffad00"><defs><mask id="a"><rect fill="#fff" width="100%" height="100%"/><path fill="#000" d="M14.5 1.716L13-.37l-1.5 2.086-1.983-2.76-.836.01 1.89 6.812h4.86l1.883-6.792-.84-.013z"/></mask></defs><path fill="#FCC70A" d="M14.858 5.028H11.14L10 .914l.748 1.043.75 1.045.75-1.045L13 .914l.75 1.043.75 1.045.75-1.045L16 .914"/><g mask="url(#a)"><path d="M12.127 5.803l-2.94 2.94c.372.335.61.817.61 1.358 0 1.016-.82 1.84-1.836 1.84s-1.836-.824-1.836-1.84c0-.56.256-1.055.652-1.392L3.834 5.765C2.688 6.857 1.97 8.395 1.97 10.102c0 3.31 2.682 5.99 5.99 5.99 3.31 0 5.992-2.682 5.992-5.99 0-1.69-.702-3.21-1.825-4.3z"/><path d="M4.004 0L1.93 2.076 7.996 8.15l6.075-6.074L11.998 0 8 3.995 4.005 0z"/></g></svg>