<svg width="16" height="16" xmlns="http://www.w3.org/2000/svg" viewBox="0 0 16 16" shape-rendering="geometricPrecision" fill="#ffad00"><defs><mask id="a"><rect fill="#fff" width="100%" height="100%"/><path fill="#000" d="M14.5 1.716L13-.37l-1.5 2.086-1.983-2.76-.836.01 1.89 6.812h4.86l1.883-6.792-.84-.013z"/></mask></defs><path fill="#FCC70A" d="M14.858 5.028H11.14L10 .914l.748 1.043.75 1.045.75-1.045L13 .914l.75 1.043.75 1.045.75-1.045L16 .914"/><g mask="url(#a)"><path d="M1 8.003C1 4.135 4.136 1 8 1V2.418c-3.082.006-5.577 2.5-5.583 5.586.007 3.08 2.5 5.574 5.584 5.58 3.084-.006 5.577-2.5 5.584-5.58-.006-3.086-2.5-5.58-5.583-5.586V1c3.866 0 7 3.135 7 7.003-.002 3.863-3.134 6.994-7 6.996-3.865-.003-7-3.134-7-6.997z"/><path d="M8.463 8l-2.92 2.923 1.516 1.514 4.437-4.44L7.06 3.563 5.542 5.08"/></g></svg>