<svg width="16" height="16" xmlns="http://www.w3.org/2000/svg" viewBox="0 0 16 16" shape-rendering="geometricPrecision" fill="#ffad00"><defs><mask id="a"><rect fill="#fff" width="100%" height="100%"/><path fill="#000" d="M14.5 1.716L13-.37l-1.5 2.086-1.983-2.76-.836.01 1.89 6.812h4.86l1.883-6.792-.84-.013z"/></mask></defs><path fill="#FCC70A" d="M14.858 5.028H11.14L10 .914l.748 1.043.75 1.045.75-1.045L13 .914l.75 1.043.75 1.045.75-1.045L16 .914"/><path d="M8.41 6.155l6.188.002-.002-6.185h-2.114l-.002 2.695C9.548.404 5.354.555 2.69 3.217c-2.895 2.895-2.832 7.604.086 10.53 2.93 2.918 7.635 2.98 10.533.09 1.424-1.426 2.14-3.31 2.137-5.19h-2.094c0 1.356-.507 2.69-1.525 3.71-2.058 2.05-5.443 2.036-7.572-.09C2.13 10.14 2.12 6.754 4.17 4.698 5.943 2.923 8.71 2.7 10.803 4.04H8.41v2.113z" mask="url(#a)"/></svg>