<svg width="16" height="16" xmlns="http://www.w3.org/2000/svg" viewBox="0 0 16 16" shape-rendering="geometricPrecision" fill="#ffad00"><defs><mask id="a"><rect fill="#fff" width="100%" height="100%"/><path fill="#000" d="M14.5 1.716L13-.37l-1.5 2.086-1.983-2.76-.836.01 1.89 6.812h4.86l1.883-6.792-.84-.013z"/></mask></defs><path fill="#FCC70A" d="M14.858 5.028H11.14L10 .914l.748 1.043.75 1.045.75-1.045L13 .914l.75 1.043.75 1.045.75-1.045L16 .914"/><g mask="url(#a)"><path d="M13.237 5.237l-1.79 1.79-3.448-3.444-3.45 3.445-1.788-1.79L8.002 0M0 8v6.93h16V8H0zm14.413 5.495H1.588v-4.06h12.825v4.06zm-2.387-1.517c.52 0 .94-.416.94-.93 0-.515-.42-.93-.94-.93s-.94.415-.94.93c0 .513.42.93.94.93z"/></g></svg>