<svg width="16" height="16" xmlns="http://www.w3.org/2000/svg" viewBox="0 0 16 16" shape-rendering="geometricPrecision" fill="#ffad00"><defs><mask id="a"><rect fill="#fff" width="100%" height="100%"/><path fill="#000" d="M14.5 1.716L13-.37l-1.5 2.086-1.983-2.76-.836.01 1.89 6.812h4.86l1.883-6.792-.84-.013z"/></mask></defs><path fill="#FCC70A" d="M14.858 5.028H11.14L10 .914l.748 1.043.75 1.045.75-1.045L13 .914l.75 1.043.75 1.045.75-1.045L16 .914"/><g mask="url(#a)"><path d="M.995 14.002L14.01.998l.996.997L1.99 15zM7.59 3.71v2.12l2.124-2.12M3.29 8.548v1.578l1.58-1.578M6.394 12.106l-.61.61h.61M10.694 12.716V7.81l-3.104 3.1v1.806M3.5 15h11.495v-1.1H4.6M11.892 6.612v6.104h3.103v-6.28H12.07M2.095 11.317v-5.61h-1.1v7.142l.002-.435"/><path d="M.995 15h.996l-.995-.995"/></g></svg>