<?xml version="1.0"?><!DOCTYPE svg PUBLIC "-//W3C//DTD SVG 1.1//EN" "http://www.w3.org/Graphics/SVG/1.1/DTD/svg11.dtd"><svg width="16px" height="16px" xmlns="http://www.w3.org/2000/svg" viewBox="0 0 16 16" shape-rendering="geometricPrecision" fill="#ffad00"><defs><mask id="move_up-path"><rect fill="#fff" width="100%" height="100%"/><polygon points="12.892,-0.396 8.385,4.114 10.856,6.585 12.894,4.549 14.931,6.584 17.404,4.114 " fill="#000"/></mask></defs><polygon points="12.894,3.136 14.931,5.171 15.989,4.114 12.892,1.018 9.799,4.114 10.856,5.171 " fill="#cb1800"/><g mask="url(#move_up-path)"><circle cx="11.279" cy="12.205" r="0.769"/><circle cx="11.279" cy="7.938" r="0.769"/><path d="M2.042,0.948v4.265v1.185v3.082v1.185v4.265h11.939v-4.265V9.479V6.397V5.213V0.948H2.042z M12.854,13.802H3.171v-3.138h9.682V13.802z M12.854,9.479H3.171V6.397h9.682V9.479z M3.171,5.213V2.077h9.682v3.136H3.171z"/><circle cx="11.279" cy="3.672" r="0.769"/></g></svg>