<?xml version="1.0"?><!DOCTYPE svg PUBLIC "-//W3C//DTD SVG 1.1//EN" "http://www.w3.org/Graphics/SVG/1.1/DTD/svg11.dtd"><svg xmlns="http://www.w3.org/2000/svg" viewBox="0 0 16 16" shape-rendering="geometricPrecision" fill="#ffad00"><defs><mask id="move_up-path"><rect fill="#fff" width="100%" height="100%"/><polygon points="12.892,-0.396 8.385,4.114 10.856,6.585 12.894,4.549 14.931,6.584 17.404,4.114 " fill="#000"/></mask></defs><polygon points="12.894,3.136 14.931,5.171 15.989,4.114 12.892,1.018 9.799,4.114 10.856,5.171 " fill="#cb1800"/><g mask="url(#move_up-path)"><g><path d="M4.271,11.728l4.866-2.562l2.562-4.866L6.833,6.863L4.271,11.728z M7.229,7.259c0.418-0.418,1.095-0.418,1.512,0 c0.418,0.418,0.418,1.095,0,1.512c-0.418,0.418-1.095,0.418-1.512,0C6.811,8.353,6.811,7.676,7.229,7.259z"/><path d="M8.001,1.01c-3.861,0-6.99,3.13-6.99,6.993c0,3.858,3.13,6.985,6.99,6.986c3.86-0.002,6.987-3.129,6.989-6.986 C14.99,4.14,11.861,1.01,8.001,1.01z M9.145,13.455L8,12.31l-1.145,1.145c-2.159-0.454-3.857-2.152-4.31-4.309L3.69,8 L2.546,6.855C3,4.696,4.697,2.999,6.855,2.545L8,3.69l1.145-1.145C11.303,2.998,13,4.696,13.455,6.855L12.31,8l1.146,1.146 C13.003,11.304,11.305,13.002,9.145,13.455z"/></g></g></svg>
