<svg width="16" height="16" xmlns="http://www.w3.org/2000/svg" viewBox="0 0 16 16" shape-rendering="geometricPrecision" fill="#ffad00"><defs><mask id="a"><rect fill="#fff" width="100%" height="100%"/><path fill="#000" d="M12.892-.396l-4.507 4.51 2.47 2.47 2.04-2.035 2.036 2.034 2.474-2.47z"/></mask></defs><path fill="#cb1800" d="M12.894 3.136L14.93 5.17l1.06-1.056-3.098-3.096L9.8 4.114l1.056 1.057"/><path d="M8 1C4.134 1 1 4.137 1 8.005 1.004 11.867 4.135 15 8 15c3.867 0 7-3.133 7-6.996C15 4.136 11.868 1 8 1zm.127 2.28c.554 0 1 .458 1 1.024 0 .562-.446 1.02-1 1.02-.553 0-1-.458-1-1.02 0-.566.447-1.024 1-1.024zm1.974 8.948H6.116v-1.015H7.1V7.136H6.12v-.76h2.996v4.838h.987v1.014z" mask="url(#a)"/></svg>