<svg width="16" height="16" xmlns="http://www.w3.org/2000/svg" viewBox="0 0 16 16" shape-rendering="geometricPrecision" fill="#ffad00"><defs><mask id="a"><rect fill="#fff" width="100%" height="100%"/><path fill="#000" d="M12.892-.396l-4.507 4.51 2.47 2.47 2.04-2.035 2.036 2.034 2.474-2.47z"/></mask></defs><path fill="#cb1800" d="M12.894 3.136L14.93 5.17l1.06-1.056-3.098-3.096L9.8 4.114l1.056 1.057"/><g mask="url(#a)"><path d="M6.55 6.983c1.628 0 2.94-1.314 2.94-2.94S8.18 1.106 6.55 1.106c-1.622 0-2.938 1.314-2.938 2.94s1.317 2.938 2.94 2.938zM9.366 13.378l-.402-3.99.41-1c-.03 0-.06-.008-.09-.008H3.81C2.253 8.38.986 9.655.986 11.212v3.684h11.133v-3.684c0-.05-.013-.1-.016-.152l-2.736 2.318z"/><path d="M14.93 2.83c.246-.632-.06-1.35-.69-1.597-.63-.256-1.346.05-1.604.68l-.368.918 2.292.92.37-.92zm-5.117 9.446l1.04-.887-1.17-.468.13 1.354zM9.54 9.642l2.292.92L14.31 4.38l-2.293-.918-2.476 6.18z"/></g></svg>