<svg width="16" height="16" xmlns="http://www.w3.org/2000/svg" viewBox="0 0 16 16" shape-rendering="geometricPrecision" fill="#ffad00"><defs><mask id="a"><rect fill="#fff" width="100%" height="100%"/><path fill="#000" d="M12.892-.396l-4.507 4.51 2.47 2.47 2.04-2.035 2.036 2.034 2.474-2.47z"/></mask></defs><path fill="#cb1800" d="M12.894 3.136L14.93 5.17l1.06-1.056-3.098-3.096L9.8 4.114l1.056 1.057"/><path d="M1.02 1.02v2.617c3.138 0 5.965 1.267 8.022 3.32 2.054 2.06 3.32 4.885 3.32 8.02h2.618C14.978 7.27 8.73 1.023 1.02 1.02zm0 4.71V8.34c3.665.008 6.63 2.973 6.636 6.637h2.616c0-5.11-4.142-9.25-9.25-9.25zM2.9 11.22c-1.04 0-1.88.84-1.88 1.877 0 1.038.842 1.88 1.88 1.88 1.038 0 1.878-.842 1.878-1.88 0-1.04-.84-1.878-1.878-1.878z" mask="url(#a)"/></svg>