<svg width="16" height="16" xmlns="http://www.w3.org/2000/svg" viewBox="0 0 16 16" shape-rendering="geometricPrecision" fill="#ffad00"><defs><mask id="a"><rect fill="#fff" width="100%" height="100%"/><path fill="#000" d="M12.892-.396l-4.507 4.51 2.47 2.47 2.04-2.035 2.036 2.034 2.474-2.47z"/></mask></defs><path fill="#cb1800" d="M12.894 3.136L14.93 5.17l1.06-1.056-3.098-3.096L9.8 4.114l1.056 1.057"/><g mask="url(#a)"><path d="M2.02 8.002c0 3.234 2.583 5.877 5.793 5.976V8.104L2.423 5.85c-.267.688-.402 1.41-.402 2.152zM5.608 2.526c-1.006.442-1.886 1.166-2.516 2.07l4.456 2.73-1.94-4.8zM8 2.022c-.343 0-.693.03-1.044.095L8.31 7.905l.787 5.967c2.8-.52 4.88-3 4.88-5.87.002-3.298-2.68-5.98-5.977-5.98z"/></g></svg>