<svg width="16" height="16" xmlns="http://www.w3.org/2000/svg" viewBox="0 0 16 16" shape-rendering="geometricPrecision" fill="#cb1800"><defs><mask id="a"><rect fill="#fff" width="100%" height="100%"/><path d="M17.514 2.67l-.862-.55L16.65-1h-2.866v.558c-1.334-.3-2.758.103-3.723 1.067-1.568 1.57-1.553 4.14.036 5.732.78.777 1.81 1.205 2.9 1.205 1.072 0 2.078-.415 2.832-1.168C16.585 5.64 17 4.63 17 3.557V2.67h.514zm-3.373.888c0 .22-.057.54-.332.813-.443.444-1.23.427-1.69-.034-.475-.475-.49-1.234-.036-1.69.01-.01.02-.02.033-.03v.922h2.026v.02z" fill="#000"/></mask></defs><path d="M13.114 2.537h2.538V0h-.868v1.105c-1.204-.927-2.924-.863-4.016.227-1.187 1.188-1.162 3.12.035 4.317 1.2 1.197 3.13 1.223 4.32.036.584-.584.878-1.357.877-2.128h-.86c0 .558-.207 1.103-.626 1.522-.843.842-2.23.836-3.104-.036-.87-.872-.877-2.26-.035-3.105.73-.728 1.86-.82 2.72-.27h-.982v.867z"/><g mask="url(#a)"><path d="M15.63 6.403c-.384-.15-.654-.524-.654-.96 0-.435.27-.81.655-.96l.316-.133.002.003c.115-.05.168-.182.12-.296v-.002-.002l-.24-.58-.367-.888c-.01-.027-.038-.038-.057-.058-.062-.065-.148-.102-.236-.065l-.317.132c-.375.167-.83.095-1.14-.216-.306-.307-.377-.763-.213-1.142L13.63.92c.045-.115-.01-.246-.123-.295L12.04.017c-.115-.048-.247.005-.293.122l-.135.316c-.15.383-.522.654-.957.654-.434 0-.807-.27-.956-.653l-.135-.32c-.05-.114-.18-.167-.295-.12l-1.466.61c-.115.047-.17.178-.123.294l.13.32c.168.375.096.83-.212 1.14-.308.308-.762.378-1.14.215v.002l-.316-.135c-.114-.045-.248.01-.295.124L5.24 4.054c-.048.116.01.25.122.297l.317.135c.38.15.653.523.653.96 0 .436-.272.81-.654.956l-.317.14c-.114.043-.17.177-.123.292l.608 1.47c.047.114.18.17.293.122l.32-.13c.376-.167.83-.097 1.137.213.31.31.38.763.214 1.142h.003l-.13.317c-.047.115.005.248.12.295l1.466.61c.114.047.246-.01.293-.123l.134-.318c.15-.384.52-.654.956-.656.436.002.808.274.957.653l.135.32c.048.114.18.17.294.12l1.465-.608c.114-.047.17-.18.122-.295l-.132-.317c-.163-.38-.092-.832.215-1.143.31-.31.763-.38 1.138-.216h.002l.314.134c.116.048.25-.008.295-.122l.607-1.47c.048-.115-.007-.25-.12-.296l-.316-.133zm-4.23.84c-.993.413-2.13-.06-2.542-1.055-.41-.993.06-2.134 1.053-2.544.993-.41 2.13.062 2.54 1.054.413.995-.06 2.133-1.05 2.546zM7.722 11.283h-.24v-.003c-.288.01-.563-.16-.68-.44-.116-.282-.04-.596.167-.796l.17-.17c.06-.06.06-.163 0-.225l-.786-.788c-.06-.062-.16-.062-.223 0l-.17.17c-.198.207-.512.284-.794.166-.28-.118-.45-.392-.442-.68l-.002-.24c0-.088-.07-.158-.158-.16h-1.11c-.087 0-.16.072-.16.16v.24c.007.29-.16.563-.442.68-.28.117-.595.04-.792-.166l-.17-.17c-.063-.062-.162-.062-.224 0l-.785.787c-.06.06-.06.16 0 .222l.168.172c.21.2.284.514.168.795-.117.28-.392.45-.677.44l-.242.004c-.088 0-.16.07-.16.16v1.112c0 .087.072.158.16.158h.24v.002c.287-.01.562.16.678.44.116.283.042.597-.167.795v.002l-.17.172c-.06.06-.06.163 0 .222l.785.787c.062.062.16.062.223 0l.172-.168c.198-.21.51-.283.793-.167.28.118.45.393.442.68l.003.24h-.003c0 .09.072.16.158.16h1.112c.087 0 .16-.07.16-.16H4.72l.002-.24c-.007-.287.162-.56.442-.68.282-.116.596-.04.794.167l.17.17c.06.062.162.062.222 0l.786-.787c.062-.06.062-.16 0-.22l-.168-.176c-.207-.2-.283-.513-.166-.795.116-.28.39-.45.678-.44l.24-.006c.087 0 .158-.07.158-.156V11.44c0-.087-.07-.157-.158-.157zM4.01 13.36c-.75 0-1.36-.608-1.36-1.36 0-.753.608-1.364 1.36-1.364.75 0 1.36.61 1.36 1.363 0 .752-.61 1.36-1.36 1.36z"/></g></svg>