<svg width="16" height="16" xmlns="http://www.w3.org/2000/svg" viewBox="0 0 16 16" shape-rendering="geometricPrecision" fill="#cb1800"><defs><mask id="a"><rect fill="#fff" width="100%" height="100%"/><path d="M17.514 2.67l-.862-.55L16.65-1h-2.866v.558c-1.334-.3-2.758.103-3.723 1.067-1.568 1.57-1.553 4.14.036 5.732.78.777 1.81 1.205 2.9 1.205 1.072 0 2.078-.415 2.832-1.168C16.585 5.64 17 4.63 17 3.557V2.67h.514zm-3.373.888c0 .22-.057.54-.332.813-.443.444-1.23.427-1.69-.034-.475-.475-.49-1.234-.036-1.69.01-.01.02-.02.033-.03v.922h2.026v.02z" fill="#000"/></mask></defs><path d="M13.114 2.537h2.538V0h-.868v1.105c-1.204-.927-2.924-.863-4.016.227-1.187 1.188-1.162 3.12.035 4.317 1.2 1.197 3.13 1.223 4.32.036.584-.584.878-1.357.877-2.128h-.86c0 .558-.207 1.103-.626 1.522-.843.842-2.23.836-3.104-.036-.87-.872-.877-2.26-.035-3.105.73-.728 1.86-.82 2.72-.27h-.982v.867z"/><g mask="url(#a)"><path d="M7.045 11.946h.995v.995h-.995zM9.036 13.936h1.991v-.995h-.995v-.994h-.994M10.03 7.964v.997H8.04v-.996h1.991V6.97h-.994v-.995H7.045v.995H6.05v1.99h.995v.996h.995v.995h1.991v-.994h.996v.995h1.991v-.994h-.995V6.97h-.994v.994"/><path d="M10.03 10.95h.996v.996h-.995zM1.075 6.97h.995v.994h-.995z"/><path d="M3.065 5.975H6.05v-1.99h.995V2.99H6.05V1H1.075v4.974h.995v.996h.995v-.995zm-.995-3.98h2.985V4.98H2.07V1.995zM12.02 14.93h.996v-.994h.995v-.995h-.994v-.994h-.995M13.016 10.95h.995v.996h-.994zM14.01 7.964h.996v.997h-.995zM3.065 11.946h.995v.995h-.995z"/><path d="M6.05 10.95v-.994H4.06V8.96h.995V6.97H4.06v.994h-.995v1.992h-1.99V14.93H6.05v-.994h.995v-.995H6.05v-1.99zm-3.98 2.986V10.95h2.985v2.986H2.07zM3.065 2.99h.995v.995h-.995zM12.02 2.99h.996v.995h-.995z"/><path d="M14.01 1h-3.979v.995H8.04V4.98h.996V2.99h.995v3.98h.996v-.995h3.981V1h-.995zm0 3.98h-2.984V1.995h2.985V4.98z"/></g></svg>