<svg width="16" height="16" xmlns="http://www.w3.org/2000/svg" viewBox="0 0 16 16" shape-rendering="geometricPrecision" fill="#cb1800"><defs><mask id="a"><rect fill="#fff" width="100%" height="100%"/><path d="M17.514 2.67l-.862-.55L16.65-1h-2.866v.558c-1.334-.3-2.758.103-3.723 1.067-1.568 1.57-1.553 4.14.036 5.732.78.777 1.81 1.205 2.9 1.205 1.072 0 2.078-.415 2.832-1.168C16.585 5.64 17 4.63 17 3.557V2.67h.514zm-3.373.888c0 .22-.057.54-.332.813-.443.444-1.23.427-1.69-.034-.475-.475-.49-1.234-.036-1.69.01-.01.02-.02.033-.03v.922h2.026v.02z" fill="#000"/></mask></defs><path d="M13.114 2.537h2.538V0h-.868v1.105c-1.204-.927-2.924-.863-4.016.227-1.187 1.188-1.162 3.12.035 4.317 1.2 1.197 3.13 1.223 4.32.036.584-.584.878-1.357.877-2.128h-.86c0 .558-.207 1.103-.626 1.522-.843.842-2.23.836-3.104-.036-.87-.872-.877-2.26-.035-3.105.73-.728 1.86-.82 2.72-.27h-.982v.867z"/><g mask="url(#a)"><path d="M10.055 14.302l2.54-2.338h-2.54"/><path d="M2.595 1.016v13.97h6.008v-4.47h4.802v-9.5H2.595zm9.44 8.027h-4.79v4.6H3.916V2.32h8.116v6.725z"/><path fill-rule="evenodd" clip-rule="evenodd" d="M9.795 6.744c.643.512 1.164.3 1.088.2-.23-.297-.683-.297-1.088-.2zm.834-.288c-.645-.218-1.502 0-1.47.026-.43-.213-1.014-.523-1.334-1.54-.537-1.706 0-2.256.035-1.19l.11.724s.37-.903.13-1.562c-.208-.574-.81-.488-.846.573-.02.585.12 1.464.186 1.6 0 0-.558 1.642-1.384 2.932-.8 1.25-.85.83-.656.412.23-.496.624-.757.755-.964 0 0-.61.048-1.083.86-.3.514-.335 1.79.94.406.254-.275.614-.852.778-1.195 0 0 .742-.325 2.514-.67 0 0 .478.35 1.098.493.77.177 1.562-.454.227-.907zm-3.626.54l.645-1.48c.426.908 1.032 1.093 1.032 1.093-.263.033-1.678.387-1.678.387z"/></g></svg>