<svg width="16" height="16" xmlns="http://www.w3.org/2000/svg" viewBox="0 0 16 16" shape-rendering="geometricPrecision" fill="#cb1800"><defs><mask id="a"><rect fill="#fff" width="100%" height="100%"/><path d="M17.514 2.67l-.862-.55L16.65-1h-2.866v.558c-1.334-.3-2.758.103-3.723 1.067-1.568 1.57-1.553 4.14.036 5.732.78.777 1.81 1.205 2.9 1.205 1.072 0 2.078-.415 2.832-1.168C16.585 5.64 17 4.63 17 3.557V2.67h.514zm-3.373.888c0 .22-.057.54-.332.813-.443.444-1.23.427-1.69-.034-.475-.475-.49-1.234-.036-1.69.01-.01.02-.02.033-.03v.922h2.026v.02z" fill="#000"/></mask></defs><path d="M13.114 2.537h2.538V0h-.868v1.105c-1.204-.927-2.924-.863-4.016.227-1.187 1.188-1.162 3.12.035 4.317 1.2 1.197 3.13 1.223 4.32.036.584-.584.878-1.357.877-2.128h-.86c0 .558-.207 1.103-.626 1.522-.843.842-2.23.836-3.104-.036-.87-.872-.877-2.26-.035-3.105.73-.728 1.86-.82 2.72-.27h-.982v.867z"/><g mask="url(#a)"><path d="M11.636 3.477h-9.03C1.183 3.477.028 4.594.026 5.97v4.866c.002 1.373 1.157 2.49 2.58 2.492h.2c-.1.396-.33.832-.845 1.285L.364 16l2.125-.314c2.408-.37 3.896-1.77 4.432-2.357h4.717c1.425-.003 2.578-1.12 2.58-2.493V5.97c-.003-1.376-1.156-2.493-2.58-2.493zm1.298 7.36c0 .685-.588 1.253-1.298 1.255H6.3l-.192.246c-.034.05-.8 1.002-2.167 1.633.156-.415.216-.817.212-1.17 0-.024 0-.06-.002-.108l-.018-.6H2.606c-.71-.002-1.298-.57-1.298-1.256V5.97c0-.688.588-1.255 1.298-1.257h9.03c.71.002 1.298.568 1.298 1.258v4.866z"/><path d="M13.854 1.607H3.987c-.828 0-1.542.488-1.89 1.184.286-.143.603-.23.945-.23h9.866c1.166 0 2.12.95 2.12 2.116v5.504c0 .336-.088.65-.227.934.69-.35 1.173-1.06 1.173-1.883V3.728c0-1.165-.954-2.12-2.12-2.12z"/><path d="M2.6 8.63h8.93v1.245H2.6zM2.6 6.05h8.93v1.247H2.6z"/></g></svg>