<svg width="16" height="16" xmlns="http://www.w3.org/2000/svg" viewBox="0 0 16 16" shape-rendering="geometricPrecision" fill="#cb1800"><defs><mask id="a"><rect fill="#fff" width="100%" height="100%"/><path d="M17.514 2.67l-.862-.55L16.65-1h-2.866v.558c-1.334-.3-2.758.103-3.723 1.067-1.568 1.57-1.553 4.14.036 5.732.78.777 1.81 1.205 2.9 1.205 1.072 0 2.078-.415 2.832-1.168C16.585 5.64 17 4.63 17 3.557V2.67h.514zm-3.373.888c0 .22-.057.54-.332.813-.443.444-1.23.427-1.69-.034-.475-.475-.49-1.234-.036-1.69.01-.01.02-.02.033-.03v.922h2.026v.02z" fill="#000"/></mask></defs><path d="M13.114 2.537h2.538V0h-.868v1.105c-1.204-.927-2.924-.863-4.016.227-1.187 1.188-1.162 3.12.035 4.317 1.2 1.197 3.13 1.223 4.32.036.584-.584.878-1.357.877-2.128h-.86c0 .558-.207 1.103-.626 1.522-.843.842-2.23.836-3.104-.036-.87-.872-.877-2.26-.035-3.105.73-.728 1.86-.82 2.72-.27h-.982v.867z"/><g mask="url(#a)"><circle cx="3.535" cy="5.213" r="1.794"/><path d="M4.35 7.858H2.713c-.95 0-1.725.78-1.725 1.73v2.246H6.08V9.59c0-.952-.78-1.732-1.73-1.732z"/><circle cx="12.465" cy="7.338" r="1.794"/><path d="M13.282 9.983h-1.64c-.95 0-1.723.78-1.723 1.73v2.247h5.092v-2.248c0-.95-.78-1.73-1.73-1.73z"/><circle cx="7.504" cy="3.228" r="1.794"/><path d="M10.05 9.85V7.604c0-.95-.778-1.73-1.73-1.73H6.682c-.928 0-1.68.74-1.717 1.66.888.267 1.54 1.08 1.54 2.056v.26h3.545z"/></g></svg>