<svg width="16" height="16" xmlns="http://www.w3.org/2000/svg" viewBox="0 0 16 16" shape-rendering="geometricPrecision" fill="#cb1800"><defs><mask id="a"><rect fill="#fff" width="100%" height="100%"/><path d="M17.514 2.67l-.862-.55L16.65-1h-2.866v.558c-1.334-.3-2.758.103-3.723 1.067-1.568 1.57-1.553 4.14.036 5.732.78.777 1.81 1.205 2.9 1.205 1.072 0 2.078-.415 2.832-1.168C16.585 5.64 17 4.63 17 3.557V2.67h.514zm-3.373.888c0 .22-.057.54-.332.813-.443.444-1.23.427-1.69-.034-.475-.475-.49-1.234-.036-1.69.01-.01.02-.02.033-.03v.922h2.026v.02z" fill="#000"/></mask></defs><path d="M13.114 2.537h2.538V0h-.868v1.105c-1.204-.927-2.924-.863-4.016.227-1.187 1.188-1.162 3.12.035 4.317 1.2 1.197 3.13 1.223 4.32.036.584-.584.878-1.357.877-2.128h-.86c0 .558-.207 1.103-.626 1.522-.843.842-2.23.836-3.104-.036-.87-.872-.877-2.26-.035-3.105.73-.728 1.86-.82 2.72-.27h-.982v.867z"/><path d="M14.625 6.406c-.28-.844-3.277.058-5.172.453-.673.14.552-1.62 1.235-2.89.398-.743-.03-1-2.375-1.032C5.97 2.906 1.49 4.244 1.063 7.5c-.44 3.344 2.624 6.03 7.593 5.344 5.95-.823 6.164-5.853 5.97-6.438zm-12.11.453c0-.51.414-.923.923-.923.51 0 .922.413.922.922 0 .508-.413.92-.922.92-.51 0-.922-.41-.922-.92zm1.376 4.003c-.57 0-1.03-.462-1.03-1.03 0-.57.462-1.032 1.03-1.032.57 0 1.032.463 1.032 1.032 0 .57-.462 1.03-1.03 1.03zM4.923 5.03c0-.413.336-.75.75-.75s.75.337.75.75c0 .415-.336.75-.75.75s-.75-.335-.75-.75zm2.328 7c-.644.073-1.226-.39-1.3-1.034-.074-.644.39-1.226 1.033-1.3.644-.074 1.226.39 1.3 1.033.073.644-.39 1.225-1.033 1.3zm3.246-.564c-.644.074-1.226-.39-1.3-1.033-.074-.644.39-1.226 1.033-1.3.643-.074 1.225.39 1.3 1.033.072.644-.39 1.226-1.034 1.3zm2.146-2.242c-.44.05-.837-.266-.888-.706-.05-.44.266-.837.706-.888.44-.05.838.266.888.706.05.44-.266.837-.706.888z" mask="url(#a)"/></svg>