<svg width="16" height="16" xmlns="http://www.w3.org/2000/svg" viewBox="0 0 16 16" shape-rendering="geometricPrecision" fill="#cb1800"><defs><mask id="a"><rect fill="#fff" width="100%" height="100%"/><path d="M17.514 2.67l-.862-.55L16.65-1h-2.866v.558c-1.334-.3-2.758.103-3.723 1.067-1.568 1.57-1.553 4.14.036 5.732.78.777 1.81 1.205 2.9 1.205 1.072 0 2.078-.415 2.832-1.168C16.585 5.64 17 4.63 17 3.557V2.67h.514zm-3.373.888c0 .22-.057.54-.332.813-.443.444-1.23.427-1.69-.034-.475-.475-.49-1.234-.036-1.69.01-.01.02-.02.033-.03v.922h2.026v.02z" fill="#000"/></mask></defs><path d="M13.114 2.537h2.538V0h-.868v1.105c-1.204-.927-2.924-.863-4.016.227-1.187 1.188-1.162 3.12.035 4.317 1.2 1.197 3.13 1.223 4.32.036.584-.584.878-1.357.877-2.128h-.86c0 .558-.207 1.103-.626 1.522-.843.842-2.23.836-3.104-.036-.87-.872-.877-2.26-.035-3.105.73-.728 1.86-.82 2.72-.27h-.982v.867z"/><g mask="url(#a)"><path d="M10.56 10.525l-1.328-.154-1.106.753-1.104-.752-.046.006L8.35 15.33l1.664-1.83 2.382.71-1.3-4.69"/><path d="M12.17 5.086l.282-1.182-.996-.698-.298-1.178-1.207-.155L9.14.97 8 1.39 6.86.97l-.81.903-1.207.155-.3 1.178-.995.698.283 1.182-.557 1.08.8.916.008 1.215 1.135.44.572 1.073 1.21-.14 1.002.685 1.005-.686 1.208.138.57-1.072 1.135-.44.008-1.215.8-.914-.557-1.08zM8 9.56c-2.154 0-3.9-1.744-3.9-3.897C4.1 3.51 5.847 1.765 8 1.765c2.153 0 3.898 1.744 3.898 3.897s-1.745 3.9-3.9 3.9z"/><circle cx="8.03" cy="5.662" r="3.142"/><path d="M5.486 10.51l-.63-1.18-.034-.014-1.092 4.96 2.53-.907 1.337 1.316-1.186-4.282"/></g></svg>