<?xml version="1.0"?><!DOCTYPE svg PUBLIC "-//W3C//DTD SVG 1.1//EN" "http://www.w3.org/Graphics/SVG/1.1/DTD/svg11.dtd"><svg xmlns="http://www.w3.org/2000/svg" viewBox="0 0 16 16" shape-rendering="geometricPrecision" fill="#cb1800"><defs><mask id="refresh-path"><rect fill="#fff" width="100%" height="100%"/><path d="M17.514,2.671l-0.862-0.552L16.65-1h-2.866v0.558c-1.334-0.3-2.758,0.103-3.723,1.067 c-1.569,1.569-1.554,4.141,0.035,5.732c0.779,0.777,1.809,1.205,2.901,1.205c1.071,0,2.077-0.415,2.831-1.168 C16.585,5.639,17.001,4.631,17,3.557l0-0.886H17.514z M14.141,3.558c0,0.22-0.058,0.539-0.333,0.813 c-0.443,0.443-1.23,0.426-1.69-0.035c-0.475-0.475-0.49-1.234-0.036-1.689c0.011-0.011,0.021-0.022,0.033-0.031l0,0.922h2.026 V3.558z" fill="#000"/></mask></defs><path display="inline" d="M13.114,2.537h2.538L15.651,0h-0.867v1.105 c-1.204-0.927-2.924-0.863-4.016,0.227C9.581,2.52,9.606,4.451,10.803,5.649c1.201,1.198,3.131,1.224,4.319,0.037 C15.707,5.102,16.001,4.329,16,3.558l-0.859,0.001c-0.001,0.557-0.208,1.102-0.627,1.521c-0.843,0.842-2.231,0.836-3.104-0.036 c-0.871-0.872-0.877-2.26-0.035-3.105c0.729-0.727,1.86-0.818,2.721-0.268h-0.983L13.114,2.537z" fill="#cb1800"/><g mask="url(#refresh-path)"><g><path d="M4.974,12.78h6.022c0.786,0,1.423-0.637,1.423-1.423V3.912c0-0.786-0.15-1.238-0.921-1.423 c-0.496-0.122-1.537-0.415-2.913-0.486V1.604h1.066c0.162,0,0.294-0.132,0.294-0.294c0-0.163-0.132-0.294-0.294-0.294H6.318 c-0.162,0-0.294,0.132-0.294,0.294c0,0.162,0.132,0.294,0.294,0.294h1.066v0.391C5.628,2.041,5.132,2.289,4.472,2.489 C3.72,2.717,3.551,3.126,3.551,3.912v7.445C3.551,12.143,4.188,12.78,4.974,12.78z M5.882,11.412 c-0.337,0-0.604-0.253-0.65-0.577c-0.033,0.004-0.065,0.01-0.099,0.01c-0.447,0-0.81-0.363-0.81-0.81s0.363-0.81,0.81-0.81 s0.81,0.363,0.81,0.81c0,0.018-0.004,0.034-0.005,0.052c0.342,0.03,0.613,0.308,0.613,0.657 C6.55,11.112,6.251,11.412,5.882,11.412z M10.77,10.844c-0.037,0-0.072-0.005-0.107-0.01c-0.046,0.324-0.313,0.577-0.65,0.577 c-0.369,0-0.668-0.299-0.668-0.668c0-0.349,0.271-0.627,0.612-0.657c-0.001-0.015-0.005-0.029-0.005-0.044 c-0.004-0.447,0.355-0.813,0.803-0.818c0.447-0.004,0.813,0.355,0.817,0.803C11.577,10.474,11.218,10.84,10.77,10.844z M4.303,4.826c0-0.786,0.164-1.212,0.921-1.423C5.805,3.242,6.793,3.08,8.028,3.08c1.074,0,2.122,0.182,2.704,0.324 c0.764,0.186,0.921,0.637,0.921,1.423l-0.019,0.06c0.008,0.061,0.019,0.121,0.019,0.183l-0.182,1.618 c0,0.786-0.164,1.212-0.921,1.423C9.969,8.273,9.163,8.435,7.928,8.435c-1.074,0-1.909-0.182-2.491-0.324 C4.673,7.925,4.516,7.473,4.516,6.688L4.303,5.069c0-0.063,0.011-0.123,0.019-0.183L4.303,4.826z"/><polygon points="3.463,14.94 6.011,14.94 6.011,13.113 4.969,13.113"/><polygon points="11.031,13.113 9.989,13.113 9.989,14.94 12.537,14.94"/></g></g></svg>
