<?xml version="1.0"?><!DOCTYPE svg PUBLIC "-//W3C//DTD SVG 1.1//EN" "http://www.w3.org/Graphics/SVG/1.1/DTD/svg11.dtd"><svg width="16px" height="16px" xmlns="http://www.w3.org/2000/svg" viewBox="0 0 16 16" shape-rendering="geometricPrecision" fill="#cb1800"><defs><mask id="refresh-path"><rect fill="#fff" width="100%" height="100%"/><path d="M17.514,2.671l-0.862-0.552L16.65-1h-2.866v0.558c-1.334-0.3-2.758,0.103-3.723,1.067 c-1.569,1.569-1.554,4.141,0.035,5.732c0.779,0.777,1.809,1.205,2.901,1.205c1.071,0,2.077-0.415,2.831-1.168 C16.585,5.639,17.001,4.631,17,3.557l0-0.886H17.514z M14.141,3.558c0,0.22-0.058,0.539-0.333,0.813 c-0.443,0.443-1.23,0.426-1.69-0.035c-0.475-0.475-0.49-1.234-0.036-1.689c0.011-0.011,0.021-0.022,0.033-0.031l0,0.922h2.026 V3.558z" fill="#000"/></mask></defs><path display="inline" d="M13.114,2.537h2.538L15.651,0h-0.867v1.105 c-1.204-0.927-2.924-0.863-4.016,0.227C9.581,2.52,9.606,4.451,10.803,5.649c1.201,1.198,3.131,1.224,4.319,0.037 C15.707,5.102,16.001,4.329,16,3.558l-0.859,0.001c-0.001,0.557-0.208,1.102-0.627,1.521c-0.843,0.842-2.231,0.836-3.104-0.036 c-0.871-0.872-0.877-2.26-0.035-3.105c0.729-0.727,1.86-0.818,2.721-0.268h-0.983L13.114,2.537z" fill="#cb1800"/><g mask="url(#refresh-path)"><g><g><g><path d="M6.35,5.582C6.819,5.26,7.387,5.072,8,5.072c0.612,0,1.181,0.189,1.651,0.51l1.471-1.47 C10.266,3.424,9.182,3.011,8,3.011c-1.182,0-2.266,0.413-3.122,1.1L6.35,5.582z"/><path d="M5.583,6.349L4.112,4.878C3.424,5.733,3.011,6.818,3.011,8c0,1.182,0.413,2.267,1.1,3.121l1.471-1.471 C5.261,9.181,5.072,8.613,5.072,8C5.072,7.387,5.261,6.819,5.583,6.349z"/></g><g><path d="M10.418,9.651l1.47,1.47c0.687-0.855,1.1-1.939,1.1-3.121c0-1.182-0.413-2.267-1.101-3.122l-1.471,1.471 C10.74,6.819,10.928,7.387,10.928,8S10.74,9.181,10.418,9.651z"/><path d="M9.651,10.418C9.181,10.739,8.613,10.928,8,10.928c-0.613,0-1.181-0.189-1.651-0.51l-1.471,1.471 c0.855,0.687,1.94,1.1,3.122,1.1c1.182,0,2.267-0.413,3.122-1.101L9.651,10.418z"/></g></g><g><path d="M7.934,14.81c-1.059,0-2.058-0.417-2.814-1.173l-2.756-2.756C0.824,9.342,0.8,6.862,2.309,5.353l3.045-3.044 C6.074,1.587,7.038,1.19,8.067,1.19c1.058,0,2.058,0.416,2.814,1.172l2.756,2.756c0.744,0.744,1.16,1.728,1.173,2.77 c0.012,1.046-0.386,2.025-1.118,2.758l-3.045,3.045C9.926,14.412,8.962,14.81,7.934,14.81z M8.067,2.19 c-0.762,0-1.475,0.293-2.006,0.825L3.016,6.06C1.896,7.179,1.921,9.024,3.07,10.174l2.756,2.756 c1.113,1.113,3.028,1.141,4.113,0.055l3.045-3.045c0.541-0.54,0.834-1.265,0.825-2.039c-0.009-0.779-0.321-1.516-0.88-2.074 L10.174,3.07C9.606,2.503,8.858,2.19,8.067,2.19z"/></g></g></g></svg>