<svg width="16" height="16" xmlns="http://www.w3.org/2000/svg" viewBox="0 0 16 16" shape-rendering="geometricPrecision" fill="#cb1800"><defs><mask id="a"><rect fill="#fff" width="100%" height="100%"/><path d="M17.514 2.67l-.862-.55L16.65-1h-2.866v.558c-1.334-.3-2.758.103-3.723 1.067-1.568 1.57-1.553 4.14.036 5.732.78.777 1.81 1.205 2.9 1.205 1.072 0 2.078-.415 2.832-1.168C16.585 5.64 17 4.63 17 3.557V2.67h.514zm-3.373.888c0 .22-.057.54-.332.813-.443.444-1.23.427-1.69-.034-.475-.475-.49-1.234-.036-1.69.01-.01.02-.02.033-.03v.922h2.026v.02z" fill="#000"/></mask></defs><path d="M13.114 2.537h2.538V0h-.868v1.105c-1.204-.927-2.924-.863-4.016.227-1.187 1.188-1.162 3.12.035 4.317 1.2 1.197 3.13 1.223 4.32.036.584-.584.878-1.357.877-2.128h-.86c0 .558-.207 1.103-.626 1.522-.843.842-2.23.836-3.104-.036-.87-.872-.877-2.26-.035-3.105.73-.728 1.86-.82 2.72-.27h-.982v.867z"/><path d="M7.975 1.052c-3.85 0-6.973 3.124-6.975 6.97h2.077c0-2.7 2.193-4.896 4.897-4.896 2.705 0 4.9 2.195 4.9 4.897 0 2.706-2.195 4.9-4.9 4.9V15c3.852 0 6.974-3.126 6.974-6.977 0-3.847-3.122-6.97-6.973-6.97zm2.62 6.97c0-1.443-1.175-2.616-2.62-2.616s-2.62 1.173-2.62 2.617c0 1.446 1.173 2.622 2.62 2.622s2.62-1.175 2.62-2.622z" mask="url(#a)"/></svg>