<?xml version="1.0"?><!DOCTYPE svg PUBLIC "-//W3C//DTD SVG 1.1//EN" "http://www.w3.org/Graphics/SVG/1.1/DTD/svg11.dtd"><svg width="16px" height="16px" xmlns="http://www.w3.org/2000/svg" viewBox="0 0 16 16" shape-rendering="geometricPrecision" fill="#abb7ce"><defs><mask id="move_down-path"><rect fill="#fff" width="100%" height="100%"/><polygon points="14.934,-0.397 12.895,1.639 10.858,-0.397 8.386,2.073 12.897,6.583 17.404,2.073 " fill="#000"/></mask></defs><polygon points="12.895,3.052 10.858,1.017 9.8,2.073 12.897,5.169 15.99,2.073 14.933,1.017 " fill="#cb1800"/><g mask="url(#move_down-path)"><g><path d="M14.017,5.94c0-3.278-2.658-5.938-5.939-5.938c-3.277,0-5.936,2.659-5.936,5.938c0,1.172,0.345,2.262,0.932,3.184 L3.068,9.12l0.041,0.06C3.155,9.251,3.205,9.32,3.254,9.389L8.114,16l4.833-6.665c0.031-0.046,0.063-0.091,0.093-0.136 l0.025-0.036L13.06,9.164C13.663,8.235,14.017,7.129,14.017,5.94z M8.079,10.507c-2.52,0-4.565-2.046-4.565-4.566 c0-2.523,2.045-4.566,4.565-4.566c2.523,0,4.567,2.044,4.567,4.566C12.646,8.461,10.602,10.507,8.079,10.507z"/></g><circle cx="8.08" cy="5.914" r="2.242"/></g></svg>