<?xml version="1.0"?><!DOCTYPE svg PUBLIC "-//W3C//DTD SVG 1.1//EN" "http://www.w3.org/Graphics/SVG/1.1/DTD/svg11.dtd"><svg xmlns="http://www.w3.org/2000/svg" viewBox="0 0 16 16" shape-rendering="geometricPrecision" fill="#abb7ce"><defs><mask id="move_down-path"><rect fill="#fff" width="100%" height="100%"/><polygon points="14.934,-0.397 12.895,1.639 10.858,-0.397 8.386,2.073 12.897,6.583 17.404,2.073 " fill="#000"/></mask></defs><polygon points="12.895,3.052 10.858,1.017 9.8,2.073 12.897,5.169 15.99,2.073 14.933,1.017 " fill="#cb1800"/><path mask="url(#move_down-path)" d="M9.985,2L8.271,3.713l1.912,1.914H9.637L9.273,5.645c-4.608,0.196-8.3,3.993-8.3,8.646v0.553h2.624v-0.553 c0-1.611,0.628-3.128,1.768-4.271c1.142-1.14,2.659-1.768,4.272-1.768h0.552V8.25h0.147l-2.065,2.068l1.713,1.711L15,7.012L9.985,2 z"/></svg>
