<?xml version="1.0"?><!DOCTYPE svg PUBLIC "-//W3C//DTD SVG 1.1//EN" "http://www.w3.org/Graphics/SVG/1.1/DTD/svg11.dtd"><svg width="16px" height="16px" xmlns="http://www.w3.org/2000/svg" viewBox="0 0 16 16" shape-rendering="geometricPrecision" fill="#ffad00"><defs><mask id="move_left-path"><rect fill="#fff" width="100%" height="100%"/><polygon points="16.383,1.058 13.913,-1.415 9.403,3.097 13.914,7.603 16.383,5.134 14.348,3.095 " fill="#000"/></mask></defs><polygon points="12.935,3.095 14.97,1.058 13.913,0 10.817,3.097 13.913,6.189 14.97,5.133 " fill="#cb1800"/><g mask="url(#move_left-path)"><polygon points="11.17,3.472 9.519,5.124 12.695,8.302 9.519,11.481 11.17,13.131 16,8.305"/><path d="M0,1.671L0,1.671l0.001,12.497L6.4,15.999V2.435L3.728,1.671h4.061v13.03h1.066V0.604H0V1.671z M1,1.906 l4.4,1.282v11.564L1,13.47V1.906z"/></g></svg>