<?xml version="1.0"?><!DOCTYPE svg PUBLIC "-//W3C//DTD SVG 1.1//EN" "http://www.w3.org/Graphics/SVG/1.1/DTD/svg11.dtd"><svg xmlns="http://www.w3.org/2000/svg" viewBox="0 0 16 16" shape-rendering="geometricPrecision" fill="#ffad00"><defs><mask id="move_left-path"><rect fill="#fff" width="100%" height="100%"/><polygon points="16.383,1.058 13.913,-1.415 9.403,3.097 13.914,7.603 16.383,5.134 14.348,3.095 " fill="#000"/></mask></defs><polygon points="12.935,3.095 14.97,1.058 13.913,0 10.817,3.097 13.913,6.189 14.97,5.133 " fill="#cb1800"/><g mask="url(#move_left-path)"><path d="M6.955,7.908c0.577,0,1.045-0.469,1.045-1.045V4.425c0,0,0.153-0.347,0.662,0.127 c0.655,0.609,1.428,0.112,1.428,0.112s-0.95-0.229-1.145-0.848C8.696,3.031,7.999,3.031,7.999,3.031H7.303v2.851 C7.193,5.843,7.077,5.818,6.955,5.818c-0.577,0-1.045,0.468-1.045,1.045C5.91,7.439,6.377,7.908,6.955,7.908z"/><g><polygon points="10.055,14.302 12.595,11.964 10.055,11.964"/><path d="M2.595,1.016v13.969h6.008v-4.468h4.802V1.016H2.595z M12.034,9.043h-4.79v4.601H3.917V2.318h8.116V9.043z"/></g></g></svg>
