<?xml version="1.0"?><!DOCTYPE svg PUBLIC "-//W3C//DTD SVG 1.1//EN" "http://www.w3.org/Graphics/SVG/1.1/DTD/svg11.dtd"><svg xmlns="http://www.w3.org/2000/svg" viewBox="0 0 16 16" shape-rendering="geometricPrecision" fill="#ffad00"><defs><mask id="move_left-path"><rect fill="#fff" width="100%" height="100%"/><polygon points="16.383,1.058 13.913,-1.415 9.403,3.097 13.914,7.603 16.383,5.134 14.348,3.095 " fill="#000"/></mask></defs><polygon points="12.935,3.095 14.97,1.058 13.913,0 10.817,3.097 13.913,6.189 14.97,5.133 " fill="#cb1800"/><g mask="url(#move_left-path)"><g><g><path d="M1.011,8.002c0,3.857,3.129,6.986,6.989,6.986c3.859,0,6.989-3.129,6.989-6.986c0-3.861-3.129-6.991-6.989-6.991 C4.141,1.011,1.011,4.141,1.011,8.002z M8.514,8L5.268,4.755l1.686-1.686l4.93,4.928L6.953,12.93l-1.685-1.684L8.514,8z"/></g></g></g></svg>
