<?xml version="1.0"?><!DOCTYPE svg PUBLIC "-//W3C//DTD SVG 1.1//EN" "http://www.w3.org/Graphics/SVG/1.1/DTD/svg11.dtd"><svg width="16px" height="16px" xmlns="http://www.w3.org/2000/svg" viewBox="0 0 16 16" shape-rendering="geometricPrecision" fill="#ffad00"><defs><mask id="move_left-path"><rect fill="#fff" width="100%" height="100%"/><polygon points="16.383,1.058 13.913,-1.415 9.403,3.097 13.914,7.603 16.383,5.134 14.348,3.095 " fill="#000"/></mask></defs><polygon points="12.935,3.095 14.97,1.058 13.913,0 10.817,3.097 13.913,6.189 14.97,5.133 " fill="#cb1800"/><g mask="url(#move_left-path)"><path d="M13.826,1.99L8.799,1.996L1,9.794l5.038,5.038l7.799-7.799L13.826,1.99z M11.342,5.99 c-0.828,0-1.5-0.672-1.5-1.5c0-0.829,0.672-1.5,1.5-1.5c0.828,0,1.5,0.671,1.5,1.5C12.842,5.319,12.17,5.99,11.342,5.99z"/><rect x="3.094" y="6.077" transform="matrix(0.7071 -0.7071 0.7071 0.7071 -4.1425 7.5587)" width="7.917" height="5.406"/><rect x="3.349" y="7.57" transform="matrix(0.7071 -0.7071 0.7071 0.7071 -3.8478 6.8655)" width="6.029" height="1.016"/><rect x="4.702" y="8.923" transform="matrix(0.7071 -0.7071 0.7071 0.7071 -4.4084 8.2189)" width="6.029" height="1.016"/></g></svg>