<svg width="16" height="16" xmlns="http://www.w3.org/2000/svg" viewBox="0 0 16 16" shape-rendering="geometricPrecision" fill="#ffad00"><defs><mask id="a"><rect fill="#fff" width="100%" height="100%"/><path fill="#000" d="M16.383 1.058l-2.47-2.473-4.51 4.512 4.51 4.506 2.47-2.47-2.035-2.038z"/></mask></defs><path fill="#cb1800" d="M12.935 3.095l2.035-2.037L13.913 0l-3.096 3.097 3.096 3.092 1.057-1.057"/><path d="M1.034 2.913v10.174h13.932V2.913H1.034zm4.08 1.445c.985 0 1.78.8 1.78 1.783 0 .987-.795 1.782-1.78 1.782-.984 0-1.782-.795-1.782-1.78s.798-1.784 1.78-1.784zm3.03 7.686h-6.06v-2.002c0-.848.69-1.54 1.538-1.54h2.98c.847 0 1.54.692 1.54 1.54v2.002zm5.224-4.14H9.075V6.848h4.293v1.058zm0-2.196H9.075V4.643h4.293v1.065z" mask="url(#a)"/></svg>