<svg width="16" height="16" xmlns="http://www.w3.org/2000/svg" viewBox="0 0 16 16" shape-rendering="geometricPrecision" fill="#ffad00"><defs><mask id="a"><rect fill="#fff" width="100%" height="100%"/><path d="M13.848-1.1L12.05.695l.287.287c-1.812.575-3.107 2.263-3.107 4.254v.987h2.626v-.988c0-.49.19-.954.538-1.302l.03-.03 1.425 1.42 3.21-3.212L13.85-1.1z" fill="#000"/></mask></defs><path d="M13.848-.04l-.736.735.82.82H13.7l-.157.01c-1.978.083-3.563 1.713-3.563 3.71v.237h1.126v-.237c0-.69.27-1.343.76-1.833s1.14-.76 1.832-.76h.3l-.886.888.735.734L16 2.11 13.848-.04z" fill="#cb1800"/><path mask="url(#a)" d="M14.55 13.12L14.54 0H4.093c-1.376.003-2.498.62-2.52 1.987-.004.025-.004.53 0 .535v.003c0 .04.008.076.01.117h-.01v10.826C1.575 14.865 2.71 16 4.105 16h8.386l-.038-1.69-.01-11.344h-8.35c-.495 0-1.68-.048-1.68-.98v-.093C2.465 1.008 3.598.84 4.093.84h9.594v12.28h.864zm-2.9-2.23v1.745H6.376V10.89c0-.74.6-1.343 1.34-1.343h2.593c.738 0 1.343.603 1.343 1.342zM9.014 6.1c.77 0 1.395.624 1.395 1.394 0 .77-.623 1.393-1.395 1.393-.77 0-1.393-.623-1.393-1.393S8.243 6.1 9.013 6.1zm-3.638 0c.77 0 1.394.624 1.394 1.394 0 .77-.624 1.393-1.395 1.393-.77 0-1.393-.623-1.393-1.393S4.606 6.1 5.375 6.1zm-2.637 4.79c0-.74.6-1.343 1.34-1.343H6.06c-.3.37-.484.832-.485 1.342v1.745H2.738V10.89z"/></svg>