<svg width="16" height="16" xmlns="http://www.w3.org/2000/svg" viewBox="0 0 16 16" shape-rendering="geometricPrecision" fill="#ffad00"><defs><mask id="a"><rect fill="#fff" width="100%" height="100%"/><path d="M13.848-1.1L12.05.695l.287.287c-1.812.575-3.107 2.263-3.107 4.254v.987h2.626v-.988c0-.49.19-.954.538-1.302l.03-.03 1.425 1.42 3.21-3.212L13.85-1.1z" fill="#000"/></mask></defs><path d="M13.848-.04l-.736.735.82.82H13.7l-.157.01c-1.978.083-3.563 1.713-3.563 3.71v.237h1.126v-.237c0-.69.27-1.343.76-1.833s1.14-.76 1.832-.76h.3l-.886.888.735.734L16 2.11 13.848-.04z" fill="#cb1800"/><path mask="url(#a)" d="M14.49 13.12L14.48 0H4.033c-1.376.003-2.498.62-2.52 1.987-.004.025-.004.53 0 .535v.003c0 .04.008.076.01.117h-.01v10.826C1.515 14.865 2.65 16 4.045 16h8.386l-.038-1.69-.01-11.344h-8.35c-.495 0-1.68-.048-1.68-.98v-.092C2.405 1.01 3.538.842 4.033.842h9.594v12.28h.864zM7.82 4.303c.62 0 1.12.502 1.12 1.122 0 .616-.5 1.12-1.12 1.12-.62 0-1.123-.504-1.123-1.12 0-.62.502-1.122 1.122-1.122zM5.56 12.996h1.105v-4.47h-1.1v-.834h3.358v5.304h1.106v1.11H5.563v-1.11z"/></svg>