<svg width="16" height="16" xmlns="http://www.w3.org/2000/svg" viewBox="0 0 16 16" shape-rendering="geometricPrecision" fill="#ffad00"><defs><mask id="a"><rect fill="#fff" width="100%" height="100%"/><path d="M13.848-1.1L12.05.695l.287.287c-1.812.575-3.107 2.263-3.107 4.254v.987h2.626v-.988c0-.49.19-.954.538-1.302l.03-.03 1.425 1.42 3.21-3.212L13.85-1.1z" fill="#000"/></mask></defs><path d="M13.848-.04l-.736.735.82.82H13.7l-.157.01c-1.978.083-3.563 1.713-3.563 3.71v.237h1.126v-.237c0-.69.27-1.343.76-1.833s1.14-.76 1.832-.76h.3l-.886.888.735.734L16 2.11 13.848-.04z" fill="#cb1800"/><path mask="url(#a)" d="M9.985 2L8.27 3.713l1.913 1.914h-.546l-.364.018c-4.608.196-8.3 3.993-8.3 8.646v.554h2.624v-.553c0-1.61.628-3.127 1.768-4.27 1.142-1.14 2.66-1.768 4.272-1.768h.552V8.25h.146L8.27 10.318l1.714 1.71L15 7.013 9.985 2z"/></svg>