<?xml version="1.0"?><!DOCTYPE svg PUBLIC "-//W3C//DTD SVG 1.1//EN" "http://www.w3.org/Graphics/SVG/1.1/DTD/svg11.dtd"><svg width="16px" height="16px" xmlns="http://www.w3.org/2000/svg" viewBox="0 0 16 16" shape-rendering="geometricPrecision" fill="#abb7ce"><g><g><g><g><path d="M15.631,6.403c-0.385-0.15-0.655-0.524-0.655-0.96c0-0.435,0.27-0.809,0.655-0.959l0.315-0.134 c0,0,0.001,0,0.001-0.001l0.001,0.004c0.115-0.051,0.168-0.182,0.121-0.296l-0.001-0.002c0-0.001,0-0.002,0-0.002l-0.24-0.579 l-0.367-0.889c-0.011-0.027-0.039-0.038-0.058-0.058c-0.062-0.065-0.148-0.102-0.236-0.065l0,0.001h0L14.85,2.594 c-0.375,0.167-0.829,0.095-1.139-0.216c-0.307-0.307-0.378-0.763-0.214-1.142l0.132-0.317c0.046-0.114-0.008-0.245-0.122-0.294 L12.04,0.017c-0.115-0.048-0.247,0.005-0.293,0.122l-0.135,0.317c-0.15,0.383-0.522,0.654-0.957,0.654 c-0.434,0-0.807-0.271-0.956-0.653L9.565,0.137C9.516,0.023,9.385-0.03,9.27,0.017l-1.466,0.61 c-0.115,0.047-0.17,0.178-0.123,0.294l0.13,0.318c0.167,0.376,0.095,0.832-0.213,1.142C7.29,2.688,6.836,2.758,6.459,2.595 v0.002L6.142,2.462c-0.114-0.045-0.248,0.01-0.295,0.124L5.239,4.054C5.192,4.17,5.249,4.303,5.362,4.351l0.317,0.134 c0.382,0.149,0.654,0.523,0.654,0.96c0,0.436-0.272,0.809-0.654,0.956L5.363,6.539C5.249,6.583,5.194,6.717,5.24,6.832 l0.608,1.47c0.047,0.114,0.18,0.171,0.293,0.122l0.319-0.131C6.836,8.127,7.29,8.197,7.597,8.507 C7.906,8.817,7.978,9.27,7.811,9.649h0.002L7.682,9.967c-0.046,0.115,0.006,0.248,0.121,0.295l1.466,0.609 c0.115,0.048,0.247-0.008,0.294-0.122l0.134-0.317c0.15-0.384,0.521-0.654,0.956-0.656c0.436,0.002,0.808,0.274,0.957,0.653 l0.135,0.32c0.048,0.115,0.18,0.17,0.294,0.121l1.466-0.608c0.114-0.047,0.169-0.18,0.122-0.295l-0.132-0.317h0.001 c-0.164-0.379-0.093-0.832,0.214-1.143c0.31-0.31,0.763-0.38,1.138-0.216h0.002l0.314,0.133 c0.116,0.048,0.249-0.008,0.295-0.122l0.608-1.471c0.048-0.114-0.007-0.248-0.12-0.295L15.631,6.403z M11.399,7.244 c-0.992,0.412-2.13-0.061-2.541-1.056C8.449,5.195,8.919,4.054,9.911,3.644c0.992-0.411,2.13,0.062,2.54,1.054 C12.863,5.693,12.389,6.831,11.399,7.244z"/></g></g><g><g><path d="M7.722,11.283H7.481V11.28c-0.287,0.01-0.562-0.16-0.678-0.441c-0.117-0.281-0.042-0.595,0.166-0.795l0.17-0.171 c0.061-0.06,0.061-0.162,0-0.224L6.354,8.862C6.293,8.8,6.193,8.8,6.131,8.862L5.96,9.032C5.762,9.239,5.448,9.316,5.166,9.198 c-0.28-0.118-0.449-0.392-0.442-0.68l-0.002-0.24c0-0.088-0.071-0.158-0.158-0.159H3.453c-0.086,0-0.159,0.071-0.158,0.158 L3.294,8.519c0.007,0.288-0.161,0.562-0.442,0.68C2.571,9.315,2.257,9.239,2.06,9.032h0l-0.17-0.171 C1.827,8.8,1.728,8.8,1.666,8.861L0.881,9.649c-0.061,0.061-0.061,0.16,0,0.223l0.167,0.172c0.209,0.2,0.284,0.514,0.168,0.795 C1.099,11.12,0.824,11.29,0.539,11.28l-0.241,0.004c-0.088,0-0.159,0.071-0.159,0.159v1.113c0,0.087,0.071,0.158,0.159,0.158 h0.241l-0.002,0.002c0.288-0.01,0.563,0.161,0.679,0.441c0.116,0.282,0.042,0.596-0.167,0.794v0.001l-0.17,0.172 c-0.06,0.06-0.06,0.163,0,0.222l0.786,0.787c0.062,0.062,0.161,0.062,0.223,0l0.172-0.168c0.198-0.209,0.511-0.283,0.793-0.167 c0.281,0.118,0.449,0.393,0.442,0.681l0.003,0.239H3.295c0.001,0.09,0.072,0.159,0.158,0.159h1.112 c0.087,0,0.159-0.069,0.159-0.159H4.722l0.002-0.239c-0.007-0.288,0.162-0.562,0.442-0.681 c0.282-0.116,0.596-0.041,0.794,0.167l0.169,0.17c0.062,0.062,0.163,0.062,0.223,0l0.786-0.787 c0.062-0.061,0.062-0.161,0-0.221l-0.168-0.175c-0.207-0.199-0.283-0.513-0.166-0.795c0.116-0.28,0.391-0.451,0.678-0.441 l0.241-0.005c0.086,0,0.157-0.071,0.157-0.157V11.44C7.879,11.353,7.809,11.283,7.722,11.283z M4.009,13.361 c-0.75,0-1.359-0.609-1.359-1.362c0-0.752,0.608-1.363,1.359-1.363c0.751,0,1.36,0.611,1.36,1.363 C5.369,12.752,4.76,13.361,4.009,13.361z"/></g></g></g></g></svg>