<?xml version="1.0"?><!DOCTYPE svg PUBLIC "-//W3C//DTD SVG 1.1//EN" "http://www.w3.org/Graphics/SVG/1.1/DTD/svg11.dtd"><svg width="16px" height="16px" xmlns="http://www.w3.org/2000/svg" viewBox="0 0 16 16" shape-rendering="geometricPrecision" fill="#cb1800"><defs><mask id="move_left-path"><rect fill="#fff" width="100%" height="100%"/><polygon points="16.383,1.058 13.913,-1.415 9.403,3.097 13.914,7.603 16.383,5.134 14.348,3.095 " fill="#000"/></mask></defs><polygon points="12.935,3.095 14.97,1.058 13.913,0 10.817,3.097 13.913,6.189 14.97,5.133 " fill="#cb1800"/><g mask="url(#move_left-path)"><g><path d="M7.99,15.033c-1.088,0-1.828-0.8-1.828-1.868c0-1.088,0.759-1.868,1.848-1.868c1.088,0,1.807,0.78,1.827,1.868 c0,1.068-0.717,1.868-1.827,1.868H7.99z M6.84,10.27L6.368,0.967h3.265L9.181,10.27H6.84z"/></g></g></svg>