<svg width="16" height="16" xmlns="http://www.w3.org/2000/svg" viewBox="0 0 16 16" shape-rendering="geometricPrecision"><defs><mask id="a"><rect fill="#fff" width="100%" height="100%"/><path d="M12.997.858c-1.845 0-3.446 1.04-4.253 2.563.808 1.524 2.408 2.563 4.253 2.563 1.844 0 3.444-1.04 4.253-2.562C16.44 1.898 14.84.86 12.997.86z"/></mask></defs><path d="M12.997 1.61c-1.303 0-2.433.734-3.003 1.81.57 1.076 1.7 1.81 3.003 1.81 1.302 0 2.432-.733 3.003-1.81-.57-1.075-1.7-1.81-3.003-1.81zm0 3.397c-.877 0-1.588-.71-1.588-1.586 0-.876.71-1.587 1.586-1.587.877 0 1.588.71 1.588 1.588 0 .877-.71 1.587-1.588 1.587z" fill="#cb1800"/><path d="M12.694 4.022c-.014 0-.026.005-.04.006v-.73c0-.715-.58-1.295-1.297-1.295H4.63c-.717 0-1.298.58-1.298 1.296v.726c-.01 0-.017-.004-.026-.004-.254 0-.46.152-.46.34V5.56c0 .188.207.34.46.34.01 0 .017-.004.026-.005V13.053h.002v.946h1.4v-.946h6.52v.946h1.4v-1.77h-.008V7.825c0-.022.007-.042.007-.064V5.895c.015 0 .027.006.04.006.255 0 .46-.152.46-.34V4.363c0-.188-.206-.34-.46-.34zm-7.18 7.81H4.96c-.358 0-.648-.29-.648-.647 0-.357.29-.647.647-.647h.554c.357 0 .647.29.647.647 0 .357-.29.647-.646.647zm5.357 0h-.554c-.357 0-.647-.29-.647-.647 0-.357.29-.647.646-.647h.555c.36 0 .648.29.648.647 0 .357-.29.647-.647.647zm.935-3.935c0 .646-.49 1.17-1.093 1.17H5.275c-.604 0-1.093-.524-1.093-1.17V4.104c0-.646.49-1.17 1.093-1.17h5.437c.604 0 1.093.524 1.093 1.17v3.793z" mask="url(#a)"/></svg>