<svg width="16" height="16" xmlns="http://www.w3.org/2000/svg" viewBox="0 0 16 16" shape-rendering="geometricPrecision"><defs><mask id="a"><rect fill="#fff" width="100%" height="100%"/><path d="M12.997.858c-1.845 0-3.446 1.04-4.253 2.563.808 1.524 2.408 2.563 4.253 2.563 1.844 0 3.444-1.04 4.253-2.562C16.44 1.898 14.84.86 12.997.86z"/></mask></defs><path d="M12.997 1.61c-1.303 0-2.433.734-3.003 1.81.57 1.076 1.7 1.81 3.003 1.81 1.302 0 2.432-.733 3.003-1.81-.57-1.075-1.7-1.81-3.003-1.81zm0 3.397c-.877 0-1.588-.71-1.588-1.586 0-.876.71-1.587 1.586-1.587.877 0 1.588.71 1.588 1.588 0 .877-.71 1.587-1.588 1.587z" fill="#cb1800"/><path d="M11.246 9.283c1.382 0 2.497-1.115 2.497-2.495 0-1.378-1.114-2.494-2.497-2.494-1.377 0-2.496 1.116-2.496 2.494 0 1.38 1.12 2.495 2.496 2.495zm-11.24 3.59V16h5.08v-3.128c.002-.914.335-1.743.87-2.403H2.402c-1.322 0-2.398 1.08-2.398 2.403zm13.558-2.404H8.92c-1.324 0-2.4 1.08-2.4 2.403V16h9.45v-3.127c0-1.322-1.083-2.404-2.406-2.404zM4.73 4.293c-1.378 0-2.496 1.116-2.496 2.494 0 1.38 1.118 2.495 2.495 2.495 1.38 0 2.495-1.115 2.495-2.495 0-1.378-1.114-2.494-2.496-2.494z" mask="url(#a)"/></svg>