<svg width="16" height="16" xmlns="http://www.w3.org/2000/svg" viewBox="0 0 16 16" shape-rendering="geometricPrecision"><defs><mask id="a"><rect fill="#fff" width="100%" height="100%"/><path d="M12.997.858c-1.845 0-3.446 1.04-4.253 2.563.808 1.524 2.408 2.563 4.253 2.563 1.844 0 3.444-1.04 4.253-2.562C16.44 1.898 14.84.86 12.997.86z"/></mask></defs><path d="M12.997 1.61c-1.303 0-2.433.734-3.003 1.81.57 1.076 1.7 1.81 3.003 1.81 1.302 0 2.432-.733 3.003-1.81-.57-1.075-1.7-1.81-3.003-1.81zm0 3.397c-.877 0-1.588-.71-1.588-1.586 0-.876.71-1.587 1.586-1.587.877 0 1.588.71 1.588 1.588 0 .877-.71 1.587-1.588 1.587z" fill="#cb1800"/><g mask="url(#a)"><path d="M6.655 8.12c0 .522-.208.993-.54 1.346h3.925c-.332-.353-.54-.823-.54-1.345 0-.667.337-1.258.85-1.612-.282-.34-.702-.56-1.174-.56H6.974c-.472 0-.89.22-1.17.56.514.353.85.943.85 1.613z"/><circle cx="8.077" cy="3.606" r="1.587"/><circle cx="4.691" cy="8.122" r="1.587"/><path d="M5.79 10.462H3.587c-.84 0-1.525.69-1.525 1.53v1.988H7.32v-1.988c0-.84-.69-1.53-1.53-1.53z"/><circle cx="11.464" cy="8.121" r="1.588"/><path d="M12.562 10.462H10.36c-.84 0-1.525.69-1.525 1.53v1.988h5.258v-1.988c0-.84-.69-1.53-1.53-1.53z"/></g></svg>