<svg width="16" height="16" xmlns="http://www.w3.org/2000/svg" viewBox="0 0 16 16" shape-rendering="geometricPrecision"><defs><mask id="a"><rect fill="#fff" width="100%" height="100%"/><path d="M12.997.858c-1.845 0-3.446 1.04-4.253 2.563.808 1.524 2.408 2.563 4.253 2.563 1.844 0 3.444-1.04 4.253-2.562C16.44 1.898 14.84.86 12.997.86z"/></mask></defs><path d="M12.997 1.61c-1.303 0-2.433.734-3.003 1.81.57 1.076 1.7 1.81 3.003 1.81 1.302 0 2.432-.733 3.003-1.81-.57-1.075-1.7-1.81-3.003-1.81zm0 3.397c-.877 0-1.588-.71-1.588-1.586 0-.876.71-1.587 1.586-1.587.877 0 1.588.71 1.588 1.588 0 .877-.71 1.587-1.588 1.587z" fill="#cb1800"/><path d="M11.03 9.168H9.308v.744h1.724v-.744zM7.07 6.992l.973-2.43L5.5 3.545 4.12 6.992H.892V16h14.216V6.99h-8.04zm.437 8.013H1.882V7.982h1.84l-.966 2.413 2.54 1.02L6.67 7.98h.835v7.023zm6.612 0h-5.62V7.982h5.62v7.023zm-1.26-4.5h-3.55v.746h3.55v-.744zM8.732 2.844c.275-.7-.065-1.493-.764-1.77-.7-.282-1.492.057-1.778.754L5.78 2.843l2.542 1.022.41-1.022zM3.06 13.316l1.152-.983-1.295-.517.143 1.5z" mask="url(#a)"/></svg>