<svg width="16" height="16" xmlns="http://www.w3.org/2000/svg" viewBox="0 0 16 16" shape-rendering="geometricPrecision"><defs><mask id="a"><rect fill="#fff" width="100%" height="100%"/><path d="M12.997.858c-1.845 0-3.446 1.04-4.253 2.563.808 1.524 2.408 2.563 4.253 2.563 1.844 0 3.444-1.04 4.253-2.562C16.44 1.898 14.84.86 12.997.86z"/></mask></defs><path d="M12.997 1.61c-1.303 0-2.433.734-3.003 1.81.57 1.076 1.7 1.81 3.003 1.81 1.302 0 2.432-.733 3.003-1.81-.57-1.075-1.7-1.81-3.003-1.81zm0 3.397c-.877 0-1.588-.71-1.588-1.586 0-.876.71-1.587 1.586-1.587.877 0 1.588.71 1.588 1.588 0 .877-.71 1.587-1.588 1.587z" fill="#cb1800"/><g mask="url(#a)"><path d="M7.27 8.73H1.03c0 3.443 2.795 6.24 6.238 6.24h.002V8.73z"/><path d="M8.83.928c-3.442 0-6.237 2.793-6.238 6.236H4.45c0-2.417 1.962-4.38 4.38-4.38 2.42 0 4.382 1.964 4.382 4.38 0 2.42-1.96 4.382-4.378 4.384v1.857c3.443-.002 6.235-2.797 6.235-6.24C15.067 3.723 12.275.928 8.83.928zm2.344 6.237c0-1.292-1.05-2.342-2.344-2.342-1.293 0-2.34 1.05-2.342 2.34h2.346V9.51c1.29-.002 2.34-1.052 2.34-2.345z"/></g></svg>