<svg width="16" height="16" xmlns="http://www.w3.org/2000/svg" viewBox="0 0 16 16" shape-rendering="geometricPrecision"><defs><mask id="a"><rect fill="#fff" width="100%" height="100%"/><path d="M12.997.858c-1.845 0-3.446 1.04-4.253 2.563.808 1.524 2.408 2.563 4.253 2.563 1.844 0 3.444-1.04 4.253-2.562C16.44 1.898 14.84.86 12.997.86z"/></mask></defs><path d="M12.997 1.61c-1.303 0-2.433.734-3.003 1.81.57 1.076 1.7 1.81 3.003 1.81 1.302 0 2.432-.733 3.003-1.81-.57-1.075-1.7-1.81-3.003-1.81zm0 3.397c-.877 0-1.588-.71-1.588-1.586 0-.876.71-1.587 1.586-1.587.877 0 1.588.71 1.588 1.588 0 .877-.71 1.587-1.588 1.587z" fill="#cb1800"/><g mask="url(#a)"><path d="M14.818 5.818c-.4-2.076-3.738-2.21-5.54-2.21H6.704c-1.8 0-5.08.296-5.514 2.184l-.11.735-.02.54h1.847C3.673 6.483 4.92 5.864 5.81 5.54c.436-.426 1.138-.576 1.696-.576H8.53c.578 0 1.32.088 1.753.58.877.327 2.1.944 2.853 1.524h1.8l.005-.517-.122-.732z"/><path d="M14.082 10.512c0-.623-.497-2.442-.497-2.442-.235-.777-3.503-2.342-4.193-2.342H6.7c-.69 0-4.017 1.565-4.252 2.342 0 0-.497 1.82-.497 2.442 0 .488-.003 1.445-.003 1.445H14.085s-.003-.957-.003-1.445zM8 10.935c-1.16 0-2.102-.94-2.102-2.102S6.838 6.73 8 6.73c1.16 0 2.102.94 2.102 2.102 0 1.16-.94 2.103-2.102 2.103z"/></g></svg>