<svg width="16" height="16" xmlns="http://www.w3.org/2000/svg" viewBox="0 0 16 16" shape-rendering="geometricPrecision"><defs><mask id="a"><rect fill="#fff" width="100%" height="100%"/><path d="M12.997.858c-1.845 0-3.446 1.04-4.253 2.563.808 1.524 2.408 2.563 4.253 2.563 1.844 0 3.444-1.04 4.253-2.562C16.44 1.898 14.84.86 12.997.86z"/></mask></defs><path d="M12.997 1.61c-1.303 0-2.433.734-3.003 1.81.57 1.076 1.7 1.81 3.003 1.81 1.302 0 2.432-.733 3.003-1.81-.57-1.075-1.7-1.81-3.003-1.81zm0 3.397c-.877 0-1.588-.71-1.588-1.586 0-.876.71-1.587 1.586-1.587.877 0 1.588.71 1.588 1.588 0 .877-.71 1.587-1.588 1.587z" fill="#cb1800"/><path mask="url(#a)" d="M13.053 8.004c.064-.324.1-.657.1-1 0-2.86-2.317-5.18-5.18-5.18-2.856 0-5.177 2.32-5.177 5.178h1.54C4.34 4.995 5.97 3.365 7.975 3.365c2.01 0 3.64 1.63 3.64 3.64 0 .35-.066.68-.158 1h-1.82c.177-.294.285-.634.285-1 0-1.075-.872-1.947-1.946-1.947S6.03 5.93 6.03 7.004c0 .367.107.707.284 1H.958v5.482h14.084V8.004h-1.99zm-1.676 2.74H4.622v-1.46h6.755v1.46z"/></svg>