<?xml version="1.0"?><!DOCTYPE svg PUBLIC "-//W3C//DTD SVG 1.1//EN" "http://www.w3.org/Graphics/SVG/1.1/DTD/svg11.dtd"><svg width="16px" height="16px" xmlns="http://www.w3.org/2000/svg" viewBox="0 0 16 16" shape-rendering="geometricPrecision" fill="#ffad00"><defs><mask id="pause-path"><rect fill="#fff" width="100%" height="100%"/><polygon points="13.135,-1 12.45,-1 9.585,-1 9.585,6.956 12.45,6.956 13.135,6.956 16,6.956 16,-1 " fill="#000"/></mask></defs><g fill="#cb1800"><g><rect x="10.585" y="0" width="1.55" height="5.956"/></g><g><rect x="13.45" y="0" width="1.55" height="5.956"/></g></g><g mask="url(#pause-path)"><circle cx="11.279" cy="12.205" r="0.769"/><circle cx="11.279" cy="7.938" r="0.769"/><path d="M2.042,0.948v4.265v1.185v3.082v1.185v4.265h11.939v-4.265V9.479V6.397V5.213V0.948H2.042z M12.854,13.802H3.171v-3.138h9.682V13.802z M12.854,9.479H3.171V6.397h9.682V9.479z M3.171,5.213V2.077h9.682v3.136H3.171z"/><circle cx="11.279" cy="3.672" r="0.769"/></g></svg>