<?xml version="1.0"?><!DOCTYPE svg PUBLIC "-//W3C//DTD SVG 1.1//EN" "http://www.w3.org/Graphics/SVG/1.1/DTD/svg11.dtd"><svg width="16px" height="16px" xmlns="http://www.w3.org/2000/svg" viewBox="0 0 16 16" shape-rendering="geometricPrecision" fill="#ffad00"><defs><mask id="pause-path"><rect fill="#fff" width="100%" height="100%"/><polygon points="13.135,-1 12.45,-1 9.585,-1 9.585,6.956 12.45,6.956 13.135,6.956 16,6.956 16,-1 " fill="#000"/></mask></defs><g fill="#cb1800"><g><rect x="10.585" y="0" width="1.55" height="5.956"/></g><g><rect x="13.45" y="0" width="1.55" height="5.956"/></g></g><g mask="url(#pause-path)"><path d="M7.999,0.973c-3.864,0-6.996,3.133-6.996,7c0.001,3.862,3.132,6.992,6.996,6.994c3.865-0.002,6.998-3.132,6.998-6.994 C14.997,4.105,11.864,0.973,7.999,0.973z M9.026,3.636L8.741,9.48H7.27L6.974,3.636H9.026z M8.005,12.473H7.993 c-0.683,0-1.147-0.501-1.147-1.172c0-0.685,0.477-1.175,1.16-1.175c0.686,0,1.138,0.49,1.148,1.175 C9.153,11.972,8.703,12.473,8.005,12.473z"/></g></svg>