<svg width="16" height="16" xmlns="http://www.w3.org/2000/svg" viewBox="0 0 16 16" shape-rendering="geometricPrecision" fill="#ffad00"><defs><mask id="a"><rect fill="#fff" width="100%" height="100%"/><path fill="#000" d="M13.135-1H9.585v7.956H16V-1z"/></mask></defs><g fill="#cb1800"><path d="M10.585 0h1.55v5.956h-1.55zM13.45 0H15v5.956h-1.55z"/></g><g mask="url(#a)"><circle cx="3.535" cy="5.213" r="1.794"/><path d="M4.35 7.858H2.713c-.95 0-1.725.78-1.725 1.73v2.246H6.08V9.59c0-.952-.78-1.732-1.73-1.732z"/><circle cx="12.465" cy="7.338" r="1.794"/><path d="M13.282 9.983h-1.64c-.95 0-1.723.78-1.723 1.73v2.247h5.092v-2.248c0-.95-.78-1.73-1.73-1.73z"/><circle cx="7.504" cy="3.228" r="1.794"/><path d="M10.05 9.85V7.604c0-.95-.778-1.73-1.73-1.73H6.682c-.928 0-1.68.74-1.717 1.66.888.267 1.54 1.08 1.54 2.056v.26h3.545z"/></g></svg>