<?xml version="1.0"?><!DOCTYPE svg PUBLIC "-//W3C//DTD SVG 1.1//EN" "http://www.w3.org/Graphics/SVG/1.1/DTD/svg11.dtd"><svg xmlns="http://www.w3.org/2000/svg" viewBox="0 0 16 16" shape-rendering="geometricPrecision" fill="#ffad00"><defs><mask id="pause-path"><rect fill="#fff" width="100%" height="100%"/><polygon points="13.135,-1 12.45,-1 9.585,-1 9.585,6.956 12.45,6.956 13.135,6.956 16,6.956 16,-1 " fill="#000"/></mask></defs><g fill="#cb1800"><g><rect x="10.585" y="0" width="1.55" height="5.956"/></g><g><rect x="13.45" y="0" width="1.55" height="5.956"/></g></g><g mask="url(#pause-path)"><path d="M13.078,2.394c-1.786-1.782-4.658-1.766-6.444,0.01l-5.05,5.052l0.904,0.902l5.051-5.049 c1.288-1.29,3.353-1.298,4.639-0.012c1.281,1.284,1.283,3.365,0,4.65l-5.051,5.051c-0.881,0.881-2.304,0.889-3.186,0.008 c-0.878-0.882-0.878-2.312,0-3.194l4.422-4.423L8.364,5.39c0.487-0.483,1.253-0.484,1.732-0.007 c0.478,0.478,0.476,1.255-0.002,1.734L5.67,11.542l0.901,0.9l4.423-4.423c0.976-0.977,0.98-2.562,0.003-3.54 c-0.978-0.971-2.543-0.961-3.521-0.001L7.474,4.477L3.039,8.909c-1.38,1.38-1.377,3.62,0,4.999 c1.382,1.376,3.612,1.365,4.99-0.009l5.05-5.051C14.865,7.063,14.859,4.176,13.078,2.394z"/></g></svg>
