<svg width="16" height="16" xmlns="http://www.w3.org/2000/svg" viewBox="0 0 16 16" shape-rendering="geometricPrecision" fill="#ffad00"><defs><mask id="a"><rect fill="#fff" width="100%" height="100%"/><path fill="#000" d="M13.135-1H9.585v7.956H16V-1z"/></mask></defs><g fill="#cb1800"><path d="M10.585 0h1.55v5.956h-1.55zM13.45 0H15v5.956h-1.55z"/></g><g mask="url(#a)"><path d="M13.997 2.942v9.965H2.957V2.942h11.04m1-1H1.957v11.965h13.04V1.942z"/><path d="M1.958 4.06h13.054v1.065H1.958z"/><path d="M5.87 4.06h1.065v9.577H5.87zM10.102 4.06h1.064v9.577h-1.064zM3.985 5.89H5.09v1.106H3.986zM3.985 10.89H5.09v1.106H3.986zM7.932 8.85h1.106v1.105H7.932zM7.932 6.996h1.106v1.106H7.932zM11.942 9.955h1.106v1.106h-1.106zM11.942 8h1.106v1.106h-1.106z"/></g></svg>