<?xml version="1.0"?><!DOCTYPE svg PUBLIC "-//W3C//DTD SVG 1.1//EN" "http://www.w3.org/Graphics/SVG/1.1/DTD/svg11.dtd"><svg xmlns="http://www.w3.org/2000/svg" viewBox="0 0 16 16" shape-rendering="geometricPrecision" fill="#abb7ce"><defs><mask id="move_up-path"><rect fill="#fff" width="100%" height="100%"/><polygon points="12.892,-0.396 8.385,4.114 10.856,6.585 12.894,4.549 14.931,6.584 17.404,4.114 " fill="#000"/></mask></defs><polygon points="12.894,3.136 14.931,5.171 15.989,4.114 12.892,1.018 9.799,4.114 10.856,5.171 " fill="#cb1800"/><g mask="url(#move_up-path)"><path d="M11.805,2.414c0.356-0.906-0.084-1.934-0.99-2.293C9.91-0.243,8.885,0.195,8.515,1.097l0,0L7.986,2.414 l3.291,1.321l0.531-1.321H11.805z M4.463,15.971l1.491-1.273l-1.676-0.668L4.463,15.971z M4.072,12.189l3.289,1.319l3.554-8.869 l-3.29-1.318L4.072,12.189z"/></g></svg>
