<svg width="16" height="16" xmlns="http://www.w3.org/2000/svg" viewBox="0 0 16 16" shape-rendering="geometricPrecision" fill="#24437c"><defs><mask id="a"><rect fill="#fff" width="100%" height="100%"/><path fill="#000" d="M12.892-.396l-4.507 4.51 2.47 2.47 2.04-2.035 2.036 2.034 2.474-2.47z"/></mask></defs><path fill="#cb1800" d="M12.894 3.136L14.93 5.17l1.06-1.056-3.098-3.096L9.8 4.114l1.056 1.057"/><g mask="url(#a)"><path d="M0 5.12l3.176 3.182L0 11.48l1.65 1.65L6.48 8.3 1.65 3.473M7.144.605V14.7H8.21V1.67l4.058.003-2.67.764V16l6.4-1.832V1.674H16V.604H7.144zM15 13.47l-4.4 1.282V3.188L15 1.906V13.47z"/></g></svg>