<?xml version="1.0"?><!DOCTYPE svg PUBLIC "-//W3C//DTD SVG 1.1//EN" "http://www.w3.org/Graphics/SVG/1.1/DTD/svg11.dtd"><svg xmlns="http://www.w3.org/2000/svg" viewBox="0 0 16 16" shape-rendering="geometricPrecision" fill="#24437c"><defs><mask id="move_up-path"><rect fill="#fff" width="100%" height="100%"/><polygon points="12.892,-0.396 8.385,4.114 10.856,6.585 12.894,4.549 14.931,6.584 17.404,4.114 " fill="#000"/></mask></defs><polygon points="12.894,3.136 14.931,5.171 15.989,4.114 12.892,1.018 9.799,4.114 10.856,5.171 " fill="#cb1800"/><g mask="url(#move_up-path)"><polygon points="3.032,-0.012 3.032,1.044 13.361,1.044 13.361,10.27 14.434,10.27 14.434,-0.012"/><polygon points="8.98,15.293 11.505,12.968 8.98,12.968"/><path d="M1.566,15.97h5.971V11.53h4.773V2.088H1.566V15.97z M2.94,3.326h8.116v6.725h-4.79v4.601H2.94V3.326z"/></g></svg>
