<?xml version="1.0"?><!DOCTYPE svg PUBLIC "-//W3C//DTD SVG 1.1//EN" "http://www.w3.org/Graphics/SVG/1.1/DTD/svg11.dtd"><svg xmlns="http://www.w3.org/2000/svg" viewBox="0 0 16 16" shape-rendering="geometricPrecision" fill="#24437c"><defs><mask id="move_up-path"><rect fill="#fff" width="100%" height="100%"/><polygon points="12.892,-0.396 8.385,4.114 10.856,6.585 12.894,4.549 14.931,6.584 17.404,4.114 " fill="#000"/></mask></defs><polygon points="12.894,3.136 14.931,5.171 15.989,4.114 12.892,1.018 9.799,4.114 10.856,5.171 " fill="#cb1800"/><g mask="url(#move_up-path)"><g><path d="M8.032,4.168c0.888,0,1.605-0.721,1.605-1.603c0-0.888-0.718-1.605-1.605-1.605c-0.888,0-1.606,0.718-1.606,1.605 C6.425,3.447,7.144,4.168,8.032,4.168z M9.615,13.403V5.812H4.807v1.194h1.576v6.397H4.802v1.591h6.395v-1.591H9.615z"/></g></g></svg>
