<?xml version="1.0"?><!DOCTYPE svg PUBLIC "-//W3C//DTD SVG 1.1//EN" "http://www.w3.org/Graphics/SVG/1.1/DTD/svg11.dtd"><svg xmlns="http://www.w3.org/2000/svg" viewBox="0 0 16 16" shape-rendering="geometricPrecision" fill="#24437c"><defs><mask id="move_up-path"><rect fill="#fff" width="100%" height="100%"/><polygon points="12.892,-0.396 8.385,4.114 10.856,6.585 12.894,4.549 14.931,6.584 17.404,4.114 " fill="#000"/></mask></defs><polygon points="12.894,3.136 14.931,5.171 15.989,4.114 12.892,1.018 9.799,4.114 10.856,5.171 " fill="#cb1800"/><g mask="url(#move_up-path)"><g><path d="M5.687,5.661c0-1.279,1.036-2.312,2.313-2.312c1.276,0,2.312,1.033,2.312,2.312v1.149h1.414V5.661 c0-2.059-1.668-3.727-3.726-3.727c-2.059,0-3.728,1.669-3.728,3.727v1.149h1.414V5.661z M3.062,7.792v7.207h9.876V7.792H3.062z M8.87,12.594c0,0.479-0.388,0.867-0.867,0.867c-0.481,0-0.872-0.389-0.872-0.867v-2.396c0-0.478,0.391-0.867,0.869-0.867 c0.482,0,0.87,0.39,0.87,0.867V12.594z"/></g></g></svg>
