<svg width="16" height="16" xmlns="http://www.w3.org/2000/svg" viewBox="0 0 16 16" shape-rendering="geometricPrecision" fill="#00962d"><defs><mask id="a"><rect fill="#fff" width="100%" height="100%"/><path fill="#000" d="M14.782 1.217V-1h-3.564v2.217H9V4.78h2.218V7h3.564V4.78H17V1.217z"/></mask></defs><path fill="#cb1800" d="M16 2.217h-2.218V0h-1.564v2.217H10V3.78h2.218V6h1.564V3.78H16"/><path d="M8.41 6.155l6.188.002-.002-6.185h-2.114l-.002 2.695C9.548.404 5.354.555 2.69 3.217c-2.895 2.895-2.832 7.604.086 10.53 2.93 2.918 7.635 2.98 10.533.09 1.424-1.426 2.14-3.31 2.137-5.19h-2.094c0 1.356-.507 2.69-1.525 3.71-2.058 2.05-5.443 2.036-7.572-.09C2.13 10.14 2.12 6.754 4.17 4.698 5.943 2.923 8.71 2.7 10.803 4.04H8.41v2.113z" mask="url(#a)"/></svg>