<svg width="16" height="16" xmlns="http://www.w3.org/2000/svg" viewBox="0 0 16 16" shape-rendering="geometricPrecision" fill="#00962d"><defs><mask id="a"><rect fill="#fff" width="100%" height="100%"/><path fill="#000" d="M14.782 1.217V-1h-3.564v2.217H9V4.78h2.218V7h3.564V4.78H17V1.217z"/></mask></defs><path fill="#cb1800" d="M16 2.217h-2.218V0h-1.564v2.217H10V3.78h2.218V6h1.564V3.78H16"/><g mask="url(#a)"><path d="M2.138 11.963c.624 0 1.128-.506 1.128-1.13 0-.622-.504-1.128-1.128-1.128-.623 0-1.13.506-1.13 1.128 0 .624.507 1.13 1.13 1.13zm1.05.536H1.084c-.6 0-1.085.49-1.085 1.087V15h4.276v-1.413c0-.598-.49-1.088-1.09-1.088zM13.862 11.963c.626 0 1.13-.506 1.13-1.13 0-.622-.504-1.128-1.13-1.128-.623 0-1.128.506-1.128 1.128 0 .624.505 1.13 1.128 1.13zm1.05.536H12.81c-.6 0-1.086.49-1.086 1.087V15H16v-1.413c0-.598-.49-1.088-1.09-1.088zM8.018 2.257c.624 0 1.128-.505 1.128-1.13S8.642 0 8.018 0c-.624 0-1.13.504-1.13 1.128s.506 1.13 1.13 1.13zm1.05.537H6.964c-.6 0-1.085.49-1.085 1.088v1.413h4.276V3.882c0-.6-.49-1.088-1.09-1.088zM8.528 6.99V5.984h-1.02V6.99H1.984v1.984H3.04V8h9.973v.973h.945V6.99"/></g></svg>