<svg width="16" height="16" xmlns="http://www.w3.org/2000/svg" viewBox="0 0 16 16" shape-rendering="geometricPrecision" fill="#00962d"><defs><mask id="a"><rect fill="#fff" width="100%" height="100%"/><path fill="#000" d="M14.782 1.217V-1h-3.564v2.217H9V4.78h2.218V7h3.564V4.78H17V1.217z"/></mask></defs><path fill="#cb1800" d="M16 2.217h-2.218V0h-1.564v2.217H10V3.78h2.218V6h1.564V3.78H16"/><path d="M12.5 3.976H3.562c-.86 0-1.556.697-1.556 1.556v4.906c0 .86.697 1.556 1.556 1.556H12.5c.86 0 1.556-.697 1.556-1.556V5.532c0-.86-.697-1.556-1.556-1.556zM6.936 10.2V5.937L9.75 8.068 6.936 10.2z" mask="url(#a)"/></svg>