<svg width="16" height="16" xmlns="http://www.w3.org/2000/svg" viewBox="0 0 16 16" shape-rendering="geometricPrecision" fill="#00962d"><defs><mask id="a"><rect fill="#fff" width="100%" height="100%"/><path fill="#000" d="M12.892-.396l-4.507 4.51 2.47 2.47 2.04-2.035 2.036 2.034 2.474-2.47z"/></mask></defs><path fill="#cb1800" d="M12.894 3.136L14.93 5.17l1.06-1.056-3.098-3.096L9.8 4.114l1.056 1.057"/><path d="M8.01 4.685c-.992-2.585-6.25-2.47-6.002 1.65.087 1.41 1.178 2.59 2.687 3.96 2.26 2.058 3.315 2.755 3.315 2.755s1.05-.697 3.314-2.755c1.505-1.37 2.6-2.55 2.683-3.96C14.254 2.215 9 2.1 8.01 4.685z" mask="url(#a)"/></svg>