<svg width="16" height="16" xmlns="http://www.w3.org/2000/svg" viewBox="0 0 16 16" shape-rendering="geometricPrecision" fill="#00962d"><defs><mask id="a"><rect fill="#fff" width="100%" height="100%"/><path fill="#000" d="M12.892-.396l-4.507 4.51 2.47 2.47 2.04-2.035 2.036 2.034 2.474-2.47z"/></mask></defs><path fill="#cb1800" d="M12.894 3.136L14.93 5.17l1.06-1.056-3.098-3.096L9.8 4.114l1.056 1.057"/><path d="M2.99 14.88l11.857-4.524L11.87 7l-8.88 7.88zM0 1.472V16l1.618-1.436v-4.98h5.61l4.74-4.205 4.028 4.538.004-.002V1.473H0zm8.056 6.19H1.618V6.268h6.438V7.66zm6.327-2.845H1.618V3.426h12.765v1.392z" mask="url(#a)"/></svg>