<svg width="16" height="16" xmlns="http://www.w3.org/2000/svg" viewBox="0 0 16 16" shape-rendering="geometricPrecision" fill="#00962d"><defs><mask id="a"><rect fill="#fff" width="100%" height="100%"/><path fill="#000" d="M12.892-.396l-4.507 4.51 2.47 2.47 2.04-2.035 2.036 2.034 2.474-2.47z"/></mask></defs><path fill="#cb1800" d="M12.894 3.136L14.93 5.17l1.06-1.056-3.098-3.096L9.8 4.114l1.056 1.057"/><path d="M15.432 12.94l-3.595-3.593-.356-.356c1.228-2.3.902-5.214-1.038-7.156-2.378-2.374-6.23-2.374-8.61.003-2.375 2.378-2.373 6.23.003 8.605 1.94 1.94 4.855 2.267 7.158 1.037l3.952 3.95c.686.688 1.8.688 2.486 0 .69-.686.69-1.8.002-2.49zM3.104 9.17c-1.672-1.673-1.676-4.39 0-6.062 1.675-1.68 4.39-1.677 6.065-.005 1.675 1.677 1.673 4.39 0 6.066-1.677 1.675-4.392 1.675-6.066 0z" mask="url(#a)"/></svg>