<svg width="16" height="16" xmlns="http://www.w3.org/2000/svg" viewBox="0 0 16 16" shape-rendering="geometricPrecision" fill="#00962d"><defs><mask id="a"><rect fill="#fff" width="100%" height="100%"/><path fill="#000" d="M12.892-.396l-4.507 4.51 2.47 2.47 2.04-2.035 2.036 2.034 2.474-2.47z"/></mask></defs><path fill="#cb1800" d="M12.894 3.136L14.93 5.17l1.06-1.056-3.098-3.096L9.8 4.114l1.056 1.057"/><path mask="url(#a)" d="M9.985 2L8.27 3.713l1.913 1.914h-.546l-.364.018c-4.608.196-8.3 3.993-8.3 8.646v.554h2.624v-.553c0-1.61.628-3.127 1.768-4.27 1.142-1.14 2.66-1.768 4.272-1.768h.552V8.25h.146L8.27 10.318l1.714 1.71L15 7.013 9.985 2z"/></svg>