<svg width="16" height="16" xmlns="http://www.w3.org/2000/svg" viewBox="0 0 16 16" shape-rendering="geometricPrecision" fill="#00962d"><defs><mask id="a"><rect fill="#fff" width="100%" height="100%"/><path fill="#000" d="M12.892-.396l-4.507 4.51 2.47 2.47 2.04-2.035 2.036 2.034 2.474-2.47z"/></mask></defs><path fill="#cb1800" d="M12.894 3.136L14.93 5.17l1.06-1.056-3.098-3.096L9.8 4.114l1.056 1.057"/><path mask="url(#a)" d="M8 1.042c-3.843 0-6.958 3.115-6.958 6.96 0 3.842 3.116 6.955 6.96 6.956 3.842 0 6.955-3.114 6.957-6.955-.002-3.846-3.116-6.96-6.96-6.96zm3.606 6.876c0 .354-.065.69-.16 1.014h2.02c-.134.778-.424 1.502-.843 2.134l-1.45-1.45c-.33.635-.835 1.154-1.457 1.503l1.44 1.44c-.633.438-1.36.748-2.147.894v-2.032c-.347.107-.707.182-1.088.182-.352 0-.684-.064-1.006-.156v1.996c-.776-.155-1.493-.474-2.116-.915l1.38-1.38c-.627-.34-1.14-.853-1.48-1.48l-1.35 1.35c-.405-.622-.686-1.33-.815-2.09h1.863c-.094-.322-.16-.658-.16-1.012 0-.378.075-.736.18-1.08H2.576c.156-.728.455-1.402.866-1.994l1.28 1.28c.35-.62.87-1.126 1.502-1.457l-1.29-1.29c.59-.392 1.26-.675 1.982-.818v1.83c.322-.09.654-.155 1.006-.155.38 0 .74.075 1.087.182v-1.87c.73.135 1.41.412 2.01.803L9.672 4.695c.627.342 1.138.854 1.478 1.48L12.528 4.8c.426.602.737 1.29.897 2.038h-1.997c.106.344.18.702.18 1.08z"/></svg>