<?xml version="1.0"?><!DOCTYPE svg PUBLIC "-//W3C//DTD SVG 1.1//EN" "http://www.w3.org/Graphics/SVG/1.1/DTD/svg11.dtd"><svg width="16px" height="16px" xmlns="http://www.w3.org/2000/svg" viewBox="0 0 16 16" shape-rendering="geometricPrecision" fill="#00962d"><defs><mask id="move_up-path"><rect fill="#fff" width="100%" height="100%"/><polygon points="12.892,-0.396 8.385,4.114 10.856,6.585 12.894,4.549 14.931,6.584 17.404,4.114 " fill="#000"/></mask></defs><polygon points="12.894,3.136 14.931,5.171 15.989,4.114 12.892,1.018 9.799,4.114 10.856,5.171 " fill="#cb1800"/><g mask="url(#move_up-path)"><path d="M12.5,3.976H3.562c-0.859,0-1.556,0.697-1.556,1.556v4.906c0,0.859,0.697,1.556,1.556,1.556H12.5 c0.859,0,1.556-0.697,1.556-1.556V5.532C14.056,4.673,13.359,3.976,12.5,3.976z M6.936,10.201l0.001-4.265L9.75,8.068 L6.936,10.201z"/></g></svg>