<svg width="16" height="16" xmlns="http://www.w3.org/2000/svg" viewBox="0 0 16 16" shape-rendering="geometricPrecision" fill="#24437c"><defs><mask id="a"><rect fill="#fff" width="100%" height="100%"/><path fill="#000" d="M8.986 1.143H17v3.565H8.986z"/></mask></defs><path d="M9.986 2.143H16v1.565H9.986z" fill="#cb1800"/><path d="M11.23 3.39c.004-.045.01-.09.01-.137 0-1.79-1.45-3.24-3.24-3.24-1.392 0-2.572.874-3.032 2.103l1.31.4c.287-.667.95-1.135 1.723-1.135 1.034 0 1.872.84 1.872 1.873 0 .527-.22 1.002-.57 1.342-.584.62-1.028.62-2.174 1.236-1.828.983-2.273 2.51-2.37 3.413v6.745h6.483v-12.6h-.01v.002zm-.81 10.615L9.4 15.028l-1.453-1.453-1.452 1.454-1.023-1.025 1.453-1.453-1.452-1.45 1.022-1.023 1.45 1.45L9.4 10.08l1.02 1.02-1.453 1.452 1.452 1.453z" mask="url(#a)"/></svg>