<svg width="16" height="16" xmlns="http://www.w3.org/2000/svg" viewBox="0 0 16 16" shape-rendering="geometricPrecision" fill="#cb1800"><defs><mask id="a"><rect fill="#fff" width="100%" height="100%"/><path d="M12.997.858c-1.845 0-3.446 1.04-4.253 2.563.808 1.524 2.408 2.563 4.253 2.563 1.844 0 3.444-1.04 4.253-2.562C16.44 1.898 14.84.86 12.997.86z" fill="#000"/></mask></defs><path d="M12.97 1.607c-1.314 0-2.453.74-3.028 1.825.575 1.085 1.715 1.825 3.03 1.825 1.313 0 2.452-.74 3.028-1.825-.576-1.084-1.716-1.825-3.03-1.825z"/><path d="M8.036 3.658c1.012 0 1.83-.822 1.83-1.828C9.866.818 9.048 0 8.036 0S6.204.818 6.204 1.83c0 1.006.82 1.828 1.832 1.828zm1.805 10.53V5.53H4.36v1.362h1.797v7.295H4.354V16h7.29v-1.813H9.842z" mask="url(#a)"/></svg>