<svg width="16" height="16" xmlns="http://www.w3.org/2000/svg" viewBox="0 0 16 16" shape-rendering="geometricPrecision" fill="#00962d"><defs><mask id="a"><rect fill="#fff" width="100%" height="100%"/><path d="M13.848-1.1L12.05.695l.287.287c-1.812.575-3.107 2.263-3.107 4.254v.987h2.626v-.988c0-.49.19-.954.538-1.302l.03-.03 1.425 1.42 3.21-3.212L13.85-1.1z" fill="#000"/></mask></defs><path d="M13.848-.04l-.736.735.82.82H13.7l-.157.01c-1.978.083-3.563 1.713-3.563 3.71v.237h1.126v-.237c0-.69.27-1.343.76-1.833s1.14-.76 1.832-.76h.3l-.886.888.735.734L16 2.11 13.848-.04z" fill="#cb1800"/><g mask="url(#a)"><path d="M4.27 11.728l4.867-2.562L11.7 4.3 6.832 6.863 4.27 11.728zm2.96-4.47c.417-.417 1.094-.417 1.51 0 .42.42.42 1.096 0 1.513-.417.42-1.094.42-1.51 0-.42-.417-.42-1.094 0-1.51z"/><path d="M8 1.01c-3.86 0-6.99 3.13-6.99 6.993 0 3.858 3.13 6.985 6.99 6.986 3.86-.003 6.988-3.13 6.99-6.987C14.99 4.14 11.86 1.01 8 1.01zm1.145 12.445L8 12.31l-1.145 1.145c-2.16-.454-3.857-2.152-4.31-4.31L3.69 8 2.546 6.855C3 4.695 4.696 3 6.856 2.545L8 3.69l1.145-1.145c2.158.453 3.855 2.15 4.31 4.31L12.31 8l1.146 1.146c-.453 2.158-2.15 3.856-4.31 4.31z"/></g></svg>