<svg width="16" height="16" xmlns="http://www.w3.org/2000/svg" viewBox="0 0 16 16" shape-rendering="geometricPrecision" fill="#00962d"><defs><mask id="a"><rect fill="#fff" width="100%" height="100%"/><path d="M13.848-1.1L12.05.695l.287.287c-1.812.575-3.107 2.263-3.107 4.254v.987h2.626v-.988c0-.49.19-.954.538-1.302l.03-.03 1.425 1.42 3.21-3.212L13.85-1.1z" fill="#000"/></mask></defs><path d="M13.848-.04l-.736.735.82.82H13.7l-.157.01c-1.978.083-3.563 1.713-3.563 3.71v.237h1.126v-.237c0-.69.27-1.343.76-1.833s1.14-.76 1.832-.76h.3l-.886.888.735.734L16 2.11 13.848-.04z" fill="#cb1800"/><g mask="url(#a)"><path d="M1.81 0v16h12.38V0H1.81zm11.34 14.96H2.794V1.01H13.15v13.95z"/><path d="M8.067 4.602c.76 0 1.374-.616 1.374-1.373S8.83 1.856 8.068 1.856c-.757 0-1.372.616-1.372 1.372 0 .756.615 1.372 1.372 1.372zm1.354 7.896v-6.49H5.313v1.02H6.66v5.47H5.307v1.36h5.467v-1.36H9.42z"/></g></svg>