<?xml version="1.0"?><!DOCTYPE svg PUBLIC "-//W3C//DTD SVG 1.1//EN" "http://www.w3.org/Graphics/SVG/1.1/DTD/svg11.dtd"><svg xmlns="http://www.w3.org/2000/svg" viewBox="0 0 16 16" shape-rendering="geometricPrecision" fill="#000"><defs><mask id="pause-path"><rect fill="#fff" width="100%" height="100%"/><polygon points="13.135,-1 12.45,-1 9.585,-1 9.585,6.956 12.45,6.956 13.135,6.956 16,6.956 16,-1 " fill="#000"/></mask></defs><g fill="#cb1800"><g><rect x="10.585" y="0" width="1.55" height="5.956"/></g><g><rect x="13.45" y="0" width="1.55" height="5.956"/></g></g><g mask="url(#pause-path)"><g><g><path d="M12.933,2.584H3.067c-1.166,0-2.119,0.953-2.119,2.119v5.504c0,1.164,0.953,2.119,2.119,2.119h0.987 c0.023,0.76-0.201,1.758-1.224,2.674c2.905-0.451,4.518-2.537,4.621-2.674h5.481c1.166,0,2.119-0.955,2.119-2.119V4.703 C15.052,3.537,14.099,2.584,12.933,2.584z M4.495,8.746c-0.711,0-1.288-0.578-1.288-1.289c0-0.711,0.577-1.287,1.288-1.287 c0.711,0,1.288,0.576,1.288,1.287C5.783,8.168,5.206,8.746,4.495,8.746z M8,8.746c-0.711,0-1.289-0.578-1.289-1.289 C6.711,6.746,7.29,6.17,8,6.17c0.711,0,1.287,0.576,1.287,1.287C9.288,8.168,8.711,8.746,8,8.746z M11.505,8.746 c-0.711,0-1.288-0.578-1.288-1.289c0-0.711,0.577-1.287,1.288-1.287c0.711,0,1.288,0.576,1.288,1.287 C12.793,8.168,12.216,8.746,11.505,8.746z"/></g></g></g></svg>
