<svg width="16" height="16" xmlns="http://www.w3.org/2000/svg" viewBox="0 0 16 16" shape-rendering="geometricPrecision"><defs><mask id="a"><rect fill="#fff" width="100%" height="100%"/><path d="M13.135-1H9.585v7.956H16V-1z"/></mask></defs><g fill="#cb1800"><path d="M10.585 0h1.55v5.956h-1.55zM13.45 0H15v5.956h-1.55z"/></g><g mask="url(#a)"><path d="M6.955 7.908C7.532 7.908 8 7.438 8 6.863V4.425s.153-.347.662.127c.655.61 1.428.112 1.428.112s-.95-.23-1.145-.848C8.695 3.03 8 3.03 8 3.03h-.697v2.852c-.11-.04-.226-.064-.348-.064-.577 0-1.045.468-1.045 1.045 0 .576.467 1.045 1.045 1.045zM10.055 14.302l2.54-2.338h-2.54"/><path d="M2.595 1.016v13.97h6.008v-4.47h4.802v-9.5H2.595zm9.44 8.027h-4.79v4.6H3.916V2.32h8.116v6.725z"/></g></svg>