<?xml version="1.0"?><!DOCTYPE svg PUBLIC "-//W3C//DTD SVG 1.1//EN" "http://www.w3.org/Graphics/SVG/1.1/DTD/svg11.dtd"><svg width="16px" height="16px" xmlns="http://www.w3.org/2000/svg" viewBox="0 0 16 16" shape-rendering="geometricPrecision" fill="#000"><defs><mask id="pause-path"><rect fill="#fff" width="100%" height="100%"/><polygon points="13.135,-1 12.45,-1 9.585,-1 9.585,6.956 12.45,6.956 13.135,6.956 16,6.956 16,-1 " fill="#000"/></mask></defs><g fill="#cb1800"><g><rect x="10.585" y="0" width="1.55" height="5.956"/></g><g><rect x="13.45" y="0" width="1.55" height="5.956"/></g></g><g mask="url(#pause-path)"><polygon points="3.032,-0.012 3.032,1.044 13.361,1.044 13.361,10.27 14.434,10.27 14.434,-0.012"/><polygon points="8.98,15.293 11.505,12.968 8.98,12.968"/><path d="M1.566,15.97h5.971V11.53h4.773V2.088H1.566V15.97z M2.94,3.326h8.116v6.725h-4.79v4.601H2.94V3.326z"/></g></svg>