<svg width="16" height="16" xmlns="http://www.w3.org/2000/svg" viewBox="0 0 16 16" shape-rendering="geometricPrecision"><defs><mask id="a"><rect fill="#fff" width="100%" height="100%"/><path d="M13.135-1H9.585v7.956H16V-1z"/></mask></defs><g fill="#cb1800"><path d="M10.585 0h1.55v5.956h-1.55zM13.45 0H15v5.956h-1.55z"/></g><g mask="url(#a)"><path d="M11.636 3.477h-9.03C1.183 3.477.028 4.594.026 5.97v4.866c.002 1.373 1.157 2.49 2.58 2.492h.2c-.1.396-.33.832-.845 1.285L.364 16l2.125-.314c2.408-.37 3.896-1.77 4.432-2.357h4.717c1.425-.003 2.578-1.12 2.58-2.493V5.97c-.003-1.376-1.156-2.493-2.58-2.493zm1.298 7.36c0 .685-.588 1.253-1.298 1.255H6.3l-.192.246c-.034.05-.8 1.002-2.167 1.633.156-.415.216-.817.212-1.17 0-.024 0-.06-.002-.108l-.018-.6H2.606c-.71-.002-1.298-.57-1.298-1.256V5.97c0-.688.588-1.255 1.298-1.257h9.03c.71.002 1.298.568 1.298 1.258v4.866z"/><path d="M13.854 1.607H3.987c-.828 0-1.542.488-1.89 1.184.286-.143.603-.23.945-.23h9.866c1.166 0 2.12.95 2.12 2.116v5.504c0 .336-.088.65-.227.934.69-.35 1.173-1.06 1.173-1.883V3.728c0-1.165-.954-2.12-2.12-2.12z"/><path d="M2.6 8.63h8.93v1.245H2.6zM2.6 6.05h8.93v1.247H2.6z"/></g></svg>