<svg width="16" height="16" xmlns="http://www.w3.org/2000/svg" viewBox="0 0 16 16" shape-rendering="geometricPrecision"><defs><mask id="a"><rect fill="#fff" width="100%" height="100%"/><path d="M13.135-1H9.585v7.956H16V-1z"/></mask></defs><g fill="#cb1800"><path d="M10.585 0h1.55v5.956h-1.55zM13.45 0H15v5.956h-1.55z"/></g><path d="M1.01 8.002c0 3.857 3.13 6.986 6.99 6.986 3.86 0 6.99-3.13 6.99-6.986 0-3.86-3.13-6.99-6.99-6.99-3.86 0-6.99 3.13-6.99 6.99zM8.515 8L5.268 4.755 6.954 3.07l4.93 4.927-4.93 4.933-1.686-1.684L8.514 8z" mask="url(#a)"/></svg>