<?xml version="1.0"?><!DOCTYPE svg PUBLIC "-//W3C//DTD SVG 1.1//EN" "http://www.w3.org/Graphics/SVG/1.1/DTD/svg11.dtd"><svg width="16px" height="16px" xmlns="http://www.w3.org/2000/svg" viewBox="0 0 16 16" shape-rendering="geometricPrecision" fill="#000"><defs><mask id="pause-path"><rect fill="#fff" width="100%" height="100%"/><polygon points="13.135,-1 12.45,-1 9.585,-1 9.585,6.956 12.45,6.956 13.135,6.956 16,6.956 16,-1 " fill="#000"/></mask></defs><g fill="#cb1800"><g><rect x="10.585" y="0" width="1.55" height="5.956"/></g><g><rect x="13.45" y="0" width="1.55" height="5.956"/></g></g><g mask="url(#pause-path)"><path d="M3.359,0v1.056h10.329v12.842h1.072V0H3.359z M1.24,16h11.401V2.102H1.24V16z M6.956,3.726 c1.467,0,2.651,1.188,2.651,2.651c0,1.47-1.185,2.653-2.651,2.653c-1.464,0-2.653-1.184-2.653-2.653 C4.302,4.914,5.492,3.726,6.956,3.726z M2.447,12.184c0-1.263,1.027-2.295,2.288-2.295h4.435c1.262,0,2.296,1.032,2.296,2.295 v2.98H2.447V12.184z"/></g></svg>