<svg width="16" height="16" xmlns="http://www.w3.org/2000/svg" viewBox="0 0 16 16" shape-rendering="geometricPrecision"><defs><mask id="a"><rect fill="#fff" width="100%" height="100%"/><path d="M13.135-1H9.585v7.956H16V-1z"/></mask></defs><g fill="#cb1800"><path d="M10.585 0h1.55v5.956h-1.55zM13.45 0H15v5.956h-1.55z"/></g><path d="M11.23 3.39c.003-.046.01-.09.01-.136 0-1.79-1.452-3.242-3.243-3.242-1.387 0-2.57.875-3.03 2.104l1.31.4c.286-.665.948-1.134 1.72-1.134 1.033 0 1.873.837 1.873 1.872 0 .525-.222 1-.57 1.34-.582.622-1.03.622-2.175 1.236-1.824.984-2.27 2.51-2.366 3.414v6.744h6.48V3.39h-.01zM7.446 15.148l-2.33-2.328 1.024-1.024L7.44 13.1l2.492-2.49 1.024 1.026-3.513 3.512z" mask="url(#a)"/></svg>