<svg width="16" height="16" xmlns="http://www.w3.org/2000/svg" viewBox="0 0 16 16" shape-rendering="geometricPrecision" fill="#00962d"><defs><mask id="a"><rect fill="#fff" width="100%" height="100%"/><path d="M12.997.858c-1.845 0-3.446 1.04-4.253 2.563.808 1.524 2.408 2.563 4.253 2.563 1.844 0 3.444-1.04 4.253-2.562C16.44 1.898 14.84.86 12.997.86z" fill="#000"/></mask></defs><path d="M12.97 1.607c-1.314 0-2.453.74-3.028 1.825.575 1.085 1.715 1.825 3.03 1.825 1.313 0 2.452-.74 3.028-1.825-.576-1.084-1.716-1.825-3.03-1.825z" fill="#cb1800"/><path d="M2.27.963v13.97h11.46V.964H2.27zm5.746 1.633c1.475 0 2.665 1.194 2.665 2.665 0 1.478-1.19 2.667-2.664 2.667-1.47 0-2.667-1.19-2.667-2.666 0-1.47 1.195-2.664 2.666-2.664zm4.533 11.497H3.483v-2.996c0-1.268 1.032-2.306 2.3-2.306h4.458c1.268 0 2.308 1.04 2.308 2.307v2.996z" mask="url(#a)"/></svg>