<svg width="16" height="16" xmlns="http://www.w3.org/2000/svg" viewBox="0 0 16 16" shape-rendering="geometricPrecision" fill="#00962d"><defs><mask id="a"><rect fill="#fff" width="100%" height="100%"/><path d="M12.997.858c-1.845 0-3.446 1.04-4.253 2.563.808 1.524 2.408 2.563 4.253 2.563 1.844 0 3.444-1.04 4.253-2.562C16.44 1.898 14.84.86 12.997.86z" fill="#000"/></mask></defs><path d="M12.97 1.607c-1.314 0-2.453.74-3.028 1.825.575 1.085 1.715 1.825 3.03 1.825 1.313 0 2.452-.74 3.028-1.825-.576-1.084-1.716-1.825-3.03-1.825z" fill="#cb1800"/><path d="M7.975 1.052c-3.85 0-6.973 3.124-6.975 6.97h2.077c0-2.7 2.193-4.896 4.897-4.896 2.705 0 4.9 2.195 4.9 4.897 0 2.706-2.195 4.9-4.9 4.9V15c3.852 0 6.974-3.126 6.974-6.977 0-3.847-3.122-6.97-6.973-6.97zm2.62 6.97c0-1.443-1.175-2.616-2.62-2.616s-2.62 1.173-2.62 2.617c0 1.446 1.173 2.622 2.62 2.622s2.62-1.175 2.62-2.622z" mask="url(#a)"/></svg>