<svg width="16" height="16" xmlns="http://www.w3.org/2000/svg" viewBox="0 0 16 16" shape-rendering="geometricPrecision" fill="#00962d"><defs><mask id="a"><rect fill="#fff" width="100%" height="100%"/><path d="M12.997.858c-1.845 0-3.446 1.04-4.253 2.563.808 1.524 2.408 2.563 4.253 2.563 1.844 0 3.444-1.04 4.253-2.562C16.44 1.898 14.84.86 12.997.86z" fill="#000"/></mask></defs><path d="M12.97 1.607c-1.314 0-2.453.74-3.028 1.825.575 1.085 1.715 1.825 3.03 1.825 1.313 0 2.452-.74 3.028-1.825-.576-1.084-1.716-1.825-3.03-1.825z" fill="#cb1800"/><g mask="url(#a)"><path d="M2.907 3.45h-.953v8.978h13.052V3.45H2.907zm.806 7.455c0-.927.263-1.39.635-1.39.423 0 .623.51.623 1.373 0 .224-.015.417-.042.587H3.756c-.027-.164-.043-.353-.043-.57zm2.164.57h-.253c.033-.185.055-.383.055-.603 0-1.094-.418-1.895-1.315-1.895-.87 0-1.36.77-1.36 1.934 0 .204.022.39.055.565h-.153v-7.07H5.88l-.003 7.07zm4.037 0H6.832v-7.07h3.082v7.07zm4.138 0h-3.188v-7.07h3.188v7.07zM.634 5.47h.954v5.09H.634zM15.413 5.47h.952v5.09h-.952z"/><path d="M8.646 8.347h.664v-.944h.48V6.87h-.48V4.63h-.83L6.96 6.947v.457h1.686v.944zM7.634 6.87v-.01l.687-1.018c.115-.206.212-.394.326-.63h.022c-.01.225-.022.437-.022.648v1.012H7.634V6.87zM13.746 10.57h-1.52v-.013l.32-.28c.65-.6 1.12-1.126 1.12-1.778 0-.606-.4-1.126-1.225-1.126-.468 0-.874.164-1.142.383l.205.497c.188-.142.464-.31.796-.31.484 0 .66.293.66.623-.005.492-.416.938-1.29 1.75l-.44.406v.428h2.516v-.58z"/></g></svg>