<svg width="16" height="16" xmlns="http://www.w3.org/2000/svg" viewBox="0 0 16 16" shape-rendering="geometricPrecision" fill="#6e6e6e"><defs><mask id="a"><rect fill="#fff" width="100%" height="100%"/><path d="M12.997.858c-1.845 0-3.446 1.04-4.253 2.563.808 1.524 2.408 2.563 4.253 2.563 1.844 0 3.444-1.04 4.253-2.562C16.44 1.898 14.84.86 12.997.86z" fill="#000"/></mask></defs><path d="M12.97 1.607c-1.314 0-2.453.74-3.028 1.825.575 1.085 1.715 1.825 3.03 1.825 1.313 0 2.452-.74 3.028-1.825-.576-1.084-1.716-1.825-3.03-1.825z" fill="#cb1800"/><g mask="url(#a)"><path d="M7.045 11.946h.995v.995h-.995zM9.036 13.936h1.991v-.995h-.995v-.994h-.994M10.03 7.964v.997H8.04v-.996h1.991V6.97h-.994v-.995H7.045v.995H6.05v1.99h.995v.996h.995v.995h1.991v-.994h.996v.995h1.991v-.994h-.995V6.97h-.994v.994"/><path d="M10.03 10.95h.996v.996h-.995zM1.075 6.97h.995v.994h-.995z"/><path d="M3.065 5.975H6.05v-1.99h.995V2.99H6.05V1H1.075v4.974h.995v.996h.995v-.995zm-.995-3.98h2.985V4.98H2.07V1.995zM12.02 14.93h.996v-.994h.995v-.995h-.994v-.994h-.995M13.016 10.95h.995v.996h-.994zM14.01 7.964h.996v.997h-.995zM3.065 11.946h.995v.995h-.995z"/><path d="M6.05 10.95v-.994H4.06V8.96h.995V6.97H4.06v.994h-.995v1.992h-1.99V14.93H6.05v-.994h.995v-.995H6.05v-1.99zm-3.98 2.986V10.95h2.985v2.986H2.07zM3.065 2.99h.995v.995h-.995zM12.02 2.99h.996v.995h-.995z"/><path d="M14.01 1h-3.979v.995H8.04V4.98h.996V2.99h.995v3.98h.996v-.995h3.981V1h-.995zm0 3.98h-2.984V1.995h2.985V4.98z"/></g></svg>