<svg width="16" height="16" xmlns="http://www.w3.org/2000/svg" viewBox="0 0 16 16" shape-rendering="geometricPrecision" fill="#6e6e6e"><defs><mask id="a"><rect fill="#fff" width="100%" height="100%"/><path d="M12.997.858c-1.845 0-3.446 1.04-4.253 2.563.808 1.524 2.408 2.563 4.253 2.563 1.844 0 3.444-1.04 4.253-2.562C16.44 1.898 14.84.86 12.997.86z" fill="#000"/></mask></defs><path d="M12.97 1.607c-1.314 0-2.453.74-3.028 1.825.575 1.085 1.715 1.825 3.03 1.825 1.313 0 2.452-.74 3.028-1.825-.576-1.084-1.716-1.825-3.03-1.825z" fill="#cb1800"/><path mask="url(#a)" d="M9.985 2L8.27 3.713l1.913 1.914h-.546l-.364.018c-4.608.196-8.3 3.993-8.3 8.646v.554h2.624v-.553c0-1.61.628-3.127 1.768-4.27 1.142-1.14 2.66-1.768 4.272-1.768h.552V8.25h.146L8.27 10.318l1.714 1.71L15 7.013 9.985 2z"/></svg>