<svg width="16" height="16" xmlns="http://www.w3.org/2000/svg" viewBox="0 0 16 16" shape-rendering="geometricPrecision" fill="#6e6e6e"><defs><mask id="a"><rect fill="#fff" width="100%" height="100%"/><path d="M12.997.858c-1.845 0-3.446 1.04-4.253 2.563.808 1.524 2.408 2.563 4.253 2.563 1.844 0 3.444-1.04 4.253-2.562C16.44 1.898 14.84.86 12.997.86z" fill="#000"/></mask></defs><path d="M12.97 1.607c-1.314 0-2.453.74-3.028 1.825.575 1.085 1.715 1.825 3.03 1.825 1.313 0 2.452-.74 3.028-1.825-.576-1.084-1.716-1.825-3.03-1.825z" fill="#cb1800"/><g mask="url(#a)"><path d="M13.997 2.942v9.965H2.957V2.942h11.04m1-1H1.957v11.965h13.04V1.942z"/><path d="M1.958 4.06h13.054v1.065H1.958z"/><path d="M5.87 4.06h1.065v9.577H5.87zM10.102 4.06h1.064v9.577h-1.064zM3.985 5.89H5.09v1.106H3.986zM3.985 10.89H5.09v1.106H3.986zM7.932 8.85h1.106v1.105H7.932zM7.932 6.996h1.106v1.106H7.932zM11.942 9.955h1.106v1.106h-1.106zM11.942 8h1.106v1.106h-1.106z"/></g></svg>